<?xml version="1.0" encoding="utf-8"?>
<!-- Generator: Adobe Illustrator 24.0.1, SVG Export Plug-In . SVG Version: 6.00 Build 0)  -->
<svg version="1.1" id="Layer_1" xmlns="http://www.w3.org/2000/svg" xmlns:xlink="http://www.w3.org/1999/xlink" x="0px" y="0px"
	 viewBox="0 0 1601 901" style="enable-background:new 0 0 1601 901;" xml:space="preserve">
<style type="text/css">
	.st0{fill:#D0D6D3;}
	.st1{stroke:#000000;stroke-linecap:round;stroke-linejoin:round;stroke-miterlimit:10;}
	.st2{fill:#FAC165;stroke:#000000;stroke-linecap:round;stroke-linejoin:round;stroke-miterlimit:10;}
	.st3{fill:#D19647;stroke:#000000;stroke-linecap:round;stroke-linejoin:round;stroke-miterlimit:10;}
	.st4{fill:#F2F7FF;stroke:#000000;stroke-linecap:round;stroke-linejoin:round;stroke-miterlimit:10;}
	.st5{fill:#EFD0A3;}
	.st6{fill:#F2F7FF;}
	.st7{fill:none;stroke:#000000;stroke-linecap:round;stroke-linejoin:round;stroke-miterlimit:10;}
	.st8{fill:#E5A86C;stroke:#000000;stroke-linecap:round;stroke-linejoin:round;stroke-miterlimit:10;}
	.st9{fill:#793F00;stroke:#000000;stroke-linecap:round;stroke-linejoin:round;stroke-miterlimit:10;}
	.st10{fill:#FAE4E2;stroke:#000000;stroke-linecap:round;stroke-linejoin:round;stroke-miterlimit:10;}
	.st11{fill:#DA872B;stroke:#000000;stroke-linecap:round;stroke-linejoin:round;stroke-miterlimit:10;}
	.st12{fill:#D1623F;stroke:#000000;stroke-linecap:round;stroke-linejoin:round;stroke-miterlimit:10;}
	.st13{fill:#BC4F31;stroke:#000000;stroke-linecap:round;stroke-linejoin:round;stroke-miterlimit:10;}
	.st14{fill:#FFFFFF;}
	.st15{fill:#BA7B31;stroke:#000000;stroke-linecap:round;stroke-linejoin:round;stroke-miterlimit:10;}
	.st16{fill:#BBDFFF;stroke:#000000;stroke-linecap:round;stroke-linejoin:round;stroke-miterlimit:10;}
	.st17{fill:#FFE7C7;stroke:#000000;stroke-linecap:round;stroke-linejoin:round;stroke-miterlimit:10;}
	.st18{opacity:0.5;stroke:#000000;stroke-linecap:round;stroke-linejoin:round;stroke-miterlimit:10;enable-background:new    ;}
	.st19{stroke:#000000;stroke-width:1;stroke-linecap:round;stroke-linejoin:round;stroke-miterlimit:9.9996;}
	.st20{fill:#D3C4B2;stroke:#000000;stroke-linecap:round;stroke-linejoin:round;stroke-miterlimit:10;}
	.st21{fill:#F2F7FF;stroke:#000000;stroke-width:1;stroke-linecap:round;stroke-linejoin:round;stroke-miterlimit:9.9996;}
	.st22{fill:#D3C4B2;stroke:#000000;stroke-width:1;stroke-linecap:round;stroke-linejoin:round;stroke-miterlimit:9.9996;}
	.st23{fill:#1D123A;stroke:#000000;stroke-linecap:round;stroke-linejoin:round;stroke-miterlimit:10;}
	.st24{fill:none;stroke:#000000;stroke-linecap:round;stroke-linejoin:round;}
	.st25{fill:none;stroke:#000000;stroke-linecap:round;stroke-linejoin:round;stroke-dasharray:6.899,6.899;}
	.st26{fill:#585E5B;stroke:#000000;stroke-linecap:round;stroke-linejoin:round;stroke-miterlimit:10;}
	.st27{fill:#363837;stroke:#000000;stroke-linecap:round;stroke-linejoin:round;stroke-miterlimit:10;}
	.st28{fill:#FFFFFF;stroke:#000000;stroke-linecap:round;stroke-linejoin:round;stroke-miterlimit:10;}
	.st29{fill:#DBDDDC;stroke:#000000;stroke-linecap:round;stroke-linejoin:round;stroke-miterlimit:10;}
	.st30{fill:#3966D8;}
	.st31{fill:#C8CECC;stroke:#000000;stroke-linecap:round;stroke-linejoin:round;stroke-miterlimit:10;}
	.st32{fill:#8A9994;stroke:#000000;stroke-linecap:round;stroke-linejoin:round;stroke-miterlimit:10;}
</style>
<rect class="st0" width="1601" height="901"/>
<polygon class="st1" points="117.2,735.8 117,807.1 261.9,729 233.4,650.8 "/>
<polygon class="st1" points="1074.3,0.5 683.2,0.5 107.7,306.5 166.9,451.9 377.8,345.7 441,427.6 579.4,333.9 529.9,271.3 "/>
<g>
	<polygon points="1334.9,438 1117.2,401.6 1279.1,173.2 1368.8,447.3 	"/>
	<polyline class="st2" points="1531.4,186.2 1369.5,444.2 1151.8,398 1151.6,286.6 1531,76.8 1531.4,186.2 	"/>
	<polygon class="st3" points="1368.8,445.6 1151.4,399.4 1151.2,288 1368.8,167.7 	"/>
	<polygon class="st1" points="1369.1,334.6 1151.4,288.4 1313.3,30.3 1531,76.6 	"/>
	<path class="st4" d="M1507.1,58.9c-17,4.9-54.2,0.5-67.2-2.2s-126.6-26.5-126.6-26.5l-161.9,258.1l217.7,46.3
		c0,0,120-191.5,127.5-203.1C1511.8,107.8,1507.1,58.9,1507.1,58.9z"/>
	<path class="st5" d="M1477.9,106.4c-15.1-8.4-20.9-20-17.2-30.9L1368,55.8c-1.8,1.3-3.7,2.5-5.9,3.7c-14.6,8.1-34.6,11.3-53.6,9.8
		L1192.1,255c1.9,0.8,3.7,1.7,5.5,2.7c13.4,7.4,19.4,17.3,18.1,27l101.8,21.6c2.5-2.2,5.4-4.2,8.9-6.1c14.3-7.8,33.6-11.1,52.1-9.9
		l111.9-178.5C1485.9,110.3,1481.7,108.5,1477.9,106.4z"/>
	<path class="st6" d="M1296.9,157.9c24.7-13.6,64.5-13.6,88.9,0s24.3,35.5-0.3,49.1c-24.6,13.6-64.5,13.6-88.9,0
		C1272.1,193.5,1272.2,171.5,1296.9,157.9"/>
	<polyline class="st7" points="1531,105 1368.5,363.1 1151.4,316.9 	"/>
	<polyline class="st7" points="1531,133.5 1368.5,391.6 1151.4,345.3 	"/>
	<polyline class="st7" points="1531,162 1368.5,420.1 1151.4,373.8 	"/>
</g>
<g>
	<path class="st8" d="M941,376.3c0,0,3.3,21.7,3,41.2c-0.2,12.3-2.5,34-2.5,34L613.9,650.7l-297-171.5c0,0-0.1-8.6-0.1-8.3
		l38.9-20.5L941,376.3z"/>
	<path class="st9" d="M611.9,610.8l1.4,19.8l-3.8,13.8c0,0-292.7-173.8-292.7-173.5l38.9-20.5L611.9,610.8z"/>
	<polygon class="st9" points="941,376.3 613.4,575.4 316.4,403.9 644.1,204.8 	"/>
	<path class="st10" d="M351.5,426.1l258.7,150.6c0,0,4.2,16.2,4.3,32.3s-2.9,18.7-2.9,18.7L348.8,474.1c0,0,2.8-5.5,3.5-29.6
		C352.6,430.7,351.5,426.1,351.5,426.1z"/>
	<path class="st11" d="M607.9,639.2c0.7-5.7,2.4-9.6,2-25.9c-0.4-15-2.3-32-2.3-32L316.5,413l-0.1-9l296.9,171.5
		c0,0,3.4,24.6,3.5,41.9c0.1,17.3-3,33.5-3,33.5L316.9,479.4l-0.1-8.6L607.9,639.2z"/>
	<polygon class="st1" points="440.6,329.1 491.3,295.7 559.9,418.9 519.1,434.5 	"/>
</g>
<g>
	<path class="st12" d="M855.2,182.5c1.3-3.9,50.7-72.9,95-93.7c17.5-8.2,240.7-37.7,294.1-22.1s90.2,89.8,90.2,89.8"/>
	<line class="st7" x1="959.3" y1="96.7" x2="903.4" y2="170.8"/>
	<path class="st7" d="M1109,88.8c0,0,69-3.9,119.7,7.8s89.8,48.8,89.8,48.8"/>
	<path class="st13" d="M1078.4,150c0,0-100.8-13-151.6,5.2s-67.7,15.6-102.8,23.4c-35.1,7.8-141.8,57.3-171.8,79.4
		C622.3,280.1,518.8,390.1,483,441.5c-20.8,29.9-48.1,221.3-48.1,221.3l162.7,163.9"/>
	<path class="st13" d="M824,207.3c18.2-10.4,255-59.9,304.5-69s74.2,0,134,0c59.9,0,85.9-56,170.5,20.8s112.2,169.2,89,193
		c-23.2,23.8-126.8,58.2-126.8,58.2L948.9,645.8"/>
	<path class="st13" d="M1078.4,216.4C1027,284,860.4,373.8,792.8,435s-96.2,91-131.4,141.8c-94.3,136-80,234.2-80,234.2l54,15.6
		L999,723.7"/>
	<path class="st14" d="M697.1,758.5c-20.2-28.3-34.6-60.4-27.8-93.4c4.3-21.9,17-41.8,29.5-60.9c14.9-23.1,30.4-45.3,45.7-67.9
		c0.7-1.1,5.1-6.2,4.9-7.4c-11.3,4.3-24.1,9-34.5,13.4c-13.4,18.9-17.6,33.8-30.1,52.9c-14.1,22-36.8,53.5-38.3,79.3
		c-2.1,33,12.6,64.5,32.6,92.6L697.1,758.5z"/>
	<path class="st14" d="M739.4,755.6c-20.2-28.3-34.6-60.4-27.8-93.4c4.3-21.9,17-41.8,29.5-60.9c14.9-23.1,30.4-45.3,45.7-67.9
		c0.7-1.1,5.1-6.2,4.9-7.4c-11.3,4.3-24.1,9-34.5,13.4c-13.4,18.9-28.3,42.5-40.8,61.6c-14.1,22-26.1,44.9-27.6,70.6
		c-2.1,33,12.6,64.5,32.6,92.6L739.4,755.6z"/>
</g>
<path class="st1" d="M514.8,400.9c0,0,11.1,18.2,41.1,35.8s44.9,27.9,54.4,48.4c9.5,20.6,40.6,110.1,40.6,110.1s29.7,7.6,57.4,14.6
	s76,7.5,76,7.5L539.9,365.1"/>
<g>
	<polygon class="st15" points="1277.4,476.5 743.1,653.6 390.6,206.6 390.6,183.9 1277.4,453.9 	"/>
	<polygon class="st2" points="1277.4,453.9 743.1,630.9 390.6,183.9 924.9,6.9 	"/>
	<polygon class="st16" points="1215.8,439.2 760.8,589.9 452.2,198.6 580.3,156.1 907.2,47.8 	"/>
	<g>
		<path class="st14" d="M506.4,265.6c-0.6,0-1.2-0.4-1.4-1c-0.3-0.8,0.2-1.6,1-1.9l444.2-145c0.8-0.3,1.1-1.5,3.5,0.9
			c0.2,0.2-1.8,1.7-2.6,2l-444.2,145C506.7,265.5,506.5,265.6,506.4,265.6z"/>
	</g>
	<line class="st7" x1="723" y1="322.8" x2="589" y2="152.2"/>
	<line class="st7" x1="936.8" y1="256" x2="801.9" y2="85.7"/>
	<line class="st7" x1="502.7" y1="262.6" x2="959.3" y2="114"/>
	<polygon class="st17" points="1215.8,439.2 760.8,589.9 587.8,371.4 1042.8,220.7 	"/>
	<polygon class="st3" points="907.2,64 1205.7,442.5 1215.8,439.2 907.2,47.8 452.2,198.6 462.3,211.4 	"/>
	<line class="st7" x1="743.1" y1="630.9" x2="743.1" y2="653.6"/>
	<polygon class="st18" points="434.8,262.6 434.8,239.9 470.3,221.6 477.9,231.2 590.5,169.1 590.5,152.1 723,73.8 390.6,183.9 
		390.6,206.6 	"/>
	<g id="toilet-paper">
		<polyline class="st1" points="826.1,447.7 798.8,431 780.8,418.9 807.4,413.2 		"/>
		
			<ellipse transform="matrix(0.976 -0.2176 0.2176 0.976 -61.232 189.2094)" class="st19" cx="828.5" cy="372.6" rx="99.7" ry="46.7"/>
		<path class="st20" d="M665.6,272.9l185.3-62.4l94.8,120l0,0c0.1,0.2,0.3,0.3,0.4,0.5c17.3,21.9-10.1,53.7-61.3,70.9
			c-51.2,17.2-106.7,13.4-124-8.5c-0.1-0.2-0.3-0.4-0.4-0.5l0,0L665.6,272.9z"/>
		<path class="st1" d="M709.8,258l113.4-38.2c0,0,103.1,118.6,103.2,118.7c17.3,21.9,9.6,46.2-41.6,63.4
			c-17.3,5.8-35.1,9.2-51.7,10.4c-2.8-2.3-5.3-4.9-7.4-7.6c-0.2-0.2-0.3-0.5-0.5-0.7l0,0L709.8,258z"/>
		<path class="st4" d="M850.9,210.5l94.8,120c0,0,0.3,0.4,0.4,0.5c17.3,21.9-10.1,53.7-61.3,70.9c0,0-64.5,22.8-58.7,45.7l-94.8-120
			c-5.5-21.7,52-43.2,58.1-45.5L850.9,210.5z"/>
		
			<ellipse transform="matrix(0.976 -0.2176 0.2176 0.976 -34.5265 170.8956)" class="st21" cx="758.7" cy="242.2" rx="99.7" ry="46.7"/>
		
			<ellipse transform="matrix(0.976 -0.2176 0.2176 0.976 -34.7653 171.1231)" class="st22" cx="759.6" cy="243.4" rx="33.2" ry="15.6"/>
		<path class="st23" d="M760.6,227.3c13.2-2.1,25.3,0,29.8,5.6s0,13.3-10.2,19.1L760.6,227.3z"/>
		<g>
			<g>
				<line class="st24" x1="841.7" y1="253.1" x2="844" y2="255.9"/>
				<line class="st25" x1="848.2" y1="261.3" x2="931.6" y2="366.9"/>
				<line class="st24" x1="933.7" y1="369.6" x2="935.9" y2="372.4"/>
			</g>
		</g>
	</g>
	<g>
		<path d="M956,433.6l-1.9-2.9c-0.5-0.7-0.8-1-1-1.1c0,0.3-0.1,1,0.5,3c0.6,1.8,1.4,4.1,2.1,6.1c1.3,3.5,2,5.5,1.9,6.3
			c-0.1,0.6-0.6,0.7-0.7,0.7c-0.9,0-1.6-0.9-3.9-4.1c-0.8-1.2-1.7-2.4-2.5-3.4s-1.1-1.4-1.5-1.5c-0.1,0.5-0.1,2.1,1.2,7.3
			c0.9,3.5,1.9,6.8,1.9,6.9c0.1,0.2,0,0.5-0.2,0.6c-0.1,0-0.1,0.1-0.2,0c-0.4,0-0.8-0.2-1-0.5c0.1,0-1.3-2.9-2.7-5.8
			c-2.4-4.7-3.3-6-3.6-6.4c-0.2,0-0.4-0.1-0.6-0.3c-0.3-0.4-0.2-0.8,0.1-0.9c0.2-0.1,0.6-0.1,0.8,0c0.5,0.2,1,0.7,2.1,2.6
			c0.5,0.8,1,1.9,1.7,3.2c-0.5-2-0.8-3.6-1-4.9c-0.2-1.9,0-2.9,0.6-3.2c0.3-0.2,0.6-0.2,0.9-0.1c1.2,0.4,2.8,2.4,5.2,5.8
			c0.5,0.7,1.1,1.5,1.6,2.2l-1.5-4.2c-0.8-2.1-1.7-4.6-2.2-6.5c-0.7-2.5-0.6-3.9,0.3-4.2c0.2-0.1,0.6-0.1,0.9,0c1.1,0.3,2.1,1.9,4,5
			s5.2,8.2,7.3,8.9c2.9,0.8,3.4-4.8,3.6-6.7c0.4-2.5,0.4-4.7,0.3-4.8c0-0.3,0.3-0.6,0.8-0.5c0.4,0.1,0.7,0.4,0.7,0.8
			c0,0.1,0.1,2.3-0.3,4.9c-0.4,3.5-1.7,9.4-5.3,7.5C961.6,442.3,958.3,437.3,956,433.6z"/>
		<path d="M1000.4,434.8c-6.1,0.1-10.2,2-13.1,4.3c0.9,1.7,1.9,3.4,2.7,5.1c2.8,5.5,4.8,10.4,5.9,14.3c1.4,4.9,1.6,8.5,0.4,10.6
			c-0.4,0.7-1,1.3-1.7,1.7c-1.3,0.7-3,0.8-5.2,0.4c-2.9-0.6-5.5-2.2-7.4-4.9c-1.8-2.5-2.9-5.5-3.3-8.9c-0.7-5.7,0.8-11.5,4-15.8
			c0.7-1,1.7-2,2.8-3c-3.3-6-6.6-11-8.3-13.3c0,1,0.1,2.6,0.3,3.9c0.5,5,0.7,8.1-0.6,8.8c-0.9,0.5-2.6,0.9-4.8-1.4
			c-1.6-1.7-2.6-4.2-3-5.1c-0.3-0.9-0.5-1.7-0.6-2.4c-0.2-0.9-0.1-1.3,0.2-1.6c0.3-0.3,0.8-0.2,1.1,0.1c0.3,0.3,0.4,0.7,0.2,0.9
			c-0.1,0.2,0.1,1.6,0.9,3.5c0.8,2,2,3.7,3,4.5c0.8,0.7,1.4,0.8,2.1,0.4c0.1,0,0.4-0.3,0.4-2.5c0-1.5-0.2-3.4-0.4-5.2l-0.3-3.7
			c0-0.6,0-1.2,0.1-1.6l-0.2-0.2c-0.1-0.4,0.1-0.7,0.5-0.8c0.6-0.1,1,0.4,1.2,0.7c1.5,1.7,5.4,7.6,9.2,14.4
			c3.1-2.3,7.4-4.1,13.6-4.2c0.4,0,0.8,0.3,0.9,0.6C1001.1,434.4,1000.8,434.7,1000.4,434.8z M986.2,440c-0.9,0.8-1.7,1.7-2.3,2.5
			c-3.1,4.1-4.5,9.6-3.9,15c0.4,3.2,1.5,6.1,3.1,8.3c1.6,2.2,3.8,3.7,6.3,4.2c3.1,0.6,5-0.1,5.8-2.1c0.9-2.1,0.5-5.6-1-10.4
			c-1.4-4.1-3.5-8.9-6.3-14.4L986.2,440z"/>
		<path d="M1018.6,404.7c0.1,0.4,0.1,9.3-2.7,12.1c-0.2,0.2-0.5,0.3-0.7,0.4c-0.5,0.3-1,0.4-1.5,0.2c-1.4-0.4-2.4-2.2-3.2-3.8
			l-0.5-1.1l-0.1,1.4c-0.1,2.5-0.4,6.2-3.2,7.8c-1.4,0.8-2.5,0-2.9-0.4c-0.7-0.7-1.6-2.6-1.7-6.9c-0.1-1.2,0-2.5,0.1-3.6
			c0.3-1.8,0.6-2,0.7-2.2c0.7-0.5,1.6-0.7,2.5-0.4c0.6,0.2,1.8,0.9,2.4,2.9c0.1,0.4-0.1,0.7-0.5,0.7s-0.8-0.2-1-0.6
			c-0.2-0.9-0.7-1.6-1.2-1.7c-0.4-0.1-0.7,0-1,0.2c-0.3,0.3-0.6,2.4-0.5,5.2c0.1,3.4,0.8,5.1,1.3,5.6c0.2,0.1,0.2,0.2,0.8-0.1
			c2.4-1.4,2.6-4.7,2.7-7c0.2-1.7,0.2-2.8,1.2-2.9c0.5-0.1,1.1,0.3,1.6,0.9l0.8,1.6c0.4,0.7,0.7,1.4,1.1,2c0.5,0.8,0.8,0.9,0.9,0.9
			c0.2,0.1,0.4-0.1,0.7-0.4c1.1-1,1.8-3.3,2.2-6.5c0.3-2.6,0.3-4.8,0.3-4.8c-0.1-0.4,0.3-0.6,0.7-0.6
			C1018.3,404,1018.7,404.3,1018.6,404.7z"/>
		<path d="M1034.3,404.1c-1.4-0.7-2.9-2-4.3-3.9l-0.1,0.8c-0.5,4.5-1.7,7.3-3.6,8.3c-1.3,0.7-3,0.7-4.6-0.2
			c-1.6-0.9-3.3-2.4-4.9-4.9v-0.1c-0.3-0.4-0.6-0.9-0.9-1.4c-1.8-2.8-3.5-6.3-5.2-10.5c-3.1-7.7-5.7-16.7-6.7-23.6
			c-0.4-2.7-0.5-5-0.4-6.6c0.2-2,0.7-3.1,1.6-3.5c0.8-0.4,1.5-0.2,2.1,0.1c1.4,0.8,3.7,3.6,6.5,17.9c1.8,8.6,3.1,18.1,3.9,23.8
			l0.5,3.5c1.4,2,2.9,3.5,4.1,4.2c1.1,0.6,2.2,0.6,3.1,0.1c1.8-1,2.9-4.5,3.2-9.8c-1.4-2.2-2.8-5-4.2-8.1
			c-2.7-6.3-4.9-13.7-5.7-19.6c-0.3-2.6-0.5-4.7-0.3-6.3c0.2-1.9,0.8-3.1,1.7-3.5c0.5-0.3,1.8-0.6,3.3,1.4c1.6,2.2,3,6.6,3.8,9.9
			c1.1,4.4,2,9.7,2.5,14.8c0.4,4.2,0.6,8.1,0.4,11.4c0,0.1,0,0.1,0,0.2c1.6,2.4,3.2,3.9,4.7,4.8c1.2,0.6,2.4,0.7,3.5,0.1
			c2.6-1.4,3.3-9.2,3.4-12c0-0.4,0.3-0.6,0.7-0.6c0.5,0.1,0.8,0.4,0.8,0.8c0,0.2-0.1,2.8-0.6,5.6c-0.7,4-1.8,6.5-3.4,7.3
			C1037.8,405.1,1036.1,405,1034.3,404.1z M1005.5,368.6c0.9,6.8,3.5,15.7,6.5,23.3c1.3,3.4,2.8,6.4,4.2,8.8v-0.6
			c-0.8-5.7-2.2-15.2-3.8-23.7c-1-4.7-1.9-8.6-2.8-11.3c-1.5-4.3-2.5-5.3-2.9-5.5c-0.2-0.1-0.3-0.1-0.6,0
			C1005.2,360.1,1004.6,362.7,1005.5,368.6z M1021,361.9c-0.3,0.2-0.9,0.7-1.1,2.6c-0.1,1.5,0,3.6,0.4,6.1c0.8,5.7,3,13.1,5.6,19.2
			c0.9,2.2,1.9,4.2,2.9,6c0-2.7-0.2-5.8-0.5-9.2c-1-10.5-3.6-20.8-6-24C1021.5,361.6,1021.2,361.8,1021,361.9L1021,361.9z"/>
	</g>
	<g>
		<path d="M1031.8,449.9c1.3,7,1.9,14,2.1,18.8c1.6-1.2,4-1.7,6.4-2.1c3.1-0.6,6-1.1,6-3.1c0-0.3,0.3-0.6,0.8-0.5
			c0.4,0.1,0.7,0.4,0.8,0.8c0,1.3-0.7,2.1-1.8,2.7c-1.3,0.7-3.2,1.1-5.1,1.5c-3.1,0.6-6.4,1.2-7.1,3.2c-0.2,0.3-0.4,0.5-0.8,0.4
			s-0.7-0.4-0.7-0.7c0.1-4.6-0.5-12.8-2-20.8c-0.8-4-1.6-7.3-2.7-9.9c-1.4-3.5-2.7-4.9-3.6-5.4c-1.1-0.7-2.1-0.3-2.7,0
			c-1.4,0.8-2.4,2.1-3,4.1c-0.5,1.7-0.7,3.9-0.5,6.3c0.4,4.5,2.1,9.3,4.2,12c0.6,0.8,1.2,1.3,1.8,1.5c0.6,0.3,1,0.2,1.5,0
			c0.4-0.2,0.8,0,1.1,0.3c0.2,0.3,0.2,0.7-0.1,0.9c-0.9,0.5-1.9,0.4-2.9,0c-0.9-0.4-1.7-1.1-2.5-2.1c-2.3-2.9-4.1-8.1-4.5-12.8
			c-0.3-2.6-0.1-4.9,0.5-6.8c0.6-2.2,1.8-3.8,3.5-4.7c1-0.5,2.6-1,4.3,0.1C1027.7,435.3,1030,440.8,1031.8,449.9z"/>
		<path d="M1053.4,438c3.2,4.9,5.4,10.2,6.2,14.7c0.4,2.3,0.4,4.3,0,6c-0.4,1.8-1.4,3.1-2.9,3.9c-0.8,0.4-2.2,0.7-4.3-0.3
			c-5.9-3.1-13.3-15.1-14.7-23.7c-0.8-4.9,0.3-8.2,3.3-9.8l0.1-0.1c0.4-0.2,0.8-0.1,1.1,0.3c0.2,0.3,0.2,0.8-0.1,0.9
			c-1.8,0.9-3.8,3.1-2.9,8.7c0.7,4,2.7,8.9,5.6,13.5c2.7,4.4,5.8,7.8,8.3,9c1.1,0.6,2,0.7,2.8,0.3c1.2-0.6,2-1.7,2.4-3.2
			c0.3-1.5,0.4-3.3,0-5.5c-0.8-4.3-2.9-9.4-6-14.1c-3-4.8-6.7-8.5-9.9-10.1c-2.3-1.2-4.5-1.3-6.2-0.3h-0.1c-0.3,0.2-0.8,0-1.1-0.3
			c-0.3-0.4-0.2-0.8,0.1-0.9c2.2-1.3,4.9-1.1,7.8,0.3C1046.3,429,1050.1,432.9,1053.4,438z"/>
		<path d="M1067.1,430.8c1.3,7,1.9,14,2.1,18.8c1.6-1.2,4-1.7,6.4-2.1c3.1-0.6,6-1.1,6-3.1c0-0.3,0.3-0.6,0.8-0.5
			c0.4,0.1,0.7,0.4,0.8,0.8c0,1.3-0.7,2.1-1.8,2.7c-1.3,0.7-3.2,1.1-5.1,1.5c-3.1,0.6-6.4,1.2-7.1,3.2c-0.1,0.3-0.4,0.5-0.8,0.4
			s-0.7-0.4-0.7-0.8c0.1-4.6-0.5-12.8-2-20.8c-0.8-4-1.6-7.3-2.7-9.9c-1.4-3.5-2.7-4.9-3.6-5.4c-1.1-0.7-2.1-0.3-2.7,0
			c-1.4,0.8-2.4,2.1-3,4.1c-0.5,1.7-0.7,3.9-0.5,6.3c0.4,4.5,2.1,9.3,4.2,12c0.6,0.8,1.2,1.3,1.8,1.5c0.6,0.3,1,0.2,1.5,0
			c0.4-0.2,0.8,0,1.1,0.3c0.2,0.3,0.2,0.7-0.1,0.9c-0.9,0.5-1.9,0.4-2.9,0c-0.9-0.4-1.7-1.1-2.5-2.1c-2.3-2.9-4.1-8.1-4.5-12.8
			c-0.3-2.6-0.1-4.9,0.5-6.8c0.6-2.2,1.8-3.8,3.5-4.7c1-0.5,2.6-1,4.3,0.1C1063,416.2,1065.3,421.7,1067.1,430.8z"/>
		<path d="M1088.7,418.9c3.2,4.9,5.4,10.2,6.2,14.7c0.4,2.3,0.4,4.3,0,6c-0.4,1.8-1.4,3.1-2.9,3.9c-0.8,0.4-2.2,0.7-4.3-0.3
			c-5.9-3.1-13.3-15.1-14.7-23.7c-0.8-4.9,0.3-8.2,3.3-9.8l0.1-0.1c0.4-0.2,0.8-0.1,1.1,0.3c0.2,0.3,0.2,0.8-0.1,0.9
			c-1.8,0.9-3.8,3.1-2.9,8.7c0.7,4,2.7,8.9,5.6,13.5c2.7,4.4,5.8,7.8,8.3,9c1.1,0.6,2,0.7,2.8,0.3c1.2-0.6,2-1.7,2.4-3.2
			c0.3-1.5,0.4-3.3,0-5.5c-0.8-4.3-2.9-9.4-6-14.1c-3-4.8-6.7-8.5-9.9-10.1c-2.3-1.2-4.5-1.3-6.2-0.3h-0.1c-0.3,0.2-0.8,0-1.1-0.3
			c-0.3-0.4-0.2-0.8,0.1-0.9c2.2-1.3,4.9-1.1,7.8,0.3C1081.6,409.9,1085.4,413.8,1088.7,418.9z"/>
	</g>
</g>
<g id="floppy_1_">
	<polygon class="st1" points="1322.9,157.2 1126.8,317.8 1368.8,454.7 1545.2,301.9 1540.6,272.1 	"/>
	<polygon class="st26" points="1322.9,157.2 1125.4,317.1 1127,327 1368.8,454.7 	"/>
	<polygon class="st27" points="1496.6,239.8 1495.4,240.9 1339.9,159 1339.7,156.9 1321.4,147.2 1125.4,317.1 1367.2,444.8 
		1543.6,292 1539,262.2 	"/>
	<path class="st7" d="M1348.4,434.6l114.3-98.9c3.4-3,2.8-7.3-1.5-9.5l-185.9-98.1c-4.3-2.2-10.6-1.6-14,1.3l-114.4,99.1"/>
	<path d="M1351.2,427.2c3.2-2.7,102.8-89.1,102.8-89.1c3.3-2.8,2.6-6.9-1.4-9L1276.2,236c-4-2.1-10-1.6-13.3,1.3
		c0,0-102.2,88.5-103.5,89.6c-1.9,1.6-2.4,3.7,1.7,5.9c4.1,2.2,177.5,93.6,180.6,95.2S1348,429.9,1351.2,427.2z"/>
	<path class="st28" d="M1351,425.8c3.2-2.7,102.8-89.1,102.8-89.1c3.3-2.8,2.6-6.9-1.4-9L1276,234.6c-4-2.1-10-1.6-13.3,1.3
		c0,0-102.2,88.5-103.5,89.6c-1.9,1.6-2.4,3.7,1.7,5.9s177.5,93.6,180.6,95.2S1347.8,428.5,1351,425.8z"/>
	<path class="st2" d="M1440.4,348.2c8.1-7,13.3-11.6,13.3-11.6c3.3-2.8,2.6-6.9-1.4-9l-176.3-93c-4-2.1-10-1.6-13.3,1.3
		c0,0-5.2,4.5-13.3,11.6L1440.4,348.2z"/>
	<path d="M1261.6,231.5c3.4-3,9.8-3.6,14-1.3l185.9,98.1c1.3,0.7,3.1,2.5,3.2,4.4c0.6-2.4-0.6-4.9-3.5-6.5l-185.9-98.1
		c-4.3-2.2-10.6-1.6-14,1.3l-114.4,99.1l1.7,0.9L1261.6,231.5z"/>
	<path class="st27" d="M1339.2,157.2l-57.8,50.2c-3,2.6-2.6,6,1.8,8.6l143.6,75.9c4.9,2.1,8.4,1,11.5-1.6l56.9-49.5"/>
	<path id="silver" class="st29" d="M1370.7,172.6l-57.8,50.2c-3,2.6-2.6,6,1.8,8.6l105.1,55.6c4.9,2.1,8.4,1,11.5-1.6l57.8-50.2
		L1370.7,172.6z M1459.6,230.3l-47.9,41.7c-0.8,0.7-2.1,0.9-2.8,0.5l-24.3-12.9c-0.8-0.4-0.7-1.3,0.1-2l47.9-41.7
		c0.8-0.7,2.1-0.9,2.8-0.5l24.3,12.9C1460.4,228.7,1460.4,229.6,1459.6,230.3z"/>
	<polygon points="1362.2,150.4 1362.2,150.4 1362.2,150.4 	"/>
	<path d="M1339.7,156.9l-58.2,50.6c-1.8,1.6-2.4,3.5-1.6,5.3c0.1-1.1,0.8-2.2,1.9-3.2L1340,159L1339.7,156.9z"/>
	<g>
		<path class="st30" d="M1265.9,301.7c0.6-0.2,1.1-0.2,1.7-0.1s0.9,0.4,1,0.7c0.3,0.8-0.2,2.2-1.4,4.2c-1.2,1.9-4.8,7.1-10.8,15.6
			c-0.7,0.9-1.5,2.1-2.5,3.5s-1.7,2.3-2,2.8c-3.5,4.9-5.6,7.5-6.2,7.9s-1,0.5-1.1,0.3c-0.1-0.4-0.1-0.9,0-1.7s0.3-1.3,0.6-1.7
			c0.3-0.4,0.4-0.9,0.4-1.4c0-0.4,0.4-1.2,1.2-2.3c1.2-1.6,2.1-2.6,2.9-3c0.4-0.2,0.6-0.3,0.6-0.4c0.1-0.1,0.1-0.3,0-0.6
			c-0.1-0.4-0.1-0.8,0.2-1.1c0.3-0.4,0.6-0.6,1.1-0.7c0.3,0,0.5-0.1,0.6-0.2c0-0.1,0-0.2,0-0.5c-0.1-0.4,0.3-1.4,1.3-2.7
			c0.4-0.6,0.7-0.8,0.9-0.9c0.1,0,0.5-0.5,1.2-1.4c0.9-1.3,1.9-2.7,2.8-4.2c0,0,0.1-0.1,0.1-0.2s0.1-0.1,0.1-0.1
			c0.2-0.3,0.5-0.4,0.8-0.4h0.1h0.1c0.3,0.1,0.5,0,0.6-0.1c0.1-0.2,0.1-0.5-0.1-0.8s0-1,0.7-1.9l0.4-0.6c1-1.4,1.7-2.1,1.9-2.2
			c0.1,0,0.2-0.1,0.2-0.2c0.1-0.1,0.2-0.4,0.3-0.7c0.1-0.3,0.1-0.5,0.2-0.6c0,0,0.1-0.1,0.1-0.2c0.1-0.1,0.1-0.1,0.1-0.1
			c0.1-0.1,0.1-0.2,0-0.2s-0.5,0.1-1.3,0.4c-2.7,1.1-4.4,1.8-5,2c-1.1,0.4-2.5,1-4.4,1.9c-2,0.9-3.3,1.5-3.9,1.7
			c-0.4,0.1-0.9,0.4-1.4,0.9c-0.4,0.3-1.3,0.8-2.7,1.4c-1.3,0.5-2.2,0.7-2.7,0.6s-0.9-0.5-1.3-1c-0.3-0.6-0.8-1.5-1.3-2.9
			c-0.9-2.3-1.3-3.7-1.3-4.1c0-0.3-0.1-0.9-0.4-2c-0.2-0.9-0.2-1.5,0-1.7s0.1-0.6-0.1-1.1c-0.1-0.3-0.3-0.5-0.4-0.6
			c-0.1,0-0.2,0-0.3,0.1c-0.6,0.5-2,2.1-4.2,4.9s-4.6,6-7.2,9.6c-0.2,0.3-0.6,0.8-1.1,1.5s-0.8,1.2-1.1,1.5l-1.9,2.7
			c-3.5,4.8-5.3,7.2-5.5,7.3c-0.3,0.2-0.6,0.2-0.8,0.2c-0.2,0-0.2-0.2-0.1-0.4c0.2-0.2,0.1-0.6-0.1-1.1c-0.2-0.4-0.2-0.7-0.1-0.9
			l0,0l0,0c0.3-0.2,0.4-0.3,0.3-0.6c-0.1-0.8,0.2-1.7,0.8-2.4c0.1-0.1,0.2-0.3,0.4-0.4c0.2-0.2,0.5-0.5,0.8-0.9c0.4-0.5,0.7-1,1-1.5
			s0.6-1,0.9-1.5c0.2-0.3,0.4-0.5,0.5-0.5c0.1-0.1,0.5-0.4,1-1.1c0.5-0.6,0.9-1,1.1-1c0.1,0,0.3-0.1,0.4-0.3
			c0.2-0.3,0.3-0.6,0.5-0.9c0.2-0.6,0.5-1,0.7-1.3c0.1-0.1,0.2-0.3,0.4-0.5c0.5-0.4,1.4-1.6,2.9-3.5c1.3-1.7,2.7-3.4,4.1-5
			s2.6-2.7,3.4-3.2c0.7-0.5,1.4-1.1,2.1-1.9c1.3-1.7,2.2-2.7,2.7-3.1c0.4-0.4,0.8-0.6,1.1-0.5c0.4,0.1,0.4,0.5,0.1,1.2
			c-0.7,1.6-0.9,3.3-0.5,5.1c0.2,1,0.3,1.6,0.3,1.9c-0.1,0.4,0.4,2,1.5,4.6c0.6,1.6,1.4,2.5,2.3,2.7c0.5,0.1,1.1,0.1,1.7-0.2
			c0.5-0.2,0.9-0.5,1.1-0.8c0.1-0.1,0.2-0.3,0.2-0.3c0-0.1,0.1-0.2,0.2-0.3c0.2-0.3,0.6-0.5,1-0.5c0.6-0.1,1.3-0.4,2.1-1
			c1-0.6,2.6-1.4,4.8-2.2c2.2-0.8,3.7-1.4,4.5-1.9c0.7-0.3,1.7-0.7,2.7-1.1c1.1-0.4,1.7-0.5,1.9-0.5c0.2,0.1,0.4,0,0.5-0.2
			C1265,302.1,1265.4,301.9,1265.9,301.7z M1251.1,308.9c0.3,0.1,0.3-0.1,0.2-0.4l-0.1-0.2c-0.1,0-0.2,0.1-0.3,0.2
			C1250.8,308.7,1250.9,308.9,1251.1,308.9z"/>
		<path class="st30" d="M1285.8,306.3c1,0.1,1.9,0.2,2.9,0.5c1.1,0.3,1.9,0.6,2.5,1s0.7,0.8,0.4,1.1c-0.1,0.1-0.6,0-1.7-0.2
			l-0.6-0.1l-0.5-0.1c-0.8-0.2-1.4-0.3-1.9-0.3s-1.5,0.1-2.9,0.4c-2.3,0.4-4.2,0.9-5.7,1.4c-1.2,0.4-2.5,1-3.8,1.8s-2.2,1.4-2.5,1.9
			c-0.3,0.4-0.4,0.9-0.5,1.5s0,1.2,0.2,1.6c0.1,0.2,0.9,1.7,2.4,4.6c0.3,0.5,0.4,0.9,0.2,1.1c-0.1,0.1,0,0.4,0.1,0.9
			c0.2,0.4,0.3,0.9,0.3,1.5c0,0.2-0.1,0.9-0.1,2.2c0,0.9-0.2,1.4-0.4,1.7c-0.1,0.2-0.2,0.6-0.3,1.1c0,0.4-0.4,1.3-1,2.6
			c-0.7,1.3-1.2,2.3-1.7,3c-0.1,0.2-0.3,0.4-0.5,0.5c-1.5,1.2-2.9,2-4.4,2.3c-2.1,0.4-4,0.4-5.7,0l-0.3-0.1l-0.2-0.1
			c-0.5-0.1-1-0.1-1.4,0c-0.2,0.1-0.5,0.1-0.6,0c-0.2,0-0.3-0.1-0.5-0.3c-0.3-0.2-0.7-0.4-1.3-0.6s-1-0.4-1.3-0.6
			c-0.4-0.4-0.9-1.1-1.3-2.2c-0.4-1-0.5-1.7-0.3-1.9c0.2-0.3,0.4-0.4,0.5-0.4s0.3,0.3,0.7,0.8c0.4,0.5,1.5,1.1,3.2,1.6
			c0.8,0.2,1.3,0.4,1.5,0.4c0.9,0.2,2.2,0.3,3.8,0.1c1.8-0.1,2.9-0.3,3.3-0.4c0.4-0.2,0.7-0.2,0.9-0.2c0.1,0,0.4-0.3,0.8-0.9
			c1.1-1.6,1.7-2.6,1.7-3c0-0.3,0.2-0.8,0.5-1.3c0.4-0.5,0.6-1.1,0.6-1.7s0.2-1.2,0.6-1.8c0.2-0.4,0.2-1,0.1-2
			c-0.2-0.9-0.5-1.8-0.9-2.6c-0.9-1.6-1.5-3.1-1.8-4.6s-0.3-2.7,0.1-3.5c0.3-0.5,0.4-0.8,0.5-0.9c0.3-0.4,0.8-0.8,1.7-1.3
			c1.1-0.7,1.7-1.1,1.8-1.3c0.2-0.2,1.4-0.7,3.7-1.5c2.3-0.8,4.1-1.3,5.3-1.5C1283.3,306.3,1284.6,306.2,1285.8,306.3z"/>
		<path class="st30" d="M1290.7,334.3c0.7,0,1.5,0.1,2.2,0.3c1.2,0.3,1.9,0.6,2,1c0.1,0.3,0.1,0.5-0.1,0.7c-0.3,0.4-1.1,0.6-2.5,0.8
			c-1.3,0.1-3-0.1-5-0.5c-1.5-0.4-3-0.8-4.5-1.3c-1.4-0.5-2.3-0.8-2.7-1.1c-0.4-0.2-0.7-0.5-0.8-0.9c-0.1-0.4-0.2-0.7-0.1-0.8
			c0,0,0.1,0,0.1-0.1c0.2,0,1.9,0.3,5.2,1C1288,334,1290,334.3,1290.7,334.3z"/>
		<path class="st30" d="M1318.3,313.8c0.4-0.1,0.7-0.2,0.9-0.1c0.3,0.1,0.4,0.3,0.4,0.8c0,0.3,0.2,0.5,0.5,0.7
			c0.4,0.2,1.2,0.5,2.5,1c1.9,0.7,3.6,1.6,5.1,2.6s2.4,1.6,2.6,1.6c0.3,0.1,0.6,0.4,1,1c0.3,0.6,0.5,0.8,0.7,0.9
			c0,0,0.5,0.5,1.4,1.5c0.9,1.1,1.5,2.5,1.9,4.1c0.4,1.7,0.4,2.8-0.1,3.5c-0.3,0.5-0.4,0.8-0.3,0.9c0.1,0.2-0.1,0.7-0.7,1.5
			c-1.1,1.5-2.1,2.6-3,3.1c-0.3,0.2-0.7,0.4-1.3,0.8c-0.6,0.3-1,0.6-1.3,0.8c-0.3,0.2-0.7,0.4-1.1,0.6c-0.5,0.2-1,0.5-1.6,0.7
			c-0.4,0.1-1.4,0.5-3.1,1.2c-1.7,0.6-2.9,1.1-3.6,1.4c-3.9,1.5-7.3,2.8-10.2,3.8c-2.9,1-4.4,1.5-4.6,1.4c-0.4-0.1-1.1,0-2,0.2
			s-1.7,0.5-2.3,0.9c-0.8,0.5-1.4,0.7-1.8,0.6c-0.3-0.1-0.4-0.3-0.4-0.7c0-0.5-0.1-0.9-0.4-1.2c-0.1-0.3-0.2-0.5-0.1-0.6
			s0.2-0.2,0.5-0.3c0.3-0.1,0.5-0.3,0.7-0.6c0.5-0.6,0.5-1.1,0.1-1.3c-0.1-0.1-0.1-0.3,0-0.5c0.1-0.1,0.2-0.2,0.4-0.4
			c0.2-0.2,0.3-0.3,0.3-0.3c0.1-0.2,0.2-0.4,0.2-0.6s0-0.4,0.2-0.6c0.1-0.1,0.2-0.2,0.3-0.3c0.2-0.2,0.3-0.3,0.3-0.3
			c0.1-0.2,0-0.3-0.4-0.4c-0.2-0.1-0.4-0.1-0.4-0.2s0-0.2,0.1-0.3c0,0,0.2-0.2,0.5-0.5c0.1-0.1,0.2-0.3,0.4-0.5
			c0.3-0.4,0.5-0.8,0.6-1.1c0.2-0.8,0.9-2.3,2.3-4.5c0.9-1.4,1.4-2.3,1.3-2.5c0-0.2,0.4-1,1.5-2.5c1-1.5,1.5-2.3,1.5-2.5
			c0-0.1,0.2-0.4,0.5-0.9c0.4-0.6,1.1-1.5,2-2.6c1.1-1.3,2.5-2.9,4.2-5c0.6-0.8,1-1.3,1.1-1.3c0.2-0.3,0.3-0.6,0.3-0.7
			s-0.2-0.3-0.4-0.4c-0.4-0.3-0.5-0.5-0.4-0.7c0.1-0.1,0.5-0.2,1.2-0.2s1.2-0.1,1.4-0.4C1317.6,314.2,1317.9,314,1318.3,313.8z
			 M1323.2,318.5c-1.9-0.9-3-1.5-3.3-1.5c-0.1,0-0.3,0-0.5-0.1c-0.6,0-2.1,1.5-4.4,4.7c-0.4,0.6-1.3,1.8-2.6,3.7
			c-2.2,3.3-3.6,5.5-4.3,6.5c-0.6,1-1.3,2.3-2.1,3.9c-0.6,1.2-1.2,2.6-2,4.3c-1.3,2.5-1.8,3.9-1.7,4.3l0,0c0.4,0.1,2.6-0.6,6.8-2.1
			c4.5-1.6,7-2.5,7.3-2.8c0.4-0.2,0.8-0.3,1.3-0.2c0.5,0.1,0.9,0,1.1-0.3s1-0.7,2.5-1.2c1.6-0.6,2.6-1.1,3-1.3
			c0.5-0.3,1.1-0.4,1.6-0.4s0.9-0.2,1.2-0.7c0.3-0.4,0.9-1,1.9-1.5c0.7-0.4,1.2-0.8,1.5-1.2c0-0.1,0.1-0.1,0.2-0.2s0.1-0.2,0.1-0.2
			l0.1-0.1c0.1-0.1,0.1-0.1,0.2-0.1c0.3-0.1,0.5-0.2,0.7-0.5c0.6-0.8,0.5-2.1-0.1-4s-1.5-3.4-2.8-4.4c-0.8-0.7-1.3-1.1-1.4-1.3
			C1326.8,320.6,1325.3,319.5,1323.2,318.5z"/>
		<path class="st30" d="M1342.6,333.1c0.3-0.2,0.6-0.2,1.1-0.1s0.9,0.3,1,0.6c0.1,0.2,0.3,0.3,0.7,0.4c0.3,0.1,0.8,0.1,1.3,0.2
			c0.8,0.1,1.6,0.2,2.5,0.4c1.7,0.4,3.3,1,4.8,1.9c1.5,0.8,2.7,1.7,3.4,2.7c0.7,0.8,1,1.3,1,1.5s0.1,0.5,0.3,1.1
			c0.2,0.6,0.1,1.4-0.1,2.4s-0.6,1.9-1.1,2.5c-0.5,0.7-1.3,1.4-2.5,2.1s-1.8,1.2-2,1.4s-1,0.7-2.4,1.4c-3.3,1.4-6.2,2.5-8.8,3
			c-2.6,0.6-4.7,0.7-6.2,0.3c-0.8-0.2-1.6-0.7-2.3-1.6c-0.7-0.9-1.3-1.9-1.7-3.2c-0.5-1.5-0.7-2.4-0.5-2.8c0.1-0.2,0.1-0.5,0-1
			c-0.1-0.3,0.1-1.1,0.6-2.3c0.5-1.2,1.1-2.3,1.7-3.1c0.6-0.9,1.5-1.9,2.7-3s1.9-1.8,2.4-2c0.2-0.1,0.4-0.3,0.7-0.7
			c0.1-0.2,0.2-0.4,0.3-0.5c0.1-0.3,0.2-0.4,0.3-0.5c0.1-0.2,0.3-0.3,0.4-0.3c0.2-0.1,0.5-0.1,0.9-0.1c0.6,0,1-0.1,1.1-0.3
			c0,0,0.1-0.1,0.1-0.2s0.1-0.2,0.1-0.3C1342.4,333.2,1342.5,333.2,1342.6,333.1z M1352.5,338.8c-0.9-0.6-3.1-1.4-6.7-2.2
			c-0.6-0.1-1.2-0.3-2-0.4c-0.9-0.1-1.6-0.1-2.1,0.2c-0.6,0.2-1.3,0.8-2.3,1.8c-0.8,0.8-1.6,1.8-2.4,2.9c-2,2.8-3.1,5-3.1,6.7
			c0,2.7,0.9,4.2,2.7,4.6c0.1,0,0.4,0.1,0.7,0.1c0.8,0.1,1.8,0,3-0.3s3.2-1,6.1-2c3-1,4.6-1.5,5-1.4h0.1c0.3,0.2,0.5,0.2,0.6,0
			s0-0.3-0.3-0.4s-0.3-0.3-0.1-0.6c0.3-0.4,0.8-0.8,1.4-0.9c0.6-0.2,1-0.5,1.4-1c0,0,0.1-0.1,0.1-0.2c0.1-0.1,0.1-0.2,0.2-0.2
			c0.6-1,1-2,1.2-3c0.1-0.3-0.2-0.8-0.9-1.4C1354.4,340.2,1353.6,339.5,1352.5,338.8z M1355.5,346.3c0.1,0,0.1-0.1,0.1-0.1
			s-0.1-0.1-0.2-0.1c-0.2-0.1-0.3,0-0.3,0.1C1355.1,346.4,1355.2,346.4,1355.5,346.3z"/>
		<path class="st30" d="M1376.1,344.5c0.9,0,2.1,0.2,3.4,0.5c1.9,0.5,3.1,0.9,3.6,1.3c0.6,0.5,0.7,0.8,0.6,1.1
			c-0.2,0.2-0.6,0.3-1.3,0.1l-0.3-0.1l-0.4-0.1c-1.6-0.4-3.8-0.5-6.7-0.3c-2.9,0.2-5,0.5-6.4,1.1c-0.8,0.3-1.5,0.7-2.4,1.3
			c-0.8,0.5-1.4,1-1.6,1.3c-0.3,0.4-0.2,1.2,0.3,2.3c0.6,1.1,0.9,1.7,1.1,1.8c0.1,0,0.4,0.4,0.8,1.1s0.7,1.1,0.9,1.1
			c0.3,0.1,0.5,0.4,0.6,1.1c0.2,0.7,0.2,1.4,0.2,2.2c-0.1,1-0.5,2-1.2,2.9c-0.5,0.7-0.9,1.1-1.2,1.3s-0.8,0.4-1.5,0.6
			c-1.1,0.3-1.8,0.4-2.3,0.3s-0.9-0.1-1.4,0c-0.3,0.1-1.4,0-3.1-0.3c-0.8-0.1-1.3-0.2-1.4-0.3c-0.8-0.2-1.4-0.5-1.9-1
			c-0.4-0.5-0.9-1-1.5-1.5c-0.4-0.3-0.6-0.7-0.8-1.1c-0.2-0.5-0.2-0.8,0-1c0-0.1,0.1-0.1,0.2-0.1c0.2,0,0.5,0.1,1,0.4
			s1.5,0.7,3.1,1.2c0.2,0.1,0.6,0.2,1.1,0.3c1.7,0.4,3.2,0.5,4.5,0.3s2.2-0.7,2.8-1.4c0.3-0.4,0.4-0.9,0.4-1.6s-0.1-1.1-0.4-1.3
			c-0.4-0.3-1.1-1.4-2-3.2c-0.9-1.8-1.4-3.2-1.5-4.2c-0.1-0.5,0-0.9,0.2-1.3c0.2-0.3,0.9-1,1.9-2c0.9-0.8,2.7-1.6,5.4-2.2
			C1371.8,344.6,1374.1,344.3,1376.1,344.5z"/>
	</g>
</g>
<g>
	<polygon class="st31" points="0.5,456.7 407,900.5 613.2,900.5 613.2,837.3 0.5,168.3 	"/>
	<polygon class="st32" points="0.5,609.8 266.7,900.5 601.8,900.5 601.8,879.9 0.5,223.4 	"/>
	<polygon class="st1" points="100.7,336.6 138.1,380 142.1,377.9 176.4,360.4 135.7,316 	"/>
	<polygon class="st1" points="62.8,683.5 143.1,765.6 143.1,380.2 62.8,297.1 	"/>
</g>
<g>
	<polygon class="st28" points="917.2,900.5 1600.5,368.6 1600.5,275.9 487.2,823.8 487.2,900.5 	"/>
	<polygon class="st31" points="552.2,900.5 551,889.1 487.2,823.8 487.2,900.5 	"/>
	<polygon class="st29" points="1567.3,900.5 1600.5,884.1 1600.5,370.6 549.7,889.1 549.7,900.5 	"/>
</g>
<g>
	<polygon class="st28" points="0.5,0.5 0.5,900.5 116.9,900.5 116.9,339.6 806.1,0.5 	"/>
	<polygon class="st32" points="0.5,900.5 68.4,900.5 68.4,280 0.5,219.3 	"/>
</g>
<g>
	<polygon class="st28" points="45.8,272.7 629.3,0.5 0.5,0.5 0.5,225 	"/>
	<polygon class="st32" points="0.5,281.6 45.8,329.9 45.8,241.5 0.5,193.2 	"/>
	<polygon class="st28" points="535.8,0.5 45.8,241.6 45.8,329.9 715.3,0.5 	"/>
</g>
<g id="sleve_2_">
	<path class="st1" d="M849.3,698.9l-144.5,5.3c0,0,40.9,113.9,72.6,196.2H1145c14-56.6,22.3-101.3,19.7-120.5
		C1153.8,700.9,849.3,698.9,849.3,698.9z"/>
	<path class="st12" d="M1215.6,564.3c-33.3-58.9-138.8-90.8-182.1-53.4c-29.1,25.2-109.6,87.5-233,119.5
		c-177.9,45.9-196.8,136.1-196.8,136.1l53.3-26.2c0,0,55.8,35.8,138.6,135.5c7.7,9.3,14.6,17.5,20.7,24.8h460.4
		c3.4-27.4,4.6-58.7,2.2-94.8C1270.9,685.2,1269.3,626.6,1215.6,564.3z"/>
	<path class="st14" d="M1069.8,823.9c3.5,25.8,8,51.3,12.6,76.6h-18.7c-5-27.6-9.8-55.3-13.3-83.3c-2.9-22.1-5.1-44.3-5.7-67.4
		c-0.6-21.3,1.7-43.6,1.1-64.8c-0.6-21.9-7.8-40-22.6-53.9c-13.5-12.6-57.9-35.5-85.1-52.4c0,0,20.3-12,23.7-14.6
		c14.9,12.7,67.5,44.9,80.6,59c16,16.1,21.7,37.2,21.7,61.5c0.6,22.5-1.1,45.8-0.6,68.3C1064.1,776.6,1066.4,800.6,1069.8,823.9z
		 M985.6,815c3.2-46.2,1.1-97.5-24.3-132.1c-14.2-19.7-34.3-30.9-55.4-40c-18.5-7.8-40.9-17.7-59.9-24.9c-9.5,2.7-20.7,6.6-30.7,9.9
		c0.5,1.1,6.1,2.6,7.2,3c22.2,9,44.3,17.4,66.5,27c18.5,7.8,37.5,16.1,51.7,31.1c29,29.9,31.1,81.2,28,126.2
		c-2.1,28.8-5.8,57.2-6.9,85.2h16.9c0-0.1,0-0.1,0-0.2C979.8,871.7,983.5,843.2,985.6,815z M1016.7,714.6
		c-2.9-23.3-6.3-46.6-16.6-66.4c-11.4-22.1-62.2-49-84.4-58.2c-8.7,3.8-16.9,7.4-27.8,13c23.7,7.4,82.1,31.8,95.6,56.5
		c10.3,18.7,12.6,42.1,15.4,64.2c2.9,24.5,6.3,49.5,9.1,74c4.3,34.3,9,68.5,13.5,102.8h18.3c-4.5-35.9-9.1-71.8-13.5-107.8
		C1023,766.5,1019.5,740.3,1016.7,714.6z"/>
	<path class="st7" d="M914.7,883.9c0,0,99.7-182.6,193.4-238.2"/>
</g>
<g>
	<polygon class="st32" points="1300.7,645.4 1545.2,525.9 1545.2,661.7 1300.7,781.2 	"/>
	<polygon class="st31" points="1334.4,679.8 1578.9,560.4 1578.9,645.7 1334.4,765.1 	"/>
	<polygon class="st28" points="1334.4,679.5 1578.9,560 1531.6,510.9 1287.1,630.4 	"/>
	<polygon class="st1" points="1333.8,678.7 1333.8,678.7 1287.1,630.4 1287.1,766.1 1301,781.2 1301,662 1320.6,681.8 1320.6,749.3 
		1334.4,764.3 1334.4,679.5 	"/>
</g>
</svg>
