<?xml version="1.0" encoding="utf-8"?>
<!-- Generator: Adobe Illustrator 24.0.1, SVG Export Plug-In . SVG Version: 6.00 Build 0)  -->
<svg version="1.1" id="Layer_1" xmlns="http://www.w3.org/2000/svg" xmlns:xlink="http://www.w3.org/1999/xlink"
	 viewBox="0 0 2211.9 1245.4" xml:space="preserve">
<rect x="0.9" y="0.9" style="fill:#EADECC;" width="2210.9" height="1244"/>
<rect x="0.9" y="0.9" style="fill:#E2D1BA;" width="689" height="1244"/>
<rect x="1664.2" y="0.9" style="fill:#E2D1BA;" width="545.8" height="1244"/>
<polygon style="fill:#B8C1BE;stroke:#000000;stroke-width:1.8471;stroke-linecap:round;stroke-linejoin:round;stroke-miterlimit:10;" points="
	2148.1,1087.9 0.9,1093 0.9,802.6 1835.1,802.6 "/>
<rect x="1.4" y="1087.5" style="fill:#FFFFFF;stroke:#000000;stroke-width:1.8471;stroke-linecap:round;stroke-linejoin:round;stroke-miterlimit:10;" width="2146.3" height="157"/>
<g>
	<g>
		<g>

				<path style="fill-rule:evenodd;clip-rule:evenodd;stroke:#000000;stroke-width:1.8471;stroke-linecap:round;stroke-linejoin:round;stroke-miterlimit:10;" d="
				M661.6,845.8l0.2,140.2c0.1,38.7,236.9,69.7,529,69.3s528.9-32.1,528.8-70.8l-0.2-140.2L661.6,845.8z"/>

				<ellipse transform="matrix(1 -1.434304e-03 1.434304e-03 1 -1.2109 1.7085)" style="fill-rule:evenodd;clip-rule:evenodd;fill:#443E3A;stroke:#000000;stroke-width:1.8471;stroke-linecap:round;stroke-linejoin:round;stroke-miterlimit:10;" cx="1190.5" cy="845.1" rx="528.9" ry="70.1"/>
		</g>
		<g>

				<path style="fill-rule:evenodd;clip-rule:evenodd;fill:#EA7547;stroke:#000000;stroke-width:1.8471;stroke-linecap:round;stroke-linejoin:round;stroke-miterlimit:10;" d="
				M737.3,350.6L738,834c0,33.1,202.3,59.6,451.8,59.2s451.7-27.4,451.7-60.5l-0.7-483.4L737.3,350.6z"/>

				<path style="fill-rule:evenodd;clip-rule:evenodd;fill:#EA7547;stroke:#000000;stroke-width:1.8471;stroke-linecap:round;stroke-linejoin:round;stroke-miterlimit:10;" d="
				M737.3,350.6L738,834c0,33.1,202.3,59.6,451.8,59.2s451.7-27.4,451.7-60.5l-0.7-483.4L737.3,350.6z"/>

				<path style="fill-rule:evenodd;clip-rule:evenodd;fill:#EA7547;stroke:#000000;stroke-width:1.8471;stroke-linecap:round;stroke-linejoin:round;stroke-miterlimit:10;" d="
				M737.3,349.1l0.7,483.4c0,33.1,202.3,59.6,451.8,59.2s451.7-27.4,451.7-60.5l-0.7-483.4L737.3,349.1z"/>

				<path style="fill-rule:evenodd;clip-rule:evenodd;fill:#CE5F3C;stroke:#000000;stroke-width:1.8471;stroke-linecap:round;stroke-linejoin:round;stroke-miterlimit:10;" d="
				M970.1,349.1l-232.8,0l0.7,483.4c0,21.4,84.8,40,212.2,50.4"/>
			<path style="fill-rule:evenodd;clip-rule:evenodd;fill:#CE5F3C;" d="M737.3,347.6l0.2,137.9c0,33.1,254.3,63.7,438.2,43.3
				c290.9-32.2,465.2-94.9,465.2-128l-0.1-77.3L737.3,347.6z"/>

				<path style="fill-rule:evenodd;clip-rule:evenodd;stroke:#000000;stroke-width:1.8471;stroke-linecap:round;stroke-linejoin:round;stroke-miterlimit:10;" d="
				M737.5,382.4l0.1,69.1c0,16.6,254.3,31.7,438.1,21.4c290.9-16.4,465.3-47.9,465.3-64.4l-0.1-38.7L737.5,382.4z"/>

				<path style="fill-rule:evenodd;clip-rule:evenodd;stroke:#000000;stroke-width:1.8471;stroke-linecap:round;stroke-linejoin:round;stroke-miterlimit:10;" d="
				M804.8,797c79.5,17,222.2,28.2,384.9,28c151-0.2,284.7-10.2,366.7-25.4l-0.5-318.2c-82,15.2-215.7,25.2-366.7,25.4
				c-162.8,0.2-305.4-11-384.9-28L804.8,797z"/>
			<path style="fill-rule:evenodd;clip-rule:evenodd;fill:#23201E;" d="M1263.4,824.1c25.8-0.6,50.9-1.5,75.1-2.6l217-340.2
				c-19.2,2.9-66.8,10.2-89.9,12.6L1263.4,824.1z"/>
			<path style="fill-rule:evenodd;clip-rule:evenodd;fill:#23201E;" d="M1470.5,811.6l85.7-145.1l-0.2-69.4l-135,219
				C1448.5,814.2,1446.6,814.2,1470.5,811.6z"/>

				<ellipse transform="matrix(1 -1.434304e-03 1.434304e-03 1 -0.5007 1.7058)" style="fill-rule:evenodd;clip-rule:evenodd;fill:#F7815C;stroke:#000000;stroke-width:1.8471;stroke-linecap:round;stroke-linejoin:round;stroke-miterlimit:10;" cx="1189.1" cy="349.9" rx="451.7" ry="59.9"/>
		</g>
		<g>

				<path style="fill-rule:evenodd;clip-rule:evenodd;fill:#EA7547;stroke:#000000;stroke-width:1.8471;stroke-linecap:round;stroke-linejoin:round;stroke-miterlimit:10;" d="
				M701,325.1l0.1,52.5c0.1,35.7,218.6,64.4,488.2,64s488-29.7,488-65.4l-0.1-52.5L701,325.1z"/>

				<ellipse transform="matrix(1 -1.434304e-03 1.434304e-03 1 -0.4641 1.7058)" style="fill-rule:evenodd;clip-rule:evenodd;fill:#FF9376;stroke:#000000;stroke-width:1.8471;stroke-linecap:round;stroke-linejoin:round;stroke-miterlimit:10;" cx="1189" cy="324.4" rx="488.1" ry="64.7"/>
		</g>
		<g>

				<path style="fill-rule:evenodd;clip-rule:evenodd;fill:#EFAE52;stroke:#000000;stroke-width:1.8471;stroke-linecap:round;stroke-linejoin:round;stroke-miterlimit:10;" d="
				M822.9,225.4l0.1,97c0,26.8,163.9,48.3,366,48s365.9-22.2,365.9-49l-0.1-97L822.9,225.4z"/>

				<path style="fill-rule:evenodd;clip-rule:evenodd;fill:#D69947;stroke:#000000;stroke-width:1.8471;stroke-linecap:round;stroke-linejoin:round;stroke-miterlimit:10;" d="
				M1013.9,225.2l-190.9,0.3l0.1,97c0,18.4,77.3,34.3,191,42.4"/>

				<ellipse transform="matrix(1 -1.434304e-03 1.434304e-03 1 -0.3214 1.7055)" style="fill-rule:evenodd;clip-rule:evenodd;fill:#FFCB80;stroke:#000000;stroke-width:1.8471;stroke-linecap:round;stroke-linejoin:round;stroke-miterlimit:10;" cx="1188.9" cy="224.9" rx="366" ry="48.5"/>
		</g>
	</g>
	<g>
		<path style="fill:#B57C31;" d="M944.3,697c-1.1-0.1-1.1-0.6-1.1-0.8v-0.4l-0.4,0c-6.1-0.2-10.4-0.2-12.9,0.2
			c-10.9,3.4-16.4,12.5-16.4,27.1c0,0.9,0.3,2.6,1,5.2c2.2,6,4.9,9.2,8.2,9.5l2,0.2c3.4,0.4,7.3-1.5,11.7-5.5
			c-0.5,2.6-0.7,4.1-0.7,4.8c0,0.9,0.5,1.4,1.3,1.5l2.3,0.2l3.5-16.5c0-1.5-0.7-1.9-1.3-2l-2.4-0.2l0,0.4c0,0.2-0.1,0.6-0.4,1.2
			c-5.1,8.6-9.7,12.7-13.8,12.3l-2.4-0.2c-3.4-2.4-5.1-6.5-5.2-12.1c0-4.4,1.8-9.8,5.3-16.1c4-4.8,8.4-6.9,12.9-6.5l7.5,0.8l0.1,0
			c1.2-0.5,1.7-1.1,1.7-1.7l0-1.3L944.3,697z"/>
		<path style="fill:#B57C31;" d="M962.4,734.5l-2.4-0.2l0,0.4c0,1.1-1.6,2.2-4.6,3.1c-3-0.3-4.5-1.7-4.5-4.1l0-1.7
			c7.1-2.7,10.8-6.1,10.8-10.1l0-0.5c0-3.2-1.4-5-4.3-5.3l-1-0.1c-4.3-0.4-7.4,4.1-9.7,13.8c0,6.8,2.3,10.5,6.7,11l2.4,0.2
			c0.3,0,0.6,0,0.9,0c2.9,0,5.2-1.5,6.8-4.4l0-0.1l0-0.6C963.7,735.5,963.5,734.8,962.4,734.5z M958,721.1c0,2.1-2.2,4.4-6.5,6.8
			l-0.4,0c1.9-5.6,4-8.2,6.3-8c0.5,0,0.6,0.2,0.6,0.7V721.1z"/>
		<path style="fill:#B57C31;" d="M977.5,715.3l0.3-0.6l-0.4-0.8c0.1,0,0.1-0.1,0.2-0.1c0.4-0.4,0.6-1.2,0.6-2.5l0-0.1
			c-0.4-1.5-1.5-2.4-3.3-2.6l-0.4,0l0,0.4c0,0.2-0.1,0.6-0.4,1.3l-0.1,0.2l0.5,1c-0.6,1.1-0.9,2.4-0.9,4l-0.6-0.1l-2.8,0.2l-1.1-0.7
			l-1.9,1.1l0,0.3c0.3,1.9,0.9,2.9,1.8,3l3.6,0.4l0,1.1c-0.9,7.4-2.1,14-3.4,19.5l0,0.1l0,0.1c0.6,1.6,1.1,2.3,1.8,2.4l1.8,0.2
			l3.9-23.5l3.1,0.8l0.1,0c1.7-0.3,2.6-1,2.7-2.1l0-0.1l-0.6-2.4L977.5,715.3z"/>
		<path style="fill:#B57C31;" d="M993,716.9l0.3-0.6l-0.4-0.8c0.1,0,0.1-0.1,0.2-0.1c0.4-0.4,0.6-1.2,0.6-2.5l0-0.1
			c-0.4-1.5-1.5-2.4-3.3-2.6l-0.4,0l0,0.4c0,0.2-0.1,0.6-0.4,1.3l-0.1,0.2l0.5,1c-0.6,1.1-0.9,2.4-0.9,4l-0.6-0.1l-2.8,0.2l-1.1-0.7
			l-1.9,1.1l0,0.3c0.3,1.9,0.9,2.9,1.8,3l3.6,0.4l0,1.1c-0.9,7.4-2.1,14-3.4,19.5l0,0.1l0,0.1c0.6,1.6,1.1,2.3,1.8,2.4l1.8,0.2
			l3.9-23.5l3.1,0.8l0.1,0c1.7-0.3,2.6-1,2.8-2.1l0-0.1l-0.6-2.4L993,716.9z"/>
		<path style="fill:#B57C31;" d="M1007.7,716.7c-0.6-1.2-1.2-1.8-1.8-1.8l-2.4-0.2l0,0.9c0,1.8,0.8,3,2.2,3.5l0.1,0l0.1-0.1
			c1.1-0.5,1.7-1.1,1.7-1.7l0-0.5L1007.7,716.7z"/>
		<path style="fill:#B57C31;" d="M1005,721.2l-1.9-0.2l-4,23l0.1,0.1c0.6,1.2,1.2,1.8,1.8,1.8l0.5,0c0,0,0.1,0,0.1,0
			c0.8,0,2-1.2,4.7-23.3C1006.3,722.2,1006.1,721.5,1005,721.2z"/>
		<path style="fill:#B57C31;" d="M1028.4,722.5l-0.5-0.1c0,0,0,0,0,0c-0.9,0-2.9,1.2-9.7,9.4l1.3-8.5c0-0.7-0.4-1.3-1.3-1.5
			l-2.3-0.2l0,0.4c-0.9,9.4-2.2,16.6-3.9,21.4l0,0.6l0,0.2c0.6,1.2,1.2,1.8,1.8,1.8l1.8,0.2l0.6-2.3c1.1-4.6,5.3-10.6,12.5-17.8
			l0.3,0c0.5,0,1.3,0.7,1.6,4.8c0,4.4-0.6,9.8-1.9,16.2c0,0.6,0.3,1.4,1.1,2.3l0.1,0.1l0.7,0.1c0,0,0.1,0,0.1,0
			c0.3,0,0.5-0.1,0.7-0.3c0.8-0.7,2-2.8,3-13.6l0,0C1034.1,727.4,1032.2,722.9,1028.4,722.5z"/>
		<path style="fill:#B57C31;" d="M1060.3,728l-6.9-0.7l-0.1,0l-0.1,0c-9.6,2.4-14.5,7.7-14.5,15.9c0.4,4.2,1.6,6.4,3.8,6.7
			c3.7,0.4,7.5-1.5,11.2-5.5c-1,3.2-1.9,5.5-2.7,6.8l0,0.1c-2.5,13-6.3,19.4-11.3,18.9l-3.9-0.4c-0.7-0.1-1.3,0.4-1.4,1.3l0,0.5
			c0,0.7,0.7,1.3,2.2,2l0.1,0c0.7,0.1,1.3,0.1,2,0.1c7.6,0,12.4-4.9,14.1-14.7c5.9-16.6,8.8-26.2,8.8-29.6
			C1061.5,729,1061.4,728.3,1060.3,728z M1057.8,731.3l-0.4,2.1c-4.4,7.8-8.9,12.1-13.3,12.8l-1-0.1c-0.3,0-0.5-0.1-0.6-0.7l0-1
			c0-1.2,0.2-2.6,0.5-4.3c2.7-6.9,7.2-9.9,13.8-9.2C1056.9,730.9,1057.2,731,1057.8,731.3z"/>
		<path style="fill:#B57C31;" d="M1102.5,711.2v-0.7l0-0.1c-0.9-1.6-1.5-2.3-2.2-2.3l-0.6,0l-0.1,0c-0.4,0.2-1.4,0.6-9.8,19.5
			c-0.3-0.5-1-1.6-2.3-4.6c-5.2-14.2-7.2-16.1-8.3-16.1c-0.7,0-1.1,0.1-1.4,0.4c-0.2,0.2-0.4,0.5-0.4,0.9l0,0.5l0,0.2
			c4.9,10.8,8.2,18.8,9.8,23.7l-8.9,17.8l0,0.1c0.2,1.5,0.8,2.4,1.8,2.4l1.7,0.1l0.1-0.2c5-10.9,6.4-13.4,6.8-13.8l0.1,0l0.1-0.2
			c7.7-16.6,12.2-25.9,13.5-27.5L1102.5,711.2z"/>
		<path style="fill:#B57C31;" d="M1115.2,727.3l-2-0.1c-1.3-0.1-3,0.8-5.5,2.8c-3.1,3.8-5.2,8.2-6.2,13.2l0,0.1l0.1,0.1
			c0.4,0.7,0.4,1.1,0.4,1.4c0,4.7,2.1,8.1,6.3,10.2l0.1,0l0.1,0c3-0.3,4.9-0.9,5.8-1.8c5-4.8,7.6-9.8,7.6-14.8
			C1122,732.6,1119.7,728.9,1115.2,727.3z M1118.9,737.9l0,0.9c-2.8,8.2-5.8,12.2-8.9,12.1l-2.3-0.1c-0.3,0-1.3-0.6-2.4-5.3
			c1.6-9.9,4.9-14.7,9.9-14.4l0.8,0C1117.8,732.8,1118.9,735,1118.9,737.9z"/>
		<path style="fill:#B57C31;" d="M1148.3,729.1l-0.5,0c0,0,0,0-0.1,0c-0.9,0-1.5,1.3-2.2,4.1c-3.9,9.6-8.6,15.9-14.2,18.8
			c-0.2,0-0.4-0.1-0.5-0.6l0-1c0-2.2,1.2-9.1,3.7-20.7l0-0.5c0-0.7-0.4-1.3-1.2-1.4l-2.3-0.1l-3.8,21.5c0,4.2,1.4,6.4,4.1,6.6
			l1.5,0.1l0.1-0.1c6.1-4.3,10-8.6,11.5-12.6c-0.1,2-0.7,5.6-1.8,10.8l0,0.2l0.1,0.1c1.3,1.9,1.8,2.3,2.2,2.3l0.6,0l0.1-0.1
			c0.3-0.2,1-0.7,4.3-25.4l0-0.1l0-0.1C1149.5,729.7,1149,729.1,1148.3,729.1z"/>
		<path style="fill:#B57C31;" d="M1173.9,737.4c-0.8-2.2-2.2-3.3-4.1-3.4c-2.8-0.2-6.2,3-10.4,9.6c1.2-5.5,1.8-8.7,1.8-9.7
			c0-0.7-0.4-1.3-1.3-1.4l-2.3-0.1l0,0.4c0,1.6-1.4,9.2-4.2,22.6l0,0.1l0.1,0.1c0.6,1.2,1.1,1.8,1.7,1.8l0.5,0c0,0,0,0,0.1,0
			c1,0,1.8-1.6,2.6-5.1c2-5,5.9-9.9,11.5-14.5l0.4,0l0,3.1c0,0.7,0.7,1.3,2.1,2l0.1,0c0.4,0,0.7-0.1,1-0.3c0.2-0.2,0.4-0.6,0.4-1
			l0-4L1173.9,737.4z"/>
		<path style="fill:#B57C31;" d="M1208.4,711.5c-9,0.7-13.9,3.7-14.8,9l0,1.5c0,1.8,0.5,3.3,1.6,4.6c8.9,8.5,13.4,14.3,13.4,17.5
			l0,0.5c-0.5,5.8-3,8.9-7.8,9.3l-6.7,0.5c-0.2,0-0.9-0.1-3.8-0.7l-0.1,0l-0.1,0c-0.4,0-1.1,0.3-1.3,1.4l0,1c0,0.2,0.1,0.5,0.3,0.7
			c0.5,0.4,1.6,1,6.1,1c1.1,0,2.5,0,4.1-0.1c8.9-0.7,13.3-5.2,13.3-13.4c-0.1-2.8-1.9-6.4-5.4-10.8c-8.7-8.7-10-10.8-10-11.3
			c0-4.1,3.5-6.4,10.6-7l6.5,0.5l1.1-1.9l0-2L1208.4,711.5z"/>
		<path style="fill:#B57C31;" d="M1231.8,729.9c-3.4,0.3-6.5,3.5-9.6,9.9l4.2-32.8l0-0.2l-1.8-1.1l-1.4,0.1l0,0.3
			c-3.2,24.5-5.6,40.5-7.1,47.8l0,0.1l0.6,2.4l2.2-0.2c0.4,0,1-0.1,2.7-6.9c3.2-8.9,6.3-14.1,9.3-15.4c0.8-0.1,1.4,0.1,1.8,0.5
			c0.4,0.4,0.6,1,0.6,1.9c0,2-0.6,7.9-1.9,17.5l0,0.1l0.1,0.1c0.6,1.1,1.2,1.6,1.8,1.6l0.6,0l1.7-1.3v-0.2c0-4.2,0.5-9.5,1.4-16l0,0
			l0,0C1236.5,732.3,1234.8,729.7,1231.8,729.9z"/>
		<path style="fill:#B57C31;" d="M1247.5,728.9L1247.5,728.9l-1.8,0.1l-3.9,23.5l0,0.1l0.1,0.1c0.6,1.1,1.1,1.6,1.7,1.6
			c0,0,0.1,0,0.1,0l0.5,0c0.7-0.1,1.9-0.2,4.6-24.1C1248.8,729.7,1248.7,729,1247.5,728.9z"/>
		<path style="fill:#B57C31;" d="M1250.2,723.9c-0.6-1.1-1.2-1.6-1.8-1.6l-2.3,0.2l0,0.8c0,2.3,1.2,3,2.3,3.2l0.1,0l0.1-0.1
			c1.1-0.7,1.6-1.3,1.6-1.9L1250.2,723.9L1250.2,723.9z"/>
		<path style="fill:#B57C31;" d="M1263.3,724.5l0.3-0.6l-0.4-0.7c0.8-0.5,0.8-2.2,0.8-2.8l0-0.1c-0.3-1-1.1-2.2-3.3-2l-0.4,0v0.4
			c0,0.2-0.1,0.6-0.4,1.4l-0.1,0.2l0.5,0.9c-0.6,1.2-0.9,2.6-0.9,4.2l-0.7,0.1l-2.8,0.7l-1-0.5l-1.8,1.4l0,0.2
			c0.3,1.9,0.9,2.8,1.9,2.7l3.4-0.3l0,1c-0.9,7.6-2,14.4-3.3,20.1l0,0.1l0,0.1c0.3,0.9,0.9,2.1,1.8,2.1c0,0,0.1,0,0.1,0l1.7-0.1
			l3.8-24.2l0.1,0l3,0.3l0.1,0c1.6-0.6,2.5-1.5,2.6-2.5l0-0.1l-0.6-2.3L1263.3,724.5z"/>
		<path style="fill:#B57C31;" d="M1314.4,715l0-0.2c0-1-0.3-1.7-0.9-2.3c-0.7-0.7-1.9-0.9-3.5-0.8c-2.2,0.5-3.9,0.8-5.2,0.9
			c-1.7,0.1-3.1,0.1-4.2-0.1l-0.1,0l-0.1,0c-1.2,0.4-2.5,0.7-3.8,0.8l-1,0.1c-2.9,0.2-5.6,0.1-8.1-0.3l-0.3-0.1l-0.6,1.4l0,1.1
			c0,0.3,0.1,0.6,0.4,0.8c0.7,0.6,2.5,1.3,11.1,0.7c-1,6.9-3.2,18.9-6.6,35.9c0,0.5,0.1,0.8,0.4,1c0.2,0.2,0.5,0.3,0.8,0.3
			c0.1,0,0.1,0,0.2,0l1.4-0.1c0.6,0,1.6-0.1,7.9-37.4l10.8-0.9L1314.4,715z"/>
		<path style="fill:#B57C31;" d="M1326.5,723.9L1326.5,723.9l-2,0.1c-1.3,0.1-3.1,1.2-5.6,3.6c-3.2,4.2-5.4,9-6.3,14.1l0,0.1
			l0.1,0.1c0.4,0.7,0.4,1.1,0.4,1.3c0,4.7,2.2,7.9,6.5,9.3l0.1,0l0.1,0c3.1-0.8,5-1.6,6-2.6c5.2-5.5,7.8-10.8,7.8-15.8
			C1333.6,728.3,1331.2,724.8,1326.5,723.9z M1330.4,734.8c-2.9,8.6-6,13.1-9.3,13.4l-2.4,0.2c-0.3,0-1.3-0.4-2.5-4.9
			c1.7-10.1,5.1-15.5,10.2-15.9l0.8-0.1c2.1,1.4,3.1,3.5,3.1,6.3L1330.4,734.8z"/>
		<path style="fill:#B57C31;" d="M1358.7,725.1L1358.7,725.1l-6.8,0.5l-0.1,0c-9.4,4.1-14.2,10.3-14.1,18.4c0.4,4.2,1.6,6.2,3.8,6
			c3.6-0.3,7.3-2.8,10.8-7.4c-1,3.3-1.8,5.7-2.6,7.1l0,0.1c-2.5,13.5-6.2,20.6-11.2,21l-3.9,0.3c-0.4,0-1.1,0.3-1.3,1.4l0,0.5
			c0,0.9,1.3,1.4,2.2,1.7l0.1,0l0.1,0c8.6-0.7,13.9-6.6,15.7-17.4c5.8-17.6,8.6-27.8,8.6-31.1C1360,725.6,1359.6,725.1,1358.7,725.1
			z M1356.3,728.8l-0.4,2.2c-4.3,8.7-8.8,13.8-13.1,15.2l-1,0.1c-0.2,0-0.4,0-0.5-0.6l0-1c0-1.2,0.2-2.7,0.5-4.4
			c2.6-7.3,7.2-11.3,13.6-11.8C1355.5,728.6,1355.8,728.6,1356.3,728.8z"/>
		<path style="fill:#B57C31;" d="M1378.8,740l-2.3,0.2l0,0.4c0,0.8-0.8,2.2-4.5,4c-1.6,0.1-2.8-0.1-3.5-0.8
			c-0.6-0.5-0.9-1.3-0.9-2.4l0-1.8c7-4,10.6-8,10.6-12l0-0.5c0-1.7-0.4-3-1.2-3.7c-0.7-0.7-1.7-0.9-3-0.8l-1,0.1
			c-4.1,0.3-7.2,5.4-9.5,15.5c0,4.2,0.8,7,2.5,8.5c0.9,0.9,2.1,1.3,3.6,1.3c0.2,0,0.4,0,0.6,0l2.4-0.2c3.2-0.3,5.7-2.2,7.5-5.7
			l0-0.1l0-0.6C1380.2,740.6,1379.7,740.1,1378.8,740z M1368.1,735.4l-0.3,0c1.9-5.9,4-9,6.2-9.2c0,0,0.1,0,0.1,0
			c0.1,0,0.2,0,0.3,0.1c0.1,0.1,0.1,0.3,0.1,0.4l0,0.5C1374.6,729.4,1372.4,732.1,1368.1,735.4z"/>
		<path style="fill:#B57C31;" d="M1393.7,718l0.3-0.6l-0.4-0.7c0.8-0.5,0.8-2.2,0.8-2.8l0-0.1c-0.3-1-1.1-2.2-3.3-2l-0.4,0v0.4
			c0,0.2-0.1,0.6-0.4,1.4l-0.1,0.2l0.5,0.9c-0.6,1.2-0.9,2.6-0.9,4.2l-0.7,0.1l-2.8,0.7l-1-0.5l-1.8,1.4l0,0.2
			c0.3,1.9,0.9,2.8,1.9,2.7l3.4-0.3l0,1c-0.9,7.6-2,14.4-3.3,20.1l0,0.1l0,0.1c0.3,0.9,0.9,2.1,1.8,2.1c0,0,0.1,0,0.1,0l1.7-0.1
			l3.8-24.2l0.1,0l3,0.3l0.1,0c1.6-0.6,2.5-1.5,2.6-2.5l0-0.1l-0.6-2.3L1393.7,718z"/>
		<path style="fill:#B57C31;" d="M1415.1,719.2c-3.4,0.3-6.5,3.5-9.6,9.9l4.2-32.8l0-0.2l-1.8-1.1l-1.4,0.1l0,0.3
			c-3.2,24.5-5.6,40.5-7.1,47.8l0,0.1l0.6,2.4l2.2-0.2c0.4,0,1-0.1,2.7-6.9c3.2-8.9,6.3-14.1,9.3-15.4c0.8-0.1,1.4,0.1,1.8,0.5
			c0.4,0.4,0.6,1,0.6,1.9c0,2-0.6,7.9-1.9,17.5l0,0.1l0.1,0.1c0.6,1.1,1.2,1.6,1.8,1.6l0.6,0l1.7-1.3v-0.2c0-4.2,0.5-9.5,1.4-16l0,0
			l0,0C1419.8,721.6,1418,719,1415.1,719.2z"/>
		<path style="fill:#B57C31;" d="M1440.3,735.1l-2.3,0.2l0,0.4c0,0.8-0.8,2.2-4.5,4c-1.6,0.1-2.8-0.1-3.5-0.8
			c-0.6-0.5-0.9-1.3-0.9-2.4l0-1.8c7-4,10.6-8,10.6-12l0-0.5c0-1.7-0.4-3-1.2-3.7c-0.7-0.7-1.7-0.9-3-0.8l-1,0.1
			c-4.1,0.3-7.2,5.4-9.5,15.5c0,4.2,0.8,7,2.5,8.5c0.9,0.9,2.1,1.3,3.6,1.3c0.2,0,0.4,0,0.6,0l2.4-0.2c3.2-0.3,5.7-2.2,7.5-5.7
			l0-0.1l0-0.6C1441.7,735.6,1441.2,735.2,1440.3,735.1z M1429.4,730.5c1.9-5.9,4-9,6.2-9.2c0,0,0.1,0,0.1,0c0.1,0,0.2,0,0.3,0.1
			c0.1,0.1,0.1,0.3,0.1,0.4l0,0.5c0,2.1-2.2,4.8-6.5,8.1L1429.4,730.5z"/>
		<path style="fill:#B57C31;" d="M1466.7,719.6l0-0.1c-0.9-2.1-2.3-3.1-4.2-2.9c-2.9,0.2-6.3,3.8-10.6,11c1.3-5.6,1.9-8.8,1.9-9.9
			c0-0.8-0.5-1.2-1.4-1.3l-2.3,0.2l0,0.4c0,1.6-1.4,9.4-4.3,23.1l0,0.1l0.1,0.1c0.6,1.1,1.1,1.6,1.7,1.6c0,0,0.1,0,0.1,0l0.5,0
			c0.7-0.1,1.6-0.7,2.7-5.4c2.1-5.3,6-10.7,11.8-16.1l0.4,0l0,3c0,1,1.3,1.4,2.2,1.7l0.1,0l0.1,0c0.8-0.1,1.3-0.6,1.3-1.4
			L1466.7,719.6z"/>
		<path style="fill:#B57C31;" d="M1147,688l1,0c0.4,0,0.9-0.4,1.8-2.2l0-0.1c3.2-14.8,4.3-16.9,4.6-17.1l7.4,0l5.4,0.5l0-0.4
			c0-0.3,0.1-0.5,0.7-0.6l0.3,0l0-0.3c0-2-1-3.1-2.8-3.4l-0.1,0l-1,0.5c-0.2,0-0.6-0.1-1.2-0.4l-0.2-0.1l-1,0.5l-1-0.5l-0.2,0.1
			c-0.5,0.3-1.1,0.4-1.8,0.4l-1.4,0l-2.1-0.4c2.4-8,3.7-13,3.8-15.3l14.1,0c0.9,0,1.4-0.5,1.4-1.4l0-1c0-0.4-0.2-1.2-1.4-1.4l-7,0
			c0,0,0,0-0.1,0c-2.1,0-5.4-0.2-9.8-0.5l-0.4,0l0,0.4c0,0.7-1.8,8.3-10.4,40.7l0,0.1C1145.6,687.7,1146.5,688,1147,688z"/>
		<path style="fill:#B57C31;" d="M1184.5,660.4L1184.5,660.4l-2.1,0c-1.3,0-3.2,1-5.7,3.1c-3.3,4-5.5,8.5-6.5,13.6l0,0.1l0.1,0.1
			c0.4,0.7,0.5,1.1,0.5,1.3c0,4.7,2.3,8,6.7,9.8l0.1,0l0.1,0c3.2-0.5,5.2-1.2,6.2-2.1c5.4-5.1,8.1-10.3,8.1-15.2
			C1191.7,665.3,1189.3,661.6,1184.5,660.4z M1188.5,671.6c-3,8.4-6.2,12.6-9.6,12.6l-2.5,0c0,0,0,0,0,0c-0.4,0-1.3-0.5-2.6-5.1
			c1.7-10,5.2-15,10.5-15l0.9,0c2.2,1.6,3.2,3.7,3.2,6.6L1188.5,671.6z"/>
		<path style="fill:#B57C31;" d="M1200.7,662.8l0,0.4c0,1.6-1.5,9.3-4.4,22.8l0,0.1l0.1,0.1c0.6,1.2,1.2,1.7,1.8,1.7c0,0,0,0,0,0
			l0.5,0c1.1,0,1.9-1.6,2.8-5.2c2.1-5.1,6.2-10.2,12.2-15.2l0.5,0l0,3.1c0,0.7,0.7,1.3,2.3,1.8l0.1,0c0.9,0,1.4-0.5,1.4-1.4l0-4
			l0-0.1c-0.9-2.1-2.4-3.2-4.3-3.2c0,0,0,0,0,0c-3,0-6.6,3.4-11,10.3c1.3-5.6,2-8.8,2-9.9c0-0.4-0.2-1.2-1.4-1.4L1200.7,662.8z"/>
		<path style="fill:#B57C31;" d="M1157.8,618.2c0.6,1.1,1.2,1.7,1.9,1.7c0,0,0,0,0,0c0.7,0,1.4-0.2,2-0.5c0.6,0.3,1.3,0.4,2,0.4
			l14.5-0.5l2.8-0.7l-0.1-1.8c0-0.7-0.8-1.3-2.3-1.8l-0.1,0l-3,0.6l-3.5,0.1c-2.1,0.1-5.3,0-9.5-0.2c4.2-23.9,6.2-36.8,6.1-39.1
			l0-1.3l-2.9-0.5l-0.8,0l0,0.3c-2.4,17.7-4.8,32-7.1,42.5l0,0l0,0.5L1157.8,618.2z"/>
		<path style="fill:#B57C31;" d="M1183.1,617.6c0.8,0.9,2,1.4,3.5,1.4c0.1,0,0.2,0,0.2,0c3.8-0.1,7.6-3.5,11.1-10
			c-0.3,1.1-0.7,3.4-1.2,7.2l0,0.1l0.1,0.1c0.7,1.1,1.3,1.6,1.9,1.6l1.8-0.1l0-0.3c2.2-15.2,3.2-23,3.2-24l0-0.2l-0.1-0.1
			c-1.3-1-2.6-1.5-3.8-1.5l-4.5,0.1c-7.9,0.2-12.5,7-13.7,20.2l0,1C1181.9,615.2,1182.3,616.6,1183.1,617.6z M1186.2,604.8
			c2.1-6.3,6.1-9.4,12.3-9.6l0.4,0l0.7,0.3c0,0.6-0.1,1.1-0.4,1.6c-4,11.8-8.4,17.9-13,18.1l-0.2,0l-0.5-2.1l0-0.5
			C1185.5,611.1,1185.7,608.4,1186.2,604.8z"/>
		<path style="fill:#B57C31;" d="M1207.5,616.3c0.9,1.4,2.3,2,4.1,2c0.1,0,0.2,0,0.2,0l3.5-0.1c3.8-0.1,6.2-2.3,7.1-6.5l0,0l0,0
			c-0.1-2.8-2.2-7.2-6.4-13.3l0-1.3c0.9-1.6,1.4-1.8,1.6-1.8l5.5-0.2c0.4,0,0.8-0.1,1-0.4c0.2-0.2,0.3-0.6,0.3-1l0-1
			c0-0.8-0.9-1.4-2.8-1.8l-0.1,0l-0.1,0c-1.5,0.5-1.8,0.5-1.9,0.5c-0.2,0-0.6-0.1-1.3-0.4l-0.1-0.1l-0.1,0c-2.5,0.8-4.3,2.2-5.6,4.3
			l-0.1,0.1l0.1,2.7l0.1,0.1c5.2,8.6,6.3,11.6,6.3,12.6c0.1,1.9-1.4,3.1-4.5,3.7l-2.5,0.1c-0.8,0-1.8-0.3-2.8-0.8l-0.1-0.1l-0.1,0
			c-0.4,0-1.2,0.2-1.3,1.4L1207.5,616.3L1207.5,616.3z"/>
		<path style="fill:#B57C31;" d="M1235.9,589.4l0.3-0.6l-0.4-0.7c0.8-0.5,0.8-2.2,0.7-2.8l0-0.1c-0.3-1-1.1-2.2-3.4-2.1l-0.4,0
			l0,0.4c0,0.2-0.1,0.6-0.4,1.3l-0.1,0.2l0.5,1c-0.5,1.2-0.8,2.5-0.8,4.1l-0.7,0l-2.8,0.6l-1.1-0.5l-1.8,1.3l0,0.2
			c0.1,0.7,0.5,2.8,2,2.8l3.6-0.1l0,1.1c-0.7,7.6-1.7,14.3-2.8,19.9l0,0.1l0,0.1c0.6,1.5,1.2,2.2,1.9,2.2c0,0,0,0,0,0l1.8-0.1
			l3.2-24l0.1,0l3.1,0.4l0.1,0c1.7-0.5,2.6-1.3,2.7-2.4l0-0.1l-0.7-2.3L1235.9,589.4z"/>
		<path style="fill:#B57C31;" d="M1287.6,601.6l0.2,7.6l0,0.1c0.6,1.1,1.2,1.6,1.8,1.6c0,0,0,0,0,0l1,0l1.4-0.7l0-0.2
			c-1.6-19.9-2.5-31-2.5-33.2l-0.2-5l-0.3-0.6l0.3,0l0-0.4c-0.1-1.7-1.2-2.8-3.5-3.3c-1.3,0-2.3,1.7-3.2,5.3
			c-18.3,37.5-18.2,38.2-18.2,38.6c0,0.8,0.5,1.3,1.3,1.3c0,0,0,0,0.1,0l1.1,0l0.1-0.1c0.5-0.3,1.8-1.4,9.4-18.6l10.3-0.3
			C1287.4,597.3,1287.6,600,1287.6,601.6z M1286.7,589.5l-0.7,0.3l-7.4,0.2c0.1-0.4,0.3-1,0.8-1.9l6-12.5l0.4,1.7l0.3,9
			L1286.7,589.5z"/>
		<path style="fill:#B57C31;" d="M1303.8,610.9L1303.8,610.9l0.1,0c2.8-0.1,6.3-4.2,10.6-12.6l0.2,5.4c0.1,2.7,1.2,4.7,3.4,5.7
			l0.1,0l1.1,0c3.7-0.1,8.3-7.3,14.1-22.1l0-0.1l-0.7-2.9l-2.6,0.1l-0.1,0.3c-2.6,8.4-6.3,15.5-11.1,21l-0.5-2.1l-0.1-4
			c-0.1-4.7,0.1-8.8,0.6-12.4l0-0.2l-2.3-1.6l-1.4,0l-0.1,0.3c-1.4,7.3-5.2,14.4-11.1,20.9l-0.5-3.1l-0.5-16.4
			c0-0.4-0.2-1.2-1.4-1.3l-2.4,0.1l0.6,18.8C1299.9,608,1301.3,610.1,1303.8,610.9z"/>
		<path style="fill:#B57C31;" d="M1342,609.2c0.1,0,0.2,0,0.2,0c3.8-0.1,7.6-3.5,11.1-10c-0.3,1.1-0.7,3.4-1.2,7.2l0,0.1l0.1,0.1
			c0.7,1.1,1.3,1.6,1.9,1.6l1.8-0.1l0-0.3c2.2-15.2,3.2-23,3.2-24l0-0.2l-0.1-0.1c-1.3-1-2.6-1.5-3.8-1.5l-4.5,0.1
			c-7.9,0.2-12.5,7-13.7,20.2l0,1C1337.4,607.2,1339,609.2,1342,609.2z M1341.7,595c2.1-6.3,6.1-9.4,12.3-9.6l0.4,0l0.7,0.3
			c0,0.6-0.1,1.1-0.4,1.6c-4,11.8-8.4,17.9-13,18.1l-0.2,0l-0.5-2.1l0-0.5C1340.9,601.3,1341.2,598.6,1341.7,595z"/>
		<path style="fill:#B57C31;" d="M1383.9,592.6L1383.9,592.6c0.9,0,1.4-0.5,1.4-1.4l-0.1-4l0-0.1c-1-2.1-2.4-3.1-4.4-3.1
			c-3,0.1-6.5,3.6-10.7,10.6c1.2-5.6,1.7-8.9,1.7-9.9v0c0-0.4-0.2-1.2-1.4-1.3l-2.4,0.1l0,0.4c0.1,1.6-1.2,9.3-3.7,22.9l0,0.1
			l0.1,0.1c0.6,1.1,1.2,1.6,1.8,1.6c0,0,0,0,0,0l0.5,0c1.1,0,1.9-1.7,2.7-5.3c2-5.2,5.9-10.4,11.7-15.5l0.5,0l0.1,3.1
			C1381.5,591.5,1382.2,592.1,1383.9,592.6L1383.9,592.6z"/>
		<path style="fill:#B57C31;" d="M1386.7,601c0.8,4.4,2.7,6.6,5.8,6.6c0.1,0,0.1,0,0.2,0l1.6-0.1l0.1-0.1c4.3-3,7.3-6.5,8.9-10.3
			c-0.8,3.6-1.1,6.7-1,9.3c0,0.5,0.6,0.9,1.8,1.3l0.1,0l0.1,0c0.6,0,1.3-0.4,2.2-1.1l0.1-0.1l0-0.2c0-0.8-0.2-1.5-0.5-2.1l0.3-4.3
			l5.7-42c0-0.4-0.2-1.2-1.4-1.3l0,0l-1.8,0.1l-3.3,22.4c0,0.9-0.2,1.5-0.8,2c-0.5,0.4-1.3,0.7-2.4,0.7c0-0.1-0.1-0.2-0.2-0.3
			c-0.2-0.2-0.4-0.2-0.7-0.2l-3.6,1.1c-7.7,2.8-11.4,8.9-11.1,18.1L1386.7,601z M1390.3,598.4c1.3-8.9,5.6-13.3,13.1-13.5
			c-3.1,12.5-7.1,18.9-11.7,19c-1-0.2-1.3-2-1.3-3.6L1390.3,598.4z"/>
		<path style="fill:#B57C31;" d="M967.8,609.7c-0.1-19.9-0.1-31.1,0-33.3l0.2-5l-0.2-0.5l0.3,0l0-0.4c0.1-1.7-1-2.9-3.2-3.5
			c-1.3-0.1-2.5,1.6-3.5,5c-21,36-21.1,36.8-21.1,37.1c0,0.9,0.4,1.4,1.3,1.4l1.1,0l0.1-0.1c0.8-0.5,2.8-2.9,10.7-17.9l10.3,0.5
			c0.1,3.7,0.2,6.4,0.1,8.1l-0.3,7.5l0,0.1c0.6,1.2,1.1,1.7,1.8,1.8l1.1,0l1.3-0.6L967.8,609.7z M963.9,588.9l-0.7,0.3l-7.4-0.3
			c0.1-0.4,0.4-1,1-1.9l6.9-12.1l0.3,1.7l-0.4,9L963.9,588.9z"/>
		<path style="fill:#B57C31;" d="M979.6,611l4,0.2c0.1,0,0.2,0,0.3,0c2.5,0,5.5-1.2,9-3.6l0.2-0.1l0.1-2.2c0-0.4-0.1-1.2-1.3-1.4
			l-1.2,0l-0.1,0.1c-2.6,2.8-5.8,4.1-9.3,3.9c-1.4-0.1-2.4-0.5-3-1.3c-0.6-0.8-0.9-2-0.9-3.5l0.2-3.9c3.8-7.9,8.1-11.8,12.5-11.6
			l5.4,0.8l0-0.4c0-0.2,0.1-0.6,0.5-1.3l0.1-0.2l-0.1-0.2c-0.5-1.5-1.8-2.3-3.7-2.4l-2.5-0.1l-0.1,0c-10.2,2.8-15.6,9.1-16,18.6
			c-0.1,2.7,0.3,4.8,1.3,6.2C975.9,610.1,977.5,610.9,979.6,611z"/>
		<path style="fill:#B57C31;" d="M1011.9,610l0,0.1l0.1,0.1c0.6,1.2,1.1,1.7,1.8,1.8l1.8,0.1l0.1-0.3c3.3-15,5-22.7,5-23.7l0-0.2
			l-0.1-0.1c-1.2-1.1-2.5-1.7-3.6-1.7l-4.5-0.2c-7.9-0.3-13,6.1-15.2,19.1l0,1c-0.2,3.9,1.4,5.9,4.6,6.1c3.8,0.2,7.8-2.9,11.9-9.1
			C1013.3,603.9,1012.7,606.3,1011.9,610z M1016.3,589.6c-0.1,0.6-0.2,1.1-0.5,1.6c-4.9,11.5-9.7,17.2-14.3,17l-0.2,0l-0.3-2.1
			l0-0.5c0.1-1.5,0.5-4.2,1.3-7.8c2.6-6.1,6.8-8.9,13-8.6l0.4,0L1016.3,589.6z"/>
		<path style="fill:#B57C31;" d="M1028.6,613.1l1.6,0.1l0.1-0.1c4.5-2.6,7.7-5.9,9.6-9.7c-1,3.5-1.6,6.6-1.7,9.2
			c0,0.5,0.5,0.9,1.7,1.4l0.1,0c0,0,0,0,0.1,0c0.6,0,1.3-0.3,2.2-1l0.1-0.1l0-0.2c0-0.8-0.1-1.5-0.4-2.1l0.7-4.3l8.8-41.5
			c0-0.4-0.1-1.2-1.3-1.4l-1.9-0.1l-5,22.1c0,1.1-0.4,2.5-3.3,2.5c0,0-0.1,0-0.1,0c0-0.1-0.1-0.2-0.2-0.3c-0.2-0.2-0.4-0.3-0.6-0.3
			l-0.1,0l-3.6,0.9c-7.9,2.2-12.1,8-12.5,17.2l0,0.6C1023.4,610.6,1025.3,613,1028.6,613.1z M1026.8,605.7l0.1-1.9
			c1.9-8.4,6.3-12.5,13.3-12.5c0.3,0,0.5,0,0.8,0c-3.9,12-8.3,18.1-12.9,18.1c-0.1,0-0.1,0-0.2,0
			C1026.8,609.1,1026.7,607.3,1026.8,605.7z"/>
		<path style="fill:#B57C31;" d="M1066.5,607.6l-2.4-0.1l0,0.4c-0.1,1.2-1.7,2.3-4.8,3.4c-1.5-0.1-2.6-0.4-3.4-1.1
			c-0.7-0.6-1-1.5-1-2.7l0.1-1.8c7.4-3.1,11.2-6.7,11.4-10.7l0-0.5c0.1-1.6-0.2-2.8-0.9-3.7c-0.7-0.9-1.8-1.3-3.2-1.4l-1,0
			c-4.3-0.2-7.7,4.5-10.5,14.4c-0.3,6.8,1.9,10.4,6.4,10.6l2.5,0.1c0.1,0,0.3,0,0.4,0c3.1,0,5.7-1.6,7.6-4.8l0.1-0.7
			C1067.9,608.6,1067.7,607.9,1066.5,607.6z M1055.4,601.7c2.2-5.7,4.5-8.5,6.8-8.4c0.2,0,0.4,0.1,0.5,0.2c0.1,0.1,0.1,0.3,0.1,0.5
			l0,0.5c-0.1,2.1-2.4,4.5-7,7.3L1055.4,601.7z"/>
		<path style="fill:#B57C31;" d="M1089.3,595.8l0.2,0.5c-0.2,4.1-1.6,9.8-4.2,17l0,0.1l0,0.1c0.5,1.6,1.1,2.3,1.8,2.3l1,0
			c0.4,0,0.8,0,3.6-5.5c3-5.3,6.6-9.6,10.8-12.7l-0.1,1.6c-0.1,2.8-1,7.9-2.6,15.3c0,0.7,0.1,1.2,0.4,1.5c0.2,0.2,0.5,0.4,0.9,0.4
			l1,0c0,0,0.1,0,0.1,0c0.7,0,2-0.7,4-17.1l0-1.1c-0.4-2.9-1.1-4.3-2.2-4.4l-2.5-0.1c-0.9,0-2.7,1.1-9.3,9.2
			c0.2-1.1,0.5-2.5,1.1-4.1l0-0.1c0.2-4.5-1.2-6.9-4.1-7l-0.5,0c-0.3,0-0.9,0-8.3,7.4l0.6-4.9l0.1-2.5v0c0-0.4-0.1-1.2-1.3-1.5l-1,0
			c-0.4,0-1.2,0.1-1.5,1.3l-0.2,3.5c-0.1,2.8-1.7,8.7-4.7,17.6l-0.1,0.3l0.3,0.2c1.2,0.7,1.2,1.1,1.2,1.2l0,0.4l0.4,0
			c0.4,0,1-0.1,1.7-0.4l0.2-0.1l0.1-0.2c1.5-4.2,2.9-7.3,4.3-9.2C1083.9,600.5,1086.9,597.4,1089.3,595.8z"/>
		<path style="fill:#B57C31;" d="M1134,597.9l-0.1-0.1c-0.6-1.2-1.1-1.7-1.8-1.8l-2.3-0.1l-0.1,0.3c-0.5,2-0.6,2.7-0.6,2.9
			c-4,7.9-8.1,12.6-12.2,14.1c-0.6,0-0.8-0.2-0.9-0.3c-0.1-0.1-0.1-0.2-0.1-0.4l0-1c0.1-2.1,0.8-6.9,2.1-14.4l0-1
			c0-0.4-0.1-1.2-1.3-1.4l-2.3-0.1l-0.1,0.3c-1.4,9.6-2.1,15-2.2,16.4l0,0.5c-0.1,2,0.9,3.6,3,5l0.1,0.1l1.1,0
			c2.4,0.1,5.6-1.8,9.8-5.9c-0.1,1.2-0.3,2.7-0.7,4.4c-3.9,14.6-6.6,17.8-8.4,17.8c0,0,0,0-0.1,0c-8.3,1-8.4,1.6-8.4,2l0,0.1l0,0.1
			c0.6,1.2,1.1,1.7,1.8,1.8l3,0.1c0.2,0,0.4,0,0.5,0c5.4,0,9.5-3.6,12.2-10.7c2.8-11.6,5.4-21.2,7.7-28.5L1134,597.9z"/>
	</g>
	<g>

			<path style="fill:#FFCB80;stroke:#000000;stroke-width:1.8471;stroke-linecap:round;stroke-linejoin:round;stroke-miterlimit:10;" d="
			M1263.2,0.9H1100l7,235.5c0,0,150,1.3,145.5-6.3C1249.8,225.6,1257.7,109.4,1263.2,0.9z"/>

			<path style="fill:#FFCB80;stroke:#000000;stroke-width:1.8471;stroke-linecap:round;stroke-linejoin:round;stroke-miterlimit:10;" d="
			M1166.6,61.7l-0.9-60.7h-95.9c15.2,66.7,22.9,105.1,22,126.4c-1.5,33.3-51.4,66.8-62,86.5c-10.6,19.7,65.2,28.7,110.7,33.2
			c45.5,4.5,33.2-100.1,27.1-119.8"/>

			<path style="fill:#FFCB80;stroke:#000000;stroke-width:1.8471;stroke-linecap:round;stroke-linejoin:round;stroke-miterlimit:10;" d="
			M1061.5,189.5c21.2,6,60.6,7.5,60.6,7.5s27.3-1.6,36.4,9"/>

			<path style="fill:#FFCB80;stroke:#000000;stroke-width:1.8471;stroke-linecap:round;stroke-linejoin:round;stroke-miterlimit:10;" d="
			M1267.5,124c-1-21.8,6.7-56.6,19.9-123.1h-90.6c-1,65.5-2.1,116.6-5.1,126.3c-6.1,19.7-18.1,124.3,27.6,119.7
			c45.7-4.6,121.2-16.8,110.5-36.5C1319.1,190.6,1269.1,157.4,1267.5,124z"/>

			<path style="fill:#FFCB80;stroke:#000000;stroke-width:1.8471;stroke-linecap:round;stroke-linejoin:round;stroke-miterlimit:10;" d="
			M1298.4,189.2c-21.3,6.1-60.9,7.7-60.9,7.7s-36.5-1.5-36.5,13.7"/>
		<path style="fill:#EDB264;" d="M1075.4,2.8c14.2,56.3,26.6,96.8,28.6,96.8c1.8,0-1.4-41.8-6.3-96.8H1075.4z"/>
		<path style="fill:#EDB264;" d="M1209.4,2.8c-3.2,66.3-7.6,126.2-7.6,126.2s18.6-49.3,34.3-126.2H1209.4z"/>
		<path style="fill:#FFD6A1;" d="M1110.1,114.5c1.8,10.2,23.1-5.5,23.1-16.6s0-92.4,0-92.4h-29.6
			C1103.6,5.5,1107.3,98.8,1110.1,114.5z"/>
	</g>
</g>
</svg>
