<?xml version="1.0" encoding="utf-8"?>
<!-- Generator: Adobe Illustrator 24.0.1, SVG Export Plug-In . SVG Version: 6.00 Build 0)  -->
<svg version="1.1" xmlns="http://www.w3.org/2000/svg" xmlns:xlink="http://www.w3.org/1999/xlink" x="0px" y="0px"
	 viewBox="0 0 2211.9 1245.4" style="enable-background:new 0 0 2211.9 1245.4;" xml:space="preserve">
<style type="text/css">
	.st0{fill:#EADECC;}
	.st1{fill:#E2D1BA;}
	.st2{fill:#B8C1BE;stroke:#000000;stroke-width:2;stroke-linecap:round;stroke-linejoin:round;stroke-miterlimit:10;}
	.st3{fill:#FFFFFF;stroke:#000000;stroke-width:2;stroke-linecap:round;stroke-linejoin:round;stroke-miterlimit:10;}
	
		.st4{fill-rule:evenodd;clip-rule:evenodd;stroke:#000000;stroke-width:2;stroke-linecap:round;stroke-linejoin:round;stroke-miterlimit:10;}
	
		.st5{fill-rule:evenodd;clip-rule:evenodd;fill:#443E3A;stroke:#000000;stroke-width:2;stroke-linecap:round;stroke-linejoin:round;stroke-miterlimit:10;}
	
		.st6{fill-rule:evenodd;clip-rule:evenodd;fill:#EA7547;stroke:#000000;stroke-width:2;stroke-linecap:round;stroke-linejoin:round;stroke-miterlimit:10;}
	
		.st7{fill-rule:evenodd;clip-rule:evenodd;fill:#CE5F3C;stroke:#000000;stroke-width:2;stroke-linecap:round;stroke-linejoin:round;stroke-miterlimit:10;}
	.st8{fill-rule:evenodd;clip-rule:evenodd;fill:#CE5F3C;}
	.st9{fill-rule:evenodd;clip-rule:evenodd;fill:#23201E;}
	
		.st10{fill-rule:evenodd;clip-rule:evenodd;fill:#F7815C;stroke:#000000;stroke-width:2;stroke-linecap:round;stroke-linejoin:round;stroke-miterlimit:10;}
	
		.st11{fill-rule:evenodd;clip-rule:evenodd;fill:#FF9376;stroke:#000000;stroke-width:2;stroke-linecap:round;stroke-linejoin:round;stroke-miterlimit:10;}
	
		.st12{fill-rule:evenodd;clip-rule:evenodd;fill:#EFAE52;stroke:#000000;stroke-width:2;stroke-linecap:round;stroke-linejoin:round;stroke-miterlimit:10;}
	
		.st13{fill-rule:evenodd;clip-rule:evenodd;fill:#D69947;stroke:#000000;stroke-width:2;stroke-linecap:round;stroke-linejoin:round;stroke-miterlimit:10;}
	
		.st14{fill-rule:evenodd;clip-rule:evenodd;fill:#FFCB80;stroke:#000000;stroke-width:2;stroke-linecap:round;stroke-linejoin:round;stroke-miterlimit:10;}
	.st15{fill:#FFCB80;stroke:#000000;stroke-width:2;stroke-linecap:round;stroke-linejoin:round;stroke-miterlimit:10;}
	.st16{fill:#EDB264;}
	.st17{fill:#FFD6A1;}
	.st18{fill:#C19721;stroke:#000000;stroke-width:2;stroke-linecap:round;stroke-linejoin:round;stroke-miterlimit:10;}
	.st19{fill:none;stroke:#000000;stroke-width:2;stroke-linecap:round;stroke-linejoin:round;stroke-miterlimit:10;}
	.st20{enable-background:new    ;}
	.st21{fill:#B57C31;}
</style>
<g id="Layer_3">
	<rect x="0.9" y="0.9" class="st0" width="2210.9" height="1244"/>
	<rect x="0.9" y="0.9" class="st1" width="689" height="1244"/>
	<rect x="1664.2" y="0.9" class="st1" width="545.8" height="1244"/>
	<polygon class="st2" points="2148.1,1087.9 0.9,1093 0.9,802.6 1835.1,802.6 	"/>
	<rect x="1.4" y="1087.5" class="st3" width="2146.3" height="157"/>
</g>
<g id="oskar_1_">
	<g id="oskar">
		<g>
			<g>
				<path class="st4" d="M661.6,845.8l0.2,140.2c0.1,38.7,236.9,69.7,529,69.3s528.9-32.1,528.8-70.8l-0.2-140.2L661.6,845.8z"/>
				
					<ellipse transform="matrix(1 -1.434300e-03 1.434300e-03 1 -1.2109 1.7084)" class="st5" cx="1190.5" cy="845.1" rx="528.9" ry="70.1"/>
			</g>
			<g>
				<path class="st6" d="M737.3,350.6L738,834c0,33.1,202.3,59.6,451.8,59.2s451.7-27.4,451.7-60.5l-0.7-483.4L737.3,350.6z"/>
				<path class="st6" d="M737.3,350.6L738,834c0,33.1,202.3,59.6,451.8,59.2s451.7-27.4,451.7-60.5l-0.7-483.4L737.3,350.6z"/>
				<path class="st6" d="M737.3,349.1l0.7,483.4c0,33.1,202.3,59.6,451.8,59.2s451.7-27.4,451.7-60.5l-0.7-483.4L737.3,349.1z"/>
				<path class="st7" d="M970.1,349.1H737.3l0.7,483.4c0,21.4,84.8,40,212.2,50.4"/>
				<path class="st8" d="M737.3,347.6l0.2,137.9c0,33.1,254.3,63.7,438.2,43.3c290.9-32.2,465.2-94.9,465.2-128l-0.1-77.3
					L737.3,347.6z"/>
				<path class="st4" d="M737.5,382.4l0.1,69.1c0,16.6,254.3,31.7,438.1,21.4c290.9-16.4,465.3-47.9,465.3-64.4l-0.1-38.7
					L737.5,382.4z"/>
				<path class="st4" d="M804.8,797c79.5,17,222.2,28.2,384.9,28c151-0.2,284.7-10.2,366.7-25.4l-0.5-318.2
					c-82,15.2-215.7,25.2-366.7,25.4c-162.8,0.2-305.4-11-384.9-28L804.8,797z"/>
				<path class="st9" d="M1263.4,824.1c25.8-0.6,50.9-1.5,75.1-2.6l217-340.2c-19.2,2.9-66.8,10.2-89.9,12.6L1263.4,824.1z"/>
				<path class="st9" d="M1470.5,811.6l85.7-145.1l-0.2-69.4l-135,219C1448.5,814.2,1446.6,814.2,1470.5,811.6z"/>
				
					<ellipse transform="matrix(1 -1.434286e-03 1.434286e-03 1 -0.5006 1.7059)" class="st10" cx="1189.1" cy="349.9" rx="451.7" ry="59.9"/>
			</g>
			<g>
				<path class="st6" d="M701,325.1l0.1,52.5c0.1,35.7,218.6,64.4,488.2,64s488-29.7,488-65.4l-0.1-52.5L701,325.1z"/>
				
					<ellipse transform="matrix(1 -1.434300e-03 1.434300e-03 1 -0.4641 1.7057)" class="st11" cx="1189" cy="324.4" rx="488.1" ry="64.7"/>
			</g>
			<g>
				<path class="st12" d="M822.9,225.4l0.1,97c0,26.8,163.9,48.3,366,48s365.9-22.2,365.9-49l-0.1-97L822.9,225.4z"/>
				<path class="st13" d="M1013.9,225.2L823,225.5l0.1,97c0,18.4,77.3,34.3,191,42.4"/>
				
					<ellipse transform="matrix(1 -1.434300e-03 1.434300e-03 1 -0.3214 1.7055)" class="st14" cx="1188.9" cy="224.9" rx="366" ry="48.5"/>
			</g>
		</g>
		<g>
			<path class="st15" d="M1263.2,0.9H1100l7,235.5c0,0,150,1.3,145.5-6.3C1249.8,225.6,1257.7,109.4,1263.2,0.9z"/>
			<path class="st15" d="M1166.6,61.7L1165.7,1h-95.9c15.2,66.7,22.9,105.1,22,126.4c-1.5,33.3-51.4,66.8-62,86.5
				s65.2,28.7,110.7,33.2s33.2-100.1,27.1-119.8"/>
			<path class="st15" d="M1061.5,189.5c21.2,6,60.6,7.5,60.6,7.5s27.3-1.6,36.4,9"/>
			<path class="st15" d="M1267.5,124c-1-21.8,6.7-56.6,19.9-123.1h-90.6c-1,65.5-2.1,116.6-5.1,126.3
				c-6.1,19.7-18.1,124.3,27.6,119.7s121.2-16.8,110.5-36.5C1319.1,190.6,1269.1,157.4,1267.5,124z"/>
			<path class="st15" d="M1298.4,189.2c-21.3,6.1-60.9,7.7-60.9,7.7s-36.5-1.5-36.5,13.7"/>
			<path class="st16" d="M1075.4,2.8c14.2,56.3,26.6,96.8,28.6,96.8c1.8,0-1.4-41.8-6.3-96.8C1097.7,2.8,1075.4,2.8,1075.4,2.8z"/>
			<path class="st16" d="M1209.4,2.8c-3.2,66.3-7.6,126.2-7.6,126.2s18.6-49.3,34.3-126.2C1236.1,2.8,1209.4,2.8,1209.4,2.8z"/>
			<path class="st17" d="M1110.1,114.5c1.8,10.2,23.1-5.5,23.1-16.6s0-92.4,0-92.4h-29.6C1103.6,5.5,1107.3,98.8,1110.1,114.5z"/>
		</g>
	</g>
	<g>
		<path class="st18" d="M504.1,937.4c-5.2,3.6-40-9.3-39.8-20.1c-3.1-1.1-6.2-2.2-9.4-3.2C285.2,859,122,899.7,122,899.7
			s110.6,63,222.4,100.1c98.6,32.8,316.7,49.9,316.7,49.9S595.5,981.4,504.1,937.4z"/>
		<path class="st19" d="M661.1,1049.7c0,0-311.4-159.3-539-150"/>
	</g>
</g>
<g id="Layer_2">
	<g>
		<g class="st20">
			<path class="st21" d="M1036.9,540.4c2.3,0.1,3.5,1.2,3.5,3.3c-0.1,5.2-0.2,8.7-0.2,10.4c0.2,11.3,0.7,21.3,1.6,29.9
				c0,0.8-0.9,1.2-2.8,1.2c-1.4-0.1-2.1-0.4-2.1-0.7l-0.9-15.9c-2.9-0.1-6.7,0-11.3,0.2c-0.2,3.3-0.4,6.2-0.5,8.7
				c0.2,4,0.2,6.4,0.2,7.2c-0.5,0.5-1.5,0.7-3,0.7c-0.8,0-1.4-0.2-1.7-0.5c-0.1-3.1-0.1-5.4-0.1-7v-0.4c0.1-4.2,0.5-10.6,1.1-18.9
				c0-4.9,0.4-8.6,1.2-11.1c0.8-2.4,1.7-4,2.7-4.7c1-0.7,3.1-1.4,6.5-1.9C1032.8,540.5,1034.7,540.3,1036.9,540.4z M1024.9,564.2
				l0.2,0c3.9,0.1,7.5,0,10.7-0.3c-0.2-2.9-0.2-6-0.2-9.2c0-3.2,0.1-6.4,0.2-9.6c-3-0.1-5.9,0.6-8.5,1.9c-1.2,1.2-1.8,3.9-1.8,8.1
				C1025.5,556.5,1025.2,559.5,1024.9,564.2z"/>
			<path class="st21" d="M1055.4,548.5l3.4,0.1c1.4,0,2.3,1.3,2.8,3.7c0.3,1,0.5,3.6,0.5,7.6c0,0.8-0.9,1.2-2.6,1.3l-0.8,0
				c-0.8,0-1.2-1.2-1.2-3.4c-0.1-2.9-0.2-4.4-0.5-4.4l-1.7,0c-2-0.1-3,1.4-3,4.4v3.5c0,4.3-0.1,10.3-0.3,18.1c0,2,1.6,3.2,4.9,3.5
				c0.8-0.4,1.2-2.1,1.2-5.4v-0.7c0-0.5,0.3-0.7,0.9-0.8c2.2,0.3,3.3,1.1,3.3,2.4c0.1,0.7,0.1,1.4,0.1,2.1c0,3.6-1.2,5.9-3.6,6.9
				c-0.8,0.3-1.7,0.4-2.6,0.4c-1.8,0-3.8-0.6-6.1-1.8c-1.6-1.2-2.4-2.7-2.4-4.6c-0.1-8.3-0.1-14-0.1-16.8c0-8.2,0.8-13.2,2.5-14.9
				C1051,548.8,1052.8,548.4,1055.4,548.5z"/>
			<path class="st21" d="M1079.5,548.4l1.6,0c2.9,0.1,4.3,1.6,4.3,4.6c0.5,3,0.7,6.9,0.7,11.8c-0.3,13.7-0.6,20.5-0.8,20.5
				c-0.5,0.6-1.3,0.9-2.3,0.8l-1.5,0c-0.8,0-1.2-0.4-1.2-1c0.2-2.1,0.4-6.7,0.7-13.7l-9.3-0.8c0,1.5,0,6.4,0.1,14.6
				c0.1,0.7,0.1,1.1,0.1,1.2c0,0.7-1.2,1.1-3.7,1c-0.6,0-1.1-0.6-1.2-1.6l-0.2-31.4c0-1.5,0.9-2.8,2.8-4.1
				C1072.8,549,1076.1,548.3,1079.5,548.4z M1071.4,557.7c0.2,5.4,0.3,8.1,0.3,8.3l9.7,0.7l0.2-7c0-4.3-0.9-6.5-2.6-6.6
				c-0.4-0.1-0.8-0.1-1.1-0.1c-1.9,0-3.8,0.5-5.8,1.5C1071.6,555.2,1071.4,556.2,1071.4,557.7z"/>
			<path class="st21" d="M1099.3,549.4c4,0.1,6.7,2.1,8,5.9c1.1,4.5,1.7,9.3,1.7,14.4c0,8.8-1.2,14.4-3.5,16.8
				c-2.4,1.4-5.6,2-9.6,1.9c-2-0.1-2.9-0.6-2.9-1.8v-0.1c0-8.6,0-20.1-0.1-34.4c0-1.1,0.6-1.9,1.7-2.3
				C1095.9,549.5,1097.5,549.4,1099.3,549.4z M1096.8,554.4c0.3,9.8,0.5,15.3,0.5,16.5c-0.1,6.6-0.1,10.9-0.1,12.9
				c3.7-0.4,5.6-1,5.6-1.8c1.1-0.8,1.8-5,2-12.5v-0.7c0-9.4-1.4-14.1-4.1-14.1c-0.1-0.2-0.8-0.3-2.1-0.5L1096.8,554.4z"/>
			<path class="st21" d="M1117.4,550c1.2,0,4.1,0.1,8.6,0.3c1.7,0,2.6,0.6,2.6,1.6v1.5c0,1.3-0.4,1.9-1.2,1.9l-2.1-0.1
				c-1.3,0-3.1,0-5.4,0.2v0.8c0,1.7,0,4.2-0.1,7.5l7.5-0.4c0.8,0,1.2,0.9,1.2,2.7v0.7c0,1-0.6,1.4-1.7,1.4c-0.6,0.1-3,0.2-7.2,0.4
				l0.2,14.3c1.6,0,4.6,0,9.1-0.2c0.7,0,1.1,0.6,1.1,1.8v0.4c0,1.8-0.6,2.7-1.9,2.6l-10.6,0.5l-0.2,0c-1.7,0-2.5-0.5-2.5-1.3
				c-0.3-5.5-0.5-11.3-0.5-17.5v-1.9c0.2-11.2,0.7-16.8,1.5-16.8C1116.2,550.2,1116.8,550,1117.4,550z"/>
			<path class="st21" d="M1154.2,548.8c1.9,0.2,2.8,1.1,2.8,2.7c0,2.5-0.2,10.8-0.6,24.7v0.8c0,3.8,0.3,7.7,1,11.7
				c0,0.8-1,1.2-3,1.3c-1.4,0-2.1-1-2.1-3c-0.4-2.8-0.7-5.3-0.7-7.7c0-2,0.1-7.8,0.2-17.4c-2.9,5.9-4.5,9.1-5,9.4
				c-0.2,0.1-0.5,0.2-0.7,0.2l-0.9,0c-1.3-0.7-3.4-4.6-6.1-11.6c0.9,15.3,1.5,24.6,1.8,27.9c-0.5,1-1.6,1.4-3.3,1.4l-0.6,0
				c-0.9,0-1.4-0.6-1.4-1.8c-0.5-5.9-1.1-17.6-1.6-35.2c0-1.7,1.3-2.9,4-3.6c0.8,0.1,3.4,5.3,7.8,15.4c3.2-7,5.1-11.7,5.9-14.1
				C1152.5,549.1,1153.3,548.8,1154.2,548.8z"/>
			<path class="st21" d="M1165.5,549.1c0.6,0,1,1.1,1.4,3.2c1.2,4.2,2.2,8,3,11.5l0.1,0c3.5-9.2,5.3-13.9,5.5-14.1l0.3,0
				c1.4,0,2.6,0.6,3.7,1.8v0.4c-1.4,4.3-3.6,9.9-6.4,16.7l-0.7,1.8c-0.5,12.8-0.9,19.2-1.1,19.2c-0.4,0.5-0.7,0.8-1,0.8
				c-2,0-3.2,0-3.4,0c-0.5-0.1-0.7-0.2-0.7-0.4c0.2-8.3,0.3-14.8,0.6-19.3c0-1.2-1.5-7.6-4.6-19c-0.1,0-0.1-0.2-0.1-0.7V551
				c0-0.9,1.1-1.6,3.3-1.9L1165.5,549.1z"/>
		</g>
		<g class="st20">
			<path class="st21" d="M1226.2,542.6c2.3-0.1,3.5,1,3.5,3.1c-0.1,5.2-0.2,8.7-0.2,10.4c0.2,11.3,0.7,21.2,1.6,29.8
				c0,0.8-0.9,1.3-2.8,1.3c-1.3,0-2-0.2-2.1-0.6l-0.9-15.8c-2.9,0.1-6.6,0.4-11.2,0.8c-0.2,3.3-0.4,6.2-0.4,8.8
				c0.1,4,0.2,6.4,0.2,7.2c-0.5,0.5-1.5,0.8-3,0.9c-0.8,0-1.4-0.1-1.7-0.4c-0.1-3.1-0.1-5.4-0.1-7v-0.4c0.1-4.3,0.5-10.6,1.1-19
				c0-4.9,0.4-8.7,1.2-11.1c0.8-2.5,1.7-4.1,2.6-4.9c0.9-0.8,3.1-1.5,6.4-2.3C1222.2,542.9,1224.1,542.7,1226.2,542.6z
				 M1214.4,567.1l0.2,0c3.8-0.1,7.4-0.4,10.6-0.9c-0.1-2.9-0.2-6-0.2-9.1c0-3.2,0.1-6.4,0.2-9.6c-3,0.1-5.8,0.9-8.4,2.4
				c-1.2,1.3-1.8,4-1.8,8.3C1214.9,559.4,1214.7,562.4,1214.4,567.1z"/>
			<path class="st21" d="M1258.9,547.5l2-0.1c1.1,0,1.7,0.9,1.7,2.8c0.1,1,0.1,2.1,0.1,3.4c0,6.1-1.1,14.6-3.3,25.4
				c-1.7,5.7-3.3,8.6-5,8.7c-0.4,0.1-0.8,0.1-1.5,0.2c-0.5,0-0.9-1.1-1.3-3.3c-0.7-2-1.3-4.3-1.9-6.8l-0.1,0
				c-2.1,5.9-3.3,9.2-3.6,9.7c-0.4,0.4-0.9,0.6-1.5,0.6c-2.3,0.1-3.5-0.9-3.5-2.9c-1.9-11.8-3.3-23.7-4.5-35.9
				c0.2-0.5,0.7-0.8,1.5-0.8l1.6-0.1c1.1,0,1.9,0.5,2.3,1.7c2.1,17.9,3.1,27.1,3.1,27.7l0.2,0c1.8-6.6,2.9-10.3,3.3-11.1
				c0.3-0.2,0.5-0.4,0.8-0.4l0.4,0c0.9,0,1.5,0.5,1.9,1.7c0.2,1.2,1.1,4.3,2.6,9.1l0.1,0c1.6-7.5,2.5-12.1,2.5-13.8
				c0.1-0.2,0.4-5.3,1-15.2C1258.3,547.7,1258.6,547.5,1258.9,547.5z"/>
			<path class="st21" d="M1280.6,547.6l1.6-0.1c2.8-0.1,4.2,1.4,4.2,4.3c0.4,3,0.7,6.9,0.7,11.8c-0.3,13.7-0.6,20.6-0.8,20.6
				c-0.5,0.6-1.3,0.9-2.2,1l-1.5,0c-0.8,0-1.2-0.3-1.2-1c0.1-2.2,0.4-6.7,0.7-13.7l-9.1-0.3c0,1.5,0,6.4,0.1,14.6
				c0.1,0.7,0.1,1.1,0.1,1.2c0,0.7-1.2,1.2-3.7,1.2c-0.6,0-1-0.5-1.2-1.5l-0.2-31.4c0-1.5,0.9-2.9,2.8-4.2
				C1274,548.6,1277.2,547.8,1280.6,547.6z M1272.5,557.5c0.2,5.3,0.3,8.1,0.3,8.3l9.6,0.1l0.2-7c0-4.3-0.9-6.5-2.6-6.4
				c-0.4-0.1-0.8-0.1-1.1-0.1c-1.9,0.1-3.8,0.7-5.7,1.9C1272.8,554.9,1272.5,556,1272.5,557.5z"/>
			<path class="st21" d="M1298.8,546.3c3-0.1,5.5,1.3,7.6,4.2c1,2.2,1.4,4.5,1.4,6.9c0,4.2-1.4,7.6-4.3,10
				c2.3,6.1,4.5,11.4,6.7,15.7v0.2c0,0.8-1.2,1.6-3.7,2.4c-0.5,0-1.4-1.7-2.7-5.2c-3-7.1-4.6-10.8-4.8-11.1l-0.1,0
				c0,0-0.5,0.1-1.5,0.2l1,16.6c-0.5,0.4-1.2,0.6-2.1,0.6l-0.2,0c-1.4,0-2.1-0.4-2.1-1.3c-0.7-11.5-1.3-23.8-1.7-36.8
				c0-1.3,0.4-2,1.1-2.1C1295.6,546.5,1297.3,546.3,1298.8,546.3z M1296.8,551.2c-0.1,1.4-0.1,2.2-0.1,2.6c0,4.2,0.1,7.9,0.4,11.1
				l1.1,0c2.4-0.1,4-1.6,4.9-4.7c0.2-0.9,0.3-1.8,0.3-2.7v-0.3c0-4.1-2-6.1-6.1-6L1296.8,551.2z"/>
			<path class="st21" d="M1321.1,546.8c4-0.1,6.6,1.7,7.9,5.5c1.1,4.4,1.7,9.2,1.7,14.3c0,8.8-1.2,14.5-3.5,17
				c-2.4,1.5-5.5,2.3-9.5,2.5c-1.9,0.1-2.9-0.5-2.9-1.6v-0.1c0-8.6,0-20.1-0.1-34.4c0-1.1,0.6-1.9,1.7-2.4
				C1317.8,547.1,1319.3,546.9,1321.1,546.8z M1318.7,551.9c0.3,9.8,0.4,15.3,0.4,16.5c-0.1,6.6-0.1,10.9-0.1,12.9
				c3.7-0.6,5.5-1.3,5.5-2.2c1.1-0.9,1.8-5.1,2-12.6v-0.7c0-9.4-1.3-14-4-13.9c-0.1-0.2-0.8-0.3-2.1-0.4L1318.7,551.9z"/>
		</g>
		<g class="st20">
			<path class="st21" d="M1154,608c4.8,0.6,9.4,0.9,13.7,1c0.3,0.3,0.4,0.8,0.4,1.7c-0.1,1.4-0.3,2.1-0.6,2.1h-1.1
				c-0.9,0-4.2-0.2-10-0.7c0.1,6.3,0.1,10.4,0.2,12.3l10.4,0.2l0.2,0.3v0.9c-0.1,1.8-0.6,2.6-1.3,2.6h-0.1c-1,0-4,0-9-0.1
				c0.1,2.8,0.2,7.2,0.2,13.1c0,1.3,0.1,2.6,0.2,4.1c-0.5,0.4-1.1,0.7-1.9,0.7h-0.7c-0.9,0-1.4-0.4-1.4-1.1
				c-0.2,0-0.4-11.6-0.7-34.8v-1.1C1152.5,608.4,1153,608,1154,608z"/>
			<path class="st21" d="M1178.8,614.1c2.9,0,4.9,2.3,5.9,7c0.4,3.2,0.7,6.3,0.7,9.3c-0.3,7.3-0.6,11-0.9,11c-0.2,1.1-0.9,2.3-2,3.6
				c-1.3,1.1-2.9,1.7-4.8,1.7c-2.5,0-4.2-3.1-5.1-9.2c-0.3-2.6-0.5-5.1-0.5-7.6v-2.2c0-6.8,1.2-11,3.5-12.7
				C1176.4,614.6,1177.5,614.3,1178.8,614.1z M1175.8,629.4c0.3,8.8,1.1,13.1,2.5,13.1c1.8,0,2.9-3.5,3.2-10.4v-4.2
				c0-3.5-0.6-6.4-1.7-8.5c-0.4-0.4-0.8-0.7-1.4-0.7c-1,0-1.8,2.5-2.3,7.6C1176.1,626.3,1175.9,627.3,1175.8,629.4z"/>
			<path class="st21" d="M1194.7,613.2c2.5,0,4.7,1.3,6.4,3.8c0.8,1.8,1.2,3.8,1.2,5.8c0,3.5-1.2,6.3-3.7,8.3
				c1.9,5.2,3.8,9.6,5.6,13.3v0.2c0,0.7-1,1.3-3.1,1.9c-0.4,0-1.2-1.5-2.3-4.4c-2.5-6-3.8-9.1-4-9.4h-0.1c0,0-0.4,0-1.2,0.1
				l0.8,13.9c-0.4,0.3-1,0.5-1.8,0.5h-0.2c-1.2,0-1.8-0.4-1.8-1.1c-0.6-9.7-1.1-19.9-1.4-30.8c0-1.1,0.3-1.7,0.9-1.7
				C1191.9,613.3,1193.4,613.2,1194.7,613.2z M1193,617.2c-0.1,1.1-0.1,1.9-0.1,2.2c0,3.5,0.1,6.6,0.4,9.3h0.9c2,0,3.4-1.3,4.1-3.8
				c0.2-0.7,0.3-1.5,0.3-2.3v-0.3c0-3.4-1.7-5.2-5.2-5.2H1193z"/>
		</g>
		<g class="st20">
			<path class="st21" d="M989.9,654.4c4.4,0.2,7.4,1.9,8.9,5.3c0.7,2.1,1,3.9,1,5.3c0,3.9-1.4,7-4.3,9.3c2,1.2,3.5,3.4,4.4,6.5
				c0.5,1.8,0.8,4.8,0.8,9c0,4.1-1.9,6.8-5.7,8.1c-2.2,0.7-4.6,1-7.3,0.9l-2.9-0.1c-1.7-0.1-2.6-0.3-2.6-0.7v-0.9
				c-0.1-11.3-0.2-17.6-0.2-18.9v-2.4c0.4-13.7,0.8-20.5,1.1-20.5C984.1,654.5,986.4,654.2,989.9,654.4z M986.4,677.8
				c-0.1,2.6-0.1,4.2-0.1,4.9c0,3.6,0.1,7.5,0.3,11.6l0.8,0.1l1.2,0c4,0.2,6.4-1,7.3-3.5c0.1-0.8,0.2-1.7,0.2-2.8v-0.4
				c0-5.2-1.2-8.5-3.6-9.8c-0.3-0.2-0.7-0.3-1.2-0.3l-0.8,0C989.3,677.6,987.9,677.6,986.4,677.8z M987.1,659.3l-0.4,9.4v3.6l0.1,0
				c4.3,0.2,7.1-1.4,8.3-4.7c0.2-0.8,0.3-1.5,0.3-2v-0.7c0-2.4-0.6-4-1.7-4.7c-1.1-0.5-2.2-0.8-3.3-0.8L987.1,659.3z"/>
			<path class="st21" d="M1010.5,662.5c1.2,0,4,0.2,8.5,0.5c1.7,0.1,2.6,0.6,2.6,1.7v1.5c0,1.3-0.4,1.9-1.2,1.9l-2.1-0.1
				c-1.3-0.1-3.1,0-5.4,0.1v0.8c0,1.7,0,4.2-0.1,7.5l7.4-0.3c0.8,0,1.2,0.9,1.2,2.7v0.7c0,1-0.6,1.4-1.7,1.4c-0.6,0.1-3,0.1-7.2,0.3
				l0.2,14.3c1.6,0.1,4.6,0,9.1-0.1c0.7,0,1.1,0.6,1.1,1.8v0.4c0,1.8-0.6,2.7-1.9,2.6l-10.6,0.4l-0.2,0c-1.6-0.1-2.5-0.5-2.5-1.3
				c-0.3-5.5-0.4-11.3-0.4-17.5v-1.9c0.2-11.2,0.7-16.8,1.5-16.8C1009.2,662.6,1009.8,662.4,1010.5,662.5z"/>
			<path class="st21" d="M1030.2,665.2l1.5,0.1c1.3,0.1,2,1.5,2,4.3c0.1,0.9,0.1,2.3,0.1,4v2.2c0,3.3-0.1,10.9-0.4,22.8
				c0,1.1-0.9,1.8-2.8,1.9c-1.4-0.1-2.2-0.4-2.4-1.1c0-5.2,0.2-13.1,0.6-23.8c-0.1-4.9-0.3-8-0.4-9.4
				C1028.3,665.5,1028.9,665.2,1030.2,665.2z"/>
			<path class="st21" d="M1042.3,662.8l1.1,0c1.1,0,1.9,0.6,2.4,1.7c0.3,0.7,0.8,2.9,1.5,6.7c1.4,3.9,3.2,7.9,5.4,12.1
				c1.1,1.9,2.2,4.3,3.5,7.2c-0.3-3.3-0.4-7.8-0.4-13.4c0-3.6,0.1-7.8,0.2-12.4c0-1,0.6-1.4,1.8-1.4l0.8,0c1.6,0.1,2.5,0.4,2.7,0.9
				c-0.4,4.8-0.6,8.3-0.6,10.8c0,4.8,0.2,13.4,0.7,25.6c-0.5,1-1.3,1.5-2.6,1.5c0,0.1-0.4,0.2-1.3,0.2l-0.1,0c-1,0-1.8-1-2.4-3
				c-2.5-5.5-4.9-10.3-7.2-14.4l-2.4-5.2l0.4,10.1l0.5,11.1c0,1-0.8,1.4-2.5,1.4c-1.7-0.1-2.6-0.6-2.6-1.6v-0.6l-0.7-29
				c-0.1-3.2-0.1-5.7-0.1-7.5C1040.6,663.1,1041.3,662.8,1042.3,662.8z"/>
			<path class="st21" d="M1073.7,664.4l2.1,0.1c3.4,0.1,5.7,1.1,7,3c0.2,0.7,0.3,1.3,0.3,1.9v6.5c0,1.1-0.7,1.7-2.2,1.6l-0.3,0
				c-1.6-0.1-2.4-0.7-2.4-1.8c0.1-3.4,0.1-5.4,0.1-5.9c-1.3-0.4-2.3-0.7-2.9-0.7c-2-0.1-3.2,1.1-3.6,3.7c-0.2,1.7-0.3,4-0.3,6.8
				v15.5c0,1.9,1,3.1,3,3.6c0.4,0,0.7,0.1,1,0.2c0.8,0,1.9-0.2,3.5-0.4l0.3-7.4c-2.1,0.1-3.3,0.1-3.8,0.1c-0.2-0.4-0.3-0.9-0.3-1.5
				v-0.7c0-1.9,0.7-2.9,2-2.8c0-0.1,0.6-0.2,1.7-0.2l0.4,0c2.7,0.1,4.1,0.5,4.3,1.3v4.8c0,7.3-0.7,11-2.1,10.9
				c-0.7,0.3-2.7,0.4-6.1,0.4c-3.8-0.2-6.4-1.3-7.6-3.3c-0.4,0-0.7-4.3-0.9-12.9c0-11.7,0.9-18.8,2.8-21.2
				C1070.4,665.2,1071.7,664.7,1073.7,664.4z"/>
		</g>
		<g class="st20">
			<path class="st21" d="M1339.4,666.8l1.2-0.1c1.1-0.1,1.7,1,1.7,3.4c0.1,0.7,0.1,1.9,0.1,3.4v1.9c0,2.8-0.1,9.1-0.4,19.1
				c0,0.9-0.8,1.6-2.3,1.9c-1.1,0.1-1.8-0.1-2-0.6c0-4.3,0.2-11,0.5-19.9c-0.1-4-0.3-6.7-0.4-7.8
				C1337.8,667.3,1338.3,666.9,1339.4,666.8z"/>
			<path class="st21" d="M1349.5,663.3l0.9-0.1c1-0.1,1.6,0.3,2,1.1c0.3,0.5,0.7,2.3,1.2,5.4c1.2,3.1,2.7,6.2,4.5,9.4
				c0.9,1.5,1.9,3.3,2.9,5.6c-0.3-2.7-0.4-6.4-0.4-11.1c0-3,0.1-6.5,0.2-10.4c0-0.8,0.5-1.3,1.5-1.4l0.7-0.1c1.3-0.1,2.1,0,2.3,0.4
				c-0.3,4-0.5,7-0.5,9c0,4,0.2,11.2,0.6,21.3c-0.4,0.9-1.1,1.4-2.2,1.5c0,0.1-0.4,0.2-1.1,0.3l-0.1,0c-0.8,0.1-1.5-0.7-2-2.2
				c-2.1-4.3-4.1-8-6-11.2l-2-4l0.4,8.4l0.4,9.2c0,0.8-0.7,1.3-2.1,1.4c-1.4,0.2-2.2-0.2-2.2-1v-0.5l-0.6-24.1
				c-0.1-2.7-0.1-4.8-0.1-6.3C1348.1,663.7,1348.6,663.4,1349.5,663.3z"/>
		</g>
		<g class="st20">
			<path class="st21" d="M1118,661.9l0.7,0c3.4-0.1,5.6,1.1,6.6,3.6c0.2,0.9,0.4,1.7,0.4,2.6c0,4-0.8,6-2.5,6
				c-0.5,0.1-1,0.1-1.6,0.1c-0.7,0-1-0.2-1-0.5c0-1.3,0.1-3.1,0.2-5.5c0-1-1-1.6-3-1.5c-4.4,0.1-7.1,1-8.1,2.8
				c-1,3.2-1.6,7.2-1.6,11.9v8.8c0,5.9,0.9,9.5,2.6,10.7c3,1.2,5.6,1.7,7.7,1.7l0.6,0c1-0.1,1.6-0.6,1.6-1.4v-1.9
				c0-0.5-0.1-2.6-0.3-6.3c0-0.4,1-0.8,3.1-1.3l0.6,0c0.7,0,1.1,1.2,1.1,3.7c0.2,2.8,0.3,4.5,0.3,4.9c0,3.1-1.2,5.3-3.6,6.3
				c-1,0.3-1.9,0.5-2.8,0.5l-1.5,0c-4.1,0.1-7.7-1.1-11-3.5c-2.2-2.4-3.3-8.3-3.3-17.8c0-11.7,1.3-18.7,4-21.1
				C1110.3,662.9,1113.8,662,1118,661.9z"/>
			<path class="st21" d="M1139,668.4c3.5-0.1,5.9,2.7,7.1,8.3c0.5,3.9,0.8,7.6,0.8,11.1c-0.3,8.8-0.7,13.1-1.1,13.2
				c-0.2,1.3-1,2.7-2.4,4.3c-1.6,1.4-3.5,2.1-5.7,2.1c-3.1,0-5.1-3.6-6.1-10.9c-0.4-3.1-0.6-6.1-0.6-9.1v-2.6
				c0-8.2,1.4-13.3,4.2-15.2C1136.2,669.1,1137.4,668.7,1139,668.4z M1135.4,686.8c0.4,10.5,1.4,15.7,3,15.7c2.2,0,3.4-4.2,3.8-12.5
				v-5.1c0-4.2-0.7-7.6-2-10.2c-0.4-0.5-1-0.8-1.7-0.8c-1.2,0-2.1,3.1-2.7,9.1C1135.7,683.1,1135.6,684.3,1135.4,686.8z"/>
			<path class="st21" d="M1154.2,667.6l1.1,0c1.1,0,1.9,0.5,2.4,1.5c0.3,0.7,0.8,2.9,1.5,6.6c1.4,3.8,3.2,7.8,5.4,11.8
				c1.1,1.8,2.2,4.2,3.5,7c-0.3-3.3-0.4-7.7-0.4-13.3c0-3.6,0.1-7.8,0.2-12.4c0-1,0.6-1.5,1.8-1.5l0.8,0c1.6,0,2.5,0.2,2.7,0.7
				c-0.4,4.8-0.6,8.4-0.6,10.8c0,4.8,0.2,13.4,0.7,25.6c-0.5,1.1-1.3,1.6-2.6,1.6c0,0.1-0.4,0.2-1.3,0.2l-0.1,0
				c-1,0-1.8-0.9-2.4-2.9c-2.5-5.4-4.9-10-7.2-14l-2.4-5l0.4,10.1l0.5,11c0,1-0.8,1.5-2.5,1.5c-1.7,0-2.6-0.4-2.6-1.4V705l-0.7-29
				c-0.1-3.2-0.1-5.7-0.1-7.5C1152.5,668,1153.1,667.6,1154.2,667.6z"/>
			<path class="st21" d="M1181.8,667c0.7,0,1.3,2.4,1.9,7.4c0.7,3.6,1.8,10.7,3.5,21.3l0.1,0l4.6-28.3c0.3-0.3,0.6-0.5,0.9-0.5
				l0.2,0c2.1,0.2,3.3,0.5,3.5,1.1v0.7c-2.5,14.8-4.6,26.1-6.4,34.1c-0.4,1.4-1.1,2-2,2.1l-1.8,0c-1.8,0-3-4-3.8-12.1
				c-1.6-7.3-3.2-15.5-4.9-24.5C1177.6,667.4,1179,667,1181.8,667z"/>
			<path class="st21" d="M1203.6,669.7l1.5,0c1.3,0,2,1.4,2,4.2c0.1,0.9,0.1,2.2,0.1,4v2.2c0,3.3-0.2,10.9-0.4,22.8
				c0,1.1-0.9,1.8-2.8,2.1c-1.4,0-2.2-0.3-2.4-1c0-5.2,0.2-13.1,0.6-23.8c-0.1-4.9-0.3-8-0.4-9.4
				C1201.7,670.1,1202.4,669.8,1203.6,669.7z"/>
			<path class="st21" d="M1215.8,666.6l1.1,0c1.1,0,1.9,0.5,2.4,1.5c0.3,0.6,0.8,2.8,1.5,6.6c1.4,3.8,3.2,7.8,5.4,11.8
				c1.1,1.8,2.2,4.2,3.5,7c-0.3-3.3-0.4-7.7-0.4-13.3c0-3.6,0.1-7.8,0.2-12.4c0-1,0.6-1.5,1.8-1.5l0.8,0c1.6,0,2.5,0.2,2.7,0.7
				c-0.4,4.8-0.6,8.4-0.6,10.8c0,4.8,0.2,13.4,0.7,25.6c-0.5,1.1-1.3,1.6-2.6,1.6c0,0.1-0.4,0.2-1.3,0.2l-0.1,0
				c-1,0-1.8-0.9-2.4-2.9c-2.5-5.4-4.9-10-7.2-14l-2.4-5l0.4,10.1l0.5,11c0,1-0.8,1.5-2.5,1.5c-1.7,0-2.6-0.4-2.6-1.4v-0.6l-0.7-29
				c-0.1-3.2-0.1-5.7-0.1-7.5C1214.1,667,1214.7,666.7,1215.8,666.6z"/>
			<path class="st21" d="M1247.5,667.1l3.4-0.1c1.4,0,2.3,1.2,2.8,3.5c0.3,1,0.4,3.6,0.4,7.6c0,0.8-0.9,1.2-2.6,1.4l-0.8,0
				c-0.8,0-1.2-1.1-1.2-3.3c-0.1-2.9-0.2-4.4-0.4-4.4l-1.7,0c-2,0-3,1.5-3,4.5v3.5c0,4.3-0.1,10.3-0.3,18.1c0,2,1.6,3.1,4.9,3.3
				c0.8-0.4,1.2-2.2,1.2-5.4v-0.7c0-0.5,0.3-0.7,0.9-0.8c2.2,0.2,3.3,0.9,3.3,2.3c0.1,0.7,0.1,1.4,0.1,2.1c0,3.6-1.2,5.9-3.5,7
				c-0.8,0.3-1.7,0.4-2.6,0.5c-1.8,0-3.8-0.5-6.1-1.5c-1.6-1.1-2.4-2.6-2.4-4.5c-0.1-8.3-0.1-14-0.1-16.8c0-8.2,0.8-13.2,2.5-15
				C1243.1,667.6,1244.9,667.2,1247.5,667.1z"/>
			<path class="st21" d="M1260.8,668.8l1.5,0c1.3,0,2,1.4,2,4.2c0.1,0.9,0.1,2.2,0.1,4v2.2c0,3.3-0.2,10.9-0.4,22.8
				c0,1.1-0.9,1.8-2.8,2.1c-1.4,0-2.2-0.3-2.4-1c0-5.2,0.2-13.1,0.6-23.8c-0.1-4.9-0.3-8-0.4-9.4
				C1258.9,669.2,1259.6,668.8,1260.8,668.8z"/>
			<path class="st21" d="M1273,665.7l1.1,0c1.1,0,1.9,0.5,2.4,1.5c0.3,0.7,0.8,2.9,1.5,6.6c1.4,3.8,3.2,7.8,5.4,11.8
				c1.1,1.8,2.2,4.2,3.5,7c-0.3-3.3-0.4-7.7-0.4-13.3c0-3.6,0.1-7.8,0.2-12.4c0-1,0.6-1.5,1.8-1.5l0.8,0c1.6,0,2.5,0.2,2.7,0.7
				c-0.4,4.8-0.6,8.4-0.6,10.8c0,4.8,0.2,13.4,0.7,25.6c-0.5,1.1-1.3,1.6-2.6,1.6c0,0.1-0.4,0.2-1.3,0.2l-0.1,0
				c-1,0-1.8-0.9-2.4-2.9c-2.5-5.4-4.9-10-7.2-14l-2.4-5l0.4,10.1l0.5,11c0,1-0.8,1.5-2.5,1.5c-1.7,0-2.6-0.4-2.6-1.4v-0.6l-0.7-29
				c-0.1-3.2-0.1-5.7-0.1-7.5C1271.3,666.1,1271.9,665.7,1273,665.7z"/>
			<path class="st21" d="M1304.3,665.5l2.1,0c3.4-0.1,5.7,0.8,7,2.6c0.2,0.7,0.3,1.3,0.3,1.9v6.5c0,1.1-0.7,1.7-2.2,1.7l-0.3,0
				c-1.6,0-2.4-0.5-2.4-1.6c0.1-3.4,0.1-5.4,0.1-6c-1.3-0.4-2.3-0.5-2.9-0.5c-2,0-3.2,1.3-3.6,3.9c-0.2,1.7-0.3,4-0.3,6.9v15.5
				c0,1.9,1,3.1,3,3.4c0.4,0,0.7,0,1,0.1c0.8-0.1,1.9-0.3,3.5-0.6l0.3-7.4c-2.1,0.2-3.3,0.3-3.8,0.3c-0.2-0.4-0.3-0.9-0.3-1.5V690
				c0-1.9,0.7-2.9,2-3c0-0.1,0.6-0.2,1.7-0.3l0.4,0c2.7,0,4.1,0.3,4.3,1.1v4.8c0,7.3-0.7,11-2.1,11c-0.7,0.3-2.7,0.6-6.1,0.8
				c-3.8,0.1-6.4-0.9-7.6-2.9c-0.4,0-0.7-4.3-0.9-12.9c0-11.7,0.9-18.8,2.8-21.4C1301,666.5,1302.4,665.9,1304.3,665.5z"/>
		</g>
		<g class="st20">
			<path class="st21" d="M938.6,717.7l0.6,0c3.6,0.2,5.8,1.2,6.7,2.8c0.3,0,0.4,2.3,0.4,7v4.6c0,1.1-0.7,1.6-2,1.7l-1.5-0.1
				c-0.7,0-1.1-0.3-1.2-0.8c0.2-5.7,0.3-9,0.3-10c-1.7-0.3-2.9-0.5-3.6-0.6c-3.5-0.2-5.8,0.3-6.9,1.5c-2.1,5.7-3.1,12.3-3.1,19.9
				c0,6.8,1,11.1,3.1,12.8c0.4,0.6,2.7,1.1,6.7,1.6c0.8,0,1.6,0,2.2,0l0.2-11c-4.2-0.8-6.3-1.3-6.3-1.5l-0.1-0.6v-1.3
				c0.1-1.4,0.4-2.1,1-2.1c6.6,0.8,9.8,1.4,9.8,1.8l0.2,0.8v4.4c0,0.9,0,1.6-0.1,2.4c0.2,4.1,0.3,6.8,0.3,7.9v0.7
				c0,2.5-1.3,3.6-4,3.4c-1.2-0.1-2.3-0.1-3.3,0c-4.4-0.3-8-1.6-10.7-4c-2.4-2.6-3.5-7.3-3.5-14.3V742c0-9.5,1.4-16.8,4.3-21.9
				C930.3,718.2,933.8,717.4,938.6,717.7z"/>
			<path class="st21" d="M955.5,726.1c1.2,0.1,4,0.3,8.4,0.7c1.7,0.1,2.5,0.7,2.5,1.7v1.5c0,1.3-0.4,1.9-1.2,1.8l-2.1-0.1
				c-1.3-0.1-3.1-0.1-5.3,0v0.8c0,1.7,0,4.2-0.1,7.5l7.3-0.1c0.8,0.1,1.2,1,1.2,2.8v0.7c0,1-0.6,1.4-1.7,1.4c-0.6,0-2.9,0.1-7.1,0.1
				l0.2,14.3c1.6,0.1,4.6,0.2,9,0.1c0.7,0,1.1,0.7,1.1,1.9v0.4c0,1.8-0.6,2.7-1.9,2.6l-10.4,0.1l-0.2,0c-1.6-0.1-2.4-0.6-2.4-1.4
				c-0.3-5.5-0.4-11.3-0.4-17.5v-1.9c0.2-11.2,0.7-16.8,1.4-16.7C954.3,726.3,954.8,726.1,955.5,726.1z"/>
			<path class="st21" d="M991.2,727.8c0.6,0,1,0.5,1.1,1.5v1.9c-0.1,0.8-0.5,1.2-1.2,1.2l-6.7-0.1c-0.3,5.2-0.4,9.4-0.4,12.6
				c0,2,0,3.7,0.1,5.1c0.1,1.5,0.1,3.2,0.1,5.3c0,3-0.1,6.5-0.3,10.6c0,0.3-0.8,0.4-2.4,0.3l-1.2-0.1c-0.9-0.1-1.4-0.2-1.5-0.4
				c-0.1-0.1-0.1-0.2-0.1-0.3c0-0.1,0-0.1,0-0.1c0.2-3.2,0.3-6.3,0.3-9.3c0-2.2-0.1-4.4-0.2-6.6c-0.1-1.9-0.1-3.8-0.1-5.8
				c0-3.3,0.2-7.1,0.5-11.4l-6.4,0.1c-0.7,0-1.1-0.5-1.1-1.5v-2.1c0-0.9,0.3-1.3,0.9-1.4c6-0.1,11.2,0.1,15.8,0.4
				C989.4,727.7,990.3,727.8,991.2,727.8z"/>
			<path class="st21" d="M1014.7,729.4c0.6,0,1,0.5,1.1,1.5v1.9c-0.1,0.8-0.5,1.2-1.2,1.2l-6.7-0.1c-0.3,5.2-0.4,9.4-0.4,12.6
				c0,2,0,3.7,0.1,5.1c0.1,1.5,0.1,3.2,0.1,5.3c0,3-0.1,6.5-0.3,10.6c0,0.3-0.8,0.4-2.4,0.3l-1.2-0.1c-0.9-0.1-1.4-0.2-1.5-0.4
				c-0.1-0.1-0.1-0.2-0.1-0.3c0-0.1,0-0.1,0-0.1c0.2-3.2,0.3-6.3,0.3-9.3c0-2.2-0.1-4.4-0.2-6.6c-0.1-1.9-0.1-3.8-0.1-5.8
				c0-3.3,0.2-7.1,0.5-11.4l-6.4,0.1c-0.7,0-1.1-0.5-1.1-1.5v-2.1c0-0.9,0.3-1.3,0.9-1.4c6-0.1,11.2,0.1,15.8,0.4
				C1012.9,729.2,1013.8,729.3,1014.7,729.4z"/>
			<path class="st21" d="M1021.8,732.5l1.4,0.1c1.3,0.1,2,1.6,2,4.4c0.1,0.9,0.1,2.3,0.1,4v2.2c0,3.3-0.1,10.9-0.4,22.8
				c0,1.1-0.9,1.7-2.8,1.8c-1.3-0.1-2.1-0.5-2.3-1.2c0-5.2,0.2-13.1,0.6-23.8c-0.1-4.9-0.3-8-0.4-9.5
				C1019.9,732.7,1020.5,732.4,1021.8,732.5z"/>
			<path class="st21" d="M1033.7,730.4l1.1,0.1c1.1,0.1,1.9,0.7,2.4,1.7c0.3,0.7,0.8,2.9,1.4,6.7c1.4,3.9,3.2,8,5.4,12.3
				c1.1,1.9,2.2,4.4,3.5,7.3c-0.3-3.3-0.4-7.8-0.4-13.4c0-3.6,0.1-7.8,0.2-12.4c0-1,0.6-1.4,1.8-1.3l0.8,0.1c1.6,0.1,2.5,0.4,2.7,1
				c-0.4,4.7-0.6,8.3-0.6,10.7c0,4.8,0.2,13.4,0.7,25.6c-0.5,1-1.3,1.5-2.5,1.4c0,0.1-0.4,0.2-1.3,0.1l-0.1,0
				c-1-0.1-1.7-1.1-2.3-3.1c-2.5-5.6-4.8-10.4-7.1-14.6l-2.4-5.2l0.4,10.1l0.5,11.1c0,1-0.8,1.4-2.5,1.3c-1.7-0.1-2.5-0.7-2.5-1.6
				v-0.6l-0.7-29c-0.1-3.2-0.1-5.7-0.1-7.5C1032.1,730.6,1032.7,730.3,1033.7,730.4z"/>
			<path class="st21" d="M1064.6,732.7l2.1,0.1c3.4,0.2,5.7,1.3,6.9,3.1c0.2,0.7,0.3,1.4,0.3,1.9v6.5c0,1.1-0.7,1.6-2.2,1.5l-0.3,0
				c-1.5-0.1-2.3-0.7-2.3-1.8c0.1-3.4,0.1-5.4,0.1-5.9c-1.3-0.5-2.3-0.7-2.9-0.8c-2-0.1-3.2,1.1-3.5,3.6c-0.2,1.7-0.3,3.9-0.3,6.8
				v15.5c0,1.9,1,3.2,3,3.7c0.4,0,0.7,0.1,1,0.2c0.8,0,1.9-0.1,3.4-0.3l0.3-7.4c-2,0-3.3,0-3.8,0c-0.2-0.4-0.3-0.9-0.3-1.5v-0.7
				c0-1.9,0.7-2.9,2-2.8c0-0.1,0.6-0.2,1.7-0.1l0.4,0c2.6,0.2,4,0.6,4.2,1.4v4.8c0,7.3-0.7,11-2.1,10.9c-0.7,0.3-2.7,0.3-6,0.3
				c-3.8-0.3-6.3-1.4-7.5-3.5c-0.4,0-0.7-4.3-0.9-13c0-11.7,0.9-18.7,2.8-21.2C1061.4,733.5,1062.7,733,1064.6,732.7z"/>
		</g>
		<g class="st20">
			<path class="st21" d="M1096.2,729.6c1.4,2.1,3,5.6,4.8,10.6c0.5,1.5,0.9,2.5,1,3.3h0.1c2.3-5.1,4.5-9.1,6.6-12.1
				c0.4-0.7,1.1-1.1,2-1.1c1.3,0,2.1,0.9,2.4,2.8c-2.3,3.4-5.2,8.7-8.8,15.9c0.3,7.1,0.4,13.5,0.4,19.2v0.8c0,3.6-0.8,5.4-2.4,5.4
				h-0.9c-1.1,0-1.7-0.1-1.7-0.4c0-1.9,0.1-5.8,0.2-11.7c-0.1-1.7-0.2-5.7-0.3-12c-2.9-8.4-5.2-14.5-6.7-18.3v-0.6
				c0-0.9,0.8-1.4,2.5-1.6L1096.2,729.6z"/>
			<path class="st21" d="M1124.9,736.1c3.5,0,5.9,2.8,7.1,8.4c0.5,3.9,0.8,7.6,0.8,11.1c-0.3,8.8-0.7,13.1-1.1,13.1
				c-0.2,1.3-1,2.7-2.4,4.3c-1.6,1.3-3.5,2-5.7,2c-3,0-5.1-3.7-6.1-11c-0.4-3.1-0.6-6.1-0.6-9.1v-2.6c0-8.2,1.4-13.2,4.2-15.2
				C1122,736.7,1123.3,736.3,1124.9,736.1z M1121.3,754.4c0.4,10.5,1.4,15.7,3,15.7c2.2,0,3.4-4.2,3.8-12.5v-5.1
				c0-4.2-0.7-7.7-2-10.2c-0.4-0.5-1-0.8-1.7-0.8c-1.2,0-2.1,3-2.7,9.1C1121.5,750.7,1121.4,751.9,1121.3,754.4z"/>
			<path class="st21" d="M1140.4,736.4c1.6,0.1,2.5,0.5,2.5,1.1c-0.5,7.9-0.8,12.9-0.8,15.3c0,8.7,0.4,13.7,1.2,15.2
				c0.4,0.6,1,0.9,1.6,0.9h0.1c2.2,0,3.3-1.2,3.3-3.6c0.3-2.8,0.4-6.1,0.4-9.8v-6.8c0-2.6-0.1-6-0.2-10.2c0-0.6,0.8-0.9,2.5-1h1.3
				c0.9,0,1.4,1.4,1.6,4.3c0.1,1.8,0.1,3.2,0.1,4.3v8.5c0,9.9-1.1,16.1-3.4,18.5c-1,0.8-3.2,1.2-6.4,1.2c-3,0-4.8-1.1-5.6-3.4
				c-0.7-2.2-1.1-7-1.1-14.4c-0.1-2.8-0.1-7-0.1-12.7c0.2-4.6,0.6-6.8,1-6.8C1139,736.6,1139.7,736.4,1140.4,736.4z"/>
			<path class="st21" d="M1164.5,735c3,0,5.6,1.5,7.6,4.5c1,2.2,1.5,4.5,1.5,7c0,4.2-1.5,7.5-4.4,9.9c2.3,6.2,4.5,11.5,6.7,15.9v0.2
				c0,0.8-1.2,1.6-3.7,2.2c-0.5,0-1.4-1.8-2.7-5.3c-3-7.2-4.6-10.9-4.8-11.2h-0.1c0,0-0.5,0-1.5,0.1l1,16.6
				c-0.5,0.4-1.2,0.6-2.1,0.6h-0.2c-1.4,0-2.1-0.4-2.1-1.3c-0.7-11.6-1.3-23.8-1.7-36.8c0-1.3,0.4-2,1.1-2
				C1161.3,735.1,1163,735,1164.5,735z M1162.5,739.8c-0.1,1.4-0.1,2.2-0.1,2.6c0,4.2,0.1,7.9,0.4,11.1h1.1c2.4,0,4.1-1.5,4.9-4.5
				c0.2-0.9,0.3-1.8,0.3-2.7V746c0-4.1-2.1-6.2-6.2-6.2H1162.5z"/>
		</g>
		<g class="st20">
			<path class="st21" d="M1203.2,728.8l0.5,0c3.7-0.1,6.3,1.7,7.7,5.5c0.1,0.9,0.2,1.7,0.2,2.4v2.1c0,2.4-1,3.6-3,3.7
				c-0.9,0-1.5-0.3-1.8-1c0.1-1.9,0.1-3.5,0.1-4.6v-0.3c0-2.1-1.3-3.1-3.9-3c-1.4,0-2.4,1.1-2.8,3.1c-0.1,0.7-0.3,3.1-0.3,7.1
				l-0.1,0.5c0,1.9,0.9,3.1,2.7,3.7c0.6,0.3,2.3,0.5,5.1,0.7c1.7,0.4,2.9,1.2,3.8,2.6c1,2,1.5,4.1,1.5,6.4v1.5
				c0,6.1-1.2,10.1-3.5,12c-2.6,2-5.1,3.1-7.4,3.2l-0.1,0c-3.3,0.1-5.4-1.1-6.4-3.7c-0.2-1-0.3-1.7-0.3-2.2c0-4.3,0.4-6.5,1.2-6.6
				c0-0.2,0.3-0.3,1-0.4l0.8,0c0.7,0,1.2,0.2,1.6,0.7c0,0.8-0.1,2.4-0.2,4.8c0.4,1.8,1.2,2.7,2.5,2.6c2.2-0.1,4-1.2,5.3-3.4
				c0.5-1.3,0.8-3.7,0.8-7.2v-0.4c0-2.4-0.9-3.9-2.6-4.5c-0.5-0.2-2.2-0.5-5.1-0.9c-2.5-0.9-3.7-1.8-3.7-2.7
				c-0.9-0.9-1.3-3.6-1.3-7.8v-3C1195.3,732.5,1197.9,729,1203.2,728.8z"/>
			<path class="st21" d="M1233.4,734.5c1.3,0,2.1,0.3,2.4,1.2l-0.5,15.2c0,3.7,0.4,10.5,1.1,20.4c-0.6,0.8-1.5,1.2-2.8,1.2l-0.4,0
				c-1.4,0-2.1-0.6-2.1-2.1c-0.4-3.1-0.7-8.2-1-15.1l-6.4,0.6v1.9c0,7.8,0.1,12.7,0.3,14.7c-0.4,1.2-1.6,1.8-3.6,1.9
				c-0.9,0-1.5-0.2-1.8-0.7c-0.2-8.8-0.3-20.7-0.3-35.7c0-1.7,0.4-2.6,1.1-2.6l1.6-0.2c1.8,0.1,2.7,0.4,2.7,1
				c-0.1,4.9-0.1,8.6-0.1,11.1v3.4l6.6-0.5c0.3-8.8,0.6-13.8,0.8-14.8c0.3-0.5,1.1-0.8,2.2-0.9L1233.4,734.5z"/>
			<path class="st21" d="M1243.7,736.3l1.5,0c1.3,0,2,1.4,2,4.2c0.1,0.9,0.1,2.2,0.1,4v2.2c0,3.3-0.2,10.9-0.4,22.8
				c0,1.1-0.9,1.8-2.8,2.1c-1.4,0-2.2-0.3-2.4-0.9c0-5.2,0.2-13.1,0.6-23.8c-0.1-4.9-0.3-8-0.4-9.4
				C1241.8,736.8,1242.5,736.4,1243.7,736.3z"/>
			<path class="st21" d="M1272.6,732.8c0.7,0,1,0.4,1.1,1.4v1.9c-0.1,0.8-0.5,1.3-1.2,1.3l-6.8,0.5c-0.3,5.2-0.4,9.5-0.4,12.6
				c0,2,0,3.7,0.1,5.1c0.1,1.5,0.1,3.2,0.1,5.2c0,3-0.1,6.5-0.3,10.6c0,0.3-0.8,0.5-2.4,0.6l-1.2,0c-0.9,0-1.4-0.1-1.5-0.3
				c-0.1-0.1-0.1-0.2-0.1-0.3c0-0.1,0-0.1,0-0.1c0.2-3.2,0.3-6.3,0.3-9.3c0-2.2-0.1-4.4-0.2-6.6c-0.1-1.9-0.1-3.8-0.1-5.8
				c0-3.3,0.2-7.1,0.5-11.4l-6.5,0.7c-0.7,0-1.1-0.4-1.1-1.4v-2.1c0-0.9,0.3-1.4,1-1.5c6-0.6,11.4-1,16-1.2
				C1270.8,732.8,1271.8,732.8,1272.6,732.8z"/>
		</g>
		<g class="st20">
			<path class="st21" d="M1304.1,727.4l2.6-0.2c2.7-0.2,4.1,0.2,4.1,1.2v0.8c0,1.4-0.4,2.2-1.3,2.2c-2.1,0.1-4.8,0.4-8,0.7
				c0.2,3.5,0.3,7.8,0.3,12.9v10.3c0,5.2-0.1,10.1-0.2,14.8c-0.3,0.5-0.9,0.8-1.8,0.9l-0.2,0c-1.6-0.1-2.4-0.6-2.4-1.5
				c0-5.1,0-17.5,0.1-36.9l-8.7,0.9c-0.3-0.3-0.4-0.8-0.4-1.3c0-2.1,1.2-3.2,3.6-3.4C1298,727.9,1302.2,727.5,1304.1,727.4z"/>
			<path class="st21" d="M1318.5,732.2c3.5-0.2,5.8,2.5,7,8c0.5,3.8,0.8,7.5,0.8,11.1c-0.3,8.8-0.7,13.2-1.1,13.2
				c-0.2,1.3-1,2.8-2.3,4.4c-1.6,1.4-3.5,2.2-5.7,2.4c-3,0.2-5-3.4-6-10.6c-0.4-3.1-0.6-6.1-0.6-9.1v-2.6c0-8.2,1.4-13.3,4.1-15.4
				C1315.6,733,1316.9,732.5,1318.5,732.2z M1314.9,750.7c0.4,10.5,1.4,15.6,3,15.5c2.1-0.1,3.4-4.4,3.8-12.7v-5.1
				c0-4.2-0.7-7.6-2-10.1c-0.4-0.5-1-0.7-1.7-0.7c-1.2,0.1-2.1,3.2-2.7,9.3C1315.2,747,1315,748.2,1314.9,750.7z"/>
			<path class="st21" d="M1338.4,730.7l2.1-0.1c3.4-0.2,5.7,0.6,6.9,2.3c0.2,0.7,0.3,1.3,0.3,1.9v6.5c0,1.1-0.7,1.7-2.2,1.8l-0.3,0
				c-1.6,0.1-2.3-0.4-2.3-1.5c0.1-3.4,0.1-5.4,0.1-6c-1.3-0.3-2.3-0.4-2.9-0.4c-2,0.1-3.2,1.5-3.6,4c-0.2,1.7-0.3,4-0.3,6.9v15.5
				c0,1.9,1,3,3,3.3c0.4,0,0.7,0,1,0.1c0.8-0.1,1.9-0.4,3.4-0.8l0.3-7.4c-2,0.3-3.3,0.4-3.8,0.5c-0.2-0.4-0.3-0.8-0.3-1.4v-0.7
				c0-1.9,0.7-3,2-3c0-0.1,0.6-0.2,1.7-0.3l0.4,0c2.6-0.2,4.1,0.1,4.2,0.9v4.8c0,7.3-0.7,11-2.1,11.1c-0.7,0.3-2.7,0.7-6,1
				c-3.8,0.2-6.3-0.6-7.6-2.6c-0.4,0-0.7-4.3-0.9-12.9c0-11.7,0.9-18.9,2.8-21.5C1335.2,731.9,1336.5,731.2,1338.4,730.7z"/>
			<path class="st21" d="M1356.7,730.3c1.2-0.1,4-0.2,8.4-0.4c1.7-0.1,2.6,0.4,2.6,1.4v1.5c0,1.3-0.4,1.9-1.2,2l-2.1,0.1
				c-1.3,0.1-3.1,0.3-5.3,0.7v0.8c0,1.7,0,4.3-0.1,7.5l7.3-1c0.8,0,1.2,0.8,1.2,2.6v0.7c0,1-0.6,1.5-1.7,1.6c-0.6,0.1-2.9,0.4-7.1,1
				l0.2,14.2c1.6-0.1,4.6-0.4,9-1c0.7,0,1.1,0.5,1.1,1.7v0.4c0,1.8-0.6,2.7-1.9,2.8l-10.5,1.4l-0.2,0c-1.6,0.1-2.4-0.3-2.4-1.1
				c-0.3-5.4-0.4-11.3-0.4-17.5v-1.9c0.2-11.2,0.7-16.9,1.4-16.9C1355.5,730.5,1356.1,730.3,1356.7,730.3z"/>
			<path class="st21" d="M1392.7,727.4c0.6,0,1,0.4,1.1,1.3v1.9c-0.1,0.8-0.5,1.3-1.2,1.3l-6.8,0.7c-0.3,5.3-0.4,9.5-0.4,12.7
				c0,2,0,3.7,0.1,5.1c0.1,1.5,0.1,3.2,0.1,5.2c0,3-0.1,6.5-0.3,10.7c0,0.3-0.8,0.5-2.4,0.6l-1.2,0.1c-0.9,0-1.4-0.1-1.5-0.2
				c-0.1-0.1-0.1-0.2-0.1-0.3c0-0.1,0-0.1,0-0.1c0.2-3.2,0.3-6.3,0.3-9.3c0-2.2-0.1-4.4-0.2-6.6c-0.1-1.9-0.1-3.8-0.1-5.8
				c0-3.3,0.2-7.1,0.5-11.5l-6.4,0.9c-0.7,0-1.1-0.4-1.1-1.3v-2.1c0-0.9,0.3-1.4,0.9-1.5c6-0.8,11.3-1.4,15.9-1.6
				C1390.9,727.5,1391.8,727.5,1392.7,727.4z"/>
			<path class="st21" d="M1412.5,726.7c1.3-0.1,2.1,0.3,2.3,1.1l-0.4,15.2c0,3.7,0.4,10.5,1.1,20.4c-0.6,0.8-1.5,1.2-2.8,1.3l-0.4,0
				c-1.4,0.1-2.1-0.6-2.1-2c-0.4-3.1-0.7-8.2-1-15.1l-6.3,0.8v1.9c0,7.8,0.1,12.7,0.3,14.7c-0.4,1.2-1.5,1.9-3.6,2
				c-0.9,0.1-1.5-0.2-1.8-0.7c-0.1-8.7-0.3-20.6-0.3-35.7c0-1.7,0.4-2.6,1.1-2.6l1.6-0.2c1.8,0,2.7,0.3,2.7,1
				c-0.1,4.9-0.1,8.6-0.1,11.1v3.4l6.6-0.7c0.3-8.9,0.6-13.8,0.8-14.9c0.3-0.5,1.1-0.9,2.2-0.9L1412.5,726.7z"/>
			<path class="st21" d="M1423.7,726.2c1.2-0.1,4-0.2,8.4-0.4c1.7-0.1,2.6,0.4,2.6,1.4v1.5c0,1.3-0.4,1.9-1.2,2l-2.1,0.1
				c-1.3,0.1-3.1,0.3-5.3,0.7v0.8c0,1.7,0,4.3-0.1,7.5l7.3-1c0.8,0,1.2,0.8,1.2,2.6v0.7c0,1-0.6,1.5-1.7,1.6c-0.6,0.1-2.9,0.4-7.1,1
				l0.2,14.2c1.6-0.1,4.6-0.4,9-1c0.7,0,1.1,0.5,1.1,1.7v0.4c0,1.8-0.6,2.7-1.9,2.8l-10.5,1.4l-0.2,0c-1.6,0.1-2.4-0.3-2.4-1.1
				c-0.3-5.4-0.4-11.3-0.4-17.5v-1.9c0.2-11.2,0.7-16.9,1.4-16.9C1422.5,726.5,1423.1,726.3,1423.7,726.2z"/>
			<path class="st21" d="M1446.8,723.4c3-0.2,5.5,1.2,7.6,4c1,2.1,1.4,4.4,1.4,6.9c0,4.2-1.4,7.6-4.3,10.1
				c2.3,6.1,4.5,11.3,6.7,15.5v0.2c0,0.8-1.2,1.6-3.7,2.5c-0.5,0-1.4-1.7-2.7-5.1c-3-7-4.6-10.7-4.8-10.9l-0.1,0
				c0,0-0.5,0.1-1.4,0.2l1,16.6c-0.5,0.4-1.2,0.6-2.1,0.7l-0.2,0c-1.4,0.1-2.1-0.3-2.1-1.2c-0.7-11.5-1.3-23.8-1.7-36.7
				c0-1.3,0.4-2,1.1-2.1C1443.6,723.7,1445.4,723.5,1446.8,723.4z M1444.8,728.4c-0.1,1.4-0.1,2.2-0.1,2.6c0,4.2,0.1,7.9,0.4,11.1
				l1.1-0.1c2.4-0.1,4-1.7,4.9-4.8c0.2-0.9,0.3-1.8,0.3-2.7v-0.3c0-4.1-2-6.1-6.1-5.8L1444.8,728.4z"/>
		</g>
	</g>
</g>
</svg>
