<?xml version="1.0" encoding="utf-8"?>
<!-- Generator: Adobe Illustrator 24.0.1, SVG Export Plug-In . SVG Version: 6.00 Build 0)  -->
<svg version="1.1" id="Layer_1" xmlns="http://www.w3.org/2000/svg" xmlns:xlink="http://www.w3.org/1999/xlink" x="0px" y="0px"
	 viewBox="0 0 1189.9 1245.8" style="enable-background:new 0 0 1189.9 1245.8;" xml:space="preserve">
<style type="text/css">
	.st0{fill:#708727;stroke:#000000;stroke-width:1.8471;stroke-linecap:round;stroke-linejoin:round;stroke-miterlimit:10;}
	.st1{fill:none;stroke:#000000;stroke-width:1.8471;stroke-linecap:round;stroke-linejoin:round;stroke-miterlimit:10;}
	.st2{fill:#C1C43B;stroke:#000000;stroke-width:1.8471;stroke-linecap:round;stroke-linejoin:round;stroke-miterlimit:10;}
	.st3{fill:#AA8759;stroke:#000000;stroke-width:1.8471;stroke-linecap:round;stroke-linejoin:round;stroke-miterlimit:10;}
	.st4{fill:#D8C72E;stroke:#000000;stroke-width:1.8471;stroke-linecap:round;stroke-linejoin:round;stroke-miterlimit:10;}
	.st5{fill:#839928;stroke:#000000;stroke-width:1.8471;stroke-linecap:round;stroke-linejoin:round;stroke-miterlimit:10;}
</style>
<g>
	<path class="st0" d="M99.4,57c266.3,185.2,319.9,520.7,376.5,876c16.4,103,33.3,208.7,55.8,312h16.1
		c-22.8-103.9-39.8-210.6-56.4-314.4C462.6,749.9,435.3,579.3,380.8,426c-29.4-82.6-63.9-152.3-105.6-212.9
		c-46.8-68-101.4-123.2-166.9-168.8c-23.1-16-47-30.5-71.5-43.2H0.9C34.8,16.3,67.9,35.2,99.4,57z"/>
	<g>
		<path class="st0" d="M2.8,522.2c0,0,20.2-240.2,282.5-281.5C285.3,240.7,175,483.5,2.8,522.2z"/>
		<path class="st1" d="M2.8,522.2c0,0,79.5-140.4,279.3-280.2"/>
	</g>
	<g>
		<path class="st2" d="M3,1189.5c0,0,70.8-35.6,156.2-98.6c-0.4-2.5-0.6-5-0.7-7.7c-1-31.8,20.8-58.3,48.6-59.2
			c9.5-0.3,18.5,2.4,26.3,7.5C329,948.3,423.1,836.4,446.3,706C446.3,706,185.7,671.7,3,1189.5z"/>
		<path class="st3" d="M272.7,995.5c-13.5-1-28.7-8.2-40.4-1.3c-2,1.1-3.7,2.6-5.7,3.6c-2.8,1.3-6.1,1.6-9.2,1.7
			c-11,0.3-22.2-0.9-33,1.3s-21.7,8.8-24.8,19.4c-2.2,7.2-0.5,15.4-3.6,22.2c-5.5,11.9-23,14.5-28.4,26.4c-1.5,3.4-1.9,7.2-3.6,10.5
			c-4.9,9.8-18.9,11.8-25.1,20.9c-6.6,9.8-2,24.4-9.6,33.5c-5.1,6.2-15.5,9.5-17.4,16.4c25-15.5,55.1-35.4,87.3-59.1
			c-0.4-2.5-0.6-5-0.7-7.7c-1-31.8,20.8-58.3,48.6-59.2c9.5-0.3,18.5,2.4,26.3,7.5C246.6,1020.1,259.8,1008,272.7,995.5z"/>
		<path class="st1" d="M446.3,706c0,0-225.6,140.1-441.4,478.2"/>
	</g>
	<g>
		<path class="st4" d="M917,387.2c-7.3,5.8-17.4,9.1-28.4,8.5c-19.8-1.1-31.6-18.2-32.4-34.2c-4.7-1.3-9.4-2.6-14.3-3.8
			c-255.8-64.4-492.6,11.9-492.6,11.9s169.5,81.9,338.1,125.6c148.8,38.5,472.2,42.2,472.2,42.2S1056.2,443.1,917,387.2z
			 M743.9,485.5c-21.3-3.6-62.7-19.9-67.9-20.2c-14.3-0.8-46.1-13.7-42.8-24c5.9-18.7,31.7-19.5,45-15.1c21.6,7.1,46.2,8.5,61.9,9.3
			c25.3,1.5,96.7,3.7,95.6,22.9C834.5,477.5,806.6,496.2,743.9,485.5z"/>
		<path class="st1" d="M1159.8,537.4c0,0-475.3-204.2-810.3-167.8"/>
	</g>
	<g>
		<path class="st5" d="M376.5,0.9C316.3,32.1,255.9,75.1,199,134c0,0,212.1-11.3,338.9-42.3c65.8-16.1,148.6-56,213.1-90.8
			C751,0.9,376.5,0.9,376.5,0.9z"/>
		<path class="st1" d="M511,0.9c-89.4,27.6-215,77-312.2,132.9"/>
	</g>
</g>
</svg>
