<?xml version="1.0" encoding="utf-8"?>
<!-- Generator: Adobe Illustrator 24.0.1, SVG Export Plug-In . SVG Version: 6.00 Build 0)  -->
<svg version="1.1" id="Layer_1" xmlns="http://www.w3.org/2000/svg" xmlns:xlink="http://www.w3.org/1999/xlink"
	 viewBox="0 0 1189.9 1245.8" xml:space="preserve">
<g>

		<path style="fill:#708727;stroke:#000000;stroke-width:1.8471;stroke-linecap:round;stroke-linejoin:round;stroke-miterlimit:10;" d="
		M99.4,57C365.7,242.2,419.3,577.7,475.9,933c16.4,103,33.3,208.7,55.8,312h16.1c-22.8-103.9-39.8-210.6-56.4-314.4
		c-28.8-180.7-56.1-351.3-110.6-504.6c-29.4-82.6-63.9-152.3-105.6-212.9c-46.8-68-101.4-123.2-166.9-168.8
		c-23.1-16-47-30.5-71.5-43.2H0.9C34.8,16.3,67.9,35.2,99.4,57z"/>
	<g>

			<path style="fill:#708727;stroke:#000000;stroke-width:1.8471;stroke-linecap:round;stroke-linejoin:round;stroke-miterlimit:10;" d="
			M2.8,522.2c0,0,20.2-240.2,282.5-281.5C285.3,240.7,175,483.5,2.8,522.2z"/>

			<path style="fill:none;stroke:#000000;stroke-width:1.8471;stroke-linecap:round;stroke-linejoin:round;stroke-miterlimit:10;" d="
			M2.8,522.2c0,0,79.5-140.4,279.3-280.2"/>
	</g>
	<g>

			<path style="fill:#C1C43B;stroke:#000000;stroke-width:1.8471;stroke-linecap:round;stroke-linejoin:round;stroke-miterlimit:10;" d="
			M3,1189.5c0,0,70.8-35.6,156.2-98.6c-0.4-2.5-0.6-5-0.7-7.7c-1-31.8,20.8-58.3,48.6-59.2c9.5-0.3,18.5,2.4,26.3,7.5
			C329,948.3,423.1,836.4,446.3,706C446.3,706,185.7,671.7,3,1189.5z"/>

			<path style="fill:#AA8759;stroke:#000000;stroke-width:1.8471;stroke-linecap:round;stroke-linejoin:round;stroke-miterlimit:10;" d="
			M272.7,995.5c-13.5-1-28.7-8.2-40.4-1.3c-2,1.1-3.7,2.6-5.7,3.6c-2.8,1.3-6.1,1.6-9.2,1.7c-11,0.3-22.2-0.9-33,1.3
			c-10.8,2.2-21.7,8.8-24.8,19.4c-2.2,7.2-0.5,15.4-3.6,22.2c-5.5,11.9-23,14.5-28.4,26.4c-1.5,3.4-1.9,7.2-3.6,10.5
			c-4.9,9.8-18.9,11.8-25.1,20.9c-6.6,9.8-2,24.4-9.6,33.5c-5.1,6.2-15.5,9.5-17.4,16.4c25-15.5,55.1-35.4,87.3-59.1
			c-0.4-2.5-0.6-5-0.7-7.7c-1-31.8,20.8-58.3,48.6-59.2c9.5-0.3,18.5,2.4,26.3,7.5C246.6,1020.1,259.8,1008,272.7,995.5z"/>

			<path style="fill:none;stroke:#000000;stroke-width:1.8471;stroke-linecap:round;stroke-linejoin:round;stroke-miterlimit:10;" d="
			M446.3,706c0,0-225.6,140.1-441.4,478.2"/>
	</g>
	<g>

			<path style="fill:#D8C72E;stroke:#000000;stroke-width:1.8471;stroke-linecap:round;stroke-linejoin:round;stroke-miterlimit:10;" d="
			M940.1,412.4c-7,6.1-17,9.8-28,9.7c-19.8-0.3-32.3-16.9-33.8-32.8c-4.8-1.1-9.5-2.2-14.4-3.2c-258.3-53.5-491.7,32.7-491.7,32.7
			s172.8,74.7,343.1,111.2c150.3,32.2,473.6,22.2,473.6,22.2S1081.5,462.4,940.1,412.4z M771.3,517.9c-21.4-2.7-63.5-17.2-68.7-17.3
			c-14.3-0.2-46.6-11.7-43.8-22.2c5.1-18.9,30.8-20.8,44.3-17c21.9,6.2,46.5,6.5,62.2,6.7c25.3,0.4,96.8-0.4,96.5,18.8
			C861.5,506.1,834.4,526,771.3,517.9z"/>

			<path style="fill:none;stroke:#000000;stroke-width:1.8471;stroke-linecap:round;stroke-linejoin:round;stroke-miterlimit:10;" d="
			M1189,552.2c0,0-483.5-183.9-816.7-133.4"/>
	</g>
	<g>

			<path style="fill:#839928;stroke:#000000;stroke-width:1.8471;stroke-linecap:round;stroke-linejoin:round;stroke-miterlimit:10;" d="
			M376.5,0.9C316.3,32.1,255.9,75.1,199,134c0,0,212.1-11.3,338.9-42.3c65.8-16.1,148.6-56,213.1-90.8H376.5z"/>

			<path style="fill:none;stroke:#000000;stroke-width:1.8471;stroke-linecap:round;stroke-linejoin:round;stroke-miterlimit:10;" d="
			M511,0.9C421.6,28.5,296,77.9,198.8,133.8"/>
	</g>
</g>
</svg>
