<?xml version="1.0" encoding="utf-8"?>
<!-- Generator: Adobe Illustrator 24.0.1, SVG Export Plug-In . SVG Version: 6.00 Build 0)  -->
<svg version="1.1" xmlns="http://www.w3.org/2000/svg" xmlns:xlink="http://www.w3.org/1999/xlink" x="0px" y="0px"
	 viewBox="0 0 1280 720" style="enable-background:new 0 0 1280 720;" xml:space="preserve">
<style type="text/css">
	.st0{fill:#E2D1BA;}
	.st1{fill:#89725F;}
	.st2{fill:#FFFFFF;}
	.st3{fill:#FAC165;}
	.st4{opacity:0.3;fill:#753E2E;}
	.st5{fill:none;stroke:#000000;stroke-width:0.9606;stroke-miterlimit:10;}
	.st6{fill:#708727;stroke:#000000;stroke-linecap:round;stroke-linejoin:round;stroke-miterlimit:10;}
	.st7{fill:#8FAD31;stroke:#000000;stroke-linecap:round;stroke-linejoin:round;stroke-miterlimit:10;}
	.st8{opacity:0.7;stroke:#000000;stroke-width:1.2036;stroke-linecap:round;stroke-linejoin:round;stroke-miterlimit:10;}
	.st9{fill:#5B6B1B;stroke:#000000;stroke-linecap:round;stroke-linejoin:round;stroke-miterlimit:10;}
	.st10{stroke:#000000;stroke-width:0.972;stroke-linecap:round;stroke-linejoin:round;stroke-miterlimit:10;}
	.st11{fill:#FFFFFF;stroke:#1F1B0A;stroke-width:1.0942;stroke-linecap:round;stroke-linejoin:round;stroke-miterlimit:10;}
	.st12{fill:#EA7547;stroke:#000000;stroke-width:0.5595;stroke-linecap:round;stroke-linejoin:round;stroke-miterlimit:10;}
	.st13{fill:#FFFFFF;stroke:#1F1B0A;stroke-width:1.0249;stroke-linecap:round;stroke-linejoin:round;stroke-miterlimit:10;}
	.st14{fill:#C1C43B;stroke:#000000;stroke-linecap:round;stroke-linejoin:round;stroke-miterlimit:10;}
	.st15{stroke:#000000;stroke-width:1.2036;stroke-linecap:round;stroke-linejoin:round;stroke-miterlimit:10;}
	.st16{fill:#708727;stroke:#000000;stroke-width:0.9457;stroke-linecap:round;stroke-linejoin:round;stroke-miterlimit:10;}
	.st17{fill:#8FAD31;stroke:#000000;stroke-width:0.9457;stroke-linecap:round;stroke-linejoin:round;stroke-miterlimit:10;}
	.st18{fill:#C1C43B;stroke:#000000;stroke-width:0.9457;stroke-linecap:round;stroke-linejoin:round;stroke-miterlimit:10;}
	.st19{stroke:#000000;stroke-width:1.1719;stroke-linecap:round;stroke-linejoin:round;stroke-miterlimit:10;}
	.st20{fill:#8FAD31;stroke:#000000;stroke-width:0.9736;stroke-linecap:round;stroke-linejoin:round;stroke-miterlimit:10;}
	.st21{fill:#708727;stroke:#000000;stroke-width:0.9736;stroke-linecap:round;stroke-linejoin:round;stroke-miterlimit:10;}
	.st22{stroke:#000000;stroke-linecap:round;stroke-linejoin:round;stroke-miterlimit:10;}
	.st23{fill:#FAC165;stroke:#000000;stroke-linecap:round;stroke-linejoin:round;stroke-miterlimit:10;}
	.st24{fill:#FFFFFF;stroke:#000000;stroke-linecap:round;stroke-linejoin:round;stroke-miterlimit:10;}
	.st25{fill:none;stroke:#000000;stroke-linecap:round;stroke-linejoin:round;stroke-miterlimit:10;}
</style>
<g id="Layer_3">
	<rect class="st0" width="1280" height="720"/>
</g>
<g id="Layer_5">
	<path class="st1" d="M1067.4,631.1c0,0-229.4,0.6-402.8,13.5c-173.4,12.9-412.3,47.3-412.3,47.3l-41.6-557.6l815.2-60.8
		L1067.4,631.1z"/>
	<g>
		<polygon class="st2" points="194,110.9 1040,50.7 1050.3,149.6 1046.1,183.6 1056,225.7 1084.2,604.3 235.5,667.6 		"/>
		<path d="M1039.6,51.2l10.2,98.4l-4.2,33.9l0,0.2l0,0.2l9.9,41.9l28.2,378.1l-847.8,63.2l-41.5-555.7L1039.6,51.2 M1040.5,50.2
			l-847,60.3L235,668.1l849.7-63.4l-28.3-379.1l-9.9-42l4.2-34L1040.5,50.2L1040.5,50.2z"/>
	</g>
	
		<rect x="243.7" y="106" transform="matrix(0.9972 -7.438906e-02 7.438906e-02 0.9972 -24.696 48.4087)" class="st3" width="787.7" height="499.5"/>
	<path class="st4" d="M258.5,539.6c-26.9,29.6-19.4,53.9-18.2,70.2c1.2,16.3,9.8,40.7,24.1,39.6c14.4-1.1,51.1,0,49.8-16.2
		c-1.2-16.3-9.9-30.1-8.3-59.1C307.7,545,290,505,258.5,539.6z"/>
	<circle class="st4" cx="241.3" cy="339" r="15.4"/>
	<line class="st5" x1="1011.5" y1="184.8" x2="1044.8" y2="185.2"/>
</g>
<g id="Layer_1">
	<g>
		<g>
			<g>
				<g>
					<polyline class="st6" points="883.5,587.7 801.4,347.3 633.9,340.6 659,604.6 					"/>
					<polyline class="st7" points="964.9,581.5 962,356.7 726,374.3 744.6,598.2 					"/>
				</g>
				<g>
					<g>
						<path d="M829.4,442.5c3.8-0.8,6.4,0.5,7.8,4c1.2,4.1,1.9,8.6,2.1,13.6c0.3,8.5-0.6,14.2-2.7,17c-2.2,1.8-5.2,3.2-9,3.9
							c-1.8,0.4-2.8,0-2.8-1.1l0-0.1c-0.3-8.3-0.8-19.4-1.4-33.2c0-1.1,0.5-2,1.5-2.6C826.3,443.3,827.8,442.9,829.4,442.5z
							 M827.3,447.9c0.6,9.4,1,14.7,1,15.9c0.2,6.4,0.3,10.6,0.4,12.5c3.5-1.2,5.2-2.2,5.2-3c1-1,1.5-5.2,1.4-12.5l0-0.7
							c-0.3-9.1-1.8-13.3-4.3-12.8c-0.1-0.1-0.8-0.1-2,0L827.3,447.9z"/>
						<path d="M845.8,439.2c1.6-0.2,2.4,0,2.4,0.6c-0.2,7.7-0.3,12.7-0.2,14.9c0.3,8.4,0.9,13.2,1.7,14.4c0.4,0.5,1,0.7,1.5,0.6
							l0.1,0c2.1-0.4,3-1.8,3-4.1c0.2-2.8,0.2-6,0.1-9.5l-0.3-6.6c-0.1-2.5-0.3-5.8-0.6-9.8c0-0.6,0.7-1,2.3-1.5l1.3-0.3
							c0.8-0.2,1.4,1.1,1.6,3.8c0.1,1.7,0.2,3.1,0.3,4.1l0.3,8.3c0.4,9.6-0.5,15.8-2.5,18.6c-0.9,1-3,1.8-6,2.5
							c-2.8,0.6-4.6-0.1-5.4-2.2c-0.8-2-1.3-6.5-1.6-13.7c-0.2-2.7-0.4-6.7-0.6-12.3c0-4.5,0.3-6.7,0.7-6.8
							C844.5,439.7,845.1,439.4,845.8,439.2z"/>
						<path d="M871.9,433.5c2.1-0.4,3.8,0.4,4.9,2.5c0.5,1.4,0.9,3.7,1.2,6.9c0.1,1.7-0.5,2.7-1.8,3c-1.8,0.2-2.7,0-2.8-0.5
							c0-0.5,0-0.9,0-1.3c-0.1-3.4-0.9-5-2.3-4.7l-0.5,0.1c-1.5,0.3-2.2,1.6-2.1,4l0,1.1c0.3,3.3,2.4,5.4,6.3,6.2
							c1.7,0.9,2.6,3.5,2.7,7.7c0,0.4,0,0.9,0,1.3l0,0.8c0.2,4.9-0.3,8-1.6,9.4c-1.4,1.3-3,2.1-5.1,2.5l-0.1,0c-3,0.6-5-0.2-6.1-2.5
							c-0.8-1.6-1.2-3.7-1.3-6.2l-0.1-1.6c0-1.2,0.3-2.2,1.1-2.8c0.5-0.2,1.1-0.5,2-0.7c1.1,0,1.7,0.4,1.8,1.3
							c-0.1,1.2-0.2,2.4-0.2,3.6c0.1,2.3,1,3.5,2.7,3.5l0.4-0.1c1-0.2,1.5-1.2,1.6-3l0-1c-0.2-4.5-0.7-7.1-1.6-7.8
							c-4.8-1.4-7.3-4.6-7.4-9.5l-0.1-2.4c-0.1-3.9,1.5-6.9,4.8-8.9C869.6,434,870.8,433.7,871.9,433.5z"/>
						<path d="M899.5,427.4c0.6-0.1,1,0.3,1.1,1.1l0.1,1.8c0,0.8-0.4,1.3-1.1,1.4l-6.5,1.7c-0.1,5.1-0.1,9.2,0.1,12.3
							c0.1,1.9,0.2,3.6,0.3,4.9c0.1,1.4,0.3,3.1,0.3,5c0.1,2.9,0.1,6.3,0.1,10.4c0,0.3-0.8,0.6-2.3,0.9l-1.2,0.2
							c-0.9,0.1-1.4,0.1-1.4,0c-0.1-0.1-0.1-0.2-0.1-0.3c0-0.1,0-0.1,0-0.1c0.1-3.1,0.1-6.2,0-9.1c-0.1-2.1-0.2-4.2-0.4-6.3
							c-0.2-1.8-0.3-3.7-0.3-5.6c-0.1-3.2-0.1-6.9,0-11.1l-6.2,1.7c-0.7,0.1-1.1-0.2-1.1-1.1l-0.1-2c0-0.8,0.3-1.4,0.9-1.6
							c5.7-1.6,10.8-2.9,15.2-3.8C897.8,427.7,898.7,427.5,899.5,427.4z"/>
					</g>
				</g>
			</g>
			<path class="st8" d="M962.7,376.5l-1.4-18.3l-17.4,1.3l-63.4-51c-8.4-6.8-30.8-9.1-49.7-5.1L658,341.5c-0.9,0.2-1.7,0.4-2.5,0.6
				l-21.3-6c0,0,1.4,18.9,1.4,18.9l0.1,0c-0.1,2,0.9,4.1,3.2,5.9l79.1,63.5c8.4,6.8,25.9,8.1,44.8,4.1l177.8-37.1
				C955.5,388.4,964,382.2,962.7,376.5z"/>
			<path class="st9" d="M958.9,353.4l-82.6-60c-8.3-6.7-30.4-8.9-49-5l-171,33.9c-18.7,3.9-27.2,12.5-18.9,19.2l80,61.7
				c8.3,6.7,28.4,9.9,47,6L940,372.6C958.7,368.7,967.2,360,958.9,353.4z"/>
			<path class="st10" d="M954.3,349.3L874,291c-8.1-6.5-29.5-8.7-47.7-4.9l-166.2,33c-18.1,3.8-26.4,12.2-18.3,18.7l77.9,59.9
				c8.1,6.5,27.5,9.7,45.7,5.9L936,367.9C954.2,364.1,962.4,355.7,954.3,349.3z"/>
			<g id="left-hand">
				<path class="st11" d="M794.7,389.3c0.4-0.8,3.8-3.5,6.4-2.2c2.7,1.3,6.6,6.4,7.7,8.7c1.2,2.2,2.9,10.5,2.3,12.8
					c-0.6,2.3-4.7,2.9-6,1.1c-1.3-1.8-4.9-6.9-6.8-10.2c-1.9-3.3-3.4-6.1-3.4-6.1"/>
				<path class="st12" d="M809,402.6c-0.3-0.8-0.8-1.6-2.3-1.2c-1.5,0.5-2.7,0.6-2,3.3c0.7,2.7,1.9,4.8,2.7,4.8s2.9-0.7,3-2
					S809,402.6,809,402.6z"/>
				<path class="st11" d="M786.9,389c2.9-0.8,5.6-1.2,7.1,0.9c1.5,2.1,4.3,9.3,4.9,12c0.6,2.8,1.1,3.8,1,5.5
					c-0.1,1.7-0.7,8.6-2.1,9.5s-6.6,1.3-7.2-2.9c-0.6-4.3-0.5-4.5-1.3-7.2c-0.8-2.6-0.8-2.6-0.8-2.6l-2.3-3c0,0-4.5-7.5-3.7-9.1
					C783.2,390.4,785.6,389.3,786.9,389z"/>
				<path class="st11" d="M778.6,405.4c0.1,0.1,0,0.3,0.1,0.5c0.3,2,1.1,7.6,2.5,9c1.6,1.6,3.4,1.8,3.4,1.8l3.3-3.5
					c0,0,0.7-7.8,0-10.8s-4.1-9.8-6-11.9c-1.8-2.2-2.8-4.2-5.9-2.5c-3.2,1.7-6.6,6.2-6.3,7.4c0.3,1.2,5.3,4.6,6.1,5.7
					C776.5,402.1,777.7,403.7,778.6,405.4z"/>
				<path class="st12" d="M786.7,409.7c-1.1,0-2.5-1-3.3,0.6s-1.1,4.7-0.6,5.7s0.8,1,2.4,1.2c1.6,0.2,2.7,0,2.7-2.9
					C788,412.1,787.5,409.7,786.7,409.7z"/>
				<path class="st12" d="M814.7,393.1c0,0-2.9-1.8-3.1-3.2c-0.2-1.4,0.5-1.4-0.6-3.2c-0.2-0.3-0.4-0.6-0.6-0.9
					c-0.9-1.1-1.8-1.6-1.8-1.6s2.7,0.3,3.7,2.2S814.7,393.1,814.7,393.1z"/>
				<path class="st11" d="M808.3,385.7c-1,0.4-3.8,4.1-2.8,5.2c0.9,1.1,4,4.6,4,4.6l6.1-1.5l-3.1-2.9c0,0-1.1-5.4-2-5.3
					C809.5,385.9,808.3,385.7,808.3,385.7z"/>
				<path class="st11" d="M759.7,399.6c0,0,1.3,1.9,3.1,2.9s2.3,0.2,3.7,2.2c1.4,2,6,4.3,8.3,5.2s3.9-3.5,3.9-3.5s-3-5.4-7.2-9
					s-6.9-4.6-8.7-4.9c-1.2-0.2-3.8,1.8-4.7,4.5c-0.9,2.7-1.3,8.1-1.3,8.1l6.6-0.6"/>
				<path class="st12" d="M798.5,412.4c-0.4-0.2-1-0.6-2.5-0.6c-1.5,0-2.3,1.5-2.5,3.1c-0.2,1.7-0.6,3.1,0.9,3.5
					c1.7,0.4,3,0.5,3.2-0.9S799.4,412.9,798.5,412.4z"/>
				<path class="st12" d="M774.9,402.3c-1-0.6-3.2,1-3,2.1c0.2,1.1,4.4,4.9,4.4,4.9l2.6-2.3L774.9,402.3z"/>
			</g>
			<g id="right-hand">
				<g>
					<path class="st13" d="M882.5,360.5c0,0-1,18-1,19s41.9-8.2,41.9-8.2l8.1,1.4c0,0,2.6-0.9,4.2-2.4c1.5-1.5,2.2-2.8,2.2-2.8
						s0.7-3-0.3-4.4c-0.9-1.5-3.1-4.2-4.4-4.2c-1.3-0.1-2.8,0.6-4.8,2c-2,1.4-4.5,3.8-4.5,3.8s1-4.5,0.4-6.7c-0.7-2.2-2-3.2-3.6-3.8
						c-1.6-0.7-4.4,0.2-4.4,0.2s-0.8-3-2.6-4.1c-1.8-1.1-4.3-1.8-6.8-0.5c-2.5,1.2-5.5,3.8-5.6,3.9c-0.1,0.1-2.9-0.7-5.6-0.5
						s-6.5,1.1-7.4,1.3C887.3,354.5,882.5,360.5,882.5,360.5z"/>
					<path class="st13" d="M916.3,354.2c0,0,0,3.4,0.2,6.9c0.2,3.5-0.5,8.3-0.7,10.4c-0.2,2.1-1.6,6.6-2.3,8.2s-1.8,2.1-4.1,1.6
						c-2.3-0.5-4-2.4-4.6-5.5c-0.6-3.1,0.5-9.4,0.5-9.4l-0.6-5.4"/>
					<path class="st13" d="M923.9,364.6c0,0-1.9,9.8-3.1,14.2c-1.3,4.4-2.8,7.4-4.3,7.9c-1.5,0.5-3.9,0.4-5.4-0.9s-1.7-4.2-1.7-4.2
						s4.5,1.2,5.7-6.9"/>
					<path class="st13" d="M900.8,355c3,0.1,3.9,1.2,4.1,3c0.2,1.7-1.2,8.2-2.3,12.8c-1.1,4.6-3,6.5-4.2,7.7c-1.3,1.2-3.1,4-4.1,5.4
						c-1,1.4-3.2,2-5.2,0.1c-2-1.9-0.5-7.1,0.2-10c0.7-2.9,2.4-4.4,2.4-4.4s-0.4-0.5-0.5-0.9c-0.1-0.5,0-4.4,0-6.6"/>
					<path class="st13" d="M891.2,362.1c0,2.1-0.1,6.1,0,6.6c0.1,0.5,0.5,0.9,0.5,0.9s-1.7,1.5-2.4,4.4c-0.7,2.9-2.2,8.2-0.2,10
						c2,1.9,4.2,1.3,5.2-0.1c1-1.4,2.9-4.2,4.1-5.4c1.3-1.2,3.1-3.1,4.2-7.7c1.1-4.6,2.5-11.1,2.3-12.8c-0.2-1.7-0.7-4.1-3.7-4.5"/>
					<path class="st13" d="M886.4,364.3c0,0,2.5,1.9,4.8,2.3"/>
					<path class="st12" d="M896.6,380.6c0,0-0.4-0.9-2.1-1.3c-1.7-0.4-3.4,0-3.9,0.6c-0.5,0.6-1.2,1.6-1.2,2.7
						c0.1,1.1,1.4,1.7,2.4,2c1,0.3,2.2-0.5,2.2-0.5S896.3,380.9,896.6,380.6z"/>
					<path class="st13" d="M904.6,361l0.6,5.4c0,0-1,6.3-0.5,9.4c0.6,3.1,2.3,5,4.6,5.5c2.3,0.5,3.3,0,4.1-1.6s2.1-6.1,2.3-8.2
						c0.2-2.1,1-6.9,0.7-10.4c-0.2-3.5-0.2-6.9-0.2-6.9"/>
					<path class="st12" d="M913.2,373.1c0,0-0.5-0.8-2-0.9c-1.5-0.1-2.9,0.5-3.6,2.3c-0.7,1.8-0.9,2.9-0.7,3.1
						c0.2,0.2,1.9,1,3.8,1.6c1.9,0.6,2.2,0.6,2.6-0.4C913.7,377.7,914.2,374.1,913.2,373.1z"/>
					<path class="st12" d="M910.9,381.6c0,0-0.1,1.2,0.9,1.7c1,0.5,4.5,2.5,5.2,1.8c0.7-0.7,2-3.7,1.1-5.4c-0.9-1.7-3.9-1.9-3.9-1.9
						s-0.6,1.9-1.1,2.5C912.5,381,911.6,381.6,910.9,381.6z"/>
					<path class="st13" d="M929.9,362.3c-0.2,0.2-1.8,2.4-2.8,4.2c-0.9,1.8-1.1,4.2,0.5,5.2c1.6,1,3.2,1.3,3.8,1"/>
					<path class="st12" d="M930.6,365.3c0,0,0.5-0.6,2.3,0.6c1.8,1.2,1.1,2.9,0.8,3.4c-0.2,0.5-0.9,1.9-1.4,1.7
						c-0.5-0.2-0.3-1.4-1.4-2c-1.1-0.6-2.4-0.9-2.4-1.4C928.4,367.1,930.6,365.3,930.6,365.3z"/>
					<path class="st13" d="M893.3,412.5"/>
				</g>
			</g>
			<g>
				<path class="st14" d="M803.9,258.8c1.1-6.3-1.7-14.9-6.2-19.2c-1.7-1.6-3.4-2.4-5-2.4l0,0l0,0c-0.3,0-0.6,0-0.9,0.1l-106.5,22.2
					l7.7,27.4l106-22.1l0,0C801.4,264.6,803.3,262.5,803.9,258.8z"/>
				
					<ellipse transform="matrix(0.9556 -0.2945 0.2945 0.9556 -49.9395 215.0234)" class="st15" cx="688.9" cy="273.3" rx="7.6" ry="14.3"/>
			</g>
			<g id="cover">
				<g>
					<path class="st16" d="M981.1,341.3l-1.9-18.1l-18.9,1.7l-70.2-49.1c-9.3-6.5-33.7-8.3-54.2-3.9l-192.8,40.9
						c-0.9,0.2-1.9,0.4-2.7,0.6l-23.3-5.5c0,0,2,18.7,2,18.7l0.1,0c-0.1,2,1,4,3.6,5.8l87.5,61.2c9.3,6.5,33.7,8.3,54.2,3.9
						l192.8-40.9C973.5,353.2,982.6,347,981.1,341.3z"/>
					<path class="st17" d="M981.1,341.3l-1.9-18.1l-18.9,1.7l-70.2-49.1c-9.3-6.5-33.7-8.3-54.2-3.9l-123.7,26.3l10.5,100.2
						c11.6,2.4,27.6,2.3,41.7-0.7l192.8-40.9C973.5,353.2,982.6,347,981.1,341.3z"/>
					<path class="st18" d="M975.6,317.3L883.1,259c-9.3-6.5-33.7-8.3-54.2-3.9L641,293.2c-20.5,4.4-29.7,13.2-20.4,19.7l87.5,61.2
						c9.3,6.5,33.7,8.3,54.2,3.9l192.8-40.9C975.7,332.7,984.9,323.8,975.6,317.3z"/>
				</g>
				<g>
					<path class="st16" d="M958.7,315.9l-1.7-16.1l-16.8,1.5l-62.5-43.7c-8.3-5.8-30-7.4-48.3-3.5l-171.7,36.4
						c-0.8,0.2-1.6,0.4-2.4,0.6l-20.7-4.9c0,0,1.7,16.7,1.7,16.7l0.1,0c-0.1,1.8,0.9,3.6,3.2,5.2l77.9,54.4c8.3,5.8,30,7.4,48.3,3.5
						l171.7-36.4C951.9,326.5,960,320.9,958.7,315.9z"/>
					<path class="st17" d="M958.7,315.9l-1.7-16.1l-16.8,1.5l-62.5-43.7c-8.3-5.8-30-7.4-48.3-3.5l-110.1,23.4l9.3,89.2
						c10.3,2.1,24.6,2,37.2-0.7l171.7-36.4C951.9,326.5,960,320.9,958.7,315.9z"/>
					<path class="st18" d="M953.7,294.6l-82.3-51.9c-8.3-5.8-30-7.4-48.3-3.5l-167.2,33.9c-18.3,3.9-26.4,11.8-18.1,17.6l77.9,54.4
						c8.3,5.8,30,7.4,48.3,3.5l171.7-36.4C953.9,308.3,962,300.4,953.7,294.6z"/>
				</g>
				<g>
					<polygon class="st19" points="878.8,323.1 849.9,306.4 862.1,302.5 878.1,306.6 880.7,319.8 					"/>
					<path class="st20" d="M859.9,297c-4-2-15.7-3.6-24.8-1.4l-30.8,7.2c-9.9,2.9-15.1,8.4-15.8,13.6c-0.7,5.3,0.2,9.6,4.8,13.3
						c4.7,3.8,13.2,9.9,13.2,9.9l9.9-21.4l62.4-13.8L859.9,297z"/>
					<path class="st21" d="M870.9,302.8L821.6,314c-7,1.6-13.3,9.5-14.2,17.9l-0.8,7.7l5.7-1.3l0.4-4.3c0.7-7.5,6.4-14.6,12.6-16
						l44.1-10c7.7-1.5,9.5,4.1,9.4,11.4l0,3.7l4.7-1.1l0-7.5C883.5,306.4,877.8,301.2,870.9,302.8z"/>
				</g>
			</g>
			<g>
				<path class="st6" d="M892.3,525.1c0.1,1.5-1.4,2.8-2.7,2.3l-16.1-6.1c-1.4-0.5-1.5-2.4-0.3-3.4l3.9-3.2l-3.9-5.5
					c-2.1-2.9-5.6-4.3-9.2-3.5c-3,0.7-5.6,2.9-6.9,5.9c0,0,0,0,0,0.1c0,0,0,0.1-0.1,0.1l-0.1,0.2c0,0.1-0.1,0.2-0.1,0.2
					c0,0.1-0.1,0.2-0.1,0.3c0,0.1-0.1,0.2-0.1,0.3c-0.1,0.1-0.1,0.3-0.2,0.4c-0.1,0.1-0.1,0.3-0.2,0.4c-0.1,0.2-0.1,0.3-0.2,0.5
					c-0.1,0.2-0.1,0.3-0.2,0.5c-0.1,0.2-0.2,0.4-0.2,0.5c-0.1,0.2-0.2,0.4-0.2,0.6c-0.1,0.2-0.2,0.4-0.3,0.6
					c-0.1,0.2-0.2,0.4-0.3,0.6c-0.1,0.2-0.2,0.4-0.3,0.6c-0.1,0.2-0.2,0.4-0.3,0.6c-0.1,0.2-0.2,0.4-0.3,0.7
					c-0.1,0.2-0.2,0.5-0.3,0.7c-0.1,0.2-0.2,0.5-0.3,0.7c-0.1,0.2-0.2,0.5-0.3,0.7c-0.1,0.2-0.2,0.5-0.3,0.7
					c-0.1,0.2-0.2,0.5-0.3,0.7c-0.1,0.2-0.2,0.5-0.3,0.7c-0.1,0.2-0.2,0.5-0.3,0.7c-0.1,0.2-0.2,0.5-0.3,0.7
					c-0.1,0.2-0.2,0.4-0.3,0.7c-0.1,0.2-0.2,0.4-0.3,0.7c-0.1,0.2-0.2,0.4-0.3,0.6c-0.1,0.2-0.2,0.4-0.3,0.6
					c-0.1,0.2-0.2,0.4-0.3,0.6c-0.1,0.2-0.2,0.4-0.3,0.6c-0.1,0.2-0.2,0.4-0.2,0.6c-0.1,0.2-0.2,0.4-0.2,0.5
					c-0.1,0.2-0.1,0.3-0.2,0.5c-0.1,0.1-0.1,0.3-0.2,0.5c-0.1,0.1-0.1,0.3-0.2,0.4c-0.1,0.1-0.1,0.2-0.2,0.4c0,0.1-0.1,0.2-0.1,0.3
					c-0.1,0.1-0.1,0.3-0.2,0.4c0,0.1-0.1,0.1-0.1,0.2c0,0-0.1,0.1-0.1,0.1c0,0-0.1,0-0.1,0.1c-0.1,0-0.1,0-0.2,0c0,0,0,0-0.1,0
					c-0.1,0-0.2-0.1-0.2-0.1c-0.4-0.2-0.9-0.3-1.3-0.5c-0.6-0.2-1.1-0.5-1.7-0.7c-0.6-0.2-1.2-0.5-1.8-0.7c-0.5-0.2-1-0.4-1.5-0.6
					c-0.2-0.1-0.4-0.1-0.5-0.2c-0.1,0-0.2-0.1-0.3-0.2c-0.1-0.1,0-0.3,0-0.5c0.1-0.2,0.2-0.5,0.3-0.7c0.2-0.4,0.3-0.7,0.5-1.1
					c0.2-0.4,0.4-0.9,0.6-1.3c0.2-0.5,0.5-1,0.7-1.6c0.3-0.6,0.5-1.1,0.8-1.7c0.3-0.6,0.5-1.2,0.8-1.8c0.3-0.6,0.6-1.2,0.8-1.9
					c0.3-0.6,0.6-1.2,0.8-1.8c0.3-0.6,0.5-1.2,0.8-1.8c0.2-0.6,0.5-1.1,0.7-1.7c0.2-0.5,0.4-1,0.7-1.5c0.2-0.4,0.4-0.8,0.6-1.2
					c0.1-0.3,0.3-0.6,0.4-1c0.1-0.2,0.2-0.4,0.3-0.6c0-0.1,0.1-0.1,0.1-0.2c2.8-6.3,8.6-11.1,15.2-12.1c6.5-1,12.5,1.4,16.1,6.6
					l3.9,5.5l3.4-2.8c1.2-1,2.9-0.4,3.1,1.2L892.3,525.1z"/>
				<path class="st6" d="M871.5,578.4c-1.4-0.5-1.6-2.4-0.3-3.4l14.4-11.9c1.2-1,2.9-0.4,3.1,1.2l0.5,4.8l6.8-1.1
					c3.6-0.6,6.9-3.2,8.2-6.8c1.1-3,0.8-6.2-1-8.7c0,0,0,0,0-0.1c0,0-0.1-0.1-0.1-0.1l-0.1-0.2c0-0.1-0.1-0.1-0.1-0.2
					c-0.1-0.1-0.1-0.2-0.2-0.2c-0.1-0.1-0.1-0.2-0.2-0.3c-0.1-0.1-0.1-0.2-0.2-0.3c-0.1-0.1-0.2-0.2-0.2-0.3
					c-0.1-0.1-0.2-0.3-0.3-0.4c-0.1-0.1-0.2-0.3-0.3-0.4c-0.1-0.1-0.2-0.3-0.3-0.4c-0.1-0.2-0.2-0.3-0.3-0.5
					c-0.1-0.2-0.2-0.3-0.3-0.5c-0.1-0.2-0.2-0.3-0.4-0.5c-0.1-0.2-0.2-0.3-0.4-0.5c-0.1-0.2-0.3-0.4-0.4-0.5
					c-0.1-0.2-0.3-0.4-0.4-0.5c-0.1-0.2-0.3-0.4-0.4-0.6c-0.1-0.2-0.3-0.4-0.4-0.6c-0.1-0.2-0.3-0.4-0.4-0.6
					c-0.1-0.2-0.3-0.4-0.4-0.6c-0.1-0.2-0.3-0.4-0.4-0.6c-0.1-0.2-0.3-0.4-0.4-0.6c-0.1-0.2-0.3-0.4-0.4-0.6
					c-0.1-0.2-0.3-0.4-0.4-0.6c-0.1-0.2-0.3-0.4-0.4-0.6s-0.3-0.4-0.4-0.5c-0.1-0.2-0.3-0.4-0.4-0.5c-0.1-0.2-0.2-0.3-0.4-0.5
					c-0.1-0.2-0.2-0.3-0.4-0.5c-0.1-0.2-0.2-0.3-0.3-0.5c-0.1-0.2-0.2-0.3-0.3-0.5c-0.1-0.1-0.2-0.3-0.3-0.4
					c-0.1-0.1-0.2-0.3-0.3-0.4c-0.1-0.1-0.2-0.2-0.3-0.4c-0.1-0.1-0.2-0.2-0.2-0.3c-0.1-0.1-0.1-0.2-0.2-0.3
					c-0.1-0.1-0.1-0.2-0.2-0.3c-0.1-0.1-0.2-0.2-0.3-0.4c0-0.1-0.1-0.1-0.1-0.2c0,0-0.1-0.1-0.1-0.1c0,0,0-0.1,0-0.1
					c0-0.1,0.1-0.1,0.1-0.2c0,0,0,0,0.1,0c0.1-0.1,0.1-0.1,0.2-0.2c0.4-0.3,0.8-0.6,1.2-0.9c0.5-0.4,1-0.8,1.6-1.2
					c0.5-0.4,1.1-0.9,1.6-1.3c0.5-0.4,0.9-0.7,1.4-1.1c0.2-0.1,0.3-0.3,0.5-0.4c0.1-0.1,0.2-0.2,0.3-0.2c0.2,0,0.3,0.1,0.4,0.2
					c0.1,0.2,0.3,0.4,0.4,0.6c0.2,0.3,0.4,0.6,0.6,0.9c0.3,0.4,0.5,0.7,0.8,1.1c0.3,0.4,0.6,0.9,0.9,1.3c0.3,0.5,0.7,0.9,1,1.4
					c0.4,0.5,0.7,1,1.1,1.5c0.4,0.5,0.7,1,1.1,1.5c0.4,0.5,0.7,1,1.1,1.5c0.3,0.5,0.7,1,1,1.5c0.3,0.5,0.7,0.9,1,1.4
					c0.3,0.4,0.6,0.8,0.9,1.2c0.2,0.3,0.5,0.7,0.7,1c0.2,0.3,0.4,0.5,0.6,0.8c0.1,0.2,0.2,0.3,0.4,0.5c0,0.1,0.1,0.1,0.1,0.2
					c3.7,5.2,4.4,12.4,1.5,18.7c-2.8,6.2-8.4,10.6-14.8,11.7l-6.9,1.2l0.4,4.3c0.1,1.5-1.4,2.8-2.7,2.3L871.5,578.4z"/>
				<path class="st6" d="M839.3,537.3c1.2-1,2.9-0.4,3.1,1.2l1.8,18c0.2,1.5-1.4,2.8-2.7,2.3L837,557l-2.9,6.6
					c-1.6,3.5-1.2,7.5,1,10.2c1.9,2.3,4.8,3.3,7.9,2.8c0,0,0,0,0.1,0c0,0,0.1,0,0.1,0l0.2,0c0.1,0,0.2,0,0.2,0c0.1,0,0.2,0,0.3-0.1
					c0.1,0,0.2,0,0.3-0.1c0.1,0,0.3,0,0.4-0.1c0.1,0,0.3,0,0.4-0.1c0.2,0,0.3-0.1,0.5-0.1c0.2,0,0.3-0.1,0.5-0.1
					c0.2,0,0.4-0.1,0.6-0.1c0.2,0,0.4-0.1,0.6-0.1c0.2,0,0.4-0.1,0.6-0.1c0.2,0,0.4-0.1,0.6-0.1c0.2,0,0.4-0.1,0.6-0.1
					c0.2,0,0.4-0.1,0.7-0.1c0.2,0,0.5-0.1,0.7-0.1c0.2,0,0.5-0.1,0.7-0.1c0.2,0,0.5-0.1,0.7-0.1c0.2,0,0.5-0.1,0.7-0.1
					c0.2,0,0.5-0.1,0.7-0.1c0.2,0,0.5-0.1,0.7-0.1c0.2,0,0.5-0.1,0.7-0.1c0.2,0,0.5-0.1,0.7-0.1c0.2,0,0.5-0.1,0.7-0.1
					c0.2,0,0.5-0.1,0.7-0.1c0.2,0,0.5-0.1,0.7-0.1c0.2,0,0.4-0.1,0.7-0.1c0.2,0,0.4-0.1,0.7-0.1c0.2,0,0.4-0.1,0.6-0.1
					c0.2,0,0.4-0.1,0.6-0.1c0.2,0,0.4-0.1,0.6-0.1c0.2,0,0.4-0.1,0.5-0.1c0.2,0,0.3-0.1,0.5-0.1c0.2,0,0.3-0.1,0.5-0.1
					c0.1,0,0.3,0,0.4-0.1c0.1,0,0.3,0,0.4-0.1c0.1,0,0.2,0,0.3-0.1c0.2,0,0.3-0.1,0.5-0.1c0.1,0,0.2,0,0.2,0c0.1,0,0.1,0,0.2,0
					c0,0,0.1,0,0.1,0.1c0,0.1,0,0.1,0,0.2c0,0,0,0,0,0.1c0,0.1,0,0.2,0,0.3c0,0.5,0.1,1,0.1,1.5c0,0.6,0.1,1.3,0.1,1.9
					c0,0.7,0.1,1.3,0.2,2c0,0.6,0.1,1.1,0.1,1.7c0,0.2,0,0.4,0,0.6c0,0.1,0,0.3,0,0.4c-0.1,0.2-0.2,0.2-0.4,0.2
					c-0.3,0-0.5,0.1-0.8,0.1c-0.4,0.1-0.7,0.1-1.1,0.2c-0.5,0.1-0.9,0.2-1.4,0.2c-0.5,0.1-1.1,0.2-1.6,0.3c-0.6,0.1-1.2,0.2-1.8,0.3
					c-0.6,0.1-1.2,0.2-1.9,0.3c-0.6,0.1-1.3,0.2-1.9,0.3c-0.6,0.1-1.3,0.2-1.9,0.3c-0.6,0.1-1.2,0.2-1.8,0.3
					c-0.6,0.1-1.1,0.2-1.7,0.3c-0.5,0.1-1,0.2-1.5,0.3c-0.4,0.1-0.9,0.1-1.3,0.2c-0.3,0.1-0.7,0.1-1,0.2c-0.2,0-0.4,0.1-0.6,0.1
					c-0.1,0-0.1,0-0.2,0c-6.5,1.1-13-1.3-16.7-6.6c-3.6-5.2-4.1-12-1.4-18.3l3-6.7l-3.8-1.4c-1.4-0.5-1.6-2.4-0.3-3.4L839.3,537.3z"
					/>
			</g>
		</g>
		<g>
			<g>
				<path class="st14" d="M487.4,341.2c1.1-6.3-1.7-14.9-6.2-19.2c-1.7-1.6-3.4-2.4-5-2.4l0,0l0,0c-0.3,0-0.6,0-0.9,0.1l-106.5,22.2
					l7.7,27.4l106-22.1l0,0C484.9,347,486.7,344.9,487.4,341.2z"/>
				
					<ellipse transform="matrix(0.9556 -0.2945 0.2945 0.9556 -88.2435 125.4422)" class="st15" cx="372.3" cy="355.7" rx="7.6" ry="14.3"/>
			</g>
			<g>
				<g>
					<polyline class="st6" points="547.3,612.6 484.9,429.7 317.3,422.9 336.9,628.6 					"/>
					<polyline class="st7" points="647.6,604.9 645.5,439.1 409.4,456.7 423.2,622 					"/>
				</g>
				<g>
					<g>
						<path d="M489.6,528l1.5-0.3c2.7-0.6,4.1,0.6,4.2,3.5c0.5,2.8,0.9,6.6,1.1,11.3c0.2,13.3,0.2,20,0,20c-0.5,0.7-1.2,1.1-2.1,1.3
							l-1.4,0.3c-0.8,0.2-1.2-0.1-1.2-0.7c0.1-2.1,0.1-6.6,0.1-13.4l-8.7,1.3c0.1,1.5,0.3,6.2,0.6,14.1c0.1,0.6,0.1,1,0.2,1.2
							c0,0.7-1.1,1.3-3.5,1.8c-0.6,0.1-1-0.3-1.2-1.3l-1.4-30.4c-0.1-1.4,0.8-2.9,2.5-4.6C483.3,530,486.4,528.7,489.6,528z
							 M482.3,538.8c0.4,5.1,0.6,7.8,0.6,8l9.2-1.5l0-6.8c-0.2-4.2-1.1-6.1-2.7-5.8c-0.4,0-0.7,0-1.1,0.1c-1.8,0.4-3.6,1.3-5.4,2.8
							C482.4,536.3,482.2,537.4,482.3,538.8z"/>
						<path d="M510.2,524c2.1-0.4,3.8,0.4,4.9,2.5c0.5,1.4,0.9,3.7,1.2,6.9c0.1,1.7-0.5,2.7-1.8,3c-1.8,0.2-2.7,0-2.8-0.5
							c0-0.5,0-0.9,0-1.3c-0.1-3.4-0.9-5-2.3-4.7l-0.5,0.1c-1.5,0.3-2.2,1.6-2.1,4l0,1.1c0.3,3.3,2.4,5.4,6.3,6.2
							c1.7,1,2.6,3.5,2.7,7.8c0,0.4,0,0.9,0,1.3l0,0.8c0.2,4.9-0.3,8-1.6,9.4c-1.4,1.3-3,2.1-5.1,2.5l-0.1,0c-3,0.6-5-0.2-6.1-2.5
							c-0.8-1.6-1.2-3.7-1.3-6.2l-0.1-1.6c0-1.2,0.3-2.2,1.1-2.8c0.5-0.2,1.1-0.5,2-0.7c1.1,0,1.7,0.4,1.8,1.3
							c-0.1,1.2-0.2,2.4-0.2,3.6c0.1,2.3,1,3.5,2.7,3.5l0.4-0.1c1-0.2,1.5-1.2,1.6-3l0-1c-0.2-4.5-0.7-7.1-1.6-7.8
							c-4.8-1.4-7.3-4.6-7.4-9.5l-0.1-2.4c-0.2-3.9,1.5-6.9,4.8-8.9C507.9,524.6,509.1,524.2,510.2,524z"/>
						<path d="M534.2,519.1c1.2-0.3,2,0,2.3,0.7l0.1,14.8c0.1,3.5,0.7,10.1,1.8,19.5c-0.5,0.8-1.4,1.4-2.6,1.6l-0.4,0.1
							c-1.3,0.3-2-0.3-2.1-1.6c-0.5-3-1-7.8-1.5-14.5l-6,1.7l0.1,1.8c0.3,7.6,0.6,12.3,0.9,14.2c-0.3,1.2-1.4,2-3.3,2.4
							c-0.9,0.2-1.4,0-1.7-0.4c-0.5-8.4-1-19.9-1.6-34.5c-0.1-1.7,0.3-2.6,1-2.7l1.5-0.4c1.7-0.2,2.6-0.1,2.6,0.6
							c0.1,4.8,0.2,8.4,0.3,10.8l0.1,3.3l6.3-1.6c0-8.6,0-13.4,0.2-14.5c0.3-0.6,1-1,2.1-1.2L534.2,519.1z"/>
						<path d="M545,517.1c1.1-0.2,3.8-0.8,8.1-1.6c1.6-0.3,2.5,0,2.5,1l0.1,1.4c0,1.2-0.3,1.9-1.1,2.1l-2,0.4
							c-1.2,0.3-2.9,0.7-5.1,1.4l0,0.8c0.1,1.7,0.1,4.1,0.2,7.3l7-2c0.8-0.2,1.2,0.6,1.3,2.4l0,0.7c0,0.9-0.5,1.5-1.5,1.7
							c-0.5,0.2-2.8,0.8-6.8,2l0.7,13.7c1.5-0.3,4.4-1.1,8.6-2.2c0.7-0.1,1.1,0.4,1.1,1.5l0,0.4c0.1,1.7-0.5,2.7-1.7,3l-10,2.8
							l-0.2,0c-1.6,0.3-2.4,0.1-2.4-0.7c-0.5-5.2-0.8-10.8-1.1-16.9l-0.1-1.8c-0.2-10.9,0.1-16.4,0.8-16.6
							C543.8,517.5,544.4,517.2,545,517.1z"/>
						<path d="M570.3,511.5c2.1-0.4,3.8,0.4,4.9,2.5c0.5,1.4,0.9,3.7,1.2,6.9c0.1,1.7-0.5,2.7-1.8,3c-1.8,0.2-2.7,0-2.8-0.5
							c0-0.5,0-0.9,0-1.3c-0.1-3.4-0.9-5-2.3-4.7l-0.5,0.1c-1.5,0.3-2.2,1.6-2.1,4l0,1.1c0.3,3.3,2.4,5.4,6.3,6.2
							c1.7,1,2.6,3.5,2.7,7.8c0,0.4,0,0.9,0,1.3l0,0.8c0.2,4.9-0.3,8-1.6,9.4c-1.4,1.3-3,2.1-5.1,2.5l-0.1,0c-3,0.6-5-0.2-6.1-2.5
							c-0.8-1.6-1.2-3.7-1.3-6.2l-0.1-1.6c0-1.2,0.3-2.2,1.1-2.8c0.5-0.2,1.1-0.5,2-0.7c1.1,0,1.7,0.4,1.8,1.3
							c-0.1,1.2-0.2,2.4-0.2,3.6c0.1,2.3,1,3.5,2.7,3.5l0.4-0.1c1-0.2,1.5-1.2,1.6-3l0-1c-0.2-4.5-0.7-7.1-1.6-7.8
							c-4.8-1.4-7.3-4.6-7.4-9.5l-0.1-2.4c-0.2-3.9,1.5-6.9,4.8-8.9C568,512.1,569.2,511.7,570.3,511.5z"/>
					</g>
				</g>
			</g>
			<path class="st8" d="M646.2,461.8l-1.4-18.3l-17.4,1.3l-63.4-51c-8.4-6.8-30.8-9.1-49.7-5.1l-172.9,38.1
				c-0.9,0.2-1.7,0.4-2.5,0.6l-21.3-6c0,0,1.4,18.9,1.4,18.9l0.1,0c-0.1,2,0.9,4.1,3.2,5.9l79.1,63.5c8.4,6.8,25.9,8.1,44.8,4.1
				L624,476.9C638.9,473.7,647.4,467.6,646.2,461.8z"/>
			<g>
				<path class="st6" d="M670.5,439.6l-1.5-20.3l-19.2,1.4l-70.3-56.5c-9.3-7.5-34.1-10-55.1-5.7l-197.2,41.2
					c-1,0.2-1.9,0.4-2.8,0.6l-23.6-6.7c0,0,1.6,21,1.6,21l0.1,0c-0.2,2.3,1,4.5,3.6,6.6l87.7,70.4c9.3,7.5,34.1,10,55.1,5.7
					l197.2-41.2C662.5,452.8,671.9,446,670.5,439.6z"/>
				<path class="st7" d="M670.5,439.6l-1.5-20.3l-19.2,1.4l-70.3-56.5c-9.3-7.5-34.1-10-55.1-5.7L397.8,385l8.4,112.3
					c11.8,2.9,28,3.2,42.5,0.2l197.2-41.2C662.5,452.8,671.9,446,670.5,439.6z"/>
				<path class="st14" d="M665.4,412.7l-92.8-67.4c-9.3-7.5-34.1-10-55.1-5.7l-192,38.1c-21,4.4-30.5,14.1-21.2,21.6l87.7,70.4
					c9.3,7.5,34.1,10,55.1,5.7l197.2-41.2C665.2,429.9,674.7,420.2,665.4,412.7z"/>
			</g>
			<g>
				<path class="st6" d="M648.2,410.7l-1.3-18l-17.1,1.3l-62.6-50.3c-8.3-6.7-30.4-8.9-49-5l-175.5,36.7c-0.9,0.2-1.7,0.4-2.5,0.6
					l-21-5.9c0,0,1.4,18.7,1.4,18.7l0.1,0c-0.1,2,0.9,4,3.2,5.9l78,62.7c8.3,6.7,30.4,8.9,49,5l175.5-36.7
					C641.1,422.4,649.5,416.4,648.2,410.7z"/>
				<path class="st7" d="M648.2,410.7l-1.3-18l-17.1,1.3l-62.6-50.3c-8.3-6.7-30.4-8.9-49-5l-112.6,23.5L413,462
					c10.5,2.6,25,2.8,37.8,0.1l175.5-36.7C641.1,422.4,649.5,416.4,648.2,410.7z"/>
				<path class="st14" d="M643.7,386.7l-82.6-60c-8.3-6.7-30.4-8.9-49-5l-171,33.9c-18.7,3.9-27.2,12.5-18.9,19.2l78,62.7
					c8.3,6.7,30.4,8.9,49,5l175.5-36.7C643.5,402,652,393.4,643.7,386.7z"/>
			</g>
			<g>
				<polygon class="st15" points="566.9,417.4 537.7,399.4 550.1,395.5 566.4,399.9 568.8,413.9 				"/>
				<path class="st7" d="M548,389.6c-4.1-2.1-15.9-4-25.2-1.8l-31.4,7.3c-10.1,3-15.4,8.7-16.2,14.1c-0.8,5.5,0.1,10.1,4.8,14.1
					c4.7,4.1,13.3,10.6,13.3,10.6l10.4-22.5l63.7-13.9L548,389.6z"/>
				<path class="st6" d="M559.1,395.9l-50.3,11.2c-7.1,1.6-13.7,9.9-14.6,18.7l-0.9,8.2l5.8-1.3l0.5-4.5c0.8-7.9,6.6-15.3,13-16.7
					l45-10.1c7.9-1.5,9.6,4.5,9.5,12.2l-0.1,3.9l4.8-1.1l0.1-7.9C571.8,399.9,566.1,394.3,559.1,395.9z"/>
			</g>
			<path class="st6" d="M564.4,609.3c0.1,1.5-1.4,2.8-2.7,2.3l-16.1-6.1c-1.4-0.5-1.5-2.4-0.3-3.4l3.9-3.2l-3.9-5.5
				c-2.1-2.9-5.6-4.3-9.2-3.5c-3,0.7-5.6,2.9-6.9,5.9c0,0,0,0,0,0.1c0,0,0,0.1-0.1,0.1l-0.1,0.2c0,0.1-0.1,0.2-0.1,0.2
				c0,0.1-0.1,0.2-0.1,0.3c0,0.1-0.1,0.2-0.1,0.3c-0.1,0.1-0.1,0.3-0.2,0.4c-0.1,0.1-0.1,0.3-0.2,0.4c-0.1,0.2-0.1,0.3-0.2,0.5
				c-0.1,0.2-0.1,0.3-0.2,0.5c-0.1,0.2-0.2,0.4-0.2,0.5c-0.1,0.2-0.2,0.4-0.2,0.6c-0.1,0.2-0.2,0.4-0.3,0.6
				c-0.1,0.2-0.2,0.4-0.3,0.6c-0.1,0.2-0.2,0.4-0.3,0.6c-0.1,0.2-0.2,0.4-0.3,0.6c-0.1,0.2-0.2,0.4-0.3,0.7
				c-0.1,0.2-0.2,0.5-0.3,0.7c-0.1,0.2-0.2,0.5-0.3,0.7c-0.1,0.2-0.2,0.5-0.3,0.7c-0.1,0.2-0.2,0.5-0.3,0.7
				c-0.1,0.2-0.2,0.5-0.3,0.7c-0.1,0.2-0.2,0.5-0.3,0.7c-0.1,0.2-0.2,0.5-0.3,0.7c-0.1,0.2-0.2,0.5-0.3,0.7
				c-0.1,0.2-0.2,0.4-0.3,0.7c-0.1,0.2-0.2,0.4-0.3,0.7c-0.1,0.2-0.2,0.4-0.3,0.6c-0.1,0.2-0.2,0.4-0.3,0.6
				c-0.1,0.2-0.2,0.4-0.3,0.6c-0.1,0.2-0.2,0.4-0.3,0.6c-0.1,0.2-0.2,0.4-0.2,0.6c-0.1,0.2-0.2,0.4-0.2,0.5
				c-0.1,0.2-0.1,0.3-0.2,0.5c-0.1,0.1-0.1,0.3-0.2,0.5c-0.1,0.1-0.1,0.3-0.2,0.4c-0.1,0.1-0.1,0.2-0.2,0.4c0,0.1-0.1,0.2-0.1,0.3
				c-0.1,0.1-0.1,0.3-0.2,0.4c0,0.1-0.1,0.1-0.1,0.2c0,0-0.1,0.1-0.1,0.1c0,0-0.1,0-0.1,0.1c-0.1,0-0.1,0-0.2,0c0,0,0,0-0.1,0
				c-0.1,0-0.2-0.1-0.2-0.1c-0.4-0.2-0.9-0.3-1.3-0.5c-0.6-0.2-1.1-0.5-1.7-0.7c-0.6-0.2-1.2-0.5-1.8-0.7c-0.5-0.2-1-0.4-1.5-0.6
				c-0.2-0.1-0.4-0.1-0.5-0.2c-0.1,0-0.2-0.1-0.3-0.2c-0.1-0.1,0-0.3,0-0.5c0.1-0.2,0.2-0.5,0.3-0.7c0.2-0.4,0.3-0.7,0.5-1.1
				c0.2-0.4,0.4-0.9,0.6-1.3c0.2-0.5,0.5-1,0.7-1.6c0.3-0.6,0.5-1.1,0.8-1.7c0.3-0.6,0.5-1.2,0.8-1.8c0.3-0.6,0.6-1.2,0.8-1.9
				c0.3-0.6,0.6-1.2,0.8-1.8c0.3-0.6,0.5-1.2,0.8-1.8c0.2-0.6,0.5-1.1,0.7-1.7c0.2-0.5,0.4-1,0.7-1.5c0.2-0.4,0.4-0.8,0.6-1.2
				c0.1-0.3,0.3-0.6,0.4-1c0.1-0.2,0.2-0.4,0.3-0.6c0-0.1,0.1-0.1,0.1-0.2c2.8-6.3,8.6-11.1,15.2-12.1c6.5-1,12.5,1.4,16.1,6.6
				l3.9,5.5l3.4-2.8c1.2-1,2.9-0.4,3.1,1.2L564.4,609.3z"/>
		</g>
	</g>
</g>
<g id="Layer_6">
	<path d="M377.5,184.4l1.4-0.1c2.5-0.2,3.8,1,4,3.6c0.6,2.6,1,6,1.4,10.2c0.6,12,0.8,18,0.7,18c-0.4,0.6-1.1,0.9-1.9,0.9l-1.3,0.1
		c-0.7,0.1-1.1-0.2-1.1-0.8c0-1.9-0.1-5.9-0.3-12l-8.1,0.1c0.1,1.3,0.4,5.6,1,12.7c0.1,0.6,0.2,0.9,0.2,1.1c0,0.7-1,1.1-3.2,1.2
		c-0.6,0-0.9-0.4-1.2-1.3l-2.2-27.4c-0.1-1.3,0.6-2.5,2.2-3.8C371.8,185.5,374.6,184.6,377.5,184.4z M371.1,193.3
		c0.5,4.7,0.8,7.1,0.8,7.2l8.5-0.2l-0.3-6.1c-0.3-3.8-1.2-5.6-2.7-5.5c-0.3,0-0.7,0-1,0c-1.7,0.1-3.3,0.7-4.9,1.8
		C371.2,191,371,191.9,371.1,193.3z M396.5,183.2c2-0.1,3.5,0.8,4.6,2.8c0.5,1.3,0.9,3.4,1.3,6.3c0.1,1.6-0.4,2.4-1.6,2.5
		c-1.7,0-2.5-0.3-2.6-0.8c0-0.4,0-0.8-0.1-1.2c-0.2-3.1-1-4.6-2.3-4.5l-0.5,0c-1.4,0.1-2,1.2-1.8,3.3l0.1,1c0.4,3,2.4,5.2,6,6.3
		c1.6,1.1,2.5,3.5,2.8,7.3c0,0.4,0,0.8,0.1,1.2l0.1,0.8c0.3,4.4-0.1,7.1-1.2,8.2c-1.2,1-2.8,1.5-4.6,1.7l-0.1,0
		c-2.8,0.2-4.7-0.8-5.7-3c-0.8-1.6-1.2-3.5-1.4-5.8l-0.1-1.4c-0.1-1.1,0.2-1.9,0.9-2.4c0.4-0.1,1-0.3,1.8-0.4
		c1.1,0.1,1.6,0.6,1.7,1.4c-0.1,1.1-0.1,2.1-0.1,3.2c0.2,2.1,1,3.2,2.6,3.4l0.4,0c0.9-0.1,1.4-0.9,1.4-2.5l-0.1-0.9
		c-0.3-4.1-0.9-6.4-1.7-7.2c-4.5-1.8-6.9-5-7.2-9.4l-0.2-2.2c-0.3-3.6,1.1-6,4.2-7.4C394.5,183.5,395.5,183.3,396.5,183.2z
		 M418.7,181.7c1.1-0.1,1.9,0.2,2.1,0.9l0.6,13.3c0.2,3.2,1,9.1,2.3,17.8c-0.4,0.7-1.2,1.1-2.4,1.2l-0.4,0c-1.2,0.1-1.9-0.5-2-1.7
		c-0.5-2.7-1.2-7.1-1.9-13.2l-5.6,0.8l0.1,1.7c0.5,6.8,0.9,11.1,1.3,12.8c-0.2,1.1-1.2,1.7-3,1.8c-0.8,0.1-1.3-0.1-1.6-0.6
		c-0.7-7.6-1.6-18-2.6-31.1c-0.1-1.5,0.2-2.3,0.8-2.3l1.4-0.2c1.6,0,2.4,0.2,2.4,0.8c0.3,4.3,0.5,7.5,0.6,9.7l0.2,2.9l5.8-0.7
		c-0.3-7.7-0.4-12.1-0.3-13c0.2-0.5,0.9-0.8,1.9-0.8L418.7,181.7z M428.6,181.2c1-0.1,3.5-0.2,7.5-0.5c1.5-0.1,2.3,0.3,2.4,1.2
		l0.1,1.3c0.1,1.1-0.2,1.7-1,1.7l-1.9,0.1c-1.1,0.1-2.7,0.3-4.7,0.6l0.1,0.7c0.1,1.5,0.2,3.7,0.4,6.6l6.4-1c0.7-0.1,1.1,0.7,1.3,2.3
		l0,0.6c0.1,0.8-0.4,1.3-1.4,1.4c-0.5,0.1-2.6,0.4-6.2,1l1.1,12.4c1.4-0.1,4-0.4,7.9-1c0.6,0,1,0.5,1.1,1.5l0,0.4
		c0.1,1.6-0.4,2.4-1.5,2.5l-9.2,1.4l-0.2,0c-1.4,0.1-2.2-0.2-2.2-0.9c-0.6-4.7-1.1-9.8-1.5-15.3l-0.1-1.7
		c-0.5-9.8-0.5-14.7,0.2-14.8C427.5,181.4,428,181.2,428.6,181.2z M451.9,179.1c2-0.1,3.5,0.8,4.6,2.8c0.5,1.3,0.9,3.4,1.3,6.3
		c0.1,1.6-0.4,2.4-1.6,2.5c-1.7,0-2.5-0.3-2.6-0.8c0-0.4,0-0.8-0.1-1.2c-0.2-3.1-1-4.6-2.3-4.5l-0.5,0c-1.4,0.1-2,1.2-1.8,3.3l0.1,1
		c0.4,3,2.4,5.2,6,6.4c1.6,1,2.5,3.5,2.8,7.3c0,0.4,0,0.8,0.1,1.2l0.1,0.8c0.3,4.4-0.1,7.1-1.2,8.2c-1.2,1-2.8,1.5-4.6,1.7l-0.1,0
		c-2.8,0.2-4.7-0.8-5.7-3c-0.8-1.6-1.2-3.5-1.4-5.8l-0.1-1.4c-0.1-1.1,0.2-1.9,0.9-2.4c0.4-0.1,1-0.3,1.8-0.4
		c1.1,0.1,1.6,0.6,1.7,1.4c-0.1,1.1-0.1,2.1-0.1,3.2c0.2,2.1,1,3.2,2.6,3.4l0.4,0c0.9-0.1,1.4-0.9,1.4-2.5l-0.1-0.9
		c-0.3-4.1-0.9-6.4-1.7-7.2c-4.5-1.8-6.9-5-7.2-9.4l-0.2-2.2c-0.3-3.6,1.1-6,4.2-7.4C449.8,179.4,450.9,179.2,451.9,179.1z
		 M489.8,176c0.6,0,0.9,0.3,1.1,1.2l0.1,1.6c0,0.7-0.3,1.1-1,1.2l-5.9,0.7c0.1,4.6,0.2,8.3,0.5,11.1c0.1,1.7,0.3,3.2,0.5,4.5
		c0.2,1.3,0.3,2.8,0.5,4.6c0.2,2.6,0.3,5.7,0.4,9.3c0,0.3-0.7,0.5-2.1,0.6l-1.1,0.1c-0.8,0-1.3,0-1.3-0.2c-0.1-0.1-0.1-0.2-0.1-0.3
		c0,0,0-0.1,0-0.1c0-2.8-0.1-5.5-0.3-8.2c-0.1-1.9-0.3-3.8-0.6-5.7c-0.2-1.6-0.4-3.3-0.5-5.1c-0.2-2.9-0.3-6.2-0.3-10l-5.7,0.8
		c-0.7,0-1-0.3-1.1-1.2l-0.1-1.8c-0.1-0.8,0.2-1.2,0.7-1.3c5.2-0.8,9.9-1.3,13.9-1.6C488.2,176.1,489,176,489.8,176z M500.4,175.5
		c3.1-0.2,5.3,2.1,6.7,6.9c0.7,3.3,1.2,6.6,1.4,9.7c0.3,7.7,0.3,11.5-0.1,11.5c-0.1,1.1-0.7,2.4-1.8,3.9c-1.3,1.3-2.9,2-4.9,2.1
		c-2.7,0.2-4.7-2.9-6-9.2c-0.5-2.7-0.9-5.3-1.1-7.9l-0.2-2.3c-0.5-7.1,0.3-11.6,2.6-13.5C497.9,176.2,499,175.8,500.4,175.5z
		 M498.5,191.7c1,9.1,2.2,13.6,3.7,13.5c1.9-0.1,2.7-3.8,2.5-11.1l-0.3-4.4c-0.3-3.7-1.1-6.6-2.4-8.8c-0.4-0.4-0.9-0.6-1.5-0.6
		c-1.1,0.1-1.6,2.8-1.8,8.1C498.4,188.4,498.4,189.5,498.5,191.7z M535.5,172.6l1.4-0.1c2.5-0.2,3.8,1,4,3.6c0.6,2.6,1,6,1.4,10.2
		c0.6,12,0.8,18,0.7,18c-0.4,0.6-1.1,0.9-1.9,0.9l-1.3,0.1c-0.7,0.1-1.1-0.2-1.1-0.8c0-1.9-0.1-5.9-0.3-12l-8.1,0.1
		c0.1,1.3,0.4,5.6,1,12.7c0.1,0.6,0.2,0.9,0.2,1.1c0,0.7-1,1.1-3.2,1.2c-0.6,0-0.9-0.4-1.2-1.3l-2.2-27.4c-0.1-1.3,0.6-2.5,2.2-3.8
		C529.8,173.7,532.6,172.8,535.5,172.6z M529.1,181.5c0.5,4.7,0.8,7.1,0.8,7.2l8.5-0.2l-0.3-6.1c-0.3-3.8-1.2-5.6-2.7-5.5
		c-0.3,0-0.7,0-1,0c-1.7,0.1-3.3,0.7-4.9,1.8C529.2,179.2,529,180.2,529.1,181.5z M554.5,171.5c2-0.1,3.5,0.8,4.6,2.8
		c0.5,1.3,0.9,3.4,1.3,6.3c0.1,1.6-0.4,2.4-1.6,2.5c-1.7,0-2.5-0.3-2.6-0.8c0-0.4,0-0.8-0.1-1.2c-0.2-3.1-1-4.6-2.3-4.5l-0.5,0
		c-1.4,0.1-2,1.2-1.8,3.3l0.1,1c0.4,3,2.4,5.2,6,6.4c1.6,1,2.5,3.5,2.8,7.3c0,0.4,0,0.8,0.1,1.2l0.1,0.8c0.3,4.4-0.1,7.1-1.2,8.2
		c-1.2,1-2.8,1.5-4.6,1.7l-0.1,0c-2.8,0.2-4.7-0.8-5.7-3c-0.8-1.6-1.2-3.5-1.4-5.8l-0.1-1.4c-0.1-1.1,0.2-1.9,0.9-2.4
		c0.4-0.1,1-0.3,1.8-0.4c1.1,0.1,1.6,0.6,1.7,1.4c-0.1,1.1-0.1,2.1-0.1,3.2c0.2,2.1,1,3.2,2.6,3.4l0.4,0c0.9-0.1,1.4-0.9,1.4-2.5
		l-0.1-0.9c-0.3-4.1-0.9-6.4-1.7-7.2c-4.5-1.8-6.9-5-7.2-9.4l-0.2-2.2c-0.3-3.6,1.1-6,4.2-7.4C552.5,171.7,553.5,171.5,554.5,171.5z
		 M576.7,169.9c1.1-0.1,1.9,0.2,2.1,0.9l0.6,13.3c0.2,3.2,1,9.1,2.3,17.8c-0.4,0.7-1.2,1.1-2.4,1.2l-0.4,0c-1.2,0.1-1.9-0.5-2-1.7
		c-0.5-2.7-1.2-7.1-1.9-13.2l-5.6,0.8l0.1,1.7c0.5,6.8,0.9,11.1,1.3,12.8c-0.2,1.1-1.2,1.7-3,1.8c-0.8,0.1-1.3-0.1-1.6-0.6
		c-0.7-7.6-1.6-18-2.6-31.2c-0.1-1.5,0.2-2.3,0.8-2.3l1.4-0.2c1.6,0,2.4,0.2,2.4,0.8c0.3,4.3,0.5,7.5,0.6,9.7l0.2,2.9l5.8-0.7
		c-0.3-7.7-0.4-12.1-0.3-13c0.2-0.5,0.9-0.8,1.9-0.8L576.7,169.9z M586.6,169.4c1-0.1,3.5-0.2,7.5-0.5c1.5-0.1,2.3,0.3,2.4,1.2
		l0.1,1.3c0.1,1.1-0.2,1.7-1,1.7l-1.9,0.1c-1.1,0.1-2.7,0.3-4.7,0.6l0.1,0.7c0.1,1.5,0.2,3.7,0.4,6.6l6.4-1c0.7-0.1,1.1,0.7,1.3,2.3
		l0,0.6c0.1,0.8-0.4,1.3-1.4,1.4c-0.5,0.1-2.6,0.4-6.2,1l1.1,12.4c1.4-0.1,4-0.4,7.9-1c0.6,0,1,0.5,1.1,1.5l0,0.4
		c0.1,1.6-0.4,2.4-1.5,2.5l-9.2,1.4l-0.2,0c-1.4,0.1-2.2-0.2-2.2-0.9c-0.6-4.7-1.1-9.8-1.5-15.3l-0.1-1.7
		c-0.5-9.8-0.5-14.7,0.2-14.8C585.5,169.6,586,169.4,586.6,169.4z M609.9,167.3c2-0.1,3.5,0.8,4.6,2.8c0.5,1.3,0.9,3.4,1.3,6.3
		c0.1,1.6-0.4,2.4-1.6,2.5c-1.7,0-2.5-0.3-2.6-0.8c0-0.4,0-0.8-0.1-1.2c-0.2-3.1-1-4.6-2.3-4.5l-0.5,0c-1.4,0.1-2,1.2-1.8,3.3l0.1,1
		c0.4,3,2.4,5.2,6,6.3c1.6,1.1,2.5,3.5,2.8,7.3c0,0.4,0,0.8,0.1,1.2l0.1,0.8c0.3,4.4-0.1,7.1-1.2,8.2c-1.2,1-2.8,1.5-4.6,1.7l-0.1,0
		c-2.8,0.2-4.7-0.8-5.7-3c-0.8-1.6-1.2-3.5-1.4-5.8l-0.1-1.4c-0.1-1.1,0.2-1.9,0.9-2.4c0.4-0.1,1-0.3,1.8-0.4
		c1.1,0.1,1.6,0.6,1.7,1.4c-0.1,1.1-0.1,2.1-0.1,3.2c0.2,2.1,1,3.2,2.6,3.4l0.4,0c0.9-0.1,1.4-0.9,1.4-2.5l-0.1-0.9
		c-0.3-4.1-0.9-6.4-1.7-7.2c-4.5-1.8-6.9-5-7.2-9.4l-0.2-2.2c-0.3-3.6,1.1-6,4.2-7.4C607.8,167.6,608.9,167.4,609.9,167.3z
		 M621.3,193.7c1.5-0.1,2.6,0.4,3.1,1.5c0.5,1.1,0.9,2.8,1.1,5c0.2,2.7-0.9,5.2-3.2,7.7c-0.5,0.3-1,0.5-1.2,0.5
		c-1.5-0.4-2.4-1.1-2.4-2.2l0-0.1c0-0.4,0.4-1.2,1.4-2.5c0.6-1.1,0.9-2.3,0.8-3.5l0-0.2c-0.1-0.9-0.5-2.7-1.2-5.3
		C619.5,194.1,620.1,193.8,621.3,193.7z M648.6,164.6c3.5-0.3,5.9,1.2,7.3,4.5c1.3,3.8,2.1,8,2.4,12.4c0.6,7.7-0.1,12.7-1.9,14.9
		c-2,1.4-4.7,2.2-8.2,2.5c-1.7,0.1-2.6-0.3-2.7-1.3l0-0.1c-0.6-7.5-1.3-17.5-2.3-30c-0.1-1,0.4-1.7,1.3-2.2
		C645.7,165,647.1,164.8,648.6,164.6z M646.8,169.2c0.9,8.5,1.4,13.3,1.5,14.4c0.4,5.8,0.6,9.5,0.7,11.3c3.2-0.6,4.8-1.3,4.7-2.1
		c0.9-0.8,1.2-4.5,0.9-11.1l0-0.6c-0.6-8.2-2.1-12.2-4.4-12c-0.1-0.1-0.7-0.2-1.9-0.3L646.8,169.2z M663.7,163.6
		c1.4,0,2.2,0.3,2.2,0.8c0.1,6.9,0.2,11.4,0.3,13.4c0.6,7.6,1.3,12,2.1,13.2c0.4,0.5,0.9,0.7,1.4,0.7l0.1,0c1.9-0.1,2.8-1.3,2.6-3.3
		c0.1-2.5,0-5.3-0.2-8.6l-0.4-6c-0.2-2.3-0.5-5.2-0.9-8.9c0-0.5,0.7-0.9,2.1-1l1.2-0.1c0.8-0.1,1.3,1.1,1.7,3.6
		c0.2,1.6,0.3,2.8,0.4,3.7l0.6,7.4c0.6,8.6,0.1,14.1-1.7,16.4c-0.8,0.8-2.7,1.3-5.5,1.5c-2.6,0.2-4.3-0.7-5.1-2.6
		c-0.8-1.9-1.4-6-1.9-12.5c-0.2-2.4-0.6-6.1-0.9-11.1c-0.1-4,0-6,0.4-6C662.5,163.9,663.1,163.7,663.7,163.6z M687.7,161.5
		c2-0.1,3.5,0.8,4.6,2.8c0.5,1.3,0.9,3.4,1.3,6.3c0.1,1.6-0.4,2.4-1.6,2.5c-1.7,0-2.5-0.3-2.6-0.8c0-0.4,0-0.8-0.1-1.2
		c-0.2-3.1-1-4.6-2.3-4.5l-0.5,0c-1.4,0.1-2,1.2-1.8,3.3l0.1,1c0.4,3,2.4,5.2,6,6.3c1.6,1.1,2.5,3.5,2.8,7.3c0,0.4,0,0.8,0.1,1.2
		l0.1,0.8c0.3,4.4-0.1,7.1-1.2,8.2c-1.2,1-2.8,1.5-4.6,1.7l-0.1,0c-2.8,0.2-4.7-0.8-5.7-3c-0.8-1.6-1.2-3.5-1.4-5.8l-0.1-1.4
		c-0.1-1.1,0.2-1.9,0.9-2.4c0.4-0.1,1-0.3,1.8-0.4c1.1,0.1,1.6,0.6,1.7,1.4c-0.1,1.1-0.1,2.1-0.1,3.2c0.2,2.1,1,3.2,2.6,3.4l0.4,0
		c0.9-0.1,1.4-0.9,1.4-2.5l-0.1-0.9c-0.3-4.1-0.9-6.4-1.7-7.2c-4.5-1.8-6.9-5-7.2-9.4l-0.2-2.2c-0.3-3.6,1.1-6,4.2-7.4
		C685.6,161.8,686.7,161.6,687.7,161.5z M713.1,159.3c0.6,0,0.9,0.3,1.1,1.2l0.1,1.6c0,0.7-0.3,1.1-1,1.2l-5.9,0.7
		c0.1,4.6,0.2,8.3,0.5,11.1c0.1,1.7,0.3,3.2,0.5,4.5c0.2,1.3,0.3,2.8,0.5,4.6c0.2,2.6,0.3,5.7,0.4,9.3c0,0.3-0.7,0.5-2.1,0.6
		l-1.1,0.1c-0.8,0-1.3,0-1.3-0.2c-0.1-0.1-0.1-0.2-0.1-0.3c0,0,0-0.1,0-0.1c0-2.8-0.1-5.5-0.3-8.2c-0.1-1.9-0.3-3.8-0.6-5.7
		c-0.2-1.6-0.4-3.3-0.5-5.1c-0.2-2.9-0.3-6.2-0.3-10l-5.7,0.8c-0.7,0-1-0.3-1.1-1.2l-0.1-1.8c-0.1-0.8,0.2-1.2,0.7-1.3
		c5.2-0.8,9.9-1.3,13.9-1.6C711.5,159.4,712.3,159.4,713.1,159.3z M746.3,156.9c0.6,0,0.9,0.3,1.1,1.2l0.1,1.6c0,0.7-0.3,1.1-1,1.2
		l-5.9,0.7c0.1,4.6,0.2,8.3,0.5,11.1c0.1,1.7,0.3,3.2,0.5,4.5c0.2,1.3,0.3,2.8,0.5,4.6c0.2,2.6,0.3,5.7,0.4,9.3
		c0,0.3-0.7,0.5-2.1,0.6l-1.1,0.1c-0.8,0-1.3,0-1.3-0.2c-0.1-0.1-0.1-0.2-0.1-0.3c0,0,0-0.1,0-0.1c0-2.8-0.1-5.5-0.3-8.2
		c-0.1-1.9-0.3-3.8-0.6-5.7c-0.2-1.6-0.4-3.3-0.5-5.1c-0.2-2.9-0.3-6.2-0.3-10l-5.7,0.8c-0.7,0-1-0.3-1.1-1.2l-0.1-1.8
		c-0.1-0.8,0.2-1.2,0.7-1.3c5.2-0.8,9.9-1.3,13.9-1.6C744.8,156.9,745.6,156.9,746.3,156.9z M757,156.3c3.1-0.2,5.3,2.1,6.7,6.9
		c0.7,3.3,1.2,6.6,1.4,9.7c0.3,7.7,0.3,11.5-0.1,11.5c-0.1,1.1-0.7,2.4-1.8,3.9c-1.3,1.3-2.9,2-4.9,2.1c-2.7,0.2-4.7-2.9-6-9.2
		c-0.5-2.7-0.9-5.3-1.1-7.9l-0.2-2.3c-0.5-7.1,0.3-11.6,2.6-13.5C754.5,157,755.6,156.6,757,156.3z M755,172.5
		c1,9.1,2.2,13.6,3.7,13.5c1.9-0.1,2.7-3.8,2.5-11.1l-0.3-4.4c-0.3-3.7-1.1-6.6-2.4-8.8c-0.4-0.4-0.9-0.6-1.5-0.6
		c-1.1,0.1-1.6,2.8-1.8,8.1C755,169.3,755,170.4,755,172.5z M787.1,154.3c3.5-0.3,5.9,1.2,7.3,4.5c1.3,3.8,2.1,8,2.4,12.4
		c0.6,7.7-0.1,12.7-1.9,14.9c-2,1.4-4.7,2.2-8.2,2.5c-1.7,0.1-2.6-0.3-2.7-1.3l0-0.1c-0.6-7.5-1.3-17.5-2.3-30
		c-0.1-1,0.4-1.7,1.3-2.2C784.2,154.7,785.6,154.4,787.1,154.3z M785.3,158.9c0.9,8.5,1.4,13.3,1.5,14.4c0.4,5.8,0.6,9.5,0.7,11.3
		c3.2-0.6,4.8-1.3,4.7-2.1c0.9-0.8,1.2-4.5,0.9-11.1l0-0.6c-0.6-8.2-2.1-12.2-4.4-12c-0.1-0.1-0.7-0.2-1.9-0.3L785.3,158.9z
		 M802.2,153.3c1.4,0,2.2,0.3,2.2,0.8c0.1,6.9,0.2,11.4,0.3,13.4c0.6,7.6,1.3,12,2.1,13.2c0.4,0.5,0.9,0.7,1.4,0.7l0.1,0
		c1.9-0.1,2.8-1.3,2.6-3.3c0.1-2.5,0-5.3-0.2-8.6l-0.4-6c-0.2-2.3-0.5-5.2-0.9-8.9c0-0.5,0.7-0.9,2.1-1l1.2-0.1
		c0.8-0.1,1.3,1.1,1.7,3.6c0.2,1.6,0.3,2.8,0.4,3.7l0.6,7.4c0.6,8.6,0.1,14.1-1.7,16.4c-0.8,0.8-2.7,1.3-5.5,1.5
		c-2.6,0.2-4.3-0.7-5.1-2.6c-0.8-1.9-1.4-6-1.9-12.5c-0.2-2.4-0.6-6.1-0.9-11.1c-0.1-4,0-6,0.4-6C801,153.5,801.6,153.3,802.2,153.3
		z M826.2,151.2c2-0.1,3.5,0.8,4.6,2.8c0.5,1.3,0.9,3.4,1.3,6.3c0.1,1.6-0.4,2.4-1.6,2.5c-1.7,0-2.5-0.3-2.6-0.8
		c0-0.4,0-0.8-0.1-1.2c-0.2-3.1-1-4.6-2.3-4.5l-0.5,0c-1.4,0.1-2,1.2-1.8,3.3l0.1,1c0.4,3,2.4,5.2,6,6.4c1.6,1,2.5,3.5,2.8,7.3
		c0,0.4,0,0.8,0.1,1.2l0.1,0.8c0.3,4.4-0.1,7.1-1.2,8.2c-1.2,1-2.8,1.5-4.6,1.7l-0.1,0c-2.8,0.2-4.7-0.8-5.7-3
		c-0.8-1.6-1.2-3.5-1.4-5.8l-0.1-1.4c-0.1-1.1,0.2-1.9,0.9-2.4c0.4-0.1,1-0.3,1.8-0.4c1.1,0.1,1.6,0.6,1.7,1.4
		c-0.1,1.1-0.1,2.1-0.1,3.2c0.2,2.1,1,3.2,2.6,3.4l0.4,0c0.9-0.1,1.4-0.9,1.4-2.5l-0.1-0.9c-0.3-4.1-0.9-6.4-1.7-7.2
		c-4.5-1.8-6.9-5-7.2-9.4l-0.2-2.2c-0.3-3.6,1.1-6,4.2-7.4C824.1,151.4,825.2,151.3,826.2,151.2z M851.6,149c0.6,0,0.9,0.3,1.1,1.2
		l0.1,1.6c0,0.7-0.3,1.1-1,1.2l-5.9,0.7c0.1,4.6,0.2,8.3,0.5,11.1c0.1,1.7,0.3,3.2,0.5,4.5c0.2,1.3,0.3,2.8,0.5,4.6
		c0.2,2.6,0.3,5.7,0.4,9.3c0,0.3-0.7,0.5-2.1,0.6l-1.1,0.1c-0.8,0-1.3,0-1.3-0.2c-0.1-0.1-0.1-0.2-0.1-0.3c0,0,0-0.1,0-0.1
		c0-2.8-0.1-5.5-0.3-8.2c-0.1-1.9-0.3-3.8-0.6-5.7c-0.2-1.6-0.4-3.3-0.5-5.1c-0.2-2.9-0.3-6.2-0.3-10l-5.7,0.8c-0.7,0-1-0.3-1.1-1.2
		l-0.1-1.8c-0.1-0.8,0.2-1.2,0.7-1.3c5.2-0.8,9.9-1.3,13.9-1.6C850,149.1,850.9,149,851.6,149z"/>
</g>
<g id="Layer_4">
	<g id="banana">
		<path class="st22" d="M490.5,347.5c0,0-17-3-23-2s-30,15-30,15s27-5,35-5s15-1,15,0s1.7,5.3,1.7,5.3s-5.4,9.4-6.1,9
			c-0.7-0.4,0.8,3.1,4.6,0.9c3.8-2.2,8.8-4.2,14.8-4.2s7,1,15,4s14.2,2.6,14.2,2.6s-3.2-10.6-4.2-12.6s3-5,4-5s6-4,6-4l-25-12"/>
		<path class="st23" d="M453.5,339.3c0,0,12.7-4.4,21-1c8.3,3.4,11.7,6.4,15.6,5.4s14.7-6.8,14.7-6.8s-2,11.7-6.4,12.7
			c-4.4,1-7.8,2.4-15.2,1c-7.3-1.5-13.7-9.8-21-9.3"/>
		<path class="st23" d="M523.5,333.5c0,0-2.3,8,6,9s17,3.2,22.3,3.2c5.4,0,20,0,21-0.5s5.9,2.4-1.5,4.9c-7.3,2.4-24,2.4-30.8,2.9
			c-6.8,0.5-18.6,1-20.5-3.9"/>
		<path class="st23" d="M530.1,311.2c0,0-0.1,5.2,0,8.3c0.3,16.9-7.1,32.6-6.4,33.7c2,3,6.4,7.8,21,13.7c14.7,5.9,27.9,9.3,27.9,9.3
			s-1,2.4-8.8,2.4c-7.8,0-37-4.3-45.3-11.2s-8-11.8-7-20.6c1-8.8,8.3-25.9,8.3-25.9"/>
		<path class="st24" d="M434,375.5l0.5,6.4c0,0,4.4,2,12.7,1c8.3-1,22.8,0.1,31.3-8.3s10.7-13.7,10.7-13.7s-8.3,7.3-22.5,10.8
			s-21.5,2.4-24.5,2.9S434,375.5,434,375.5z"/>
		<path class="st23" d="M522,311c0,0-16.1,11.2-19.6,19.6c-3.4,8.3-5.4,16.6-11.7,26.9s-21.2,22.1-21.2,22.1s20.2-8.4,29.5-17.7
			c9.3-9.3,15.6-22,18.1-28.4c2.4-6.4,6.4-13.7,6.4-13.7"/>
		<path class="st22" d="M422.7,367.7l3.4,2.4l-2,4.9c0,0-3.4-1-3.4-2.9S422.7,367.7,422.7,367.7z"/>
		<path class="st23" d="M437.4,349.6c0,0-6.8,7.3-8.8,9.8c-2,2.4-5.9,8.8-5.9,8.8l3.6,1.9c0,0,3.2-2.4,8.1-5.8
			c4.9-3.4,11.2-6.8,11.2-6.8s-3.4-1-5.4-2c-2-1-2.9-4.4-2.9-4.4"/>
		<path class="st24" d="M434.9,352.7c0,0,4.9-7,8.9-9.5c3.9-2.4,9.4-5.6,13-4.8c3.6,0.8,11.5,1.8,12.9,3.8c1.5,2,8.7,6.4,8.7,6.4
			s-8.7-1.5-17,0.9c-8.3,2.4-15.6,7.8-15.6,7.8s-6.2,2.1-10.2,4.1C430.5,364,434.9,352.7,434.9,352.7z"/>
		<path class="st23" d="M519.1,312.9c0,0,2.9-3.9,5.4-3.9c2.4,0,5.9,1,6.4,2.9c0.5,2-0.5,3.9-0.5,3.9l-1.5,5.4"/>
		<path class="st25" d="M521.7,312c0,0,3,5.7,8.4,2.6"/>
	</g>
</g>
</svg>
