<?xml version="1.0" encoding="utf-8"?>
<!-- Generator: Adobe Illustrator 24.0.1, SVG Export Plug-In . SVG Version: 6.00 Build 0)  -->
<svg version="1.1" id="Layer_1" xmlns="http://www.w3.org/2000/svg" xmlns:xlink="http://www.w3.org/1999/xlink" x="0px" y="0px"
	 viewBox="0 0 583.5 1220" style="enable-background:new 0 0 583.5 1220;" xml:space="preserve">
<style type="text/css">
	.st0{fill:#2F5061;}
	.st1{fill:#22404C;}
	.st2{stroke:#000000;stroke-linecap:round;stroke-linejoin:round;stroke-miterlimit:10;}
	.st3{fill:#8A9994;stroke:#000000;stroke-linecap:round;stroke-linejoin:round;stroke-miterlimit:10;}
	.st4{opacity:0.3;stroke:#000000;stroke-linecap:round;stroke-linejoin:round;stroke-miterlimit:10;enable-background:new    ;}
	.st5{fill:#B4C1BC;stroke:#000000;stroke-linecap:round;stroke-linejoin:round;stroke-miterlimit:10;}
	.st6{fill:none;stroke:#000000;stroke-linecap:round;stroke-linejoin:round;stroke-miterlimit:10;}
	.st7{fill:#F2B45A;stroke:#000000;stroke-miterlimit:10;}
	.st8{stroke:#000000;stroke-miterlimit:10;}
	.st9{fill:#EA7547;stroke:#000000;stroke-linecap:round;stroke-linejoin:round;stroke-miterlimit:10;}
	.st10{fill:#1DC3DE;stroke:#000000;stroke-linecap:round;stroke-linejoin:round;stroke-miterlimit:10;}
	.st11{fill:#8FAD31;stroke:#000000;stroke-miterlimit:10;}
	.st12{fill:#FFE7A7;}
	.st13{fill:none;stroke:#000000;stroke-width:1.0095;stroke-linecap:round;stroke-linejoin:round;stroke-miterlimit:10;}
</style>
<rect class="st0" width="583.5" height="1220"/>
<g>
	<path class="st1" d="M187.5,648.1c0-35.3-13.6-64-30.4-64c-0.3,0-0.5,0-0.8,0c0.3-0.6,0.5-1.2,0.5-1.9V241.8v-2.6v-4h-0.4
		c0,0,0,0,0-0.1l-0.2-0.9l-0.6,0.7c-1.1,1.2-2.3,2.3-3.5,3.2s-2.3,1.7-3.4,2.3l-0.2,0.1v0.2v6.4V582c0,0.7,0.2,1.4,0.6,2
		c-0.4,0-0.9-0.1-1.3-0.1c-16.7,0-30.3,28.7-30.3,63.9s13.6,63.9,30.3,63.9c1,0,2.2-0.1,3.4-0.3c-1.6,2.6-5.5,8.7-9.1,15.7
		c-4.8,9.2-4.1,15.9-4,16.2v0.1l5,10.5c0.1,0.1,0.2,0.2,0.4,0.3c0,0,0,0,0.1,0s0.3-0.1,0.4-0.2l7.5-8.8c0.1-0.1,0.1-0.1,0.1-0.2
		c0-0.1,1.1-6.5,4.1-14c2-4.9,11.7-20.2,17.2-28.6C181.6,691.5,187.5,671.2,187.5,648.1z M156.1,717.4c0,0.6-0.1,1.2-0.5,1.9
		c-0.4,0.6-0.9,1.1-1.4,1.3s-1,0.2-1.3,0.1c-0.3-0.2-0.6-0.6-0.6-1.1c0-0.6,0.1-1.2,0.5-1.9c0.4-0.6,0.9-1.1,1.4-1.3
		c0.3-0.1,0.5-0.2,0.8-0.2c0.2,0,0.4,0,0.5,0.1C155.9,716.4,156.1,716.8,156.1,717.4z M174.2,692.3c0.1,0.7-0.2,1.5-0.6,2.2
		c-0.4,0.7-1,1.3-1.7,1.6c-0.6,0.3-1.1,0.3-1.5,0.1s-0.7-0.7-0.7-1.3c-0.1-0.7,0.2-1.5,0.6-2.2c0.7-1.1,1.7-1.8,2.6-1.8
		c0.2,0,0.4,0,0.6,0.2C173.9,691.2,174.2,691.7,174.2,692.3z M152.9,708.8c-12.6-7.5-21.5-32.4-21.5-60.7c0-28.4,8.9-53.2,21.5-60.7
		c12.6,7.4,21.6,32.3,21.6,60.7S165.5,701.3,152.9,708.8z M146.5,730.4c0.3-1.2,1.2-2.1,2-2.1c0.1,0,0.2,0,0.3,0
		c0.4,0.1,0.7,0.4,0.9,0.9c0.2,0.6,0.2,1.2,0,1.9s-0.6,1.3-1,1.6s-0.9,0.5-1.2,0.4c-0.4-0.1-0.7-0.4-0.9-0.9
		C146.3,731.8,146.3,731.1,146.5,730.4z"/>
	<path class="st1" d="M128.2,570.5c1.7,0.8,3.7,1.4,5.7,1.4c2.6,0,5.2-0.9,7.2-3c3.2-3.5,3.5-8.3,3.7-12.5v-0.3
		c0.3-4.4,0.2-8.8-0.2-13.1c-0.8-9.4-2.9-18.5-6.2-27.1c0.3-1.7,0.5-3.8,0.7-5.9c1-0.7,1.7-1.9,1.7-3.1V242.6
		c0-11.5,3.3-12.8,3.3-12.8c0.2,0,0.6,0.2,1.1,0.6l0.3,0.2l6.3-5.2l-0.3-0.3c-2.2-2.1-4.7-3.3-7.4-3.3c-3.5,0-11.6,2-11.6,20.7V504
		l-1.1-0.1c-0.2,0-0.4,0.2-0.5,0.4c-0.3,2.5-3.7,22.7-4.8,27.8c-0.9,4.5-1.9,9.2-3,13.7c-0.2,0.8-0.4,1.6-0.6,2.4
		c-0.9,3.7-1.9,7.6-1.5,11.4C121.6,564.5,124.2,568.5,128.2,570.5z M134.6,536.5c0.1,0.3,0.1,0.7,0.2,1l0.2,1c0.5,4,0.8,8,0.8,11.9
		c0,2-0.1,4-0.2,6c-0.1,0.9-0.1,1.9-0.2,2.8l-0.1,1c0,0.3-0.1,0.5-0.2,0.8c-0.1,0.4-0.2,0.7-0.3,1.1v0.1c0,0,0,0.1-0.1,0.1l0,0
		c-0.1,0.1-0.2,0.3-0.2,0.4l-0.1,0.2c-0.1,0.1-0.1,0.1-0.2,0.2l0,0l0,0h-0.1h-0.2l0,0l0,0l0,0l0,0l-0.2-0.1c-0.2,0-0.3-0.1-0.5-0.1
		l0,0h-0.1c-0.3-0.2-0.6-0.3-0.8-0.5l-0.3-0.3c-0.1,0-0.1-0.1-0.1-0.1l-0.1-0.1c0-0.1-0.1-0.2-0.2-0.3c-0.1-0.1-0.2-0.2-0.2-0.3
		c0,0-0.1-0.2-0.2-0.3c-0.1-0.4-0.3-0.8-0.4-1.3l-0.1-0.3c0-0.1,0-0.2,0-0.2c0-0.1,0-0.2,0-0.3c-0.1-1,0-2,0.1-2.8l0.1-0.7
		c0.1-0.5,0.2-1,0.3-1.5c0.3-1.3,0.6-2.6,0.9-3.9c0.2-0.7,0.3-1.4,0.5-2.1C133,544.1,133.8,540.3,134.6,536.5z"/>
</g>
<g>
	<path class="st2" d="M145.9,271.9h-29.2c-5.5,0-10-4.5-10-10v-188c0-5.5,4.5-10,10-10h29.2c5.5,0,10,4.5,10,10v188
		C155.9,267.4,151.4,271.9,145.9,271.9z"/>
	<path class="st3" d="M153.7,271.9h-29.2c-5.5,0-10-4.5-10-10v-188c0-5.5,4.5-10,10-10h29.2c5.5,0,10,4.5,10,10v188
		C163.7,267.4,159.2,271.9,153.7,271.9z"/>
	<rect x="135.8" y="226.4" class="st4" width="9.8" height="44.8"/>
	<g>
		<path class="st5" d="M185.8,48C185.8,47.9,185.8,47.9,185.8,48C185.9,47.9,185.9,47.9,185.8,48c0.2-0.2,0.3-0.4,0.4-0.5
			C186.1,47.6,186,47.8,185.8,48c2.1-0.4,4-2.6,3.9-5.3c-0.1-2.8-1.8-5.4-4.2-5.3c-3.4,0.2-6.1,2.8-7.5,6.6
			c-1.4,3.7-1.7,7.6-2.1,11.6c-0.4,3.8-0.7,7.7-1,11.5c-0.1,1-0.2,2-0.3,2.9c0,0.1,0,0.2,0,0.3v0.1c-0.1,0.5-0.1,1-0.2,1.5
			c-0.2,1.9-0.5,3.7-0.8,5.6s-0.7,3.8-1.2,5.6c-0.2,0.9-0.4,1.7-0.7,2.6c-0.1,0.4-0.3,0.8-0.4,1.2c-0.1,0.2-0.2,0.5-0.2,0.7
			c-0.5,1.4-1.1,2.8-1.7,4.1c-0.3,0.6-0.6,1.3-1,1.9c-0.2,0.3-0.3,0.6-0.5,0.9c-0.1,0.1-0.1,0.2-0.2,0.3c-0.8,1.2-1.6,2.4-2.5,3.5
			c-4.1,6.5-17,12.1-17,8.2c0-3.8-3.5-8-7.9-8l0,0c-4.3,0-7.9,3.6-7.9,8v19.4c0,4.4,3.5,8,7.9,8l0,0c4.3,0,7.9-3.6,7.9-8v-5.6
			c8.7-1.5,17-6.9,23.1-14.9c4.1-5.3,7-11.6,8.9-18.6c2-7.7,2.7-15.8,3.4-23.8c0.2-2.2,0.4-4.3,0.6-6.5c0-0.2,0-0.4,0.1-0.6
			c0-0.1,0-0.2,0-0.3c0-0.4,0.1-0.8,0.1-1.2c0.1-1,0.2-2,0.4-3c0.1-0.8,0.3-1.5,0.5-2.2c0-0.1,0.1-0.2,0.1-0.3
			C185.5,48.6,185.6,48.3,185.8,48C185.7,48.1,185.7,48.1,185.8,48C185.8,48,185.8,47.9,185.8,48C185.8,47.9,185.8,47.9,185.8,48z
			 M167.6,94.9l-0.1,0.1C167.3,95.5,167.5,95.2,167.6,94.9z"/>
		<path class="st6" d="M141.5,126.7c0,0,0.6-5.6,6.7-6.1"/>
		<path class="st6" d="M142.6,103.2c0,0,4,4,6,4.3"/>
	</g>
	<g>
		<path class="st5" d="M185.8,156.5C185.8,156.5,185.8,156.4,185.8,156.5C185.9,156.4,185.9,156.4,185.8,156.5
			c0.2-0.2,0.3-0.4,0.4-0.5C186.1,156.2,186,156.3,185.8,156.5c2.1-0.4,4-2.6,3.9-5.3c-0.1-2.8-1.8-5.4-4.2-5.3
			c-3.4,0.2-6.1,2.8-7.5,6.6c-1.4,3.7-1.7,7.6-2.1,11.6c-0.4,3.8-0.7,7.7-1,11.5c-0.1,1-0.2,2-0.3,2.9c0,0.1,0,0.2,0,0.3v0.1
			c-0.1,0.5-0.1,1-0.2,1.5c-0.2,1.9-0.5,3.7-0.8,5.6c-0.3,1.9-0.7,3.8-1.2,5.6c-0.2,0.9-0.4,1.7-0.7,2.6c-0.1,0.4-0.3,0.8-0.4,1.2
			c-0.1,0.2-0.2,0.5-0.2,0.7c-0.5,1.4-1.1,2.8-1.7,4.1c-0.3,0.6-0.6,1.3-1,1.9c-0.2,0.3-0.3,0.6-0.5,0.9c-0.1,0.1-0.1,0.2-0.2,0.3
			c-0.8,1.2-1.6,2.4-2.5,3.5c-4.1,6.5-17,12.1-17,8.2c0-3.8-3.5-8-7.9-8l0,0c-4.3,0-7.9,3.6-7.9,8v19.4c0,4.4,3.5,8,7.9,8l0,0
			c4.3,0,7.9-3.6,7.9-8v-5.6c8.7-1.5,17-6.9,23.1-14.9c4.1-5.3,7-11.6,8.9-18.6c2-7.7,2.7-15.8,3.4-23.8c0.2-2.2,0.4-4.3,0.6-6.5
			c0-0.2,0-0.4,0.1-0.6c0-0.1,0-0.2,0-0.3c0-0.4,0.1-0.8,0.1-1.2c0.1-1,0.2-2,0.4-3c0.1-0.8,0.3-1.5,0.5-2.2c0-0.1,0.1-0.2,0.1-0.3
			C185.5,157.1,185.6,156.8,185.8,156.5C185.7,156.7,185.7,156.6,185.8,156.5L185.8,156.5L185.8,156.5z M167.6,203.5l-0.1,0.1
			C167.3,204.1,167.5,203.7,167.6,203.5z M185.8,156.5c-0.1,0-0.1,0,0-0.1l0,0C185.8,156.5,185.8,156.5,185.8,156.5z"/>
		<path class="st6" d="M141.5,235.2c0,0,0.6-5.6,6.7-6.1"/>
		<path class="st6" d="M148.6,216.1c-2.1-0.3-6-4.3-6-4.3"/>
	</g>
</g>
<g id="leash">
	<g>
		<path class="st7" d="M158.6,212.7l5.3-4.6c-1.9-2-4.2-3.1-6.7-3.1c-3.1,0-10.4,2-10.4,20.3v264.1h6.9V225.3
			c0-10.9,2.8-13.2,3.5-13.2C157.6,212,158.1,212.3,158.6,212.7z"/>
		<path class="st7" d="M165.1,221.2c-1.3,1.1-2.4,1.8-3.3,2.4v341.3c0,1.9,1.5,3.5,3.5,3.5s3.5-1.6,3.5-3.5v-343
			c0-1.4-0.1-2.7-0.3-4C167.6,218.9,166.5,220,165.1,221.2z"/>
		<polyline class="st8" points="161.9,223.5 161.9,229.1 168.8,224.2 168.8,217.9 		"/>
	</g>
	<g>
		<path class="st9" d="M165.1,693.3c0,0-4.8,7.7-9.3,16.9s-3.7,15.9-3.7,15.9l4.7,10.5l7.1-8.8c0,0,1-6.5,3.9-14.1
			c2.7-7,19.7-34.3,19.7-34.3L165.1,693.3z M162.9,714c-0.4,1.6-1.6,2.6-2.7,2.3c-1-0.3-1.6-1.8-1.1-3.4c0.4-1.6,1.6-2.6,2.7-2.3
			C162.8,710.9,163.3,712.4,162.9,714z M165.3,703.6c-0.9-0.6-1.1-2.1-0.3-3.6c0.8-1.4,2.2-2.1,3.2-1.6c0.9,0.6,1.1,2.1,0.3,3.6
			S166.3,704.2,165.3,703.6z"/>
		<path class="st2" d="M169.4,567.2c-1.9,0-3.8,0.4-5.6,1.3c12.8,5.9,22.4,31.5,22.4,62.2s-9.6,56.3-22.4,62.2
			c1.8,0.8,3.7,1.3,5.6,1.3c15.5,0,28-28.4,28-63.5S184.9,567.2,169.4,567.2z M185.4,677.4c-0.9,1.7-2.6,2.5-3.7,1.8
			c-1.1-0.6-1.2-2.5-0.3-4.2s2.6-2.5,3.7-1.8C186.2,673.8,186.4,675.7,185.4,677.4z"/>
		<path class="st9" d="M144.9,630.7c0-30.7,9.6-56.3,22.4-62.2c-1.8-0.8-4.5-1.3-6.5-1.3c-15.5,0-28,28.4-28,63.5s12.5,63.5,28,63.5
			c1.9,0,4.7-0.4,6.5-1.3C154.5,687,144.9,661.4,144.9,630.7z"/>
	</g>
	<path class="st10" d="M158.9,527.3c-0.7-9.3-2.7-18.4-5.8-27.1c0.5-3.1,0.3-8.3,0.7-11.5H147c-0.3,2.5-1.1,16-2.1,21.2
		c-0.9,4.6-4.2,15.8-5.2,20.3c-1,4.4-2.4,9.1-2,13.7c0.4,4.4,2.4,8.5,6.4,10.6c3.8,2,8.5,1.9,11.5-1.6c3-3.4,3.2-8.2,3.4-12.5
		C159.3,536,159.2,531.7,158.9,527.3z M147,547C146.9,547,146.9,546.9,147,547L147,547z M149,548L149,548L149,548z M149.1,548
		C148.9,548.1,149,548,149.1,548L149.1,548z M149.4,547.9L149.4,547.9L149.4,547.9L149.4,547.9L149.4,547.9z M151.2,540.8
		c-0.1,0.9-0.1,1.9-0.2,2.8c0,0.2,0,0.4-0.1,0.6l0,0c0,0.1,0,0.3-0.1,0.3c0,0.3-0.1,0.5-0.2,0.8c-0.1,0.4-0.2,0.7-0.3,1.1l0,0
		c0,0,0,0.1-0.1,0.3v0.1v-0.1l0,0c-0.1,0.2-0.2,0.4-0.3,0.5l0,0c-0.1,0.1-0.2,0.2-0.2,0.2s-0.1,0-0.1,0.1c0,0,0,0,0.1,0h-0.1
		c-0.1,0-0.1,0.1-0.2,0.1l0,0l0,0c0,0-0.1,0,0,0c-0.1,0-0.1,0-0.2,0.1c-0.1,0-0.1,0-0.2,0c0.1,0,0.1,0.1-0.1,0l0,0l0,0h-0.1
		c0,0,0,0-0.1,0c-0.2-0.1-0.4-0.1-0.6-0.2H148c0,0-0.1,0-0.1-0.1c-0.3-0.2-0.6-0.3-0.8-0.5l0,0c-0.1-0.1-0.1-0.1-0.2-0.2
		c-0.1-0.1-0.2-0.2-0.3-0.3c0,0-0.1-0.1-0.1-0.2c0-0.1-0.4-0.5-0.4-0.6c0,0-0.1-0.2-0.2-0.3v-0.1c-0.1-0.4-0.3-0.9-0.3-1.3
		c0-0.1,0-0.2-0.1-0.3c0,0.1,0-0.4-0.1-0.5c-0.1-1,0-1.9,0.1-2.9c0,0,0-0.1,0-0.2c0-0.1,0.1-0.4,0.1-0.5c0.1-0.5,0.2-1,0.3-1.5
		c0.4-2,0.9-4,1.3-6.1c0.9-4.2,1.8-8.4,2.6-12.6c0.1-0.4,0.1-0.7,0.2-1.1c0.1,0.6,0.2,1.2,0.3,1.8c0.1,0.5,0.2,1.1,0.2,1.6
		c0,0.2,0.1,0.4,0.1,0.6c0,0.1,0,0.3,0.1,0.4c0.5,4,0.8,8,0.8,12C151.4,536.8,151.3,538.8,151.2,540.8z"/>
	<line class="st6" x1="153" y1="500.2" x2="150.1" y2="517.9"/>
</g>
<path class="st1" d="M130.1,1055.6c7.1,4.3,15.8,6.9,25.4,8l0,0l0,0c2.4,0.3,4.8,0.5,7.3,0.6c2.5,20.8,6.2,38.6,11.5,39.6
	c4.6,0.8,7.9-17.2,10.4-40.9c3.1-0.5,6.3-1,9.5-1.7c6.9,4.8,15.6,14.5,20.2,33.9c4.2,17.8,13.5,67.2,22.5,112.8
	c0.1,3.6,0.3,7.6,0.5,12.1h322c-14.4-32.2-44.8-60.8-44.8-60.8s0.1,0.4,0.4,1.2c-9-14.5-29.7-36.9-79.8-30.4
	c-18.5,2.4-60.6-6-63.7-6.5c-31.8-5.2-45-13.5-45-13.5c0.3,0.2,0.5,0.4,0.7,0.6c-10.8-7-20.2-15.9-27.7-27
	c2.8-17.4,1.4-44.1-1.4-64.4c-0.5-9.8-2.8-19.4-5.7-25.9c-6.9-15.3-31.6-21.4-31.6-21.4c-3.8-9.9-9-15.8-14.9-19
	c-16.4-10.9-39.3-8.3-50.1-3.3c-3,1.4-5.8,4.4-8.5,8.2c-5.4,2-16.1,6.9-21.3,15.8c-5.6,9.6-7.3,19.5-7.8,23.2
	c-5.5,4.8-13.2,10.5-25.6,18.1C109,1029.3,109.8,1043.3,130.1,1055.6z M273.4,1025c0.1,0.3,0.1,0.6,0.2,0.9
	C273.5,1025.6,273.4,1025.4,273.4,1025L273.4,1025z"/>
<g>
	<rect x="268.2" y="62.1" class="st11" width="314.5" height="660.4"/>
	<rect x="250.5" y="62.1" class="st2" width="18.1" height="660.4"/>
	<g>
		<g>
			<path class="st12" d="M309.8,617c-14.3-4.9-28-13.7-39.7-27.3v30c27.2,25.1,61.1,32.3,92.4,23.7c1.6,1.6,3.1,3.1,4.8,4.6
				c19.3,17,43.2,23.6,65.2,19.4c24.2-4.6,46.3-23.2,57.2-58.5c9.9-32.1,9.5-67.9,6.8-102.5c11.8-4.1,23-11.2,31.5-24.3
				c12.2-18.8,15-48.3,15.4-73.9c0.5-31.9-3.2-64.2-9-94.7c-1.2-6.5-2.6-13.1-4.1-19.7c0.1,0,0.3-0.1,0.4-0.1
				c17.7-5,36.6,4.9,51.9,21.4v-29.7c-8.1-6.9-16.7-12.1-26-15.1c-10.6-3.4-21.8-4.1-32.4-0.4c-13.9-50.1-35.5-97.1-66.2-123
				c-11.5-9.7-24.2-15.7-37-19.9c-14.2-4.6-28.9-6.8-43.4-5.4c-25.2,2.3-49.7,14.5-71.3,34.7c-13.2,12.4-25.3,27.4-36.2,44.4V238
				c29.2-53,68.8-90.7,114.6-91.4c13.9-0.2,27.7,2.7,41.1,8.2c11.5,4.7,19.9,9.5,29.8,19.3c8.3,8.1,15.3,17.5,22.4,29.5
				c7.3,12.2,12.7,23.6,18.4,38.1c4.8,12.3,9,24.7,12.6,37.3c-10.3,8.9-18.7,22.3-24.2,38.7c-13.7,40.7-10.5,89.6-9.1,133.8
				c0.4,11.5,1.3,22.7,2.3,33.8c-8.3,1.5-17.7,2.1-26.2,2.5c-5.6,0.3-11.2,0.4-16.8,0.5c-0.2-3.1-0.4-6.2-0.6-9.2
				c-2-29.3-4.6-58.4-8-87.3c-2.1-17.9-4.5-35.7-7.1-53.4c0.3-0.3,0.6-0.5,0.8-0.8c23.8-22.8,52-64.9,41.5-113.2
				c-4.3-19.9-14.5-38-28.3-41.5c-15.1-3.9-28.9,10.3-36,30.5c-8.5,24.2-6.6,52-2.6,77.8c1.8,11.5,3.7,23,5.6,34.5
				c-7.4,5.7-15.1,10.5-23.1,14.1c-10.5,4.8-20.5,6.6-31.2,9.3c-0.7-1.3-1.6-1.6-2.4-2.9c-19.5-34.4-45.9-55.8-73.4-71.5v27.5
				c20.7,12.5,40.7,28.8,56.5,53.3c-10.3,4.9-19.9,13-26.2,27.1c-8,17.9-7.6,42.8,0.2,60.7c8.3,18.9,22.9,27.9,37.2,21.2
				c14.8-6.9,25.3-27.1,25.5-51.3c0.1-14.6-3.1-28.4-7.8-41c6.4-1.5,12.9-3,19.2-5.4c10-3.8,19.9-9.2,29.2-16.1
				c1.1,7.1,2.1,14.3,3.1,21.5c3.6,27,6.6,54.1,8.8,81.4c1,11.6,2,23.3,2.8,35c-12.6,0.5-25.1,1.5-37.5,4.6
				c-11.6,2.9-23.3,8.6-31.8,21.8c-8.4,13.1-12,31.4-11.9,49.6c0.1,17.3,2.3,37.5,8.2,52.5c0.5,1.2,1,2.4,1.5,3.6
				c-2.3,0.3-4.6,0.4-7,0.5C329.5,621.8,319.9,620.5,309.8,617z M347.1,417c-1.3,16.1-13.1,27.5-22.4,24
				c-9.8-3.7-15.7-21.3-13.3-35.5c2.7-16.3,13.6-23.3,23.8-27.3c1.1-0.4,2.2-0.8,3.3-1.2C344,389,348.3,402.9,347.1,417z
				 M409.9,230.3c2.3-8.3,6.2-16.3,11.6-20.4c4.7-3.5,9.7-3.1,13.7,0.5c9.8,9,14.1,28,11.3,45.2c-3.5,21.4-14.6,38.2-25.7,50.8
				c-1.8,2.1-3.7,4.1-5.6,6c-0.3-1.9-0.6-3.8-0.9-5.7C410.1,283,403.2,254.4,409.9,230.3z M491.3,379c0.9-19.8,3.6-39.8,10.8-56.5
				c3.5-8.2,8-14.8,13.1-19.6c2.2,9.7,4.1,19.6,5.8,29.9c1.3,7.7,2.4,15.5,3.3,23.3c0.4,3.6,0.8,7.2,1.2,10.8c0.1,1,0.2,2.1,0.3,3.1
				c0,0.1,0,0.2,0,0.4c0.2,2.1,0.3,4.1,0.5,6.2c0.9,13.9,1.3,28,0.6,42c-0.1,1.4-0.1,2.8-0.2,4.2c0,0.5-0.2,2.5-0.2,3.4
				c-0.1,0.8-0.3,2.8-0.3,3.3c-0.2,1.6-0.4,3.2-0.6,4.7c-0.7,5.3-1.7,10.4-2.8,15.5c-0.1,0.3-0.1,0.5-0.2,0.7v0.1
				c-0.3,1.1-0.6,2.2-1,3.3c-0.5,1.4-0.9,2.7-1.5,4.1c-0.3,0.7-1.5,3.2-1.4,3.1c-1.2,2.2-2.6,4.2-4,6.1c-0.1,0.1-0.3,0.4-0.4,0.5
				c-0.2,0.3-0.4,0.5-0.7,0.8c-1,1-1.9,2-3,3c-1.8,1.6-3.6,3.1-5.5,4.3c0-0.1-1.8,1.1-2,1.2c-1.2,0.7-2.5,1.3-3.7,1.9
				c-1.6,0.8-3.3,1.5-5,2.1c-1.1-11.7-2-21.6-2.4-34.8C491.3,423.8,490.3,401.4,491.3,379z M467.8,512.1c4-0.4,8.2-0.9,12.4-1.6
				c1.3,15.9,2.2,31.9,1.3,48.7c-0.9,18.3-4.4,37.3-11.9,52.4c-3.4,6.8-7.4,12.4-11.2,16.2c-2,2-4.2,3.9-6.3,5.5
				c-2,1.5-3.7,2.6-6.5,4c-10.9,5.5-20.7,6.8-32.3,5.6c-5.6-0.6-9.7-1.5-15.5-3.7c-2.6-1-5.2-2.1-7.8-3.3c-1.3-0.6-2.5-1.3-3.7-2
				c-0.1,0-0.2-0.1-0.2-0.1c22.3-12.7,43-36,48.7-73.4c2.3-15.1,2.4-30.9,1.7-46.6C447,513.5,457.4,513.2,467.8,512.1z M354.1,557.6
				c0-0.7,0.1-1.5,0.1-2.2c0-0.3,0.1-1.2,0.2-1.3c0.3-2.2,0.6-4.4,1-6.5c0.5-2.4,0.7-3.3,1-4.3c2.2-7,5.1-11.9,9.3-15.9
				c9.1-8.5,20.3-10.1,29.7-11.4c8.2-1.1,16.4-1.6,24.7-1.9c0.2,6.8,0.3,13.5,0.2,20.2c-0.2,11.4-1.2,23-4.6,33.2
				c-2.9,8.7-7,15.9-11.7,22.3c-9.9,13.1-22.7,20.7-35.1,25.6c-0.8,0.3-1.6,0.6-2.3,0.9c-0.3-0.4-0.6-0.9-0.9-1.3
				c-0.8-1.2-1.6-2.4-2.3-3.6c-0.3-0.5-1.7-3.1-1.7-3.1c-1.1-2.4-2.1-4.9-3-7.5c-0.1-0.3-0.2-0.6-0.3-0.8c0.1,0.2,0,0.1-0.1-0.2
				s-0.2-0.6-0.3-0.9c0.1,0.2,0.1,0.4,0.2,0.6c-0.1-0.3-0.2-0.7-0.2-0.9c-0.5-2.5-1-4.9-1.4-7.4c-1.6-9.4-2.6-17.6-2.6-27.2
				C354,562,354,559.8,354.1,557.6z"/>
			<path class="st12" d="M582.7,544.8c-6.8-4.6-12.2-12-15.9-22.7c-5-14.5-5.2-32.2-1.2-48.6c3.3-13.6,9.1-26.4,17.1-33.4v-27.6
				c-2.2,1-4.3,2.3-6.4,3.9c-13.5,10.1-23.2,33.5-27.4,55.2c-3.9,20.2-2.8,41.9,3,60.8c6,19.3,17.7,33.4,30.8,39.7L582.7,544.8
				L582.7,544.8z"/>
		</g>
		<g>
			<path d="M326.3,355.5c0,0,8,9.4,12.2,21.9c0,0-5.3,1.4-8.6,3.5c0,0,1.7-5.6,0.8-11.3S326.3,355.5,326.3,355.5z"/>
			<path d="M346,349.1c0,0,5.5,10.6,9.8,23.3l6.7-1.5c0,0-7-6.9-10.1-11.5C349.3,354.9,346,349.1,346,349.1z"/>
			<polygon points="404.2,351.2 419.2,338.4 422.3,360.9 			"/>
			<path d="M400.1,325.7l14.9-13.4c0,0-1-7.3-1.6-9.6c-0.5-2.3-2.5,8.9-4.9,12.3C406.3,318.4,400.1,325.7,400.1,325.7z"/>
			<path d="M418.8,488.7l1.4,25.7L407,515c0,0,5.7-2.4,8.1-8.8C417.5,499.7,418.8,488.7,418.8,488.7z"/>
			<path d="M435,488.2l1.5,25.6l10.4-0.3c0,0-4.6-3-7.5-9.2C436.5,498.3,435,488.2,435,488.2z"/>
			<path d="M366.4,616.3c0,0,13.7,14.1,19.7,17.7c0,0,6.2-2.8,12.4-8.9c0,0-13.2,1.2-18.9-1.6C373.9,620.7,366.4,616.3,366.4,616.3z
				"/>
			<path d="M346.8,620.7c0,0,6.1,12.5,15.7,22.5c0,0-11.6,3.2-20.4,3.6c0,0,8-6.8,7.8-13.7C349.6,626.3,346.8,620.7,346.8,620.7z"/>
			<path d="M515,303c0,0,11-9.4,15.5-9.1c0,0,0.1,0.6,0.4,1.6c0.8,3.3,2.6,11,3.2,15.1c0,0-4.9-7.8-10.6-7.9
				C517.7,302.7,515,303,515,303z"/>
			<path d="M509,278.6c0,0,9.3-8,15.6-8.6c0,0-0.3-0.9-0.7-2.3c-0.9-3-2.4-8.1-3.5-11.3c0,0-4.3,7.5-7,12.8
				C510.7,274.5,509,278.6,509,278.6z"/>
			<path d="M480.3,510.6l16.3-4l0.6,9.7c0,0-5.9,1.2-9.5,11.7s-5.7,16.1-5.7,16.1L480.3,510.6z"/>
			<path d="M476.6,467.9l1.4,17.5c0,0,3.3-0.7,8.6-1.9c5.3-1.2,7.7-2.6,7.7-2.6s-10.6-0.6-13.1-3.2S476.6,467.9,476.6,467.9z"/>
		</g>
		<path class="st13" d="M300.5,382.7c-8,17.9-7.6,42.8,0.2,60.7c8.3,18.9,22.9,27.9,37.2,21.2c14.8-6.9,25.3-27.1,25.5-51.3
			 M377.1,339.8c15.7-7.1,30.4-18.5,43.6-33.3c11.1-12.6,22.2-29.4,25.7-50.8c2.9-17.2-1.5-36.2-11.3-45.2c-3.9-3.6-9-4.1-13.7-0.5
			c-5.3,4-9.2,12-11.6,20.4 M434.3,479.2c-2-29.3-4.6-58.4-8-87.3 M434.8,560.3c2.1-13.5,2.4-27.5,1.9-41.6 M524.2,269.9
			c-13.8-51-34.8-96.6-66-123c-11.5-9.7-24.2-15.7-37-19.9c-14.2-4.6-28.9-6.8-43.4-5.4c-25.2,2.3-49.7,14.5-71.3,34.7
			c-19.4,18.2-36.6,42.3-50.9,69.6 M467.8,512.1c20.5-2.2,44.8-6.3,60.2-30c12.2-18.8,15-48.3,15.4-73.9c0.5-31.9-3.2-64.2-9-94.7
			c-1.3-7-2.5-12.7-4.1-19.7 M481.6,559.2c-0.9,18.3-4.4,37.3-11.9,52.4c-3.4,6.8-7.4,12.4-11.2,16.2c-2,2-4.2,3.9-6.3,5.5
			c-2,1.5-3.7,2.6-6.5,4c-10.9,5.5-20.7,6.8-32.3,5.6c-5.6-0.6-9.7-1.5-15.5-3.7c-2.6-1-5.2-2.1-7.8-3.3c-1.3-0.6-2.5-1.3-3.7-2
			c-0.7-0.4-1.4-0.8-2-1.2c-0.2-0.1-2.4-1.5-1.2-0.8c-4.6-3.1-9.1-6.9-13.2-11.4c-0.5-0.6-1.1-1.2-1.6-1.8c0.3,0.3,1.1,1.3-0.1-0.2
			c-0.9-1.1-1.7-2.3-2.5-3.4c-0.8-1.2-1.6-2.4-2.3-3.6c-0.4-0.6-2.4-4.5-1.4-2.5c-1.2-2.5-2.3-5.3-3.3-8.1c-0.2-0.6-0.4-1.2-0.6-1.9
			c0.7,2.5,0.1,0.4-0.1-0.3c-0.5-2.5-1-4.9-1.4-7.4c-1.6-9.4-2.6-17.6-2.6-27.2c0-2.2,0.1-4.3,0.2-6.5c0-0.9,0.1-1.9,0.2-2.8
			c-0.2,1.7,0.1-0.5,0.1-0.7c0.3-2.2,0.6-4.4,1-6.5c0.5-2.4,0.7-3.3,1-4.3c2.2-7,5.1-11.9,9.3-15.9 M581.8,284.6
			c-7.8-6.5-16.2-11.4-25-14.3c-13.4-4.3-27.6-4.3-40.5,3.5c-13.6,8.2-24.6,23.9-31.4,44c-13.7,40.7-10.5,89.6-9.1,133.8
			c0.4,11.9,1.2,22.3,2.2,33.7 M576.3,416.3c-13.5,10.1-23.2,33.5-27.4,55.2c-3.9,20.2-2.8,41.9,3,60.8
			c5.7,18.2,16.4,31.7,28.6,38.6 M577.1,539.9c-4.2-4.4-7.6-10.3-10.2-17.9c-5-14.5-5.2-32.2-1.2-48.6c3-12.6,8.3-24.6,15.4-31.8
			 M494.3,479.9c-1-11.3-1.9-20.9-2.3-33.8c-0.7-22.4-1.6-44.8-0.7-67.2c0.9-19.8,3.6-39.8,10.8-56.5c6.8-15.8,17-25.4,28.8-28.7
			c17-4.8,35,4.1,49.9,19.3 M432.6,667.4c24.2-4.6,46.3-23.2,57.2-58.5c9.9-32.1,9.5-67.8,6.8-102.3 M381.4,493.4
			c-11.6,2.9-23.3,8.6-31.8,21.8c-8.4,13.1-12,31.4-11.9,49.6c0.1,17.3,2.3,37.5,8.2,52.5 M309.8,617c10.1,3.4,19.7,4.8,30.6,4.4
			 M508.9,278.6c-3.6-12.5-7.7-24.8-12.5-36.9c-5.7-14.5-11.1-25.9-18.4-38.1c-7.2-12-14.1-21.4-22.4-29.5
			c-9.9-9.7-18.3-14.5-29.8-19.3c-13.5-5.5-27.2-8.5-41.1-8.2c-46,0.8-85.8,38.8-115,92.2 M451.8,487.9c8.6-0.4,17.9-1.1,26.2-2.5
			c2.3-0.4,4.4-0.8,6.5-1.4c5-1.2,9.9-2.9,14.8-5.2c1.3-0.6,2.5-1.2,3.7-1.9c0.3-0.2,3.1-1.9,1.6-0.9c2-1.3,4-2.9,5.9-4.6
			c1-0.9,2-1.9,3-3c0.4-0.4,0.8-0.8,1.1-1.3c-1.2,1.5-0.3,0.3,0,0c1.5-2.1,3-4.3,4.3-6.7c-1.1,2,0.8-1.7,1.1-2.6
			c0.5-1.3,1-2.7,1.5-4.1c0.4-1.1,0.7-2.2,1-3.3c0.5-1.7-0.5,2.2,0.2-0.8c1.2-5.1,2.1-10.2,2.8-15.5c0.2-1.6,0.4-3.2,0.6-4.7
			c0.1-0.6,0.5-4.8,0.3-3.2c-0.1,1.6,0.2-2.7,0.2-3.4c0.1-1.4,0.2-2.8,0.2-4.2c0.7-14,0.4-28.1-0.6-42c-0.1-2.1-0.3-4.1-0.5-6.2
			s0.2,1.8,0-0.4c-0.1-1-0.2-2.1-0.3-3.1c-0.3-3.6-0.7-7.2-1.2-10.8c-0.9-7.8-2-15.6-3.3-23.3c-1.8-11-3.3-19.5-5.7-29.9
			 M404.2,351.2c0,0,8.3,67.4,13.6,121.3s-2,95-2,95c-2.9,8.7-6.9,16-11.7,22.3 M461.5,224.5c-4.3-19.9-14.5-38-28.3-41.5
			c-15.1-3.9-28.9,10.3-36,30.5c-8.5,24.2-6.6,52-2.6,77.8 M311.4,405.5c-2.4,14.2,3.5,31.8,13.3,35.5c9.4,3.5,21.1-7.9,22.4-24
			 M270.2,274.7c0,0,29.3,16.6,46.9,35.7c20.7,22.5,31.3,42.3,35.2,50.4"/>
	</g>
	<g>
		<g>
			<path d="M296.7,663.4c-5.2,13.4-10.7,26.6-16.6,39.7c-0.8,1.8,1.8,3.3,2.6,1.5c4.6-9.6,10.1-18.8,16.4-27.4
				c-0.9-0.4-1.8-0.8-2.8-1.2c-3.3,11.4-7.6,22.4-13,33c-0.9,1.7,1.6,3.2,2.6,1.5c7.9-12.8,15.9-25.5,23.8-38.3
				c-0.9-0.4-1.8-0.8-2.8-1.2c-3,10.8-7.5,21.1-13.4,30.7c-0.9,1.5,1.1,3,2.4,1.8c6.2-5.7,12.7-10.9,19.7-15.6
				c-0.6-0.8-1.2-1.6-1.8-2.4c-6.2,5.2-12.4,10.5-18.6,15.7c-1,0.8-0.2,2.7,1.1,2.6c23.6-2.1,47.2-4.3,70.8-6.4
				c6.7-0.6,13.4-1.2,20.1-1.8c1.9-0.2,1.9-3.2,0-3c-23.6,2.1-47.2,4.3-70.8,6.4c-6.7,0.6-13.4,1.2-20.1,1.8
				c0.4,0.9,0.7,1.7,1.1,2.6c6.2-5.2,12.4-10.5,18.6-15.7c1.3-1.1-0.4-3.3-1.8-2.4c-7.2,4.8-13.9,10.2-20.3,16.1
				c0.8,0.6,1.6,1.2,2.4,1.8c6-9.8,10.6-20.3,13.7-31.4c0.5-1.7-1.9-2.6-2.8-1.2c-7.9,12.8-15.9,25.5-23.8,38.3
				c0.9,0.5,1.7,1,2.6,1.5c5.5-10.8,9.9-22.1,13.3-33.7c0.5-1.7-1.8-2.5-2.8-1.2c-6.3,8.6-11.7,17.8-16.4,27.4
				c0.9,0.5,1.7,1,2.6,1.5c6-13.3,11.6-26.8,16.9-40.4C300.4,662.4,297.4,661.6,296.7,663.4L296.7,663.4z"/>
		</g>
	</g>
</g>
</svg>
