<?xml version="1.0" encoding="utf-8"?>
<!-- Generator: Adobe Illustrator 24.0.1, SVG Export Plug-In . SVG Version: 6.00 Build 0)  -->
<svg version="1.1" id="Layer_1" xmlns="http://www.w3.org/2000/svg" xmlns:xlink="http://www.w3.org/1999/xlink" x="0px" y="0px"
	 viewBox="0 0 1894.1 1221.7" style="enable-background:new 0 0 1894.1 1221.7;" xml:space="preserve">
<style type="text/css">
	.st0{fill:#99D3FF;}
	.st1{fill:#FFFFFF;}
	.st2{fill:#CAEBFF;}
	.st3{fill:none;stroke:#000000;stroke-linecap:round;stroke-linejoin:round;stroke-miterlimit:10;}
	.st4{fill-rule:evenodd;clip-rule:evenodd;fill:#FFFFFF;}

		.st5{fill-rule:evenodd;clip-rule:evenodd;fill:#FFFFFF;stroke:#000000;stroke-linecap:round;stroke-linejoin:round;stroke-miterlimit:10;}
	.st6{font-family:'ArialMT';}
	.st7{font-size:42px;}

		.st8{fill-rule:evenodd;clip-rule:evenodd;fill:#D3923D;stroke:#000000;stroke-linecap:round;stroke-linejoin:round;stroke-miterlimit:10;}
	.st9{fill:#231F20;}
	.st10{fill:#FFD394;stroke:#000000;stroke-linecap:round;stroke-linejoin:round;stroke-miterlimit:10;}
	.st11{fill:#D3923D;stroke:#000000;stroke-linecap:round;stroke-linejoin:round;stroke-miterlimit:10;}
	.st12{fill:#EADECC;}
	.st13{fill:#E2D1BA;}
	.st14{fill:#FFFFFF;stroke:#000000;stroke-linecap:round;stroke-linejoin:round;stroke-miterlimit:10;}
	.st15{fill:#8A9994;stroke:#000000;stroke-linecap:round;stroke-linejoin:round;stroke-miterlimit:10;}
	.st16{fill:#99846B;}
	.st17{fill:#89725F;}
	.st18{fill:#A8B2AF;}
	.st19{fill:#C8CECC;}
	.st20{fill:#A8B2AF;stroke:#000000;stroke-linecap:round;stroke-linejoin:round;stroke-miterlimit:10;}
	.st21{stroke:#000000;stroke-linecap:round;stroke-linejoin:round;stroke-miterlimit:10;}
	.st22{fill:#C8CECC;stroke:#000000;stroke-linecap:round;stroke-linejoin:round;stroke-miterlimit:10;}
	.st23{fill:#C2CCC9;stroke:#000000;stroke-linecap:round;stroke-linejoin:round;stroke-miterlimit:10;}
	.st24{fill:#CEBB9F;stroke:#000000;stroke-miterlimit:10;}
	.st25{fill:#F7EFEB;stroke:#000000;stroke-linecap:round;stroke-linejoin:round;stroke-miterlimit:10;}
	.st26{fill:none;stroke:#455CFF;stroke-width:1;stroke-linecap:round;stroke-linejoin:round;stroke-miterlimit:10.004;}
	.st27{fill:none;stroke:#455CFF;stroke-linecap:round;stroke-linejoin:round;stroke-miterlimit:10.0034;}
	.st28{fill:#CEBB9F;}
	.st29{fill:#C06133;stroke:#000000;stroke-linecap:round;stroke-linejoin:round;stroke-miterlimit:10;}
	.st30{fill:#EA7547;stroke:#000000;stroke-linecap:round;stroke-linejoin:round;stroke-miterlimit:10;}
	.st31{fill:#D22031;stroke:#000000;stroke-linecap:round;stroke-linejoin:round;stroke-miterlimit:10;}
	.st32{fill:#F5C6C2;stroke:#000000;stroke-linecap:round;stroke-linejoin:round;stroke-miterlimit:10;}
	.st33{fill:#112061;stroke:#000000;stroke-linecap:round;stroke-linejoin:round;stroke-miterlimit:10;}
	.st34{fill:#F1BE54;stroke:#000000;stroke-linecap:round;stroke-linejoin:round;stroke-miterlimit:10;}
	.st35{fill:#EA7547;stroke:#000000;stroke-width:0.9883;stroke-linecap:round;stroke-linejoin:round;stroke-miterlimit:10;}
	.st36{fill:#FFFFFF;stroke:#000000;stroke-width:0.9883;stroke-linecap:round;stroke-linejoin:round;stroke-miterlimit:10;}
	.st37{stroke:#000000;stroke-width:0.9883;stroke-linecap:round;stroke-linejoin:round;stroke-miterlimit:10;}
	.st38{fill:#F4F5F1;}
	.st39{fill:none;stroke:#000000;stroke-width:0.9883;stroke-linecap:round;stroke-linejoin:round;stroke-miterlimit:10;}
	.st40{fill:#D7E6FF;stroke:#000000;stroke-linecap:round;stroke-linejoin:round;stroke-miterlimit:10;}
	.st41{fill:#F2F7FF;stroke:#000000;stroke-linecap:round;stroke-linejoin:round;stroke-miterlimit:10;}
	.st42{fill:#FFAA05;}
	.st43{opacity:0.3;fill:#6B5C49;enable-background:new    ;}
	.st44{fill-rule:evenodd;clip-rule:evenodd;fill:#FAC165;}
	.st45{fill:#E8A94F;}
	.st46{fill-rule:evenodd;clip-rule:evenodd;fill:#FFF3E6;}

		.st47{fill-rule:evenodd;clip-rule:evenodd;fill:#FAC165;stroke:#000000;stroke-linecap:round;stroke-linejoin:round;stroke-miterlimit:10;}

		.st48{fill-rule:evenodd;clip-rule:evenodd;fill:#EA7547;stroke:#000000;stroke-linecap:round;stroke-linejoin:round;stroke-miterlimit:10;}
	.st49{fill-rule:evenodd;clip-rule:evenodd;stroke:#000000;stroke-linecap:round;stroke-linejoin:round;stroke-miterlimit:10;}
	.st50{fill:#708727;stroke:#000000;stroke-linecap:round;stroke-linejoin:round;stroke-miterlimit:10;}
	.st51{fill:#E2C961;stroke:#000000;stroke-linecap:round;stroke-linejoin:round;stroke-miterlimit:10;}
	.st52{fill:#C1C43B;stroke:#000000;stroke-linecap:round;stroke-linejoin:round;stroke-miterlimit:10;}
	.st53{fill:#FAC165;stroke:#000000;stroke-linecap:round;stroke-linejoin:round;stroke-miterlimit:10;}
	.st54{fill:#8FAD31;stroke:#000000;stroke-linecap:round;stroke-linejoin:round;stroke-miterlimit:10;}
</style>
<rect id="window-frame" x="1285.6" y="89.9" class="st0" width="490.6" height="692"/>
<g>
	<g id="cloud-3">
		<path id="XMLID_1_" class="st1" d="M1810.8,630.9c-8.1-3.4-20.2,0-22.9,8.4c-3.6-3.9-12.1-2.2-14.5,2.6c1.6-4.6-1.3-10.2-5.9-11.5
			c-4.6-1.4-10.8,0.7-12,5.4c2.7-7.4,4.7-15.1,4.6-22.9c-0.1-7.8-2.5-15.8-7.8-21.6s-13.6-9-21.2-7s-13.5,8.9-12.4,16.6
			c-4.1-4.3-11-5.5-16.3-2.8s-8.4,9-7.3,14.8c-1.3-2-3.8-3.2-6.1-2.9c-2.4,0.3-3.6,2.3-4.3,4.6c-0.2-4.6-0.9-9.3-3.3-13.1
			c-2.5-3.9-7-6.6-11.5-5.8s-8.3,5.3-6.2,9.4c-7.6-5.8-18.3-7.3-27.2-3.7c-8.9,3.6-15.4,12.1-16.8,21.5c-0.2-4.8-3-9.5-7.3-11.7
			c-4.3-2.3-9.9-3.1-13.9-0.5c0.7-2.7-0.3-5.8-2.3-7.7c-2.1-1.9-5.2-2.6-7.8-1.7c1.2-5-0.5-11.1-4.6-14c2-4.1,1.5-9.4-1.3-13
			s-8-6.8-12.5-5.9c0.6-7.6-3.8-15.3-10.6-18.6c-6.8-3.3-16.2-1.7-21.8,3.4c-2.9-13-17.1-21.4-30.4-20.6
			c-13.3,0.8-25.2,9.3-33.3,19.8c-8,10.3-12.2,23.3-6.9,35.2c-5.6-2.1-12.6,2.9-12.5,8.9c-2.9-1.3-7.2,3.3-6.1,6.3
			c-8.7-4.4-20-3-27.4,3.4c-7.4,6.3-9.8,17.3-6.8,26.5c-3.6-4.1-9.6-5.8-14.8-4.1c-5.2,1.6-9.4,6.8-10,12.2
			c-2.5-2.1-6.3-2.6-9.3-1.3s-5.5,5.6-5.7,8.9c-4.6-19.3-29.9-27.1-48.5-20.6c-18.7,6.6-33.4,31.1-24.2,39.1
			c9.2,8.1,62.4,9.9,93.6,6.2c3.7,3.6,10.9,3,15.1,0c1.8-1.3,3.3-3.1,5.5-3.9c3.7-1.3,7.5,1.1,11.1,2.6c8.9,3.8,19.8,2,27.1-4.3
			c15.3,13.5,39.5,17.4,56.6,6.4c2.9,3.2,10.9,2.3,15.1,1.5c4.3-0.8,8.4-2.6,12.7-2.8c4.9-0.2,9.6,1.6,14.4,2.5
			c4.8,1,10.3,0.9,14-2.3c15.5,8.4,36.2,7.8,51.8-0.3c8.1,3.5,17.7,3,25.7-0.8c4.3,4.5,12.1,5.4,17,1.6c3.6,2.8,9.1,2.7,12.6-0.2
			c20.9,10.9,48.6,9.7,69.4-1.3c13.3,7.8,31.2,9.3,45.5,3.7c2.6-1,5.2-2.6,7.2-4.6c2.3,1,4.8,1.6,8.2,0.5
			c8.4-2.8,15.5-9.9,17.2-18.5C1823.4,644.1,1818.9,634.3,1810.8,630.9z"/>
		<g>
			<path class="st2" d="M1809.3,669.2c4.7-2.7,5.4-9.4,1.2-12.9c0,0,0,0-0.1-0.1c-15.2-12.5-33.9-10.9-49,3.4
				c-3.1,2.9-7.8,3-10.9,0.2c-22.3-20.5-49.8-22.6-72-2.7c-2.6,2.3-6.4,2.4-9.4,0.6c-2.2-1.3-4.5-1.4-6.7-0.2
				c-2.7,1.4-5.9,1.4-8.4-0.3c-3.9-2.6-8.5-1.5-12.2,2.5c-2.5,2.8-6.7,3.2-9.9,1.3c-6.5-3.9-13.5-4.4-20-0.7c-2.9,1.6-6.5,1.3-9-0.9
				c-16.2-14.3-35.8-15.7-52-1.9c-2.8,2.4-6.8,2.4-9.8,0.3c-3.8-2.7-8.3-2.3-12.4-0.6c-5.7,2.4-11.4,6.9-17.2,6.3
				c-5.2-0.5-10.1-5-15.2-7.1c-3.6-1.5-9.5-3.1-13.9-0.9c-3.1,1.6-6.9,1.1-9.4-1.4c-18.5-18.3-41.9-10.5-58.6,15.5
				c0.4-0.2,0.8-0.4,1.2-0.6c3.7-1.3,7.5,1.1,11.1,2.6c7.3,3.1,16.1,2.5,23-1.4c2.7-1.5,5.9-1.2,8.4,0.5c14.1,9.9,33.6,12.6,48.8,5
				c1.9-0.9,4-1.1,6-0.4c3.7,1.3,9.3,0.6,12.7-0.1c4.3-0.8,8.4-2.6,12.7-2.8c4.9-0.2,9.6,1.6,14.4,2.5c3.7,0.8,7.9,0.9,11.3-0.6
				c2-0.9,4.3-0.8,6.3,0.1c14.1,6.1,31.5,5.5,45.6-0.8c1.7-0.8,3.6-0.8,5.4-0.3c6.2,1.9,13,1.7,19.2-0.3c2.2-0.7,4.6-0.4,6.7,0.7
				c3.4,1.9,7.8,2.3,11.4,0.9c1.8-0.7,3.7-0.7,5.6-0.1c2.3,0.8,4.8,0.7,7.1-0.1c2-0.8,4.2-0.7,6.2,0.2c19.2,8.5,43.3,7.6,62.4-1.2
				c2.2-1,4.7-1,6.9,0.1c12.8,6.2,29,7,42.1,1.8c1.5-0.6,3.1-1.4,4.5-2.3c1.7-1.1,3.7-1.6,5.7-1.3c1.5,0.3,3.3,0.2,5.3-0.5
				C1806.2,670.7,1807.8,670,1809.3,669.2z"/>
			<path class="st2" d="M1378.6,665.3c-2.9-0.9-5.2,0.3-7.4,2.4c-2.4-5-5.6-8.9-8.6-11.4c-14.7-12.1-32.7-11-47.5,2
				c-4.8-0.4-9.8-0.6-14.8-0.6c-0.4-0.3-0.8-0.7-1.2-1c-0.8,4.2-0.2,7.9,2.5,10.2c9.2,8.1,62.4,9.9,93.6,6.2c3.4,3.3,9.8,3,14.1,0.6
				C1400.7,660,1388.6,656.6,1378.6,665.3z"/>
		</g>
		<path id="XMLID_3520_" class="st3" d="M1810.8,630.9c-8.1-3.4-20.2,0-22.9,8.4c-3.6-3.9-12.1-2.2-14.5,2.6
			c1.6-4.6-1.3-10.2-5.9-11.5c-4.6-1.4-10.8,0.7-12,5.4c2.7-7.4,4.7-15.1,4.6-22.9c-0.1-7.8-2.5-15.8-7.8-21.6s-13.6-9-21.2-7
			s-13.5,8.9-12.4,16.6c-4.1-4.3-11-5.5-16.3-2.8s-8.4,9-7.3,14.8c-1.3-2-3.8-3.2-6.1-2.9c-2.4,0.3-3.6,2.3-4.3,4.6
			c-0.2-4.6-0.9-9.3-3.3-13.1c-2.5-3.9-7-6.6-11.5-5.8s-8.3,5.3-6.2,9.4c-7.6-5.8-18.3-7.3-27.2-3.7c-8.9,3.6-15.4,12.1-16.8,21.5
			c-0.2-4.8-3-9.5-7.3-11.7c-4.3-2.3-9.9-3.1-13.9-0.5c0.7-2.7-0.3-5.8-2.3-7.7c-2.1-1.9-5.2-2.6-7.8-1.7c1.2-5-0.5-11.1-4.6-14
			c2-4.1,1.5-9.4-1.3-13s-8-6.8-12.5-5.9c0.6-7.6-3.8-15.3-10.6-18.6c-6.8-3.3-16.2-1.7-21.8,3.4c-2.9-13-17.1-21.4-30.4-20.6
			c-13.3,0.8-25.2,9.3-33.3,19.8c-8,10.3-12.2,23.3-6.9,35.2c-5.6-2.1-12.6,2.9-12.5,8.9c-2.9-1.3-7.2,3.3-6.1,6.3
			c-8.7-4.4-20-3-27.4,3.4c-7.4,6.3-9.8,17.3-6.8,26.5c-3.6-4.1-9.6-5.8-14.8-4.1c-5.2,1.6-9.4,6.8-10,12.2
			c-2.5-2.1-6.3-2.6-9.3-1.3s-5.5,5.6-5.7,8.9c-4.6-19.3-29.9-27.1-48.5-20.6c-18.7,6.6-33.4,31.1-24.2,39.1
			c9.2,8.1,62.4,9.9,93.6,6.2c3.7,3.6,10.9,3,15.1,0c1.8-1.3,3.3-3.1,5.5-3.9c3.7-1.3,7.5,1.1,11.1,2.6c8.9,3.8,19.8,2,27.1-4.3
			c15.3,13.5,39.5,17.4,56.6,6.4c2.9,3.2,10.9,2.3,15.1,1.5c4.3-0.8,8.4-2.6,12.7-2.8c4.9-0.2,9.6,1.6,14.4,2.5
			c4.8,1,10.3,0.9,14-2.3c15.5,8.4,36.2,7.8,51.8-0.3c8.1,3.5,17.7,3,25.7-0.8c4.3,4.5,12.1,5.4,17,1.6c3.6,2.8,9.1,2.7,12.6-0.2
			c20.9,10.9,48.6,9.7,69.4-1.3c13.3,7.8,31.2,9.3,45.5,3.7c2.6-1,5.2-2.6,7.2-4.6c2.3,1,4.8,1.6,8.2,0.5
			c8.4-2.8,15.5-9.9,17.2-18.5C1823.4,644.1,1818.9,634.3,1810.8,630.9z"/>
	</g>
	<g id="cloud-2">
		<path class="st1" d="M1693,330.4c-3.9,0.2-7.8,2-11.7,1.3c-2.1-0.4-3.8-1.4-5.6-2.5c-6.6-3.9-13.2-7.9-19.8-11.8
			c-1.2-0.7-2.5-1.5-4-1.4c-2.2,0.1-3.6,2-5.5,3c-5.2,2.6-10.9-2.3-14.6-6.4c-5.2-5.7-12-11.1-20.2-12.2
			c-3.4-7.6-11.9-12.9-21.8-12.9c-3.2,0-6.3,0.6-9.1,1.6c-12.6-6.8-30-24.6-51.8-20.4c-21.2,4.1-39.5,18.6-35.3,27.4
			c-1.4-0.2-2.9-0.4-4.4-0.4c-10.1,0-18.7,5.7-21.6,13.6c-2.8-1.9-6.4-3-10.2-3c-6,0-11.3,2.7-14.3,6.8c-0.8-0.6-1.6-1.1-2.4-1.6
			c-10.1-5.8-23.6-3-34.7,1.1c-7.6,2.8-14.9,6.1-21.4,10.5c-8.5,5.7-7.3,15.5,0.8,12c1.5-0.7,3.3,0.3,4.7,1c0.8,0.4,1.3,1.2,1.8,1.9
			c3.3,4.4,10.2,6.4,15.9,4.8c11.3-0.8,22.6,1,33.9,2c15.5,1.4,31.1,1.5,46.8,1.6c15.1,0.1,18.9-10.9,34-10.8
			c13.9,0.1,39.4,11.2,52.9,8.3c7.4-1.6,14.6-4,21.2-7.2c1-0.5,1.9-0.9,3-1.1c4.8-0.6,7,5.6,11.7,6.8c5.1,1.2,10.1-4.1,15.1-2.7
			c3.2,0.9,4.9,4.3,8.1,5.2c4.8,1.5,9.9-3.3,14.8-2c2.9,0.8,4.5,3.4,6.4,5.4c7,7.4,21.9,7.4,29,0.1c1.4-1.5,2.5-3.1,3.9-4.6
			c4-4.1,5.5-7,11.6-6.2C1707.5,339.1,1698.8,330.1,1693,330.4z"/>
		<path class="st2" d="M1599.7,336.6c4.8-0.6,7,5.6,11.7,6.8c5.1,1.2,10.1-4.1,15.1-2.7c3.2,0.9,4.9,4.3,8.1,5.2
			c4.8,1.5,9.9-3.3,14.8-2c2.9,0.8,4.5,3.4,6.4,5.4c7,7.4,21.9,7.4,29,0.1c1.4-1.5,2.5-3.1,3.9-4.6c4-4.1,5.7-7.2,11.6-7.1
			c-0.1-0.5,0.2,0.5,0,0c-10.4-4.8-14.6,1.6-21.7-0.7c-12.3-2.9-23.8-6-34.8-2.9c-10.7,3.1-20.6-6.1-28.5-3.4c-11.5,4-22.7-4-28-3.2
			c-3.2,0.5-6.5,2-9.4,0.8c-1.5-0.6-2.6-1.9-4-2.7c-4.7-2.7-10.8,0.6-15.5,3.4s-12,4.9-15.2,0.9c-2.6-3.2-1-8.9-5.2-10.3
			c-1.6-0.6-3.5-0.1-5.1,0.4c-5.4,1.9-10.3,9.6-15.5,7.2c-10.1-4.6-26.6,7.6-40.1,3.9c-16.1-4.2-12.8,11.1-33.5,8.4
			c-6.9-0.9-13.8-5.5-20.4-3.6c-12.1,3.4-14.8-10.2-24.7-6.5c-7.8,3-17.5,4.5-20,2.6c-0.9,0.8-0.1,5.9,6.5,4.7
			c1.7-0.3,3.3-0.5,4.8,0.2c0.8,0.4,1.3,1.2,1.8,1.9c3.3,4.4,13.2,9.7,19.7,7.3c13.1-2.9,23.5,9.3,34,5.4
			c18.3-6.7,32.3-1.5,47.3-1.3c15.1,0.2,27.7-10.6,40.8-4.1c17.5,8.7,28.1,1.5,41.7-1.3c7.4-1.6,14.6-4,21.2-7.2
			C1597.7,337.2,1598.6,336.7,1599.7,336.6z"/>
		<path class="st3" d="M1693,330.4c-3.9,0.2-7.8,2-11.7,1.3c-2.1-0.4-3.8-1.4-5.6-2.5c-6.6-3.9-13.2-7.9-19.8-11.8
			c-1.2-0.7-2.5-1.5-4-1.4c-2.2,0.1-3.6,2-5.5,3c-5.2,2.6-10.9-2.3-14.6-6.4c-5.2-5.7-12-11.1-20.2-12.2
			c-3.4-7.6-11.9-12.9-21.8-12.9c-3.2,0-6.3,0.6-9.1,1.6c-12.6-6.8-30-24.6-51.8-20.4c-21.2,4.1-39.5,18.6-35.3,27.4
			c-1.4-0.2-2.9-0.4-4.4-0.4c-10.1,0-18.7,5.7-21.6,13.6c-2.8-1.9-6.4-3-10.2-3c-6,0-11.3,2.7-14.3,6.8c-0.8-0.6-1.6-1.1-2.4-1.6
			c-10.1-5.8-23.6-3-34.7,1.1c-7.6,2.8-14.9,6.1-21.4,10.5c-4.1,2.7-5.9,6.4-5.8,9.1c-0.7,1,0.2,5.7,6.6,4.6
			c1.7-0.3,3.3-0.5,4.8,0.2c0.8,0.4,1.3,1.2,1.8,1.9c3.3,4.4,13.2,9.7,19.7,7.3c13.1-2.9,23.5,9.3,34,5.4
			c18.3-6.7,32.3-1.5,47.3-1.3c15.1,0.2,27.7-10.6,40.8-4.1c17.5,8.7,28.1,1.5,41.7-1.3c7.4-1.6,14.6-4,21.2-7.2
			c1-0.5,1.9-0.9,3-1.1c4.8-0.6,7,5.6,11.7,6.8c5.1,1.2,10.1-4.1,15.1-2.7c3.2,0.9,4.9,4.3,8.1,5.2c4.8,1.5,9.9-3.3,14.8-2
			c2.9,0.8,4.5,3.4,6.4,5.4c7,7.4,21.9,7.4,29,0.1c1.4-1.5,2.5-3.1,3.9-4.6c4-4.1,5.7-7.2,11.6-7.1c0.1,0.2,0.1,0.1,0,0
			C1707.5,339.1,1698.8,330.1,1693,330.4z"/>
	</g>
	<g id="cloud-1">
		<path class="st4" d="M1676.7,478.3c-0.7,0-1.4,0.1-2.1,0.2c-2-2.5-5.2-4.1-8.9-4.1c-3.1,0-5.9,1.1-7.9,3c-1.7-0.8-3.6-1.3-5.6-1.4
			c0-0.3,0.1-0.6,0.1-0.9c0-5.8-5.3-10.6-11.8-10.6c-0.2,0-0.3,0-0.5,0c-3.9-5.7-10.9-9.5-18.9-9.5c-0.6-0.6-1.1-1.1-1.8-1.6
			c2.3-3.1,3.6-6.9,3.6-10.9c0-11.1-10-20.1-22.4-20.1c-10.4,0-19.2,6.4-21.7,15c-0.1,0.2-0.2,0.5-0.2,0.7c-0.1,0.3-0.2,0.7-0.2,1
			c-2.3,0.4-4.5,1.2-6.4,2.3c0-0.3,0-0.5,0-0.8c0-0.6,0-1.2-0.1-1.8c0.3-2.5-0.4-4.4-2.1-5.9c-0.6-1-1.4-1.9-2.2-2.8
			c0-0.1,0-0.2,0.1-0.3c1-1.3,1.4-2.8,1-4.2c-0.2-0.6-0.5-1.2-0.9-1.7c-0.8-3.9-3.2-7.2-6.6-9.5c0.4-1.3,0.6-2.6,0.6-3.9
			c0-3.4-1.2-6.5-3.3-9.1c0.3-1.7,0.2-3.5,0-5.4c0-0.1,0-0.2-0.1-0.4c0.3-1.2,0.5-2.4,0.5-3.7c0-8.6-7.8-15.5-17.3-15.5
			c-1.6,0-3.1,0.2-4.6,0.6c-2.3,0.2-4.3,1-6.2,2.5c-0.5-0.4-1.1-0.7-1.7-0.9c-0.9-0.7-2-1-3.3-1c-0.9,0-1.8,0.2-2.6,0.6
			c-2.5,0.6-4.5,2.2-5.5,4.3l0,0c-0.1,0-0.1,0-0.2,0c-0.9,0.1-1.8,0.2-2.7,0.4c-0.3,0-0.6,0.1-0.9,0.1l0,0l-0.2,0.1l-0.7,0.1
			l0.1,0.1c-1.8,0.8-3.1,2.1-3.8,4.1c-0.5,1-0.8,2.1-0.8,3.2c0,0.3,0,0.7,0.1,1c0,0.1,0,0.2,0,0.2c-0.4-0.2-0.8-0.4-1.2-0.5
			c-5.8-3.2-12.5-5-19.6-5c-19.5,0-35.7,13.7-39.4,31.8c-1.6,5.9-1.7,12-0.4,18.3c0.5,2.3,1.4,5.2,3.8,7.1c0.4,0.8,0.8,1.6,1.3,2.3
			c-1.5,0.5-3,1.5-4.5,3.1c-2.3,2.4-2.8,5.3-1.3,8.3l-1.8,1.3c-1.2,0.3-2.3,0.8-3.3,1.5c-3.8-6.3-11.2-10.6-19.8-10.6
			c-2,0-4,0.2-5.9,0.7c-1.5,0.3-2.9,0.7-4.1,1.3c-0.6,0.3-1.2,0.6-1.7,0.9c-3.8,2.1-6.8,6.1-8.7,10.1c-1-0.3-2-0.4-3-0.4
			c-5.6,0-10.2,4.1-10.2,9.1c0,1.4,0.4,2.7,1,3.8c-5.5,0.1-11.3,4.6-11.3,9.6s5.9,8.7,11.5,8.7c1.7,0,3.4-0.4,4.8-1.1
			c10.6-0.2,44.7-1.5,44.7-1.5c6.8-0.4,159,13.8,163.7,14c2,0.1,68.2-6.9,70.8-7.2c0.4,0.2,0.4,0.2,1.3,0.2c6.1,0,12.2-4.3,12.2-9.7
			C1687.6,482.7,1682.7,478.3,1676.7,478.3z M1556.6,399.6L1556.6,399.6L1556.6,399.6L1556.6,399.6z"/>
		<path class="st2" d="M1687.5,486.6c-2.8,2.1-15.4,6.6-23.8,3c-9.3-3.9-13.1,7.3-22.9,7.2c-1.3-2.7-5.5-4.7-10.6-4.7
			c-6.1,0-21.5,6.4-31.2,5.3c-6-3.2-8.3-8.5-15.8-8.7c0.1-0.4,0.1-0.9,0.1-1.4c0-5.4-4.9-9.8-11-9.8c-2.6,0-5.1,0.8-7,2.2
			c-1.1-7.8-8.5-13.8-17.4-13.8c-5.8,0-10.9,2.5-14.1,6.4c-2.2-1.2-4.8-1.8-7.6-1.8c-8.2,0-12.9,13.6-24.9,17.8
			c-4,0.6-5.9-1-9.4-3.3c-5-3.2-10.9,1-14.4-3.4l0,0c-1.8-2.3-4.8-3.8-8.1-3.8c-4.1,0-10.8,2-16.2,3.5c-0.8-0.2-1.6-0.4-2.1-0.5
			c-5.8-1-11.8,9.1-24.3,4.3c-7.2-2.8-17,4.8-21,4.6s-7.2-6-13.5-3.1s-13.9-1.7-13.9-1.7c0.4,3.7,3.7,9.5,11.1,8.7
			c5.5-0.6,10.4,9.1,15.8,7.6c3.5-1,5.4-4.7,9-5.6c5.5-1.4,10.8,4.6,16.4,3.4c5.2-1.1,7.8-7.9,13-7.2c1.2,0.2,2.2,0.7,3.3,1.3
			c7.2,3.7,14.9,6.6,22.9,8.5c14.7,3.5,21.8,8.2,41.2-1c14.5-6.8,32.2,9,48.7,9.3c16.4,0.2,20.1-9.2,39.9-1.2
			c11.3,4.6,28-6.2,42.2-2.7c14.9,2.7,24.5-6.8,31-7C1688.1,498.6,1688.5,487.5,1687.5,486.6z M1605.3,499.5
			c-1.9-0.3-3.5-0.8-4.8-1.4C1601.7,498.5,1603.3,499,1605.3,499.5z"/>
		<path class="st3" d="M1687.5,486.6L1687.5,486.6c-0.8-4.7-5.4-8.3-10.8-8.3c-0.7,0-1.4,0.1-2.1,0.2c-2-2.5-5.2-4.1-8.9-4.1
			c-3.1,0-5.9,1.1-7.9,3c-1.7-0.8-3.6-1.3-5.6-1.4c0-0.3,0.1-0.6,0.1-0.9c0-5.8-5.3-10.6-11.8-10.6c-0.2,0-0.3,0-0.5,0
			c-3.9-5.7-10.9-9.5-18.9-9.5c-0.6-0.6-1.1-1.1-1.8-1.6c2.3-3.1,3.6-6.9,3.6-10.9c0-11.1-10-20.1-22.4-20.1
			c-10.4,0-19.2,6.4-21.7,15c-0.1,0.2-0.2,0.5-0.2,0.7c-0.1,0.3-0.2,0.7-0.2,1c-2.3,0.4-4.5,1.2-6.4,2.3c0-0.3,0-0.5,0-0.8
			c0-0.6,0-1.2-0.1-1.8c0.3-2.5-0.4-4.4-2.1-5.9c-0.6-1-1.4-1.9-2.2-2.8c0-0.1,0-0.2,0.1-0.3c1-1.3,1.4-2.8,1-4.2
			c-0.2-0.6-0.5-1.2-0.9-1.7c-0.8-3.9-3.2-7.2-6.6-9.5c0.4-1.3,0.6-2.6,0.6-3.9c0-3.4-1.2-6.5-3.3-9.1c0.3-1.7,0.2-3.5,0-5.4
			c0-0.1,0-0.2-0.1-0.4c0.3-1.2,0.5-2.4,0.5-3.7c0-8.6-7.8-15.5-17.3-15.5c-1.6,0-3.1,0.2-4.6,0.6c-2.3,0.2-4.3,1-6.2,2.5
			c-0.5-0.4-1.1-0.7-1.7-0.9c-0.9-0.7-2-1-3.3-1c-0.9,0-1.8,0.2-2.6,0.6c-2.5,0.6-4.5,2.2-5.5,4.3l0,0c-0.1,0-0.1,0-0.2,0
			c-0.9,0.1-1.8,0.2-2.7,0.4c-0.3,0-0.6,0.1-0.9,0.1l0,0l-0.2,0.1l-0.7,0.1l0.1,0.1c-1.8,0.8-3.1,2.1-3.8,4.1
			c-0.5,1-0.8,2.1-0.8,3.2c0,0.3,0,0.7,0.1,1c0,0.1,0,0.2,0,0.2c-0.4-0.2-0.8-0.4-1.2-0.5c-5.8-3.2-12.5-5-19.6-5
			c-19.5,0-35.7,13.7-39.4,31.8c-1.6,5.9-1.7,12-0.4,18.3c0.5,2.3,1.4,5.2,3.8,7.1c0.4,0.8,0.8,1.6,1.3,2.3c-1.5,0.5-3,1.5-4.5,3.1
			c-2.3,2.4-2.8,5.3-1.3,8.3l-1.8,1.3c-1.2,0.3-2.3,0.8-3.3,1.5c-3.8-6.3-11.2-10.6-19.8-10.6c-2,0-4,0.2-5.9,0.7
			c-1.5,0.3-2.9,0.7-4.1,1.3c-0.6,0.3-1.2,0.6-1.7,0.9c-3.8,2.1-6.8,6.1-8.7,10.1c-1-0.3-2-0.4-3-0.4c-5.6,0-10.2,4.1-10.2,9.1
			c0,1.4,0.4,2.7,1,3.8c-5.5,0.1-11.3,4.6-11.3,9.6c0,0.2,0,0.3,0,0.4l0,0c0,0.1,0,0.2,0.1,0.4c0.1,0.4,0.1,0.8,0.3,1.2
			c1,3.6,4.3,7.9,10.7,7.1c5.5-0.6,10.4,9.1,15.8,7.6c3.5-1,5.4-4.7,9-5.6c5.5-1.4,10.8,4.6,16.4,3.4c5.2-1.1,7.8-7.9,13-7.2
			c1.2,0.2,2.2,0.7,3.3,1.3c7.2,3.7,14.9,6.6,22.9,8.5c14.7,3.5,21.8,8.2,41.2-1c14.5-6.8,32.2,9,48.7,9.3
			c16.4,0.2,20.1-9.2,39.9-1.2c11.3,4.6,28-6.2,42.2-2.7c14.9,2.7,24.5-6.8,31-7C1688.1,498.6,1688.5,487.5,1687.5,486.6z
			 M1556.6,399.6L1556.6,399.6L1556.6,399.6L1556.6,399.6z"/>
	</g>
	<g id="plane-2">
		<g id="plane-2-banner">
			<g>
				<rect class="st5" x="864.3" y="349.9" width="128.8" height="55.3"/>
				<polyline class="st5" points="865.3,405.1 832.7,405.1 853.4,377.5 832.7,349.8 865.3,349.8"/>
				<text transform="matrix(1 0 0 1 873.7111 392.5785)" class="st6 st7">SHIT</text>
			</g>
			<polyline class="st3" points="993.1,405.2 1088.8,375.9 993.1,349.9 			"/>
			<rect x="990.6" y="342" class="st8" width="4.6" height="70.7"/>
		</g>
		<g>
			<path class="st9" d="M1219.4,372.5l8.8,2.2l8.8-7.4c0,0-3.6-4.1-6.6-5.7c0.8-0.9,1.3-2,1.3-3.4c0-2.7-2.2-4.9-4.9-4.9
				s-4.9,2.2-4.9,4.9c0,0.2,0.1,0.4,0.1,0.6c-0.2,0.2-0.5,0.5-0.8,1C1219.7,362.4,1219.5,372.6,1219.4,372.5z"/>
			<path class="st9" d="M1194.6,375.2l8.8,2.2l8.8-7.4c0,0-3.6-4.1-6.6-5.7c0.8-0.9,1.3-2,1.3-3.4c0-2.7-2.2-4.9-4.9-4.9
				s-4.9,2.2-4.9,4.9c0,0.2,0.1,0.4,0.1,0.6c-0.2,0.2-0.5,0.5-0.8,1C1194.9,365.1,1194.7,375.2,1194.6,375.2z"/>
			<path class="st9" d="M1277,347.6c-0.2-2.8,0.8-5.3,2.3-5.4l0,0c1.4-0.1,2.5,2.4,2.3,5.2l-2,30.1L1277,347.6z"/>
			<path class="st9" d="M1277.7,411.2c-0.2,2.8,0.9,5.3,2.3,5.2l0,0c1.5-0.1,2.5-2.6,2.3-5.4l-2.7-29.8L1277.7,411.2z"/>
			<path class="st9" d="M1101.2,399c0.1,2.2,1.7,4,3.7,4.4c0.3,0.1,0.6,0.1,0.9,0.1c1.2-0.1,2.3-0.5,3.2-1.4s1.3-2,1.3-3.2
				c-0.1-0.7-0.2-1.2-0.4-1.8l7.9-8.7l-15.7-3.4l1.8,9.8C1102.3,395.5,1101.2,397.1,1101.2,399z"/>
			<path class="st9" d="M1243.6,385.3l10.1-1.5l4.6,4l0.4,27.8l-8,1.2L1243.6,385.3z"/>
			<path class="st9" d="M1241.8,368.3c-1.8,0.9-3.9,1.3-6,1c-1-0.1-2.2-0.6-2.7-1.5c1.7-3.1,1.6-6.9,3.1-10c2.4,0.7,4.4,2.3,6.3,3.9
				c0.9,0.7,1.8,1.5,2.6,2.3C1246.8,365.5,1243,367.6,1241.8,368.3z"/>
			<path class="st9" d="M1218.4,371.5c-1.8,0.9-3.9,1.3-6,1c-1-0.1-2.2-0.6-2.7-1.5c1.7-3.1,1.6-6.9,3.1-10c2.4,0.7,4.4,2.3,6.3,3.9
				c0.9,0.7,1.8,1.5,2.6,2.3C1223.4,368.6,1219.6,370.7,1218.4,371.5z"/>
			<path class="st10" d="M1118.9,354.8c-2.9-3.9-6.1-7.7-8.8-10.2c-7.5-6.9-16.4,10-19.4,21.3c-3,11.4-1.9,17.9,9.6,21.2
				c11.5,3.2,63.9,7.8,98.7,8.6s68.1,0,68.1,0s4.4,0,7.8-1.7c3.5-1.8,1.5-24.4,1.5-24.4c-3.1-8-37.7-6.6-37.7-6.6
				c-4,3-10.3,4.3-14.4,4.8c-2.3,0.3-4.4-1.5-4.4-3.9l0,0l-9,0.8v2.5l-10.4,1.8c-2.7,0.5-5.3-1.4-5.7-4.1l0,0L1148,368
				C1136.6,368.8,1125.7,363.8,1118.9,354.8z"/>
			<polygon class="st10" points="1289.1,371.3 1281.5,370.4 1281.7,389 1289.3,388 			"/>
			<polygon class="st9" points="1276.8,371.5 1281.7,370.4 1281.9,389 1277,388.2 			"/>
			<path class="st11" d="M1201.2,391c-2.7,0.7-4.5,3.1-4.5,5.8l0,0c0,0,20.4,2,34.1,1.8c13.6-0.1,16.6-3.5,16.6-3.5l-0.1-5.6
				C1238.2,383.1,1211.9,388.5,1201.2,391z"/>
			<path class="st11" d="M1140.7,370.3c-12.3-2.3-36.8,1.9-43,3c-0.8,0.1-1.4,0.9-1.4,1.8l0,0c0,0.9,0.7,1.6,1.6,1.7
				c5,0.3,20.2,1.1,31.1,0.9c13.1-0.2,15.9-2.4,15.9-2.4l0,0C1144.8,372.9,1143,370.7,1140.7,370.3z"/>
			<path class="st9" d="M1214.3,392.5c-1-0.4-1.5-1.7-1-2.7l19.3-41.8c0.4-0.9,1.2-1.3,2.2-1.2l0,0c0.9,0.1,1.6,0.9,1.7,1.8
				l2.5,32.9l16-35.6c0.4-0.9,1.3-1.4,2.3-1.2c0.9,0.2,1.6,1,1.6,2l0.4,26.7c0,1.1-0.9,2-2,2s-2-0.9-2-2l-0.2-17.5l-15.5,34.5
				c-0.4,0.9-1.2,1.3-2.2,1.2s-1.6-0.9-1.7-1.8l-2.6-33l-16,34.6c-0.4,0.9-1.4,1.3-2.3,1.2C1214.5,392.6,1214.4,392.5,1214.3,392.5z
				"/>
			<path class="st9" d="M1247.1,426.8c-2.2-2.1-3.4-4.9-3.4-8l0,0c-0.1-3,1.1-5.8,3.2-8s4.9-3.4,8-3.4c3-0.1,5.8,1.1,8,3.2
				s3.4,4.9,3.4,8c0.1,3-1.1,5.8-3.2,8s-4.9,3.4-8,3.4c-0.8,0-1.5-0.1-2.3-0.2C1250.7,429.3,1248.7,428.3,1247.1,426.8z"/>
			<path class="st11" d="M1265.4,349.6l-59.1,4.3c-1.3,0.1-2.5-1-2.5-2.3l0,0c0,0-5.5-1.1,23.6-5.8c22.4-3.6,34.1-2,38.4-1
				c1.1,0.2,1.9,1.2,1.9,2.3l0,0C1267.9,348.3,1266.8,349.4,1265.4,349.6z"/>
		</g>
	</g>
	<g id="plane-1">
		<g id="plane-1-banner">
			<g>
				<rect class="st5" x="1127.9" y="245.9" width="128.8" height="55.3"/>
				<polyline class="st5" points="1255.6,245.8 1288.2,245.8 1267.5,273.5 1288.2,301.1 1255.6,301.1"/>
				<text transform="matrix(1 0 0 1 1145.5022 288.5785)" class="st6 st7">SHIT</text>
			</g>
			<polyline class="st3" points="1127.9,245.9 1032.2,271.9 1127.9,301.2 			"/>
			<rect x="1125.8" y="238" class="st8" width="4.6" height="70.7"/>
		</g>
		<g>
			<path class="st9" d="M899.8,255.8c-0.3-0.5-0.6-0.8-0.8-1c0-0.2,0.1-0.4,0.1-0.6c0-2.7-2.2-4.9-4.9-4.9s-4.9,2.2-4.9,4.9
				c0,1.3,0.5,2.5,1.3,3.4c-2.9,1.6-6.6,5.7-6.6,5.7l8.8,7.4l8.8-2.2C901.5,268.6,901.3,258.4,899.8,255.8z"/>
			<path class="st9" d="M924.6,258.5c-0.3-0.5-0.6-0.8-0.8-1c0-0.2,0.1-0.4,0.1-0.6c0-2.7-2.2-4.9-4.9-4.9s-4.9,2.2-4.9,4.9
				c0,1.3,0.5,2.5,1.3,3.4c-2.9,1.6-6.6,5.7-6.6,5.7l8.8,7.4l8.8-2.2C926.3,271.2,926.1,261.1,924.6,258.5z"/>
			<path class="st9" d="M841.4,273.5l-2-30.1c-0.1-2.8,0.9-5.3,2.3-5.2l0,0c1.5,0.1,2.5,2.6,2.3,5.4L841.4,273.5z"/>
			<path class="st9" d="M841.4,277.1l-2.7,29.8c-0.2,2.8,0.8,5.3,2.3,5.4l0,0c1.5,0.1,2.6-2.4,2.3-5.2L841.4,277.1z"/>
			<path class="st9" d="M1017.2,290.8l1.8-9.8l-15.7,3.4l7.9,8.7c-0.2,0.6-0.4,1.2-0.4,1.8c0,1.2,0.4,2.3,1.3,3.2
				c0.9,0.9,2,1.3,3.2,1.4c0.3,0,0.6,0,0.9-0.1c2-0.4,3.6-2.2,3.7-4.4C1019.8,293.1,1018.7,291.5,1017.2,290.8z"/>
			<path class="st9" d="M870.3,312.9l-8-1.2l0.4-27.8l4.6-4l10.1,1.5L870.3,312.9z"/>
			<path class="st9" d="M875.8,260c0.9-0.7,1.8-1.5,2.6-2.3c1.9-1.6,3.9-3.3,6.3-3.9c1.5,3.1,1.5,6.9,3.1,10
				c-0.5,0.9-1.7,1.4-2.7,1.5c-2,0.3-4.2-0.1-6-1C878,263.6,874.2,261.5,875.8,260z"/>
			<path class="st9" d="M899.3,263.2c0.9-0.7,1.8-1.5,2.6-2.3c1.9-1.6,3.9-3.3,6.3-3.9c1.5,3.1,1.5,6.9,3.1,10
				c-0.5,0.9-1.7,1.4-2.7,1.5c-2,0.3-4.2-0.1-6-1C901.4,266.7,897.7,264.6,899.3,263.2z"/>
			<path class="st10" d="M973.1,264.1l-46.8-3.1l0,0c-0.4,2.7-3,4.6-5.7,4.1l-10.4-1.8v-2.5l-9-0.8l0,0c0,2.3-2.1,4.2-4.4,3.9
				c-4.2-0.5-10.4-1.8-14.4-4.8c0,0-34.6-1.5-37.7,6.6c0,0-2,22.6,1.5,24.4c3.4,1.7,7.8,1.7,7.8,1.7s33.3,0.8,68.1,0
				s87.2-5.4,98.7-8.6c11.5-3.2,12.5-9.8,9.6-21.2c-3-11.3-11.9-28.2-19.4-21.3c-2.7,2.5-5.8,6.3-8.8,10.2
				C995.3,259.8,984.5,264.8,973.1,264.1z"/>
			<polygon class="st10" points="831.7,284 839.3,285 839.5,266.4 831.9,267.3 			"/>
			<polygon class="st9" points="844,284.2 839.1,285 839.3,266.4 844.3,267.5 			"/>
			<path class="st11" d="M873.8,285.6l-0.1,5.6c0,0,2.9,3.4,16.6,3.5c13.6,0.1,34.1-1.8,34.1-1.8l0,0c0-2.8-1.8-5.2-4.5-5.8
				C909.1,284.5,882.8,279.1,873.8,285.6z"/>
			<path class="st11" d="M976.1,271.3L976.1,271.3c0,0,2.8,2.2,15.9,2.4c10.9,0.1,26.1-0.7,31.1-0.9c0.9-0.1,1.6-0.8,1.6-1.7l0,0
				c0-0.9-0.6-1.6-1.4-1.8c-6.2-1.1-30.8-5.3-43-3C978,266.7,976.2,268.9,976.1,271.3z"/>
			<path class="st9" d="M906.3,288.6c-0.9,0.1-1.8-0.3-2.3-1.2l-16-34.6l-2.6,33c-0.1,0.9-0.7,1.7-1.7,1.8s-1.8-0.3-2.2-1.2
				L866,251.9l-0.2,17.5c0,1.1-0.9,2-2,2s-2-0.9-2-2l0.4-26.7c0-0.9,0.7-1.8,1.6-2s1.9,0.3,2.3,1.2l16,35.6l2.5-32.9
				c0.1-0.9,0.7-1.7,1.7-1.8l0,0c0.9-0.1,1.8,0.3,2.2,1.2l19.3,41.8c0.4,1,0,2.3-1,2.7C906.6,288.5,906.5,288.6,906.3,288.6z"/>
			<path class="st9" d="M868.1,325.8c-0.7,0.1-1.5,0.2-2.3,0.2c-3.1-0.1-5.8-1.2-8-3.4c-2.1-2.2-3.3-5-3.2-8c0.1-3.1,1.2-5.8,3.4-8
				c2.2-2.1,5-3.3,8-3.2c3.1,0.1,5.8,1.2,8,3.4c2.1,2.2,3.3,5,3.2,8l0,0c-0.1,3.1-1.2,5.8-3.4,8
				C872.3,324.3,870.3,325.3,868.1,325.8z"/>
			<path class="st11" d="M853.2,243L853.2,243c0-1.1,0.8-2.1,1.9-2.3c4.2-0.9,16-2.6,38.4,1c29.2,4.7,23.6,5.8,23.6,5.8l0,0
				c0,1.3-1.2,2.4-2.5,2.3l-59.1-4.3C854.2,245.4,853.2,244.3,853.2,243z"/>
		</g>
	</g>
</g>
</svg>
