<?xml version="1.0" encoding="utf-8"?>
<!-- Generator: Adobe Illustrator 24.0.1, SVG Export Plug-In . SVG Version: 6.00 Build 0)  -->
<svg version="1.1" id="Layer_1" xmlns="http://www.w3.org/2000/svg" xmlns:xlink="http://www.w3.org/1999/xlink" x="0px" y="0px"
	 viewBox="0 0 1894.1 1221.7" style="enable-background:new 0 0 1894.1 1221.7;" xml:space="preserve">
<style type="text/css">
	.st0{fill:#99D3FF;}
	.st1{fill:#FFFFFF;}
	.st2{fill:#CAEBFF;}
	.st3{fill:none;stroke:#000000;stroke-linecap:round;stroke-linejoin:round;stroke-miterlimit:10;}
	.st4{fill-rule:evenodd;clip-rule:evenodd;fill:#FFFFFF;}

		.st5{fill-rule:evenodd;clip-rule:evenodd;fill:#FFFFFF;stroke:#000000;stroke-linecap:round;stroke-linejoin:round;stroke-miterlimit:10;}
	.st6{font-family:'ArialMT';}
	.st7{font-size:42px;}

		.st8{fill-rule:evenodd;clip-rule:evenodd;fill:#D3923D;stroke:#000000;stroke-linecap:round;stroke-linejoin:round;stroke-miterlimit:10;}
	.st9{fill:#231F20;}
	.st10{fill:#FFD394;stroke:#000000;stroke-linecap:round;stroke-linejoin:round;stroke-miterlimit:10;}
	.st11{fill:#D3923D;stroke:#000000;stroke-linecap:round;stroke-linejoin:round;stroke-miterlimit:10;}
	.st12{fill:#EADECC;}
	.st13{fill:#E2D1BA;}
	.st14{fill:#FFFFFF;stroke:#000000;stroke-linecap:round;stroke-linejoin:round;stroke-miterlimit:10;}
	.st15{fill:#8A9994;stroke:#000000;stroke-linecap:round;stroke-linejoin:round;stroke-miterlimit:10;}
	.st16{fill:#99846B;}
	.st17{fill:#89725F;}
	.st18{fill:#A8B2AF;}
	.st19{fill:#C8CECC;}
	.st20{fill:#A8B2AF;stroke:#000000;stroke-linecap:round;stroke-linejoin:round;stroke-miterlimit:10;}
	.st21{stroke:#000000;stroke-linecap:round;stroke-linejoin:round;stroke-miterlimit:10;}
	.st22{fill:#C8CECC;stroke:#000000;stroke-linecap:round;stroke-linejoin:round;stroke-miterlimit:10;}
	.st23{fill:#C2CCC9;stroke:#000000;stroke-linecap:round;stroke-linejoin:round;stroke-miterlimit:10;}
	.st24{fill:#CEBB9F;stroke:#000000;stroke-miterlimit:10;}
	.st25{fill:#F7EFEB;stroke:#000000;stroke-linecap:round;stroke-linejoin:round;stroke-miterlimit:10;}
	.st26{fill:none;stroke:#455CFF;stroke-width:1;stroke-linecap:round;stroke-linejoin:round;stroke-miterlimit:10.004;}
	.st27{fill:none;stroke:#455CFF;stroke-linecap:round;stroke-linejoin:round;stroke-miterlimit:10.0034;}
	.st28{fill:#CEBB9F;}
	.st29{fill:#C06133;stroke:#000000;stroke-linecap:round;stroke-linejoin:round;stroke-miterlimit:10;}
	.st30{fill:#EA7547;stroke:#000000;stroke-linecap:round;stroke-linejoin:round;stroke-miterlimit:10;}
	.st31{fill:#D22031;stroke:#000000;stroke-linecap:round;stroke-linejoin:round;stroke-miterlimit:10;}
	.st32{fill:#F5C6C2;stroke:#000000;stroke-linecap:round;stroke-linejoin:round;stroke-miterlimit:10;}
	.st33{fill:#112061;stroke:#000000;stroke-linecap:round;stroke-linejoin:round;stroke-miterlimit:10;}
	.st34{fill:#F1BE54;stroke:#000000;stroke-linecap:round;stroke-linejoin:round;stroke-miterlimit:10;}
	.st35{fill:#EA7547;stroke:#000000;stroke-width:0.9883;stroke-linecap:round;stroke-linejoin:round;stroke-miterlimit:10;}
	.st36{fill:#FFFFFF;stroke:#000000;stroke-width:0.9883;stroke-linecap:round;stroke-linejoin:round;stroke-miterlimit:10;}
	.st37{stroke:#000000;stroke-width:0.9883;stroke-linecap:round;stroke-linejoin:round;stroke-miterlimit:10;}
	.st38{fill:#F4F5F1;}
	.st39{fill:none;stroke:#000000;stroke-width:0.9883;stroke-linecap:round;stroke-linejoin:round;stroke-miterlimit:10;}
	.st40{fill:#D7E6FF;stroke:#000000;stroke-linecap:round;stroke-linejoin:round;stroke-miterlimit:10;}
	.st41{fill:#F2F7FF;stroke:#000000;stroke-linecap:round;stroke-linejoin:round;stroke-miterlimit:10;}
	.st42{fill:#FFAA05;}
	.st43{opacity:0.3;fill:#6B5C49;enable-background:new    ;}
	.st44{fill-rule:evenodd;clip-rule:evenodd;fill:#FAC165;}
	.st45{fill:#E8A94F;}
	.st46{fill-rule:evenodd;clip-rule:evenodd;fill:#FFF3E6;}

		.st47{fill-rule:evenodd;clip-rule:evenodd;fill:#FAC165;stroke:#000000;stroke-linecap:round;stroke-linejoin:round;stroke-miterlimit:10;}

		.st48{fill-rule:evenodd;clip-rule:evenodd;fill:#EA7547;stroke:#000000;stroke-linecap:round;stroke-linejoin:round;stroke-miterlimit:10;}
	.st49{fill-rule:evenodd;clip-rule:evenodd;stroke:#000000;stroke-linecap:round;stroke-linejoin:round;stroke-miterlimit:10;}
	.st50{fill:#708727;stroke:#000000;stroke-linecap:round;stroke-linejoin:round;stroke-miterlimit:10;}
	.st51{fill:#E2C961;stroke:#000000;stroke-linecap:round;stroke-linejoin:round;stroke-miterlimit:10;}
	.st52{fill:#C1C43B;stroke:#000000;stroke-linecap:round;stroke-linejoin:round;stroke-miterlimit:10;}
	.st53{fill:#FAC165;stroke:#000000;stroke-linecap:round;stroke-linejoin:round;stroke-miterlimit:10;}
	.st54{fill:#8FAD31;stroke:#000000;stroke-linecap:round;stroke-linejoin:round;stroke-miterlimit:10;}
</style>
<g>
	<rect x="53.9" y="0.5" class="st12" width="1034" height="1220.3"/>
	<g>
		<rect x="183.9" y="0.5" class="st13" width="69.1" height="727.3"/>
		<rect x="321.9" y="0.5" class="st13" width="69.1" height="727.3"/>
		<rect x="459.9" y="0.5" class="st13" width="69.1" height="727.3"/>
		<rect x="597.9" y="0.5" class="st13" width="69.1" height="727.3"/>
		<rect x="735.9" y="0.5" class="st13" width="69.1" height="727.3"/>
		<rect x="873.9" y="0.5" class="st13" width="69.1" height="727.3"/>
		<rect x="1011.8" y="0.5" class="st13" width="69.1" height="727.3"/>
	</g>
	<rect x="87.2" y="735.9" class="st14" width="1008" height="484.7"/>
	<g>
		<rect x="72.9" y="0.5" class="st14" width="33" height="1220.3"/>
		<rect x="0.5" y="0.5" class="st15" width="74.4" height="1220.3"/>
	</g>
	<g>
		<polygon class="st16" points="1080.9,0.5 1080.9,706.7 1298.2,706.7 1298.2,89.9 1795.2,89.9 1795.2,706.7 1893.7,706.7
			1893.7,0.5 		"/>
		<g>
			<rect x="1362.4" y="0.5" class="st17" width="70.2" height="89.4"/>
			<rect x="1502.7" y="0.5" class="st17" width="70.2" height="89.4"/>
			<rect x="1643" y="0.5" class="st17" width="70.2" height="89.4"/>
			<polygon class="st17" points="1783.4,0.5 1783.4,89.9 1795.2,89.9 1795.2,727.8 1853.6,727.8 1853.6,0.5 			"/>
			<rect x="1081.8" y="0.5" class="st17" width="70.2" height="727.3"/>
			<rect x="1222.1" y="0.5" class="st17" width="70.2" height="727.3"/>
		</g>
	</g>
	<polygon class="st18" points="1795.2,721.8 1795.2,782 1298.2,782 1298.2,721.8 1080.9,721.8 1080.9,1221.7 1893.6,1221.7
		1893.6,721.8 	"/>
	<g>
		<rect x="106.8" y="748" class="st19" width="973" height="7.6"/>
		<rect x="105.9" y="735.5" class="st14" width="975" height="12.5"/>
		<rect x="105.9" y="735.5" class="st20" width="9.5" height="12.5"/>
		<rect x="105.9" y="704.5" class="st14" width="975" height="32.5"/>
		<path class="st20" d="M107.4,704.5h-1.5V737h1.5c9.1,0,16.5-7.4,16.5-16.5l0,0C123.9,711.4,116.5,704.5,107.4,704.5z"/>
	</g>
	<g>
		<rect x="1080.9" y="746.9" class="st21" width="222" height="7.6"/>
		<rect x="1080.9" y="735.5" class="st20" width="222" height="12.5"/>
		<rect x="1293.4" y="735.5" class="st22" width="9.5" height="12.5"/>
		<rect x="1080.9" y="704.5" class="st23" width="222" height="32.5"/>
		<path class="st14" d="M1301.4,704.5h1.5V737h-1.5c-9.1,0-16.5-7.4-16.5-16.5l0,0C1284.9,711.4,1292.3,704.5,1301.4,704.5z"/>
	</g>
	<g id="window">
		<path class="st14" d="M1290.2,79.3V794H1805V79.3H1290.2z M1779.7,769.9h-464.2V103.4h464.2V769.9z"/>
		<rect x="1256.9" y="769.9" class="st14" width="548.1" height="24.1"/>
		<polygon class="st21" points="1803.8,79.3 1803.8,769.9 1752.1,769.9 1752.1,794 1815.3,794 1815.3,79.3 		"/>
		<rect x="1315.5" y="103.4" class="st21" width="27.6" height="666.5"/>
		<g id="blinds">
			<g>
				<polygon class="st14" points="1779.7,755 1323.5,755 1335,720 1779.7,720 				"/>
				<polyline class="st24" points="1779.7,731.5 1779.7,720 1335,720 1331.2,731.5 				"/>
				<line class="st3" x1="1352.2" y1="737.7" x2="1352.2" y2="692.9"/>
				<line class="st3" x1="1769.3" y1="737.7" x2="1769.3" y2="692.9"/>
			</g>
			<g>
				<polygon class="st14" points="1779.7,723.9 1323.5,723.9 1335,689 1779.7,689 				"/>
				<polyline class="st24" points="1779.7,700.5 1779.7,689 1335,689 1331.2,700.5 				"/>
				<line class="st3" x1="1352.2" y1="706.7" x2="1352.2" y2="661.9"/>
				<line class="st3" x1="1769.3" y1="706.7" x2="1769.3" y2="661.9"/>
			</g>
			<g>
				<polygon class="st14" points="1779.7,692.9 1323.5,692.9 1335,658 1779.7,658 				"/>
				<polyline class="st24" points="1779.7,669.5 1779.7,658 1335,658 1331.2,669.5 				"/>
				<line class="st3" x1="1352.2" y1="675.7" x2="1352.2" y2="630.9"/>
				<line class="st3" x1="1769.3" y1="675.7" x2="1769.3" y2="630.9"/>
			</g>
			<g>
				<polygon class="st14" points="1779.7,661.9 1323.5,661.9 1335,627 1779.7,627 				"/>
				<polyline class="st24" points="1779.7,638.5 1779.7,627 1335,627 1331.2,638.5 				"/>
				<line class="st3" x1="1352.2" y1="644.7" x2="1352.2" y2="599.8"/>
				<line class="st3" x1="1769.3" y1="644.7" x2="1769.3" y2="599.8"/>
			</g>
			<g>
				<polygon class="st14" points="1779.7,630.9 1323.5,630.9 1335,595.9 1779.7,595.9 				"/>
				<polyline class="st24" points="1779.7,607.4 1779.7,595.9 1335,595.9 1331.2,607.4 				"/>
				<line class="st3" x1="1352.2" y1="613.6" x2="1352.2" y2="568.8"/>
				<line class="st3" x1="1769.3" y1="613.6" x2="1769.3" y2="568.8"/>
			</g>
			<g>
				<polygon class="st14" points="1779.7,599.8 1323.5,599.8 1335,564.9 1779.7,564.9 				"/>
				<polyline class="st24" points="1779.7,576.4 1779.7,564.9 1335,564.9 1331.2,576.4 				"/>
				<line class="st3" x1="1352.2" y1="582.6" x2="1352.2" y2="537.8"/>
				<line class="st3" x1="1769.3" y1="582.6" x2="1769.3" y2="537.8"/>
			</g>
			<g>
				<polygon class="st14" points="1779.7,568.8 1323.5,568.8 1335,533.9 1779.7,533.9 				"/>
				<polyline class="st24" points="1779.7,545.4 1779.7,533.9 1335,533.9 1331.2,545.4 				"/>
				<line class="st3" x1="1352.2" y1="551.6" x2="1352.2" y2="506.8"/>
				<line class="st3" x1="1769.3" y1="551.6" x2="1769.3" y2="506.8"/>
			</g>
			<g>
				<polygon class="st14" points="1779.7,537.8 1323.5,537.8 1335,502.9 1779.7,502.9 				"/>
				<polyline class="st24" points="1779.7,514.4 1779.7,502.9 1335,502.9 1331.2,514.4 				"/>
				<line class="st3" x1="1352.2" y1="520.6" x2="1352.2" y2="475.7"/>
				<line class="st3" x1="1769.3" y1="520.6" x2="1769.3" y2="475.7"/>
			</g>
			<g>
				<polygon class="st14" points="1779.7,506.8 1323.5,506.8 1335,471.8 1779.7,471.8 				"/>
				<polyline class="st24" points="1779.7,483.3 1779.7,471.8 1335,471.8 1331.2,483.3 				"/>
				<line class="st3" x1="1352.2" y1="489.5" x2="1352.2" y2="444.7"/>
				<line class="st3" x1="1769.3" y1="489.5" x2="1769.3" y2="444.7"/>
			</g>
			<g>
				<polygon class="st14" points="1779.7,475.7 1323.5,475.7 1335,440.8 1779.7,440.8 				"/>
				<polyline class="st24" points="1779.7,452.3 1779.7,440.8 1335,440.8 1331.2,452.3 				"/>
				<line class="st3" x1="1352.2" y1="458.5" x2="1352.2" y2="413.7"/>
				<line class="st3" x1="1769.3" y1="458.5" x2="1769.3" y2="413.7"/>
			</g>
			<g>
				<polygon class="st14" points="1779.7,444.7 1323.5,444.7 1335,409.8 1779.7,409.8 				"/>
				<polyline class="st24" points="1779.7,421.3 1779.7,409.8 1335,409.8 1331.2,421.3 				"/>
				<line class="st3" x1="1352.2" y1="427.5" x2="1352.2" y2="382.7"/>
				<line class="st3" x1="1769.3" y1="427.5" x2="1769.3" y2="382.7"/>
			</g>
			<g>
				<polygon class="st14" points="1779.7,413.7 1323.5,413.7 1335,378.8 1779.7,378.8 				"/>
				<polyline class="st24" points="1779.7,390.3 1779.7,378.8 1335,378.8 1331.2,390.3 				"/>
				<line class="st3" x1="1352.2" y1="396.5" x2="1352.2" y2="351.6"/>
				<line class="st3" x1="1769.3" y1="396.5" x2="1769.3" y2="351.6"/>
			</g>
			<g>
				<polygon class="st14" points="1779.7,382.7 1323.5,382.7 1335,347.7 1779.7,347.7 				"/>
				<polyline class="st24" points="1779.7,359.2 1779.7,347.7 1335,347.7 1331.2,359.2 				"/>
				<line class="st3" x1="1352.2" y1="365.4" x2="1352.2" y2="320.6"/>
				<line class="st3" x1="1769.3" y1="365.4" x2="1769.3" y2="320.6"/>
			</g>
			<g>
				<polygon class="st14" points="1779.7,351.6 1323.5,351.6 1335,316.7 1779.7,316.7 				"/>
				<polyline class="st24" points="1779.7,328.2 1779.7,316.7 1335,316.7 1331.2,328.2 				"/>
				<line class="st3" x1="1352.2" y1="334.4" x2="1352.2" y2="289.6"/>
				<line class="st3" x1="1769.3" y1="334.4" x2="1769.3" y2="289.6"/>
			</g>
			<g>
				<polygon class="st14" points="1779.7,320.6 1323.5,320.6 1335,285.7 1779.7,285.7 				"/>
				<polyline class="st24" points="1779.7,297.2 1779.7,285.7 1335,285.7 1331.2,297.2 				"/>
				<line class="st3" x1="1352.2" y1="303.4" x2="1352.2" y2="258.6"/>
				<line class="st3" x1="1769.3" y1="303.4" x2="1769.3" y2="258.6"/>
			</g>
			<g>
				<polygon class="st14" points="1779.7,289.6 1323.5,289.6 1335,254.7 1779.7,254.7 				"/>
				<polyline class="st24" points="1779.7,266.2 1779.7,254.7 1335,254.7 1331.2,266.2 				"/>
				<line class="st3" x1="1352.2" y1="272.4" x2="1352.2" y2="227.5"/>
				<line class="st3" x1="1769.3" y1="272.4" x2="1769.3" y2="227.5"/>
			</g>
			<g>
				<polygon class="st14" points="1779.7,258.6 1323.5,258.6 1335,223.6 1779.7,223.6 				"/>
				<polyline class="st24" points="1779.7,235.1 1779.7,223.6 1335,223.6 1331.2,235.1 				"/>
				<line class="st3" x1="1352.2" y1="241.3" x2="1352.2" y2="196.5"/>
				<line class="st3" x1="1769.3" y1="241.3" x2="1769.3" y2="196.5"/>
			</g>
			<g>
				<polygon class="st14" points="1779.7,227.5 1323.5,227.5 1335,192.6 1779.7,192.6 				"/>
				<polyline class="st24" points="1779.7,204.1 1779.7,192.6 1335,192.6 1331.2,204.1 				"/>
				<line class="st3" x1="1352.2" y1="210.3" x2="1352.2" y2="165.5"/>
				<line class="st3" x1="1769.3" y1="210.3" x2="1769.3" y2="165.5"/>
			</g>
			<g>
				<polygon class="st14" points="1779.7,196.5 1323.5,196.5 1335,161.6 1779.7,161.6 				"/>
				<polyline class="st24" points="1779.7,173.1 1779.7,161.6 1335,161.6 1331.2,173.1 				"/>
				<line class="st3" x1="1352.2" y1="179.3" x2="1352.2" y2="134.5"/>
				<line class="st3" x1="1769.3" y1="179.3" x2="1769.3" y2="134.5"/>
			</g>
			<g>
				<polygon class="st14" points="1779.7,165.5 1323,177.2 1334.5,142 1779.7,130.6 				"/>
				<polyline class="st24" points="1779.7,142.1 1779.7,130.6 1334.5,142 1330.8,153.6 				"/>
				<line class="st3" x1="1351.8" y1="159.3" x2="1351.8" y2="103.4"/>
				<line class="st3" x1="1769.3" y1="148.5" x2="1769.3" y2="103.7"/>
			</g>
		</g>
	</g>
	<g>
		<rect x="1812.6" y="746.9" class="st21" width="81" height="7.6"/>
		<path class="st20" d="M1813.2,704.5L1813.2,704.5h-1.5c-9.1,0-16.5,6.9-16.5,16c0,6.7,4,12.5,9.8,15h-1.2V748h8.9h0.6h80.4v-11
			v-1.5v-31H1813.2z"/>
		<line class="st3" x1="1804.6" y1="735.5" x2="1891.7" y2="735.5"/>
	</g>
	<g id="postcard-small">
		<polygon class="st25" points="222.2,505.8 147.7,435.1 191.8,362.7 266.3,433.3 		"/>
		<g id="postcard-blink-group">
			<rect id="postcard-blink" x="139.8" y="344.6" class="st1" width="135.8" height="16"/>
		</g>
		<line class="st3" x1="224.1" y1="406.1" x2="189.5" y2="463.1"/>
		<line class="st3" x1="216.1" y1="433" x2="223.4" y2="440"/>
		<line class="st3" x1="208.2" y1="446" x2="232.4" y2="468.9"/>
		<line class="st3" x1="204.2" y1="452.5" x2="228.5" y2="475.4"/>
		<line class="st3" x1="200.3" y1="459" x2="224.5" y2="481.9"/>

			<ellipse transform="matrix(1.580521e-02 -0.9999 0.9999 1.580521e-02 -192.8638 668.7204)" class="st26" cx="243.3" cy="432.3" rx="10.9" ry="7.4"/>
		<polygon class="st3" points="244.6,452.6 237.2,445.6 246.9,429.7 254.3,436.7 		"/>
		<path class="st27" d="M181.4,395.9c2.7,0.4,12.5,5.5,15,6.2s5.1,4.2,7.9,4.6c2.8,0.4,7.6,0.7,7.6,0.7"/>
		<path class="st27" d="M175.5,404.1c5.2,1.7,9.4,5.6,15.9,9.1s11.2-0.3,14.3,3.3"/>
		<path class="st27" d="M171.3,415.8c5,1.7,10.8,7.1,15.1,8.6s15.3,5.8,15.3,5.8"/>
		<path class="st27" d="M172.6,433c2.3,2.7,9.4,6.2,11.3,8.2c1.8,1.9,5.6,4.8,5.6,4.8"/>
	</g>
	<polygon id="postcard-blink-mask" class="st25" points="222,504.9 148.4,435.1 192,363.6 265.6,433.3 	"/>
	<g>
		<g>
			<path class="st28" d="M173.8,527.5c-7.6-4.2-17.8,4.5-23.3,11.2c-3.5,4.2-5,9.8-5.7,15.2c-1.4,10.2-0.7,20.5-2.1,30.7
				c-2.1,15.5-9,30.5-7.3,46c2,18.9,18.2,35.2,37,37.5c2.1,0.2,4.2,0.3,6.1-0.5c5.2-2.2,5.8-9.5,9.5-13.7c1.8-2.1,4.4-3.4,6.7-4.9
				c13-8.6,18.2-25.4,17.7-41c-0.5-15.5-5.7-30.5-9.3-45.6c-1.6-6.7-3-13.7-6.7-19.5S180.7,526.4,173.8,527.5"/>
		</g>
		<g>
			<path class="st22" d="M188.9,639h-32.5c-2.8,0-5-2.3-5-5v-72.5c0-2.8,2.3-5,5-5h32.5c2.8,0,5,2.3,5,5V634
				C193.9,636.7,191.7,639,188.9,639z"/>
			<path class="st14" d="M193.9,639h-32.5c-2.8,0-5-2.3-5-5v-72.5c0-2.8,2.3-5,5-5h32.5c2.8,0,5,2.3,5,5V634
				C198.9,636.7,196.7,639,193.9,639z"/>
		</g>
		<rect x="170.1" y="580.1" class="st14" width="15.6" height="33.3"/>
		<rect x="182.1" y="580.1" class="st22" width="3.6" height="33.3"/>
		<polygon class="st22" points="185.6,581.3 170.3,590.4 170.3,581.2 182.1,573.8 		"/>
		<polygon class="st14" points="182.1,573.8 192.1,573.8 195.6,581.3 185.6,581.3 		"/>
		<polygon class="st21" points="170.3,590.4 180.7,590.4 195.6,581.3 185.6,581.3 		"/>
	</g>
	<g>
		<rect x="548.4" y="89.9" class="st29" width="216.7" height="344.3"/>
		<rect x="557.4" y="89.9" class="st30" width="216.7" height="344.3"/>
		<rect x="749.5" y="107.1" class="st21" width="9.1" height="309.9"/>
		<rect x="572.8" y="107.1" class="st14" width="176.7" height="309.9"/>
		<g>
			<path class="st31" d="M742,416.8c0.1-2.7,0.4-12.4,0.4-44.8c0-41.9-13.8-51.7-18.2-51.9c-0.1,0-0.2,0-0.3,0v-0.4l-11.7-14.9
				c0,0-6.2-40.2-16.2-37.3c-7.4,2.2-16.1-9.6-25.8-6.7c-18.2,5.3-39.1,43.5-51.4,47c-6,1.7-10.2,27-11.6,27.4
				c-8,2.1-15.1,17.5-16.9,40.5c-1.4,18.7-1,32.8-1.2,41.3H742V416.8z"/>
			<path class="st3" d="M699.2,415.1c0,0,6.9-61.4,13.4-78.3c6.5-16.9,11.2-16.8,11.2-16.8"/>
			<path class="st3" d="M609.6,416.4c0,0-2.5-31.9-0.4-58.9"/>
			<path class="st14" d="M688.6,318.5c0.1,0.9-6.1,27.8-5.9,31.5c0.2,3.7-17,21.9-19.8,24.5s-22,24.1-22,24.1s-11.5-20-12.2-21.1
				c-0.6-1.1-13.7-35.2-13.7-35.2l3.7-18.9"/>
			<path class="st31" d="M699.4,265.2c-23.5-15.4-30.9-12.4-30.9-12.4L606,298.9c0,0-6.2,22.7-2.4,40.2s8.6,27,17.3,35.7
				s19.1,28.4,19.1,28.4s15.9-15.3,35-27.7c19.1-12.4,32-27.7,37.2-49.6C717.4,304.1,722.9,280.5,699.4,265.2z M697.6,331.1
				c-10,19.6-26,26.6-37.7,35S641,394.2,641,394.2s-4.6-11.8-7.8-21.5s-14.2-28.4-17.1-36.1c-2.8-7.7-1-23.5-1-23.5l53.3-49.1
				c12.2-4.2,27.5,7.7,34.2,15.7C709.4,287.5,707.6,311.4,697.6,331.1z"/>
			<g>
				<path class="st14" d="M620.9,322.4c0,0,0,10.4,2.2,17.1c1.3,4,10,23.8,12.7,27.9s5.2,11.4,5.2,11.4s14.8-17.1,20-20.8
					c5.2-3.6,22.6-18.9,26.8-34.3c4.2-15.3-0.4-25.1-6.4-28.8c-6-3.6-12.2-4-12.2-4"/>
				<g>
					<path class="st32" d="M625.8,323.3c0,0,0.1,7.8,2.6,15.1c0.8,2.4,14.6,29,14.6,29s18.3-17.1,24.6-23.9s19-18.9,16-31.2
						c-3-12.3-11.3-17.6-11.3-17.6"/>
					<path class="st32" d="M679.6,320c0,0-2.4-9.6-4.2-18c-1.8-8.5-3-32.5-3-32.5l-20.7,9.8"/>
					<path class="st3" d="M642,342.2c0,0-6.8-8.9-9.8-18.9"/>
					<path class="st32" d="M611.6,169.9c0,0-11.9,37-11.9,45.5c-0.1,8.5,0.2,15.9,0.2,15.9s-4.3,26.8-1.3,45.1
						c3,18.3,10.6,44.5,18.3,48.9s29.5,4.4,37.4-6s16.3-26.2,18.5-38.8s4.7-23.8,4.7-23.8l9.3-50.4"/>
					<g id="left-eye-closed">
						<path class="st32" d="M608.6,242.2c4.7,0,8.6-4,8.6-9H600C600,238.2,603.9,242.2,608.6,242.2z"/>
						<path class="st32" d="M608.6,224.2c-4.7,0-8.6,4-8.6,9h17.2C617.2,228.2,613.3,224.2,608.6,224.2z"/>
					</g>
					<g id="right-eye-closed">
						<path class="st32" d="M645.6,242.2c4.7,0,8.6-4,8.6-9H637C637,238.2,640.9,242.2,645.6,242.2z"/>
						<path class="st32" d="M645.6,224.2c-4.7,0-8.6,4-8.6,9h17.2C654.2,228.2,650.3,224.2,645.6,224.2z"/>
					</g>
					<g id="left-eye-opened">
						<ellipse class="st14" cx="608.6" cy="233.2" rx="8.6" ry="9"/>
						<circle cx="608.6" cy="233.9" r="2.4"/>
						<path class="st32" d="M602.2,239.2c1.6,1.8,3.9,3,6.4,3s4.8-1.2,6.4-3H602.2z"/>
						<path class="st32" d="M616.5,229.7c-1.3-3.2-4.4-5.5-7.9-5.5c-3.6,0-6.6,2.3-7.9,5.5H616.5z"/>
					</g>
					<g id="right-eye-opened">
						<ellipse class="st14" cx="645.6" cy="233.2" rx="8.6" ry="9"/>
						<circle cx="645.6" cy="233.9" r="2.4"/>
						<path class="st32" d="M639.2,239.2c1.6,1.8,3.9,3,6.4,3s4.8-1.2,6.4-3H639.2z"/>
						<path class="st32" d="M653.5,229.7c-1.3-3.2-4.4-5.5-7.9-5.5c-3.6,0-6.6,2.3-7.9,5.5H653.5z"/>
					</g>
					<path class="st3" d="M622.6,229.1c0,0-3,7.7-4.2,16.1c-1.2,8.4-2.2,14.7-2.2,14.7s-5.4,0.8-4.8,4.9c0.6,4.1,6.3,3.9,6.3,3.9
						s-0.8,6.9,3.5,7.7c4.3,0.8,4.7-5.8,4.7-5.8s3,4.1,6.7,1.6s-1.2-8.7-1.2-8.7"/>
					<polyline class="st3" points="610.1,286.1 613,291 611.3,297.9 					"/>
					<path class="st3" d="M613,291c0,0,7.3-1.6,13.6-1.6s18.1,0.8,18.1,0.8"/>
				</g>
				<path class="st33" d="M602.8,184.1c0,1.6-0.6,3.1-1.2,4.5c-0.6,1.4-1.1,3.1-0.7,4.6s2,2.5,2.8,1.3c0.7-1,0.4-3,1.4-3.5
					c-0.2,0.9-0.5,1.9-0.3,2.8c0.1,0.9,0.8,1.8,1.5,1.7c0.5-0.1,0.9-0.6,1.2-1.1c0.8-1.2,1.6-2.4,2.4-3.6c0.3,1.6,0.6,3.1,1,4.7
					c0.1,0.5,0.3,1.2,0.7,1.3c0.2,0.1,0.5,0,0.7-0.2c1.3-0.7,2.8-1.8,3.1-3.7c-0.3,2.1-0.6,4.3-0.9,6.4c0,0.3-0.1,0.5,0,0.8
					c0.2,0.8,1.1,0.5,1.6,0c0.9-0.9,1.7-2.1,2.2-3.4c-0.1,1.5-0.1,3.1,0.1,4.6c1.3,0.4,2.8-1.2,2.7-3c0,1.8,0,3.6,0,5.3
					c0,1.4,0,2.9,0.5,4.2s1.6,2.2,2.6,1.7c0.9-0.4,1.3-1.8,1.6-3c0.5-2.5,0.8-5,0.8-7.5c0.2,2.2,0.5,4.3,0.7,6.5
					c0,0.4,0.1,0.8,0.3,1s0.4,0.2,0.7,0.2c1.5-0.1,2.7-1.7,3.2-3.5c0.6-1.8,0.7-3.8,0.7-5.7c0.5,1.2,1,2.4,1.5,3.5
					c0.1,0.3,0.3,0.7,0.6,0.8s0.7-0.2,0.9-0.5c1.2-1.5,2.2-3.2,2.9-5.1c0.2,1,0.3,2,0.8,2.8c0.4,0.8,1.2,1.3,1.9,1
					c0.9-0.4,1.2-2,1.3-3.3c0.2,1.6,0.6,3.1,1.1,4.5c1.1-0.5,2.1-1.6,2.6-2.9c0.5,0.3,0.3,1.2,0.5,1.8c0.3,1.1,1.5,1,2.3,0.3
					c0.7-0.7,1.2-1.8,2-2.2c-0.1,0.9-0.2,1.8,0,2.7s0.7,1.7,1.4,1.7c0.4,0,0.7-0.2,1.1-0.4c1-0.7,1.9-1.9,2.5-3.3
					c0,1.2,0.1,2.3,0.1,3.5c3-2.4,4.7-7.3,4.3-12c-8.4-4.7-17-8.6-25.7-11.7"/>
				<path class="st33" d="M667,199.5c-0.6,1.9-1.2,3.9-1.4,6c-0.1,2.1,0.3,4.4,1.5,5.7s2.9,1.5,4.4,1.4c-0.5,0.8-1.1,1.9-0.9,2.9
					c0.1,1.1,1.4,1.7,1.8,0.7c-1.8,2-2.5,5.5-1.7,8.3c0.3-0.5,0.7-0.9,1-1.4c-1,2.7-1.3,5.8-1,8.7c0.5-0.1,0.9-0.5,1-1.1
					c0.2,0.6,0,1.3,0,2c-0.1,1.5,0.9,2.8,1.9,3.2s2.2,0.2,3.3,0c1.4-6.3,4-10.5,8.6-15.6"/>
				<path class="st34" d="M605.3,170c0,0,7.2-17.7,15.6-24.2c8.4-6.5,33.9-15.2,44.7-13.7s14.2,9.5,17.1,15.1
					c2.9,5.6,4.6,8.2,5.1,12.9s-1,7.3-1,7.3s4.3,9.9,6.2,20.2s-1.1,28.9-1.1,28.9l-39.7-36.4"/>
				<path class="st34" d="M630.4,183.3c11.2,1.1,24.7,7.8,33.3,15.1s20.6,23.5,20.6,23.5l10.1,5.8c0,0,0.1-9.5-3.7-15.9
					S672.4,187,658,176.6s-25.9-11.1-34.6-10.8c-8.7,0.4-15.3,1.1-18,4s-5.3,10.4-4.9,14s2.3,3.3,4.9,2.2S617.4,182.1,630.4,183.3z"
					/>
				<g>
					<g>
						<line class="st3" x1="602.4" y1="273.5" x2="602.4" y2="279.3"/>
						<line class="st3" x1="608" y1="273.5" x2="608" y2="279.3"/>
						<line class="st3" x1="655" y1="263.7" x2="655" y2="269.4"/>
						<line class="st3" x1="649.2" y1="270.7" x2="649.2" y2="276.4"/>
						<line class="st3" x1="663" y1="265.2" x2="663" y2="270.9"/>
						<line class="st3" x1="663.7" y1="249.6" x2="663.7" y2="255.3"/>
						<line class="st3" x1="661" y1="279.6" x2="661" y2="285.4"/>
						<line class="st3" x1="653.6" y1="283.2" x2="653.6" y2="289"/>
					</g>
					<line class="st3" x1="613" y1="279.3" x2="613" y2="283.2"/>
					<line class="st3" x1="633.2" y1="276.4" x2="633.2" y2="279.3"/>
					<line class="st3" x1="640" y1="277.5" x2="640" y2="281.5"/>
					<line class="st3" x1="627" y1="280.1" x2="627" y2="284.1"/>
					<line class="st3" x1="619.2" y1="282.1" x2="619.2" y2="286.1"/>
					<line class="st3" x1="625" y1="308.7" x2="625.5" y2="314.5"/>
					<line class="st3" x1="616.6" y1="304.7" x2="617.1" y2="310.5"/>
					<line class="st3" x1="608.8" y1="301.7" x2="609.4" y2="307.6"/>
					<line class="st3" x1="633.2" y1="303" x2="633.2" y2="308.7"/>
					<line class="st3" x1="643.4" y1="296.1" x2="643.4" y2="301.7"/>
					<line class="st3" x1="642" y1="311.1" x2="642" y2="316.8"/>
					<line class="st3" x1="652.2" y1="304.2" x2="652.2" y2="309.8"/>
					<line class="st3" x1="656.7" y1="295" x2="656.7" y2="300.7"/>
					<line class="st3" x1="669.1" y1="278.4" x2="669.1" y2="283.1"/>
					<line class="st3" x1="672.3" y1="244" x2="671.7" y2="248.8"/>
					<line class="st3" x1="670.2" y1="260.6" x2="670.2" y2="267.3"/>
					<line class="st3" x1="613.6" y1="315" x2="615.2" y2="319.8"/>
					<line class="st3" x1="622.6" y1="323.8" x2="620.9" y2="318.5"/>
					<line class="st3" x1="632.3" y1="316.8" x2="632.3" y2="322.4"/>
				</g>
				<g>
					<path class="st3" d="M608.2,171.7c0,0-1.5,4.4-1.9,8.6"/>
					<path class="st3" d="M615.2,169.9c0,0-1.7,5.1-1.3,9.7"/>
					<path class="st3" d="M622.3,169.9c0,0-1.7,5.1-1.3,9.7"/>
					<line class="st3" x1="630.4" y1="179.5" x2="631.3" y2="171.7"/>
					<line class="st3" x1="639.6" y1="181.3" x2="640.5" y2="173.4"/>
					<line class="st3" x1="649.2" y1="184.8" x2="649.9" y2="177.3"/>
					<line class="st3" x1="658" y1="181.3" x2="656.1" y2="188.8"/>
					<line class="st3" x1="664.3" y1="193.5" x2="666.2" y2="186.4"/>
					<line class="st3" x1="670.2" y1="201.2" x2="672" y2="193.5"/>
					<line class="st3" x1="677.8" y1="210" x2="679.5" y2="202.3"/>
					<line class="st3" x1="682.7" y1="216.7" x2="684.5" y2="209"/>
					<line class="st3" x1="689.3" y1="215.6" x2="687.8" y2="220.3"/>
				</g>
				<path class="st32" d="M676.5,256.6c0,0,3,5.5,8.5,2.2c5.5-3.3,9-19.2,9.5-25.6c0.5-6.4-0.9-14.9-5.8-13.8
					c-4.9,1.1-7.9,7.5-7.9,7.5"/>
				<path class="st3" d="M687.7,229.1c-2.6,1.6-5.1,3.8-6.6,6.9c-1.6,3.2-2.2,7.6-0.7,10.9c1,2.2,2.5,1.9,3.1,1.8
					c1.8-0.6,2.8-3.1,2.8-5.7c0-0.4-0.1-0.8-0.2-1.2c-0.3-1.1-1.3-1.2-2.5-1.1c-1.8,0.2-2.9,2.7-3.5,5"/>
				<g>
					<path class="st3" d="M615.2,163.1c0,0,4.4-11.3,12.1-16.8"/>
					<path class="st3" d="M625.2,160.2c0,0,8.8-13.1,13.3-16.8"/>
					<path class="st3" d="M637,160.2c0,0,10.1-22,20.9-28.2"/>
					<path class="st3" d="M644.7,161.7c0,0,16.9-23.3,27.8-27.3"/>
					<path class="st3" d="M654.2,167.5c0,0,9.5-13.1,14.9-18.2s13.6-2,13.6-2"/>
					<line class="st3" x1="663.7" y1="173.4" x2="675" y2="161.7"/>
					<line class="st3" x1="671.7" y1="179.5" x2="679.6" y2="166"/>
					<line class="st3" x1="677.3" y1="186.4" x2="684.4" y2="175.6"/>
					<line class="st3" x1="682.7" y1="194.5" x2="687.8" y2="181"/>
					<line class="st3" x1="687.7" y1="202.8" x2="689.3" y2="194.5"/>
				</g>
				<path class="st3" d="M675,149.3c0,0,1.8,6.9,5.8,10.9s6.9,9.7,6.9,9.7"/>
				<line class="st3" x1="680.8" y1="151.8" x2="682.7" y2="156.7"/>
				<line class="st3" x1="602.4" y1="218" x2="614.1" y2="218"/>
				<line class="st3" x1="639.7" y1="218" x2="651.5" y2="218"/>
			</g>
			<path class="st3" d="M684.1,286.1c0,0,7.6,12.9,5.4,27"/>
			<g>
				<line class="st3" x1="644.7" y1="334.9" x2="647.4" y2="338.6"/>
				<line class="st3" x1="649.5" y1="326.4" x2="651.9" y2="331.1"/>
				<line class="st3" x1="657.3" y1="331.1" x2="659.6" y2="334.9"/>
				<line class="st3" x1="644.7" y1="328.7" x2="643.4" y2="326.1"/>
				<line class="st3" x1="638.6" y1="331.1" x2="637" y2="327.9"/>
				<line class="st3" x1="655.9" y1="323.3" x2="654.2" y2="319.2"/>
			</g>
		</g>
	</g>
	<g>
		<rect x="823" y="46.6" class="st29" width="124.4" height="168.7"/>
		<rect x="830.5" y="46.6" class="st30" width="124.4" height="168.7"/>
		<rect x="854.9" y="78.7" class="st14" width="71.6" height="104.6"/>
		<g>
			<g>
				<path class="st35" d="M928.8,157.8c-1.6-2-4.4-9.2-5.6-11.7c-9.4-19.6-10.4-23.8-10.4-23.8l-30.4,21.8c0,0,7.8,1.4,10.8,15
					c0.9,4.3,2.6,13.5,4.5,24.1h31.2L928.8,157.8L928.8,157.8z"/>
				<path class="st35" d="M884.6,105.2c0,0-6.3,1.9-8.8,6.6s-2.9,9.6-2.9,9.6s1.2,40.2,5.8,41.2
					C883.4,163.5,884.6,105.2,884.6,105.2z"/>
				<path class="st36" d="M909.8,111.1c0,0,8.9,2.4,11.3,8.4c2.5,6,3.6,18.8-1.8,22.9c-5.5,4.1-3.2-19.8-6-19.2
					c-2.9,0.7-8.6,15.9-19.9,20.4c-11.3,4.4-23.2,4.9-30.5,0.2c-7.3-4.8-7.6-10.2,0.9-15.9c10.7-7.1,11.8-9.9,14.9-14.2
					c0,0,6-8,11.6-9.5C895.9,102.6,905.5,98.9,909.8,111.1z"/>
				<path class="st35" d="M915,131.3c2.9-0.7,0.6,34,6.1,29.9s2.4-35.7,0-41.7c-2.5-6-11.3-8.4-11.3-8.4c-4.3-12.3-18-11.4-23.3-8.7
					c-3.1,1.5-5.6,8.4-8.7,12.5c-0.1,0.2,3-3.8,10.1-8.4c8-5.2-4.2,11.6-9.6,18.1c-5.5,6.5,7.3,7,9.5,9.9s0.8,8.5,0.4,10.1
					c0,0.2,0.2,0.4,0.5,0.6c1.6-0.5,4.9,0.2,6.4-0.4"/>
				<path class="st37" d="M866.3,135.4c2.3-2.2,0.9-4.1-1.7-4.6c-1.2-0.2-2.6-0.4-3.9-0.5c-4.4,4.1-4.3,8.1-0.1,11.8
					C863,140.2,865,136.6,866.3,135.4z"/>
				<path class="st38" d="M859.3,136.4c0,0,5.1-2.2,3.5-4.4C861.5,130.1,856.8,134,859.3,136.4z"/>
				<path class="st37" d="M895.2,118c0,1.6-1,3-2.3,3s-2.3-1.3-2.3-3c0-1.6,1-3,2.3-3C894.1,115,895.2,116.3,895.2,118z"/>
				<path class="st1" d="M892.9,118c0,0.8-0.4,1.4-0.8,1.4c-0.5,0-0.8-0.6-0.8-1.4s0.4-1.4,0.8-1.4
					C892.5,116.5,892.9,117.2,892.9,118z"/>
				<path class="st37" d="M917.2,137.1c0.3-5.8,1.8-15.4-1.4-18.3c-3.3-2.9-5.1-2.6-6.1-0.5c-0.7,1.4,1,6,1.1,10.7
					c0.8-0.8,1.4-1.4,2-1.5c2.5-0.6,3.2,31.6,6.3,33.1C919,158.8,917.1,139,917.2,137.1z"/>
				<path class="st39" d="M872,146.9c0,0,7.9-2.2,9.3-7.2"/>
				<path class="st39" d="M893.3,111.2c0,0,2.9,0.2,5.5,4.6"/>
			</g>
		</g>
		<rect x="926.4" y="78.7" class="st21" width="4.1" height="104.6"/>
	</g>
	<g>
		<rect x="823" y="265.6" class="st29" width="124.4" height="168.7"/>
		<rect x="830.5" y="265.6" class="st30" width="124.4" height="168.7"/>
		<rect x="926.4" y="297.6" class="st21" width="4.1" height="104.6"/>
		<rect x="854.9" y="297.6" class="st14" width="71.6" height="104.6"/>
		<g>
			<path class="st40" d="M860.8,358c0,0,7.3,35.2,31.9,26.3c18.9-6.9,25.3-39.2,25.3-39.2"/>
			<path class="st41" d="M907.3,365.4c-10.6,11.3-28,13.4-38.8,4.6c-10.9-8.7-11.1-24.9-0.6-36.2c10.6-11.3,35.1-21,46-12.3
				C924.7,330.3,917.8,354.1,907.3,365.4z"/>

				<ellipse transform="matrix(0.1373 -0.9905 0.9905 0.1373 412.3233 1180.6998)" class="st42" cx="884" cy="353.6" rx="16.1" ry="17.5"/>
		</g>
	</g>
	<g>
		<path class="st43" d="M446,403.9c0,0-13.4-44.4-17.1-54s-19.6-14.8-30.2-36.3c-10.6-21.4-14.7-43.7-14.7-43.7h64.4"/>
		<path class="st43" d="M187.6,269.9v-12.8H118v19.3h33.4c2,8.2,6.2,22.9,13.2,37.2c10.6,21.4,26.5,26.7,30.2,36.3
			c3.7,9.6,17.1,54,17.1,54l2.5-134H187.6z"/>
		<g>
			<path class="st14" d="M226.7,272.8l-15.4,131.1h15.4c0,0,12.3-24.9,21.8-41.3s25.7-17.3,38.7-34.8c15.2-20.4-0.4-43.1,19-52.9
				S226.7,272.8,226.7,272.8z"/>
			<path class="st20" d="M211.3,272.8v131.1c0,0,12.3-24.9,21.8-41.3s25.7-17.3,38.7-34.8c15.2-20.4-0.4-43.1,19-52.9
				S211.3,272.8,211.3,272.8z"/>
			<polygon class="st21" points="211.3,314.3 288.2,276.4 211.9,276.4 			"/>
		</g>
		<g>
			<path class="st14" d="M460,272.8l-15.4,131.1H460c0,0,12.3-24.9,21.8-41.3s25.7-17.3,38.7-34.8c15.2-20.4-0.4-43.1,19-52.9
				C558.8,265.1,460,272.8,460,272.8z"/>
			<path class="st20" d="M444.6,272.8v131.1c0,0,12.3-24.9,21.8-41.3s25.7-17.3,38.7-34.8c15.2-20.4-0.4-43.1,19-52.9
				C543.4,265.1,444.6,272.8,444.6,272.8z"/>
			<polygon class="st21" points="444.6,314.3 521.4,276.4 445.2,276.4 			"/>
		</g>
		<rect x="307.3" y="257.1" class="st14" width="256.6" height="19.3"/>
		<rect x="183.7" y="257.1" class="st20" width="123.6" height="19.3"/>
	</g>
	<g id="oscar-small">
		<path id="oscar-blink-mask" class="st44" d="M423.4,73.4c1.9,0.6,1.9,0.6,1.9,0.6s-1,10.8-3.3,15.8c-2.4,5,0.1,9,1.6,15.2
			s0.6,18.5,2.6,26s1.2,8.9-1.5,15.9s-1.8,13.7,1.7,25.3s4,18.4,2.3,23.4c-1.1,3.3-2.5,4.9-1.6,6.6h31.3
			c-3.3-3.1-12.8-3.3-12.9-11.5c-0.1-8.8,4.2-29.7,4.5-41.2s3.2-17.5,5.2-28.4s3.4-25.5,1.8-31.7c-1.6-6.2-1.5-11.4-1.4-13.4
			s4.1-3.6,4.9-10c0.8-6.5,2.4-8.2,2.6-16.9s0.3-7,0.7-9.8c0.3-2.7,3.3-10.8-2.4-16c-5.7-5.2-12.3-4.3-13.4-7.4s-0.7-4.2-0.7-4.2
			s2.2,0.6,4-4.3c0.6-1.5,1.3-3.1,1.9-6L430,1.5c0.4,1.3,0.7,1.5,1,2.6c1.1,4.9,1.8,8.6-5.9,12.9c-7.7,4.3-10.8,3.9-10.6,22.2
			c0.2,18.4,1.4,21.3,3.5,26.1C420,70,421.5,72.8,423.4,73.4z"/>
		<g id="oscar-blink-group">
			<path id="oscar-bg" class="st44" d="M423.4,73.4c1.9,0.6,1.9,0.6,1.9,0.6s-1,10.8-3.3,15.8c-2.4,5,0.1,9,1.6,15.2
				s0.6,18.5,2.6,26s1.2,8.9-1.5,15.9s-1.8,13.7,1.7,25.3s4,18.4,2.3,23.4c-1.1,3.3-2.5,4.9-1.6,6.6h31.3
				c-3.3-3.1-12.8-3.3-12.9-11.5c-0.1-8.8,4.2-29.7,4.5-41.2s3.2-17.5,5.2-28.4s3.4-25.5,1.8-31.7c-1.6-6.2-1.5-11.4-1.4-13.4
				s4.1-3.6,4.9-10c0.8-6.5,2.4-8.2,2.6-16.9s0.3-7,0.7-9.8c0.3-2.7,3.3-10.8-2.4-16c-5.7-5.2-12.3-4.3-13.4-7.4s-0.7-4.2-0.7-4.2
				s2.2,0.6,4-4.3c0.6-1.5,1.3-3.1,1.9-6L430,1.5c0.4,1.3,0.7,1.5,1,2.6c1.1,4.9,1.8,8.6-5.9,12.9c-7.7,4.3-10.8,3.9-10.6,22.2
				c0.2,18.4,1.4,21.3,3.5,26.1C420,70,421.5,72.8,423.4,73.4z"/>
			<path id="shadows" class="st45" d="M433.2,25.2c0,0-5.4,8.5-5.9,11.5s0.8,8.6,0.8,15.1s1.8,5,1.8,5l-5.4,4.8
				c0,0,1.6-15.6-1.6-19.5c-3.2-4-1.8-10.9-1.8-13.6C421,25.6,433.2,25.2,433.2,25.2L433.2,25.2z M441.2,29.8c0,0-1,5.4-4.3,5.8
				c-3.3,0.3-5.9,1.6,0.2,4.5C443.3,43.1,448.7,41.5,441.2,29.8L441.2,29.8z M448.7,28.8c0,0,2,11.2-1,13.7c-3.1,2.5,6.1,4,6.4-3.1
				C454.3,32.4,448.7,28.8,448.7,28.8L448.7,28.8z M453.3,50.4c0,0-2.2-1.9-10.3,3.2c-8.2,5.1-19.3,11.1-11.4,9.2s10.7-4.1,16.6-3.7
				C454.1,59.3,453.3,50.4,453.3,50.4L453.3,50.4z M461,39.9l-4.1,4.1l-2,17.8C454.9,61.8,463.4,48.6,461,39.9L461,39.9z
				 M451.3,75.5l-5.1,2.5l-12.8-6.2l-1.4,5.9c0,0,4,1.6,7.2,7.7s5.1,8.5,5.1,8.5L440.8,194L451.3,75.5L451.3,75.5z M443.5,97.8
				c0,0-2.2-1.7-5.6-8.1s-4.4-8.4-4.5,3.5s3.4,18,4.3,27.4c0.9,9.3,1.1,14.6,2.4,6.2C441.4,118.5,443.5,97.8,443.5,97.8L443.5,97.8z
				 M454.8,94.5c0,0-1.6,30.9-3.2,34.2c-1.6,3.3-1.9,3.4-1.9,3.4l0.8-34.4L454.8,94.5L454.8,94.5z M433.4,146.9l3,47.2l2.6-45.7
				C439,148.3,436.8,143.6,433.4,146.9L433.4,146.9z M447.4,147.7c0,0-0.5,15.3-1.4,27.9c-0.9,12.6-3.1,18-3.1,18
				S445.3,156.1,447.4,147.7L447.4,147.7z"/>
			<polygon id="oscar-blink" class="st46" points="468.1,239 411.3,218.4 411.3,199.8 468.1,220.4 			"/>
		</g>
		<g>
			<line class="st3" x1="429.9" y1="56.7" x2="427.3" y2="36.6"/>
			<polyline class="st3" points="447.4,100.4 442.9,145.7 441.1,188.3 			"/>
			<path class="st3" d="M436.2,73.1c0,0,12,4.6,13.5,4.8s6-1.8,6-1.8"/>
			<path class="st3" d="M433.5,56.6c0,0,14.4-10.8,18.7-9.9"/>
			<line class="st3" x1="456.4" y1="59.1" x2="439.8" y2="68.1"/>
			<path class="st3" d="M430,1.1c0.4,1.3,0.7,1.9,1,3c1.1,4.9,1.8,8.6-5.9,12.9c-7.7,4.3-10.8,3.9-10.6,22.2
				c0.2,18.4,1.4,21.3,3.5,26.1c2,4.7,3.5,7.5,5.4,8.1s1.9,0.6,1.9,0.6s-1,10.8-3.3,15.8c-2.4,5,0.1,9,1.6,15.2s0.6,18.5,2.6,26
				s1.2,8.9-1.5,15.9s-1.8,13.7,1.7,25.3s4,18.4,2.3,23.4c-1.1,3.3-2.5,4.9-1.6,6.6h31.3c-3.3-3.1-12.8-3.3-12.9-11.5
				c-0.1-8.8,4.2-29.7,4.5-41.2s3.2-17.5,5.2-28.4s3.4-25.5,1.8-31.7c-1.6-6.2-1.5-11.4-1.4-13.4s4.1-3.6,4.9-10
				c0.8-6.5,2.4-8.2,2.6-16.9s0.3-7,0.7-9.8c0.3-2.7,3.3-10.8-2.4-16c-5.7-5.2-12.3-4.3-13.4-7.4s-0.7-4.2-0.7-4.2s2.2,0.6,4-4.3
				c0.6-1.5,1.3-3.5,1.9-6.4"/>
			<rect x="416.3" y="202.2" class="st47" width="48.9" height="9.5"/>
			<rect x="410.7" y="209.9" class="st48" width="60.2" height="37.4"/>
			<rect x="402.1" y="245.5" class="st49" width="77.3" height="10.8"/>
		</g>
	</g>
	<g>
		<g>
			<g>
				<path class="st50" d="M393.1,173.4c0,0,2.3-29.1-56.8-48.2C336.3,125.2,360.7,168.4,393.1,173.4z"/>
				<path class="st3" d="M393.1,173.4c0,0-17-24.8-56.2-48"/>
			</g>
			<g>
				<path class="st50" d="M436.2,176.1c0,0,9-32.5,46.2-31.4C482.4,144.8,460.9,175.3,436.2,176.1z"/>
				<path class="st3" d="M436.2,176.1c0,0,14.6-17.2,45.7-31.3"/>
			</g>
			<g>
				<path class="st51" d="M522.5,352.4c0,0-33.9-2.5-43.5,60.6C479,413,523.5,386.9,522.5,352.4z"/>
				<path class="st3" d="M522.5,352.4c0,0-24.9,18.2-43.4,59.9"/>
			</g>
			<g>
				<path class="st52" d="M504.6,217.7c0,0-33.2-10-62.8,52.3C441.9,270.1,494.7,253.3,504.6,217.7z"/>
				<path class="st3" d="M504.6,217.7c0,0-30.7,13.1-62.4,51.7"/>
			</g>
			<g>
				<path class="st53" d="M495.6,170.2c0,0,26.4-10.8,56.3,0.5c20.7,7.8,38.4,29.6,38.4,29.6s-38.7-0.1-56.2-6.9
					C514.4,185.7,495.6,170.2,495.6,170.2z"/>
				<path class="st3" d="M590.3,200.3c0,0-56.4-34.7-94.7-30.1"/>
			</g>
			<g>
				<path class="st53" d="M514.9,323.8c0,0,26.4-10.8,56.3,0.5c20.7,7.8,38.4,29.6,38.4,29.6s-38.7-0.1-56.2-6.9
					C533.7,339.3,514.9,323.8,514.9,323.8z"/>
				<path class="st3" d="M609.6,353.9c0,0-56.4-34.7-94.7-30.1"/>
			</g>
			<g>
				<path class="st54" d="M370.9,112.2c0,0,7.6-46-36.8-69.4c0,0,5,24.1,11.3,37.7C351.6,94.1,370.9,112.2,370.9,112.2z"/>
				<path class="st3" d="M370.9,112.2c0,0-6-36.6-35.9-67.3"/>
			</g>
			<g>
				<path class="st54" d="M561.8,110.7c0,0-50.3-19.3-94,17.8c0,0,29.7,1.4,47.8-1.2C533.6,124.7,561.8,110.7,561.8,110.7z"/>
				<path class="st3" d="M561.8,110.7c0,0-45.7-3.9-92.4,17.1"/>
			</g>
			<g>
				<path class="st54" d="M574.5,449.3c0,0,11.9-39-28.8-56.9c0,0,0.1,19.1,7.2,31.2C560.6,436.8,574.5,449.3,574.5,449.3z"/>
				<path class="st3" d="M574.5,449.3c0,0-2-31.1-27.9-55.7"/>
			</g>
			<path class="st3" d="M291.1,152.1c0,0,106.7-83.3,175.8-24.3s12.4,189.8,80,265.8"/>
		</g>
		<g>
			<path class="st30" d="M238.5,248.1h85.6c16.3-12.7,26.8-32.5,26.8-54.8c0-15.5-5.1-29.8-13.6-41.3H225.4
				c-8.5,11.6-13.6,25.8-13.6,41.3C211.8,215.6,222.3,235.4,238.5,248.1z"/>
			<polygon class="st30" points="330.3,257.3 232.4,257.3 224.4,243.6 338.3,243.6 			"/>
		</g>
		<g>
			<path class="st3" d="M260.9,152.1c0,0,0.6-62.1-28.1-63s-42.3,100.6-42.3,100.6"/>
			<g>
				<path class="st52" d="M251.4,170.3c0,0,0-39.3-45.5-46.3C205.9,123.9,216.4,163,251.4,170.3z"/>
				<path class="st3" d="M251.4,170.3c0,0-10.2-26.4-44.9-46.2"/>
			</g>
			<g>
				<path class="st52" d="M168.9,90.9c0,0,23-19.6,48.4,7.8C217.3,98.7,188.2,110.5,168.9,90.9z"/>
				<path class="st3" d="M168.9,90.9c0,0,21-5.9,48.1,7.5"/>
			</g>
			<g>
				<path class="st54" d="M140.6,182.3c0,0,17.1-31.9,53.8-17.6c0,0-12,11.9-24.1,15.1C157.2,183.3,140.6,182.3,140.6,182.3z"/>
				<path class="st3" d="M140.6,182.3c0,0,20.8-18.3,52.5-17.4"/>
			</g>
			<g>
				<path class="st53" d="M190.6,189.5c0,0-10.3,11.4-7.7,28.8c1.8,12,12.5,24.9,12.5,24.9s5.4-19.7,3.8-29.8
					C197.4,201.9,190.6,189.5,190.6,189.5z"/>
				<path class="st3" d="M195.4,243.2c0,0-13.1-35-4.8-53.7"/>
			</g>
		</g>
	</g>
</g>
</svg>
