<svg version="1.1" viewBox="0 0 328.4 898.5" xmlns="http://www.w3.org/2000/svg" xmlns:xlink="http://www.w3.org/1999/xlink"  xml:space="preserve">
			<g>
				<g>
					<path style="fill:#EA7547;" d="M193.7,434c0-8.1-5.8-15.1-14.3-18.7v-0.6c8.5-3.7,14.3-10.7,14.3-18.7c0-8.1-5.8-15.1-14.3-18.7
						V376c3.8-5.8,6.1-13.9,6.1-22.9c0-6.5-2.7-26.9-6.1-50v-79l-13.6-7.4l-13.3,7.4v76.6c-3.6,24.1-6.5,45.7-6.5,52.4
						c0,9.3,2.5,17.7,6.5,23.5v0.6c-8.5,3.7-14.3,10.7-14.3,18.7c0,8.1,5.8,15.1,14.3,18.7v0.6c-8.5,3.7-14.3,10.7-14.3,18.7
						c0,8.1,5.8,15.1,14.3,18.7v0.6c-7.6,3.3-13,9.2-14.1,16.1c5.9,2,11.8,5.2,14.1,10.8v14c-3.6,24.1-6.5,45.7-6.5,52.4
						c0,9.2,2.4,17.5,6.4,23.3c-8.4,3.7-14.1,10.7-14.1,18.7c0,8.1,5.8,15.1,14.3,18.7v0.6c-8.5,3.7-14.3,10.7-14.3,18.7
						c0,8.1,5.8,15.1,14.3,18.7v0.6c-7.6,3.3-13,9.2-14.1,16.1c5.9,2,11.8,5.2,14.1,10.8v15.9c-3.6,24.1-6.5,45.7-6.5,52.4
						c0,9.3,2.5,17.7,6.5,23.5V898h26.9V764c3.8-5.8,6.1-13.9,6.1-22.9c0-6.5-2.7-26.9-6.1-50v-13.8c0.3-8,7-12.4,14.1-14.9
						c-1-7.1-6.4-13.1-14.1-16.4v-0.6c8.5-3.7,14.3-10.7,14.3-18.7c0-8.1-5.8-15.1-14.3-18.7v-0.6c8.5-3.7,14.3-10.7,14.3-18.7
						c0-8.1-5.8-15.1-14.3-18.7v-0.3c3.8-5.8,6.1-13.9,6.1-22.9c0-6.5-2.7-26.9-6.1-50v-11.9c0.3-8,7-12.4,14.1-14.9
						c-1-7.1-6.4-13.1-14.1-16.4v-0.6C188,449,193.7,442,193.7,434z"/>
					<g>
						<path style="fill:#C65030;" d="M161.5,741c0-6.7,1.2-28.3,2.6-52.4v-15.9c-0.9-5.5-3.3-8.8-5.6-10.8c0.4-7,2.6-12.9,5.6-16.1
							v-0.6c-3.4-3.7-5.7-10.7-5.7-18.7c0-8.1,2.3-15.1,5.7-18.7v-0.6c-3.4-3.7-5.7-10.7-5.7-18.7c0-8,2.3-15,5.7-18.7
							c-1.6-5.8-2.6-14.1-2.6-23.3c0-6.7,1.2-28.3,2.6-52.4v-14c-0.9-5.5-3.3-8.8-5.6-10.8c0.4-7,2.6-12.9,5.6-16.1v-0.6
							c-3.4-3.7-5.7-10.7-5.7-18.7c0-8.1,2.3-15.1,5.7-18.7v-0.6c-3.4-3.7-5.7-10.7-5.7-18.7c0-8.1,2.3-15.1,5.7-18.7v-0.6
							c-1.6-5.8-2.6-14.2-2.6-23.5c0-6.7,1.2-28.3,2.6-52.4v-76.6l4.3-6l-2.6-1.4l-13.3,7.4v76.6c-3.6,24.1-6.5,45.7-6.5,52.4
							c0,9.3,2.5,17.7,6.5,23.5v0.6c-8.5,3.7-14.3,10.7-14.3,18.7c0,8.1,5.8,15.1,14.3,18.7v0.6c-8.5,3.7-14.3,10.7-14.3,18.7
							c0,8.1,5.8,15.1,14.3,18.7v0.6c-7.6,3.3-13,9.2-14.1,16.1c5.9,2,11.8,5.2,14.1,10.8v14c-3.6,24.1-6.5,45.7-6.5,52.4
							c0,9.2,2.4,17.5,6.4,23.3c-8.4,3.7-14.1,10.7-14.1,18.7c0,8.1,5.8,15.1,14.3,18.7v0.6c-8.5,3.7-14.3,10.7-14.3,18.7
							c0,8.1,5.8,15.1,14.3,18.7v0.6c-7.6,3.3-13,9.2-14.1,16.1c5.9,2,11.8,5.2,14.1,10.8v15.9c-3.6,24.1-6.5,45.7-6.5,52.4
							c0,9.3,2.5,17.7,6.5,23.5V898h11.6V764.5C162.5,758.7,161.5,750.4,161.5,741z"/>
					</g>
					<g>

							<line style="fill:none;stroke:#000000;stroke-linecap:round;stroke-linejoin:round;stroke-miterlimit:10;" x1="169.9" y1="376.2" x2="179.1" y2="376.2"/>

						<line style="fill:none;stroke:#000000;stroke-linecap:round;stroke-linejoin:round;stroke-miterlimit:10;" x1="169.9" y1="452.9" x2="179.1" y2="452.9"/>

						<line style="fill:none;stroke:#000000;stroke-linecap:round;stroke-linejoin:round;stroke-miterlimit:10;" x1="164.1" y1="414.6" x2="179.9" y2="414.6"/>
					</g>
					<g>

							<line style="fill:none;stroke:#000000;stroke-linecap:round;stroke-linejoin:round;stroke-miterlimit:10;" x1="169.9" y1="569.8" x2="179.1" y2="569.8"/>

						<line style="fill:none;stroke:#000000;stroke-linecap:round;stroke-linejoin:round;stroke-miterlimit:10;" x1="169.9" y1="646.4" x2="179.1" y2="646.4"/>

						<line style="fill:none;stroke:#000000;stroke-linecap:round;stroke-linejoin:round;stroke-miterlimit:10;" x1="164.1" y1="608.1" x2="179.9" y2="608.1"/>
					</g>
					<path style="fill:none;stroke:#000000;stroke-linecap:round;stroke-linejoin:round;stroke-miterlimit:10;" d="M193.7,434
						c0-8.1-5.8-15.1-14.3-18.7v-0.6c8.5-3.7,14.3-10.7,14.3-18.7c0-8.1-5.8-15.1-14.3-18.7V376c3.8-5.8,6.1-13.9,6.1-22.9
						c0-6.5-2.7-26.9-6.1-50v-79l-13.6-7.4l-13.3,7.4v76.6c-3.6,24.1-6.5,45.7-6.5,52.4c0,9.3,2.5,17.7,6.5,23.5v0.6
						c-8.5,3.7-14.3,10.7-14.3,18.7c0,8.1,5.8,15.1,14.3,18.7v0.6c-8.5,3.7-14.3,10.7-14.3,18.7c0,8.1,5.8,15.1,14.3,18.7v0.6
						c-7.6,3.3-13,9.2-14.1,16.1c5.9,2,11.8,5.2,14.1,10.8v14c-3.6,24.1-6.5,45.7-6.5,52.4c0,9.2,2.4,17.5,6.4,23.3
						c-8.4,3.7-14.1,10.7-14.1,18.7c0,8.1,5.8,15.1,14.3,18.7v0.6c-8.5,3.7-14.3,10.7-14.3,18.7c0,8.1,5.8,15.1,14.3,18.7v0.6
						c-7.6,3.3-13,9.2-14.1,16.1c5.9,2,11.8,5.2,14.1,10.8v15.9c-3.6,24.1-6.5,45.7-6.5,52.4c0,9.3,2.5,17.7,6.5,23.5V898h26.9V764
						c3.8-5.8,6.1-13.9,6.1-22.9c0-6.5-2.7-26.9-6.1-50v-13.8c0.3-8,7-12.4,14.1-14.9c-1-7.1-6.4-13.1-14.1-16.4v-0.6
						c8.5-3.7,14.3-10.7,14.3-18.7c0-8.1-5.8-15.1-14.3-18.7v-0.6c8.5-3.7,14.3-10.7,14.3-18.7c0-8.1-5.8-15.1-14.3-18.7v-0.3
						c3.8-5.8,6.1-13.9,6.1-22.9c0-6.5-2.7-26.9-6.1-50v-11.9c0.3-8,7-12.4,14.1-14.9c-1-7.1-6.4-13.1-14.1-16.4v-0.6
						C188,449,193.7,442,193.7,434z"/>
				</g>
				<g>
					<g>
						<path d="M122.1,392.1c-0.6,0-1-0.4-1-1V249.4c0-0.6,0.4-1,1-1s1,0.4,1,1v141.6C123.1,391.6,122.7,392.1,122.1,392.1z"/>
					</g>
					<path style="fill:#FFFFFF;stroke:#000000;stroke-linecap:round;stroke-linejoin:round;stroke-miterlimit:10;" d="M122.1,429
						L122.1,429c-2.6,0-4.8-2.2-4.8-4.8v-30.3c0-2.6,2.2-4.8,4.8-4.8h0c2.6,0,4.8,2.2,4.8,4.8v30.3C126.9,426.8,124.8,429,122.1,429z"
					/>
				</g>
				<g>
					<path style="stroke:#000000;stroke-linecap:round;stroke-linejoin:round;stroke-miterlimit:10;" d="M308.4,233H20
						c-5.5,7-16.3,9.6-19.5,11.8l0,10h0c4.1,10.7,23.3,17.9,34.8,17.9c11.5,0,29.5-7.2,36.5-17.9c9.4,10.7,26.5,17.9,46.1,17.9
						c19.6,0,36.7-7.2,46.1-17.9c9.4,10.7,26.6,17.9,46.1,17.9c19.6,0,36.7-7.2,46.1-17.9h0.1c0,0,0-0.1-0.1-0.2l0.1,0.2
						c7,10.7,25,17.9,36.6,17.9c11.5,0,30.7-7.2,34.8-17.9h0l0-10C324.4,241.1,313.7,239.9,308.4,233z"/>
					<path style="stroke:#000000;stroke-linecap:round;stroke-linejoin:round;stroke-miterlimit:10;" d="M80.6,31.8h167V10.3
						c-0.8-1.6-5-9.8-14.6-9.8c-6.5,0-13.7,4-16,10h-0.2l-0.2,2.2c0-1.4,0.1-2.2,0.1-2.2h0c-5.3-6-15-10-26.1-10s-20.8,4-26.1,10h-0.3
						h0h-0.3c-5.3-6-15-10-26.1-10c-11.1,0-20.8,4-26.1,10h0h-0.1c-2.3-6-9.5-10-16-10c-10.7,0-14.7,10-14.7,10s0,0.2-0.1,0.5V31.8z"/>
					<path style="fill:#EA7547;stroke:#000000;stroke-linecap:round;stroke-linejoin:round;stroke-miterlimit:10;" d="M80.6,36.8h167
						V25.3c-0.8-1.6-5-9.8-14.6-9.8c-6.5,0-13.7,4-16,10h-0.2l-0.2,2.2c0-1.4,0.1-2.2,0.1-2.2h0c-5.3-6-15-10-26.1-10s-20.8,4-26.1,10
						h-0.3h0h-0.3c-5.3-6-15-10-26.1-10c-11.1,0-20.8,4-26.1,10h0h-0.1c-2.3-6-9.5-10-16-10c-10.7,0-14.7,10-14.7,10s0,0.2-0.1,0.5
						V36.8z"/>
					<path style="fill:#F2B45A;stroke:#000000;stroke-linecap:round;stroke-linejoin:round;stroke-miterlimit:10;" d="M163.8,203H71.1
						V246c0.3-0.4,0.5-0.7,0.8-1.1c9.4,10.7,26.5,17.9,46.1,17.9c19.3,0,36.3-7,45.8-17.5V203z"/>
					<path style="fill:#D3923D;stroke:#000000;stroke-linecap:round;stroke-linejoin:round;stroke-miterlimit:10;" d="M71.8,203H20
						c-5.5,7-16.3,9.6-19.5,11.8v30h0c4.1,10.7,23.3,17.9,34.8,17.9c11.5,0,29.3-7.1,36.4-17.7V203z"/>
					<path style="fill:#FFD394;stroke:#000000;stroke-linecap:round;stroke-linejoin:round;stroke-miterlimit:10;" d="M308.4,203h-51.9
						v41.7l0,0.1c7,10.7,25,17.9,36.6,17.9c11.5,0,30.7-7.2,34.8-17.9h0v-30C324.4,211.1,313.7,209.9,308.4,203z"/>
					<path style="fill:#FAC165;stroke:#000000;stroke-linecap:round;stroke-linejoin:round;stroke-miterlimit:10;" d="M256.4,203h-92.6
						v42.1c0.1-0.1,0.2-0.2,0.3-0.4c9.4,10.7,26.6,17.9,46.1,17.9c19.6,0,36.7-7.2,46.1-17.9h0.1c0,0,0-0.1-0.1-0.2l0.1,0.1V203z"/>
					<path style="stroke:#000000;stroke-linecap:round;stroke-linejoin:round;stroke-miterlimit:10;" d="M308.4,193.4H20
						c-5.5,7-16.3,9.6-19.5,11.8l0,10h0C4.7,225.9,23.8,233,35.3,233c11.5,0,29.5-7.2,36.5-17.9C81.3,225.9,98.4,233,118,233
						c19.6,0,36.7-7.2,46.1-17.9c9.4,10.7,26.6,17.9,46.1,17.9c19.6,0,36.7-7.2,46.1-17.9h0.1c0,0,0-0.1-0.1-0.2l0.1,0.2
						c7,10.7,25,17.9,36.6,17.9c11.5,0,30.7-7.2,34.8-17.9h0l0-10C324.4,201.5,313.7,200.3,308.4,193.4z"/>
					<g>
						<path style="fill:#FFD394;stroke:#000000;stroke-linecap:round;stroke-linejoin:round;stroke-miterlimit:10;" d="M216.9,31.7
							c2.3-6,9.5-10,16-10c10.7,0,14.7,10,14.7,10s6.5,36.8,22.7,82.8c20.1,57.1,57.5,90.6,57.5,90.6h0c-4.1,10.7-23.3,17.9-34.8,17.9
							c-11.5,0-29.6-7.2-36.6-17.9l-49.4-75.2l9.6-98.2H216.9z"/>
						<path style="fill:#FFE0B8;" d="M260.7,117.1c-9.1-30.1-15.6-59.2-18.9-75.7c-1.8-8.7-2.1-11-2.7-13.9s2.2-4.4-6.9-4.4
							c-2.6,0-5,0.6-7.4,2.2c1.9,17.8,6.5,59.3,18.8,99.9c14.4,47.8,37.8,81.3,49.6,96.1c13.2,0,24.9-8,24.9-8S278,174.2,260.7,117.1z"
						/>
						<path style="fill:#D3923D;stroke:#000000;stroke-linecap:round;stroke-linejoin:round;stroke-miterlimit:10;" d="M111.5,31.7
							c-2.3-6-9.5-10-16-10c-10.7,0-14.7,10-14.7,10S74.2,68.5,58,114.5c-20.1,57.1-57.5,90.6-57.5,90.6h0C4.7,215.9,23.8,223,35.3,223
							c11.5,0,29.6-7.2,36.6-17.9l49.4-75.2l-9.6-98.2H111.5z"/>
						<path style="fill:#F2B45A;stroke:#000000;stroke-linecap:round;stroke-linejoin:round;stroke-miterlimit:10;" d="M163.8,31.7
							c-5.3-6-15-10-26.1-10c-11.1,0-20.8,4-26.1,10h0c0,0,1.5,35-9.8,82.8c-11.3,47.8-30,90.6-30,90.6h0.1
							C81.3,215.9,98.4,223,118,223s36.7-7.2,46.1-17.9V31.7H163.8z"/>
						<path style="fill:#FAC165;stroke:#000000;stroke-linecap:round;stroke-linejoin:round;stroke-miterlimit:10;" d="M164.4,31.7
							c5.3-6,15-10,26.1-10c11.1,0,20.8,4,26.1,10h0c0,0-1.5,35,9.8,82.8c11.3,47.8,30,90.6,30,90.6h-0.1
							c-9.4,10.7-26.6,17.9-46.1,17.9s-36.7-7.2-46.1-17.9V31.7H164.4z"/>
					</g>
					<g>
						<g>

								<line style="fill:none;stroke:#000000;stroke-linecap:round;stroke-linejoin:round;stroke-miterlimit:10;" x1="0.5" y1="252.9" x2="0.5" y2="292.6"/>

							<line style="fill:none;stroke:#000000;stroke-linecap:round;stroke-linejoin:round;stroke-miterlimit:10;" x1="3.6" y1="258.1" x2="3.6" y2="297.8"/>

							<line style="fill:none;stroke:#000000;stroke-linecap:round;stroke-linejoin:round;stroke-miterlimit:10;" x1="8.4" y1="262.7" x2="8.4" y2="302.4"/>

							<line style="fill:none;stroke:#000000;stroke-linecap:round;stroke-linejoin:round;stroke-miterlimit:10;" x1="14.2" y1="265.3" x2="14.2" y2="305"/>

							<line style="fill:none;stroke:#000000;stroke-linecap:round;stroke-linejoin:round;stroke-miterlimit:10;" x1="20.1" y1="270.1" x2="20.1" y2="309.8"/>

							<line style="fill:none;stroke:#000000;stroke-linecap:round;stroke-linejoin:round;stroke-miterlimit:10;" x1="24.9" y1="270.1" x2="24.9" y2="309.8"/>

							<line style="fill:none;stroke:#000000;stroke-linecap:round;stroke-linejoin:round;stroke-miterlimit:10;" x1="30.5" y1="272.7" x2="30.5" y2="312.4"/>

							<line style="fill:none;stroke:#000000;stroke-linecap:round;stroke-linejoin:round;stroke-miterlimit:10;" x1="36.1" y1="271.9" x2="36.1" y2="311.5"/>

							<line style="fill:none;stroke:#000000;stroke-linecap:round;stroke-linejoin:round;stroke-miterlimit:10;" x1="43.1" y1="271.9" x2="43.1" y2="311.5"/>

							<line style="fill:none;stroke:#000000;stroke-linecap:round;stroke-linejoin:round;stroke-miterlimit:10;" x1="49.2" y1="269" x2="49.2" y2="308.7"/>

							<line style="fill:none;stroke:#000000;stroke-linecap:round;stroke-linejoin:round;stroke-miterlimit:10;" x1="55.9" y1="266.4" x2="55.9" y2="306.1"/>

							<line style="fill:none;stroke:#000000;stroke-linecap:round;stroke-linejoin:round;stroke-miterlimit:10;" x1="60.9" y1="262.7" x2="60.9" y2="302.4"/>

							<line style="fill:none;stroke:#000000;stroke-linecap:round;stroke-linejoin:round;stroke-miterlimit:10;" x1="65.2" y1="261.4" x2="65.2" y2="301.1"/>

							<line style="fill:none;stroke:#000000;stroke-linecap:round;stroke-linejoin:round;stroke-miterlimit:10;" x1="69.5" y1="257.5" x2="69.5" y2="297.1"/>
						</g>
						<g>

								<line style="fill:none;stroke:#000000;stroke-linecap:round;stroke-linejoin:round;stroke-miterlimit:10;" x1="257.6" y1="252.9" x2="257.6" y2="292.6"/>

							<line style="fill:none;stroke:#000000;stroke-linecap:round;stroke-linejoin:round;stroke-miterlimit:10;" x1="260.7" y1="258.1" x2="260.7" y2="297.8"/>

							<line style="fill:none;stroke:#000000;stroke-linecap:round;stroke-linejoin:round;stroke-miterlimit:10;" x1="265.5" y1="262.7" x2="265.5" y2="302.4"/>

							<line style="fill:none;stroke:#000000;stroke-linecap:round;stroke-linejoin:round;stroke-miterlimit:10;" x1="271.4" y1="265.3" x2="271.4" y2="305"/>

							<line style="fill:none;stroke:#000000;stroke-linecap:round;stroke-linejoin:round;stroke-miterlimit:10;" x1="277.2" y1="270.1" x2="277.2" y2="309.8"/>

							<line style="fill:none;stroke:#000000;stroke-linecap:round;stroke-linejoin:round;stroke-miterlimit:10;" x1="282" y1="270.1" x2="282" y2="309.8"/>

							<line style="fill:none;stroke:#000000;stroke-linecap:round;stroke-linejoin:round;stroke-miterlimit:10;" x1="287.6" y1="272.7" x2="287.6" y2="312.4"/>

							<line style="fill:none;stroke:#000000;stroke-linecap:round;stroke-linejoin:round;stroke-miterlimit:10;" x1="293.3" y1="271.9" x2="293.3" y2="311.5"/>

							<line style="fill:none;stroke:#000000;stroke-linecap:round;stroke-linejoin:round;stroke-miterlimit:10;" x1="300.2" y1="271.9" x2="300.2" y2="311.5"/>

							<line style="fill:none;stroke:#000000;stroke-linecap:round;stroke-linejoin:round;stroke-miterlimit:10;" x1="306.3" y1="269" x2="306.3" y2="308.7"/>

							<line style="fill:none;stroke:#000000;stroke-linecap:round;stroke-linejoin:round;stroke-miterlimit:10;" x1="313" y1="266.4" x2="313" y2="306.1"/>

							<line style="fill:none;stroke:#000000;stroke-linecap:round;stroke-linejoin:round;stroke-miterlimit:10;" x1="318" y1="262.7" x2="318" y2="302.4"/>

							<line style="fill:none;stroke:#000000;stroke-linecap:round;stroke-linejoin:round;stroke-miterlimit:10;" x1="322.3" y1="261.4" x2="322.3" y2="301.1"/>

							<line style="fill:none;stroke:#000000;stroke-linecap:round;stroke-linejoin:round;stroke-miterlimit:10;" x1="326.7" y1="257.5" x2="326.7" y2="297.1"/>
						</g>
						<g>

								<line style="fill:none;stroke:#000000;stroke-linecap:round;stroke-linejoin:round;stroke-miterlimit:10;" x1="73.2" y1="253" x2="73.2" y2="292.6"/>

							<line style="fill:none;stroke:#000000;stroke-linecap:round;stroke-linejoin:round;stroke-miterlimit:10;" x1="77.2" y1="258.2" x2="77.2" y2="297.8"/>

							<line style="fill:none;stroke:#000000;stroke-linecap:round;stroke-linejoin:round;stroke-miterlimit:10;" x1="83.3" y1="262.8" x2="83.3" y2="302.5"/>

							<line style="fill:none;stroke:#000000;stroke-linecap:round;stroke-linejoin:round;stroke-miterlimit:10;" x1="90.8" y1="265.4" x2="90.8" y2="305.1"/>

							<line style="fill:none;stroke:#000000;stroke-linecap:round;stroke-linejoin:round;stroke-miterlimit:10;" x1="98.3" y1="270.2" x2="98.3" y2="309.9"/>

							<line style="fill:none;stroke:#000000;stroke-linecap:round;stroke-linejoin:round;stroke-miterlimit:10;" x1="104.4" y1="270.2" x2="104.4" y2="309.9"/>

							<line style="fill:none;stroke:#000000;stroke-linecap:round;stroke-linejoin:round;stroke-miterlimit:10;" x1="111.7" y1="272.8" x2="111.7" y2="312.5"/>

							<line style="fill:none;stroke:#000000;stroke-linecap:round;stroke-linejoin:round;stroke-miterlimit:10;" x1="118.9" y1="271.9" x2="118.9" y2="311.6"/>

							<line style="fill:none;stroke:#000000;stroke-linecap:round;stroke-linejoin:round;stroke-miterlimit:10;" x1="127.8" y1="271.9" x2="127.8" y2="311.6"/>

							<line style="fill:none;stroke:#000000;stroke-linecap:round;stroke-linejoin:round;stroke-miterlimit:10;" x1="135.6" y1="269.1" x2="135.6" y2="308.8"/>

							<line style="fill:none;stroke:#000000;stroke-linecap:round;stroke-linejoin:round;stroke-miterlimit:10;" x1="144.2" y1="266.5" x2="144.2" y2="306.2"/>

							<line style="fill:none;stroke:#000000;stroke-linecap:round;stroke-linejoin:round;stroke-miterlimit:10;" x1="150.6" y1="262.8" x2="150.6" y2="302.5"/>

							<line style="fill:none;stroke:#000000;stroke-linecap:round;stroke-linejoin:round;stroke-miterlimit:10;" x1="156.1" y1="261.5" x2="156.1" y2="301.2"/>

							<line style="fill:none;stroke:#000000;stroke-linecap:round;stroke-linejoin:round;stroke-miterlimit:10;" x1="161.7" y1="257.6" x2="161.7" y2="297.2"/>
						</g>
						<g>

								<line style="fill:none;stroke:#000000;stroke-linecap:round;stroke-linejoin:round;stroke-miterlimit:10;" x1="166" y1="253" x2="166" y2="292.6"/>

							<line style="fill:none;stroke:#000000;stroke-linecap:round;stroke-linejoin:round;stroke-miterlimit:10;" x1="170" y1="258.2" x2="170" y2="297.8"/>

							<line style="fill:none;stroke:#000000;stroke-linecap:round;stroke-linejoin:round;stroke-miterlimit:10;" x1="176.1" y1="262.8" x2="176.1" y2="302.5"/>

							<line style="fill:none;stroke:#000000;stroke-linecap:round;stroke-linejoin:round;stroke-miterlimit:10;" x1="183.6" y1="265.4" x2="183.6" y2="305.1"/>

							<line style="fill:none;stroke:#000000;stroke-linecap:round;stroke-linejoin:round;stroke-miterlimit:10;" x1="191.1" y1="270.2" x2="191.1" y2="309.9"/>

							<line style="fill:none;stroke:#000000;stroke-linecap:round;stroke-linejoin:round;stroke-miterlimit:10;" x1="197.2" y1="270.2" x2="197.2" y2="309.9"/>

							<line style="fill:none;stroke:#000000;stroke-linecap:round;stroke-linejoin:round;stroke-miterlimit:10;" x1="204.4" y1="272.8" x2="204.4" y2="312.5"/>

							<line style="fill:none;stroke:#000000;stroke-linecap:round;stroke-linejoin:round;stroke-miterlimit:10;" x1="211.7" y1="271.9" x2="211.7" y2="311.6"/>

							<line style="fill:none;stroke:#000000;stroke-linecap:round;stroke-linejoin:round;stroke-miterlimit:10;" x1="220.6" y1="271.9" x2="220.6" y2="311.6"/>

							<line style="fill:none;stroke:#000000;stroke-linecap:round;stroke-linejoin:round;stroke-miterlimit:10;" x1="228.4" y1="269.1" x2="228.4" y2="308.8"/>

							<line style="fill:none;stroke:#000000;stroke-linecap:round;stroke-linejoin:round;stroke-miterlimit:10;" x1="237" y1="266.5" x2="237" y2="306.2"/>

							<line style="fill:none;stroke:#000000;stroke-linecap:round;stroke-linejoin:round;stroke-miterlimit:10;" x1="243.4" y1="262.8" x2="243.4" y2="302.5"/>

							<line style="fill:none;stroke:#000000;stroke-linecap:round;stroke-linejoin:round;stroke-miterlimit:10;" x1="248.9" y1="261.5" x2="248.9" y2="301.2"/>

							<line style="fill:none;stroke:#000000;stroke-linecap:round;stroke-linejoin:round;stroke-miterlimit:10;" x1="254.5" y1="257.6" x2="254.5" y2="297.2"/>
						</g>
					</g>
				</g>
			</g>
		</svg>
