<?xml version="1.0" encoding="utf-8"?>
<!-- Generator: Adobe Illustrator 24.0.1, SVG Export Plug-In . SVG Version: 6.00 Build 0)  -->
<svg version="1.1" id="Layer_1" xmlns="http://www.w3.org/2000/svg" xmlns:xlink="http://www.w3.org/1999/xlink" x="0px" y="0px"
	 viewBox="0 0 1804.9 722.7" xml:space="preserve">
<g>
	<g id="phone">
		<g>
			<g>
				<path d="M726.1,134c9.3,32.4,18.8,64.7,28.5,97c9.8,32.3,19.8,64.4,30.1,96.5c10.2,32,20.7,63.8,31.5,95.6
					c8.5,25.1,16.9,50.3,29.3,73.8c11.4,21.7,26.6,42,47.4,55.4c2.6,1.7,5.2,3.2,8,4.7c1.7,0.9,3.2-1.7,1.5-2.6
					c-22-11.7-38.3-30.8-50.5-52.2c-12.8-22.3-21.4-46.6-29.7-70.9c-10.7-31.5-21.2-63.1-31.4-94.8c-10.2-31.8-20.2-63.7-30-95.7
					c-9.7-31.8-19.2-63.8-28.4-95.7c-1.2-4-2.3-8-3.4-12C728.5,131.4,725.6,132.2,726.1,134L726.1,134z"/>
			</g>
		</g>
		<g>
			<g>

					<rect x="629.6" y="200.7" style="fill:#C8CECC;stroke:#000000;stroke-linecap:round;stroke-linejoin:round;stroke-miterlimit:10;" width="145.1" height="521.5"/>

					<rect x="698.2" y="200.7" style="fill:#FFFFFF;stroke:#000000;stroke-linecap:round;stroke-linejoin:round;stroke-miterlimit:10;" width="76.5" height="521.5"/>

					<rect x="636.6" y="200.7" style="fill:#5F6864;stroke:#000000;stroke-linecap:round;stroke-linejoin:round;stroke-miterlimit:10;" width="9.3" height="521.5"/>

					<rect x="757.2" y="200.7" style="fill:#C8CECC;stroke:#000000;stroke-linecap:round;stroke-linejoin:round;stroke-miterlimit:10;" width="10.3" height="521.5"/>

					<rect x="656.6" y="200.7" style="fill:#89938F;stroke:#000000;stroke-linecap:round;stroke-linejoin:round;stroke-miterlimit:10;" width="16.3" height="521.5"/>

					<rect x="729.2" y="200.7" style="fill:#C8CECC;stroke:#000000;stroke-linecap:round;stroke-linejoin:round;stroke-miterlimit:10;" width="16.3" height="521.5"/>

					<rect x="688.6" y="200.7" style="fill:#A7AFAC;stroke:#000000;stroke-linecap:round;stroke-linejoin:round;stroke-miterlimit:10;" width="22.3" height="521.5"/>
			</g>
			<g>
				<g>

						<rect x="605" y="169.6" style="fill:#A8B2AF;stroke:#000000;stroke-linecap:round;stroke-linejoin:round;stroke-miterlimit:10;" width="93.3" height="43.2"/>

						<rect x="698.4" y="169.6" style="fill:#FFFFFF;stroke:#000000;stroke-linecap:round;stroke-linejoin:round;stroke-miterlimit:10;" width="98.5" height="43.2"/>
				</g>
				<g>

						<rect x="574.1" y="154.4" style="fill:#A8B2AF;stroke:#000000;stroke-linecap:round;stroke-linejoin:round;stroke-miterlimit:10;" width="124.4" height="17.6"/>

						<rect x="698.5" y="154.4" style="fill:#FFFFFF;stroke:#000000;stroke-linecap:round;stroke-linejoin:round;stroke-miterlimit:10;" width="131.2" height="17.6"/>
				</g>
			</g>
		</g>
		<g>
			<path style="fill:#F2B45A;stroke:#000000;stroke-miterlimit:10;" d="M689.4,42.7c46.8-2.1,88.3,11.5,99.1,23.6s9.4,20.4,7.6,27.8
				c-0.9,3.9-2.3,7.8-3.5,10.7c-1,2.5-3.7,3.9-6.3,3.2l-13.1-3.2c-1.7-0.4-3.2-1.7-3.8-3.3c-3.2-8.4-15.3-34.4-43.3-36.6
				c-33.5-2.7-71.1,2.6-76.8,7.1c-5.6,4.4-7.3,19.4-9,26.7c-1.7,7.2-7.7,11-21.7,13.5s-19.5,2.5-23.7,2.5s-4.5-3.2-5.9-8.4
				c-1.4-5.2-12-24.8,5.9-38.5C613.5,53.5,635.9,45.1,689.4,42.7z"/>
			<g>
				<path style="fill:#EA7547;stroke:#000000;stroke-linecap:round;stroke-linejoin:round;stroke-miterlimit:10;" d="M617.4,112.3
					c0,0-3.5,32.9-2.9,42.1h178.3c0,0,0-24.3,0-31.8s-44.1-50.2-49.3-53.9c-5.3-3.7-36-5.2-54.8-5.2s-37.3,5-41.5,10.5
					c-4.1,5.5-4.5,30.5-8.4,34.5C634.9,112.6,617.4,112.3,617.4,112.3z"/>
				<path style="fill:#D1623F;stroke:#000000;stroke-linecap:round;stroke-linejoin:round;stroke-miterlimit:10;" d="M671,122.3
					l-12-45.1l2.3-9.6c-7.1,1.9-12.5,4.2-14.2,6.4c-4.1,5.5-7,27.5-10.9,31.6c-3.9,4-18.9,6.7-18.9,6.7s-3.5,32.9-2.9,42.1H671
					V122.3z"/>

					<line style="fill:none;stroke:#000000;stroke-linecap:round;stroke-linejoin:round;stroke-miterlimit:10;" x1="677.6" y1="121.5" x2="773.5" y2="121.5"/>
			</g>
			<path style="fill:#FFDDB0;stroke:#000000;stroke-linecap:round;stroke-linejoin:round;stroke-miterlimit:10;" d="M710,71.5
				c-19.6,0-32.4,8.9-28.5,19.8c3.8,10.9,22.8,19.8,42.4,19.8c19.6,0,32.4-8.9,28.5-19.8C748.5,80.3,729.5,71.5,710,71.5z
				 M689.3,84.5c2.3,0,4.6,1,5,2.3c0.5,1.3-1.1,2.3-3.4,2.3c-2.3,0-4.6-1-5-2.3C685.5,85.5,687,84.5,689.3,84.5z M687.7,94.2
				c-0.5-1.3,1.1-2.4,3.5-2.4s4.7,1.1,5.2,2.4s-1.1,2.4-3.5,2.4S688.2,95.5,687.7,94.2z M701.2,103.5c-2.4,0-4.7-1.1-5.2-2.4
				s1.1-2.4,3.5-2.4s4.7,1.1,5.2,2.4S703.6,103.5,701.2,103.5z M695.5,82.5c-2.3,0-4.4-1-4.9-2.3c-0.4-1.3,1-2.3,3.3-2.3
				s4.4,1,4.9,2.3C699.2,81.5,697.7,82.5,695.5,82.5z M715.1,108.2c-2.5,0-5-1.1-5.5-2.5s1.1-2.5,3.7-2.5c2.5,0,5,1.1,5.5,2.5
				C719.2,107,717.6,108.2,715.1,108.2z M706.2,78.7c-2.2,0-4.3-1-4.8-2.2c-0.4-1.2,1-2.2,3.2-2.2s4.3,1,4.8,2.2
				C709.8,77.7,708.4,78.7,706.2,78.7z M730,108.2c-2.5,0-5-1.1-5.5-2.5s1.1-2.5,3.7-2.5s5,1.1,5.5,2.5
				C734.2,107,732.5,108.2,730,108.2z M720.2,78.7c-2.2,0-4.3-1-4.8-2.2c-0.4-1.2,1-2.2,3.2-2.2s4.3,1,4.8,2.2
				C723.8,77.7,722.4,78.7,720.2,78.7z M740.3,104.1c-2.5,0-4.9-1.1-5.4-2.5s1.1-2.5,3.6-2.5s4.9,1.1,5.4,2.5
				C744.4,103,742.7,104.1,740.3,104.1z M744.8,97.5c-2.4,0-4.7-1.1-5.2-2.4s1.1-2.4,3.5-2.4s4.7,1.1,5.2,2.4
				C748.7,96.5,747.2,97.5,744.8,97.5z"/>

				<line style="fill:none;stroke:#000000;stroke-linecap:round;stroke-linejoin:round;stroke-miterlimit:10;" x1="587.9" y1="102.7" x2="640.3" y2="91.3"/>

				<line style="fill:none;stroke:#000000;stroke-linecap:round;stroke-linejoin:round;stroke-miterlimit:10;" x1="762.7" y1="85.9" x2="796.2" y2="94.1"/>
		</g>
		<g>
			<path style="fill:#F2B45A;stroke:#000000;stroke-miterlimit:10;" d="M571.6,88.8l14.2-2.6c0,0,1.8,0.2,2.7,3.7s-1.2,4.7-1.2,4.7
				l-13.5,1.8"/>

				<ellipse transform="matrix(0.9837 -0.1797 0.1797 0.9837 -7.3556 104.3515)" style="fill:#F2B45A;stroke:#000000;stroke-width:1;stroke-miterlimit:9.9998;" cx="572.3" cy="92.8" rx="2.2" ry="4.1"/>
		</g>
		<g>
			<g>
				<path d="M571.9,91.4c-3.7,0.7-7.1,2.9-9.9,5.3c-2.7,2.2-5.5,5.2-6.5,8.6c-0.9,3.4,1,6,4.3,6.9c5.8,1.6,11.8-0.8,16.8-3.5
					c1.3-0.7,2.6-1.5,3.9-2.3c1.4-0.8,2.9-1.6,4.2-2.6c1-0.8,1.7-1.9,1.4-3.2c-0.4-1.4-1.9-1.9-3.2-2c-3.3-0.3-6.5,1-9.4,2.4
					c-2.8,1.5-5.5,3.3-7.5,5.9c-1.8,2.3-3,5.2-3,8.1c0.1,2.9,1.8,5.1,4.7,5.6c2.8,0.5,5.7-0.4,8.3-1.5c2.9-1.2,5.8-2.8,8.1-5
					c0.9-0.8,1.8-1.9,2.2-3.1c0.4-1.4-0.5-2.6-1.8-2.9s-2.7,0.2-4,0.7c-1.5,0.5-2.9,1.1-4.3,1.8c-2.7,1.4-5.4,3.2-7.3,5.6
					c-1.6,2-2.9,5.2-1.4,7.7c1.6,2.6,5.7,2.3,8.3,2.4c3.4,0.1,6.8-0.2,10.2-0.7c1.7-0.3,3.4-0.6,5-1c1.3-0.3,3-0.8,3-2.5
					c0.1-3.1-4.1-3.2-6.1-2.6c-5.3,1.5-11.5,5.8-11.4,11.9c0,3.7,3.7,3.8,6.5,3.9c3.5,0.1,6.8-0.4,10.2-0.9c1.8-0.3,4.4-0.2,5.5-2
					c1.3-2.2-1-3.7-2.9-3.8c-2.3-0.2-4.8,0.7-6.8,1.7c-2.1,1-4.4,2.5-5.4,4.7c-1.3,2.7,0,5.3,2.9,5.8c3.3,0.6,6.8,0.4,10-0.1
					c1.6-0.2,3.2-0.6,4.7-1.1c1-0.3,2.3-0.5,3.2-1.1c1-0.7,1.2-1.8,0.9-2.8c-0.5-1.3-1.8-1.4-3-1.3c-2.4,0.2-4.6,1.6-6.5,3
					c-2.2,1.6-4.3,3.7-5.7,6.1c-1.5,2.7-0.4,5.5,2.8,5.7c3.1,0.2,6.4-0.3,9.4-0.8c3.1-0.5,6.2-1.5,9-2.9c1.5-0.8,0.5-3.3-1.2-2.7
					c-3.2,1.1-6.5,2.5-9.1,4.6c-1.5,1.2-3.8,4-1.8,5.8c1.6,1.5,4.8,1,6.8,0.9c2.8-0.3,5.6-0.7,8.3-1.4c1.9-0.5,1.1-3.4-0.8-2.9
					c-2.1,0.5-4.2,0.9-6.3,1.2c-1.8,0.2-3.9,0.5-5.7,0.1c-0.4-0.1-0.2-0.2-0.2,0c0,0,0.2,0.5,0.1,0.5c0.1,0,0-0.1,0.1-0.3
					c0.4-0.9,1.3-1.5,2.1-2.1c2.2-1.5,4.8-2.6,7.3-3.5c-0.4-0.9-0.8-1.8-1.2-2.7c-2.9,1.4-6,2.3-9.2,2.8c-1.6,0.2-3.2,0.4-4.8,0.5
					c-0.8,0-1.6,0.1-2.4,0.1c-0.6,0-1.1,0.1-1.1-0.5c0-1,1.6-2.4,2.2-3.1c0.9-1,1.9-1.9,3-2.8c1.5-1.1,3.8-2.8,5.8-2.3
					c-0.3-0.2-0.6-0.5-0.9-0.7c-0.4-1,0.7-0.7-0.1-0.6c-0.2,0-0.5,0.1-0.7,0.2c-0.7,0.2-1.3,0.4-2,0.6c-1.7,0.5-3.5,0.9-5.3,1
					c-1.2,0.1-8.6,0.9-8.5-1.1c0.1-1.1,1.3-2,2.1-2.6c1-0.7,2.1-1.3,3.2-1.8c1.2-0.5,4.1-1.7,5.2-0.5c-0.1-0.4-0.3-0.7-0.4-1.1
					c0,0.6,0-0.1,0.1-0.1c-0.1,0-0.4,0.2-0.5,0.2c-0.5,0.2-1,0.2-1.5,0.3c-1.5,0.2-2.9,0.5-4.3,0.7c-1.8,0.2-3.6,0.4-5.3,0.4
					c-0.9,0-1.8,0-2.6-0.1c-0.5,0-1.9,0.1-2.2-0.4c-0.6-0.8,0.5-3,0.9-3.7c0.8-1.4,2-2.6,3.3-3.5c1.4-0.9,2.9-1.6,4.4-2.2
					c0.6-0.2,1.2-0.4,1.8-0.4c0.3,0,0.6,0.1,0.8,0.1c0.4,0.4,0.6,0.1,0.4-0.8c-0.2,0.1-0.4,0.1-0.6,0.2c-3.5,0.9-7,1.5-10.6,1.7
					c-1.7,0.1-3.4,0.1-5.1,0c-0.9,0-1.9-0.1-2.8-0.2c-0.6-0.1-1.6-0.1-2-0.7c-0.7-1,0.1-2.6,0.6-3.5c0.9-1.4,2.2-2.6,3.6-3.5
					c1.3-0.9,2.8-1.8,4.3-2.5c0.7-0.3,1.3-0.6,2-0.8c0.9-0.3,2.1-0.4,2.9-0.9h0.1c0.5,0.1,0.5-0.2-0.1-0.9l-0.4,0.7
					c-0.4,0.6-1,1.2-1.6,1.7c-1.3,1.1-2.7,2-4.2,2.8c-2.5,1.3-5.8,2.7-8.7,2.4c-3.7-0.4-2.4-5.1-1.2-7.3c1.6-2.8,4.2-4.8,7-6.4
					c1.5-0.8,3-1.5,4.6-2c0.9-0.3,1.8-0.5,2.7-0.5c0.4,0,0.8,0,1.2,0c0.2,0,0.4,0,0.5,0.1c0.4,0.2,0.3,0-0.1-0.5l-0.9,0.6
					c-0.4,0.2-0.7,0.4-1.1,0.7c-0.6,0.4-1.2,0.7-1.8,1.1c-1.6,1-3.2,1.9-4.9,2.8c-2.8,1.5-5.9,2.8-9.1,3.2c-2,0.2-4.7,0.3-6.4-1
					c-0.4-0.3-0.7-0.7-0.7-1.2c0-0.4,0.1-1.1,0.3-1.7c0.6-1.8,1.9-3.3,3.2-4.7c2.9-3,6.8-6,11-6.7C574.6,93.9,573.8,91.1,571.9,91.4
					L571.9,91.4z"/>
			</g>
		</g>
	</g>
	<g id="coach">
		<g>
			<path style="fill:#EA7547;stroke:#000000;stroke-linecap:round;stroke-linejoin:round;stroke-miterlimit:10;" d="M1089.9,722.2
				l21.7-234.1H790.1l0,0c-16.3,0-29.7,18-29.7,40v194.1L1089.9,722.2L1089.9,722.2z"/>
			<path style="fill:#F28361;stroke:#000000;stroke-linecap:round;stroke-linejoin:round;stroke-miterlimit:10;" d="M830.6,533.4
				v188.8h259.3l21.7-234.1H808.7C821.6,495.9,830.6,513.3,830.6,533.4z"/>
		</g>
		<g>
			<path style="fill:#EA7547;stroke:#000000;stroke-linecap:round;stroke-linejoin:round;stroke-miterlimit:10;" d="M1316.3,350.4
				c-188.7,0-185.7,0-207.6,0c-28.7,0-35.5,9.3-40,29.2c-5.4,24.1-60,286-60,286l265.1,0.1L1316.3,350.4z"/>
			<path style="fill:#C45533;stroke:#000000;stroke-linecap:round;stroke-linejoin:round;stroke-miterlimit:10;" d="M1348.2,385.8
				c3.1-12.5,0.8-22.9-4.4-28.1c-5.2-5.2-12.6-6.9-18.4-7.3c-29.3-1.7-35.5,9.3-40,29.2c-5.4,24.1-60,286-60,286h68.8
				C1306,606,1345.5,396.8,1348.2,385.8z"/>
		</g>
		<g>
			<path style="fill:#EA7547;stroke:#000000;stroke-linecap:round;stroke-linejoin:round;stroke-miterlimit:10;" d="M1543.8,350.4
				c-188.7,0-185.7,0-207.6,0c-28.7,0-35.5,9.3-40,29.2c-5.4,24.1-60,286-60,286l265.1,0.1L1543.8,350.4z"/>
			<path style="fill:#C45533;stroke:#000000;stroke-linecap:round;stroke-linejoin:round;stroke-miterlimit:10;" d="M1575.6,385.8
				c3.1-12.5,0.8-22.9-4.4-28.1c-5.2-5.2-12.6-6.9-18.4-7.3c-29.3-1.7-35.5,9.3-40,29.2c-5.4,24.1-60,286-60,286h68.8
				C1533.4,606,1572.9,396.8,1575.6,385.8z"/>
		</g>
		<g>
			<path style="fill:#EA7547;stroke:#000000;stroke-linecap:round;stroke-linejoin:round;stroke-miterlimit:10;" d="M1771.2,350.4
				c-188.7,0-185.7,0-207.6,0c-28.7,0-35.5,9.3-40,29.2c-5.4,24.1-60,286-60,286l265.1,0.1L1771.2,350.4z"/>
			<path style="fill:#C45533;stroke:#000000;stroke-linecap:round;stroke-linejoin:round;stroke-miterlimit:10;" d="M1803,385.8
				c3.1-12.5,0.8-22.9-4.4-28.1c-5.2-5.2-12.6-6.9-18.4-7.3c-29.3-1.7-35.5,9.3-40,29.2c-5.4,24.1-60,286-60,286l86.2,17.4
				C1778.2,623.3,1800.3,396.8,1803,385.8z"/>
		</g>
		<path style="stroke:#000000;stroke-linecap:round;stroke-linejoin:round;stroke-miterlimit:10;" d="M1170.6,459.9
			c0,0,8.3-16.3,17.3-9.1c9,7.2,19,53.3,38.6,74.2c19.6,20.8,28.1,42.9,38.4,55.3c15.1,18,6.6,33.2,6.6,33.2h-130.8
			c0,0-177.1,0-182.1,0s-43.3,8.5-51.3,8.5s-26.7,0-26.7,0s0-69.5,0-86.5s-8.1-31.9-8.1-31.9"/>
		<path style="fill:#C45533;stroke:#000000;stroke-linecap:round;stroke-linejoin:round;stroke-miterlimit:10;" d="M853.9,677.6
			c-0.3,13-0.3,27.9-0.2,44.6h840.6l-5.7-44.6H853.9z"/>
		<path style="fill:#EA7547;stroke:#000000;stroke-linecap:round;stroke-linejoin:round;stroke-miterlimit:10;" d="M1675.9,682.5
			l-6-46.7c-1.4-10.5-10.3-18.4-20.9-18.4h-644.7c-34.8,0-119.8,0-143,0c-16.7,0-20.2,24.2-20.8,67.5c-0.2,11.8,9.3,21.4,21.1,21.4
			H1655C1667.7,706.3,1677.5,695.1,1675.9,682.5z"/>
		<path style="fill:#FAC165;stroke:#000000;stroke-linecap:round;stroke-linejoin:round;stroke-miterlimit:10;" d="M1534.6,722.2
			c-0.2-71.6-1-113,20.9-113c-188.8,0-469.7,0-492.7,0c-34.8,0-119.8,0-143,0c-21.9,0-21.1,41.4-20.9,113H1534.6z"/>
		<path style="fill:#D19647;stroke:#000000;stroke-linecap:round;stroke-linejoin:round;stroke-miterlimit:10;" d="M1597.6,617.3
			V609h-34.4l-10.6,0.3c-19.9,2.5-18.1,43.6-18,112.9h12c-0.1-53.1-1.9-97.1,8.1-104.9H1597.6z"/>
		<g>
			<path style="fill:#EA7547;stroke:#000000;stroke-linecap:round;stroke-linejoin:round;stroke-miterlimit:10;" d="M1718.5,488.1
				H1625c-16.3,0-29.7,18-29.7,40v194.1h123.1L1718.5,488.1L1718.5,488.1z"/>
			<path style="fill:#F28361;stroke:#000000;stroke-linecap:round;stroke-linejoin:round;stroke-miterlimit:10;" d="M1804.4,722.2
				V488.1h-160.6c12.8,7.8,21.9,25.2,21.9,45.3v188.8H1804.4z"/>
		</g>
		<path style="fill:#FFFFFF;stroke:#000000;stroke-linecap:round;stroke-linejoin:round;stroke-miterlimit:10;" d="M1244.3,581.2
			c0,0,18,13.2,15.4,23.4c-1.6,5.3-18.1-5.3-18.1-5.3s-49.4,5.3-122.4,11c-41.1,3.2-76.9,9.6-146.9,7.6C960,633.1,953,634.3,953,613
			c-66.2-45.6-76.4-99.5-98.1-156.5c0,0-14.6-12.3-14.5-20.2c0.1-7.9,32.2,1.5,32.2,1.5s115.8-58.8,267.5-4.3
			c17.3-4.5,37.2-14.6,31.9,15.4C1200.1,485.7,1228.8,523,1244.3,581.2z"/>
		<path style="fill:#F2B45A;stroke:#000000;stroke-miterlimit:10;" d="M955.1,593.7c0,0-19-59.1-87.4-128
			C891.1,504.4,931.9,575.7,955.1,593.7z"/>
		<path style="fill:none;stroke:#000000;stroke-linecap:round;stroke-linejoin:round;stroke-miterlimit:10;" d="M970.4,612.2
			c0,0,59.5-13.2,76.8-19.2"/>
		<path style="fill:none;stroke:#000000;stroke-linecap:round;stroke-linejoin:round;stroke-miterlimit:10;" d="M1050.2,446.9
			c0,0,49.5-22,95.9-5.7"/>
	</g>
	<g id="wardrobe_1_">
		<g>

				<rect x="11.6" y="334.4" style="fill:#8A9994;stroke:#000000;stroke-linecap:round;stroke-linejoin:round;stroke-miterlimit:10;" width="180" height="387.8"/>

				<rect x="191.6" y="334.4" style="fill:#FFFFFF;stroke:#000000;stroke-linecap:round;stroke-linejoin:round;stroke-miterlimit:10;" width="341.3" height="387.8"/>
			<polygon style="stroke:#000000;stroke-linecap:round;stroke-linejoin:round;stroke-miterlimit:10;" points="524.6,722.2
				524.6,347.4 256.3,347.4 199.8,347.4 199.8,722.2 			"/>
			<g>

					<rect x="0.5" y="321.3" style="fill:#8A9994;stroke:#000000;stroke-linecap:round;stroke-linejoin:round;stroke-miterlimit:10;" width="184.4" height="17.6"/>

					<rect x="184.9" y="321.3" style="fill:#FFFFFF;stroke:#000000;stroke-linecap:round;stroke-linejoin:round;stroke-miterlimit:10;" width="361.2" height="17.6"/>
			</g>
			<g>

					<rect x="199.5" y="472.2" style="fill:#FFFFFF;stroke:#000000;stroke-linecap:round;stroke-linejoin:round;stroke-miterlimit:10;" width="324.8" height="121.6"/>
				<polyline style="fill:#C8CECC;stroke:#000000;stroke-linecap:round;stroke-linejoin:round;stroke-miterlimit:10;" points="
					199.5,536.4 199.5,472.2 524.3,472.2 524.3,536.4 				"/>
				<g>

						<rect x="337.2" y="493.7" style="fill:#C8CECC;stroke:#000000;stroke-linecap:round;stroke-linejoin:round;stroke-miterlimit:10;" width="61.5" height="32.8"/>

						<rect x="347.1" y="493.4" style="fill:#FFFFFF;stroke:#000000;stroke-linecap:round;stroke-linejoin:round;stroke-miterlimit:10;" width="61.5" height="20.6"/>
					<polygon style="stroke:#000000;stroke-linecap:round;stroke-linejoin:round;stroke-miterlimit:10;" points="347.1,493.4
						347.1,493.4 333.3,493.6 333.3,526.4 337.4,526.5 337.4,497.7 343.2,497.5 343.2,513.8 347.3,513.9 347.3,493.4 					"/>
				</g>
			</g>
			<g>

					<rect x="199.5" y="596.4" style="fill:#FFFFFF;stroke:#000000;stroke-linecap:round;stroke-linejoin:round;stroke-miterlimit:10;" width="324.8" height="121.6"/>
				<g>

						<rect x="337.2" y="620.3" style="fill:#C8CECC;stroke:#000000;stroke-linecap:round;stroke-linejoin:round;stroke-miterlimit:10;" width="61.5" height="32.8"/>

						<rect x="347.1" y="619.9" style="fill:#FFFFFF;stroke:#000000;stroke-linecap:round;stroke-linejoin:round;stroke-miterlimit:10;" width="61.5" height="20.6"/>
					<polygon style="stroke:#000000;stroke-linecap:round;stroke-linejoin:round;stroke-miterlimit:10;" points="347.1,620
						347.1,619.9 333.3,620.1 333.3,652.9 337.4,653 337.4,624.3 343.2,624 343.2,640.4 347.3,640.5 347.3,619.9 					"/>
				</g>
			</g>
			<g id="drawer">

					<rect id="side" x="205.3" y="380.5" style="fill:#8A9994;stroke:#000000;stroke-linecap:round;stroke-linejoin:round;stroke-miterlimit:10;" width="71.7" height="89.1"/>
				<g id="front">

						<rect x="271.4" y="348.2" style="fill:#C8CECC;stroke:#000000;stroke-linecap:round;stroke-linejoin:round;stroke-miterlimit:10;" width="11.2" height="121.6"/>

						<rect x="282.4" y="348.2" style="fill:#FFFFFF;stroke:#000000;stroke-linecap:round;stroke-linejoin:round;stroke-miterlimit:10;" width="324.8" height="121.6"/>
					<g>

							<rect x="420.1" y="369.7" style="fill:#C8CECC;stroke:#000000;stroke-linecap:round;stroke-linejoin:round;stroke-miterlimit:10;" width="61.5" height="32.8"/>

							<rect x="430" y="369.4" style="fill:#FFFFFF;stroke:#000000;stroke-linecap:round;stroke-linejoin:round;stroke-miterlimit:10;" width="61.5" height="20.6"/>
						<polygon style="stroke:#000000;stroke-linecap:round;stroke-linejoin:round;stroke-miterlimit:10;" points="430,369.4
							430,369.4 416.2,369.6 416.2,402.4 420.3,402.5 420.3,373.7 426.1,373.5 426.1,389.8 430.2,389.9 430.2,369.4 						"/>
					</g>
				</g>
				<g id="sleve_1_">
					<path style="stroke:#000000;stroke-linecap:round;stroke-linejoin:round;stroke-miterlimit:10;" d="M305.3,343.9
						c0,0,13.5,38.1,17.8,47.6s1.9,30.9,4.7,40.5c2.8,9.6,5,15.2,5,15.2v15h24.8c0,0,30.1-80.9,28.2-94.4
						c-1.9-13.6-55.2-21.3-55.2-21.3"/>
					<path style="fill:#D1623F;stroke:#000000;stroke-linecap:round;stroke-linejoin:round;stroke-miterlimit:10;" d="M356.7,330
						c6.5-0.8,22.5-2.5,39.1,5c8,3.6,8.6,19.4,10,39.9c1.4,20.4-4.2,30.9-7.5,38.3s-2.5,34.1-2.5,34.1s-52.3-1.3-54-2.7
						c-1.8-1.4-9.1-7.6-9.1-41.7c0-14,3-9.1-11.5-27.9s-25.4-27.6-25.4-27.6l-8.8,0.3c0,0,14.5-10.7,36-13.1
						C344.6,332.2,350.2,330.8,356.7,330z"/>
					<g>
						<path style="fill:#FFFFFF;" d="M374.7,443.1c0.6-7.4,1.2-14.8,1.1-22.3c-0.1-8.2-1.1-16.3-2.5-24.4c-1.4-7.8-3-15.6-4.1-23.5
							c-0.6-4-1-8.1-1.1-12.1c-0.1-3.8,0.2-7.7,0.1-11.5c0-4.1-1-7.8-3.8-10.9c-2.3-2.7-5-5.1-7.6-7.6c0,0,0,0-0.1,0
							c0,0-1.3,0.2-3.9,0.6c2.8,2.7,5.7,5.4,8.4,8.3c2.6,2.7,3.7,5.5,3.8,9.2c0.1,3.6-0.3,7.3-0.2,10.9c0.1,3.9,0.5,7.7,1,11.5
							c2,15.6,6.3,30.9,6.7,46.8c0.2,8.7-0.4,17.4-1.2,26.1C372.4,444,373.6,443.6,374.7,443.1z"/>
						<path style="fill:#FFFFFF;" d="M359.6,425c0.5-4.1,0.9-8.2,0.6-12.3c-0.3-4.6-1.4-9.2-2.4-13.7c-1-4.6-1.6-9.2-1.5-13.9
							c0.2-4.8,0.9-9.5,1.3-14.2c0.6-7.7,0.2-16.4-4.6-22.9c-2.7-3.7-6.5-6.1-10.5-8.2c-3.5-1.8-7.1-3.6-10.7-5.3
							c-1.8,0.2-3.7,0.4-5.6,0.7c0.1,0.2,0.3,0.3,0.5,0.4c4.2,2.1,8.4,4.1,12.6,6.3c3.5,1.8,7.1,3.7,9.8,6.6
							c5.5,5.8,5.9,14.5,5.3,22c-0.4,4.8-1.1,9.5-1.3,14.2c-0.2,4.7,0.3,9.2,1.3,13.8c0.9,4.4,2.1,8.8,2.5,13.3
							c0.4,4.1,0,8.3-0.4,12.4c-0.9,8.3-2.2,17.2,1.9,24.9c1-0.3,2-0.7,3.1-1.1C357.4,441,358.7,432.6,359.6,425z"/>
						<path style="fill:#FFFFFF;" d="M364.1,447c1.1-0.4,2.2-0.8,3.3-1.2c1.8-17.5-0.2-35.1-2.4-52.5c-1.1-8.9-2.3-17.8-3.4-26.7
							c-0.6-4.5-1.2-9-1.7-13.4c-0.5-4-1.1-8-2.9-11.6c-2-4-5.3-7.1-9.2-9.2c-2,0.3-4.3,0.6-7,1c5.6,0.9,10.7,4.6,13.3,9.7
							c1.8,3.4,2.2,7.4,2.7,11.2c0.5,4.2,1.1,8.5,1.6,12.7c2.2,17,4.8,34,6.1,51c0.7,9.6,0.8,19.3-0.3,28.8
							C364.1,446.8,364.1,446.9,364.1,447z"/>
					</g>
					<path style="fill:#EA7547;stroke:#000000;stroke-linecap:round;stroke-linejoin:round;stroke-miterlimit:10;" d="M344.1,463.6
						c0,0,26.2,1.4,35-1.5c14.3-4.6,17.5-9.8,17.5-9.8l-0.8-17.3c0,0-16.7,6.4-33.5,9.6c-7.8,1.5-20.5-0.1-20.5-0.1L344.1,463.6z"/>
					<path style="fill:none;stroke:#000000;stroke-linecap:round;stroke-linejoin:round;stroke-miterlimit:10;" d="M339.1,386.6
						c0,0,20.4-35.7,36.8-42.8"/>
				</g>
			</g>
		</g>
	</g>
	<g id="tv_1_">

			<rect x="98.8" y="290" style="stroke:#000000;stroke-linecap:round;stroke-linejoin:round;stroke-miterlimit:10;" width="389.2" height="30.8"/>
		<path style="fill:#5C6864;stroke:#000000;stroke-linecap:round;stroke-linejoin:round;stroke-miterlimit:10;" d="M381.6,306.7H88
			c-5.7,0-10.4-5-10.4-11V143.9c0-6.1,4.8-10.2,12.4-14.3L381.6,0.5c5.7,0,10.4,5,10.4,11v284.2C392,301.8,387.3,306.7,381.6,306.7z
			"/>
		<path style="fill:#5C6864;stroke:#000000;stroke-linecap:round;stroke-linejoin:round;stroke-miterlimit:10;" d="M434.8,306.7
			H140.5c-5.5,0-10-4.5-10-10V10.5c0-5.5,4.5-10,10-10h294.3c5.5,0,10,4.5,10,10v286.2C444.8,302.2,440.3,306.7,434.8,306.7z"/>
		<path style="fill:#A6B2AE;stroke:#000000;stroke-linecap:round;stroke-linejoin:round;stroke-miterlimit:10;" d="M500.3,306.7H206
			c-5.5,0-10-4.5-10-10V10.5c0-5.5,4.5-10,10-10h294.3c5.5,0,10,4.5,10,10v286.2C510.3,302.2,505.8,306.7,500.3,306.7z"/>
		<path style="stroke:#000000;stroke-linecap:round;stroke-linejoin:round;stroke-miterlimit:10;" d="M510.3,260.1V11.5
			c0-6.1-4.1-11-9-11H205c-5,0-9,5-9,11V260h314.3V260.1z"/>

			<rect x="205.3" y="12.5" style="fill:none;stroke:#5C6864;stroke-linecap:round;stroke-linejoin:round;stroke-miterlimit:10;" width="295" height="239.8"/>
		<rect x="326.8" y="272" style="fill:#C8CECC;" width="62.7" height="12.9"/>
		<g>
			<path style="stroke:#000000;stroke-linecap:round;stroke-linejoin:round;stroke-miterlimit:10;" d="M119.6,158.2H88.2
				c-1.2,0-2.3-1-2.3-2.3v-0.5c0-1.2,1-2.3,2.3-2.3h31.4c1.2,0,2.3,1,2.3,2.3v0.5C121.8,157.2,120.8,158.2,119.6,158.2z"/>
			<path style="stroke:#000000;stroke-linecap:round;stroke-linejoin:round;stroke-miterlimit:10;" d="M119.6,174.8H88.2
				c-1.2,0-2.3-1-2.3-2.3V172c0-1.2,1-2.3,2.3-2.3h31.4c1.2,0,2.3,1,2.3,2.3v0.5C121.8,173.8,120.8,174.8,119.6,174.8z"/>
			<path style="stroke:#000000;stroke-linecap:round;stroke-linejoin:round;stroke-miterlimit:10;" d="M119.6,191.3H88.2
				c-1.2,0-2.3-1-2.3-2.3v-0.5c0-1.2,1-2.3,2.3-2.3h31.4c1.2,0,2.3,1,2.3,2.3v0.5C121.8,190.3,120.8,191.3,119.6,191.3z"/>
			<path style="stroke:#000000;stroke-linecap:round;stroke-linejoin:round;stroke-miterlimit:10;" d="M119.6,207.8H88.2
				c-1.2,0-2.3-1-2.3-2.3V205c0-1.2,1-2.3,2.3-2.3h31.4c1.2,0,2.3,1,2.3,2.3v0.5C121.8,206.8,120.8,207.8,119.6,207.8z"/>
			<path style="stroke:#000000;stroke-linecap:round;stroke-linejoin:round;stroke-miterlimit:10;" d="M119.6,224.3H88.2
				c-1.2,0-2.3-1-2.3-2.3v-0.5c0-1.2,1-2.3,2.3-2.3h31.4c1.2,0,2.3,1,2.3,2.3v0.5C121.8,223.3,120.8,224.3,119.6,224.3z"/>
			<path style="stroke:#000000;stroke-linecap:round;stroke-linejoin:round;stroke-miterlimit:10;" d="M119.6,240.9H88.2
				c-1.2,0-2.3-1-2.3-2.3v-0.5c0-1.2,1-2.3,2.3-2.3h31.4c1.2,0,2.3,1,2.3,2.3v0.5C121.8,239.9,120.8,240.9,119.6,240.9z"/>
			<path style="stroke:#000000;stroke-linecap:round;stroke-linejoin:round;stroke-miterlimit:10;" d="M119.6,257.4H88.2
				c-1.2,0-2.3-1-2.3-2.3v-0.5c0-1.2,1-2.3,2.3-2.3h31.4c1.2,0,2.3,1,2.3,2.3v0.5C121.8,256.4,120.8,257.4,119.6,257.4z"/>
			<path style="stroke:#000000;stroke-linecap:round;stroke-linejoin:round;stroke-miterlimit:10;" d="M119.6,273.9H88.2
				c-1.2,0-2.3-1-2.3-2.3v-0.5c0-1.2,1-2.3,2.3-2.3h31.4c1.2,0,2.3,1,2.3,2.3v0.5C121.8,272.9,120.8,273.9,119.6,273.9z"/>
		</g>
		<g>

				<ellipse style="stroke:#000000;stroke-linecap:round;stroke-linejoin:round;stroke-miterlimit:10;" cx="222.1" cy="282.8" rx="6.7" ry="7.1"/>
			<ellipse style="fill:#F2B45A;stroke:#000000;stroke-miterlimit:10;" cx="224.2" cy="282.8" rx="6.7" ry="7.1"/>
		</g>
		<g>

				<ellipse style="stroke:#000000;stroke-linecap:round;stroke-linejoin:round;stroke-miterlimit:10;" cx="254.2" cy="282.8" rx="6.7" ry="7.1"/>
			<ellipse style="fill:#F2B45A;stroke:#000000;stroke-miterlimit:10;" cx="256.3" cy="282.8" rx="6.7" ry="7.1"/>
		</g>
		<g>

				<ellipse style="stroke:#000000;stroke-linecap:round;stroke-linejoin:round;stroke-miterlimit:10;" cx="286.4" cy="282.8" rx="6.7" ry="7.1"/>
			<ellipse style="fill:#F2B45A;stroke:#000000;stroke-miterlimit:10;" cx="290.4" cy="282.8" rx="6.7" ry="7.1"/>
		</g>

			<text transform="matrix(0.8047 0 0 1 284.7368 157.0483)" style="fill:#EA7547; font-family:'CardenioModern-Bold'; font-size:63.9215px;">NETFLIX</text>
	</g>
</g>
</svg>
