<?xml version="1.0" encoding="utf-8"?>
<!-- Generator: Adobe Illustrator 24.0.1, SVG Export Plug-In . SVG Version: 6.00 Build 0)  -->
<svg version="1.1" id="Layer_1" xmlns="http://www.w3.org/2000/svg" xmlns:xlink="http://www.w3.org/1999/xlink" x="0px" y="0px"
	 viewBox="0 0 1970 722.7" style="enable-background:new 0 0 1970 722.7;" xml:space="preserve">
<g id="phone">
	<g>
		<g>
			<path d="M726.1,104c9.3,32.4,18.8,64.7,28.5,97c9.8,32.3,19.8,94.4,30.1,126.5c10.2,32,20.7,63.8,31.5,95.6
				c8.5,25.1,16.9,50.3,29.3,73.8c11.4,21.7,26.6,42,47.4,55.4c2.6,1.7,5.2,3.2,8,4.7c1.7,0.9,3.2-1.7,1.5-2.6
				c-22-11.7-38.3-30.8-50.5-52.2c-12.8-22.3-21.4-46.6-29.7-70.9c-10.7-31.5-21.2-63.1-31.4-94.8c-10.2-31.8-17.2-63.7-27-95.7
				c-9.7-31.8-22.2-93.8-31.4-125.7c-1.2-4-2.3-8-3.4-12C728.5,101.4,725.6,102.2,726.1,104L726.1,104z"/>
		</g>
	</g>
	<g>
		<g>
			
				<rect x="629.6" y="170.7" style="fill:#C8CECC;stroke:#000000;stroke-linecap:round;stroke-linejoin:round;stroke-miterlimit:10;" width="145.1" height="551.5"/>
			
				<rect x="698.2" y="170.7" style="fill:#FFFFFF;stroke:#000000;stroke-linecap:round;stroke-linejoin:round;stroke-miterlimit:10;" width="76.5" height="551.5"/>
			
				<rect x="636.6" y="170.7" style="fill:#5F6864;stroke:#000000;stroke-linecap:round;stroke-linejoin:round;stroke-miterlimit:10;" width="9.3" height="551.5"/>
			
				<rect x="757.2" y="170.7" style="fill:#C8CECC;stroke:#000000;stroke-linecap:round;stroke-linejoin:round;stroke-miterlimit:10;" width="10.3" height="551.5"/>
			
				<rect x="656.6" y="170.7" style="fill:#89938F;stroke:#000000;stroke-linecap:round;stroke-linejoin:round;stroke-miterlimit:10;" width="16.3" height="551.5"/>
			
				<rect x="729.2" y="170.7" style="fill:#C8CECC;stroke:#000000;stroke-linecap:round;stroke-linejoin:round;stroke-miterlimit:10;" width="16.3" height="551.5"/>
			
				<rect x="688.6" y="170.7" style="fill:#A7AFAC;stroke:#000000;stroke-linecap:round;stroke-linejoin:round;stroke-miterlimit:10;" width="22.3" height="551.5"/>
		</g>
		<g>
			<g>
				
					<rect x="605" y="139.6" style="fill:#A8B2AF;stroke:#000000;stroke-linecap:round;stroke-linejoin:round;stroke-miterlimit:10;" width="93.3" height="43.2"/>
				
					<rect x="698.4" y="139.6" style="fill:#FFFFFF;stroke:#000000;stroke-linecap:round;stroke-linejoin:round;stroke-miterlimit:10;" width="98.5" height="43.2"/>
			</g>
			<g>
				
					<rect x="574.1" y="124.4" style="fill:#A8B2AF;stroke:#000000;stroke-linecap:round;stroke-linejoin:round;stroke-miterlimit:10;" width="124.4" height="17.6"/>
				
					<rect x="698.5" y="124.4" style="fill:#FFFFFF;stroke:#000000;stroke-linecap:round;stroke-linejoin:round;stroke-miterlimit:10;" width="131.2" height="17.6"/>
			</g>
		</g>
	</g>
	<g>
		<path style="fill:#F2B45A;stroke:#000000;stroke-linecap:round;stroke-linejoin:round;stroke-miterlimit:10;" d="M689.4,12.7
			c46.8-2.1,88.3,11.5,99.1,23.6s9.4,20.4,7.6,27.8c-0.9,3.9-2.3,7.8-3.5,10.7c-1,2.5-3.7,3.9-6.3,3.2l-13.1-3.2
			c-1.7-0.4-3.2-1.7-3.8-3.3c-3.2-8.4-15.3-34.4-43.3-36.6c-33.5-2.7-71.1,2.6-76.8,7.1c-5.6,4.4-7.3,19.4-9,26.7
			c-1.7,7.2-7.7,11-21.7,13.5s-19.5,2.5-23.7,2.5s-4.5-3.2-5.9-8.4c-1.4-5.2-12-24.8,5.9-38.5C613.5,23.5,635.9,15.1,689.4,12.7z"/>
		<g>
			<path style="fill:#EA7547;stroke:#000000;stroke-linecap:round;stroke-linejoin:round;stroke-miterlimit:10;" d="M617.4,82.3
				c0,0-3.5,32.9-2.9,42.1h178.3c0,0,0-24.3,0-31.8s-44.1-50.2-49.3-53.9c-5.3-3.7-36-5.2-54.8-5.2s-37.3,5-41.5,10.5
				c-4.1,5.5-4.5,30.5-8.4,34.5C634.9,82.6,617.4,82.3,617.4,82.3z"/>
			<path style="fill:#D1623F;stroke:#000000;stroke-linecap:round;stroke-linejoin:round;stroke-miterlimit:10;" d="M671,92.3
				l-12-45.1l2.3-9.6c-7.1,1.9-12.5,4.2-14.2,6.4c-4.1,5.5-7,27.5-10.9,31.6c-3.9,4-18.9,6.7-18.9,6.7s-3.5,32.9-2.9,42.1H671V92.3z
				"/>
			
				<line style="fill:none;stroke:#000000;stroke-linecap:round;stroke-linejoin:round;stroke-miterlimit:10;" x1="677.6" y1="91.5" x2="773.5" y2="91.5"/>
		</g>
		<path style="fill:#FFDDB0;stroke:#000000;stroke-linecap:round;stroke-linejoin:round;stroke-miterlimit:10;" d="M710,41.5
			c-19.6,0-32.4,8.9-28.5,19.8c3.8,10.9,22.8,19.8,42.4,19.8c19.6,0,32.4-8.9,28.5-19.8C748.5,50.3,729.5,41.5,710,41.5z
			 M689.3,54.5c2.3,0,4.6,1,5,2.3c0.5,1.3-1.1,2.3-3.4,2.3c-2.3,0-4.6-1-5-2.3C685.5,55.5,687,54.5,689.3,54.5z M687.7,64.2
			c-0.5-1.3,1.1-2.4,3.5-2.4s4.7,1.1,5.2,2.4s-1.1,2.4-3.5,2.4S688.2,65.5,687.7,64.2z M701.2,73.5c-2.4,0-4.7-1.1-5.2-2.4
			s1.1-2.4,3.5-2.4s4.7,1.1,5.2,2.4S703.6,73.5,701.2,73.5z M695.5,52.5c-2.3,0-4.4-1-4.9-2.3c-0.4-1.3,1-2.3,3.3-2.3s4.4,1,4.9,2.3
			C699.2,51.5,697.7,52.5,695.5,52.5z M715.1,78.2c-2.5,0-5-1.1-5.5-2.5s1.1-2.5,3.7-2.5c2.5,0,5,1.1,5.5,2.5
			C719.2,77,717.6,78.2,715.1,78.2z M706.2,48.7c-2.2,0-4.3-1-4.8-2.2c-0.4-1.2,1-2.2,3.2-2.2s4.3,1,4.8,2.2
			C709.8,47.7,708.4,48.7,706.2,48.7z M730,78.2c-2.5,0-5-1.1-5.5-2.5s1.1-2.5,3.7-2.5s5,1.1,5.5,2.5C734.2,77,732.5,78.2,730,78.2z
			 M720.2,48.7c-2.2,0-4.3-1-4.8-2.2c-0.4-1.2,1-2.2,3.2-2.2s4.3,1,4.8,2.2C723.8,47.7,722.4,48.7,720.2,48.7z M740.3,74.1
			c-2.5,0-4.9-1.1-5.4-2.5s1.1-2.5,3.6-2.5s4.9,1.1,5.4,2.5C744.4,73,742.7,74.1,740.3,74.1z M744.8,67.5c-2.4,0-4.7-1.1-5.2-2.4
			s1.1-2.4,3.5-2.4s4.7,1.1,5.2,2.4C748.7,66.5,747.2,67.5,744.8,67.5z"/>
		
			<line style="fill:none;stroke:#000000;stroke-linecap:round;stroke-linejoin:round;stroke-miterlimit:10;" x1="587.9" y1="72.7" x2="640.3" y2="61.3"/>
		
			<line style="fill:none;stroke:#000000;stroke-linecap:round;stroke-linejoin:round;stroke-miterlimit:10;" x1="762.7" y1="55.9" x2="796.2" y2="64.1"/>
	</g>
	<g>
		<path style="fill:#F2B45A;stroke:#000000;stroke-linecap:round;stroke-linejoin:round;stroke-miterlimit:10;" d="M571.6,58.8
			l14.2-2.6c0,0,1.8,0.2,2.7,3.7s-1.2,4.7-1.2,4.7l-13.5,1.8"/>
		
			<ellipse transform="matrix(0.9837 -0.1797 0.1797 0.9837 -1.9687 103.8646)" style="fill:#F2B45A;stroke:#000000;stroke-width:1;stroke-linecap:round;stroke-linejoin:round;stroke-miterlimit:9.998;" cx="572.3" cy="62.8" rx="2.2" ry="4.1"/>
	</g>
	<g>
		<g>
			<path d="M571.9,61.4c-3.7,0.7-7.1,2.9-9.9,5.3c-2.7,2.2-5.5,5.2-6.5,8.6c-0.9,3.4,1,6,4.3,6.9c5.8,1.6,11.8-0.8,16.8-3.5
				c1.3-0.7,2.6-1.5,3.9-2.3c1.4-0.8,2.9-1.6,4.2-2.6c1-0.8,1.7-1.9,1.4-3.2c-0.4-1.4-1.9-1.9-3.2-2c-3.3-0.3-6.5,1-9.4,2.4
				c-2.8,1.5-5.5,3.3-7.5,5.9c-1.8,2.3-3,5.2-3,8.1c0.1,2.9,1.8,5.1,4.7,5.6c2.8,0.5,5.7-0.4,8.3-1.5c2.9-1.2,5.8-2.8,8.1-5
				c0.9-0.8,1.8-1.9,2.2-3.1c0.4-1.4-0.5-2.6-1.8-2.9s-2.7,0.2-4,0.7c-1.5,0.5-2.9,1.1-4.3,1.8c-2.7,1.4-5.4,3.2-7.3,5.6
				c-1.6,2-2.9,5.2-1.4,7.7c1.6,2.6,5.7,2.3,8.3,2.4c3.4,0.1,6.8-0.2,10.2-0.7c1.7-0.3,3.4-0.6,5-1c1.3-0.3,3-0.8,3-2.5
				c0.1-3.1-4.1-3.2-6.1-2.6c-5.3,1.5-11.5,5.8-11.4,11.9c0,3.7,3.7,3.8,6.5,3.9c3.5,0.1,6.8-0.4,10.2-0.9c1.8-0.3,4.4-0.2,5.5-2
				c1.3-2.2-1-3.7-2.9-3.8c-2.3-0.2-4.8,0.7-6.8,1.7c-2.1,1-4.4,2.5-5.4,4.7c-1.3,2.7,0,5.3,2.9,5.8c3.3,0.6,6.8,0.4,10-0.1
				c1.6-0.2,3.2-0.6,4.7-1.1c1-0.3,2.3-0.5,3.2-1.1c1-0.7,1.2-1.8,0.9-2.8c-0.5-1.3-1.8-1.4-3-1.3c-2.4,0.2-4.6,1.6-6.5,3
				c-2.2,1.6-4.3,3.7-5.7,6.1c-1.5,2.7-0.4,5.5,2.8,5.7c3.1,0.2,6.4-0.3,9.4-0.8c3.1-0.5,6.2-1.5,9-2.9c1.5-0.8,0.5-3.3-1.2-2.7
				c-3.2,1.1-6.5,2.5-9.1,4.6c-1.5,1.2-3.8,4-1.8,5.8c1.6,1.5,4.8,1,6.8,0.9c2.8-0.3,5.6-0.7,8.3-1.4c1.9-0.5,1.1-3.4-0.8-2.9
				c-2.1,0.5-4.2,0.9-6.3,1.2c-1.8,0.2-3.9,0.5-5.7,0.1c-0.4-0.1-0.2-0.2-0.2,0c0,0,0.2,0.5,0.1,0.5c0.1,0,0-0.1,0.1-0.3
				c0.4-0.9,1.3-1.5,2.1-2.1c2.2-1.5,4.8-2.6,7.3-3.5c-0.4-0.9-0.8-1.8-1.2-2.7c-2.9,1.4-6,2.3-9.2,2.8c-1.6,0.2-3.2,0.4-4.8,0.5
				c-0.8,0-1.6,0.1-2.4,0.1c-0.6,0-1.1,0.1-1.1-0.5c0-1,1.6-2.4,2.2-3.1c0.9-1,1.9-1.9,3-2.8c1.5-1.1,3.8-2.8,5.8-2.3
				c-0.3-0.2-0.6-0.5-0.9-0.7c-0.4-1,0.7-0.7-0.1-0.6c-0.2,0-0.5,0.1-0.7,0.2c-0.7,0.2-1.3,0.4-2,0.6c-1.7,0.5-3.5,0.9-5.3,1
				c-1.2,0.1-8.6,0.9-8.5-1.1c0.1-1.1,1.3-2,2.1-2.6c1-0.7,2.1-1.3,3.2-1.8c1.2-0.5,4.1-1.7,5.2-0.5c-0.1-0.4-0.3-0.7-0.4-1.1
				c0,0.6,0-0.1,0.1-0.1c-0.1,0-0.4,0.2-0.5,0.2c-0.5,0.2-1,0.2-1.5,0.3c-1.5,0.2-2.9,0.5-4.3,0.7c-1.8,0.2-3.6,0.4-5.3,0.4
				c-0.9,0-1.8,0-2.6-0.1c-0.5,0-1.9,0.1-2.2-0.4c-0.6-0.8,0.5-3,0.9-3.7c0.8-1.4,2-2.6,3.3-3.5c1.4-0.9,2.9-1.6,4.4-2.2
				c0.6-0.2,1.2-0.4,1.8-0.4c0.3,0,0.6,0.1,0.8,0.1c0.4,0.4,0.6,0.1,0.4-0.8c-0.2,0.1-0.4,0.1-0.6,0.2c-3.5,0.9-7,1.5-10.6,1.7
				c-1.7,0.1-3.4,0.1-5.1,0c-0.9,0-1.9-0.1-2.8-0.2c-0.6-0.1-1.6-0.1-2-0.7c-0.7-1,0.1-2.6,0.6-3.5c0.9-1.4,2.2-2.6,3.6-3.5
				c1.3-0.9,2.8-1.8,4.3-2.5c0.7-0.3,1.3-0.6,2-0.8c0.9-0.3,2.1-0.4,2.9-0.9h0.1c0.5,0.1,0.5-0.2-0.1-0.9l-0.4,0.7
				c-0.4,0.6-1,1.2-1.6,1.7c-1.3,1.1-2.7,2-4.2,2.8c-2.5,1.3-5.8,2.7-8.7,2.4c-3.7-0.4-2.4-5.1-1.2-7.3c1.6-2.8,4.2-4.8,7-6.4
				c1.5-0.8,3-1.5,4.6-2c0.9-0.3,1.8-0.5,2.7-0.5c0.4,0,0.8,0,1.2,0c0.2,0,0.4,0,0.5,0.1c0.4,0.2,0.3,0-0.1-0.5l-0.9,0.6
				c-0.4,0.2-0.7,0.4-1.1,0.7c-0.6,0.4-1.2,0.7-1.8,1.1c-1.6,1-3.2,1.9-4.9,2.8c-2.8,1.5-5.9,2.8-9.1,3.2c-2,0.2-4.7,0.3-6.4-1
				c-0.4-0.3-0.7-0.7-0.7-1.2c0-0.4,0.1-1.1,0.3-1.7c0.6-1.8,1.9-3.3,3.2-4.7c2.9-3,6.8-6,11-6.7C574.6,63.9,573.8,61.1,571.9,61.4
				L571.9,61.4z"/>
		</g>
	</g>
</g>
<g id="coach">
	<g>
		<path style="fill:#EA7547;stroke:#000000;stroke-linecap:round;stroke-linejoin:round;stroke-miterlimit:10;" d="M1089.9,722.2
			l21.7-234.1H790.1l0,0c-16.3,0-29.7,18-29.7,40v194.1L1089.9,722.2L1089.9,722.2z"/>
		<path style="fill:#F28361;stroke:#000000;stroke-linecap:round;stroke-linejoin:round;stroke-miterlimit:10;" d="M830.6,533.4
			v188.8h259.3l21.7-234.1H808.7C821.6,495.9,830.6,513.3,830.6,533.4z"/>
	</g>
	<g>
		<path style="fill:#EA7547;stroke:#000000;stroke-linecap:round;stroke-linejoin:round;stroke-miterlimit:10;" d="M1347.7,350.4
			c-215.4,0-245.1,0-270.1,0c-32.8,0-40.5,9.3-45.7,29.2c-6.2,24.1-68.5,286-68.5,286l335.8,0.1L1347.7,350.4z"/>
		<path style="fill:#C45533;stroke:#000000;stroke-linecap:round;stroke-linejoin:round;stroke-miterlimit:10;" d="M1384.1,385.8
			c3.5-12.5,0.9-22.9-5.1-28.1s-14.3-6.9-21-7.3c-33.4-1.7-40.5,9.3-45.7,29.2c-6.2,24.1-68.5,286-68.5,286h78.5
			C1335.9,606,1381,396.8,1384.1,385.8z"/>
	</g>
	<g>
		<path style="fill:#EA7547;stroke:#000000;stroke-linecap:round;stroke-linejoin:round;stroke-miterlimit:10;" d="M1640.3,350.4
			c-215.4,0-245.1,0-270.1,0c-32.8,0-40.5,9.3-45.7,29.2c-6.2,24.1-68.5,286-68.5,286l335.8,0.1L1640.3,350.4z"/>
		<path style="fill:#C45533;stroke:#000000;stroke-linecap:round;stroke-linejoin:round;stroke-miterlimit:10;" d="M1676.7,385.8
			c3.5-12.5,0.9-22.9-5.1-28.1s-14.3-6.9-21-7.3c-33.4-1.7-40.5,9.3-45.7,29.2c-6.2,24.1-68.5,286-68.5,286h78.5
			C1628.5,606,1673.6,396.8,1676.7,385.8z"/>
	</g>
	<g>
		<path style="fill:#EA7547;stroke:#000000;stroke-linecap:round;stroke-linejoin:round;stroke-miterlimit:10;" d="M1931.5,350.4
			c-215.4,0-245.1,0-270.1,0c-32.8,0-40.5,9.3-45.7,29.2c-6.2,24.1-68.5,286-68.5,286l335.8,0.1L1931.5,350.4z"/>
		<path style="fill:#C45533;stroke:#000000;stroke-linecap:round;stroke-linejoin:round;stroke-miterlimit:10;" d="M1967.9,385.8
			c3.5-12.5,0.9-22.9-5.1-28.1s-14.3-6.9-21-7.3c-33.4-1.7-40.5,9.3-45.7,29.2c-6.2,24.1-68.5,286-68.5,286l110,28.5
			C1951.1,634.5,1964.8,396.8,1967.9,385.8z"/>
	</g>
	<path style="stroke:#000000;stroke-linecap:round;stroke-linejoin:round;stroke-miterlimit:10;" d="M1170.6,459.9
		c0,0,8.3-16.3,17.3-9.1c9,7.2,19,53.3,38.6,74.2c19.6,20.8,28.1,42.9,38.4,55.3c15.1,18,6.6,33.2,6.6,33.2h-130.8
		c0,0-177.1,0-182.1,0s-43.3,8.5-51.3,8.5s-26.7,0-26.7,0s0-69.5,0-86.5s-8.1-31.9-8.1-31.9"/>
	<path style="fill:#C45533;stroke:#000000;stroke-linecap:round;stroke-linejoin:round;stroke-miterlimit:10;" d="M853.9,677.6
		c-0.3,13-0.3,27.9-0.2,44.6h864.2l-5.7-44.6H853.9z"/>
	<g>
		<path style="fill:#EA7547;stroke:#000000;stroke-linecap:round;stroke-linejoin:round;stroke-miterlimit:10;" d="M1777.9,682.5
			l-6-46.7c-1.4-10.5-10.3-18.4-20.9-18.4h-746.7c-34.8,0-119.8,0-143,0c-16.7,0-20.2,24.2-20.8,67.5c-0.2,11.8,9.3,21.4,21.1,21.4
			H1757C1769.7,706.3,1779.5,695.1,1777.9,682.5z"/>
		<path style="fill:#FAC165;stroke:#000000;stroke-linecap:round;stroke-linejoin:round;stroke-miterlimit:10;" d="M1636.6,722.2
			c-0.2-71.6-1-113,20.9-113c-188.8,0-571.7,0-594.7,0c-34.8,0-119.8,0-143,0c-21.9,0-21.1,41.4-20.9,113H1636.6z"/>
		<path style="stroke:#000000;stroke-linecap:round;stroke-linejoin:round;stroke-miterlimit:10;" d="M1699.6,617.3V609h-34.4
			l-10.6,0.3c-19.9,2.5-18.1,43.6-18,112.9h12c-0.1-53.1-1.9-97.1,8.1-104.9H1699.6z"/>
	</g>
	<g>
		<path style="fill:#EA7547;stroke:#000000;stroke-linecap:round;stroke-linejoin:round;stroke-miterlimit:10;" d="M1812.1,488.1
			h-93.5c-16.3,0-29.7,18-29.7,40v194.1H1812L1812.1,488.1L1812.1,488.1z"/>
		<path style="fill:#F28361;stroke:#000000;stroke-linecap:round;stroke-linejoin:round;stroke-miterlimit:10;" d="M1960.2,722.2
			V488.1h-222.9c12.8,7.8,21.9,25.2,21.9,45.3v188.8H1960.2z"/>
	</g>
	<path style="fill:#FFFFFF;stroke:#000000;stroke-linecap:round;stroke-linejoin:round;stroke-miterlimit:10;" d="M1244.3,581.2
		c0,0,18,13.2,15.4,23.4c-1.6,5.3-18.1-5.3-18.1-5.3s-49.4,5.3-122.4,11c-41.1,3.2-76.9,9.6-146.9,7.6C960,633.1,953,634.3,953,613
		c-66.2-45.6-76.4-99.5-98.1-156.5c0,0-14.6-12.3-14.5-20.2c0.1-7.9,32.2,1.5,32.2,1.5s115.8-58.8,267.5-4.3
		c17.3-4.5,37.2-14.6,31.9,15.4C1200.1,485.7,1228.8,523,1244.3,581.2z"/>
	<path style="fill:#F2B45A;stroke:#000000;stroke-linecap:round;stroke-linejoin:round;stroke-miterlimit:10;" d="M955.1,593.7
		c0,0-19-59.1-87.4-128C891.1,504.4,931.9,575.7,955.1,593.7z"/>
	<path style="fill:none;stroke:#000000;stroke-linecap:round;stroke-linejoin:round;stroke-miterlimit:10;" d="M970.4,612.2
		c0,0,59.5-13.2,76.8-19.2"/>
	<path style="fill:none;stroke:#000000;stroke-linecap:round;stroke-linejoin:round;stroke-miterlimit:10;" d="M1050.2,446.9
		c0,0,49.5-22,95.9-5.7"/>
</g>
<g id="wardrobe_1_">
	<g>
		
			<rect x="11.6" y="334.4" style="fill:#8A9994;stroke:#000000;stroke-linecap:round;stroke-linejoin:round;stroke-miterlimit:10;" width="180" height="387.8"/>
		
			<rect x="191.6" y="334.4" style="fill:#FFFFFF;stroke:#000000;stroke-linecap:round;stroke-linejoin:round;stroke-miterlimit:10;" width="341.3" height="387.8"/>
		<polygon style="stroke:#000000;stroke-linecap:round;stroke-linejoin:round;stroke-miterlimit:10;" points="524.6,722.2 
			524.6,347.4 256.3,347.4 199.8,347.4 199.8,722.2 		"/>
		<g>
			
				<rect x="0.5" y="321.3" style="fill:#8A9994;stroke:#000000;stroke-linecap:round;stroke-linejoin:round;stroke-miterlimit:10;" width="184.4" height="17.6"/>
			
				<rect x="184.9" y="321.3" style="fill:#FFFFFF;stroke:#000000;stroke-linecap:round;stroke-linejoin:round;stroke-miterlimit:10;" width="361.2" height="17.6"/>
		</g>
		<g>
			
				<rect x="199.5" y="472.2" style="fill:#FFFFFF;stroke:#000000;stroke-linecap:round;stroke-linejoin:round;stroke-miterlimit:10;" width="324.8" height="121.6"/>
			
				<polyline id="shadow" style="fill:#C8CECC;stroke:#000000;stroke-linecap:round;stroke-linejoin:round;stroke-miterlimit:10;" points="
				199.5,514 199.5,472.2 524.3,472.2 524.3,514 			"/>
			<g>
				
					<rect x="337.2" y="493.7" style="fill:#C8CECC;stroke:#000000;stroke-linecap:round;stroke-linejoin:round;stroke-miterlimit:10;" width="61.5" height="32.8"/>
				
					<rect x="347.1" y="493.4" style="fill:#C8CECC;stroke:#000000;stroke-linecap:round;stroke-linejoin:round;stroke-miterlimit:10;" width="61.5" height="20.6"/>
				<polygon style="stroke:#000000;stroke-linecap:round;stroke-linejoin:round;stroke-miterlimit:10;" points="347.1,493.4 
					347.1,493.4 333.3,493.6 333.3,526.4 337.4,526.5 337.4,497.7 343.2,497.5 343.2,513.8 347.3,513.9 347.3,493.4 				"/>
			</g>
		</g>
		<g>
			
				<rect x="199.5" y="596.4" style="fill:#FFFFFF;stroke:#000000;stroke-linecap:round;stroke-linejoin:round;stroke-miterlimit:10;" width="324.8" height="121.6"/>
			<g>
				
					<rect x="337.2" y="620.3" style="fill:#C8CECC;stroke:#000000;stroke-linecap:round;stroke-linejoin:round;stroke-miterlimit:10;" width="61.5" height="32.8"/>
				
					<rect x="347.1" y="619.9" style="fill:#FFFFFF;stroke:#000000;stroke-linecap:round;stroke-linejoin:round;stroke-miterlimit:10;" width="61.5" height="20.6"/>
				<polygon style="stroke:#000000;stroke-linecap:round;stroke-linejoin:round;stroke-miterlimit:10;" points="347.1,620 
					347.1,619.9 333.3,620.1 333.3,652.9 337.4,653 337.4,624.3 343.2,624 343.2,640.4 347.3,640.5 347.3,619.9 				"/>
			</g>
		</g>
		<g id="drawer">
			
				<rect id="side" x="205.3" y="380.5" style="fill:#8A9994;stroke:#000000;stroke-linecap:round;stroke-linejoin:round;stroke-miterlimit:10;" width="209.5" height="89.1"/>
			<g id="front">
				
					<rect x="241.4" y="348.2" style="fill:#C8CECC;stroke:#000000;stroke-linecap:round;stroke-linejoin:round;stroke-miterlimit:10;" width="11.2" height="121.6"/>
				
					<rect x="252.4" y="348.2" style="fill:#FFFFFF;stroke:#000000;stroke-linecap:round;stroke-linejoin:round;stroke-miterlimit:10;" width="324.8" height="121.6"/>
				<g>
					
						<rect x="390.1" y="369.7" style="fill:#C8CECC;stroke:#000000;stroke-linecap:round;stroke-linejoin:round;stroke-miterlimit:10;" width="61.5" height="32.8"/>
					
						<rect x="400" y="369.4" style="fill:#FFFFFF;stroke:#000000;stroke-linecap:round;stroke-linejoin:round;stroke-miterlimit:10;" width="61.5" height="20.6"/>
					<polygon style="stroke:#000000;stroke-linecap:round;stroke-linejoin:round;stroke-miterlimit:10;" points="400,369.4 
						400,369.4 386.2,369.6 386.2,402.4 390.3,402.5 390.3,373.7 396.1,373.5 396.1,389.8 400.2,389.9 400.2,369.4 					"/>
				</g>
				<g id="sleve_1_">
					<path style="stroke:#000000;stroke-linecap:round;stroke-linejoin:round;stroke-miterlimit:10;" d="M275.3,343.9
						c0,0,13.5,38.1,17.8,47.6s1.9,30.9,4.7,40.5c2.8,9.6,5,15.2,5,15.2v15h24.8c0,0,30.1-80.9,28.2-94.4
						c-1.9-13.6-55.2-21.3-55.2-21.3"/>
					<path style="fill:#D1623F;stroke:#000000;stroke-linecap:round;stroke-linejoin:round;stroke-miterlimit:10;" d="M326.7,330
						c6.5-0.8,22.5-2.5,39.1,5c8,3.6,8.6,19.4,10,39.9c1.4,20.4-4.2,30.9-7.5,38.3s-2.5,34.1-2.5,34.1s-52.3-1.3-54-2.7
						c-1.8-1.4-9.1-7.6-9.1-41.7c0-14,3-9.1-11.5-27.9s-25.4-27.6-25.4-27.6l-8.8,0.3c0,0,14.5-10.7,36-13.1
						C314.6,332.2,320.2,330.8,326.7,330z"/>
					<g>
						<path style="fill:#FFFFFF;" d="M344.7,443.1c0.6-7.4,1.2-14.8,1.1-22.3c-0.1-8.2-1.1-16.3-2.5-24.4c-1.4-7.8-3-15.6-4.1-23.5
							c-0.6-4-1-8.1-1.1-12.1c-0.1-3.8,0.2-7.7,0.1-11.5c0-4.1-1-7.8-3.8-10.9c-2.3-2.7-5-5.1-7.6-7.6c0,0,0,0-0.1,0
							c0,0-1.3,0.2-3.9,0.6c2.8,2.7,5.7,5.4,8.4,8.3c2.6,2.7,3.7,5.5,3.8,9.2c0.1,3.6-0.3,7.3-0.2,10.9c0.1,3.9,0.5,7.7,1,11.5
							c2,15.6,6.3,30.9,6.7,46.8c0.2,8.7-0.4,17.4-1.2,26.1C342.4,444,343.6,443.6,344.7,443.1z"/>
						<path style="fill:#FFFFFF;" d="M329.6,425c0.5-4.1,0.9-8.2,0.6-12.3c-0.3-4.6-1.4-9.2-2.4-13.7c-1-4.6-1.6-9.2-1.5-13.9
							c0.2-4.8,0.9-9.5,1.3-14.2c0.6-7.7,0.2-16.4-4.6-22.9c-2.7-3.7-6.5-6.1-10.5-8.2c-3.5-1.8-7.1-3.6-10.7-5.3
							c-1.8,0.2-3.7,0.4-5.6,0.7c0.1,0.2,0.3,0.3,0.5,0.4c4.2,2.1,8.4,4.1,12.6,6.3c3.5,1.8,7.1,3.7,9.8,6.6
							c5.5,5.8,5.9,14.5,5.3,22c-0.4,4.8-1.1,9.5-1.3,14.2c-0.2,4.7,0.3,9.2,1.3,13.8c0.9,4.4,2.1,8.8,2.5,13.3
							c0.4,4.1,0,8.3-0.4,12.4c-0.9,8.3-2.2,17.2,1.9,24.9c1-0.3,2-0.7,3.1-1.1C327.4,441,328.7,432.6,329.6,425z"/>
						<path style="fill:#FFFFFF;" d="M334.1,447c1.1-0.4,2.2-0.8,3.3-1.2c1.8-17.5-0.2-35.1-2.4-52.5c-1.1-8.9-2.3-17.8-3.4-26.7
							c-0.6-4.5-1.2-9-1.7-13.4c-0.5-4-1.1-8-2.9-11.6c-2-4-5.3-7.1-9.2-9.2c-2,0.3-4.3,0.6-7,1c5.6,0.9,10.7,4.6,13.3,9.7
							c1.8,3.4,2.2,7.4,2.7,11.2c0.5,4.2,1.1,8.5,1.6,12.7c2.2,17,4.8,34,6.1,51c0.7,9.6,0.8,19.3-0.3,28.8
							C334.1,446.8,334.1,446.9,334.1,447z"/>
					</g>
					<path style="fill:#EA7547;stroke:#000000;stroke-linecap:round;stroke-linejoin:round;stroke-miterlimit:10;" d="M314.1,463.6
						c0,0,26.2,1.4,35-1.5c14.3-4.6,17.5-9.8,17.5-9.8l-0.8-17.3c0,0-16.7,6.4-33.5,9.6c-7.8,1.5-20.5-0.1-20.5-0.1L314.1,463.6z"/>
					<path style="fill:none;stroke:#000000;stroke-linecap:round;stroke-linejoin:round;stroke-miterlimit:10;" d="M309.1,386.6
						c0,0,20.4-35.7,36.8-42.8"/>
				</g>
			</g>
		</g>
	</g>
</g>
<g id="tv_1_">
	<g id="tv-set">
		
			<rect x="98.8" y="290" style="stroke:#000000;stroke-linecap:round;stroke-linejoin:round;stroke-miterlimit:10;" width="389.2" height="30.8"/>
		<path style="fill:#5C6864;stroke:#000000;stroke-linecap:round;stroke-linejoin:round;stroke-miterlimit:10;" d="M381.6,306.7H88
			c-5.7,0-10.4-5-10.4-11V143.9c0-6.1,4.8-10.2,12.4-14.3L381.6,0.5c5.7,0,10.4,5,10.4,11v284.2C392,301.8,387.3,306.7,381.6,306.7z
			"/>
		<path style="fill:#5C6864;stroke:#000000;stroke-linecap:round;stroke-linejoin:round;stroke-miterlimit:10;" d="M434.8,306.7
			H140.5c-5.5,0-10-4.5-10-10V10.5c0-5.5,4.5-10,10-10h294.3c5.5,0,10,4.5,10,10v286.2C444.8,302.2,440.3,306.7,434.8,306.7z"/>
		<path style="fill:#A6B2AE;stroke:#000000;stroke-linecap:round;stroke-linejoin:round;stroke-miterlimit:10;" d="M500.3,306.7H206
			c-5.5,0-10-4.5-10-10V10.5c0-5.5,4.5-10,10-10h294.3c5.5,0,10,4.5,10,10v286.2C510.3,302.2,505.8,306.7,500.3,306.7z"/>
		<path id="screen" style="stroke:#000000;stroke-linecap:round;stroke-linejoin:round;stroke-miterlimit:10;" d="M510.3,260.1V11.5
			c0-6.1-4.1-11-9-11H205c-5,0-9,5-9,11V260h314.3V260.1z"/>
		<rect x="326.8" y="276" style="fill:#C8CECC;" width="62.7" height="12.9"/>
		<g>
			<path style="stroke:#000000;stroke-linecap:round;stroke-linejoin:round;stroke-miterlimit:10;" d="M119.6,158.2H88.2
				c-1.2,0-2.3-1-2.3-2.3v-0.5c0-1.2,1-2.3,2.3-2.3h31.4c1.2,0,2.3,1,2.3,2.3v0.5C121.8,157.2,120.8,158.2,119.6,158.2z"/>
			<path style="stroke:#000000;stroke-linecap:round;stroke-linejoin:round;stroke-miterlimit:10;" d="M119.6,174.8H88.2
				c-1.2,0-2.3-1-2.3-2.3V172c0-1.2,1-2.3,2.3-2.3h31.4c1.2,0,2.3,1,2.3,2.3v0.5C121.8,173.8,120.8,174.8,119.6,174.8z"/>
			<path style="stroke:#000000;stroke-linecap:round;stroke-linejoin:round;stroke-miterlimit:10;" d="M119.6,191.3H88.2
				c-1.2,0-2.3-1-2.3-2.3v-0.5c0-1.2,1-2.3,2.3-2.3h31.4c1.2,0,2.3,1,2.3,2.3v0.5C121.8,190.3,120.8,191.3,119.6,191.3z"/>
			<path style="stroke:#000000;stroke-linecap:round;stroke-linejoin:round;stroke-miterlimit:10;" d="M119.6,207.8H88.2
				c-1.2,0-2.3-1-2.3-2.3V205c0-1.2,1-2.3,2.3-2.3h31.4c1.2,0,2.3,1,2.3,2.3v0.5C121.8,206.8,120.8,207.8,119.6,207.8z"/>
			<path style="stroke:#000000;stroke-linecap:round;stroke-linejoin:round;stroke-miterlimit:10;" d="M119.6,224.3H88.2
				c-1.2,0-2.3-1-2.3-2.3v-0.5c0-1.2,1-2.3,2.3-2.3h31.4c1.2,0,2.3,1,2.3,2.3v0.5C121.8,223.3,120.8,224.3,119.6,224.3z"/>
			<path style="stroke:#000000;stroke-linecap:round;stroke-linejoin:round;stroke-miterlimit:10;" d="M119.6,240.9H88.2
				c-1.2,0-2.3-1-2.3-2.3v-0.5c0-1.2,1-2.3,2.3-2.3h31.4c1.2,0,2.3,1,2.3,2.3v0.5C121.8,239.9,120.8,240.9,119.6,240.9z"/>
			<path style="stroke:#000000;stroke-linecap:round;stroke-linejoin:round;stroke-miterlimit:10;" d="M119.6,257.4H88.2
				c-1.2,0-2.3-1-2.3-2.3v-0.5c0-1.2,1-2.3,2.3-2.3h31.4c1.2,0,2.3,1,2.3,2.3v0.5C121.8,256.4,120.8,257.4,119.6,257.4z"/>
			<path style="stroke:#000000;stroke-linecap:round;stroke-linejoin:round;stroke-miterlimit:10;" d="M119.6,273.9H88.2
				c-1.2,0-2.3-1-2.3-2.3v-0.5c0-1.2,1-2.3,2.3-2.3h31.4c1.2,0,2.3,1,2.3,2.3v0.5C121.8,272.9,120.8,273.9,119.6,273.9z"/>
		</g>
	</g>
	<g>
		<g id="button-3-off">
			<path style="fill:#D89844;stroke:#000000;stroke-linecap:round;stroke-linejoin:round;stroke-miterlimit:10;" d="M306.2,275.7h-2
				c-3.7,0-6.7,3.2-6.7,7.1s3,7.1,6.7,7.1h2V275.7z"/>
			
				<ellipse style="fill:#F2B45A;stroke:#000000;stroke-linecap:round;stroke-linejoin:round;stroke-miterlimit:10;" cx="306.2" cy="282.8" rx="6.7" ry="7.1"/>
		</g>
		<g id="button-2-off">
			<path style="fill:#D89844;stroke:#000000;stroke-linecap:round;stroke-linejoin:round;stroke-miterlimit:10;" d="M281.3,275.7h-2
				c-3.7,0-6.7,3.2-6.7,7.1s3,7.1,6.7,7.1h2V275.7z"/>
			
				<ellipse style="fill:#F2B45A;stroke:#000000;stroke-linecap:round;stroke-linejoin:round;stroke-miterlimit:10;" cx="281.3" cy="282.8" rx="6.7" ry="7.1"/>
		</g>
		<g id="button-1-off">
			<path style="fill:#D89844;stroke:#000000;stroke-linecap:round;stroke-linejoin:round;stroke-miterlimit:10;" d="M256,275.7h-2
				c-3.7,0-6.7,3.2-6.7,7.1s3,7.1,6.7,7.1h2V275.7z"/>
			
				<ellipse style="fill:#F2B45A;stroke:#000000;stroke-linecap:round;stroke-linejoin:round;stroke-miterlimit:10;" cx="256" cy="282.8" rx="6.7" ry="7.1"/>
		</g>
		<g id="button-0-off">
			
				<rect x="210.5" y="274.6" style="fill:#B74B2E;stroke:#000000;stroke-linecap:round;stroke-linejoin:round;stroke-miterlimit:10;" width="7" height="15.9"/>
			
				<rect x="212.5" y="274.6" style="fill:#E06241;stroke:#000000;stroke-linecap:round;stroke-linejoin:round;stroke-miterlimit:10;" width="23.1" height="15.9"/>
		</g>
	</g>
	<g>
		<g id="button-3-on">
			<path style="fill:#D89844;stroke:#000000;stroke-linecap:round;stroke-linejoin:round;stroke-miterlimit:10;" d="M310.2,275.7h-6
				c-3.7,0-6.7,3.2-6.7,7.1s3,7.1,6.7,7.1h6V275.7z"/>
			
				<ellipse style="fill:#F2B45A;stroke:#000000;stroke-linecap:round;stroke-linejoin:round;stroke-miterlimit:10;" cx="310.2" cy="282.8" rx="6.7" ry="7.1"/>
		</g>
		<g id="button-2-on">
			<path style="fill:#D89844;stroke:#000000;stroke-linecap:round;stroke-linejoin:round;stroke-miterlimit:10;" d="M285.3,275.7h-6
				c-3.7,0-6.7,3.2-6.7,7.1s3,7.1,6.7,7.1h6V275.7z"/>
			
				<ellipse style="fill:#F2B45A;stroke:#000000;stroke-linecap:round;stroke-linejoin:round;stroke-miterlimit:10;" cx="285.3" cy="282.8" rx="6.7" ry="7.1"/>
		</g>
		<g id="button-1-on">
			<path style="fill:#D89844;stroke:#000000;stroke-linecap:round;stroke-linejoin:round;stroke-miterlimit:10;" d="M260,275.7h-6
				c-3.7,0-6.7,3.2-6.7,7.1s3,7.1,6.7,7.1h6V275.7z"/>
			
				<ellipse style="fill:#F2B45A;stroke:#000000;stroke-linecap:round;stroke-linejoin:round;stroke-miterlimit:10;" cx="260" cy="282.8" rx="6.7" ry="7.1"/>
		</g>
		<g id="button-0-on">
			
				<rect x="210.5" y="274.6" style="fill:#B74B2E;stroke:#000000;stroke-linecap:round;stroke-linejoin:round;stroke-miterlimit:10;" width="7" height="15.9"/>
			
				<rect x="217.5" y="274.6" style="fill:#E06241;stroke:#000000;stroke-linecap:round;stroke-linejoin:round;stroke-miterlimit:10;" width="23.1" height="15.9"/>
		</g>
	</g>
	<g id="channel-3">
		<rect x="205.3" y="12.6" width="294.7" height="239.2"/>
		<path style="fill:#EA7547;" d="M323.5,131.3c0,0.4,0,0.8-0.1,1.1h-11.6c-0.1-6.9-0.5-14.4-1.1-22.4c0.2-0.8,0.8-1.2,2-1.2
			l11.7-0.1c0.3,0,0.4,0.6,0.4,1.9v1.5c0,1-0.4,1.5-1.1,1.5h-1.4c-2.3,0-4.7,0.1-7.2,0.3c0,0.6,0.2,5.6,0.6,14.9l7-0.2
			C323.2,128.6,323.5,129.5,323.5,131.3z M294.3,132.4h4.3c-1.8-7.5-3.8-14.2-5.9-20c-0.6-2.9-1.5-4.4-2.5-4.4
			c-1.6,0.3-2.4,0.8-2.4,1.7c0,0.1,0,0.2,0.1,0.4c0.1,6.3,0.1,10.9,0.1,13.9v4c0,1.3,0,2.8,0,4.4h4c-0.1-2.7-0.2-5.5-0.3-8.6h0.1
			C292.7,126.4,293.5,129.3,294.3,132.4z M425.4,108.2c-1.5,0-3.6,5.9-6.2,17.6h-0.1v-0.1c-2.3-11.1-4.2-16.7-5.6-16.7
			c-1.8,0.2-2.7,0.7-2.7,1.4c0,1.4,0.8,4.3,2.3,8.7c0.8,3.5,1.9,7.9,3.2,13.3h5.6c1.7-7.1,3.7-14.4,5.9-21.7v-0.3
			C427.8,109.5,427,108.8,425.4,108.2z M302.1,108.2c-0.7,0-1,0.3-1,1v6.7c0,6,0,11.5-0.1,16.5h3.9c0.1-7.7,0.1-14.9,0.1-21.7
			C305,109,304,108.2,302.1,108.2z M382.8,132.4c-0.3-7.8-0.5-13.4-0.5-16.8v-6.4c0-0.9-0.6-1.4-1.9-1.4c-1.4,0-2.1,0.3-2.4,1v7.5
			c0,5.8,0.2,11.1,0.7,16v0.1H382.8z M404.5,112.2c-0.1-2.7-0.6-4-1.3-4l-1.4,0.1c-1.1,0-1.6,0.5-1.6,1.5c0.2,6.8,0.3,14.4,0.6,22.6
			h4.1C404.8,126,404.6,119.2,404.5,112.2z M371.2,131v-1.2l-0.2-0.4l-11.2-0.2c-0.1-2.6-0.1-8-0.2-16.4c6.2,0.6,9.7,0.9,10.7,0.9
			h1.2c0.3,0,0.5-0.9,0.6-2.7c0-1.1-0.1-1.8-0.4-2.2c-4.6-0.2-9.5-0.7-14.7-1.4c-1,0-1.6,0.6-1.4,1.6v1.5c0.1,8.5,0.1,15.8,0.2,21.9
			h15.3C371.1,132,371.2,131.5,371.2,131z M341.8,132.4v-3.7c0-5.7-0.1-10.5-0.3-14.4c2.9-0.2,5.3-0.3,7.2-0.3
			c0.8,0,1.2-0.8,1.2-2.4v-0.9c0-1.1-1.2-1.6-3.7-1.6h-2.3c-1.8,0-5.5,0.3-11.2,0.9c-2.1,0-3.2,1.2-3.2,3.5c0,0.6,0.1,1.1,0.4,1.5
			l7.8-0.4c0,6.7-0.1,12.6-0.1,17.8H341.8z"/>
		<path style="fill:#EA7547;" d="M304.9,132.4c-0.1,8-0.3,16.6-0.5,25.7c-0.1,0.7-0.6,1-1.4,1c-0.3,0-0.6,0-0.9-0.1
			c-1.4-0.2-2.2-0.9-2.2-1.9c-1.9-9.5-3.7-17.7-5.6-24.7h4.3c0.7,2.7,1.3,5.4,1.9,8.3h0.1c0.1-2.6,0.2-5.4,0.3-8.3H304.9z
			 M323.8,151.1c-3.3,0.2-5.8,0.4-7.6,0.7c-0.1-3.2-0.3-9.1-0.4-17.7l6.5-0.4c0.6,0,1-0.4,1.1-1.3h-11.6c0,1.8,0.1,3.5,0.1,5.2v17
			c0,1.1,0.1,1.9,0.3,2.4c2.5,0,6.1-0.2,10.7-0.5c1.3,0,1.9-0.7,1.9-2.2v-1.5C324.7,151.7,324.3,151.1,323.8,151.1z M337.6,132.4
			c0,11.6,0,19.4,0,23.3c0,1.1,0.7,1.7,2.2,1.9h0.2c0.8,0,1.3-0.3,1.6-0.9c0.1-5.3,0.2-10.8,0.2-16.5v-7.8H337.6z M288.1,132.4
			c0,5.7,0,13.5,0.1,23.4c0,1.7,0.9,2.8,2.6,3.2c0.5,0,0.9-0.2,1.3-0.7c0.1-6.5,0.2-11.1,0.2-14c0-3.4-0.1-7.4-0.2-11.9H288.1z
			 M400.8,132.4c0.2,7.3,0.4,15.2,0.7,23.6c0.3,0.7,0.9,1,1.6,1h0.2c1.3,0,2.1-0.7,2.3-1.9c-0.3-7.1-0.5-14.7-0.7-22.7L400.8,132.4
			L400.8,132.4z M421.9,132.4h-5.6c0.1,0.4,0.2,0.7,0.2,1.1c-2.3,9.4-4,17-5,22.8v0.1c0.5,1.1,1.3,1.6,2.5,1.6
			c0.3,0,0.6-0.2,1.1-0.7c1.3-4.2,2.5-9.6,3.8-16.1h0.1c1.8,7,2.8,11.1,3.1,12.4c0.8,3.1,1.5,4.9,2.3,5.2h0.9c1.3-0.3,1.9-1,1.9-2.1
			l-5.6-23.2C421.7,133.1,421.8,132.8,421.9,132.4z M390.7,150.9H390c-2.3,0-4.7,0-7.1,0.2c0,0.1,0,0.1-0.1,0.1
			c0-2.7,0-7.8,0.1-15.4c0-1.2-0.1-2.3-0.1-3.4h-4.1l-0.2,15.1c0.1,1.1,0.1,3.3,0.1,6.7c0,1.8,0.2,3,0.7,3.4
			c3.2-0.6,7.6-0.9,13.2-0.9h1c0.9-0.3,1.4-1.3,1.4-3.1v-0.4c0-0.9-0.2-1.7-0.7-2.2C392.6,150.9,391.5,150.9,390.7,150.9z
			 M355.8,132.4c0.2,16.3,0.4,24.4,0.5,24.4c0,1,0.5,1.5,1.5,1.5h0.7c0.8,0,1.5-0.3,2-0.9c-0.1-2-0.2-3.8-0.2-5.5
			c0-7.9-0.1-13.7-0.2-17.5c5.3,0.1,8.5,0.1,9.6,0.1h0.1c0.6,0,1.1-0.7,1.3-2.1H355.8z"/>
	</g>
	<g>
		<defs>
			<rect id="c2" x="205.3" y="12.6" width="294.7" height="239.2"/>
		</defs>
		<clipPath id="c2_1_">
			<use xlink:href="#c2"  style="overflow:visible;"/>
		</clipPath>
		<g id="channel-2" style="clip-path:url(#c2_1_);">
			<rect x="205.3" y="12.6" width="294.7" height="239.2"/>
			<g>
				<path style="fill:#FFE7A7;stroke:#000000;stroke-miterlimit:10;" d="M491.3,67.5c-33.1,5.4-76,41.6-111.3,38s-53.2,8.6-76.6-4.6
					c-15.8-8.9-66.7-1.5-98.2-11.3v162.6h295V66C497.2,66.5,494.3,67,491.3,67.5z"/>
				<g id="rv">
					<path style="fill:#FFE7A7;stroke:#000000;stroke-miterlimit:10;" d="M491.8,64.2h-34.5c-1.1,0-2-0.9-2-2v-9.7c0-1.1,0.9-2,2-2
						h34.5c1.1,0,2,0.9,2,2v9.7C493.8,63.3,492.9,64.2,491.8,64.2z"/>
					<path style="stroke:#000000;stroke-linecap:round;stroke-linejoin:round;stroke-miterlimit:10;" d="M478,159.1
						c0-9.6-5.3-17.4-11.8-17.4s-11.8,7.8-11.8,17.4c0,6.9,2.7,12.8,6.7,15.7l-2.5,1.7h7.6l0,0C472.7,176.5,478,168.7,478,159.1z"/>
					<polyline style="fill:#FFFFFF;stroke:#000000;stroke-linecap:round;stroke-linejoin:round;stroke-miterlimit:10;" points="
						500.1,56 408,56 394.5,107.2 408.4,159.4 500.1,159.4 500.1,56 					"/>
					<polygon style="fill:#F2B45A;stroke:#000000;stroke-miterlimit:10;" points="401.7,134.3 500.1,134.3 500.1,123.5 398.9,123.5 
											"/>
					<polygon style="fill:#EA7547;stroke:#000000;stroke-linecap:round;stroke-linejoin:round;stroke-miterlimit:10;" points="
						404.6,145.1 500.1,145.1 500.1,134.3 401.7,134.3 					"/>
					<path style="stroke:#000000;stroke-linecap:round;stroke-linejoin:round;stroke-miterlimit:10;" d="M459.3,140.7
						c-4.8,0-8.9,4-11,9.9c-1,2.5-1.5,5.4-1.5,8.5c0,3.1,0.6,6,1.5,8.5c2.1,5.9,6.2,9.9,11,9.9c6.8,0,12.4-8.2,12.4-18.4
						C471.7,148.9,466.1,140.7,459.3,140.7z"/>
					
						<ellipse style="fill:#FFFFFF;stroke:#000000;stroke-linecap:round;stroke-linejoin:round;stroke-miterlimit:10;" cx="458.6" cy="159.1" rx="8.2" ry="12.2"/>
					<path style="fill:none;stroke:#000000;stroke-linecap:round;stroke-linejoin:round;stroke-miterlimit:10;" d="M439.4,101.7
						h-8.2c-1.1,0-2-0.9-2-2V78.9c0-1.1,0.9-2,2-2h8.2"/>
					<path style="stroke:#000000;stroke-linecap:round;stroke-linejoin:round;stroke-miterlimit:10;" d="M478.7,101.7h-44.1
						c-1.1,0-2-0.9-2-2V78.9c0-1.1,0.9-2,2-2h44.1c1.1,0,2,0.9,2,2v20.8C480.7,100.8,479.8,101.7,478.7,101.7z"/>
					
						<rect x="425.6" y="48.6" style="fill:#FFFFFF;stroke:#000000;stroke-linecap:round;stroke-linejoin:round;stroke-miterlimit:10;" width="25.2" height="7.5"/>
					<path style="fill:#FFE7A7;stroke:#000000;stroke-miterlimit:10;" d="M420.7,178.3c11.1,0.9,38.3-4.5,43.7-3.8
						c17.6,2.1,29.4,8.3,29.4,8.3"/>
				</g>
				<g id="walter">
					<path style="fill:#F2B45A;stroke:#000000;stroke-miterlimit:10;" d="M429.3,197.2c-14.9-20.7-46.4-35.1-72.1-51.6h-64
						c-32.6,30.1-74.2,37.4-80.3,53.2s-6.3,53.1-6.3,53.1h237.3C443.8,251.8,444.6,218.5,429.3,197.2z"/>
					<path style="fill:#F2B45A;stroke:#000000;stroke-miterlimit:10;" d="M286.9,152.8c-1.4-12.3,5.6-25.6,5.6-25.6h65.2
						c0,0,11.6,14.9,9.4,26.9s-25.4,48.6-25.4,48.6l-18.5,27.9C323.1,230.6,288.3,165.1,286.9,152.8z"/>
					<polyline style="fill:#FFFFFF;stroke:#000000;stroke-linecap:round;stroke-linejoin:round;stroke-miterlimit:10;" points="
						309.8,159.9 319.1,197.9 323.1,230.6 354.6,149.6 					"/>
					<path style="fill:#F5C6C2;stroke:#000000;stroke-linecap:round;stroke-linejoin:round;stroke-miterlimit:10;" d="M286.6,82.1
						c0,0-4.3-7.9-6.1-5.5c-1.7,2.4-1.7,11.8-1.7,17.1c0,5.3,0.3,10.3,1.7,14.3c1.5,4,3.9,11.7,6.7,13.6c2.8,1.9,5.9,1,5.9,1"/>
					<path style="fill:#F5C6C2;stroke:#000000;stroke-linecap:round;stroke-linejoin:round;stroke-miterlimit:10;" d="M364.2,82.1
						c0,0,4.3-7.9,6.1-5.5C372,79,372,88.4,372,93.7c0,5.3-0.3,10.3-1.7,14.3c-1.5,4-3.9,11.7-6.7,13.6c-2.8,1.9-5.9,1-5.9,1"/>
					<path style="fill:#F5C6C2;stroke:#000000;stroke-linecap:round;stroke-linejoin:round;stroke-miterlimit:10;" d="M363.9,47.3
						c0-14.5-5.1-25.2-14.5-34.8c-11.8-12-39.1-12-48.8-0.2c-8.3,10.1-14.7,20.3-14.7,34.9v42.5c0,5.5,0.8,10.8,2.4,15.6
						c1.2,13.7,3.5,37,4.8,40.1c1.8,4.4,13.7,16.6,17.6,19.3c2.1,1.4,7.1,2.3,11.3,2.7c0.7,0.1,1.8,0.2,3.1,0.2c1.4,0,2.5,0,3.1-0.2
						c4.2-0.4,9.2-1.3,11.3-2.7c3.9-2.7,15.7-14.9,17.6-19.3c1.4-3.2,3.8-28.6,5-41.9c1.2-4.3,1.8-9,1.8-13.9L363.9,47.3L363.9,47.3
						z"/>
					<path style="fill:none;stroke:#000000;stroke-linecap:round;stroke-linejoin:round;stroke-miterlimit:10;" d="M296,80.3
						c2.9,0,18.8,0.3,20.2,0.5c1.4,0.3,4.8,2.8,3.6,8.3c-1.2,5.5-3.3,10.2-6.4,13c-3,2.8-13.2,5-16.8,3.1c-3.6-1.8-5.6-4.9-5.5-8.5
						s-0.3-9.7,0-12.1C291.5,82.3,293.1,80.2,296,80.3z"/>
					<path style="fill:none;stroke:#000000;stroke-linecap:round;stroke-linejoin:round;stroke-miterlimit:10;" d="M354.3,80.3
						c-2.9,0-19,0.3-20.4,0.5c-1.4,0.3-4.8,2.8-3.6,8.3c1.2,5.5,3.3,10.2,6.4,13s13.3,5,16.9,3.1c3.6-1.8,5.7-4.9,5.6-8.5
						s0.3-9.7,0-12.1C358.8,82.3,357.3,80.2,354.3,80.3z"/>
					<path style="stroke:#000000;stroke-linecap:round;stroke-linejoin:round;stroke-miterlimit:10;" d="M325.6,180.1L325.6,180.1
						c-11.4,0-20.7-9.3-20.7-20.7v-22.6c0-11.4,9.3-20.7,20.7-20.7l0,0c11.4,0,20.7,9.3,20.7,20.7v22.6
						C346.3,170.8,337,180.1,325.6,180.1z"/>
					<path style="fill:#F5C6C2;stroke:#000000;stroke-linecap:round;stroke-linejoin:round;stroke-miterlimit:10;" d="M315.9,110.2
						c0,0-1.9,4.5-1,6.4s2.8,0.9,4.1,1.9c1.4,1.1,4.1,4.3,6.7,4.3s4.4-3.2,6.9-4.3c2.5-1.1,3.2-0.9,3.8-2c0.6-1.1-0.9-6.3-0.9-6.3"
						/>
					<path style="fill:none;stroke:#000000;stroke-linecap:round;stroke-linejoin:round;stroke-miterlimit:10;" d="M296.2,116.1
						c2.3,3.7,5.4,16.5,6.1,24s3.2,19.8,3.2,19.8"/>
					<path style="fill:none;stroke:#000000;stroke-linecap:round;stroke-linejoin:round;stroke-miterlimit:10;" d="M354.6,116.1
						c-2.1,3.7-4.8,16.5-5.4,24s-2.8,19.8-2.8,19.8"/>
					<path style="fill:none;stroke:#000000;stroke-linecap:round;stroke-linejoin:round;stroke-miterlimit:10;" d="M319.6,84.2
						c0,0,3-1.3,5.2-1.3s5.2,1.3,5.2,1.3"/>
					<path d="M317.6,82.8c-0.1,0-0.2,0-0.3,0c-0.1,0-13.2-3.3-17.7-4.4c-3.3-0.8-4.7,0.2-5.9,1.1c-0.2,0.2-0.5,0.3-0.7,0.5
						c-0.7,0.4-1.6,0-1.9-0.9s0-2,0.7-2.5c0.2-0.1,0.3-0.2,0.6-0.4c1.3-0.9,3.5-2.5,7.8-1.5c4.5,1.1,17.5,4.4,17.7,4.4
						c0.8,0.2,1.3,1.2,1.1,2.2C318.9,82.2,318.3,82.8,317.6,82.8z"/>
					<path d="M332.1,82.8c0.1,0,0.2,0,0.3,0c0.1,0,13.2-3.3,17.6-4.4c3.3-0.8,4.7,0.2,5.9,1.1c0.2,0.2,0.5,0.3,0.7,0.5
						c0.7,0.4,1.5,0,1.9-0.9c0.3-0.9,0-2-0.7-2.5c-0.2-0.1-0.3-0.2-0.6-0.4c-1.3-0.9-3.5-2.5-7.8-1.5c-4.4,1.1-17.5,4.4-17.6,4.4
						c-0.8,0.2-1.3,1.2-1.1,2.2C330.8,82.2,331.4,82.8,332.1,82.8z"/>
					<g>
						<path style="stroke:#000000;stroke-linecap:round;stroke-linejoin:round;stroke-miterlimit:10;" d="M311.6,87.4L311.6,87.4
							c0,2.7-1.7,4.8-3.7,4.8l0,0c-2,0-3.7-2.2-3.7-4.8l0,0"/>
						<path style="fill:none;stroke:#000000;stroke-linecap:round;stroke-linejoin:round;stroke-miterlimit:10;" d="M313.5,87.4
							c0,0-8.1-0.5-10.6,0s-4.1,3.6-4.1,3.6"/>
					</g>
					<g>
						<path style="stroke:#000000;stroke-linecap:round;stroke-linejoin:round;stroke-miterlimit:10;" d="M337.5,87.4L337.5,87.4
							c0,2.7,1.7,4.8,3.7,4.8l0,0c2,0,3.7-2.2,3.7-4.8l0,0"/>
						<path style="fill:none;stroke:#000000;stroke-linecap:round;stroke-linejoin:round;stroke-miterlimit:10;" d="M350.4,91
							c0,0-1.6-3.2-4.1-3.6c-2.5-0.5-10.6,0-10.6,0"/>
					</g>
					<path style="fill:#F5C6C2;stroke:#000000;stroke-linecap:round;stroke-linejoin:round;stroke-miterlimit:10;" d="M327.8,140.8
						h-4.2c-5.3,0-9.7,5.5-9.7,0.2l0,0c0-5.3,0.7-9.7,9.7-9.7h4.2c9.7,0,9.7,4.4,9.7,9.7l0,0C337.5,146.3,333.2,140.8,327.8,140.8z"
						/>
					
						<line style="fill:none;stroke:#000000;stroke-linecap:round;stroke-linejoin:round;stroke-miterlimit:10;" x1="317.1" y1="136.6" x2="335.7" y2="136.6"/>
					<line style="fill:none;stroke:#000000;stroke-miterlimit:10;" x1="322.6" y1="252.5" x2="323.5" y2="227.1"/>
				</g>
			</g>
		</g>
	</g>
	<g>
		<defs>
			<rect id="c1" x="205.3" y="12.6" width="294.7" height="239.2"/>
		</defs>
		<clipPath id="c1_1_">
			<use xlink:href="#c1"  style="overflow:visible;"/>
		</clipPath>
		<g id="channel-1" style="clip-path:url(#c1_1_);">
			<rect x="205.3" y="12.6" width="294.7" height="239.2"/>
			<g>
				<g id="soup">
					<path style="fill:#FFFFFF;" d="M353.4,124c-30.6,0-78.9,6.2-78.9,6.2s2.2,21.3,7.5,48.5s33.5,50.5,71.5,50.5
						s64.7-21.9,71.4-52.6s7.6-46.8,7.6-46.8S384,124,353.4,124z"/>
					<path style="fill:#F2B45A;" d="M290.9,128.3c-9.8,1.1-16.4,1.9-16.4,1.9s2.2,21.3,7.5,48.5c2.3,12,9.2,23.3,19.3,32.1
						L290.9,128.3z"/>
					<ellipse style="fill:#F2B45A;" cx="353.4" cy="120.8" rx="78.1" ry="59.7"/>
					<path style="fill:#FFFFFF;" d="M275.3,120.8c0,16.7,9,31.9,23.5,42.7c13.1-17.8,28.5-42.7,28.5-42.7S324.1,86,322.4,66
						C294.8,75.1,275.3,96.2,275.3,120.8z"/>
					<path style="fill:#D1623F;stroke:#000000;stroke-linecap:round;stroke-linejoin:round;stroke-miterlimit:10;" d="M353.4,180.5
						c35.9,0,66.1-18.5,75.3-43.8c-1.9-30.5-34.9-54.8-75.3-54.8s-73.3,24.3-75.3,54.8C287.3,161.9,317.5,180.5,353.4,180.5z"/>
					<path style="fill:#FFFFFF;stroke:#000000;stroke-linecap:round;stroke-linejoin:round;stroke-miterlimit:10;" d="M353.4,56.7
						c-45.7,0-82.9,28.7-82.9,64.1c0,35.3,37.2,64.1,82.9,64.1s82.9-28.7,82.9-64.1S399.1,56.7,353.4,56.7z M353.4,62.7
						c42.4,0,76.9,26.1,76.9,58.1s-34.5,58.1-76.9,58.1s-76.9-26.1-76.9-58.1S311,62.7,353.4,62.7z"/>
					<g>
						<path style="fill:#FFFFFF;stroke:#000000;stroke-linecap:round;stroke-linejoin:round;stroke-miterlimit:10;" d="M355.8,143.1
							c-6.6-5.8-17.2-5.8-23.7,0c-6.6,5.8-6.6,15.2,0,20.9c6.5,5.8,17.2,5.8,23.7,0C362.3,158.3,362.3,148.9,355.8,143.1z
							 M352.4,161.1c-4.7,4.1-12.3,4.1-16.9,0c-4.7-4.1-4.7-10.8,0-15c4.7-4.1,12.3-4.1,16.9,0C357,150.2,357,157,352.4,161.1z"/>
						<path style="fill:#FFFFFF;stroke:#000000;stroke-linecap:round;stroke-linejoin:round;stroke-miterlimit:10;" d="M360.7,138.7
							c-9.3-8.2-24.4-8.2-33.7,0c-9.3,8.2-9.3,21.5,0,29.7s24.4,8.2,33.7,0C370,160.3,370,146.9,360.7,138.7z M356.8,165
							c-7.1,6.3-18.7,6.3-25.9,0c-7.1-6.3-7.1-16.5,0-22.9c7.1-6.3,18.7-6.3,25.9,0C364,148.5,364,158.7,356.8,165z"/>
					</g>
					<g>
						<g>
							<path style="fill:#EAD4B9;" d="M334.3,107.5L334.3,107.5L334.3,107.5C334.2,107.4,334.2,107.4,334.3,107.5z"/>
							<path style="fill:#FFFFFF;stroke:#000000;stroke-linecap:round;stroke-linejoin:round;stroke-miterlimit:10;" d="
								M334.3,105.4c-0.8-0.5-9.8-5.6-26.6,4c-17.6,10-12.3,22.2-7.6,26.3c4.6,4.1,18.3,8.6,29.6-6.9
								C340.6,114,334.8,106.1,334.3,105.4z"/>
							<ellipse style="fill:#EAD4B9;" cx="311.9" cy="127.3" rx="11.5" ry="10.1"/>
						</g>
						<g>
							<path style="fill:#FDEBD3;" d="M334.3,102.7L334.3,102.7L334.3,102.7C334.2,102.6,334.2,102.6,334.3,102.7z"/>
							<path style="fill:#FFFFFF;stroke:#000000;stroke-linecap:round;stroke-linejoin:round;stroke-miterlimit:10;" d="
								M334.3,102.7c-0.8-0.5-9.8-5.6-26.6,4c-17.6,10-12.3,22.2-7.6,26.3c4.6,4.1,18.3,8.6,29.6-6.9
								C340.6,111.3,335.7,103.6,334.3,102.7z"/>
							<ellipse style="fill:#EDB648;" cx="311.9" cy="122.5" rx="11.5" ry="10.1"/>
						</g>
					</g>
					<g>
						<polyline points="407.5,99.4 404.6,75.9 395.7,70.6 397.1,92.5 360.3,126.5 361.3,133.8 407.5,99.4 						"/>
						<path d="M360.3,133.8c0,0,17.9-47.3,45.3-77.9s31-38.1,34.2-31.6c5.6,11.3-4.4,15-25.1,40.7c-4.7,5.9-11.3,13.1-16.5,19.9
							c-17.4,23.1-34.6,47-34.6,47"/>
						<path style="fill:#FFFFFF;stroke:#000000;stroke-linecap:round;stroke-linejoin:round;stroke-miterlimit:10;" d="M354.3,128.9
							c0,0,19.9-35.8,45.3-70.7c26-35.7,32.6-40.1,39.3-34.7c7,5.7-9.3,19.4-30,45.1s-48.7,65.2-48.7,65.2"/>
					</g>
					<g>
						<g>
							<path style="fill:#93160D;" d="M396.3,128.8c-0.8-0.7-2-0.8-2.7-0.3c-0.7,0.6-0.5,1.6,0.3,2.4c0.8,0.7,2,0.8,2.7,0.3
								C397.3,130.5,397.1,129.5,396.3,128.8z"/>
							<path style="fill:#93160D;" d="M394,145.6c-1-0.9-2.5-1.1-3.4-0.3c-0.8,0.7-0.7,2.1,0.4,3c1,0.9,2.5,1.1,3.4,0.3
								C395.2,147.8,395,146.5,394,145.6z"/>
							<path style="fill:#93160D;" d="M396.6,136.5c-0.8-0.7-2-0.8-2.7-0.3c-0.7,0.6-0.5,1.6,0.3,2.4c0.8,0.7,2,0.8,2.7,0.3
								C397.5,138.3,397.4,137.2,396.6,136.5z"/>
							<path style="fill:#93160D;" d="M405.9,146.8c-0.5-0.4-1.3-0.4-1.8,0s-0.5,1.2,0,1.6c0.5,0.4,1.3,0.4,1.8,0
								C406.4,148,406.4,147.3,405.9,146.8z"/>
							<ellipse style="fill:#93160D;" cx="385.6" cy="139.8" rx="1.3" ry="1.1"/>
							<path style="fill:#93160D;" d="M405.2,136.6c-0.5-0.4-1.3-0.4-1.8,0s-0.5,1.2,0,1.6c0.5,0.4,1.3,0.4,1.8,0
								C405.7,137.8,405.7,137,405.2,136.6z"/>
							<path style="fill:#93160D;" d="M399.8,143c-0.5-0.4-1.3-0.4-1.8,0s-0.5,1.2,0,1.6c0.5,0.4,1.3,0.4,1.8,0
								C400.3,144.1,400.3,143.4,399.8,143z"/>
							<path style="fill:#93160D;" d="M399.7,148.7c-0.3-0.3-0.8-0.3-1.1,0c-0.3,0.3-0.3,0.7,0,1s0.8,0.3,1.1,0
								C400,149.4,400,148.9,399.7,148.7z"/>
							<path style="fill:#93160D;" d="M394.4,142c-0.3-0.3-0.8-0.3-1.1,0c-0.3,0.3-0.3,0.7,0,1s0.8,0.3,1.1,0S394.7,142.3,394.4,142
								z"/>
							<path style="fill:#93160D;" d="M405.7,142.3c-0.3-0.3-0.8-0.3-1.1,0c-0.3,0.3-0.3,0.7,0,1s0.8,0.3,1.1,0
								C406.1,143.1,406.1,142.6,405.7,142.3z"/>
							<path style="fill:#93160D;" d="M389,133.5c-0.3-0.3-0.8-0.3-1.1,0c-0.3,0.3-0.3,0.7,0,1s0.8,0.3,1.1,0
								C389.3,134.2,389.3,133.8,389,133.5z"/>
							<path style="fill:#93160D;" d="M401.8,130.9c-0.3-0.3-0.8-0.3-1.1,0c-0.3,0.3-0.3,0.7,0,1s0.8,0.3,1.1,0
								C402.1,131.6,402.1,131.2,401.8,130.9z"/>
						</g>
						<polygon style="fill:#93160D;" points="380.3,139.9 381,138.5 380.3,136.8 						"/>
						<polygon style="fill:#93160D;" points="412,138.5 412.9,139.5 412.9,136.6 						"/>
						<g>
							
								<ellipse style="fill:#DD6C4E;stroke:#000000;stroke-linecap:round;stroke-linejoin:round;stroke-miterlimit:10;" cx="396.6" cy="136.6" rx="16.3" ry="14.4"/>
							<ellipse style="fill:#EDB648;" cx="405" cy="144.7" rx="1.3" ry="1.1"/>
							<path style="fill:#EDB648;" d="M386.5,136c-0.5-0.4-1.3-0.4-1.8,0s-0.5,1.2,0,1.6c0.5,0.4,1.3,0.4,1.8,0
								C387,137.2,387,136.5,386.5,136z"/>
							<ellipse style="fill:#EDB648;" cx="404.3" cy="134.4" rx="1.3" ry="1.1"/>
							<path style="fill:#EDB648;" d="M397.9,133.9c-0.5-0.4-1.3-0.4-1.8,0s-0.5,1.2,0,1.6c0.5,0.4,1.3,0.4,1.8,0
								S398.4,134.4,397.9,133.9z"/>
							<path style="fill:#FF592C;" d="M399.7,145.7c-0.3-0.3-0.8-0.3-1.1,0c-0.3,0.3-0.3,0.7,0,1s0.8,0.3,1.1,0
								C400,146.4,400,146,399.7,145.7z"/>
							<path style="fill:#FF592C;" d="M394.4,139.1c-0.3-0.3-0.8-0.3-1.1,0c-0.3,0.3-0.3,0.7,0,1s0.8,0.3,1.1,0
								S394.7,139.3,394.4,139.1z"/>
							<path style="fill:#FF592C;" d="M405.7,139.4c-0.3-0.3-0.8-0.3-1.1,0c-0.3,0.3-0.3,0.7,0,1s0.8,0.3,1.1,0
								C406.1,140.1,406.1,139.6,405.7,139.4z"/>
							<path style="fill:#FF592C;" d="M389,130.5c-0.3-0.3-0.8-0.3-1.1,0c-0.3,0.3-0.3,0.7,0,1s0.8,0.3,1.1,0
								C389.3,131.2,389.3,130.8,389,130.5z"/>
							<path style="fill:#FF592C;" d="M401.8,127.9c-0.3-0.3-0.8-0.3-1.1,0c-0.3,0.3-0.3,0.7,0,1c0.3,0.3,0.8,0.3,1.1,0
								C402.1,128.6,402.1,128.2,401.8,127.9z"/>
						</g>
					</g>
				</g>
				<g id="two-soups">
					<g>
						<path style="fill:#FFFFFF;" d="M287.3,126.4c-20.5,0-52.8,4.1-52.8,4.1s1.5,14.3,5,32.5s22.4,33.8,47.9,33.8
							c25.4,0,43.3-14.7,47.8-35.2s5.1-31.3,5.1-31.3S307.8,126.4,287.3,126.4z"/>
						<path style="fill:#F2B45A;" d="M245.5,129.3c-6.6,0.7-11,1.3-11,1.3s1.5,14.3,5,32.5c1.5,8,6.2,15.6,12.9,21.5L245.5,129.3z"
							/>
						<ellipse style="fill:#F2B45A;" cx="287.3" cy="124.3" rx="52.3" ry="40"/>
						<path style="fill:#FFFFFF;" d="M235,124.3c0,11.2,6,21.4,15.7,28.6c8.8-11.9,19.1-28.6,19.1-28.6s-2.1-23.3-3.3-36.7
							C248.1,93.7,235,107.8,235,124.3z"/>
						
							<path style="fill:#D1623F;stroke:#000000;stroke-width:1.0485;stroke-linecap:round;stroke-linejoin:round;stroke-miterlimit:10;" d="
							M287.3,164.3c24,0,44.2-12.4,50.4-29.3c-1.3-20.4-23.4-36.7-50.4-36.7s-49.1,16.3-50.4,36.7
							C243,151.8,263.3,164.3,287.3,164.3z"/>
						
							<path style="fill:#FFFFFF;stroke:#000000;stroke-width:1.0485;stroke-linecap:round;stroke-linejoin:round;stroke-miterlimit:10;" d="
							M287.3,81.4c-30.6,0-55.5,19.2-55.5,42.9c0,23.6,24.9,42.9,55.5,42.9s55.5-19.2,55.5-42.9S317.9,81.4,287.3,81.4z M287.3,85.4
							c28.4,0,51.5,17.5,51.5,38.9s-23.1,38.9-51.5,38.9s-51.5-17.5-51.5-38.9S258.9,85.4,287.3,85.4z"/>
						<g>
							
								<path style="fill:#FFFFFF;stroke:#000000;stroke-width:1.0485;stroke-linecap:round;stroke-linejoin:round;stroke-miterlimit:10;" d="
								M288.9,139.2c-4.4-3.9-11.5-3.9-15.9,0s-4.4,10.2,0,14c4.4,3.9,11.5,3.9,15.9,0C293.2,149.4,293.2,143.1,288.9,139.2z
								 M286.6,151.3c-3.1,2.7-8.2,2.7-11.3,0c-3.1-2.7-3.1-7.2,0-10c3.1-2.7,8.2-2.7,11.3,0C289.7,144,289.7,148.5,286.6,151.3z"/>
							
								<path style="fill:#FFFFFF;stroke:#000000;stroke-width:1.0485;stroke-linecap:round;stroke-linejoin:round;stroke-miterlimit:10;" d="
								M292.2,136.3c-6.2-5.5-16.3-5.5-22.6,0c-6.2,5.5-6.2,14.4,0,19.9s16.3,5.5,22.6,0C298.4,150.7,298.4,141.8,292.2,136.3z
								 M289.6,153.9c-4.8,4.2-12.5,4.2-17.3,0s-4.8-11,0-15.3c4.8-4.2,12.5-4.2,17.3,0C294.4,142.8,294.4,149.7,289.6,153.9z"/>
						</g>
						<g>
							<g>
								<path style="fill:#EAD4B9;" d="M274.5,115.4L274.5,115.4L274.5,115.4C274.4,115.3,274.4,115.3,274.5,115.4z"/>
								
									<path style="fill:#FFFFFF;stroke:#000000;stroke-width:1.0485;stroke-linecap:round;stroke-linejoin:round;stroke-miterlimit:10;" d="
									M274.5,114c-0.5-0.3-6.6-3.7-17.8,2.7c-11.8,6.7-8.2,14.9-5.1,17.6c3.1,2.7,12.2,5.8,19.8-4.6
									C278.7,119.7,274.8,114.5,274.5,114z"/>
								<ellipse style="fill:#EAD4B9;" cx="259.5" cy="128.6" rx="7.7" ry="6.8"/>
							</g>
							<g>
								<path style="fill:#FDEBD3;" d="M274.5,112.2L274.5,112.2L274.5,112.2C274.4,112.1,274.4,112.1,274.5,112.2z"/>
								
									<path style="fill:#FFFFFF;stroke:#000000;stroke-width:1.0485;stroke-linecap:round;stroke-linejoin:round;stroke-miterlimit:10;" d="
									M274.5,112.2c-0.5-0.3-6.6-3.7-17.8,2.7c-11.8,6.7-8.2,14.9-5.1,17.6c3.1,2.7,12.2,5.8,19.8-4.6
									C278.7,117.9,275.4,112.8,274.5,112.2z"/>
								<ellipse style="fill:#EDB648;" cx="259.5" cy="125.4" rx="7.7" ry="6.8"/>
							</g>
						</g>
						<g>
							<polyline points="323.5,110 321.6,94.2 315.6,90.7 316.5,105.4 291.9,128.1 292.6,133 323.5,110 							"/>
							<path d="M291.9,133c0,0,12-31.7,30.3-52.1c18.3-20.5,20.7-25.5,22.9-21.2c3.7,7.6-2.9,10-16.8,27.2c-3.1,3.9-7.6,8.8-11,13.3
								c-11.6,15.5-23.2,31.5-23.2,31.5"/>
							
								<path style="fill:#FFFFFF;stroke:#000000;stroke-width:1.0485;stroke-linecap:round;stroke-linejoin:round;stroke-miterlimit:10;" d="
								M287.9,129.7c0,0,13.3-24,30.3-47.3c17.4-23.9,21.8-26.8,26.3-23.2c4.7,3.8-6.2,13-20.1,30.2S291.8,133,291.8,133"/>
						</g>
						<g>
							<g>
								<path style="fill:#93160D;" d="M316,129.7c-0.5-0.5-1.3-0.5-1.8-0.2c-0.5,0.4-0.3,1.1,0.2,1.6s1.3,0.5,1.8,0.2
									C316.7,130.8,316.5,130.1,316,129.7z"/>
								<path style="fill:#93160D;" d="M314.5,140.9c-0.7-0.6-1.7-0.7-2.3-0.2c-0.5,0.5-0.5,1.4,0.3,2c0.7,0.6,1.7,0.7,2.3,0.2
									C315.3,142.4,315.1,141.5,314.5,140.9z"/>
								<path style="fill:#93160D;" d="M316.2,134.8c-0.5-0.5-1.3-0.5-1.8-0.2c-0.5,0.4-0.3,1.1,0.2,1.6s1.3,0.5,1.8,0.2
									C316.8,136,316.7,135.3,316.2,134.8z"/>
								<path style="fill:#93160D;" d="M322.4,141.7c-0.3-0.3-0.9-0.3-1.2,0c-0.3,0.3-0.3,0.8,0,1.1s0.9,0.3,1.2,0
									S322.8,142,322.4,141.7z"/>
								<ellipse style="fill:#93160D;" cx="308.8" cy="137" rx="0.9" ry="0.7"/>
								<path style="fill:#93160D;" d="M322,134.9c-0.3-0.3-0.9-0.3-1.2,0c-0.3,0.3-0.3,0.8,0,1.1s0.9,0.3,1.2,0
									C322.3,135.7,322.3,135.1,322,134.9z"/>
								<path style="fill:#93160D;" d="M318.3,139.2c-0.3-0.3-0.9-0.3-1.2,0c-0.3,0.3-0.3,0.8,0,1.1s0.9,0.3,1.2,0
									C318.7,139.9,318.7,139.4,318.3,139.2z"/>
								<path style="fill:#93160D;" d="M318.3,143c-0.2-0.2-0.5-0.2-0.7,0s-0.2,0.5,0,0.7s0.5,0.2,0.7,0
									C318.5,143.4,318.5,143.1,318.3,143z"/>
								<path style="fill:#93160D;" d="M314.7,138.5c-0.2-0.2-0.5-0.2-0.7,0s-0.2,0.5,0,0.7s0.5,0.2,0.7,0
									C314.9,139,314.9,138.7,314.7,138.5z"/>
								<path style="fill:#93160D;" d="M322.3,138.7c-0.2-0.2-0.5-0.2-0.7,0s-0.2,0.5,0,0.7s0.5,0.2,0.7,0
									C322.6,139.2,322.6,138.9,322.3,138.7z"/>
								<path style="fill:#93160D;" d="M311.1,132.8c-0.2-0.2-0.5-0.2-0.7,0s-0.2,0.5,0,0.7s0.5,0.2,0.7,0
									C311.3,133.3,311.3,133,311.1,132.8z"/>
								<path style="fill:#93160D;" d="M319.7,131.1c-0.2-0.2-0.5-0.2-0.7,0s-0.2,0.5,0,0.7s0.5,0.2,0.7,0S319.9,131.3,319.7,131.1z
									"/>
							</g>
							<polygon style="fill:#93160D;" points="305.3,137.1 305.8,136.1 305.3,135 							"/>
							<polygon style="fill:#93160D;" points="326.5,136.1 327.1,136.8 327.1,134.9 							"/>
							<g>
								
									<ellipse style="fill:#DD6C4E;stroke:#000000;stroke-width:1.0485;stroke-linecap:round;stroke-linejoin:round;stroke-miterlimit:10;" cx="316.2" cy="134.9" rx="10.9" ry="9.6"/>
								<ellipse style="fill:#EDB648;" cx="321.8" cy="140.3" rx="0.9" ry="0.7"/>
								<path style="fill:#EDB648;" d="M309.4,134.5c-0.3-0.3-0.9-0.3-1.2,0c-0.3,0.3-0.3,0.8,0,1.1s0.9,0.3,1.2,0
									S309.8,134.8,309.4,134.5z"/>
								<ellipse style="fill:#EDB648;" cx="321.4" cy="133.4" rx="0.9" ry="0.7"/>
								<path style="fill:#EDB648;" d="M317.1,133.1c-0.3-0.3-0.9-0.3-1.2,0c-0.3,0.3-0.3,0.8,0,1.1s0.9,0.3,1.2,0
									C317.4,133.9,317.4,133.4,317.1,133.1z"/>
								<path style="fill:#FF592C;" d="M318.3,141c-0.2-0.2-0.5-0.2-0.7,0s-0.2,0.5,0,0.7s0.5,0.2,0.7,0
									C318.5,141.4,318.5,141.2,318.3,141z"/>
								<path style="fill:#FF592C;" d="M314.7,136.5c-0.2-0.2-0.5-0.2-0.7,0s-0.2,0.5,0,0.7s0.5,0.2,0.7,0
									C314.9,137,314.9,136.7,314.7,136.5z"/>
								<path style="fill:#FF592C;" d="M322.3,136.7c-0.2-0.2-0.5-0.2-0.7,0s-0.2,0.5,0,0.7s0.5,0.2,0.7,0
									C322.6,137.2,322.6,136.9,322.3,136.7z"/>
								<path style="fill:#FF592C;" d="M311.1,130.8c-0.2-0.2-0.5-0.2-0.7,0s-0.2,0.5,0,0.7s0.5,0.2,0.7,0S311.3,131,311.1,130.8z"
									/>
								<path style="fill:#FF592C;" d="M319.7,129c-0.2-0.2-0.5-0.2-0.7,0s-0.2,0.5,0,0.7s0.5,0.2,0.7,0
									C319.9,129.5,319.9,129.2,319.7,129z"/>
							</g>
						</g>
					</g>
					<g>
						<path style="fill:#FFFFFF;" d="M421,126.4c-20.5,0-52.8,4.1-52.8,4.1s1.5,14.3,5,32.5s22.4,33.8,47.9,33.8
							s43.3-14.7,47.8-35.2s5.1-31.3,5.1-31.3S441.5,126.4,421,126.4z"/>
						<path style="fill:#F2B45A;" d="M379.2,129.3c-6.6,0.7-11,1.3-11,1.3s1.5,14.3,5,32.5c1.5,8,6.2,15.6,12.9,21.5L379.2,129.3z"
							/>
						<ellipse style="fill:#F2B45A;" cx="421" cy="124.3" rx="52.3" ry="40"/>
						<path style="fill:#FFFFFF;" d="M368.8,124.3c0,11.2,6,21.4,15.7,28.6c8.8-11.9,19.1-28.6,19.1-28.6s-2.1-23.3-3.3-36.7
							C381.8,93.7,368.8,107.8,368.8,124.3z"/>
						
							<path style="fill:#708727;stroke:#000000;stroke-width:1.0485;stroke-linecap:round;stroke-linejoin:round;stroke-miterlimit:10;" d="
							M421,164.3c24,0,44.2-12.4,50.4-29.3c-1.3-20.4-23.4-36.7-50.4-36.7s-49.1,16.3-50.4,36.7C376.8,151.8,397,164.3,421,164.3z"
							/>
						
							<path style="fill:#FFFFFF;stroke:#000000;stroke-width:1.0485;stroke-linecap:round;stroke-linejoin:round;stroke-miterlimit:10;" d="
							M421,81.4c-30.6,0-55.5,19.2-55.5,42.9c0,23.6,24.9,42.9,55.5,42.9s55.5-19.2,55.5-42.9S451.6,81.4,421,81.4z M421,85.4
							c28.4,0,51.5,17.5,51.5,38.9s-23.1,38.9-51.5,38.9s-51.5-17.5-51.5-38.9S392.7,85.4,421,85.4z"/>
						<g>
							<g>
								<path style="fill:#EAD4B9;" d="M379.7,128.1L379.7,128.1L379.7,128.1C379.7,128,379.7,128,379.7,128.1z"/>
								
									<path style="fill:#FFFFFF;stroke:#000000;stroke-width:1.0485;stroke-linecap:round;stroke-linejoin:round;stroke-miterlimit:10;" d="
									M379.7,126.6c0.5-0.3,6.5-3.7,17.5,2.7c11.6,6.7,8.1,14.9,5,17.6c-3,2.7-12.1,5.8-19.5-4.6
									C375.5,132.4,379.3,127.1,379.7,126.6z"/>
								<ellipse style="fill:#EAD4B9;" cx="394.4" cy="141.3" rx="7.6" ry="6.8"/>
							</g>
							<g>
								<path style="fill:#FDEBD3;" d="M379.7,124.8L379.7,124.8L379.7,124.8L379.7,124.8z"/>
								
									<path style="fill:#FFFFFF;stroke:#000000;stroke-width:1.0485;stroke-linecap:round;stroke-linejoin:round;stroke-miterlimit:10;" d="
									M379.7,124.8c0.5-0.3,6.5-3.7,17.5,2.7c11.6,6.7,8.1,14.9,5,17.6c-3,2.7-12.1,5.8-19.5-4.6
									C375.5,130.6,378.7,125.4,379.7,124.8z"/>
								<ellipse style="fill:#EDB648;" cx="394.4" cy="138.1" rx="7.6" ry="6.8"/>
							</g>
						</g>
						<g>
							<g>
								<path style="fill:#EAD4B9;" d="M455.7,134.7L455.7,134.7L455.7,134.7C455.7,134.6,455.7,134.6,455.7,134.7z"/>
								
									<path style="fill:#FFFFFF;stroke:#000000;stroke-width:1.0485;stroke-linecap:round;stroke-linejoin:round;stroke-miterlimit:10;" d="
									M455.7,133.3c-0.5-0.3-6.5-3.7-17.5,2.7c-11.6,6.7-8.1,14.9-5,17.6c3,2.7,12.1,5.8,19.5-4.6
									C459.9,139,456.1,133.8,455.7,133.3z"/>
								<ellipse style="fill:#EAD4B9;" cx="441" cy="147.9" rx="7.6" ry="6.8"/>
							</g>
							<g>
								<path style="fill:#FDEBD3;" d="M455.7,131.5L455.7,131.5L455.7,131.5C455.7,131.4,455.7,131.4,455.7,131.5z"/>
								
									<path style="fill:#FFFFFF;stroke:#000000;stroke-width:1.0485;stroke-linecap:round;stroke-linejoin:round;stroke-miterlimit:10;" d="
									M455.7,131.5c-0.5-0.3-6.5-3.7-17.5,2.7c-11.6,6.7-8.1,14.9-5,17.6c3,2.7,12.1,5.8,19.5-4.6
									C459.9,137.2,456.6,132.1,455.7,131.5z"/>
								<ellipse style="fill:#EDB648;" cx="441" cy="144.7" rx="7.6" ry="6.8"/>
							</g>
						</g>
						<g>
							<polyline points="457.2,110 455.3,94.2 449.4,90.7 450.3,105.4 425.7,128.1 426.3,133 457.2,110 							"/>
							<path d="M425.7,133c0,0,12-31.7,30.3-52.1c18.3-20.5,20.7-25.5,22.9-21.2c3.7,7.6-2.9,10-16.8,27.2c-3.1,3.9-7.6,8.8-11,13.3
								c-11.6,15.5-23.2,31.5-23.2,31.5"/>
							
								<path style="fill:#FFFFFF;stroke:#000000;stroke-width:1.0485;stroke-linecap:round;stroke-linejoin:round;stroke-miterlimit:10;" d="
								M421.6,129.7c0,0,13.3-24,30.3-47.3c17.4-23.9,21.8-26.8,26.3-23.2c4.7,3.8-6.2,13-20.1,30.2S425.5,133,425.5,133"/>
						</g>
						
							<ellipse style="fill:#FFFFFF;stroke:#000000;stroke-width:1.0485;stroke-linecap:round;stroke-linejoin:round;stroke-miterlimit:10;" cx="410.7" cy="113.7" rx="4.3" ry="3.4"/>
						
							<ellipse style="fill:#FFFFFF;stroke:#000000;stroke-width:1.0485;stroke-linecap:round;stroke-linejoin:round;stroke-miterlimit:10;" cx="428.4" cy="104.9" rx="4.3" ry="3.4"/>
						
							<ellipse style="fill:#FFFFFF;stroke:#000000;stroke-width:1.0485;stroke-linecap:round;stroke-linejoin:round;stroke-miterlimit:10;" cx="454.8" cy="121.4" rx="4.3" ry="3.4"/>
						
							<ellipse style="fill:#FFFFFF;stroke:#000000;stroke-width:1.0485;stroke-linecap:round;stroke-linejoin:round;stroke-miterlimit:10;" cx="414.4" cy="138.3" rx="4.3" ry="3.4"/>
						
							<ellipse style="fill:#FFFFFF;stroke:#000000;stroke-width:1.0485;stroke-linecap:round;stroke-linejoin:round;stroke-miterlimit:10;" cx="417.3" cy="152.9" rx="4.3" ry="3.4"/>
						
							<ellipse style="fill:#FFFFFF;stroke:#000000;stroke-width:1.0485;stroke-linecap:round;stroke-linejoin:round;stroke-miterlimit:10;" cx="396" cy="111.8" rx="4.3" ry="3.4"/>
					</g>
				</g>
				<g id="food">
					<g>
						<path style="fill:#EA7547;stroke:#000000;stroke-linecap:round;stroke-linejoin:round;stroke-miterlimit:10;" d="M478.2,108.1
							c-2.3-2.8-5.7-4.4-9.3-4.4h-12.3c-5.7,0-10.6,4-11.7,9.5l-0.9,4.4c-3.5,0.2-6.8,1-9.6,2.6c-0.8,0.4-1.5,0.9-2.2,1.3
							c-4.2-2.7-9.5-3.9-16.2-3.9c-7,0-13,1.5-17.8,4.4c-4.3-2.9-9.8-4.4-16.8-4.4c-0.7,0-1.3,0-2,0.1c-0.1-2.6-1-5.2-2.7-7.3
							c-2.3-2.8-5.7-4.4-9.3-4.4h-25.3c-5.7,0-10.6,4-11.7,9.5v0.1c-0.2-0.3-0.4-0.6-0.6-0.9c-2.3-2.8-5.7-4.5-9.3-4.5H314
							c-3.7,0-7.2,1.7-9.5,4.6c-0.9,1.2-1.5,1.9-1.9,2.2c-0.3,0.3-0.5,0.4-0.6,0.5c-0.2,0.1-0.4,0.2-0.7,0.3
							c-0.4,0.2-1.2,0.4-2.4,0.7c-0.9,0.2-1.8,0.5-2.6,0.9c-0.9-0.3-1.9-0.6-2.9-0.9c-2.6-0.6-5.6-0.9-9.2-0.9c-0.8,0-1.6,0-2.3,0.1
							c-0.1-2.6-1-5.2-2.7-7.3c-2.3-2.8-5.7-4.4-9.3-4.4h-25.3c-5.7,0-10.6,4-11.7,9.5l-8.1,38.2c-0.8,3.5,0.1,7.2,2.4,10
							c2.3,2.8,5.7,4.4,9.3,4.4h25.3c1.5,0,2.9-0.3,4.3-0.8c0.3,0.1,0.6,0.2,1,0.3c2.1,0.6,4.2,0.9,6.3,0.9c2.4,0,4.8-0.4,7.2-1.1
							c1.2,0.4,2.5,0.6,3.8,0.6h9.7c2.1,0,4.2-0.6,6-1.6c1.8,0.8,3.7,1.4,5.7,1.7c1.5,0.2,3.1,0.3,4.7,0.3c0.7,0,1.4,0,2.3,0
							c1,0,1.9-0.1,2.9-0.2c0.6-0.1,1.2-0.1,1.7-0.1c1.4-0.1,2.6-0.3,3.7-0.6c1.8-0.5,3.4-1.4,4.7-2.7c2.2,2,5,3.1,8,3.1h13
							c4.5,0,8.6-2.5,10.6-6.4c0.4,0.4,0.8,0.7,1.1,1.1c4.4,3.9,10.5,5.8,18.5,5.8c7,0,13-1.5,17.8-4.5c4.2,3,9.8,4.5,16.8,4.5
							c6.3,0,11.7-1.2,16.3-3.6c1.1,0.8,2.2,1.4,3.5,1.9c2.5,1.1,5.3,1.6,8.3,1.6c2.5,0,4.8-0.3,6.9-0.9c0.1,0,0.2-0.1,0.3-0.1
							c1.1,0.4,2.3,0.5,3.6,0.5h9.8c5.7,0,10.6-4,11.7-9.5l8.6-40.4C481.3,114.6,480.5,110.9,478.2,108.1z"/>
						<path style="fill:#FFFFFF;" d="M244.6,117.8h25.3l-1,4.6h-12.3l-2.5,11.6h10.3l-1,4.5h-10.3l-2.8,12.9h12.3l-0.9,4.6h-25.3
							L244.6,117.8z"/>
						<path style="fill:#FFFFFF;" d="M270.8,132.4c2-1,4.1-1.7,6.3-2.2c2.1-0.5,4.5-0.7,7.2-0.7c2.6,0,4.7,0.2,6.4,0.6
							c1.7,0.4,3,1,4,1.7c1,0.8,1.7,1.7,2.1,2.7s0.6,2.2,0.6,3.6c0,0.8-0.1,1.6-0.2,2.5s-0.2,1.6-0.3,2.2l-2.8,13.2h-9.7l-1.1-3.9
							h-0.4c-1.3,1.4-2.8,2.5-4.5,3.2s-3.4,1.1-5.1,1.1c-1,0-1.9-0.1-2.8-0.4c-0.9-0.3-1.7-0.7-2.5-1.3c-0.7-0.6-1.3-1.3-1.7-2.2
							c-0.4-0.9-0.7-2-0.7-3.3c0-2.1,0.6-3.7,1.7-5c1.1-1.2,2.6-2.1,4.5-2.8c1.9-0.6,4-1,6.3-1.2s4.7-0.2,7.1-0.2
							c0.1-0.4,0.2-1,0.3-1.7c0.1-0.7,0.2-1.4,0.2-2c0-0.7-0.2-1.4-0.6-2s-1.2-0.9-2.4-0.9c-1.4,0-2.4,0.4-3.1,1.2s-1.1,1.8-1.3,3
							h-8.8L270.8,132.4z M284.6,143h-1.1c-1.2,0-2.2,0.2-3,0.5s-1.5,0.7-2,1.2s-0.9,1-1.1,1.6s-0.4,1.2-0.4,1.8
							c0,1,0.3,1.7,0.8,2.2s1.1,0.7,1.8,0.7c0.8,0,1.7-0.3,2.5-0.9c0.8-0.6,1.3-1.4,1.5-2.4L284.6,143z"/>
						<path style="fill:#FFFFFF;" d="M301.5,130.2c1.5-0.3,2.8-0.7,3.9-1.1c1.1-0.4,2.2-0.9,3.1-1.5c0.9-0.6,1.8-1.3,2.7-2.2
							c0.9-0.9,1.8-2,2.8-3.3h6.2l-1.7,8.1h4.7l-0.8,4h-4.8l-2.5,11.7c-0.2,0.9-0.4,1.7-0.5,2.5c-0.1,0.7-0.2,1.3-0.2,1.7
							c0,0.8,0.3,1.3,0.9,1.5s1.7,0.3,3.3,0.3l-0.9,4.2c-0.3,0.1-0.7,0.1-1.3,0.2c-0.6,0-1.2,0.1-1.9,0.2c-0.7,0.1-1.4,0.1-2.2,0.1
							c-0.7,0-1.4,0-2,0c-1,0-2-0.1-2.9-0.2c-1-0.1-1.8-0.4-2.6-0.8c-0.8-0.4-1.4-1-1.8-1.8c-0.5-0.8-0.7-1.9-0.7-3.3
							c0-0.5,0-1.1,0.1-1.8s0.2-1.5,0.4-2.4l2.5-12h-4.7L301.5,130.2z"/>
						<path style="fill:#FFFFFF;" d="M341.9,117.8h25.3l-1,4.6h-12.3l-2.3,11h10.3l-1,4.6h-10.3l-3.9,18h-13L341.9,117.8z"/>
						<path style="fill:#FFFFFF;" d="M381.2,129.5c4.8,0,8.2,0.8,10.4,2.5c2.3,1.8,3.4,4.7,3.4,8.8c0,2.5-0.4,4.8-1.3,6.8
							c-0.8,2-2,3.7-3.6,5c-3,2.6-7.5,3.9-13.2,3.9c-4.9,0-8.5-0.9-10.6-2.8c-2.3-2-3.4-4.9-3.4-8.8c0-2.6,0.5-5,1.6-7.1
							s2.6-3.9,4.6-5.3C372.1,130.5,376.1,129.5,381.2,129.5z M377.1,152.4c1,0,1.9-0.6,2.6-1.7c0.7-1.1,1.3-2.5,1.8-4.1
							c0.4-1.6,0.8-3.3,1-5.1c0.2-1.7,0.3-3.3,0.3-4.5c0-1.1-0.1-2-0.3-2.6c-0.2-0.6-0.7-0.9-1.4-0.9c-1.1,0-2,0.6-2.8,1.7
							c-0.8,1.2-1.4,2.5-1.9,4.2c-0.5,1.6-0.8,3.3-1.1,4.9c-0.2,1.7-0.3,3-0.3,4.1C375,151.1,375.7,152.4,377.1,152.4z"/>
						<path style="fill:#FFFFFF;" d="M415.8,129.5c4.8,0,8.2,0.8,10.4,2.5c2.3,1.8,3.4,4.7,3.4,8.8c0,2.5-0.4,4.8-1.3,6.8
							c-0.8,2-2,3.7-3.6,5c-3,2.6-7.5,3.9-13.2,3.9c-4.9,0-8.5-0.9-10.6-2.8c-2.3-2-3.4-4.9-3.4-8.8c0-2.6,0.5-5,1.6-7.1
							s2.6-3.9,4.6-5.3C406.7,130.5,410.7,129.5,415.8,129.5z M411.7,152.4c1,0,1.9-0.6,2.6-1.7c0.7-1.1,1.3-2.5,1.8-4.1
							c0.4-1.6,0.8-3.3,1-5.1c0.2-1.7,0.3-3.3,0.3-4.5c0-1.1-0.1-2-0.3-2.6c-0.2-0.6-0.7-0.9-1.4-0.9c-1.1,0-2,0.6-2.8,1.7
							c-0.8,1.2-1.4,2.5-1.9,4.2c-0.5,1.6-0.8,3.3-1.1,4.9c-0.2,1.7-0.3,3-0.3,4.1C409.6,151.1,410.3,152.4,411.7,152.4z"/>
						<path style="fill:#FFFFFF;" d="M456.5,115.6h12.3l-8.6,40.4h-9.8l-1.1-3.9H449c-0.2,0.4-0.6,0.8-1.1,1.3s-1.1,1-1.9,1.4
							c-0.8,0.5-1.7,0.8-2.7,1.1s-2.2,0.5-3.6,0.5s-2.6-0.2-3.6-0.6c-1-0.4-1.8-1-2.4-1.7s-1.1-1.6-1.4-2.6s-0.4-2.1-0.4-3.3
							c0-0.5,0-1.4,0.1-2.5s0.3-2.4,0.6-3.8c0.3-1.4,0.7-2.8,1.3-4.3c0.6-1.5,1.4-2.8,2.3-4c1-1.2,2.2-2.2,3.6-3s3.2-1.2,5.2-1.2
							c0.6,0,1.3,0.1,2,0.2c0.7,0.1,1.4,0.3,2.1,0.7c0.7,0.3,1.3,0.8,1.8,1.4c0.5,0.6,0.9,1.4,1.1,2.3h0.4L456.5,115.6z
							 M449.2,135.4c-1,0-1.8,0.5-2.4,1.6s-1.2,2.3-1.6,3.7s-0.7,2.8-0.9,4.2c-0.2,1.4-0.3,2.4-0.3,3.1c0,0.8,0.1,1.5,0.4,2
							c0.2,0.5,0.7,0.8,1.4,0.8c0.4,0,0.8-0.1,1.2-0.3c0.4-0.2,0.7-0.4,1.1-0.7c0.3-0.3,0.6-0.5,0.9-0.8c0.2-0.3,0.4-0.5,0.6-0.7
							l2.3-11c-0.3-0.4-0.7-0.9-1.1-1.4C450.3,135.6,449.8,135.4,449.2,135.4z"/>
					</g>
				</g>
				<g id="good">
					<path style="fill:#EA7547;stroke:#000000;stroke-linecap:round;stroke-linejoin:round;stroke-miterlimit:10;" d="M463.1,130.2
						c-2.6-3.2-6.4-5-10.5-5h-12.3c-6.4,0-11.9,4.5-13.2,10.7l-0.7,3.3c-3.3,0.3-6.4,1.2-9.1,2.7c-0.5,0.3-1,0.6-1.5,0.9
						c-4.3-2.5-9.6-3.7-16.2-3.7c-6.9,0-12.8,1.4-17.7,4.1c-4.4-2.8-9.9-4.1-16.9-4.1c-1.9,0-3.8,0.1-5.5,0.3
						c-0.9-2.7-2.7-5.1-5-6.8c2.1,0.3,4.3,0.5,6.7,0.5c6.2,0,11.6-1.1,16.2-3.3c0.9,0.6,1.9,1.2,3,1.6c2.7,1.1,5.7,1.7,8.9,1.7
						c2.6,0,5-0.3,7.3-1c1.1,0.3,2.3,0.5,3.6,0.5h9.8c6.4,0,11.9-4.5,13.2-10.7l8.6-40.4c0.8-4-0.1-8.1-2.7-11.3
						c-2.6-3.2-6.4-5-10.5-5H406c-6.4,0-11.9,4.5-13.2,10.7l-0.7,3.3c-3.3,0.3-6.4,1.2-9.1,2.7c-0.5,0.3-1,0.6-1.5,0.9
						c-4.3-2.5-9.6-3.7-16.2-3.7c-6.9,0-12.8,1.4-17.7,4.1c-4.4-2.8-9.9-4.1-16.9-4.1c-0.2,0-0.4,0-0.6,0c-0.3-2.4-1.3-4.8-2.9-6.7
						c-2.6-3.2-6.4-5-10.5-5h-25.3c-6.4,0-11.9,4.5-13.2,10.7l-8.1,38.2c-0.8,4,0.2,8.1,2.7,11.3c2.6,3.2,6.4,5,10.5,5h13
						c4.4,0,8.4-2.2,10.9-5.5c2,1.8,4.4,3.1,7.1,4.1c-3.5,1.9-6.5,4.2-9,7.1c-1.4,1.6-2.7,3.3-3.8,5.1c-0.3-0.2-0.7-0.4-1-0.6
						c-2.4-1.2-5.1-2.1-8.3-2.8c-3.8-0.8-7.8-1-11.9-0.8c-1.2-3.4-3.3-6.3-6.3-8.4c-3.3-2.4-7.4-3.6-11.7-3.6
						c-2.2,0-4.3,0.3-6.4,0.9c-2.4,0.7-4.5,1.8-6.4,3.2c-2.3,1.7-4.1,3.9-5.4,6.4c-1.3,2.6-2,5.5-2,8.5c0,0.2,0,0.5,0,0.7
						c-0.6,1.1-1,2.3-1.3,3.5l-5.5,25.9c-0.8,4,0.2,8.1,2.7,11.3c2.6,3.2,6.4,5,10.5,5h12.2c1.7,0,3.4-0.3,4.9-0.9
						c0.5,0.1,1,0.2,1.5,0.4c3.1,0.7,6.8,1.1,11,1.1c2.8,0,5.5-0.2,8-0.6c3.3-0.5,6.3-1.4,9-2.8c3-1.5,5.5-3.5,7.5-6.1
						c0.5,0.6,1.1,1.2,1.6,1.8c2.7,2.7,5.8,4.7,9.3,5.9c3.1,1.1,6.3,1.7,9.6,1.7c2.6,0,5-0.3,7.2-0.9c1.1,0.3,2.3,0.4,3.5,0.4h7.1
						c2.4,0,4.7-0.7,6.7-1.8c3.7,1.5,8.1,2.3,13.2,2.3c6.9,0,12.9-1.4,17.8-4.2c4.4,2.8,9.9,4.2,16.8,4.2c6.2,0,11.6-1.1,16.2-3.3
						c0.9,0.6,1.9,1.2,3,1.6c2.7,1.1,5.7,1.7,8.9,1.7c2.6,0,5-0.3,7.3-1c1.1,0.3,2.3,0.5,3.6,0.5h9.8c6.4,0,11.9-4.5,13.2-10.7
						l8.6-40.4C466.7,137.6,465.7,133.4,463.1,130.2z"/>
					<path style="fill:#FFFFFF;" d="M291.4,81h25.3l-1,4.6h-12.3l-2.3,11h10.3l-1,4.6h-10.3l-3.9,18h-13L291.4,81z"/>
					<path style="fill:#FFFFFF;" d="M330.7,92.6c4.8,0,8.2,0.8,10.4,2.5c2.3,1.8,3.4,4.7,3.4,8.8c0,2.5-0.4,4.8-1.3,6.8
						c-0.8,2-2,3.7-3.6,5c-3,2.6-7.5,3.9-13.2,3.9c-4.9,0-8.5-0.9-10.6-2.8c-2.3-2-3.4-4.9-3.4-8.8c0-2.6,0.5-5,1.6-7.1
						s2.6-3.9,4.6-5.3C321.6,93.6,325.6,92.6,330.7,92.6z M326.6,115.6c1,0,1.9-0.6,2.6-1.7s1.3-2.5,1.8-4.1c0.4-1.6,0.8-3.3,1-5.1
						c0.2-1.7,0.3-3.3,0.3-4.5c0-1.1-0.1-2-0.3-2.6c-0.2-0.6-0.7-0.9-1.4-0.9c-1.1,0-2,0.6-2.8,1.7c-0.8,1.2-1.4,2.5-1.9,4.2
						c-0.5,1.6-0.8,3.3-1.1,4.9c-0.2,1.7-0.3,3-0.3,4.1C324.5,114.3,325.2,115.6,326.6,115.6z"/>
					<path style="fill:#FFFFFF;" d="M365.3,92.6c4.8,0,8.2,0.8,10.4,2.5c2.3,1.8,3.4,4.7,3.4,8.8c0,2.5-0.4,4.8-1.3,6.8
						c-0.8,2-2,3.7-3.6,5c-3,2.6-7.5,3.9-13.2,3.9c-4.9,0-8.5-0.9-10.6-2.8c-2.3-2-3.4-4.9-3.4-8.8c0-2.6,0.5-5,1.6-7.1
						s2.6-3.9,4.6-5.3C356.2,93.6,360.2,92.6,365.3,92.6z M361.2,115.6c1,0,1.9-0.6,2.6-1.7s1.3-2.5,1.8-4.1c0.4-1.6,0.8-3.3,1-5.1
						c0.2-1.7,0.3-3.3,0.3-4.5c0-1.1-0.1-2-0.3-2.6c-0.2-0.6-0.7-0.9-1.4-0.9c-1.1,0-2,0.6-2.8,1.7c-0.8,1.2-1.4,2.5-1.9,4.2
						c-0.5,1.6-0.8,3.3-1.1,4.9c-0.2,1.7-0.3,3-0.3,4.1C359.1,114.3,359.8,115.6,361.2,115.6z"/>
					<path style="fill:#FFFFFF;" d="M406,78.7h12.3l-8.6,40.4H400l-1.1-3.9h-0.4c-0.2,0.4-0.6,0.8-1.1,1.3s-1.1,1-1.9,1.4
						c-0.8,0.5-1.7,0.8-2.7,1.1c-1,0.3-2.2,0.5-3.6,0.5s-2.6-0.2-3.6-0.6s-1.8-1-2.4-1.7s-1.1-1.6-1.4-2.6s-0.4-2.1-0.4-3.3
						c0-0.5,0-1.4,0.1-2.5s0.3-2.4,0.6-3.8c0.3-1.4,0.7-2.8,1.3-4.3c0.6-1.5,1.4-2.8,2.3-4c1-1.2,2.2-2.2,3.6-3s3.2-1.2,5.2-1.2
						c0.6,0,1.3,0.1,2,0.2s1.4,0.3,2.1,0.7c0.7,0.3,1.3,0.8,1.8,1.4s0.9,1.4,1.1,2.3h0.4L406,78.7z M398.7,98.5
						c-1,0-1.8,0.5-2.4,1.6s-1.2,2.3-1.6,3.7c-0.4,1.4-0.7,2.8-0.9,4.2c-0.2,1.4-0.3,2.4-0.3,3.1c0,0.8,0.1,1.5,0.4,2
						c0.2,0.5,0.7,0.8,1.4,0.8c0.4,0,0.8-0.1,1.2-0.3c0.4-0.2,0.7-0.4,1.1-0.7c0.3-0.3,0.6-0.5,0.9-0.8c0.2-0.3,0.4-0.5,0.6-0.7
						l2.3-11c-0.3-0.4-0.7-0.9-1.1-1.4C399.8,98.8,399.3,98.5,398.7,98.5z"/>
					<path style="fill:#FFFFFF;" d="M260.6,179.2h-12.2l5.5-25.9h12.3L260.6,179.2z M267.7,145.4c0,0.9-0.2,1.7-0.6,2.4
						s-0.9,1.3-1.5,1.7c-0.6,0.5-1.3,0.8-2.1,1.1c-0.8,0.2-1.6,0.4-2.5,0.4c-1.6,0-2.9-0.4-4-1.1c-1.1-0.8-1.6-2-1.6-3.6
						c0-0.9,0.2-1.7,0.5-2.4c0.4-0.7,0.9-1.3,1.5-1.7c0.6-0.5,1.3-0.8,2.2-1.1c0.8-0.2,1.7-0.4,2.6-0.4c1.6,0,2.9,0.4,4,1.1
						C267.2,142.6,267.7,143.8,267.7,145.4z"/>
					<path style="fill:#FFFFFF;" d="M285.1,160.9c0-0.2,0.1-0.4,0.1-0.6c0-0.2,0.1-0.4,0.1-0.7c0-0.7-0.1-1.4-0.4-2
						s-0.8-0.9-1.5-0.9s-1.4,0.3-2,0.9c-0.7,0.6-1,1.4-1,2.3c0,0.6,0.2,1.2,0.5,1.5c0.3,0.4,0.8,0.7,1.4,0.9s1.2,0.4,1.9,0.6
						c0.7,0.2,1.4,0.3,2.1,0.5c1,0.2,1.9,0.5,2.7,0.9c0.9,0.3,1.6,0.8,2.3,1.4c0.7,0.6,1.2,1.3,1.6,2.1s0.6,1.8,0.6,3
						c0,1.7-0.4,3.1-1.2,4.2c-0.8,1.1-1.9,2.1-3.3,2.8s-3,1.2-4.9,1.5s-3.9,0.4-6,0.4c-3.3,0-5.9-0.2-8.1-0.7
						c-2.1-0.5-3.6-0.9-4.5-1.4l1.3-6h8.1c0,0.2-0.1,0.4-0.1,0.6s0,0.4,0,0.6c0,0.9,0.2,1.7,0.6,2.2s1.2,0.8,2.2,0.8
						c1.2,0,2-0.3,2.5-1s0.8-1.3,0.8-1.8c0-0.6-0.2-1.1-0.6-1.5s-1-0.8-1.6-1.1s-1.4-0.6-2.1-0.8c-0.8-0.2-1.5-0.4-2.3-0.6
						c-0.5-0.1-1.1-0.3-1.8-0.6c-0.7-0.3-1.3-0.7-1.9-1.2s-1.1-1.2-1.5-2s-0.6-1.9-0.6-3.1c0-1.8,0.4-3.2,1.3-4.4s2-2.1,3.4-2.9
						c1.4-0.7,2.9-1.2,4.7-1.6c1.7-0.3,3.5-0.5,5.3-0.5c2.2,0,4.3,0.2,6.3,0.6c2,0.4,3.6,0.9,4.8,1.6l-1.4,6.1h-7.8V160.9z"/>
					<path style="fill:#FFFFFF;" d="M328.8,161.7h15.6l-3.5,17.5h-7.1l-1.1-3.9h-0.2c-1,1.2-2.3,2.2-3.7,3.1
						c-1.4,0.8-3.3,1.3-5.6,1.3c-1.8,0-3.5-0.3-5.1-0.9c-1.6-0.6-3.1-1.5-4.3-2.8c-1.3-1.3-2.3-2.9-3-5c-0.8-2-1.1-4.5-1.1-7.4
						c0-3.1,0.5-6.1,1.4-8.9c1-2.8,2.4-5.3,4.3-7.4c1.9-2.1,4.3-3.8,7.2-5.1c2.9-1.2,6.3-1.9,10.1-1.9c3,0,5.6,0.3,7.8,1
						c2.2,0.7,4.3,1.4,6.3,2.3l-2.3,11.7h-10.2c0-0.4,0.1-1,0.2-1.6s0.1-1.2,0.2-1.9c0-0.7,0.1-1.3,0.1-2c0-0.6,0.1-1.2,0.1-1.7
						c0-0.3,0-0.7-0.1-1.1c0-0.4-0.1-0.8-0.3-1.2c-0.2-0.4-0.4-0.7-0.7-1c-0.3-0.3-0.8-0.4-1.4-0.4c-1,0-2,0.4-2.9,1.3
						c-0.9,0.9-1.6,2-2.3,3.4c-0.7,1.4-1.3,3-1.8,4.8s-0.9,3.6-1.3,5.5c-0.3,1.9-0.6,3.7-0.8,5.5c-0.2,1.8-0.3,3.3-0.3,4.7
						c0,0.4,0,0.9,0.1,1.5c0,0.6,0.2,1.2,0.4,1.8c0.2,0.6,0.5,1.1,1,1.5c0.4,0.4,1,0.6,1.8,0.6c1.3,0,2.6-0.7,3.9-2.2
						c1.2-1.4,2.2-3.9,2.8-7.2h-5.1L328.8,161.7z"/>
					<path style="fill:#FFFFFF;" d="M365,152.6c4.8,0,8.2,0.8,10.4,2.5c2.3,1.8,3.4,4.7,3.4,8.8c0,2.5-0.4,4.8-1.3,6.8
						c-0.8,2-2,3.7-3.6,5c-3,2.6-7.5,3.9-13.2,3.9c-4.9,0-8.5-0.9-10.6-2.8c-2.3-2-3.4-4.9-3.4-8.8c0-2.6,0.5-5,1.6-7.1
						s2.6-3.9,4.6-5.3C355.9,153.6,359.9,152.6,365,152.6z M360.9,175.6c1,0,1.9-0.6,2.6-1.7c0.7-1.1,1.3-2.5,1.8-4.1
						c0.4-1.6,0.8-3.3,1-5.1c0.2-1.7,0.3-3.3,0.3-4.5c0-1.1-0.1-2-0.3-2.6c-0.2-0.6-0.7-0.9-1.4-0.9c-1.1,0-2,0.6-2.8,1.7
						c-0.8,1.2-1.4,2.5-1.9,4.2c-0.5,1.6-0.8,3.3-1.1,4.9c-0.2,1.7-0.3,3-0.3,4.1C358.8,174.3,359.5,175.6,360.9,175.6z"/>
					<path style="fill:#FFFFFF;" d="M399.6,152.6c4.8,0,8.2,0.8,10.4,2.5c2.3,1.8,3.4,4.7,3.4,8.8c0,2.5-0.4,4.8-1.3,6.8
						c-0.8,2-2,3.7-3.6,5c-3,2.6-7.5,3.9-13.2,3.9c-4.9,0-8.5-0.9-10.6-2.8c-2.3-2-3.4-4.9-3.4-8.8c0-2.6,0.5-5,1.6-7.1
						s2.6-3.9,4.6-5.3C390.5,153.6,394.5,152.6,399.6,152.6z M395.5,175.6c1,0,1.9-0.6,2.6-1.7c0.7-1.1,1.3-2.5,1.8-4.1
						c0.4-1.6,0.8-3.3,1-5.1c0.2-1.7,0.3-3.3,0.3-4.5c0-1.1-0.1-2-0.3-2.6c-0.2-0.6-0.7-0.9-1.4-0.9c-1.1,0-2,0.6-2.8,1.7
						c-0.8,1.2-1.4,2.5-1.9,4.2c-0.5,1.6-0.8,3.3-1.1,4.9c-0.2,1.7-0.3,3-0.3,4.1C393.4,174.3,394.1,175.6,395.5,175.6z"/>
					<path style="fill:#FFFFFF;" d="M440.3,138.7h12.3l-8.6,40.4h-9.8l-1.1-3.9h-0.4c-0.2,0.4-0.6,0.8-1.1,1.3s-1.1,1-1.9,1.4
						c-0.8,0.5-1.7,0.8-2.7,1.1s-2.2,0.5-3.6,0.5s-2.6-0.2-3.6-0.6c-1-0.4-1.8-1-2.4-1.7s-1.1-1.6-1.4-2.6s-0.4-2.1-0.4-3.3
						c0-0.5,0-1.4,0.1-2.5s0.3-2.4,0.6-3.8c0.3-1.4,0.7-2.8,1.3-4.3c0.6-1.5,1.4-2.8,2.3-4c1-1.2,2.2-2.2,3.6-3s3.2-1.2,5.2-1.2
						c0.6,0,1.3,0.1,2,0.2c0.7,0.1,1.4,0.3,2.1,0.7c0.7,0.3,1.3,0.8,1.8,1.4c0.5,0.6,0.9,1.4,1.1,2.3h0.4L440.3,138.7z M433,158.5
						c-1,0-1.8,0.5-2.4,1.6s-1.2,2.3-1.6,3.7s-0.7,2.8-0.9,4.2c-0.2,1.4-0.3,2.4-0.3,3.1c0,0.8,0.1,1.5,0.4,2
						c0.2,0.5,0.7,0.8,1.4,0.8c0.4,0,0.8-0.1,1.2-0.3c0.4-0.2,0.7-0.4,1.1-0.7c0.3-0.3,0.6-0.5,0.9-0.8c0.2-0.3,0.4-0.5,0.6-0.7
						l2.3-11c-0.3-0.4-0.7-0.9-1.1-1.4C434.1,158.8,433.6,158.5,433,158.5z"/>
				</g>
			</g>
		</g>
	</g>
	<path id="frame" style="fill:#5C6864;" d="M500.3,253.8h-295c-0.8,0-1.5-0.7-1.5-1.5V12.5c0-0.8,0.7-1.5,1.5-1.5h295
		c0.8,0,1.5,0.7,1.5,1.5v239.8C501.8,253.1,501.1,253.8,500.3,253.8z M206.8,250.8h292V14h-292L206.8,250.8L206.8,250.8z"/>
</g>
</svg>
