<svg version="1.1" viewBox="0 0 1689 724.7" xmlns="http://www.w3.org/2000/svg" xmlns:xlink="http://www.w3.org/1999/xlink" xml:space="preserve">
			<g>
			<g>
				<g>
					<g>
						<path d="M696.1,136c9.3,32.4,18.8,64.7,28.5,97c9.8,32.3,19.8,64.4,30.1,96.5c10.2,32,20.7,63.8,31.5,95.6
							c8.5,25.1,16.9,50.3,29.3,73.8c11.4,21.7,26.6,42,47.4,55.4c2.6,1.7,5.2,3.2,8,4.7c1.7,0.9,3.2-1.7,1.5-2.6
							c-22-11.7-38.3-30.8-50.5-52.2c-12.8-22.3-21.4-46.6-29.7-70.9c-10.7-31.5-21.2-63.1-31.4-94.8c-10.2-31.8-20.2-63.7-30-95.7
							c-9.7-31.8-19.2-63.8-28.4-95.7c-1.2-4-2.3-8-3.4-12C698.5,133.4,695.6,134.2,696.1,136L696.1,136z"/>
					</g>
				</g>
				<g>
					<g>

							<rect x="599.6" y="202.7" style="fill:#C8CECC;stroke:#000000;stroke-linecap:round;stroke-linejoin:round;stroke-miterlimit:10;" width="145.1" height="521.5"/>

						<rect x="668.2" y="202.7" style="fill:#FFFFFF;stroke:#000000;stroke-linecap:round;stroke-linejoin:round;stroke-miterlimit:10;" width="76.5" height="521.5"/>

						<rect x="606.6" y="202.7" style="fill:#5F6864;stroke:#000000;stroke-linecap:round;stroke-linejoin:round;stroke-miterlimit:10;" width="9.3" height="521.5"/>

						<rect x="727.2" y="202.3" style="fill:#C8CECC;stroke:#000000;stroke-linecap:round;stroke-linejoin:round;stroke-miterlimit:10;" width="10.3" height="521.5"/>

						<rect x="626.6" y="202.7" style="fill:#89938F;stroke:#000000;stroke-linecap:round;stroke-linejoin:round;stroke-miterlimit:10;" width="16.3" height="521.5"/>

						<rect x="699.2" y="202.7" style="fill:#C8CECC;stroke:#000000;stroke-linecap:round;stroke-linejoin:round;stroke-miterlimit:10;" width="16.3" height="521.5"/>

						<rect x="658.6" y="202.7" style="fill:#A7AFAC;stroke:#000000;stroke-linecap:round;stroke-linejoin:round;stroke-miterlimit:10;" width="22.3" height="521.5"/>
					</g>
					<g>
						<g>

								<rect x="575" y="171.6" style="fill:#A8B2AF;stroke:#000000;stroke-linecap:round;stroke-linejoin:round;stroke-miterlimit:10;" width="93.3" height="43.2"/>

							<rect x="668.4" y="171.6" style="fill:#FFFFFF;stroke:#000000;stroke-linecap:round;stroke-linejoin:round;stroke-miterlimit:10;" width="98.5" height="43.2"/>
						</g>
						<g>

								<rect x="544.1" y="156.4" style="fill:#A8B2AF;stroke:#000000;stroke-linecap:round;stroke-linejoin:round;stroke-miterlimit:10;" width="124.4" height="17.6"/>

							<rect x="668.5" y="156.4" style="fill:#FFFFFF;stroke:#000000;stroke-linecap:round;stroke-linejoin:round;stroke-miterlimit:10;" width="131.2" height="17.6"/>
						</g>
					</g>
				</g>
				<g>
					<path style="fill:#F2B45A;stroke:#000000;stroke-miterlimit:10;" d="M659.4,43.7c46.8-2.1,88.3,11.5,99.1,23.6s9.4,20.4,7.6,27.8
						c-0.9,3.9-2.3,7.8-3.5,10.7c-1,2.5-3.7,3.9-6.3,3.2l-13.1-3.2c-1.7-0.4-3.2-1.7-3.8-3.3c-3.2-8.4-15.3-34.4-43.3-36.6
						c-33.5-2.7-71.1,2.6-76.8,7.1c-5.6,4.4-7.3,19.4-9,26.7c-1.7,7.2-7.7,11-21.7,13.5s-19.5,2.5-23.7,2.5s-4.5-3.2-5.9-8.4
						c-1.4-5.2-12-24.8,5.9-38.5C583.5,54.5,605.9,46.1,659.4,43.7z"/>
					<g>
						<path style="fill:#EA7547;stroke:#000000;stroke-linecap:round;stroke-linejoin:round;stroke-miterlimit:10;" d="M587.4,113.3
							c0,0-3.5,32.9-2.9,42.1h178.3c0,0,0-24.3,0-31.8s-44.1-50.2-49.3-53.9c-5.3-3.7-36-5.2-54.8-5.2s-37.3,5-41.5,10.5
							c-4.1,5.5-4.5,30.5-8.4,34.5C604.9,113.6,587.4,113.3,587.4,113.3z"/>
						<path style="fill:#D1623F;stroke:#000000;stroke-linecap:round;stroke-linejoin:round;stroke-miterlimit:10;" d="M641,123.3
							l-12-45.1l2.3-9.6c-7.1,1.9-12.5,4.2-14.2,6.4c-4.1,5.5-7,27.5-10.9,31.6c-3.9,4-18.9,6.7-18.9,6.7s-3.5,32.9-2.9,42.1H641
							V123.3z"/>

						<line style="fill:none;stroke:#000000;stroke-linecap:round;stroke-linejoin:round;stroke-miterlimit:10;" x1="647.6" y1="122.5" x2="743.5" y2="122.5"/>
					</g>
					<path style="fill:#FFDDB0;stroke:#000000;stroke-linecap:round;stroke-linejoin:round;stroke-miterlimit:10;" d="M680,72.5
						c-19.6,0-32.4,8.9-28.5,19.8c3.8,10.9,22.8,19.8,42.4,19.8c19.6,0,32.4-8.9,28.5-19.8C718.5,81.3,699.5,72.5,680,72.5z
						 M659.3,85.5c2.3,0,4.6,1,5,2.3c0.5,1.3-1.1,2.3-3.4,2.3c-2.3,0-4.6-1-5-2.3C655.5,86.5,657,85.5,659.3,85.5z M657.7,95.2
						c-0.5-1.3,1.1-2.4,3.5-2.4s4.7,1.1,5.2,2.4s-1.1,2.4-3.5,2.4S658.2,96.5,657.7,95.2z M671.2,104.5c-2.4,0-4.7-1.1-5.2-2.4
						s1.1-2.4,3.5-2.4s4.7,1.1,5.2,2.4S673.6,104.5,671.2,104.5z M665.5,83.5c-2.3,0-4.4-1-4.9-2.3c-0.4-1.3,1-2.3,3.3-2.3
						s4.4,1,4.9,2.3C669.2,82.5,667.7,83.5,665.5,83.5z M685.1,109.2c-2.5,0-5-1.1-5.5-2.5s1.1-2.5,3.7-2.5c2.5,0,5,1.1,5.5,2.5
						C689.2,108,687.6,109.2,685.1,109.2z M676.2,79.7c-2.2,0-4.3-1-4.8-2.2c-0.4-1.2,1-2.2,3.2-2.2s4.3,1,4.8,2.2
						C679.8,78.7,678.4,79.7,676.2,79.7z M700,109.2c-2.5,0-5-1.1-5.5-2.5s1.1-2.5,3.7-2.5s5,1.1,5.5,2.5
						C704.2,108,702.5,109.2,700,109.2z M690.2,79.7c-2.2,0-4.3-1-4.8-2.2c-0.4-1.2,1-2.2,3.2-2.2s4.3,1,4.8,2.2
						C693.8,78.7,692.4,79.7,690.2,79.7z M710.3,105.1c-2.5,0-4.9-1.1-5.4-2.5s1.1-2.5,3.6-2.5s4.9,1.1,5.4,2.5
						C714.4,104,712.7,105.1,710.3,105.1z M714.8,98.5c-2.4,0-4.7-1.1-5.2-2.4s1.1-2.4,3.5-2.4s4.7,1.1,5.2,2.4
						C718.7,97.5,717.2,98.5,714.8,98.5z"/>

					<line style="fill:none;stroke:#000000;stroke-linecap:round;stroke-linejoin:round;stroke-miterlimit:10;" x1="557.9" y1="103.7" x2="610.3" y2="92.3"/>

					<line style="fill:none;stroke:#000000;stroke-linecap:round;stroke-linejoin:round;stroke-miterlimit:10;" x1="732.7" y1="86.9" x2="766.2" y2="95.1"/>
				</g>
				<g>
					<path style="fill:#F2B45A;stroke:#000000;stroke-miterlimit:10;" d="M541.6,90.8l14.2-2.6c0,0,1.8,0.2,2.7,3.7s-1.2,4.7-1.2,4.7
						l-13.5,1.8"/>

					<ellipse transform="matrix(0.9837 -0.1797 0.1797 0.9837 -8.2036 98.9932)" style="fill:#F2B45A;stroke:#000000;stroke-width:1;stroke-miterlimit:9.9998;" cx="542.3" cy="94.8" rx="2.2" ry="4.1"/>
				</g>
				<g>
					<g>
						<path d="M541.9,93.4c-3.7,0.7-7.1,2.9-9.9,5.3c-2.7,2.2-5.5,5.2-6.5,8.6c-0.9,3.4,1,6,4.3,6.9c5.8,1.6,11.8-0.8,16.8-3.5
							c1.3-0.7,2.6-1.5,3.9-2.3c1.4-0.8,2.9-1.6,4.2-2.6c1-0.8,1.7-1.9,1.4-3.2c-0.4-1.4-1.9-1.9-3.2-2c-3.3-0.3-6.5,1-9.4,2.4
							c-2.8,1.5-5.5,3.3-7.5,5.9c-1.8,2.3-3,5.2-3,8.1c0.1,2.9,1.8,5.1,4.7,5.6c2.8,0.5,5.7-0.4,8.3-1.5c2.9-1.2,5.8-2.8,8.1-5
							c0.9-0.8,1.8-1.9,2.2-3.1c0.4-1.4-0.5-2.6-1.8-2.9s-2.7,0.2-4,0.7c-1.5,0.5-2.9,1.1-4.3,1.8c-2.7,1.4-5.4,3.2-7.3,5.6
							c-1.6,2-2.9,5.2-1.4,7.7c1.6,2.6,5.7,2.3,8.3,2.4c3.4,0.1,6.8-0.2,10.2-0.7c1.7-0.3,3.4-0.6,5-1c1.3-0.3,3-0.8,3-2.5
							c0.1-3.1-4.1-3.2-6.1-2.6c-5.3,1.5-11.5,5.8-11.4,11.9c0,3.7,3.7,3.8,6.5,3.9c3.5,0.1,6.8-0.4,10.2-0.9c1.8-0.3,4.4-0.2,5.5-2
							c1.3-2.2-1-3.7-2.9-3.8c-2.3-0.2-4.8,0.7-6.8,1.7c-2.1,1-4.4,2.5-5.4,4.7c-1.3,2.7,0,5.3,2.9,5.8c3.3,0.6,6.8,0.4,10-0.1
							c1.6-0.2,3.2-0.6,4.7-1.1c1-0.3,2.3-0.5,3.2-1.1c1-0.7,1.2-1.8,0.9-2.8c-0.5-1.3-1.8-1.4-3-1.3c-2.4,0.2-4.6,1.6-6.5,3
							c-2.2,1.6-4.3,3.7-5.7,6.1c-1.5,2.7-0.4,5.5,2.8,5.7c3.1,0.2,6.4-0.3,9.4-0.8c3.1-0.5,6.2-1.5,9-2.9c1.5-0.8,0.5-3.3-1.2-2.7
							c-3.2,1.1-6.5,2.5-9.1,4.6c-1.5,1.2-3.8,4-1.8,5.8c1.6,1.5,4.8,1,6.8,0.9c2.8-0.3,5.6-0.7,8.3-1.4c1.9-0.5,1.1-3.4-0.8-2.9
							c-2.1,0.5-4.2,0.9-6.3,1.2c-1.8,0.2-3.9,0.5-5.7,0.1c-0.4-0.1-0.2-0.2-0.2,0c0,0,0.2,0.5,0.1,0.5c0.1,0,0-0.1,0.1-0.3
							c0.4-0.9,1.3-1.5,2.1-2.1c2.2-1.5,4.8-2.6,7.3-3.5c-0.4-0.9-0.8-1.8-1.2-2.7c-2.9,1.4-6,2.3-9.2,2.8c-1.6,0.2-3.2,0.4-4.8,0.5
							c-0.8,0-1.6,0.1-2.4,0.1c-0.6,0-1.1,0.1-1.1-0.5c0-1,1.6-2.4,2.2-3.1c0.9-1,1.9-1.9,3-2.8c1.5-1.1,3.8-2.8,5.8-2.3
							c-0.3-0.2-0.6-0.5-0.9-0.7c-0.4-1,0.7-0.7-0.1-0.6c-0.2,0-0.5,0.1-0.7,0.2c-0.7,0.2-1.3,0.4-2,0.6c-1.7,0.5-3.5,0.9-5.3,1
							c-1.2,0.1-8.6,0.9-8.5-1.1c0.1-1.1,1.3-2,2.1-2.6c1-0.7,2.1-1.3,3.2-1.8c1.2-0.5,4.1-1.7,5.2-0.5c-0.1-0.4-0.3-0.7-0.4-1.1
							c0,0.6,0-0.1,0.1-0.1c-0.1,0-0.4,0.2-0.5,0.2c-0.5,0.2-1,0.2-1.5,0.3c-1.5,0.2-2.9,0.5-4.3,0.7c-1.8,0.2-3.6,0.4-5.3,0.4
							c-0.9,0-1.8,0-2.6-0.1c-0.5,0-1.9,0.1-2.2-0.4c-0.6-0.8,0.5-3,0.9-3.7c0.8-1.4,2-2.6,3.3-3.5c1.4-0.9,2.9-1.6,4.4-2.2
							c0.6-0.2,1.2-0.4,1.8-0.4c0.3,0,0.6,0.1,0.8,0.1c0.4,0.4,0.6,0.1,0.4-0.8c-0.2,0.1-0.4,0.1-0.6,0.2c-3.5,0.9-7,1.5-10.6,1.7
							c-1.7,0.1-3.4,0.1-5.1,0c-0.9,0-1.9-0.1-2.8-0.2c-0.6-0.1-1.6-0.1-2-0.7c-0.7-1,0.1-2.6,0.6-3.5c0.9-1.4,2.2-2.6,3.6-3.5
							c1.3-0.9,2.8-1.8,4.3-2.5c0.7-0.3,1.3-0.6,2-0.8c0.9-0.3,2.1-0.4,2.9-0.9h0.1c0.5,0.1,0.5-0.2-0.1-0.9l-0.4,0.7
							c-0.4,0.6-1,1.2-1.6,1.7c-1.3,1.1-2.7,2-4.2,2.8c-2.5,1.3-5.8,2.7-8.7,2.4c-3.7-0.4-2.4-5.1-1.2-7.3c1.6-2.8,4.2-4.8,7-6.4
							c1.5-0.8,3-1.5,4.6-2c0.9-0.3,1.8-0.5,2.7-0.5c0.4,0,0.8,0,1.2,0c0.2,0,0.4,0,0.5,0.1c0.4,0.2,0.3,0-0.1-0.5l-0.9,0.6
							c-0.4,0.2-0.7,0.4-1.1,0.7c-0.6,0.4-1.2,0.7-1.8,1.1c-1.6,1-3.2,1.9-4.9,2.8c-2.8,1.5-5.9,2.8-9.1,3.2c-2,0.2-4.7,0.3-6.4-1
							c-0.4-0.3-0.7-0.7-0.7-1.2c0-0.4,0.1-1.1,0.3-1.7c0.6-1.8,1.9-3.3,3.2-4.7c2.9-3,6.8-6,11-6.7C544.6,95.9,543.8,93.1,541.9,93.4
							L541.9,93.4z"/>
					</g>
				</g>
			</g>
				<g>
				<g>
					<path style="fill:#EA7547;stroke:#000000;stroke-linecap:round;stroke-linejoin:round;stroke-miterlimit:10;" d="M1059.9,724.2
						l21.7-234.1H760.1l0,0c-16.3,0-29.7,18-29.7,40v194.1L1059.9,724.2L1059.9,724.2z"/>
					<path style="fill:#F28361;stroke:#000000;stroke-linecap:round;stroke-linejoin:round;stroke-miterlimit:10;" d="M800.6,535.4
						v188.8h259.3l21.7-234.1H778.7C791.6,497.9,800.6,515.3,800.6,535.4z"/>
				</g>
					<path style="fill:#EA7547;stroke:#000000;stroke-linecap:round;stroke-linejoin:round;stroke-miterlimit:10;" d="M1688.5,352.4
					c-188.7,0-587.9,0-609.8,0c-28.7,0-49.7,28.6-57.4,52c-7.7,23.4-64.3,292.1-64.3,292.1l731.6,25.4L1688.5,352.4L1688.5,352.4z"/>
					<path style="stroke:#000000;stroke-width:0.9555;stroke-linecap:round;stroke-linejoin:round;stroke-miterlimit:10;" d="
					M1140.6,461.9c0,0,8.3-16.3,17.3-9.1c9,7.2,19,53.3,38.6,74.2c19.6,20.8,28.1,42.9,38.4,55.3c15.1,18,6.6,33.2,6.6,33.2h-130.8
					c0,0-177.1,0-182.1,0s-43.3,8.5-51.3,8.5s-26.7,0-26.7,0s0-69.5,0-86.5s-8.1-31.9-8.1-31.9"/>
					<path style="fill:#EA7547;stroke:#000000;stroke-linecap:round;stroke-linejoin:round;stroke-miterlimit:10;" d="M1651,724.2
					l-13.5-104.9c0,0-628.4,0-663.2,0s-119.8,0-143,0c-21.1,0-21.1,38.3-20.9,104.9H1651z"/>
					<path style="fill:#D19647;stroke:#000000;stroke-linecap:round;stroke-linejoin:round;stroke-miterlimit:10;" d="M1526.6,724.2
					c-0.1-53,0.3-92.7,8.1-104.9c0.2-0.3,31.3,0.1,31.3,0.1c2.2-1.5-3-8,0-8c-188.8,0-488.1-0.3-511.1-0.3c-34.8,0-119.8,0-143,0
					c-21.9,0-21.1,41.4-20.9,113h635.6V724.2z"/>
					<path style="fill:#FAC165;stroke:#000000;stroke-linecap:round;stroke-linejoin:round;stroke-miterlimit:10;" d="M1514.6,724.2
					c-0.2-71.6-1-113,20.9-113c-188.8,0-469.7,0-492.7,0c-34.8,0-119.8,0-143,0c-21.9,0-21.1,41.4-20.9,113H1514.6z"/>
					<g>
					<path style="fill:#EA7547;stroke:#000000;stroke-linecap:round;stroke-linejoin:round;stroke-miterlimit:10;" d="M1688.5,490.1
						H1595c-16.3,0-29.7,18-29.7,40v194.1h123.1L1688.5,490.1L1688.5,490.1z"/>
						<path style="fill:#F28361;stroke:#000000;stroke-linecap:round;stroke-linejoin:round;stroke-miterlimit:10;" d="M1688.5,724.2
						V490.1h-74.8c12.8,7.8,21.9,25.2,21.9,45.3v188.8H1688.5z"/>
				</g>
					<g>
					<path style="fill:#FFFFFF;stroke:#000000;stroke-linecap:round;stroke-linejoin:round;stroke-miterlimit:10;" d="M1214.3,583.2
						c0,0,18,13.2,15.4,23.4c-1.6,5.3-18.1-5.3-18.1-5.3s-49.4,5.3-122.4,11c-41.1,3.2-76.9,9.6-146.9,7.6
						C930,635.1,923,636.3,923,615c-66.2-45.6-76.4-99.5-98.1-156.5c0,0-14.6-12.3-14.5-20.2c0.1-7.9,32.2,1.5,32.2,1.5
						s115.8-58.8,267.5-4.3c17.3-4.5,37.2-14.6,31.9,15.4C1170.1,487.7,1198.8,525,1214.3,583.2z"/>
						<path style="fill:#F2B45A;stroke:#000000;stroke-width:0.9803;stroke-miterlimit:10;" d="M925.1,595.7c0,0-19-59.1-87.4-128
						C861.1,506.4,901.9,577.7,925.1,595.7z"/>
				</g>
					<path style="fill:none;stroke:#000000;stroke-linecap:round;stroke-linejoin:round;stroke-miterlimit:10;" d="M940.4,614.2
					c0,0,59.5-13.2,76.8-19.2"/>
					<path style="fill:none;stroke:#000000;stroke-linecap:round;stroke-linejoin:round;stroke-miterlimit:10;" d="M1020.2,448.9
					c0,0,49.5-22,95.9-5.7"/>
			</g>
				<g>
				<g>
					<g>

							<rect x="11.6" y="336.4" style="fill:#8A9994;stroke:#000000;stroke-linecap:round;stroke-linejoin:round;stroke-miterlimit:10;" width="180" height="387.8"/>

						<rect x="191.6" y="336.4" style="fill:#FFFFFF;stroke:#000000;stroke-linecap:round;stroke-linejoin:round;stroke-miterlimit:10;" width="341.3" height="387.8"/>
						<polygon style="stroke:#000000;stroke-linecap:round;stroke-linejoin:round;stroke-miterlimit:10;" points="524.6,724.2
							524.6,349.4 256.3,349.4 199.8,349.4 199.8,724.2 				"/>

						<rect x="199.5" y="473.2" style="fill:#FFFFFF;stroke:#000000;stroke-linecap:round;stroke-linejoin:round;stroke-miterlimit:10;" width="324.8" height="121.6"/>

						<rect x="199.5" y="597.4" style="fill:#FFFFFF;stroke:#000000;stroke-linecap:round;stroke-linejoin:round;stroke-miterlimit:10;" width="324.8" height="121.6"/>
						<polyline style="fill:#C8CECC;stroke:#000000;stroke-linecap:round;stroke-linejoin:round;stroke-miterlimit:10;" points="
							199.5,511.8 199.5,473.2 524.3,473.2 524.3,499 				"/>
						<g>

								<rect x="202" y="382.5" style="fill:#C8CECC;stroke:#000000;stroke-linecap:round;stroke-linejoin:round;stroke-miterlimit:10;" width="25.6" height="89.1"/>

							<rect x="224.2" y="357.2" style="fill:#C8CECC;stroke:#000000;stroke-linecap:round;stroke-linejoin:round;stroke-miterlimit:10;" width="11.6" height="121.6"/>
							<polygon style="fill:#FFFFFF;stroke:#000000;stroke-linecap:round;stroke-linejoin:round;stroke-miterlimit:10;" points="
								559,471 235.3,478.8 235.3,357.2 559,349.4 					"/>
						</g>
					</g>
					<g>

							<rect x="0.5" y="323.3" style="fill:#8A9994;stroke:#000000;stroke-linecap:round;stroke-linejoin:round;stroke-miterlimit:10;" width="184.4" height="17.6"/>

						<rect x="184.9" y="323.3" style="fill:#FFFFFF;stroke:#000000;stroke-linecap:round;stroke-linejoin:round;stroke-miterlimit:10;" width="361.2" height="17.6"/>
					</g>
					<g>
						<polygon style="fill:#C8CECC;stroke:#000000;stroke-linecap:round;stroke-linejoin:round;stroke-miterlimit:10;" points="
							436.1,404.8 375,406.1 375,373.4 436.1,372 				"/>
						<polygon style="fill:#FFFFFF;stroke:#000000;stroke-linecap:round;stroke-linejoin:round;stroke-miterlimit:10;" points="
							446,392 384.9,393.4 384.9,372.8 446,371.5 				"/>
						<polygon style="stroke:#000000;stroke-linecap:round;stroke-linejoin:round;stroke-miterlimit:10;" points="384.9,372.9
							384.9,372.8 371.1,373.4 371.1,406.1 375.2,406.1 375.2,377.4 381,377 381,393.4 385.1,393.4 385.1,372.8 				"/>
					</g>
					<g>

							<rect x="337.2" y="494.7" style="fill:#C8CECC;stroke:#000000;stroke-linecap:round;stroke-linejoin:round;stroke-miterlimit:10;" width="61.5" height="32.8"/>

						<rect x="347.1" y="494.4" style="fill:#FFFFFF;stroke:#000000;stroke-linecap:round;stroke-linejoin:round;stroke-miterlimit:10;" width="61.5" height="20.6"/>
						<polygon style="stroke:#000000;stroke-linecap:round;stroke-linejoin:round;stroke-miterlimit:10;" points="347.1,494.4
							347.1,494.4 333.3,494.6 333.3,527.4 337.4,527.5 337.4,498.7 343.2,498.5 343.2,514.8 347.3,514.9 347.3,494.4 				"/>
					</g>
					<g>

							<rect x="337.2" y="621.3" style="fill:#C8CECC;stroke:#000000;stroke-linecap:round;stroke-linejoin:round;stroke-miterlimit:10;" width="61.5" height="32.8"/>

						<rect x="347.1" y="620.9" style="fill:#FFFFFF;stroke:#000000;stroke-linecap:round;stroke-linejoin:round;stroke-miterlimit:10;" width="61.5" height="20.6"/>
						<polygon style="stroke:#000000;stroke-linecap:round;stroke-linejoin:round;stroke-miterlimit:10;" points="347.1,621
							347.1,620.9 333.3,621.1 333.3,653.9 337.4,654 337.4,625.3 343.2,625 343.2,641.4 347.3,641.5 347.3,620.9 				"/>
					</g>
				</g>
					<g>
					<path style="stroke:#000000;stroke-linecap:round;stroke-linejoin:round;stroke-miterlimit:10;" d="M253.9,351.9
						c0,0,13.5,38.1,17.8,47.6s1.9,30.9,4.7,40.5c2.8,9.6,5,15.2,5,15.2v15h24.8c0,0,30.1-80.9,28.2-94.4
						c-1.9-13.6-55.2-21.3-55.2-21.3"/>
						<path style="fill:#D1623F;stroke:#000000;stroke-linecap:round;stroke-linejoin:round;stroke-miterlimit:10;" d="M305.3,338
						c15.9,0,31.5,0.8,39.1,5s8.6,19.4,10,39.9c1.4,20.4-4.2,30.9-7.5,38.3s-2.5,34.1-2.5,34.1s-52.3-1.3-54-2.7
						c-1.8-1.4-9.1-7.6-9.1-41.7c0-14,3-9.1-11.5-27.9s-25.4-27.6-25.4-27.6l-8.8,0.3c0,0,14.5-10.7,36-13.1S305.3,338,305.3,338z"/>
						<g>
						<g>
							<defs>
								<path id="SVGID_1_" d="M305.3,338c15.9,0,31.5,0.8,39.1,5s8.6,19.4,10,39.9c1.4,20.4-4.2,30.9-7.5,38.3s-2.5,21.9-2.5,21.9
									s-49.1,19.2-50.9,17.8c-1.8-1.4-11.5-36-12.2-50s3-9.1-11.5-27.9s-25.4-27.6-25.4-27.6l-8.8,0.3c0,0,14.5-10.7,36-13.1
									S305.3,338,305.3,338z"/>
							</defs>
							<clipPath id="SVGID_2_">
								<use xlink:href="#SVGID_1_"  style="overflow:visible;"/>
							</clipPath>
							<g style="clip-path:url(#SVGID_2_);">
								<g>
									<path style="fill:#FFFFFF;" d="M275.2,342.6c4.2,2.1,8.4,4.2,12.6,6.3c3.5,1.8,7.1,3.7,9.8,6.6c5.5,5.9,5.9,14.6,5.3,22.2
										c-0.4,4.8-1.1,9.6-1.3,14.4c-0.2,4.7,0.3,9.3,1.3,13.9c0.9,4.5,2.1,8.9,2.5,13.4c0.4,4.2,0,8.4-0.4,12.5
										c-0.9,8.8-2.4,18.2,2.5,26.1c1.1,1.8,3.9,0.1,2.8-1.6c-4.3-7.1-3-15.7-2.2-23.6c0.5-4.1,0.9-8.3,0.6-12.4
										c-0.3-4.7-1.4-9.3-2.4-13.8c-1-4.6-1.6-9.2-1.5-14c0.2-4.8,0.9-9.6,1.3-14.4c0.6-7.8,0.2-16.5-4.6-23
										c-2.7-3.7-6.5-6.2-10.5-8.3c-4.7-2.5-9.5-4.7-14.2-7.1C275,338.9,273.4,341.7,275.2,342.6L275.2,342.6z"/>
								</g>
								<g>
									<path style="fill:#FFFFFF;" d="M315.9,454.7c2-18-0.1-36-2.3-53.9c-1.1-9-2.3-17.9-3.4-26.9c-0.6-4.5-1.2-9-1.7-13.5
										c-0.5-4-1.1-8.1-2.9-11.7c-3.4-6.8-10.5-11.3-18-11.7c-2.1-0.1-2.1,3.1,0,3.2c6.4,0.4,12.3,4.3,15.2,10
										c1.8,3.5,2.2,7.5,2.7,11.3c0.5,4.3,1.1,8.5,1.6,12.8c2.2,17.1,4.8,34.2,6.1,51.4c0.7,9.7,0.8,19.4-0.3,29.1
										C312.5,456.7,315.7,456.7,315.9,454.7L315.9,454.7z"/>
								</g>
								<g>
									<path style="fill:#FFFFFF;" d="M301.1,338.4c2.9,2.9,5.9,5.7,8.7,8.6c2.6,2.7,3.7,5.6,3.8,9.3c0.1,3.7-0.3,7.3-0.2,11
										c0.1,3.9,0.5,7.8,1,11.6c2,15.7,6.3,31.2,6.7,47.1c0.3,9.4-0.5,18.8-1.3,28.1c-0.2,2.1,3.1,2.1,3.2,0
										c0.7-8.5,1.4-17,1.4-25.5c-0.1-8.3-1.1-16.4-2.5-24.5c-1.4-7.9-3-15.7-4.1-23.6c-0.6-4-1-8.1-1.1-12.2
										c-0.1-3.9,0.2-7.7,0.1-11.6c0-4.2-1-7.8-3.8-11c-3-3.4-6.4-6.5-9.6-9.6C301.9,334.6,299.6,336.9,301.1,338.4L301.1,338.4z"/>
								</g>
							</g>
						</g>
					</g>
						<path style="fill:#EA7547;stroke:#000000;stroke-linecap:round;stroke-linejoin:round;stroke-miterlimit:10;" d="M292.7,471.6
						c0,0,26.2,1.3,35-1.5c8.9-2.8,19.7-9.3,19.7-9.3l-3-17.8c0,0-16.7,6.4-33.5,9.6c-7.8,1.5-20.5-0.1-20.5-0.1L292.7,471.6z"/>
						<path style="fill:none;stroke:#000000;stroke-linecap:round;stroke-linejoin:round;stroke-miterlimit:10;" d="M287.7,394.6
						c0,0,20.4-35.7,36.8-42.8"/>
				</g>
					<g>

						<rect x="106.3" y="290" style="stroke:#000000;stroke-linecap:round;stroke-linejoin:round;stroke-miterlimit:10;" width="377.8" height="30.8"/>
						<path style="fill:#5C6864;stroke:#000000;stroke-linecap:round;stroke-linejoin:round;stroke-miterlimit:10;" d="M381.6,306.7H88
						c-5.7,0-10.4-5-10.4-11V143.9c0-6.1,4.8-10.2,12.4-14.3L381.6,0.5c5.7,0,10.4,5,10.4,11v284.2C392,301.8,387.3,306.7,381.6,306.7
						z"/>
						<path style="fill:#5C6864;stroke:#000000;stroke-linecap:round;stroke-linejoin:round;stroke-miterlimit:10;" d="M434.8,306.7
						H140.5c-5.5,0-10-4.5-10-10V10.5c0-5.5,4.5-10,10-10h294.3c5.5,0,10,4.5,10,10v286.2C444.8,302.2,440.3,306.7,434.8,306.7z"/>
						<path style="fill:#8A9994;stroke:#000000;stroke-linecap:round;stroke-linejoin:round;stroke-miterlimit:10;" d="M500.3,306.7
						H206c-5.5,0-10-4.5-10-10V10.5c0-5.5,4.5-10,10-10h294.3c5.5,0,10,4.5,10,10v286.2C510.3,302.2,505.8,306.7,500.3,306.7z"/>
						<path style="stroke:#000000;stroke-linecap:round;stroke-linejoin:round;stroke-miterlimit:10;" d="M510.3,260.1V11.5
						c0-6.1-4.1-11-9-11H205c-5,0-9,5-9,11V260h314.3V260.1z"/>

						<rect x="211.8" y="22.2" style="stroke:#5C6864;stroke-width:3;stroke-linecap:round;stroke-linejoin:round;stroke-miterlimit:10;" width="282" height="223.9"/>
						<rect x="324.8" y="272" style="fill:#C8CECC;" width="62.7" height="12.9"/>
						<g>

							<ellipse style="stroke:#000000;stroke-linecap:round;stroke-linejoin:round;stroke-miterlimit:10;" cx="222.1" cy="282.8" rx="6.7" ry="7.1"/>
							<ellipse style="fill:#F2B45A;stroke:#000000;stroke-miterlimit:10;" cx="224.2" cy="282.8" rx="6.7" ry="7.1"/>
					</g>
						<g>

							<ellipse style="stroke:#000000;stroke-linecap:round;stroke-linejoin:round;stroke-miterlimit:10;" cx="254.2" cy="282.8" rx="6.7" ry="7.1"/>
							<ellipse style="fill:#F2B45A;stroke:#000000;stroke-miterlimit:10;" cx="256.3" cy="282.8" rx="6.7" ry="7.1"/>
					</g>
						<g>

							<ellipse style="stroke:#000000;stroke-linecap:round;stroke-linejoin:round;stroke-miterlimit:10;" cx="286.4" cy="282.8" rx="6.7" ry="7.1"/>
							<ellipse style="fill:#F2B45A;stroke:#000000;stroke-miterlimit:10;" cx="288.4" cy="282.8" rx="6.7" ry="7.1"/>
					</g>
						<path style="stroke:#000000;stroke-linecap:round;stroke-linejoin:round;stroke-miterlimit:10;" d="M119.6,158.2H88.2
						c-1.2,0-2.3-1-2.3-2.3v-0.5c0-1.2,1-2.3,2.3-2.3h31.4c1.2,0,2.3,1,2.3,2.3v0.5C121.8,157.2,120.8,158.2,119.6,158.2z"/>
						<path style="stroke:#000000;stroke-linecap:round;stroke-linejoin:round;stroke-miterlimit:10;" d="M119.6,174.8H88.2
						c-1.2,0-2.3-1-2.3-2.3V172c0-1.2,1-2.3,2.3-2.3h31.4c1.2,0,2.3,1,2.3,2.3v0.5C121.8,173.8,120.8,174.8,119.6,174.8z"/>
						<path style="stroke:#000000;stroke-linecap:round;stroke-linejoin:round;stroke-miterlimit:10;" d="M119.6,191.3H88.2
						c-1.2,0-2.3-1-2.3-2.3v-0.5c0-1.2,1-2.3,2.3-2.3h31.4c1.2,0,2.3,1,2.3,2.3v0.5C121.8,190.3,120.8,191.3,119.6,191.3z"/>
						<path style="stroke:#000000;stroke-linecap:round;stroke-linejoin:round;stroke-miterlimit:10;" d="M119.6,207.8H88.2
						c-1.2,0-2.3-1-2.3-2.3V205c0-1.2,1-2.3,2.3-2.3h31.4c1.2,0,2.3,1,2.3,2.3v0.5C121.8,206.8,120.8,207.8,119.6,207.8z"/>
						<path style="stroke:#000000;stroke-linecap:round;stroke-linejoin:round;stroke-miterlimit:10;" d="M119.6,224.3H88.2
						c-1.2,0-2.3-1-2.3-2.3v-0.5c0-1.2,1-2.3,2.3-2.3h31.4c1.2,0,2.3,1,2.3,2.3v0.5C121.8,223.3,120.8,224.3,119.6,224.3z"/>
						<path style="stroke:#000000;stroke-linecap:round;stroke-linejoin:round;stroke-miterlimit:10;" d="M119.6,240.9H88.2
						c-1.2,0-2.3-1-2.3-2.3v-0.5c0-1.2,1-2.3,2.3-2.3h31.4c1.2,0,2.3,1,2.3,2.3v0.5C121.8,239.9,120.8,240.9,119.6,240.9z"/>
						<path style="stroke:#000000;stroke-linecap:round;stroke-linejoin:round;stroke-miterlimit:10;" d="M119.6,257.4H88.2
						c-1.2,0-2.3-1-2.3-2.3v-0.5c0-1.2,1-2.3,2.3-2.3h31.4c1.2,0,2.3,1,2.3,2.3v0.5C121.8,256.4,120.8,257.4,119.6,257.4z"/>
						<path style="stroke:#000000;stroke-linecap:round;stroke-linejoin:round;stroke-miterlimit:10;" d="M119.6,273.9H88.2
						c-1.2,0-2.3-1-2.3-2.3v-0.5c0-1.2,1-2.3,2.3-2.3h31.4c1.2,0,2.3,1,2.3,2.3v0.5C121.8,272.9,120.8,273.9,119.6,273.9z"/>
						<g>
						<path style="fill:#EA7547;" d="M290.3,108c1,0,1.9,1.5,2.5,4.4c2.8,7.9,5.4,17.3,7.8,28.3h0.1c0.3-7.1,0.4-15.4,0.4-24.8v-6.7
							c0-0.7,0.3-1,1-1c1.9,0,2.9,0.8,2.9,2.5c0,13.8-0.2,29.6-0.6,47.4c-0.1,0.7-0.6,1-1.4,1c-0.3,0-0.6,0-0.9-0.1
							c-1.4-0.3-2.2-0.9-2.2-1.9c-2.7-13.7-5.4-24.8-8-33.3h-0.1c0.3,8.3,0.5,15.1,0.5,20.5c0,2.9-0.1,7.5-0.2,14
							c-0.4,0.5-0.8,0.7-1.3,0.7c-1.7-0.4-2.6-1.5-2.6-3.2c-0.1-12.7-0.1-22-0.1-27.8v-4c0-3,0-7.6-0.1-13.9c-0.1-0.2-0.1-0.3-0.1-0.4
							C287.9,108.8,288.7,108.3,290.3,108z"/>
							<path style="fill:#EA7547;" d="M324.4,108.7c0.3,0,0.4,0.6,0.4,1.9v1.5c0,1-0.4,1.5-1.1,1.5h-1.4c-2.3,0-4.7,0.1-7.2,0.3
							c0,0.6,0.2,5.6,0.6,14.9l7-0.2c0.5,0,0.8,0.9,0.8,2.7c0,1.6-0.4,2.4-1.2,2.4l-6.5,0.4c0.1,8.6,0.3,14.5,0.4,17.7
							c1.8-0.3,4.3-0.5,7.6-0.7c0.5,0,0.9,0.6,1,1.7v1.5c0,1.5-0.6,2.2-1.9,2.2c-4.6,0.3-8.2,0.5-10.8,0.5c-0.2-0.5-0.3-1.3-0.3-2.4
							v-17c0-8.3-0.4-17.5-1.2-27.6c0.2-0.8,0.8-1.2,2-1.2L324.4,108.7L324.4,108.7z"/>
							<path style="fill:#EA7547;" d="M343.9,109.1h2.3c2.5,0,3.7,0.5,3.7,1.6v0.9c0,1.6-0.4,2.4-1.2,2.4c-1.9,0-4.3,0.1-7.2,0.3
							c0.2,3.9,0.3,8.7,0.3,14.4v11.5c0,5.7-0.1,11.2-0.2,16.5c-0.3,0.6-0.8,0.9-1.6,0.9h-0.2c-1.5-0.2-2.2-0.8-2.2-1.9
							c0-5.7,0-19.4,0.1-41.1l-7.8,0.4c-0.3-0.4-0.4-0.9-0.4-1.5c0-2.3,1.1-3.5,3.2-3.5C338.4,109.4,342.1,109.1,343.9,109.1z"/>
							<path style="fill:#EA7547;" d="M357,107.4c5.2,0.7,10.1,1.2,14.7,1.4c0.3,0.4,0.4,1.1,0.4,2.2c-0.1,1.8-0.3,2.7-0.6,2.7h-1.2
							c-1,0-4.5-0.3-10.7-0.9c0.1,8.4,0.1,13.8,0.2,16.4l11.2,0.2l0.2,0.4v1.2c-0.1,2.3-0.6,3.5-1.4,3.5h-0.1c-1.1,0-4.3,0-9.6-0.1
							c0.1,3.8,0.2,9.6,0.2,17.5c0,1.7,0.1,3.5,0.2,5.5c-0.5,0.6-1.2,0.9-2,0.9h-0.7c-1,0-1.5-0.5-1.5-1.5c-0.2,0-0.5-15.4-0.7-46.3
							V109C355.4,108,356,107.4,357,107.4z"/>
							<path style="fill:#EA7547;" d="M380.4,107.8c1.3,0,1.9,0.5,1.9,1.4v6.4c0,3.9,0.2,10.6,0.6,20.2c-0.1,7.6-0.1,12.7-0.1,15.4
							c0.1,0,0.1,0,0.1-0.1c2.4-0.2,4.8-0.3,7.1-0.3h0.7c0.8,0,1.9,0,3.5,0.1c0.5,0.5,0.7,1.3,0.7,2.2v0.4c0,1.8-0.5,2.8-1.4,3.1h-1
							c-5.6,0-10,0.3-13.2,0.9c-0.5-0.4-0.7-1.6-0.7-3.4c0-3.4,0-5.6-0.1-6.7l0.2-15.2c-0.5-4.9-0.7-10.2-0.7-16v-7.5
							C378.3,108.1,379,107.8,380.4,107.8z"/>
							<path style="fill:#EA7547;" d="M403.2,108.2c0.7,0,1.2,1.3,1.3,4c0.3,15.8,0.6,30.1,1.1,42.9c-0.2,1.2-1,1.9-2.3,1.9h-0.2
							c-0.7,0-1.3-0.3-1.6-1c-0.6-17.9-1-33.3-1.3-46.2c0-1,0.5-1.5,1.6-1.5L403.2,108.2z"/>
							<path style="fill:#EA7547;" d="M425.4,108.2c1.6,0.6,2.4,1.3,2.4,2.2v0.3c-2.4,7.7-4.5,15.3-6.2,22.8l5.6,23.2
							c0,1.1-0.6,1.8-1.9,2.1h-0.9c-0.8-0.3-1.5-2.1-2.3-5.2c-0.3-1.3-1.3-5.4-3.1-12.4h-0.1c-1.3,6.5-2.5,11.9-3.8,16.1
							c-0.5,0.5-0.8,0.7-1.1,0.7c-1.2,0-2-0.5-2.5-1.6v-0.1c1-5.8,2.7-13.4,5-22.8c-1.3-5.9-2.5-10.7-3.4-14.4
							c-1.5-4.4-2.3-7.3-2.3-8.7c0-0.7,0.9-1.2,2.7-1.4c1.4,0,3.3,5.6,5.6,16.7v0.1h0.1C421.8,114.1,423.9,108.2,425.4,108.2z"/>
					</g>
				</g>
			</g>
		</g>
		</svg>
