<?xml version="1.0" encoding="utf-8"?>
<!-- Generator: Adobe Illustrator 24.0.1, SVG Export Plug-In . SVG Version: 6.00 Build 0)  -->
<svg version="1.1" id="Layer_1" xmlns="http://www.w3.org/2000/svg" xmlns:xlink="http://www.w3.org/1999/xlink"
	 viewBox="0 0 1970 722.7" xml:space="preserve">
<g>
	<g id="phone">
		<g>
			<g>
				<path d="M726.1,134c9.3,32.4,18.8,64.7,28.5,97c9.8,32.3,19.8,64.4,30.1,96.5c10.2,32,20.7,63.8,31.5,95.6
					c8.5,25.1,16.9,50.3,29.3,73.8c11.4,21.7,26.6,42,47.4,55.4c2.6,1.7,5.2,3.2,8,4.7c1.7,0.9,3.2-1.7,1.5-2.6
					c-22-11.7-38.3-30.8-50.5-52.2c-12.8-22.3-21.4-46.6-29.7-70.9c-10.7-31.5-21.2-63.1-31.4-94.8c-10.2-31.8-20.2-63.7-30-95.7
					c-9.7-31.8-19.2-63.8-28.4-95.7c-1.2-4-2.3-8-3.4-12C728.5,131.4,725.6,132.2,726.1,134L726.1,134z"/>
			</g>
		</g>
		<g>
			<g>

					<rect x="629.6" y="200.7" style="fill:#C8CECC;stroke:#000000;stroke-linecap:round;stroke-linejoin:round;stroke-miterlimit:10;" width="145.1" height="521.5"/>

					<rect x="698.2" y="200.7" style="fill:#FFFFFF;stroke:#000000;stroke-linecap:round;stroke-linejoin:round;stroke-miterlimit:10;" width="76.5" height="521.5"/>

					<rect x="636.6" y="200.7" style="fill:#5F6864;stroke:#000000;stroke-linecap:round;stroke-linejoin:round;stroke-miterlimit:10;" width="9.3" height="521.5"/>

					<rect x="757.2" y="200.7" style="fill:#C8CECC;stroke:#000000;stroke-linecap:round;stroke-linejoin:round;stroke-miterlimit:10;" width="10.3" height="521.5"/>

					<rect x="656.6" y="200.7" style="fill:#89938F;stroke:#000000;stroke-linecap:round;stroke-linejoin:round;stroke-miterlimit:10;" width="16.3" height="521.5"/>

					<rect x="729.2" y="200.7" style="fill:#C8CECC;stroke:#000000;stroke-linecap:round;stroke-linejoin:round;stroke-miterlimit:10;" width="16.3" height="521.5"/>

					<rect x="688.6" y="200.7" style="fill:#A7AFAC;stroke:#000000;stroke-linecap:round;stroke-linejoin:round;stroke-miterlimit:10;" width="22.3" height="521.5"/>
			</g>
			<g>
				<g>

						<rect x="605" y="169.6" style="fill:#A8B2AF;stroke:#000000;stroke-linecap:round;stroke-linejoin:round;stroke-miterlimit:10;" width="93.3" height="43.2"/>

						<rect x="698.4" y="169.6" style="fill:#FFFFFF;stroke:#000000;stroke-linecap:round;stroke-linejoin:round;stroke-miterlimit:10;" width="98.5" height="43.2"/>
				</g>
				<g>

						<rect x="574.1" y="154.4" style="fill:#A8B2AF;stroke:#000000;stroke-linecap:round;stroke-linejoin:round;stroke-miterlimit:10;" width="124.4" height="17.6"/>

						<rect x="698.5" y="154.4" style="fill:#FFFFFF;stroke:#000000;stroke-linecap:round;stroke-linejoin:round;stroke-miterlimit:10;" width="131.2" height="17.6"/>
				</g>
			</g>
		</g>
		<g>
			<path style="fill:#F2B45A;stroke:#000000;stroke-linecap:round;stroke-linejoin:round;stroke-miterlimit:10;" d="M689.4,42.7
				c46.8-2.1,88.3,11.5,99.1,23.6s9.4,20.4,7.6,27.8c-0.9,3.9-2.3,7.8-3.5,10.7c-1,2.5-3.7,3.9-6.3,3.2l-13.1-3.2
				c-1.7-0.4-3.2-1.7-3.8-3.3c-3.2-8.4-15.3-34.4-43.3-36.6c-33.5-2.7-71.1,2.6-76.8,7.1c-5.6,4.4-7.3,19.4-9,26.7
				c-1.7,7.2-7.7,11-21.7,13.5s-19.5,2.5-23.7,2.5s-4.5-3.2-5.9-8.4c-1.4-5.2-12-24.8,5.9-38.5C613.5,53.5,635.9,45.1,689.4,42.7z"
				/>
			<g>
				<path style="fill:#EA7547;stroke:#000000;stroke-linecap:round;stroke-linejoin:round;stroke-miterlimit:10;" d="M617.4,112.3
					c0,0-3.5,32.9-2.9,42.1h178.3c0,0,0-24.3,0-31.8s-44.1-50.2-49.3-53.9c-5.3-3.7-36-5.2-54.8-5.2s-37.3,5-41.5,10.5
					c-4.1,5.5-4.5,30.5-8.4,34.5C634.9,112.6,617.4,112.3,617.4,112.3z"/>
				<path style="fill:#D1623F;stroke:#000000;stroke-linecap:round;stroke-linejoin:round;stroke-miterlimit:10;" d="M671,122.3
					l-12-45.1l2.3-9.6c-7.1,1.9-12.5,4.2-14.2,6.4c-4.1,5.5-7,27.5-10.9,31.6c-3.9,4-18.9,6.7-18.9,6.7s-3.5,32.9-2.9,42.1H671
					V122.3z"/>

					<line style="fill:none;stroke:#000000;stroke-linecap:round;stroke-linejoin:round;stroke-miterlimit:10;" x1="677.6" y1="121.5" x2="773.5" y2="121.5"/>
			</g>
			<path style="fill:#FFDDB0;stroke:#000000;stroke-linecap:round;stroke-linejoin:round;stroke-miterlimit:10;" d="M710,71.5
				c-19.6,0-32.4,8.9-28.5,19.8c3.8,10.9,22.8,19.8,42.4,19.8c19.6,0,32.4-8.9,28.5-19.8C748.5,80.3,729.5,71.5,710,71.5z
				 M689.3,84.5c2.3,0,4.6,1,5,2.3c0.5,1.3-1.1,2.3-3.4,2.3c-2.3,0-4.6-1-5-2.3C685.5,85.5,687,84.5,689.3,84.5z M687.7,94.2
				c-0.5-1.3,1.1-2.4,3.5-2.4s4.7,1.1,5.2,2.4s-1.1,2.4-3.5,2.4S688.2,95.5,687.7,94.2z M701.2,103.5c-2.4,0-4.7-1.1-5.2-2.4
				s1.1-2.4,3.5-2.4s4.7,1.1,5.2,2.4S703.6,103.5,701.2,103.5z M695.5,82.5c-2.3,0-4.4-1-4.9-2.3c-0.4-1.3,1-2.3,3.3-2.3
				s4.4,1,4.9,2.3C699.2,81.5,697.7,82.5,695.5,82.5z M715.1,108.2c-2.5,0-5-1.1-5.5-2.5s1.1-2.5,3.7-2.5c2.5,0,5,1.1,5.5,2.5
				C719.2,107,717.6,108.2,715.1,108.2z M706.2,78.7c-2.2,0-4.3-1-4.8-2.2c-0.4-1.2,1-2.2,3.2-2.2s4.3,1,4.8,2.2
				C709.8,77.7,708.4,78.7,706.2,78.7z M730,108.2c-2.5,0-5-1.1-5.5-2.5s1.1-2.5,3.7-2.5s5,1.1,5.5,2.5
				C734.2,107,732.5,108.2,730,108.2z M720.2,78.7c-2.2,0-4.3-1-4.8-2.2c-0.4-1.2,1-2.2,3.2-2.2s4.3,1,4.8,2.2
				C723.8,77.7,722.4,78.7,720.2,78.7z M740.3,104.1c-2.5,0-4.9-1.1-5.4-2.5s1.1-2.5,3.6-2.5s4.9,1.1,5.4,2.5
				C744.4,103,742.7,104.1,740.3,104.1z M744.8,97.5c-2.4,0-4.7-1.1-5.2-2.4s1.1-2.4,3.5-2.4s4.7,1.1,5.2,2.4
				C748.7,96.5,747.2,97.5,744.8,97.5z"/>

				<line style="fill:none;stroke:#000000;stroke-linecap:round;stroke-linejoin:round;stroke-miterlimit:10;" x1="587.9" y1="102.7" x2="640.3" y2="91.3"/>

				<line style="fill:none;stroke:#000000;stroke-linecap:round;stroke-linejoin:round;stroke-miterlimit:10;" x1="762.7" y1="85.9" x2="796.2" y2="94.1"/>
		</g>
		<g>
			<path style="fill:#F2B45A;stroke:#000000;stroke-linecap:round;stroke-linejoin:round;stroke-miterlimit:10;" d="M571.6,88.8
				l14.2-2.6c0,0,1.8,0.2,2.7,3.7s-1.2,4.7-1.2,4.7l-13.5,1.8"/>

				<ellipse transform="matrix(0.9837 -0.1797 0.1797 0.9837 -7.3598 104.353)" style="fill:#F2B45A;stroke:#000000;stroke-width:1;stroke-linecap:round;stroke-linejoin:round;stroke-miterlimit:9.999;" cx="572.3" cy="92.8" rx="2.2" ry="4.1"/>
		</g>
		<g>
			<g>
				<path d="M571.9,91.4c-3.7,0.7-7.1,2.9-9.9,5.3c-2.7,2.2-5.5,5.2-6.5,8.6c-0.9,3.4,1,6,4.3,6.9c5.8,1.6,11.8-0.8,16.8-3.5
					c1.3-0.7,2.6-1.5,3.9-2.3c1.4-0.8,2.9-1.6,4.2-2.6c1-0.8,1.7-1.9,1.4-3.2c-0.4-1.4-1.9-1.9-3.2-2c-3.3-0.3-6.5,1-9.4,2.4
					c-2.8,1.5-5.5,3.3-7.5,5.9c-1.8,2.3-3,5.2-3,8.1c0.1,2.9,1.8,5.1,4.7,5.6c2.8,0.5,5.7-0.4,8.3-1.5c2.9-1.2,5.8-2.8,8.1-5
					c0.9-0.8,1.8-1.9,2.2-3.1c0.4-1.4-0.5-2.6-1.8-2.9s-2.7,0.2-4,0.7c-1.5,0.5-2.9,1.1-4.3,1.8c-2.7,1.4-5.4,3.2-7.3,5.6
					c-1.6,2-2.9,5.2-1.4,7.7c1.6,2.6,5.7,2.3,8.3,2.4c3.4,0.1,6.8-0.2,10.2-0.7c1.7-0.3,3.4-0.6,5-1c1.3-0.3,3-0.8,3-2.5
					c0.1-3.1-4.1-3.2-6.1-2.6c-5.3,1.5-11.5,5.8-11.4,11.9c0,3.7,3.7,3.8,6.5,3.9c3.5,0.1,6.8-0.4,10.2-0.9c1.8-0.3,4.4-0.2,5.5-2
					c1.3-2.2-1-3.7-2.9-3.8c-2.3-0.2-4.8,0.7-6.8,1.7c-2.1,1-4.4,2.5-5.4,4.7c-1.3,2.7,0,5.3,2.9,5.8c3.3,0.6,6.8,0.4,10-0.1
					c1.6-0.2,3.2-0.6,4.7-1.1c1-0.3,2.3-0.5,3.2-1.1c1-0.7,1.2-1.8,0.9-2.8c-0.5-1.3-1.8-1.4-3-1.3c-2.4,0.2-4.6,1.6-6.5,3
					c-2.2,1.6-4.3,3.7-5.7,6.1c-1.5,2.7-0.4,5.5,2.8,5.7c3.1,0.2,6.4-0.3,9.4-0.8c3.1-0.5,6.2-1.5,9-2.9c1.5-0.8,0.5-3.3-1.2-2.7
					c-3.2,1.1-6.5,2.5-9.1,4.6c-1.5,1.2-3.8,4-1.8,5.8c1.6,1.5,4.8,1,6.8,0.9c2.8-0.3,5.6-0.7,8.3-1.4c1.9-0.5,1.1-3.4-0.8-2.9
					c-2.1,0.5-4.2,0.9-6.3,1.2c-1.8,0.2-3.9,0.5-5.7,0.1c-0.4-0.1-0.2-0.2-0.2,0c0,0,0.2,0.5,0.1,0.5c0.1,0,0-0.1,0.1-0.3
					c0.4-0.9,1.3-1.5,2.1-2.1c2.2-1.5,4.8-2.6,7.3-3.5c-0.4-0.9-0.8-1.8-1.2-2.7c-2.9,1.4-6,2.3-9.2,2.8c-1.6,0.2-3.2,0.4-4.8,0.5
					c-0.8,0-1.6,0.1-2.4,0.1c-0.6,0-1.1,0.1-1.1-0.5c0-1,1.6-2.4,2.2-3.1c0.9-1,1.9-1.9,3-2.8c1.5-1.1,3.8-2.8,5.8-2.3
					c-0.3-0.2-0.6-0.5-0.9-0.7c-0.4-1,0.7-0.7-0.1-0.6c-0.2,0-0.5,0.1-0.7,0.2c-0.7,0.2-1.3,0.4-2,0.6c-1.7,0.5-3.5,0.9-5.3,1
					c-1.2,0.1-8.6,0.9-8.5-1.1c0.1-1.1,1.3-2,2.1-2.6c1-0.7,2.1-1.3,3.2-1.8c1.2-0.5,4.1-1.7,5.2-0.5c-0.1-0.4-0.3-0.7-0.4-1.1
					c0,0.6,0-0.1,0.1-0.1c-0.1,0-0.4,0.2-0.5,0.2c-0.5,0.2-1,0.2-1.5,0.3c-1.5,0.2-2.9,0.5-4.3,0.7c-1.8,0.2-3.6,0.4-5.3,0.4
					c-0.9,0-1.8,0-2.6-0.1c-0.5,0-1.9,0.1-2.2-0.4c-0.6-0.8,0.5-3,0.9-3.7c0.8-1.4,2-2.6,3.3-3.5c1.4-0.9,2.9-1.6,4.4-2.2
					c0.6-0.2,1.2-0.4,1.8-0.4c0.3,0,0.6,0.1,0.8,0.1c0.4,0.4,0.6,0.1,0.4-0.8c-0.2,0.1-0.4,0.1-0.6,0.2c-3.5,0.9-7,1.5-10.6,1.7
					c-1.7,0.1-3.4,0.1-5.1,0c-0.9,0-1.9-0.1-2.8-0.2c-0.6-0.1-1.6-0.1-2-0.7c-0.7-1,0.1-2.6,0.6-3.5c0.9-1.4,2.2-2.6,3.6-3.5
					c1.3-0.9,2.8-1.8,4.3-2.5c0.7-0.3,1.3-0.6,2-0.8c0.9-0.3,2.1-0.4,2.9-0.9h0.1c0.5,0.1,0.5-0.2-0.1-0.9l-0.4,0.7
					c-0.4,0.6-1,1.2-1.6,1.7c-1.3,1.1-2.7,2-4.2,2.8c-2.5,1.3-5.8,2.7-8.7,2.4c-3.7-0.4-2.4-5.1-1.2-7.3c1.6-2.8,4.2-4.8,7-6.4
					c1.5-0.8,3-1.5,4.6-2c0.9-0.3,1.8-0.5,2.7-0.5c0.4,0,0.8,0,1.2,0c0.2,0,0.4,0,0.5,0.1c0.4,0.2,0.3,0-0.1-0.5l-0.9,0.6
					c-0.4,0.2-0.7,0.4-1.1,0.7c-0.6,0.4-1.2,0.7-1.8,1.1c-1.6,1-3.2,1.9-4.9,2.8c-2.8,1.5-5.9,2.8-9.1,3.2c-2,0.2-4.7,0.3-6.4-1
					c-0.4-0.3-0.7-0.7-0.7-1.2c0-0.4,0.1-1.1,0.3-1.7c0.6-1.8,1.9-3.3,3.2-4.7c2.9-3,6.8-6,11-6.7C574.6,93.9,573.8,91.1,571.9,91.4
					L571.9,91.4z"/>
			</g>
		</g>
	</g>
	<g id="coach">
		<g>
			<path style="fill:#EA7547;stroke:#000000;stroke-linecap:round;stroke-linejoin:round;stroke-miterlimit:10;" d="M1089.9,722.2
				l21.7-234.1H790.1l0,0c-16.3,0-29.7,18-29.7,40v194.1L1089.9,722.2L1089.9,722.2z"/>
			<path style="fill:#F28361;stroke:#000000;stroke-linecap:round;stroke-linejoin:round;stroke-miterlimit:10;" d="M830.6,533.4
				v188.8h259.3l21.7-234.1H808.7C821.6,495.9,830.6,513.3,830.6,533.4z"/>
		</g>
		<g>

				<path style="fill:#EA7547;stroke:#000000;stroke-width:1.0503;stroke-linecap:round;stroke-linejoin:round;stroke-miterlimit:10;" d="
				M1347.7,350.4c-215.4,0-245.1,0-270.1,0c-32.8,0-40.5,9.3-45.7,29.2c-6.2,24.1-68.5,286-68.5,286l335.8,0.1L1347.7,350.4z"/>

				<path style="fill:#C45533;stroke:#000000;stroke-width:1.0503;stroke-linecap:round;stroke-linejoin:round;stroke-miterlimit:10;" d="
				M1384.1,385.8c3.5-12.5,0.9-22.9-5.1-28.1s-14.3-6.9-21-7.3c-33.4-1.7-40.5,9.3-45.7,29.2c-6.2,24.1-68.5,286-68.5,286h78.5
				C1335.9,606,1381,396.8,1384.1,385.8z"/>
		</g>
		<g>

				<path style="fill:#EA7547;stroke:#000000;stroke-width:1.0503;stroke-linecap:round;stroke-linejoin:round;stroke-miterlimit:10;" d="
				M1640.3,350.4c-215.4,0-245.1,0-270.1,0c-32.8,0-40.5,9.3-45.7,29.2c-6.2,24.1-68.5,286-68.5,286l335.8,0.1L1640.3,350.4z"/>

				<path style="fill:#C45533;stroke:#000000;stroke-width:1.0503;stroke-linecap:round;stroke-linejoin:round;stroke-miterlimit:10;" d="
				M1676.7,385.8c3.5-12.5,0.9-22.9-5.1-28.1s-14.3-6.9-21-7.3c-33.4-1.7-40.5,9.3-45.7,29.2c-6.2,24.1-68.5,286-68.5,286h78.5
				C1628.5,606,1673.6,396.8,1676.7,385.8z"/>
		</g>
		<g>

				<path style="fill:#EA7547;stroke:#000000;stroke-width:1.0503;stroke-linecap:round;stroke-linejoin:round;stroke-miterlimit:10;" d="
				M1931.5,350.4c-215.4,0-245.1,0-270.1,0c-32.8,0-40.5,9.3-45.7,29.2c-6.2,24.1-68.5,286-68.5,286l335.8,0.1L1931.5,350.4z"/>

				<path style="fill:#C45533;stroke:#000000;stroke-width:1.0503;stroke-linecap:round;stroke-linejoin:round;stroke-miterlimit:10;" d="
				M1967.9,385.8c3.5-12.5,0.9-22.9-5.1-28.1s-14.3-6.9-21-7.3c-33.4-1.7-40.5,9.3-45.7,29.2c-6.2,24.1-68.5,286-68.5,286l110,28.5
				C1951.1,634.5,1964.8,396.8,1967.9,385.8z"/>
		</g>
		<path style="stroke:#000000;stroke-linecap:round;stroke-linejoin:round;stroke-miterlimit:10;" d="M1170.6,459.9
			c0,0,8.3-16.3,17.3-9.1c9,7.2,19,53.3,38.6,74.2c19.6,20.8,28.1,42.9,38.4,55.3c15.1,18,6.6,33.2,6.6,33.2h-130.8
			c0,0-177.1,0-182.1,0s-43.3,8.5-51.3,8.5s-26.7,0-26.7,0s0-69.5,0-86.5s-8.1-31.9-8.1-31.9"/>
		<path style="fill:#C45533;stroke:#000000;stroke-linecap:round;stroke-linejoin:round;stroke-miterlimit:10;" d="M853.9,677.6
			c-0.3,13-0.3,27.9-0.2,44.6h864.2l-5.7-44.6H853.9z"/>
		<g>
			<path style="fill:#EA7547;stroke:#000000;stroke-linecap:round;stroke-linejoin:round;stroke-miterlimit:10;" d="M1777.9,682.5
				l-6-46.7c-1.4-10.5-10.3-18.4-20.9-18.4h-746.7c-34.8,0-119.8,0-143,0c-16.7,0-20.2,24.2-20.8,67.5c-0.2,11.8,9.3,21.4,21.1,21.4
				H1757C1769.7,706.3,1779.5,695.1,1777.9,682.5z"/>
			<path style="fill:#FAC165;stroke:#000000;stroke-linecap:round;stroke-linejoin:round;stroke-miterlimit:10;" d="M1636.6,722.2
				c-0.2-71.6-1-113,20.9-113c-188.8,0-571.7,0-594.7,0c-34.8,0-119.8,0-143,0c-21.9,0-21.1,41.4-20.9,113H1636.6z"/>
			<path style="stroke:#000000;stroke-linecap:round;stroke-linejoin:round;stroke-miterlimit:10;" d="M1699.6,617.3V609h-34.4
				l-10.6,0.3c-19.9,2.5-18.1,43.6-18,112.9h12c-0.1-53.1-1.9-97.1,8.1-104.9H1699.6z"/>
		</g>
		<g>
			<path style="fill:#EA7547;stroke:#000000;stroke-linecap:round;stroke-linejoin:round;stroke-miterlimit:10;" d="M1812.1,488.1
				h-93.5c-16.3,0-29.7,18-29.7,40v194.1h123.1L1812.1,488.1L1812.1,488.1z"/>
			<path style="fill:#F28361;stroke:#000000;stroke-linecap:round;stroke-linejoin:round;stroke-miterlimit:10;" d="M1960.2,722.2
				V488.1h-222.9c12.8,7.8,21.9,25.2,21.9,45.3v188.8H1960.2z"/>
		</g>
		<path style="fill:#FFFFFF;stroke:#000000;stroke-linecap:round;stroke-linejoin:round;stroke-miterlimit:10;" d="M1244.3,581.2
			c0,0,18,13.2,15.4,23.4c-1.6,5.3-18.1-5.3-18.1-5.3s-49.4,5.3-122.4,11c-41.1,3.2-76.9,9.6-146.9,7.6C960,633.1,953,634.3,953,613
			c-66.2-45.6-76.4-99.5-98.1-156.5c0,0-14.6-12.3-14.5-20.2c0.1-7.9,32.2,1.5,32.2,1.5s115.8-58.8,267.5-4.3
			c17.3-4.5,37.2-14.6,31.9,15.4C1200.1,485.7,1228.8,523,1244.3,581.2z"/>
		<path style="fill:#F2B45A;stroke:#000000;stroke-linecap:round;stroke-linejoin:round;stroke-miterlimit:10;" d="M955.1,593.7
			c0,0-19-59.1-87.4-128C891.1,504.4,931.9,575.7,955.1,593.7z"/>
		<path style="fill:none;stroke:#000000;stroke-linecap:round;stroke-linejoin:round;stroke-miterlimit:10;" d="M970.4,612.2
			c0,0,59.5-13.2,76.8-19.2"/>
		<path style="fill:none;stroke:#000000;stroke-linecap:round;stroke-linejoin:round;stroke-miterlimit:10;" d="M1050.2,446.9
			c0,0,49.5-22,95.9-5.7"/>
	</g>
	<g id="wardrobe_1_">
		<g>

				<rect x="11.6" y="334.4" style="fill:#8A9994;stroke:#000000;stroke-linecap:round;stroke-linejoin:round;stroke-miterlimit:10;" width="180" height="387.8"/>

				<rect x="191.6" y="334.4" style="fill:#FFFFFF;stroke:#000000;stroke-linecap:round;stroke-linejoin:round;stroke-miterlimit:10;" width="341.3" height="387.8"/>
			<polygon style="stroke:#000000;stroke-linecap:round;stroke-linejoin:round;stroke-miterlimit:10;" points="524.6,722.2
				524.6,347.4 256.3,347.4 199.8,347.4 199.8,722.2 			"/>
			<g>

					<rect x="0.5" y="321.3" style="fill:#8A9994;stroke:#000000;stroke-linecap:round;stroke-linejoin:round;stroke-miterlimit:10;" width="184.4" height="17.6"/>

					<rect x="184.9" y="321.3" style="fill:#FFFFFF;stroke:#000000;stroke-linecap:round;stroke-linejoin:round;stroke-miterlimit:10;" width="361.2" height="17.6"/>
			</g>
			<g>

					<rect x="199.5" y="472.2" style="fill:#FFFFFF;stroke:#000000;stroke-linecap:round;stroke-linejoin:round;stroke-miterlimit:10;" width="324.8" height="121.6"/>

					<polyline id="shadow" style="fill:#C8CECC;stroke:#000000;stroke-linecap:round;stroke-linejoin:round;stroke-miterlimit:10;" points="
					199.5,514 199.5,472.2 524.3,472.2 524.3,514 				"/>
				<g>

						<rect x="337.2" y="493.7" style="fill:#C8CECC;stroke:#000000;stroke-linecap:round;stroke-linejoin:round;stroke-miterlimit:10;" width="61.5" height="32.8"/>

						<rect x="347.1" y="493.4" style="fill:#C8CECC;stroke:#000000;stroke-linecap:round;stroke-linejoin:round;stroke-miterlimit:10;" width="61.5" height="20.6"/>
					<polygon style="stroke:#000000;stroke-linecap:round;stroke-linejoin:round;stroke-miterlimit:10;" points="347.1,493.4
						347.1,493.4 333.3,493.6 333.3,526.4 337.4,526.5 337.4,497.7 343.2,497.5 343.2,513.8 347.3,513.9 347.3,493.4 					"/>
				</g>
			</g>
			<g>

					<rect x="199.5" y="596.4" style="fill:#FFFFFF;stroke:#000000;stroke-linecap:round;stroke-linejoin:round;stroke-miterlimit:10;" width="324.8" height="121.6"/>
				<g>

						<rect x="337.2" y="620.3" style="fill:#C8CECC;stroke:#000000;stroke-linecap:round;stroke-linejoin:round;stroke-miterlimit:10;" width="61.5" height="32.8"/>

						<rect x="347.1" y="619.9" style="fill:#FFFFFF;stroke:#000000;stroke-linecap:round;stroke-linejoin:round;stroke-miterlimit:10;" width="61.5" height="20.6"/>
					<polygon style="stroke:#000000;stroke-linecap:round;stroke-linejoin:round;stroke-miterlimit:10;" points="347.1,620
						347.1,619.9 333.3,620.1 333.3,652.9 337.4,653 337.4,624.3 343.2,624 343.2,640.4 347.3,640.5 347.3,619.9 					"/>
				</g>
			</g>
			<g id="drawer">

					<rect id="side" x="205.3" y="380.5" style="fill:#8A9994;stroke:#000000;stroke-linecap:round;stroke-linejoin:round;stroke-miterlimit:10;" width="209.5" height="89.1"/>
				<g id="front">

						<rect x="241.4" y="348.2" style="fill:#C8CECC;stroke:#000000;stroke-linecap:round;stroke-linejoin:round;stroke-miterlimit:10;" width="11.2" height="121.6"/>

						<rect x="252.4" y="348.2" style="fill:#FFFFFF;stroke:#000000;stroke-linecap:round;stroke-linejoin:round;stroke-miterlimit:10;" width="324.8" height="121.6"/>
					<g>

							<rect x="390.1" y="369.7" style="fill:#C8CECC;stroke:#000000;stroke-linecap:round;stroke-linejoin:round;stroke-miterlimit:10;" width="61.5" height="32.8"/>

							<rect x="400" y="369.4" style="fill:#FFFFFF;stroke:#000000;stroke-linecap:round;stroke-linejoin:round;stroke-miterlimit:10;" width="61.5" height="20.6"/>
						<polygon style="stroke:#000000;stroke-linecap:round;stroke-linejoin:round;stroke-miterlimit:10;" points="400,369.4
							400,369.4 386.2,369.6 386.2,402.4 390.3,402.5 390.3,373.7 396.1,373.5 396.1,389.8 400.2,389.9 400.2,369.4 						"/>
					</g>
					<g id="sleve_1_">
						<path style="stroke:#000000;stroke-linecap:round;stroke-linejoin:round;stroke-miterlimit:10;" d="M275.3,343.9
							c0,0,13.5,38.1,17.8,47.6s1.9,30.9,4.7,40.5c2.8,9.6,5,15.2,5,15.2v15h24.8c0,0,30.1-80.9,28.2-94.4
							c-1.9-13.6-55.2-21.3-55.2-21.3"/>
						<path style="fill:#D1623F;stroke:#000000;stroke-linecap:round;stroke-linejoin:round;stroke-miterlimit:10;" d="M326.7,330
							c6.5-0.8,22.5-2.5,39.1,5c8,3.6,8.6,19.4,10,39.9c1.4,20.4-4.2,30.9-7.5,38.3s-2.5,34.1-2.5,34.1s-52.3-1.3-54-2.7
							c-1.8-1.4-9.1-7.6-9.1-41.7c0-14,3-9.1-11.5-27.9s-25.4-27.6-25.4-27.6l-8.8,0.3c0,0,14.5-10.7,36-13.1
							C314.6,332.2,320.2,330.8,326.7,330z"/>
						<g>
							<path style="fill:#FFFFFF;" d="M344.7,443.1c0.6-7.4,1.2-14.8,1.1-22.3c-0.1-8.2-1.1-16.3-2.5-24.4c-1.4-7.8-3-15.6-4.1-23.5
								c-0.6-4-1-8.1-1.1-12.1c-0.1-3.8,0.2-7.7,0.1-11.5c0-4.1-1-7.8-3.8-10.9c-2.3-2.7-5-5.1-7.6-7.6c0,0,0,0-0.1,0
								c0,0-1.3,0.2-3.9,0.6c2.8,2.7,5.7,5.4,8.4,8.3c2.6,2.7,3.7,5.5,3.8,9.2c0.1,3.6-0.3,7.3-0.2,10.9c0.1,3.9,0.5,7.7,1,11.5
								c2,15.6,6.3,30.9,6.7,46.8c0.2,8.7-0.4,17.4-1.2,26.1C342.4,444,343.6,443.6,344.7,443.1z"/>
							<path style="fill:#FFFFFF;" d="M329.6,425c0.5-4.1,0.9-8.2,0.6-12.3c-0.3-4.6-1.4-9.2-2.4-13.7c-1-4.6-1.6-9.2-1.5-13.9
								c0.2-4.8,0.9-9.5,1.3-14.2c0.6-7.7,0.2-16.4-4.6-22.9c-2.7-3.7-6.5-6.1-10.5-8.2c-3.5-1.8-7.1-3.6-10.7-5.3
								c-1.8,0.2-3.7,0.4-5.6,0.7c0.1,0.2,0.3,0.3,0.5,0.4c4.2,2.1,8.4,4.1,12.6,6.3c3.5,1.8,7.1,3.7,9.8,6.6
								c5.5,5.8,5.9,14.5,5.3,22c-0.4,4.8-1.1,9.5-1.3,14.2c-0.2,4.7,0.3,9.2,1.3,13.8c0.9,4.4,2.1,8.8,2.5,13.3
								c0.4,4.1,0,8.3-0.4,12.4c-0.9,8.3-2.2,17.2,1.9,24.9c1-0.3,2-0.7,3.1-1.1C327.4,441,328.7,432.6,329.6,425z"/>
							<path style="fill:#FFFFFF;" d="M334.1,447c1.1-0.4,2.2-0.8,3.3-1.2c1.8-17.5-0.2-35.1-2.4-52.5c-1.1-8.9-2.3-17.8-3.4-26.7
								c-0.6-4.5-1.2-9-1.7-13.4c-0.5-4-1.1-8-2.9-11.6c-2-4-5.3-7.1-9.2-9.2c-2,0.3-4.3,0.6-7,1c5.6,0.9,10.7,4.6,13.3,9.7
								c1.8,3.4,2.2,7.4,2.7,11.2c0.5,4.2,1.1,8.5,1.6,12.7c2.2,17,4.8,34,6.1,51c0.7,9.6,0.8,19.3-0.3,28.8
								C334.1,446.8,334.1,446.9,334.1,447z"/>
						</g>
						<path style="fill:#EA7547;stroke:#000000;stroke-linecap:round;stroke-linejoin:round;stroke-miterlimit:10;" d="M314.1,463.6
							c0,0,26.2,1.4,35-1.5c14.3-4.6,17.5-9.8,17.5-9.8l-0.8-17.3c0,0-16.7,6.4-33.5,9.6c-7.8,1.5-20.5-0.1-20.5-0.1L314.1,463.6z"
							/>
						<path style="fill:none;stroke:#000000;stroke-linecap:round;stroke-linejoin:round;stroke-miterlimit:10;" d="M309.1,386.6
							c0,0,20.4-35.7,36.8-42.8"/>
					</g>
				</g>
			</g>
		</g>
	</g>
	<g id="tv_1_">

			<rect x="98.8" y="290" style="stroke:#000000;stroke-linecap:round;stroke-linejoin:round;stroke-miterlimit:10;" width="389.2" height="30.8"/>
		<path style="fill:#5C6864;stroke:#000000;stroke-linecap:round;stroke-linejoin:round;stroke-miterlimit:10;" d="M381.6,306.7H88
			c-5.7,0-10.4-5-10.4-11V143.9c0-6.1,4.8-10.2,12.4-14.3L381.6,0.5c5.7,0,10.4,5,10.4,11v284.2C392,301.8,387.3,306.7,381.6,306.7z
			"/>
		<path style="fill:#5C6864;stroke:#000000;stroke-linecap:round;stroke-linejoin:round;stroke-miterlimit:10;" d="M434.8,306.7
			H140.5c-5.5,0-10-4.5-10-10V10.5c0-5.5,4.5-10,10-10h294.3c5.5,0,10,4.5,10,10v286.2C444.8,302.2,440.3,306.7,434.8,306.7z"/>
		<path style="fill:#A6B2AE;stroke:#000000;stroke-linecap:round;stroke-linejoin:round;stroke-miterlimit:10;" d="M500.3,306.7H206
			c-5.5,0-10-4.5-10-10V10.5c0-5.5,4.5-10,10-10h294.3c5.5,0,10,4.5,10,10v286.2C510.3,302.2,505.8,306.7,500.3,306.7z"/>
		<path style="stroke:#000000;stroke-linecap:round;stroke-linejoin:round;stroke-miterlimit:10;" d="M510.3,260.1V11.5
			c0-6.1-4.1-11-9-11H205c-5,0-9,5-9,11V260h314.3V260.1z"/>
		<g>
			<path style="fill:#5C6864;" d="M500.3,253.8h-295c-0.8,0-1.5-0.7-1.5-1.5V12.5c0-0.8,0.7-1.5,1.5-1.5h295c0.8,0,1.5,0.7,1.5,1.5
				v239.8C501.8,253.1,501.1,253.8,500.3,253.8z M206.8,250.8h292V14h-292L206.8,250.8L206.8,250.8z"/>
		</g>
		<rect x="326.8" y="276" style="fill:#C8CECC;" width="62.7" height="12.9"/>
		<g>
			<path style="stroke:#000000;stroke-linecap:round;stroke-linejoin:round;stroke-miterlimit:10;" d="M119.6,158.2H88.2
				c-1.2,0-2.3-1-2.3-2.3v-0.5c0-1.2,1-2.3,2.3-2.3h31.4c1.2,0,2.3,1,2.3,2.3v0.5C121.8,157.2,120.8,158.2,119.6,158.2z"/>
			<path style="stroke:#000000;stroke-linecap:round;stroke-linejoin:round;stroke-miterlimit:10;" d="M119.6,174.8H88.2
				c-1.2,0-2.3-1-2.3-2.3V172c0-1.2,1-2.3,2.3-2.3h31.4c1.2,0,2.3,1,2.3,2.3v0.5C121.8,173.8,120.8,174.8,119.6,174.8z"/>
			<path style="stroke:#000000;stroke-linecap:round;stroke-linejoin:round;stroke-miterlimit:10;" d="M119.6,191.3H88.2
				c-1.2,0-2.3-1-2.3-2.3v-0.5c0-1.2,1-2.3,2.3-2.3h31.4c1.2,0,2.3,1,2.3,2.3v0.5C121.8,190.3,120.8,191.3,119.6,191.3z"/>
			<path style="stroke:#000000;stroke-linecap:round;stroke-linejoin:round;stroke-miterlimit:10;" d="M119.6,207.8H88.2
				c-1.2,0-2.3-1-2.3-2.3V205c0-1.2,1-2.3,2.3-2.3h31.4c1.2,0,2.3,1,2.3,2.3v0.5C121.8,206.8,120.8,207.8,119.6,207.8z"/>
			<path style="stroke:#000000;stroke-linecap:round;stroke-linejoin:round;stroke-miterlimit:10;" d="M119.6,224.3H88.2
				c-1.2,0-2.3-1-2.3-2.3v-0.5c0-1.2,1-2.3,2.3-2.3h31.4c1.2,0,2.3,1,2.3,2.3v0.5C121.8,223.3,120.8,224.3,119.6,224.3z"/>
			<path style="stroke:#000000;stroke-linecap:round;stroke-linejoin:round;stroke-miterlimit:10;" d="M119.6,240.9H88.2
				c-1.2,0-2.3-1-2.3-2.3v-0.5c0-1.2,1-2.3,2.3-2.3h31.4c1.2,0,2.3,1,2.3,2.3v0.5C121.8,239.9,120.8,240.9,119.6,240.9z"/>
			<path style="stroke:#000000;stroke-linecap:round;stroke-linejoin:round;stroke-miterlimit:10;" d="M119.6,257.4H88.2
				c-1.2,0-2.3-1-2.3-2.3v-0.5c0-1.2,1-2.3,2.3-2.3h31.4c1.2,0,2.3,1,2.3,2.3v0.5C121.8,256.4,120.8,257.4,119.6,257.4z"/>
			<path style="stroke:#000000;stroke-linecap:round;stroke-linejoin:round;stroke-miterlimit:10;" d="M119.6,273.9H88.2
				c-1.2,0-2.3-1-2.3-2.3v-0.5c0-1.2,1-2.3,2.3-2.3h31.4c1.2,0,2.3,1,2.3,2.3v0.5C121.8,272.9,120.8,273.9,119.6,273.9z"/>
		</g>
		<g id="buttons-off">
			<g id="button-3">
				<path style="fill:#D89844;stroke:#000000;stroke-linecap:round;stroke-linejoin:round;stroke-miterlimit:10;" d="M256.2,275.7
					h-2c-3.7,0-6.7,3.2-6.7,7.1s3,7.1,6.7,7.1h2V275.7z"/>

					<ellipse style="fill:#F2B45A;stroke:#000000;stroke-linecap:round;stroke-linejoin:round;stroke-miterlimit:10;" cx="256.2" cy="282.8" rx="6.7" ry="7.1"/>
			</g>
			<g id="button-2">
				<path style="fill:#D89844;stroke:#000000;stroke-linecap:round;stroke-linejoin:round;stroke-miterlimit:10;" d="M281.3,275.7
					h-2c-3.7,0-6.7,3.2-6.7,7.1s3,7.1,6.7,7.1h2V275.7z"/>

					<ellipse style="fill:#F2B45A;stroke:#000000;stroke-linecap:round;stroke-linejoin:round;stroke-miterlimit:10;" cx="281.3" cy="282.8" rx="6.7" ry="7.1"/>
			</g>
			<g id="button-1">
				<path style="fill:#D89844;stroke:#000000;stroke-linecap:round;stroke-linejoin:round;stroke-miterlimit:10;" d="M306.3,275.7
					h-2c-3.7,0-6.7,3.2-6.7,7.1s3,7.1,6.7,7.1h2V275.7z"/>

					<ellipse style="fill:#F2B45A;stroke:#000000;stroke-linecap:round;stroke-linejoin:round;stroke-miterlimit:10;" cx="306.3" cy="282.8" rx="6.7" ry="7.1"/>
			</g>
			<g id="button-off">

					<rect x="210.5" y="274.6" style="fill:#B74B2E;stroke:#000000;stroke-linecap:round;stroke-linejoin:round;stroke-miterlimit:10;" width="7" height="15.9"/>

					<rect x="212.5" y="274.6" style="fill:#E06241;stroke:#000000;stroke-linecap:round;stroke-linejoin:round;stroke-miterlimit:10;" width="23.1" height="15.9"/>
			</g>
		</g>
		<g id="buttons-on">
			<g id="button-3_1_">
				<path style="fill:#D89844;stroke:#000000;stroke-linecap:round;stroke-linejoin:round;stroke-miterlimit:10;" d="M260.2,275.7
					h-6c-3.7,0-6.7,3.2-6.7,7.1s3,7.1,6.7,7.1h6V275.7z"/>

					<ellipse style="fill:#F2B45A;stroke:#000000;stroke-linecap:round;stroke-linejoin:round;stroke-miterlimit:10;" cx="260.2" cy="282.8" rx="6.7" ry="7.1"/>
			</g>
			<g id="button-2_1_">
				<path style="fill:#D89844;stroke:#000000;stroke-linecap:round;stroke-linejoin:round;stroke-miterlimit:10;" d="M285.3,275.7
					h-6c-3.7,0-6.7,3.2-6.7,7.1s3,7.1,6.7,7.1h6V275.7z"/>

					<ellipse style="fill:#F2B45A;stroke:#000000;stroke-linecap:round;stroke-linejoin:round;stroke-miterlimit:10;" cx="285.3" cy="282.8" rx="6.7" ry="7.1"/>
			</g>
			<g id="button-1_1_">
				<path style="fill:#D89844;stroke:#000000;stroke-linecap:round;stroke-linejoin:round;stroke-miterlimit:10;" d="M310.3,275.7
					h-6c-3.7,0-6.7,3.2-6.7,7.1s3,7.1,6.7,7.1h6V275.7z"/>

					<ellipse style="fill:#F2B45A;stroke:#000000;stroke-linecap:round;stroke-linejoin:round;stroke-miterlimit:10;" cx="310.3" cy="282.8" rx="6.7" ry="7.1"/>
			</g>
			<g id="button-off_1_">

					<rect x="210.5" y="274.6" style="fill:#B74B2E;stroke:#000000;stroke-linecap:round;stroke-linejoin:round;stroke-miterlimit:10;" width="7" height="15.9"/>

					<rect x="217.5" y="274.6" style="fill:#E06241;stroke:#000000;stroke-linecap:round;stroke-linejoin:round;stroke-miterlimit:10;" width="23.1" height="15.9"/>
			</g>
		</g>
		<g style="enable-background:new    ;">
			<path style="fill:#EA7547;" d="M290.3,108c1,0,1.9,1.5,2.5,4.4c2.8,7.9,5.4,17.3,7.8,28.3h0.1c0.3-7.1,0.4-15.4,0.4-24.8v-6.7
				c0-0.7,0.3-1,1-1c1.9,0,2.9,0.8,2.9,2.5c0,13.8-0.2,29.6-0.6,47.4c-0.1,0.7-0.6,1-1.4,1c-0.3,0-0.6,0-0.9-0.1
				c-1.4-0.2-2.2-0.9-2.2-1.9c-2.7-13.7-5.4-24.8-8-33.3h-0.1c0.3,8.3,0.5,15.1,0.5,20.5c0,2.9-0.1,7.5-0.2,14
				c-0.4,0.5-0.8,0.7-1.3,0.7c-1.7-0.4-2.6-1.5-2.6-3.2c-0.1-12.7-0.1-22-0.1-27.8v-4c0-3,0-7.6-0.1-13.9c-0.1-0.2-0.1-0.3-0.1-0.4
				C287.9,108.8,288.7,108.3,290.3,108z"/>
			<path style="fill:#EA7547;" d="M324.4,108.7c0.3,0,0.4,0.6,0.4,1.9v1.5c0,1-0.4,1.5-1.1,1.5h-1.4c-2.3,0-4.7,0.1-7.2,0.3
				c0,0.6,0.2,5.6,0.6,14.9l7-0.2c0.5,0,0.8,0.9,0.8,2.7c0,1.6-0.4,2.4-1.2,2.4l-6.5,0.4c0.1,8.6,0.3,14.5,0.4,17.7
				c1.8-0.3,4.3-0.5,7.6-0.7c0.5,0,0.9,0.6,1,1.7v1.5c0,1.5-0.6,2.2-1.9,2.2c-4.6,0.3-8.2,0.5-10.7,0.5c-0.2-0.5-0.3-1.3-0.3-2.4
				v-17c0-8.3-0.4-17.5-1.2-27.6c0.2-0.8,0.8-1.2,2-1.2L324.4,108.7L324.4,108.7z"/>
			<path style="fill:#EA7547;" d="M343.9,109.1h2.3c2.5,0,3.7,0.5,3.7,1.6v0.9c0,1.6-0.4,2.4-1.2,2.4c-1.9,0-4.3,0.1-7.2,0.3
				c0.2,3.9,0.3,8.7,0.3,14.4v11.5c0,5.7-0.1,11.2-0.2,16.5c-0.3,0.6-0.8,0.9-1.6,0.9h-0.2c-1.5-0.2-2.2-0.8-2.2-1.9
				c0-5.7,0-19.4,0.1-41.1l-7.8,0.4c-0.3-0.4-0.4-0.9-0.4-1.5c0-2.3,1.1-3.5,3.2-3.5C338.4,109.4,342.1,109.1,343.9,109.1z"/>
			<path style="fill:#EA7547;" d="M357,107.4c5.2,0.7,10.1,1.2,14.7,1.4c0.3,0.4,0.4,1.1,0.4,2.2c-0.1,1.8-0.3,2.7-0.6,2.7h-1.2
				c-1,0-4.5-0.3-10.7-0.9c0.1,8.4,0.1,13.8,0.2,16.4l11.2,0.2l0.2,0.4v1.2c-0.1,2.3-0.6,3.5-1.4,3.5h-0.1c-1.1,0-4.3,0-9.6-0.1
				c0.1,3.8,0.2,9.6,0.2,17.5c0,1.7,0.1,3.5,0.2,5.5c-0.5,0.6-1.2,0.9-2,0.9h-0.7c-1,0-1.5-0.5-1.5-1.5c-0.2,0-0.5-15.4-0.7-46.3
				V109C355.4,108,356,107.4,357,107.4z"/>
			<path style="fill:#EA7547;" d="M380.4,107.8c1.3,0,1.9,0.5,1.9,1.4v6.4c0,3.9,0.2,10.6,0.6,20.2c-0.1,7.6-0.1,12.7-0.1,15.4
				c0.1,0,0.1,0,0.1-0.1c2.4-0.2,4.8-0.2,7.1-0.2h0.7c0.8,0,1.9,0,3.5,0.1c0.5,0.5,0.7,1.3,0.7,2.2v0.4c0,1.8-0.5,2.8-1.4,3.1h-1
				c-5.6,0-10,0.3-13.2,0.9c-0.5-0.4-0.7-1.6-0.7-3.4c0-3.4,0-5.6-0.1-6.7l0.2-15.2c-0.5-4.9-0.7-10.2-0.7-16v-7.5
				C378.3,108.1,379,107.8,380.4,107.8z"/>
			<path style="fill:#EA7547;" d="M403.2,108.2c0.7,0,1.2,1.3,1.3,4c0.3,15.8,0.6,30.1,1.1,42.9c-0.2,1.2-1,1.9-2.3,1.9h-0.2
				c-0.7,0-1.3-0.3-1.6-1c-0.6-17.9-1-33.3-1.3-46.2c0-1,0.5-1.5,1.6-1.5L403.2,108.2z"/>
			<path style="fill:#EA7547;" d="M425.4,108.2c1.6,0.6,2.4,1.3,2.4,2.2v0.3c-2.4,7.7-4.5,15.3-6.2,22.8l5.6,23.2
				c0,1.1-0.6,1.8-1.9,2.1h-0.9c-0.8-0.3-1.5-2.1-2.3-5.2c-0.3-1.3-1.3-5.4-3.1-12.4h-0.1c-1.3,6.5-2.5,11.9-3.8,16.1
				c-0.5,0.5-0.8,0.7-1.1,0.7c-1.2,0-2-0.5-2.5-1.6v-0.1c1-5.8,2.7-13.4,5-22.8c-1.3-5.9-2.5-10.7-3.4-14.4
				c-1.5-4.4-2.3-7.3-2.3-8.7c0-0.7,0.9-1.2,2.7-1.4c1.4,0,3.3,5.6,5.6,16.7v0.1h0.1C421.8,114.1,423.9,108.2,425.4,108.2z"/>
		</g>
	</g>
</g>
</svg>
