<?xml version="1.0" encoding="utf-8"?>
<!-- Generator: Adobe Illustrator 24.0.1, SVG Export Plug-In . SVG Version: 6.00 Build 0)  -->
<svg version="1.1" xmlns="http://www.w3.org/2000/svg" xmlns:xlink="http://www.w3.org/1999/xlink" x="0px" y="0px"
	 viewBox="0 0 1894.1 1221.7" style="enable-background:new 0 0 1894.1 1221.7;" xml:space="preserve">
<rect x="1304.6" y="89.9" style="fill:#99D3FF;" width="490.6" height="692"/>
<g>
	<g id="cloud-3">
		<path id="XMLID_1_" style="fill:#FFFFFF;" d="M1823.8,762.3c-8.1-3.4-20.2,0-22.9,8.4c-3.6-3.9-12.1-2.2-14.5,2.6
			c1.6-4.6-1.3-10.2-5.9-11.5c-4.6-1.4-10.8,0.7-12,5.4c2.7-7.4,4.7-15.1,4.6-22.9c-0.1-7.8-2.5-15.8-7.8-21.6s-13.6-9-21.2-7
			s-13.5,8.9-12.4,16.6c-4.1-4.3-11-5.5-16.3-2.8s-8.4,9-7.3,14.8c-1.3-2-3.8-3.2-6.1-2.9c-2.4,0.3-3.6,2.3-4.3,4.6
			c-0.2-4.6-0.9-9.3-3.3-13.1c-2.5-3.9-7-6.6-11.5-5.8s-8.3,5.3-6.2,9.4c-7.6-5.8-18.3-7.3-27.2-3.7c-8.9,3.6-15.4,12.1-16.8,21.5
			c-0.2-4.8-3-9.5-7.3-11.7c-4.3-2.3-9.9-3.1-13.9-0.5c0.7-2.7-0.3-5.8-2.3-7.7c-2.1-1.9-5.2-2.6-7.8-1.7c1.2-5-0.5-11.1-4.6-14
			c2-4.1,1.5-9.4-1.3-13s-8-6.8-12.5-5.9c0.6-7.6-3.8-15.3-10.6-18.6c-6.8-3.3-16.2-1.7-21.8,3.4c-2.9-13-17.1-21.4-30.4-20.6
			c-13.3,0.8-25.2,9.3-33.3,19.8c-8,10.3-12.2,23.3-6.9,35.2c-5.6-2.1-12.6,2.9-12.5,8.9c-2.9-1.3-7.2,3.3-6.1,6.3
			c-8.7-4.4-20-3-27.4,3.4c-7.4,6.3-9.8,17.3-6.8,26.5c-3.6-4.1-9.6-5.8-14.8-4.1c-5.2,1.6-9.4,6.8-10,12.2
			c-2.5-2.1-6.3-2.6-9.3-1.3s-5.5,5.6-5.7,8.9c-4.6-19.3-29.9-27.1-48.5-20.6c-18.7,6.6-33.4,31.1-24.2,39.1
			c9.2,8.1,62.4,9.9,93.6,6.2c3.7,3.6,10.9,3,15.1,0c1.8-1.3,3.3-3.1,5.5-3.9c3.7-1.3,7.5,1.1,11.1,2.6c8.9,3.8,19.8,2,27.1-4.3
			c15.3,13.5,39.5,17.4,56.6,6.4c2.9,3.2,10.9,2.3,15.1,1.5c4.3-0.8,8.4-2.6,12.7-2.8c4.9-0.2,9.6,1.6,14.4,2.5
			c4.8,1,10.3,0.9,14-2.3c15.5,8.4,36.2,7.8,51.8-0.3c8.1,3.5,17.7,3,25.7-0.8c4.3,4.5,12.1,5.4,17,1.6c3.6,2.8,9.1,2.7,12.6-0.2
			c20.9,10.9,48.6,9.7,69.4-1.3c13.3,7.8,31.2,9.3,45.5,3.7c2.6-1,5.2-2.6,7.2-4.6c2.3,1,4.8,1.6,8.2,0.5
			c8.4-2.8,15.5-9.9,17.2-18.5C1836.4,775.5,1831.9,765.7,1823.8,762.3z"/>
		<g>
			<path style="fill:#CAEBFF;" d="M1822.3,800.6c4.7-2.7,5.4-9.4,1.2-12.9c0,0,0,0-0.1-0.1c-15.2-12.5-33.9-10.9-49,3.4
				c-3.1,2.9-7.8,3-10.9,0.2c-22.3-20.5-49.8-22.6-72-2.7c-2.6,2.3-6.4,2.4-9.4,0.6c-2.2-1.3-4.5-1.4-6.7-0.2
				c-2.7,1.4-5.9,1.4-8.4-0.3c-3.9-2.6-8.5-1.5-12.2,2.5c-2.5,2.8-6.7,3.2-9.9,1.3c-6.5-3.9-13.5-4.4-20-0.7c-2.9,1.6-6.5,1.3-9-0.9
				c-16.2-14.3-35.8-15.7-52-1.9c-2.8,2.4-6.8,2.4-9.8,0.3c-3.8-2.7-8.3-2.3-12.4-0.6c-5.7,2.4-11.4,6.9-17.2,6.3
				c-5.2-0.5-10.1-5-15.2-7.1c-3.6-1.5-9.5-3.1-13.9-0.9c-3.1,1.6-6.9,1.1-9.4-1.4c-18.5-18.3-41.9-10.5-58.6,15.5
				c0.4-0.2,0.8-0.4,1.2-0.6c3.7-1.3,7.5,1.1,11.1,2.6c7.3,3.1,16.1,2.5,23-1.4c2.7-1.5,5.9-1.2,8.4,0.5c14.1,9.9,33.6,12.6,48.8,5
				c1.9-0.9,4-1.1,6-0.4c3.7,1.3,9.3,0.6,12.7-0.1c4.3-0.8,8.4-2.6,12.7-2.8c4.9-0.2,9.6,1.6,14.4,2.5c3.7,0.8,7.9,0.9,11.3-0.6
				c2-0.9,4.3-0.8,6.3,0.1c14.1,6.1,31.5,5.5,45.6-0.8c1.7-0.8,3.6-0.8,5.4-0.3c6.2,1.9,13,1.7,19.2-0.3c2.2-0.7,4.6-0.4,6.7,0.7
				c3.4,1.9,7.8,2.3,11.4,0.9c1.8-0.7,3.7-0.7,5.6-0.1c2.3,0.8,4.8,0.7,7.1-0.1c2-0.8,4.2-0.7,6.2,0.2c19.2,8.5,43.3,7.6,62.4-1.2
				c2.2-1,4.7-1,6.9,0.1c12.8,6.2,29,7,42.1,1.8c1.5-0.6,3.1-1.4,4.5-2.3c1.7-1.1,3.7-1.6,5.7-1.3c1.5,0.3,3.3,0.2,5.3-0.5
				C1819.2,802.1,1820.8,801.4,1822.3,800.6z"/>
			<path style="fill:#CAEBFF;" d="M1391.6,796.7c-2.9-0.9-5.2,0.3-7.4,2.4c-2.4-5-5.6-8.9-8.6-11.4c-14.7-12.1-32.7-11-47.5,2
				c-4.8-0.4-9.8-0.6-14.8-0.6c-0.4-0.3-0.8-0.7-1.2-1c-0.8,4.2-0.2,7.9,2.5,10.2c9.2,8.1,62.4,9.9,93.6,6.2c3.4,3.3,9.8,3,14.1,0.6
				C1413.7,791.4,1401.6,788,1391.6,796.7z"/>
		</g>
		<path id="XMLID_3520_"
			  style="fill:none;stroke:#000000;stroke-linecap:round;stroke-linejoin:round;stroke-miterlimit:10;" d="
			M1823.8,762.3c-8.1-3.4-20.2,0-22.9,8.4c-3.6-3.9-12.1-2.2-14.5,2.6c1.6-4.6-1.3-10.2-5.9-11.5c-4.6-1.4-10.8,0.7-12,5.4
			c2.7-7.4,4.7-15.1,4.6-22.9c-0.1-7.8-2.5-15.8-7.8-21.6s-13.6-9-21.2-7s-13.5,8.9-12.4,16.6c-4.1-4.3-11-5.5-16.3-2.8
			s-8.4,9-7.3,14.8c-1.3-2-3.8-3.2-6.1-2.9c-2.4,0.3-3.6,2.3-4.3,4.6c-0.2-4.6-0.9-9.3-3.3-13.1c-2.5-3.9-7-6.6-11.5-5.8
			s-8.3,5.3-6.2,9.4c-7.6-5.8-18.3-7.3-27.2-3.7c-8.9,3.6-15.4,12.1-16.8,21.5c-0.2-4.8-3-9.5-7.3-11.7c-4.3-2.3-9.9-3.1-13.9-0.5
			c0.7-2.7-0.3-5.8-2.3-7.7c-2.1-1.9-5.2-2.6-7.8-1.7c1.2-5-0.5-11.1-4.6-14c2-4.1,1.5-9.4-1.3-13s-8-6.8-12.5-5.9
			c0.6-7.6-3.8-15.3-10.6-18.6c-6.8-3.3-16.2-1.7-21.8,3.4c-2.9-13-17.1-21.4-30.4-20.6c-13.3,0.8-25.2,9.3-33.3,19.8
			c-8,10.3-12.2,23.3-6.9,35.2c-5.6-2.1-12.6,2.9-12.5,8.9c-2.9-1.3-7.2,3.3-6.1,6.3c-8.7-4.4-20-3-27.4,3.4
			c-7.4,6.3-9.8,17.3-6.8,26.5c-3.6-4.1-9.6-5.8-14.8-4.1c-5.2,1.6-9.4,6.8-10,12.2c-2.5-2.1-6.3-2.6-9.3-1.3s-5.5,5.6-5.7,8.9
			c-4.6-19.3-29.9-27.1-48.5-20.6c-18.7,6.6-33.4,31.1-24.2,39.1c9.2,8.1,62.4,9.9,93.6,6.2c3.7,3.6,10.9,3,15.1,0
			c1.8-1.3,3.3-3.1,5.5-3.9c3.7-1.3,7.5,1.1,11.1,2.6c8.9,3.8,19.8,2,27.1-4.3c15.3,13.5,39.5,17.4,56.6,6.4
			c2.9,3.2,10.9,2.3,15.1,1.5c4.3-0.8,8.4-2.6,12.7-2.8c4.9-0.2,9.6,1.6,14.4,2.5c4.8,1,10.3,0.9,14-2.3c15.5,8.4,36.2,7.8,51.8-0.3
			c8.1,3.5,17.7,3,25.7-0.8c4.3,4.5,12.1,5.4,17,1.6c3.6,2.8,9.1,2.7,12.6-0.2c20.9,10.9,48.6,9.7,69.4-1.3
			c13.3,7.8,31.2,9.3,45.5,3.7c2.6-1,5.2-2.6,7.2-4.6c2.3,1,4.8,1.6,8.2,0.5c8.4-2.8,15.5-9.9,17.2-18.5
			C1836.4,775.5,1831.9,765.7,1823.8,762.3z"/>
	</g>
	<g id="cloud-2">
	<path style="fill:#FFFFFF;" d="M1706,461.8c-3.9,0.2-7.8,2-11.7,1.3c-2.1-0.4-3.8-1.4-5.6-2.5c-6.6-3.9-13.2-7.9-19.8-11.8
		c-1.2-0.7-2.5-1.5-4-1.4c-2.2,0.1-3.6,2-5.5,3c-5.2,2.6-10.9-2.3-14.6-6.4c-5.2-5.7-12-11.1-20.2-12.2
		c-3.4-7.6-11.9-12.9-21.8-12.9c-3.2,0-6.3,0.6-9.1,1.6c-12.6-6.8-30-24.6-51.8-20.4c-21.2,4.1-39.5,18.6-35.3,27.4
		c-1.4-0.2-2.9-0.4-4.4-0.4c-10.1,0-18.7,5.7-21.6,13.6c-2.8-1.9-6.4-3-10.2-3c-6,0-11.3,2.7-14.3,6.8c-0.8-0.6-1.6-1.1-2.4-1.6
		c-10.1-5.8-23.6-3-34.7,1.1c-7.6,2.8-14.9,6.1-21.4,10.5c-8.5,5.7-7.3,15.5,0.8,12c1.5-0.7,3.3,0.3,4.7,1c0.8,0.4,1.3,1.2,1.8,1.9
		c3.3,4.4,10.2,6.4,15.9,4.8c11.3-0.8,22.6,1,33.9,2c15.5,1.4,31.1,1.5,46.8,1.6c15.1,0.1,18.9-10.9,34-10.8
		c13.9,0.1,39.4,11.2,52.9,8.3c7.4-1.6,14.6-4,21.2-7.2c1-0.5,1.9-0.9,3-1.1c4.8-0.6,7,5.6,11.7,6.8c5.1,1.2,10.1-4.1,15.1-2.7
		c3.2,0.9,4.9,4.3,8.1,5.2c4.8,1.5,9.9-3.3,14.8-2c2.9,0.8,4.5,3.4,6.4,5.4c7,7.4,21.9,7.4,29,0.1c1.4-1.5,2.5-3.1,3.9-4.6
		c4-4.1,5.5-7,11.6-6.2C1720.5,470.5,1711.8,461.5,1706,461.8z"/>
		<path style="fill:#CAEBFF;" d="M1612.7,468c4.8-0.6,7,5.6,11.7,6.8c5.1,1.2,10.1-4.1,15.1-2.7c3.2,0.9,4.9,4.3,8.1,5.2
		c4.8,1.5,9.9-3.3,14.8-2c2.9,0.8,4.5,3.4,6.4,5.4c7,7.4,21.9,7.4,29,0.1c1.4-1.5,2.5-3.1,3.9-4.6c4-4.1,5.7-7.2,11.6-7.1
		c-0.1-0.5,0.2,0.5,0,0c-10.4-4.8-14.6,1.6-21.7-0.7c-12.3-2.9-23.8-6-34.8-2.9c-10.7,3.1-20.6-6.1-28.5-3.4c-11.5,4-22.7-4-28-3.2
		c-3.2,0.5-6.5,2-9.4,0.8c-1.5-0.6-2.6-1.9-4-2.7c-4.7-2.7-10.8,0.6-15.5,3.4s-12,4.9-15.2,0.9c-2.6-3.2-1-8.9-5.2-10.3
		c-1.6-0.6-3.5-0.1-5.1,0.4c-5.4,1.9-10.3,9.6-15.5,7.2c-10.1-4.6-26.6,7.6-40.1,3.9c-16.1-4.2-12.8,11.1-33.5,8.4
		c-6.9-0.9-13.8-5.5-20.4-3.6c-12.1,3.4-14.8-10.2-24.7-6.5c-7.8,3-17.5,4.5-20,2.6c-0.9,0.8-0.1,5.9,6.5,4.7
		c1.7-0.3,3.3-0.5,4.8,0.2c0.8,0.4,1.3,1.2,1.8,1.9c3.3,4.4,13.2,9.7,19.7,7.3c13.1-2.9,23.5,9.3,34,5.4
		c18.3-6.7,32.3-1.5,47.3-1.3c15.1,0.2,27.7-10.6,40.8-4.1c17.5,8.7,28.1,1.5,41.7-1.3c7.4-1.6,14.6-4,21.2-7.2
		C1610.7,468.6,1611.6,468.1,1612.7,468z"/>
		<path style="fill:none;stroke:#000000;stroke-linecap:round;stroke-linejoin:round;stroke-miterlimit:10;" d="M1706,461.8
		c-3.9,0.2-7.8,2-11.7,1.3c-2.1-0.4-3.8-1.4-5.6-2.5c-6.6-3.9-13.2-7.9-19.8-11.8c-1.2-0.7-2.5-1.5-4-1.4c-2.2,0.1-3.6,2-5.5,3
		c-5.2,2.6-10.9-2.3-14.6-6.4c-5.2-5.7-12-11.1-20.2-12.2c-3.4-7.6-11.9-12.9-21.8-12.9c-3.2,0-6.3,0.6-9.1,1.6
		c-12.6-6.8-30-24.6-51.8-20.4c-21.2,4.1-39.5,18.6-35.3,27.4c-1.4-0.2-2.9-0.4-4.4-0.4c-10.1,0-18.7,5.7-21.6,13.6
		c-2.8-1.9-6.4-3-10.2-3c-6,0-11.3,2.7-14.3,6.8c-0.8-0.6-1.6-1.1-2.4-1.6c-10.1-5.8-23.6-3-34.7,1.1c-7.6,2.8-14.9,6.1-21.4,10.5
		c-4.1,2.7-5.9,6.4-5.8,9.1c-0.7,1,0.2,5.7,6.6,4.6c1.7-0.3,3.3-0.5,4.8,0.2c0.8,0.4,1.3,1.2,1.8,1.9c3.3,4.4,13.2,9.7,19.7,7.3
		c13.1-2.9,23.5,9.3,34,5.4c18.3-6.7,32.3-1.5,47.3-1.3c15.1,0.2,27.7-10.6,40.8-4.1c17.5,8.7,28.1,1.5,41.7-1.3
		c7.4-1.6,14.6-4,21.2-7.2c1-0.5,1.9-0.9,3-1.1c4.8-0.6,7,5.6,11.7,6.8c5.1,1.2,10.1-4.1,15.1-2.7c3.2,0.9,4.9,4.3,8.1,5.2
		c4.8,1.5,9.9-3.3,14.8-2c2.9,0.8,4.5,3.4,6.4,5.4c7,7.4,21.9,7.4,29,0.1c1.4-1.5,2.5-3.1,3.9-4.6c4-4.1,5.7-7.2,11.6-7.1
		c0.1,0.2,0.1,0.1,0,0C1720.5,470.5,1711.8,461.5,1706,461.8z"/>
</g>
	<g id="cloud-1">
	<path style="fill-rule:evenodd;clip-rule:evenodd;fill:#FFFFFF;" d="M1689.7,609.7c-0.7,0-1.4,0.1-2.1,0.2c-2-2.5-5.2-4.1-8.9-4.1
		c-3.1,0-5.9,1.1-7.9,3c-1.7-0.8-3.6-1.3-5.6-1.4c0-0.3,0.1-0.6,0.1-0.9c0-5.8-5.3-10.6-11.8-10.6c-0.2,0-0.3,0-0.5,0
		c-3.9-5.7-10.9-9.5-18.9-9.5c-0.6-0.6-1.1-1.1-1.8-1.6c2.3-3.1,3.6-6.9,3.6-10.9c0-11.1-10-20.1-22.4-20.1
		c-10.4,0-19.2,6.4-21.7,15c-0.1,0.2-0.2,0.5-0.2,0.7c-0.1,0.3-0.2,0.7-0.2,1c-2.3,0.4-4.5,1.2-6.4,2.3c0-0.3,0-0.5,0-0.8
		c0-0.6,0-1.2-0.1-1.8c0.3-2.5-0.4-4.4-2.1-5.9c-0.6-1-1.4-1.9-2.2-2.8c0-0.1,0-0.2,0.1-0.3c1-1.3,1.4-2.8,1-4.2
		c-0.2-0.6-0.5-1.2-0.9-1.7c-0.8-3.9-3.2-7.2-6.6-9.5c0.4-1.3,0.6-2.6,0.6-3.9c0-3.4-1.2-6.5-3.3-9.1c0.3-1.7,0.2-3.5,0-5.4
		c0-0.1,0-0.2-0.1-0.4c0.3-1.2,0.5-2.4,0.5-3.7c0-8.6-7.8-15.5-17.3-15.5c-1.6,0-3.1,0.2-4.6,0.6c-2.3,0.2-4.3,1-6.2,2.5
		c-0.5-0.4-1.1-0.7-1.7-0.9c-0.9-0.7-2-1-3.3-1c-0.9,0-1.8,0.2-2.6,0.6c-2.5,0.6-4.5,2.2-5.5,4.3l0,0c-0.1,0-0.1,0-0.2,0
		c-0.9,0.1-1.8,0.2-2.7,0.4c-0.3,0-0.6,0.1-0.9,0.1l0,0l-0.2,0.1l-0.7,0.1l0.1,0.1c-1.8,0.8-3.1,2.1-3.8,4.1
		c-0.5,1-0.8,2.1-0.8,3.2c0,0.3,0,0.7,0.1,1c0,0.1,0,0.2,0,0.2c-0.4-0.2-0.8-0.4-1.2-0.5c-5.8-3.2-12.5-5-19.6-5
		c-19.5,0-35.7,13.7-39.4,31.8c-1.6,5.9-1.7,12-0.4,18.3c0.5,2.3,1.4,5.2,3.8,7.1c0.4,0.8,0.8,1.6,1.3,2.3c-1.5,0.5-3,1.5-4.5,3.1
		c-2.3,2.4-2.8,5.3-1.3,8.3l-1.8,1.3c-1.2,0.3-2.3,0.8-3.3,1.5c-3.8-6.3-11.2-10.6-19.8-10.6c-2,0-4,0.2-5.9,0.7
		c-1.5,0.3-2.9,0.7-4.1,1.3c-0.6,0.3-1.2,0.6-1.7,0.9c-3.8,2.1-6.8,6.1-8.7,10.1c-1-0.3-2-0.4-3-0.4c-5.6,0-10.2,4.1-10.2,9.1
		c0,1.4,0.4,2.7,1,3.8c-5.5,0.1-11.3,4.6-11.3,9.6s5.9,8.7,11.5,8.7c1.7,0,3.4-0.4,4.8-1.1c10.6-0.2,44.7-1.5,44.7-1.5
		c6.8-0.4,159,13.8,163.7,14c2,0.1,68.2-6.9,70.8-7.2c0.4,0.2,0.4,0.2,1.3,0.2c6.1,0,12.2-4.3,12.2-9.7
		C1700.6,614.1,1695.7,609.7,1689.7,609.7z M1569.6,531L1569.6,531L1569.6,531L1569.6,531z"/>
		<path style="fill:#CAEBFF;" d="M1700.5,618c-2.8,2.1-15.4,6.6-23.8,3c-9.3-3.9-13.1,7.3-22.9,7.2c-1.3-2.7-5.5-4.7-10.6-4.7
		c-6.1,0-21.5,6.4-31.2,5.3c-6-3.2-8.3-8.5-15.8-8.7c0.1-0.4,0.1-0.9,0.1-1.4c0-5.4-4.9-9.8-11-9.8c-2.6,0-5.1,0.8-7,2.2
		c-1.1-7.8-8.5-13.8-17.4-13.8c-5.8,0-10.9,2.5-14.1,6.4c-2.2-1.2-4.8-1.8-7.6-1.8c-8.2,0-12.9,13.6-24.9,17.8
		c-4,0.6-5.9-1-9.4-3.3c-5-3.2-10.9,1-14.4-3.4l0,0c-1.8-2.3-4.8-3.8-8.1-3.8c-4.1,0-10.8,2-16.2,3.5c-0.8-0.2-1.6-0.4-2.1-0.5
		c-5.8-1-11.8,9.1-24.3,4.3c-7.2-2.8-17,4.8-21,4.6s-7.2-6-13.5-3.1s-13.9-1.7-13.9-1.7c0.4,3.7,3.7,9.5,11.1,8.7
		c5.5-0.6,10.4,9.1,15.8,7.6c3.5-1,5.4-4.7,9-5.6c5.5-1.4,10.8,4.6,16.4,3.4c5.2-1.1,7.8-7.9,13-7.2c1.2,0.2,2.2,0.7,3.3,1.3
		c7.2,3.7,14.9,6.6,22.9,8.5c14.7,3.5,21.8,8.2,41.2-1c14.5-6.8,32.2,9,48.7,9.3c16.4,0.2,20.1-9.2,39.9-1.2
		c11.3,4.6,28-6.2,42.2-2.7c14.9,2.7,24.5-6.8,31-7C1701.1,630,1701.5,618.9,1700.5,618z M1618.3,630.9c-1.9-0.3-3.5-0.8-4.8-1.4
		C1614.7,629.9,1616.3,630.4,1618.3,630.9z"/>
		<path style="fill:none;stroke:#000000;stroke-linecap:round;stroke-linejoin:round;stroke-miterlimit:10;" d="M1700.5,618
		L1700.5,618c-0.8-4.7-5.4-8.3-10.8-8.3c-0.7,0-1.4,0.1-2.1,0.2c-2-2.5-5.2-4.1-8.9-4.1c-3.1,0-5.9,1.1-7.9,3
		c-1.7-0.8-3.6-1.3-5.6-1.4c0-0.3,0.1-0.6,0.1-0.9c0-5.8-5.3-10.6-11.8-10.6c-0.2,0-0.3,0-0.5,0c-3.9-5.7-10.9-9.5-18.9-9.5
		c-0.6-0.6-1.1-1.1-1.8-1.6c2.3-3.1,3.6-6.9,3.6-10.9c0-11.1-10-20.1-22.4-20.1c-10.4,0-19.2,6.4-21.7,15c-0.1,0.2-0.2,0.5-0.2,0.7
		c-0.1,0.3-0.2,0.7-0.2,1c-2.3,0.4-4.5,1.2-6.4,2.3c0-0.3,0-0.5,0-0.8c0-0.6,0-1.2-0.1-1.8c0.3-2.5-0.4-4.4-2.1-5.9
		c-0.6-1-1.4-1.9-2.2-2.8c0-0.1,0-0.2,0.1-0.3c1-1.3,1.4-2.8,1-4.2c-0.2-0.6-0.5-1.2-0.9-1.7c-0.8-3.9-3.2-7.2-6.6-9.5
		c0.4-1.3,0.6-2.6,0.6-3.9c0-3.4-1.2-6.5-3.3-9.1c0.3-1.7,0.2-3.5,0-5.4c0-0.1,0-0.2-0.1-0.4c0.3-1.2,0.5-2.4,0.5-3.7
		c0-8.6-7.8-15.5-17.3-15.5c-1.6,0-3.1,0.2-4.6,0.6c-2.3,0.2-4.3,1-6.2,2.5c-0.5-0.4-1.1-0.7-1.7-0.9c-0.9-0.7-2-1-3.3-1
		c-0.9,0-1.8,0.2-2.6,0.6c-2.5,0.6-4.5,2.2-5.5,4.3l0,0c-0.1,0-0.1,0-0.2,0c-0.9,0.1-1.8,0.2-2.7,0.4c-0.3,0-0.6,0.1-0.9,0.1l0,0
		l-0.2,0.1l-0.7,0.1l0.1,0.1c-1.8,0.8-3.1,2.1-3.8,4.1c-0.5,1-0.8,2.1-0.8,3.2c0,0.3,0,0.7,0.1,1c0,0.1,0,0.2,0,0.2
		c-0.4-0.2-0.8-0.4-1.2-0.5c-5.8-3.2-12.5-5-19.6-5c-19.5,0-35.7,13.7-39.4,31.8c-1.6,5.9-1.7,12-0.4,18.3c0.5,2.3,1.4,5.2,3.8,7.1
		c0.4,0.8,0.8,1.6,1.3,2.3c-1.5,0.5-3,1.5-4.5,3.1c-2.3,2.4-2.8,5.3-1.3,8.3l-1.8,1.3c-1.2,0.3-2.3,0.8-3.3,1.5
		c-3.8-6.3-11.2-10.6-19.8-10.6c-2,0-4,0.2-5.9,0.7c-1.5,0.3-2.9,0.7-4.1,1.3c-0.6,0.3-1.2,0.6-1.7,0.9c-3.8,2.1-6.8,6.1-8.7,10.1
		c-1-0.3-2-0.4-3-0.4c-5.6,0-10.2,4.1-10.2,9.1c0,1.4,0.4,2.7,1,3.8c-5.5,0.1-11.3,4.6-11.3,9.6c0,0.2,0,0.3,0,0.4l0,0
		c0,0.1,0,0.2,0.1,0.4c0.1,0.4,0.1,0.8,0.3,1.2c1,3.6,4.3,7.9,10.7,7.1c5.5-0.6,10.4,9.1,15.8,7.6c3.5-1,5.4-4.7,9-5.6
		c5.5-1.4,10.8,4.6,16.4,3.4c5.2-1.1,7.8-7.9,13-7.2c1.2,0.2,2.2,0.7,3.3,1.3c7.2,3.7,14.9,6.6,22.9,8.5c14.7,3.5,21.8,8.2,41.2-1
		c14.5-6.8,32.2,9,48.7,9.3c16.4,0.2,20.1-9.2,39.9-1.2c11.3,4.6,28-6.2,42.2-2.7c14.9,2.7,24.5-6.8,31-7
		C1701.1,630,1701.5,618.9,1700.5,618z M1569.6,531L1569.6,531L1569.6,531L1569.6,531z"/>
</g>
	<g id="plane-2">
	<g id="plane-2-banner">
		<g>

				<polyline
						style="fill-rule:evenodd;clip-rule:evenodd;fill:#FFFFFF;stroke:#000000;stroke-linecap:round;stroke-linejoin:round;stroke-miterlimit:10;"
						points="
				1103.7,405.2 1071.1,405.2 1091.8,377.6 1071.1,349.9 1103.7,349.9 				"/>

			<polyline
					style="fill-rule:evenodd;clip-rule:evenodd;fill:#FFFFFF;stroke:#000000;stroke-linecap:round;stroke-linejoin:round;stroke-miterlimit:10;"
					points="
				1103.7,405.2 1232.5,405.2 1232.5,349.9 1103.7,349.9 				"/>
			<text transform="matrix(1 0 0 1 1113.1328 392.5785)"
				  style="font-family:'ArialMT'; font-size:42px;">SHIT</text>
		</g>
		<polyline style="fill:none;stroke:#000000;stroke-linecap:round;stroke-linejoin:round;stroke-miterlimit:10;"
				  points="
			1232.5,405.2 1328.2,375.9 1232.5,349.9 			"/>

		<rect x="1230" y="342"
			  style="fill-rule:evenodd;clip-rule:evenodd;fill:#D3923D;stroke:#000000;stroke-linecap:round;stroke-linejoin:round;stroke-miterlimit:10;"
			  width="4.6" height="70.7"/>
	</g>
		<g>
		<path style="fill:#231F20;" d="M1458.8,372.5l8.8,2.2l8.8-7.4c0,0-3.6-4.1-6.6-5.7c0.8-0.9,1.3-2,1.3-3.4c0-2.7-2.2-4.9-4.9-4.9
			s-4.9,2.2-4.9,4.9c0,0.2,0.1,0.4,0.1,0.6c-0.2,0.2-0.5,0.5-0.8,1C1459.1,362.4,1458.9,372.6,1458.8,372.5z"/>
			<path style="fill:#231F20;" d="M1434,375.2l8.8,2.2l8.8-7.4c0,0-3.6-4.1-6.6-5.7c0.8-0.9,1.3-2,1.3-3.4c0-2.7-2.2-4.9-4.9-4.9
			s-4.9,2.2-4.9,4.9c0,0.2,0.1,0.4,0.1,0.6c-0.2,0.2-0.5,0.5-0.8,1C1434.3,365.1,1434.1,375.2,1434,375.2z"/>
			<path style="fill:#231F20;"
				  d="M1516.4,347.6c-0.2-2.8,0.8-5.3,2.3-5.4l0,0c1.4-0.1,2.5,2.4,2.3,5.2l-2,30.1L1516.4,347.6z"/>
			<path style="fill:#231F20;"
				  d="M1517.1,411.2c-0.2,2.8,0.9,5.3,2.3,5.2l0,0c1.5-0.1,2.5-2.6,2.3-5.4l-2.7-29.8L1517.1,411.2z"/>
			<path style="fill:#231F20;" d="M1340.6,399c0.1,2.2,1.7,4,3.7,4.4c0.3,0.1,0.6,0.1,0.9,0.1c1.2-0.1,2.3-0.5,3.2-1.4
			s1.3-2,1.3-3.2c-0.1-0.7-0.2-1.2-0.4-1.8l7.9-8.7l-15.7-3.4l1.8,9.8C1341.7,395.5,1340.6,397.1,1340.6,399z"/>
			<path style="fill:#231F20;" d="M1483,385.3l10.1-1.5l4.6,4l0.4,27.8l-8,1.2L1483,385.3z"/>
			<path style="fill:#231F20;" d="M1481.2,368.3c-1.8,0.9-3.9,1.3-6,1c-1-0.1-2.2-0.6-2.7-1.5c1.7-3.1,1.6-6.9,3.1-10
			c2.4,0.7,4.4,2.3,6.3,3.9c0.9,0.7,1.8,1.5,2.6,2.3C1486.2,365.5,1482.4,367.6,1481.2,368.3z"/>
			<path style="fill:#231F20;" d="M1457.8,371.5c-1.8,0.9-3.9,1.3-6,1c-1-0.1-2.2-0.6-2.7-1.5c1.7-3.1,1.6-6.9,3.1-10
			c2.4,0.7,4.4,2.3,6.3,3.9c0.9,0.7,1.8,1.5,2.6,2.3C1462.8,368.6,1459,370.7,1457.8,371.5z"/>
			<path style="fill:#FFD394;stroke:#000000;stroke-linecap:round;stroke-linejoin:round;stroke-miterlimit:10;"
				  d="M1358.3,354.8
			c-2.9-3.9-6.1-7.7-8.8-10.2c-7.5-6.9-16.4,10-19.4,21.3c-3,11.4-1.9,17.9,9.6,21.2c11.5,3.2,63.9,7.8,98.7,8.6s68.1,0,68.1,0
			s4.4,0,7.8-1.7c3.5-1.8,1.5-24.4,1.5-24.4c-3.1-8-37.7-6.6-37.7-6.6c-4,3-10.3,4.3-14.4,4.8c-2.3,0.3-4.4-1.5-4.4-3.9l0,0l-9,0.8
			v2.5l-10.4,1.8c-2.7,0.5-5.3-1.4-5.7-4.1l0,0l-46.8,3.1C1376,368.8,1365.1,363.8,1358.3,354.8z"/>
			<polygon
					style="fill:#FFD394;stroke:#000000;stroke-linecap:round;stroke-linejoin:round;stroke-miterlimit:10;"
					points="
			1528.5,371.3 1520.9,370.4 1521.1,389 1528.7,388 			"/>
			<polygon style="fill:#231F20;" points="1516.2,371.5 1521.1,370.4 1521.3,389 1516.4,388.2 			"/>
			<path style="fill:#D3923D;stroke:#000000;stroke-linecap:round;stroke-linejoin:round;stroke-miterlimit:10;"
				  d="M1440.6,391
			c-2.7,0.7-4.5,3.1-4.5,5.8l0,0c0,0,20.4,2,34.1,1.8c13.6-0.1,16.6-3.5,16.6-3.5l-0.1-5.6C1477.6,383.1,1451.3,388.5,1440.6,391z"
			/>
			<path style="fill:#D3923D;stroke:#000000;stroke-linecap:round;stroke-linejoin:round;stroke-miterlimit:10;"
				  d="M1380.1,370.3
			c-12.3-2.3-36.8,1.9-43,3c-0.8,0.1-1.4,0.9-1.4,1.8l0,0c0,0.9,0.7,1.6,1.6,1.7c5,0.3,20.2,1.1,31.1,0.9
			c13.1-0.2,15.9-2.4,15.9-2.4l0,0C1384.2,372.9,1382.4,370.7,1380.1,370.3z"/>
			<path style="fill:#231F20;" d="M1453.7,392.5c-1-0.4-1.5-1.7-1-2.7L1472,348c0.4-0.9,1.2-1.3,2.2-1.2l0,0
			c0.9,0.1,1.6,0.9,1.7,1.8l2.5,32.9l16-35.6c0.4-0.9,1.3-1.4,2.3-1.2c0.9,0.2,1.6,1,1.6,2l0.4,26.7c0,1.1-0.9,2-2,2s-2-0.9-2-2
			l-0.2-17.5l-15.5,34.5c-0.4,0.9-1.2,1.3-2.2,1.2s-1.6-0.9-1.7-1.8l-2.6-33l-16,34.6c-0.4,0.9-1.4,1.3-2.3,1.2
			C1453.9,392.6,1453.8,392.5,1453.7,392.5z"/>
			<path style="fill:#231F20;" d="M1486.5,426.8c-2.2-2.1-3.4-4.9-3.4-8l0,0c-0.1-3,1.1-5.8,3.2-8s4.9-3.4,8-3.4
			c3-0.1,5.8,1.1,8,3.2s3.4,4.9,3.4,8c0.1,3-1.1,5.8-3.2,8s-4.9,3.4-8,3.4c-0.8,0-1.5-0.1-2.3-0.2
			C1490.1,429.3,1488.1,428.3,1486.5,426.8z"/>
			<path style="fill:#D3923D;stroke:#000000;stroke-linecap:round;stroke-linejoin:round;stroke-miterlimit:10;"
				  d="M1504.8,349.6
			l-59.1,4.3c-1.3,0.1-2.5-1-2.5-2.3l0,0c0,0-5.5-1.1,23.6-5.8c22.4-3.6,34.1-2,38.4-1c1.1,0.2,1.9,1.2,1.9,2.3l0,0
			C1507.3,348.3,1506.2,349.4,1504.8,349.6z"/>
	</g>
</g>
	<g id="plane-1">
	<g id="plane-1-banner">
		<g>

				<polyline
						style="fill-rule:evenodd;clip-rule:evenodd;fill:#FFFFFF;stroke:#000000;stroke-linecap:round;stroke-linejoin:round;stroke-miterlimit:10;"
						points="
				1496.1,245.9 1528.7,245.9 1508,273.6 1528.7,301.2 1496.1,301.2 				"/>

			<polyline
					style="fill-rule:evenodd;clip-rule:evenodd;fill:#FFFFFF;stroke:#000000;stroke-linecap:round;stroke-linejoin:round;stroke-miterlimit:10;"
					points="
				1496.1,245.9 1367.3,245.9 1367.3,301.2 1496.1,301.2 				"/>
			<text transform="matrix(1 0 0 1 1384.9238 288.5785)"
				  style="font-family:'ArialMT'; font-size:42px;">SHIT</text>
		</g>
		<polyline style="fill:none;stroke:#000000;stroke-linecap:round;stroke-linejoin:round;stroke-miterlimit:10;"
				  points="
			1367.3,245.9 1271.6,271.9 1367.3,301.2 			"/>

		<rect x="1365.2" y="238"
			  style="fill-rule:evenodd;clip-rule:evenodd;fill:#D3923D;stroke:#000000;stroke-linecap:round;stroke-linejoin:round;stroke-miterlimit:10;"
			  width="4.6" height="70.7"/>
	</g>
		<g>
		<path style="fill:#231F20;" d="M1139.2,255.8c-0.3-0.5-0.6-0.8-0.8-1c0-0.2,0.1-0.4,0.1-0.6c0-2.7-2.2-4.9-4.9-4.9
			s-4.9,2.2-4.9,4.9c0,1.3,0.5,2.5,1.3,3.4c-2.9,1.6-6.6,5.7-6.6,5.7l8.8,7.4l8.8-2.2C1140.9,268.6,1140.7,258.4,1139.2,255.8z"/>
			<path style="fill:#231F20;" d="M1164,258.5c-0.3-0.5-0.6-0.8-0.8-1c0-0.2,0.1-0.4,0.1-0.6c0-2.7-2.2-4.9-4.9-4.9
			s-4.9,2.2-4.9,4.9c0,1.3,0.5,2.5,1.3,3.4c-2.9,1.6-6.6,5.7-6.6,5.7l8.8,7.4l8.8-2.2C1165.7,271.2,1165.5,261.1,1164,258.5z"/>
			<path style="fill:#231F20;"
				  d="M1080.8,273.5l-2-30.1c-0.1-2.8,0.9-5.3,2.3-5.2l0,0c1.5,0.1,2.5,2.6,2.3,5.4L1080.8,273.5z"/>
			<path style="fill:#231F20;"
				  d="M1080.8,277.1l-2.7,29.8c-0.2,2.8,0.8,5.3,2.3,5.4l0,0c1.5,0.1,2.6-2.4,2.3-5.2L1080.8,277.1z"/>
			<path style="fill:#231F20;" d="M1256.6,290.8l1.8-9.8l-15.7,3.4l7.9,8.7c-0.2,0.6-0.4,1.2-0.4,1.8c0,1.2,0.4,2.3,1.3,3.2
			c0.9,0.9,2,1.3,3.2,1.4c0.3,0,0.6,0,0.9-0.1c2-0.4,3.6-2.2,3.7-4.4C1259.2,293.1,1258.1,291.5,1256.6,290.8z"/>
			<path style="fill:#231F20;" d="M1109.7,312.9l-8-1.2l0.4-27.8l4.6-4l10.1,1.5L1109.7,312.9z"/>
			<path style="fill:#231F20;" d="M1115.2,260c0.9-0.7,1.8-1.5,2.6-2.3c1.9-1.6,3.9-3.3,6.3-3.9c1.5,3.1,1.5,6.9,3.1,10
			c-0.5,0.9-1.7,1.4-2.7,1.5c-2,0.3-4.2-0.1-6-1C1117.4,263.6,1113.6,261.5,1115.2,260z"/>
			<path style="fill:#231F20;" d="M1138.7,263.2c0.9-0.7,1.8-1.5,2.6-2.3c1.9-1.6,3.9-3.3,6.3-3.9c1.5,3.1,1.5,6.9,3.1,10
			c-0.5,0.9-1.7,1.4-2.7,1.5c-2,0.3-4.2-0.1-6-1C1140.8,266.7,1137.1,264.6,1138.7,263.2z"/>
			<path style="fill:#FFD394;stroke:#000000;stroke-linecap:round;stroke-linejoin:round;stroke-miterlimit:10;"
				  d="M1212.5,264.1
			l-46.8-3.1l0,0c-0.4,2.7-3,4.6-5.7,4.1l-10.4-1.8v-2.5l-9-0.8l0,0c0,2.3-2.1,4.2-4.4,3.9c-4.2-0.5-10.4-1.8-14.4-4.8
			c0,0-34.6-1.5-37.7,6.6c0,0-2,22.6,1.5,24.4c3.4,1.7,7.8,1.7,7.8,1.7s33.3,0.8,68.1,0s87.2-5.4,98.7-8.6s12.5-9.8,9.6-21.2
			c-3-11.3-11.9-28.2-19.4-21.3c-2.7,2.5-5.8,6.3-8.8,10.2C1234.7,259.8,1223.9,264.8,1212.5,264.1z"/>
			<polygon
					style="fill:#FFD394;stroke:#000000;stroke-linecap:round;stroke-linejoin:round;stroke-miterlimit:10;"
					points="
			1071.1,284 1078.7,285 1078.9,266.4 1071.3,267.3 			"/>
			<polygon style="fill:#231F20;" points="1083.4,284.2 1078.5,285 1078.7,266.4 1083.7,267.5 			"/>
			<path style="fill:#D3923D;stroke:#000000;stroke-linecap:round;stroke-linejoin:round;stroke-miterlimit:10;"
				  d="M1113.2,285.6
			l-0.1,5.6c0,0,2.9,3.4,16.6,3.5c13.6,0.1,34.1-1.8,34.1-1.8l0,0c0-2.8-1.8-5.2-4.5-5.8C1148.5,284.5,1122.2,279.1,1113.2,285.6z"
			/>
			<path style="fill:#D3923D;stroke:#000000;stroke-linecap:round;stroke-linejoin:round;stroke-miterlimit:10;"
				  d="M1215.5,271.3
			L1215.5,271.3c0,0,2.8,2.2,15.9,2.4c10.9,0.1,26.1-0.7,31.1-0.9c0.9-0.1,1.6-0.8,1.6-1.7l0,0c0-0.9-0.6-1.6-1.4-1.8
			c-6.2-1.1-30.8-5.3-43-3C1217.4,266.7,1215.6,268.9,1215.5,271.3z"/>
			<path style="fill:#231F20;" d="M1145.7,288.6c-0.9,0.1-1.8-0.3-2.3-1.2l-16-34.6l-2.6,33c-0.1,0.9-0.7,1.7-1.7,1.8
			s-1.8-0.3-2.2-1.2l-15.5-34.5l-0.2,17.5c0,1.1-0.9,2-2,2s-2-0.9-2-2l0.4-26.7c0-0.9,0.7-1.8,1.6-2s1.9,0.3,2.3,1.2l16,35.6
			l2.5-32.9c0.1-0.9,0.7-1.7,1.7-1.8l0,0c0.9-0.1,1.8,0.3,2.2,1.2l19.3,41.8c0.4,1,0,2.3-1,2.7
			C1146,288.5,1145.9,288.6,1145.7,288.6z"/>
			<path style="fill:#231F20;" d="M1107.5,325.8c-0.7,0.1-1.5,0.2-2.3,0.2c-3.1-0.1-5.8-1.2-8-3.4c-2.1-2.2-3.3-5-3.2-8
			c0.1-3.1,1.2-5.8,3.4-8c2.2-2.1,5-3.3,8-3.2c3.1,0.1,5.8,1.2,8,3.4c2.1,2.2,3.3,5,3.2,8l0,0c-0.1,3.1-1.2,5.8-3.4,8
			C1111.7,324.3,1109.7,325.3,1107.5,325.8z"/>
			<path style="fill:#D3923D;stroke:#000000;stroke-linecap:round;stroke-linejoin:round;stroke-miterlimit:10;"
				  d="M1092.6,243
			L1092.6,243c0-1.1,0.8-2.1,1.9-2.3c4.2-0.9,16-2.6,38.4,1c29.2,4.7,23.6,5.8,23.6,5.8l0,0c0,1.3-1.2,2.4-2.5,2.3l-59.1-4.3
			C1093.6,245.4,1092.6,244.3,1092.6,243z"/>
	</g>
</g>
</g>
<g>
	<g>
		<rect x="53.9" y="0.5" style="fill:#EADECC;" width="1034" height="1220.3"/>
		<g>
			<rect x="183.9" y="0.5" style="fill:#E2D1BA;" width="69.1" height="727.3"/>
			<rect x="321.9" y="0.5" style="fill:#E2D1BA;" width="69.1" height="727.3"/>
			<rect x="459.9" y="0.5" style="fill:#E2D1BA;" width="69.1" height="727.3"/>
			<rect x="597.9" y="0.5" style="fill:#E2D1BA;" width="69.1" height="727.3"/>
			<rect x="735.9" y="0.5" style="fill:#E2D1BA;" width="69.1" height="727.3"/>
			<rect x="873.9" y="0.5" style="fill:#E2D1BA;" width="69.1" height="727.3"/>
			<rect x="1011.8" y="0.5" style="fill:#E2D1BA;" width="69.1" height="727.3"/>
		</g>

		<rect x="87.2" y="735.9"
			  style="fill:#FFFFFF;stroke:#000000;stroke-linecap:round;stroke-linejoin:round;stroke-miterlimit:10;"
			  width="1008" height="484.7"/>
		<g>

				<rect x="72.9" y="0.5"
					  style="fill:#FFFFFF;stroke:#000000;stroke-linecap:round;stroke-linejoin:round;stroke-miterlimit:10;"
					  width="33" height="1220.3"/>

			<rect x="0.5" y="0.5"
				  style="fill:#8A9994;stroke:#000000;stroke-linecap:round;stroke-linejoin:round;stroke-miterlimit:10;"
				  width="74.4" height="1220.3"/>
		</g>
		<g>
			<polygon style="fill:#99846B;" points="1080.9,0.5 1080.9,706.7 1298.2,706.7 1298.2,89.9 1795.2,89.9 1795.2,706.7
				1893.7,706.7 1893.7,0.5 			"/>
			<g>
				<rect x="1362.4" y="0.5" style="fill:#89725F;" width="70.2" height="89.4"/>
				<rect x="1502.7" y="0.5" style="fill:#89725F;" width="70.2" height="89.4"/>
				<rect x="1643" y="0.5" style="fill:#89725F;" width="70.2" height="89.4"/>
				<polygon style="fill:#89725F;"
						 points="1783.4,0.5 1783.4,89.9 1795.2,89.9 1795.2,727.8 1853.6,727.8 1853.6,0.5 				"/>
				<rect x="1081.8" y="0.5" style="fill:#89725F;" width="70.2" height="727.3"/>
				<rect x="1222.1" y="0.5" style="fill:#89725F;" width="70.2" height="727.3"/>
			</g>
		</g>
		<polygon style="fill:#A8B2AF;" points="1795.2,721.8 1795.2,782 1298.2,782 1298.2,721.8 1080.9,721.8 1080.9,1221.7
			1893.6,1221.7 1893.6,721.8 		"/>
		<g>
			<rect x="106.8" y="748" style="fill:#C8CECC;" width="973" height="7.6"/>

			<rect x="105.9" y="735.5"
				  style="fill:#FFFFFF;stroke:#000000;stroke-linecap:round;stroke-linejoin:round;stroke-miterlimit:10;"
				  width="975" height="12.5"/>

			<rect x="105.9" y="735.5"
				  style="fill:#A8B2AF;stroke:#000000;stroke-linecap:round;stroke-linejoin:round;stroke-miterlimit:10;"
				  width="9.5" height="12.5"/>

			<rect x="105.9" y="704.5"
				  style="fill:#FFFFFF;stroke:#000000;stroke-linecap:round;stroke-linejoin:round;stroke-miterlimit:10;"
				  width="975" height="32.5"/>
			<path style="fill:#A8B2AF;stroke:#000000;stroke-linecap:round;stroke-linejoin:round;stroke-miterlimit:10;"
				  d="M107.4,704.5
				h-1.5V737h1.5c9.1,0,16.5-7.4,16.5-16.5l0,0C123.9,711.4,116.5,704.5,107.4,704.5z"/>
		</g>
		<g>

				<rect x="1080.9" y="746.9"
					  style="stroke:#000000;stroke-linecap:round;stroke-linejoin:round;stroke-miterlimit:10;"
					  width="222" height="7.6"/>

			<rect x="1080.9" y="735.5"
				  style="fill:#A8B2AF;stroke:#000000;stroke-linecap:round;stroke-linejoin:round;stroke-miterlimit:10;"
				  width="222" height="12.5"/>

			<rect x="1293.4" y="735.5"
				  style="fill:#C8CECC;stroke:#000000;stroke-linecap:round;stroke-linejoin:round;stroke-miterlimit:10;"
				  width="9.5" height="12.5"/>

			<rect x="1080.9" y="704.5"
				  style="fill:#C2CCC9;stroke:#000000;stroke-linecap:round;stroke-linejoin:round;stroke-miterlimit:10;"
				  width="222" height="32.5"/>
			<path style="fill:#FFFFFF;stroke:#000000;stroke-linecap:round;stroke-linejoin:round;stroke-miterlimit:10;"
				  d="M1301.4,704.5
				h1.5V737h-1.5c-9.1,0-16.5-7.4-16.5-16.5l0,0C1284.9,711.4,1292.3,704.5,1301.4,704.5z"/>
		</g>
		<g id="window">
			<path style="fill:#FFFFFF;stroke:#000000;stroke-linecap:round;stroke-linejoin:round;stroke-miterlimit:10;"
				  d="M1290.2,79.3
				V794H1805V79.3H1290.2z M1779.7,769.9h-464.2V103.4h464.2V769.9z"/>

			<rect x="1256.9" y="769.9"
				  style="fill:#FFFFFF;stroke:#000000;stroke-linecap:round;stroke-linejoin:round;stroke-miterlimit:10;"
				  width="548.1" height="24.1"/>
			<polygon style="stroke:#000000;stroke-linecap:round;stroke-linejoin:round;stroke-miterlimit:10;" points="1803.8,79.3
				1803.8,769.9 1752.1,769.9 1752.1,794 1815.3,794 1815.3,79.3 			"/>

			<rect x="1315.5" y="103.4"
				  style="stroke:#000000;stroke-linecap:round;stroke-linejoin:round;stroke-miterlimit:10;" width="27.6"
				  height="666.5"/>
			<g id="blinds">
				<g>
					<polygon
							style="fill:#FFFFFF;stroke:#000000;stroke-linecap:round;stroke-linejoin:round;stroke-miterlimit:10;"
							points="
						1779.7,755 1323.5,755 1335,720 1779.7,720 					"/>
					<polyline style="fill:#CEBB9F;stroke:#000000;stroke-miterlimit:10;" points="1779.7,731.5 1779.7,720 1335,720 1331.2,731.5
											"/>

					<line style="fill:none;stroke:#000000;stroke-linecap:round;stroke-linejoin:round;stroke-miterlimit:10;"
						  x1="1352.2" y1="737.7" x2="1352.2" y2="692.9"/>

					<line style="fill:none;stroke:#000000;stroke-linecap:round;stroke-linejoin:round;stroke-miterlimit:10;"
						  x1="1769.3" y1="737.7" x2="1769.3" y2="692.9"/>
				</g>
				<g>
					<polygon
							style="fill:#FFFFFF;stroke:#000000;stroke-linecap:round;stroke-linejoin:round;stroke-miterlimit:10;"
							points="
						1779.7,723.9 1323.5,723.9 1335,689 1779.7,689 					"/>
					<polyline style="fill:#CEBB9F;stroke:#000000;stroke-miterlimit:10;" points="1779.7,700.5 1779.7,689 1335,689 1331.2,700.5
											"/>

					<line style="fill:none;stroke:#000000;stroke-linecap:round;stroke-linejoin:round;stroke-miterlimit:10;"
						  x1="1352.2" y1="706.7" x2="1352.2" y2="661.9"/>

					<line style="fill:none;stroke:#000000;stroke-linecap:round;stroke-linejoin:round;stroke-miterlimit:10;"
						  x1="1769.3" y1="706.7" x2="1769.3" y2="661.9"/>
				</g>
				<g>
					<polygon
							style="fill:#FFFFFF;stroke:#000000;stroke-linecap:round;stroke-linejoin:round;stroke-miterlimit:10;"
							points="
						1779.7,692.9 1323.5,692.9 1335,658 1779.7,658 					"/>
					<polyline style="fill:#CEBB9F;stroke:#000000;stroke-miterlimit:10;" points="1779.7,669.5 1779.7,658 1335,658 1331.2,669.5
											"/>

					<line style="fill:none;stroke:#000000;stroke-linecap:round;stroke-linejoin:round;stroke-miterlimit:10;"
						  x1="1352.2" y1="675.7" x2="1352.2" y2="630.9"/>

					<line style="fill:none;stroke:#000000;stroke-linecap:round;stroke-linejoin:round;stroke-miterlimit:10;"
						  x1="1769.3" y1="675.7" x2="1769.3" y2="630.9"/>
				</g>
				<g>
					<polygon
							style="fill:#FFFFFF;stroke:#000000;stroke-linecap:round;stroke-linejoin:round;stroke-miterlimit:10;"
							points="
						1779.7,661.9 1323.5,661.9 1335,627 1779.7,627 					"/>
					<polyline style="fill:#CEBB9F;stroke:#000000;stroke-miterlimit:10;" points="1779.7,638.5 1779.7,627 1335,627 1331.2,638.5
											"/>

					<line style="fill:none;stroke:#000000;stroke-linecap:round;stroke-linejoin:round;stroke-miterlimit:10;"
						  x1="1352.2" y1="644.7" x2="1352.2" y2="599.8"/>

					<line style="fill:none;stroke:#000000;stroke-linecap:round;stroke-linejoin:round;stroke-miterlimit:10;"
						  x1="1769.3" y1="644.7" x2="1769.3" y2="599.8"/>
				</g>
				<g>
					<polygon
							style="fill:#FFFFFF;stroke:#000000;stroke-linecap:round;stroke-linejoin:round;stroke-miterlimit:10;"
							points="
						1779.7,630.9 1323.5,630.9 1335,595.9 1779.7,595.9 					"/>
					<polyline style="fill:#CEBB9F;stroke:#000000;stroke-miterlimit:10;" points="1779.7,607.4 1779.7,595.9 1335,595.9
						1331.2,607.4 					"/>

					<line style="fill:none;stroke:#000000;stroke-linecap:round;stroke-linejoin:round;stroke-miterlimit:10;"
						  x1="1352.2" y1="613.6" x2="1352.2" y2="568.8"/>

					<line style="fill:none;stroke:#000000;stroke-linecap:round;stroke-linejoin:round;stroke-miterlimit:10;"
						  x1="1769.3" y1="613.6" x2="1769.3" y2="568.8"/>
				</g>
				<g>
					<polygon
							style="fill:#FFFFFF;stroke:#000000;stroke-linecap:round;stroke-linejoin:round;stroke-miterlimit:10;"
							points="
						1779.7,599.8 1323.5,599.8 1335,564.9 1779.7,564.9 					"/>
					<polyline style="fill:#CEBB9F;stroke:#000000;stroke-miterlimit:10;" points="1779.7,576.4 1779.7,564.9 1335,564.9
						1331.2,576.4 					"/>

					<line style="fill:none;stroke:#000000;stroke-linecap:round;stroke-linejoin:round;stroke-miterlimit:10;"
						  x1="1352.2" y1="582.6" x2="1352.2" y2="537.8"/>

					<line style="fill:none;stroke:#000000;stroke-linecap:round;stroke-linejoin:round;stroke-miterlimit:10;"
						  x1="1769.3" y1="582.6" x2="1769.3" y2="537.8"/>
				</g>
				<g>
					<polygon
							style="fill:#FFFFFF;stroke:#000000;stroke-linecap:round;stroke-linejoin:round;stroke-miterlimit:10;"
							points="
						1779.7,568.8 1323.5,568.8 1335,533.9 1779.7,533.9 					"/>
					<polyline style="fill:#CEBB9F;stroke:#000000;stroke-miterlimit:10;" points="1779.7,545.4 1779.7,533.9 1335,533.9
						1331.2,545.4 					"/>

					<line style="fill:none;stroke:#000000;stroke-linecap:round;stroke-linejoin:round;stroke-miterlimit:10;"
						  x1="1352.2" y1="551.6" x2="1352.2" y2="506.8"/>

					<line style="fill:none;stroke:#000000;stroke-linecap:round;stroke-linejoin:round;stroke-miterlimit:10;"
						  x1="1769.3" y1="551.6" x2="1769.3" y2="506.8"/>
				</g>
				<g>
					<polygon
							style="fill:#FFFFFF;stroke:#000000;stroke-linecap:round;stroke-linejoin:round;stroke-miterlimit:10;"
							points="
						1779.7,537.8 1323.5,537.8 1335,502.9 1779.7,502.9 					"/>
					<polyline style="fill:#CEBB9F;stroke:#000000;stroke-miterlimit:10;" points="1779.7,514.4 1779.7,502.9 1335,502.9
						1331.2,514.4 					"/>

					<line style="fill:none;stroke:#000000;stroke-linecap:round;stroke-linejoin:round;stroke-miterlimit:10;"
						  x1="1352.2" y1="520.6" x2="1352.2" y2="475.7"/>

					<line style="fill:none;stroke:#000000;stroke-linecap:round;stroke-linejoin:round;stroke-miterlimit:10;"
						  x1="1769.3" y1="520.6" x2="1769.3" y2="475.7"/>
				</g>
				<g>
					<polygon
							style="fill:#FFFFFF;stroke:#000000;stroke-linecap:round;stroke-linejoin:round;stroke-miterlimit:10;"
							points="
						1779.7,506.8 1323.5,506.8 1335,471.8 1779.7,471.8 					"/>
					<polyline style="fill:#CEBB9F;stroke:#000000;stroke-miterlimit:10;" points="1779.7,483.3 1779.7,471.8 1335,471.8
						1331.2,483.3 					"/>

					<line style="fill:none;stroke:#000000;stroke-linecap:round;stroke-linejoin:round;stroke-miterlimit:10;"
						  x1="1352.2" y1="489.5" x2="1352.2" y2="444.7"/>

					<line style="fill:none;stroke:#000000;stroke-linecap:round;stroke-linejoin:round;stroke-miterlimit:10;"
						  x1="1769.3" y1="489.5" x2="1769.3" y2="444.7"/>
				</g>
				<g>
					<polygon
							style="fill:#FFFFFF;stroke:#000000;stroke-linecap:round;stroke-linejoin:round;stroke-miterlimit:10;"
							points="
						1779.7,475.7 1323.5,475.7 1335,440.8 1779.7,440.8 					"/>
					<polyline style="fill:#CEBB9F;stroke:#000000;stroke-miterlimit:10;" points="1779.7,452.3 1779.7,440.8 1335,440.8
						1331.2,452.3 					"/>

					<line style="fill:none;stroke:#000000;stroke-linecap:round;stroke-linejoin:round;stroke-miterlimit:10;"
						  x1="1352.2" y1="458.5" x2="1352.2" y2="413.7"/>

					<line style="fill:none;stroke:#000000;stroke-linecap:round;stroke-linejoin:round;stroke-miterlimit:10;"
						  x1="1769.3" y1="458.5" x2="1769.3" y2="413.7"/>
				</g>
				<g>
					<polygon
							style="fill:#FFFFFF;stroke:#000000;stroke-linecap:round;stroke-linejoin:round;stroke-miterlimit:10;"
							points="
						1779.7,444.7 1323.5,444.7 1335,409.8 1779.7,409.8 					"/>
					<polyline style="fill:#CEBB9F;stroke:#000000;stroke-miterlimit:10;" points="1779.7,421.3 1779.7,409.8 1335,409.8
						1331.2,421.3 					"/>

					<line style="fill:none;stroke:#000000;stroke-linecap:round;stroke-linejoin:round;stroke-miterlimit:10;"
						  x1="1352.2" y1="427.5" x2="1352.2" y2="382.7"/>

					<line style="fill:none;stroke:#000000;stroke-linecap:round;stroke-linejoin:round;stroke-miterlimit:10;"
						  x1="1769.3" y1="427.5" x2="1769.3" y2="382.7"/>
				</g>
				<g>
					<polygon
							style="fill:#FFFFFF;stroke:#000000;stroke-linecap:round;stroke-linejoin:round;stroke-miterlimit:10;"
							points="
						1779.7,413.7 1323.5,413.7 1335,378.8 1779.7,378.8 					"/>
					<polyline style="fill:#CEBB9F;stroke:#000000;stroke-miterlimit:10;" points="1779.7,390.3 1779.7,378.8 1335,378.8
						1331.2,390.3 					"/>

					<line style="fill:none;stroke:#000000;stroke-linecap:round;stroke-linejoin:round;stroke-miterlimit:10;"
						  x1="1352.2" y1="396.5" x2="1352.2" y2="351.6"/>

					<line style="fill:none;stroke:#000000;stroke-linecap:round;stroke-linejoin:round;stroke-miterlimit:10;"
						  x1="1769.3" y1="396.5" x2="1769.3" y2="351.6"/>
				</g>
				<g>
					<polygon
							style="fill:#FFFFFF;stroke:#000000;stroke-linecap:round;stroke-linejoin:round;stroke-miterlimit:10;"
							points="
						1779.7,382.7 1323.5,382.7 1335,347.7 1779.7,347.7 					"/>
					<polyline style="fill:#CEBB9F;stroke:#000000;stroke-miterlimit:10;" points="1779.7,359.2 1779.7,347.7 1335,347.7
						1331.2,359.2 					"/>

					<line style="fill:none;stroke:#000000;stroke-linecap:round;stroke-linejoin:round;stroke-miterlimit:10;"
						  x1="1352.2" y1="365.4" x2="1352.2" y2="320.6"/>

					<line style="fill:none;stroke:#000000;stroke-linecap:round;stroke-linejoin:round;stroke-miterlimit:10;"
						  x1="1769.3" y1="365.4" x2="1769.3" y2="320.6"/>
				</g>
				<g>
					<polygon
							style="fill:#FFFFFF;stroke:#000000;stroke-linecap:round;stroke-linejoin:round;stroke-miterlimit:10;"
							points="
						1779.7,351.6 1323.5,351.6 1335,316.7 1779.7,316.7 					"/>
					<polyline style="fill:#CEBB9F;stroke:#000000;stroke-miterlimit:10;" points="1779.7,328.2 1779.7,316.7 1335,316.7
						1331.2,328.2 					"/>

					<line style="fill:none;stroke:#000000;stroke-linecap:round;stroke-linejoin:round;stroke-miterlimit:10;"
						  x1="1352.2" y1="334.4" x2="1352.2" y2="289.6"/>

					<line style="fill:none;stroke:#000000;stroke-linecap:round;stroke-linejoin:round;stroke-miterlimit:10;"
						  x1="1769.3" y1="334.4" x2="1769.3" y2="289.6"/>
				</g>
				<g>
					<polygon
							style="fill:#FFFFFF;stroke:#000000;stroke-linecap:round;stroke-linejoin:round;stroke-miterlimit:10;"
							points="
						1779.7,320.6 1323.5,320.6 1335,285.7 1779.7,285.7 					"/>
					<polyline style="fill:#CEBB9F;stroke:#000000;stroke-miterlimit:10;" points="1779.7,297.2 1779.7,285.7 1335,285.7
						1331.2,297.2 					"/>

					<line style="fill:none;stroke:#000000;stroke-linecap:round;stroke-linejoin:round;stroke-miterlimit:10;"
						  x1="1352.2" y1="303.4" x2="1352.2" y2="258.6"/>

					<line style="fill:none;stroke:#000000;stroke-linecap:round;stroke-linejoin:round;stroke-miterlimit:10;"
						  x1="1769.3" y1="303.4" x2="1769.3" y2="258.6"/>
				</g>
				<g>
					<polygon
							style="fill:#FFFFFF;stroke:#000000;stroke-linecap:round;stroke-linejoin:round;stroke-miterlimit:10;"
							points="
						1779.7,289.6 1323.5,289.6 1335,254.7 1779.7,254.7 					"/>
					<polyline style="fill:#CEBB9F;stroke:#000000;stroke-miterlimit:10;" points="1779.7,266.2 1779.7,254.7 1335,254.7
						1331.2,266.2 					"/>

					<line style="fill:none;stroke:#000000;stroke-linecap:round;stroke-linejoin:round;stroke-miterlimit:10;"
						  x1="1352.2" y1="272.4" x2="1352.2" y2="227.5"/>

					<line style="fill:none;stroke:#000000;stroke-linecap:round;stroke-linejoin:round;stroke-miterlimit:10;"
						  x1="1769.3" y1="272.4" x2="1769.3" y2="227.5"/>
				</g>
				<g>
					<polygon
							style="fill:#FFFFFF;stroke:#000000;stroke-linecap:round;stroke-linejoin:round;stroke-miterlimit:10;"
							points="
						1779.7,258.6 1323.5,258.6 1335,223.6 1779.7,223.6 					"/>
					<polyline style="fill:#CEBB9F;stroke:#000000;stroke-miterlimit:10;" points="1779.7,235.1 1779.7,223.6 1335,223.6
						1331.2,235.1 					"/>

					<line style="fill:none;stroke:#000000;stroke-linecap:round;stroke-linejoin:round;stroke-miterlimit:10;"
						  x1="1352.2" y1="241.3" x2="1352.2" y2="196.5"/>

					<line style="fill:none;stroke:#000000;stroke-linecap:round;stroke-linejoin:round;stroke-miterlimit:10;"
						  x1="1769.3" y1="241.3" x2="1769.3" y2="196.5"/>
				</g>
				<g>
					<polygon
							style="fill:#FFFFFF;stroke:#000000;stroke-linecap:round;stroke-linejoin:round;stroke-miterlimit:10;"
							points="
						1779.7,227.5 1323.5,227.5 1335,192.6 1779.7,192.6 					"/>
					<polyline style="fill:#CEBB9F;stroke:#000000;stroke-miterlimit:10;" points="1779.7,204.1 1779.7,192.6 1335,192.6
						1331.2,204.1 					"/>

					<line style="fill:none;stroke:#000000;stroke-linecap:round;stroke-linejoin:round;stroke-miterlimit:10;"
						  x1="1352.2" y1="210.3" x2="1352.2" y2="165.5"/>

					<line style="fill:none;stroke:#000000;stroke-linecap:round;stroke-linejoin:round;stroke-miterlimit:10;"
						  x1="1769.3" y1="210.3" x2="1769.3" y2="165.5"/>
				</g>
				<g>
					<polygon
							style="fill:#FFFFFF;stroke:#000000;stroke-linecap:round;stroke-linejoin:round;stroke-miterlimit:10;"
							points="
						1779.7,196.5 1323.5,196.5 1335,161.6 1779.7,161.6 					"/>
					<polyline style="fill:#CEBB9F;stroke:#000000;stroke-miterlimit:10;" points="1779.7,173.1 1779.7,161.6 1335,161.6
						1331.2,173.1 					"/>

					<line style="fill:none;stroke:#000000;stroke-linecap:round;stroke-linejoin:round;stroke-miterlimit:10;"
						  x1="1352.2" y1="179.3" x2="1352.2" y2="134.5"/>

					<line style="fill:none;stroke:#000000;stroke-linecap:round;stroke-linejoin:round;stroke-miterlimit:10;"
						  x1="1769.3" y1="179.3" x2="1769.3" y2="134.5"/>
				</g>
				<g>
					<polygon
							style="fill:#FFFFFF;stroke:#000000;stroke-linecap:round;stroke-linejoin:round;stroke-miterlimit:10;"
							points="
						1779.7,165.5 1323,177.2 1334.5,142 1779.7,130.6 					"/>
					<polyline style="fill:#CEBB9F;stroke:#000000;stroke-miterlimit:10;" points="1779.7,142.1 1779.7,130.6 1334.5,142
						1330.8,153.6 					"/>

					<line style="fill:none;stroke:#000000;stroke-linecap:round;stroke-linejoin:round;stroke-miterlimit:10;"
						  x1="1351.8" y1="159.3" x2="1351.8" y2="103.4"/>

					<line style="fill:none;stroke:#000000;stroke-linecap:round;stroke-linejoin:round;stroke-miterlimit:10;"
						  x1="1769.3" y1="148.5" x2="1769.3" y2="103.7"/>
				</g>
			</g>
		</g>
		<g>

				<rect x="1812.6" y="746.9"
					  style="stroke:#000000;stroke-linecap:round;stroke-linejoin:round;stroke-miterlimit:10;" width="81"
					  height="7.6"/>
			<path style="fill:#A8B2AF;stroke:#000000;stroke-linecap:round;stroke-linejoin:round;stroke-miterlimit:10;"
				  d="M1813.2,704.5
				L1813.2,704.5h-1.5c-9.1,0-16.5,6.9-16.5,16c0,6.7,4,12.5,9.8,15h-1.2V748h8.9h0.6h80.4v-11v-1.5v-31H1813.2z"/>

			<line style="fill:none;stroke:#000000;stroke-linecap:round;stroke-linejoin:round;stroke-miterlimit:10;"
				  x1="1804.6" y1="735.5" x2="1891.7" y2="735.5"/>
		</g>
		<g>
			<polygon
					style="fill:#FFFFFF;stroke:#000000;stroke-linecap:round;stroke-linejoin:round;stroke-miterlimit:10;"
					points="
				222.2,505.8 147.7,435.1 191.8,362.7 266.3,433.3 			"/>

			<line style="fill:none;stroke:#000000;stroke-linecap:round;stroke-linejoin:round;stroke-miterlimit:10;"
				  x1="224.1" y1="406.1" x2="189.5" y2="463.1"/>

			<line style="fill:none;stroke:#000000;stroke-linecap:round;stroke-linejoin:round;stroke-miterlimit:10;"
				  x1="216.1" y1="433" x2="223.4" y2="440"/>

			<line style="fill:none;stroke:#000000;stroke-linecap:round;stroke-linejoin:round;stroke-miterlimit:10;"
				  x1="208.2" y1="446" x2="232.4" y2="468.9"/>

			<line style="fill:none;stroke:#000000;stroke-linecap:round;stroke-linejoin:round;stroke-miterlimit:10;"
				  x1="204.2" y1="452.5" x2="228.5" y2="475.4"/>

			<line style="fill:none;stroke:#000000;stroke-linecap:round;stroke-linejoin:round;stroke-miterlimit:10;"
				  x1="200.3" y1="459" x2="224.5" y2="481.9"/>

			<ellipse transform="matrix(1.580599e-02 -0.9999 0.9999 1.580599e-02 -192.8609 668.6374)"
					 style="fill:none;stroke:#455CFF;stroke-width:1;stroke-linecap:round;stroke-linejoin:round;stroke-miterlimit:10.0036;"
					 cx="243.2" cy="432.3" rx="10.9" ry="7.4"/>
			<polygon style="fill:none;stroke:#000000;stroke-linecap:round;stroke-linejoin:round;stroke-miterlimit:10;"
					 points="
				244.6,452.6 237.2,445.6 246.9,429.7 254.3,436.7 			"/>
			<path style="fill:none;stroke:#455CFF;stroke-linecap:round;stroke-linejoin:round;stroke-miterlimit:10.0034;"
				  d="M181.4,395.9
				c2.7,0.4,12.5,5.5,15,6.2s5.1,4.2,7.9,4.6c2.8,0.4,7.6,0.7,7.6,0.7"/>
			<path style="fill:none;stroke:#455CFF;stroke-linecap:round;stroke-linejoin:round;stroke-miterlimit:10.0034;"
				  d="M175.5,404.1
				c5.2,1.7,9.4,5.6,15.9,9.1s11.2-0.3,14.3,3.3"/>
			<path style="fill:none;stroke:#455CFF;stroke-linecap:round;stroke-linejoin:round;stroke-miterlimit:10.0034;"
				  d="M171.3,415.8
				c5,1.7,10.8,7.1,15.1,8.6s15.3,5.8,15.3,5.8"/>
			<path style="fill:none;stroke:#455CFF;stroke-linecap:round;stroke-linejoin:round;stroke-miterlimit:10.0034;"
				  d="M172.6,433
				c2.3,2.7,9.4,6.2,11.3,8.2c1.8,1.9,5.6,4.8,5.6,4.8"/>
		</g>
		<g>
			<g>
				<path style="fill:#CEBB9F;" d="M173.8,527.5c-7.6-4.2-17.8,4.5-23.3,11.2c-3.5,4.2-5,9.8-5.7,15.2c-1.4,10.2-0.7,20.5-2.1,30.7
					c-2.1,15.5-9,30.5-7.3,46c2,18.9,18.2,35.2,37,37.5c2.1,0.2,4.2,0.3,6.1-0.5c5.2-2.2,5.8-9.5,9.5-13.7c1.8-2.1,4.4-3.4,6.7-4.9
					c13-8.6,18.2-25.4,17.7-41c-0.5-15.5-5.7-30.5-9.3-45.6c-1.6-6.7-3-13.7-6.7-19.5S180.7,526.4,173.8,527.5"/>
			</g>
			<g>
				<path style="fill:#C8CECC;stroke:#000000;stroke-linecap:round;stroke-linejoin:round;stroke-miterlimit:10;"
					  d="M188.9,639
					h-32.5c-2.8,0-5-2.3-5-5v-72.5c0-2.8,2.3-5,5-5h32.5c2.8,0,5,2.3,5,5V634C193.9,636.7,191.7,639,188.9,639z"/>
				<path style="fill:#FFFFFF;stroke:#000000;stroke-linecap:round;stroke-linejoin:round;stroke-miterlimit:10;"
					  d="M193.9,639
					h-32.5c-2.8,0-5-2.3-5-5v-72.5c0-2.8,2.3-5,5-5h32.5c2.8,0,5,2.3,5,5V634C198.9,636.7,196.7,639,193.9,639z"/>
			</g>

			<rect x="170.1" y="580.1"
				  style="fill:#FFFFFF;stroke:#000000;stroke-linecap:round;stroke-linejoin:round;stroke-miterlimit:10;"
				  width="15.6" height="33.3"/>

			<rect x="182.1" y="580.1"
				  style="fill:#C8CECC;stroke:#000000;stroke-linecap:round;stroke-linejoin:round;stroke-miterlimit:10;"
				  width="3.6" height="33.3"/>
			<polygon
					style="fill:#C8CECC;stroke:#000000;stroke-linecap:round;stroke-linejoin:round;stroke-miterlimit:10;"
					points="
				185.6,581.3 170.3,590.4 170.3,581.2 182.1,573.8 			"/>
			<polygon
					style="fill:#FFFFFF;stroke:#000000;stroke-linecap:round;stroke-linejoin:round;stroke-miterlimit:10;"
					points="
				182.1,573.8 192.1,573.8 195.6,581.3 185.6,581.3 			"/>
			<polygon style="stroke:#000000;stroke-linecap:round;stroke-linejoin:round;stroke-miterlimit:10;" points="170.3,590.4
				180.7,590.4 195.6,581.3 185.6,581.3 			"/>
		</g>
		<g>

				<rect x="548.4" y="89.9"
					  style="fill:#C06133;stroke:#000000;stroke-linecap:round;stroke-linejoin:round;stroke-miterlimit:10;"
					  width="216.7" height="344.3"/>

			<rect x="557.4" y="89.9"
				  style="fill:#EA7547;stroke:#000000;stroke-linecap:round;stroke-linejoin:round;stroke-miterlimit:10;"
				  width="216.7" height="344.3"/>

			<rect x="749.5" y="107.1"
				  style="stroke:#000000;stroke-linecap:round;stroke-linejoin:round;stroke-miterlimit:10;" width="9.1"
				  height="309.9"/>

			<rect x="572.8" y="107.1"
				  style="fill:#FFFFFF;stroke:#000000;stroke-linecap:round;stroke-linejoin:round;stroke-miterlimit:10;"
				  width="176.7" height="309.9"/>
			<g>
				<path style="fill:#D22031;stroke:#000000;stroke-linecap:round;stroke-linejoin:round;stroke-miterlimit:10;"
					  d="M742,416.8
					c0.1-2.7,0.4-12.4,0.4-44.8c0-41.9-13.8-51.7-18.2-51.9c-0.1,0-0.2,0-0.3,0v-0.4l-11.7-14.9c0,0-6.2-40.2-16.2-37.3
					c-7.4,2.2-16.1-9.6-25.8-6.7c-18.2,5.3-39.1,43.5-51.4,47c-6,1.7-10.2,27-11.6,27.4c-8,2.1-15.1,17.5-16.9,40.5
					c-1.4,18.7-1,32.8-1.2,41.3H742V416.8z"/>
				<path style="fill:none;stroke:#000000;stroke-linecap:round;stroke-linejoin:round;stroke-miterlimit:10;"
					  d="M699.2,415.1
					c0,0,6.9-61.4,13.4-78.3c6.5-16.9,11.2-16.8,11.2-16.8"/>
				<path style="fill:none;stroke:#000000;stroke-linecap:round;stroke-linejoin:round;stroke-miterlimit:10;"
					  d="M609.6,416.4
					c0,0-2.5-31.9-0.4-58.9"/>
				<path style="fill:#FFFFFF;stroke:#000000;stroke-linecap:round;stroke-linejoin:round;stroke-miterlimit:10;"
					  d="M688.6,318.5
					c0.1,0.9-6.1,27.8-5.9,31.5c0.2,3.7-17,21.9-19.8,24.5s-22,24.1-22,24.1s-11.5-20-12.2-21.1c-0.6-1.1-13.7-35.2-13.7-35.2
					l3.7-18.9"/>
				<path style="fill:#D22031;stroke:#000000;stroke-linecap:round;stroke-linejoin:round;stroke-miterlimit:10;"
					  d="M699.4,265.2
					c-23.5-15.4-30.9-12.4-30.9-12.4L606,298.9c0,0-6.2,22.7-2.4,40.2s8.6,27,17.3,35.7s19.1,28.4,19.1,28.4s15.9-15.3,35-27.7
					c19.1-12.4,32-27.7,37.2-49.6C717.4,304.1,722.9,280.5,699.4,265.2z M697.6,331.1c-10,19.6-26,26.6-37.7,35S641,394.2,641,394.2
					s-4.6-11.8-7.8-21.5s-14.2-28.4-17.1-36.1c-2.8-7.7-1-23.5-1-23.5l53.3-49.1c12.2-4.2,27.5,7.7,34.2,15.7
					C709.4,287.5,707.6,311.4,697.6,331.1z"/>
				<g>
					<path style="fill:#FFFFFF;stroke:#000000;stroke-linecap:round;stroke-linejoin:round;stroke-miterlimit:10;"
						  d="M620.9,322.4
						c0,0,0,10.4,2.2,17.1c1.3,4,10,23.8,12.7,27.9s5.2,11.4,5.2,11.4s14.8-17.1,20-20.8c5.2-3.6,22.6-18.9,26.8-34.3
						c4.2-15.3-0.4-25.1-6.4-28.8c-6-3.6-12.2-4-12.2-4"/>
					<g>
						<path style="fill:#F5C6C2;stroke:#000000;stroke-linecap:round;stroke-linejoin:round;stroke-miterlimit:10;"
							  d="M625.8,323.3
							c0,0,0.1,7.8,2.6,15.1c0.8,2.4,14.6,29,14.6,29s18.3-17.1,24.6-23.9s19-18.9,16-31.2c-3-12.3-11.3-17.6-11.3-17.6"/>
						<path style="fill:#F5C6C2;stroke:#000000;stroke-linecap:round;stroke-linejoin:round;stroke-miterlimit:10;"
							  d="M679.6,320
							c0,0-2.4-9.6-4.2-18c-1.8-8.5-3-32.5-3-32.5l-20.7,9.8"/>
						<path style="fill:none;stroke:#000000;stroke-linecap:round;stroke-linejoin:round;stroke-miterlimit:10;"
							  d="M642,342.2
							c0,0-6.8-8.9-9.8-18.9"/>
						<path style="fill:#F5C6C2;stroke:#000000;stroke-linecap:round;stroke-linejoin:round;stroke-miterlimit:10;"
							  d="M611.6,169.9
							c0,0-11.9,37-11.9,45.5c-0.1,8.5,0.2,15.9,0.2,15.9s-4.3,26.8-1.3,45.1c3,18.3,10.6,44.5,18.3,48.9s29.5,4.4,37.4-6
							s16.3-26.2,18.5-38.8s4.7-23.8,4.7-23.8l9.3-50.4"/>
						<g id="left-eye-closed">
							<path style="fill:#F5C6C2;stroke:#000000;stroke-linecap:round;stroke-linejoin:round;stroke-miterlimit:10;"
								  d="
								M608.6,242.2c4.7,0,8.6-4,8.6-9H600C600,238.2,603.9,242.2,608.6,242.2z"/>
							<path style="fill:#F5C6C2;stroke:#000000;stroke-linecap:round;stroke-linejoin:round;stroke-miterlimit:10;"
								  d="
								M608.6,224.2c-4.7,0-8.6,4-8.6,9h17.2C617.2,228.2,613.3,224.2,608.6,224.2z"/>
						</g>
						<g id="right-eye-closed">
							<path style="fill:#F5C6C2;stroke:#000000;stroke-linecap:round;stroke-linejoin:round;stroke-miterlimit:10;"
								  d="
								M645.6,242.2c4.7,0,8.6-4,8.6-9H637C637,238.2,640.9,242.2,645.6,242.2z"/>
							<path style="fill:#F5C6C2;stroke:#000000;stroke-linecap:round;stroke-linejoin:round;stroke-miterlimit:10;"
								  d="
								M645.6,224.2c-4.7,0-8.6,4-8.6,9h17.2C654.2,228.2,650.3,224.2,645.6,224.2z"/>
						</g>
						<g id="left-eye-opened">

								<ellipse
										style="fill:#FFFFFF;stroke:#000000;stroke-linecap:round;stroke-linejoin:round;stroke-miterlimit:10;"
										cx="608.6" cy="233.2" rx="8.6" ry="9"/>
							<circle cx="608.6" cy="233.9" r="2.4"/>
							<path style="fill:#F5C6C2;stroke:#000000;stroke-linecap:round;stroke-linejoin:round;stroke-miterlimit:10;"
								  d="
								M602.2,239.2c1.6,1.8,3.9,3,6.4,3s4.8-1.2,6.4-3H602.2z"/>
							<path style="fill:#F5C6C2;stroke:#000000;stroke-linecap:round;stroke-linejoin:round;stroke-miterlimit:10;"
								  d="
								M616.5,229.7c-1.3-3.2-4.4-5.5-7.9-5.5c-3.6,0-6.6,2.3-7.9,5.5H616.5z"/>
						</g>
						<g id="right-eye-opened">

								<ellipse
										style="fill:#FFFFFF;stroke:#000000;stroke-linecap:round;stroke-linejoin:round;stroke-miterlimit:10;"
										cx="645.6" cy="233.2" rx="8.6" ry="9"/>
							<circle cx="645.6" cy="233.9" r="2.4"/>
							<path style="fill:#F5C6C2;stroke:#000000;stroke-linecap:round;stroke-linejoin:round;stroke-miterlimit:10;"
								  d="
								M639.2,239.2c1.6,1.8,3.9,3,6.4,3s4.8-1.2,6.4-3H639.2z"/>
							<path style="fill:#F5C6C2;stroke:#000000;stroke-linecap:round;stroke-linejoin:round;stroke-miterlimit:10;"
								  d="
								M653.5,229.7c-1.3-3.2-4.4-5.5-7.9-5.5c-3.6,0-6.6,2.3-7.9,5.5H653.5z"/>
						</g>
						<path style="fill:none;stroke:#000000;stroke-linecap:round;stroke-linejoin:round;stroke-miterlimit:10;"
							  d="M622.6,229.1
							c0,0-3,7.7-4.2,16.1c-1.2,8.4-2.2,14.7-2.2,14.7s-5.4,0.8-4.8,4.9c0.6,4.1,6.3,3.9,6.3,3.9s-0.8,6.9,3.5,7.7
							c4.3,0.8,4.7-5.8,4.7-5.8s3,4.1,6.7,1.6s-1.2-8.7-1.2-8.7"/>
						<polyline
								style="fill:none;stroke:#000000;stroke-linecap:round;stroke-linejoin:round;stroke-miterlimit:10;"
								points="
							610.1,286.1 613,291 611.3,297.9 						"/>
						<path style="fill:none;stroke:#000000;stroke-linecap:round;stroke-linejoin:round;stroke-miterlimit:10;"
							  d="M613,291
							c0,0,7.3-1.6,13.6-1.6s18.1,0.8,18.1,0.8"/>
					</g>
					<path style="fill:#112061;stroke:#000000;stroke-linecap:round;stroke-linejoin:round;stroke-miterlimit:10;"
						  d="M602.8,184.1
						c0,1.6-0.6,3.1-1.2,4.5c-0.6,1.4-1.1,3.1-0.7,4.6s2,2.5,2.8,1.3c0.7-1,0.4-3,1.4-3.5c-0.2,0.9-0.5,1.9-0.3,2.8
						c0.1,0.9,0.8,1.8,1.5,1.7c0.5-0.1,0.9-0.6,1.2-1.1c0.8-1.2,1.6-2.4,2.4-3.6c0.3,1.6,0.6,3.1,1,4.7c0.1,0.5,0.3,1.2,0.7,1.3
						c0.2,0.1,0.5,0,0.7-0.2c1.3-0.7,2.8-1.8,3.1-3.7c-0.3,2.1-0.6,4.3-0.9,6.4c0,0.3-0.1,0.5,0,0.8c0.2,0.8,1.1,0.5,1.6,0
						c0.9-0.9,1.7-2.1,2.2-3.4c-0.1,1.5-0.1,3.1,0.1,4.6c1.3,0.4,2.8-1.2,2.7-3c0,1.8,0,3.6,0,5.3c0,1.4,0,2.9,0.5,4.2
						s1.6,2.2,2.6,1.7c0.9-0.4,1.3-1.8,1.6-3c0.5-2.5,0.8-5,0.8-7.5c0.2,2.2,0.5,4.3,0.7,6.5c0,0.4,0.1,0.8,0.3,1s0.4,0.2,0.7,0.2
						c1.5-0.1,2.7-1.7,3.2-3.5c0.6-1.8,0.7-3.8,0.7-5.7c0.5,1.2,1,2.4,1.5,3.5c0.1,0.3,0.3,0.7,0.6,0.8s0.7-0.2,0.9-0.5
						c1.2-1.5,2.2-3.2,2.9-5.1c0.2,1,0.3,2,0.8,2.8c0.4,0.8,1.2,1.3,1.9,1c0.9-0.4,1.2-2,1.3-3.3c0.2,1.6,0.6,3.1,1.1,4.5
						c1.1-0.5,2.1-1.6,2.6-2.9c0.5,0.3,0.3,1.2,0.5,1.8c0.3,1.1,1.5,1,2.3,0.3c0.7-0.7,1.2-1.8,2-2.2c-0.1,0.9-0.2,1.8,0,2.7
						s0.7,1.7,1.4,1.7c0.4,0,0.7-0.2,1.1-0.4c1-0.7,1.9-1.9,2.5-3.3c0,1.2,0.1,2.3,0.1,3.5c3-2.4,4.7-7.3,4.3-12
						c-8.4-4.7-17-8.6-25.7-11.7"/>
					<path style="fill:#112061;stroke:#000000;stroke-linecap:round;stroke-linejoin:round;stroke-miterlimit:10;"
						  d="M667,199.5
						c-0.6,1.9-1.2,3.9-1.4,6c-0.1,2.1,0.3,4.4,1.5,5.7s2.9,1.5,4.4,1.4c-0.5,0.8-1.1,1.9-0.9,2.9c0.1,1.1,1.4,1.7,1.8,0.7
						c-1.8,2-2.5,5.5-1.7,8.3c0.3-0.5,0.7-0.9,1-1.4c-1,2.7-1.3,5.8-1,8.7c0.5-0.1,0.9-0.5,1-1.1c0.2,0.6,0,1.3,0,2
						c-0.1,1.5,0.9,2.8,1.9,3.2s2.2,0.2,3.3,0c1.4-6.3,4-10.5,8.6-15.6"/>
					<path style="fill:#F1BE54;stroke:#000000;stroke-linecap:round;stroke-linejoin:round;stroke-miterlimit:10;"
						  d="M605.3,170
						c0,0,7.2-17.7,15.6-24.2c8.4-6.5,33.9-15.2,44.7-13.7s14.2,9.5,17.1,15.1c2.9,5.6,4.6,8.2,5.1,12.9s-1,7.3-1,7.3
						s4.3,9.9,6.2,20.2s-1.1,28.9-1.1,28.9l-39.7-36.4"/>
					<path style="fill:#F1BE54;stroke:#000000;stroke-linecap:round;stroke-linejoin:round;stroke-miterlimit:10;"
						  d="M630.4,183.3
						c11.2,1.1,24.7,7.8,33.3,15.1s20.6,23.5,20.6,23.5l10.1,5.8c0,0,0.1-9.5-3.7-15.9S672.4,187,658,176.6s-25.9-11.1-34.6-10.8
						c-8.7,0.4-15.3,1.1-18,4s-5.3,10.4-4.9,14s2.3,3.3,4.9,2.2S617.4,182.1,630.4,183.3z"/>
					<g>
						<g>

								<line style="fill:none;stroke:#000000;stroke-linecap:round;stroke-linejoin:round;stroke-miterlimit:10;"
									  x1="602.4" y1="273.5" x2="602.4" y2="279.3"/>

							<line style="fill:none;stroke:#000000;stroke-linecap:round;stroke-linejoin:round;stroke-miterlimit:10;"
								  x1="608" y1="273.5" x2="608" y2="279.3"/>

							<line style="fill:none;stroke:#000000;stroke-linecap:round;stroke-linejoin:round;stroke-miterlimit:10;"
								  x1="655" y1="263.7" x2="655" y2="269.4"/>

							<line style="fill:none;stroke:#000000;stroke-linecap:round;stroke-linejoin:round;stroke-miterlimit:10;"
								  x1="649.2" y1="270.7" x2="649.2" y2="276.4"/>

							<line style="fill:none;stroke:#000000;stroke-linecap:round;stroke-linejoin:round;stroke-miterlimit:10;"
								  x1="663" y1="265.2" x2="663" y2="270.9"/>

							<line style="fill:none;stroke:#000000;stroke-linecap:round;stroke-linejoin:round;stroke-miterlimit:10;"
								  x1="663.7" y1="249.6" x2="663.7" y2="255.3"/>

							<line style="fill:none;stroke:#000000;stroke-linecap:round;stroke-linejoin:round;stroke-miterlimit:10;"
								  x1="661" y1="279.6" x2="661" y2="285.4"/>

							<line style="fill:none;stroke:#000000;stroke-linecap:round;stroke-linejoin:round;stroke-miterlimit:10;"
								  x1="653.6" y1="283.2" x2="653.6" y2="289"/>
						</g>

						<line style="fill:none;stroke:#000000;stroke-linecap:round;stroke-linejoin:round;stroke-miterlimit:10;"
							  x1="613" y1="279.3" x2="613" y2="283.2"/>

						<line style="fill:none;stroke:#000000;stroke-linecap:round;stroke-linejoin:round;stroke-miterlimit:10;"
							  x1="633.2" y1="276.4" x2="633.2" y2="279.3"/>

						<line style="fill:none;stroke:#000000;stroke-linecap:round;stroke-linejoin:round;stroke-miterlimit:10;"
							  x1="640" y1="277.5" x2="640" y2="281.5"/>

						<line style="fill:none;stroke:#000000;stroke-linecap:round;stroke-linejoin:round;stroke-miterlimit:10;"
							  x1="627" y1="280.1" x2="627" y2="284.1"/>

						<line style="fill:none;stroke:#000000;stroke-linecap:round;stroke-linejoin:round;stroke-miterlimit:10;"
							  x1="619.2" y1="282.1" x2="619.2" y2="286.1"/>

						<line style="fill:none;stroke:#000000;stroke-linecap:round;stroke-linejoin:round;stroke-miterlimit:10;"
							  x1="625" y1="308.7" x2="625.5" y2="314.5"/>

						<line style="fill:none;stroke:#000000;stroke-linecap:round;stroke-linejoin:round;stroke-miterlimit:10;"
							  x1="616.6" y1="304.7" x2="617.1" y2="310.5"/>

						<line style="fill:none;stroke:#000000;stroke-linecap:round;stroke-linejoin:round;stroke-miterlimit:10;"
							  x1="608.8" y1="301.7" x2="609.4" y2="307.6"/>

						<line style="fill:none;stroke:#000000;stroke-linecap:round;stroke-linejoin:round;stroke-miterlimit:10;"
							  x1="633.2" y1="303" x2="633.2" y2="308.7"/>

						<line style="fill:none;stroke:#000000;stroke-linecap:round;stroke-linejoin:round;stroke-miterlimit:10;"
							  x1="643.4" y1="296.1" x2="643.4" y2="301.7"/>

						<line style="fill:none;stroke:#000000;stroke-linecap:round;stroke-linejoin:round;stroke-miterlimit:10;"
							  x1="642" y1="311.1" x2="642" y2="316.8"/>

						<line style="fill:none;stroke:#000000;stroke-linecap:round;stroke-linejoin:round;stroke-miterlimit:10;"
							  x1="652.2" y1="304.2" x2="652.2" y2="309.8"/>

						<line style="fill:none;stroke:#000000;stroke-linecap:round;stroke-linejoin:round;stroke-miterlimit:10;"
							  x1="656.7" y1="295" x2="656.7" y2="300.7"/>

						<line style="fill:none;stroke:#000000;stroke-linecap:round;stroke-linejoin:round;stroke-miterlimit:10;"
							  x1="669.1" y1="278.4" x2="669.1" y2="283.1"/>

						<line style="fill:none;stroke:#000000;stroke-linecap:round;stroke-linejoin:round;stroke-miterlimit:10;"
							  x1="672.3" y1="244" x2="671.7" y2="248.8"/>

						<line style="fill:none;stroke:#000000;stroke-linecap:round;stroke-linejoin:round;stroke-miterlimit:10;"
							  x1="670.2" y1="260.6" x2="670.2" y2="267.3"/>

						<line style="fill:none;stroke:#000000;stroke-linecap:round;stroke-linejoin:round;stroke-miterlimit:10;"
							  x1="613.6" y1="315" x2="615.2" y2="319.8"/>

						<line style="fill:none;stroke:#000000;stroke-linecap:round;stroke-linejoin:round;stroke-miterlimit:10;"
							  x1="622.6" y1="323.8" x2="620.9" y2="318.5"/>

						<line style="fill:none;stroke:#000000;stroke-linecap:round;stroke-linejoin:round;stroke-miterlimit:10;"
							  x1="632.3" y1="316.8" x2="632.3" y2="322.4"/>
					</g>
					<g>
						<path style="fill:none;stroke:#000000;stroke-linecap:round;stroke-linejoin:round;stroke-miterlimit:10;"
							  d="M608.2,171.7
							c0,0-1.5,4.4-1.9,8.6"/>
						<path style="fill:none;stroke:#000000;stroke-linecap:round;stroke-linejoin:round;stroke-miterlimit:10;"
							  d="M615.2,169.9
							c0,0-1.7,5.1-1.3,9.7"/>
						<path style="fill:none;stroke:#000000;stroke-linecap:round;stroke-linejoin:round;stroke-miterlimit:10;"
							  d="M622.3,169.9
							c0,0-1.7,5.1-1.3,9.7"/>

						<line style="fill:none;stroke:#000000;stroke-linecap:round;stroke-linejoin:round;stroke-miterlimit:10;"
							  x1="630.4" y1="179.5" x2="631.3" y2="171.7"/>

						<line style="fill:none;stroke:#000000;stroke-linecap:round;stroke-linejoin:round;stroke-miterlimit:10;"
							  x1="639.6" y1="181.3" x2="640.5" y2="173.4"/>

						<line style="fill:none;stroke:#000000;stroke-linecap:round;stroke-linejoin:round;stroke-miterlimit:10;"
							  x1="649.2" y1="184.8" x2="649.9" y2="177.3"/>

						<line style="fill:none;stroke:#000000;stroke-linecap:round;stroke-linejoin:round;stroke-miterlimit:10;"
							  x1="658" y1="181.3" x2="656.1" y2="188.8"/>

						<line style="fill:none;stroke:#000000;stroke-linecap:round;stroke-linejoin:round;stroke-miterlimit:10;"
							  x1="664.3" y1="193.5" x2="666.2" y2="186.4"/>

						<line style="fill:none;stroke:#000000;stroke-linecap:round;stroke-linejoin:round;stroke-miterlimit:10;"
							  x1="670.2" y1="201.2" x2="672" y2="193.5"/>

						<line style="fill:none;stroke:#000000;stroke-linecap:round;stroke-linejoin:round;stroke-miterlimit:10;"
							  x1="677.8" y1="210" x2="679.5" y2="202.3"/>

						<line style="fill:none;stroke:#000000;stroke-linecap:round;stroke-linejoin:round;stroke-miterlimit:10;"
							  x1="682.7" y1="216.7" x2="684.5" y2="209"/>

						<line style="fill:none;stroke:#000000;stroke-linecap:round;stroke-linejoin:round;stroke-miterlimit:10;"
							  x1="689.3" y1="215.6" x2="687.8" y2="220.3"/>
					</g>
					<path style="fill:#F5C6C2;stroke:#000000;stroke-linecap:round;stroke-linejoin:round;stroke-miterlimit:10;"
						  d="M676.5,256.6
						c0,0,3,5.5,8.5,2.2c5.5-3.3,9-19.2,9.5-25.6c0.5-6.4-0.9-14.9-5.8-13.8c-4.9,1.1-7.9,7.5-7.9,7.5"/>
					<path style="fill:none;stroke:#000000;stroke-linecap:round;stroke-linejoin:round;stroke-miterlimit:10;"
						  d="M687.7,229.1
						c-2.6,1.6-5.1,3.8-6.6,6.9c-1.6,3.2-2.2,7.6-0.7,10.9c1,2.2,2.5,1.9,3.1,1.8c1.8-0.6,2.8-3.1,2.8-5.7c0-0.4-0.1-0.8-0.2-1.2
						c-0.3-1.1-1.3-1.2-2.5-1.1c-1.8,0.2-2.9,2.7-3.5,5"/>
					<g>
						<path style="fill:none;stroke:#000000;stroke-linecap:round;stroke-linejoin:round;stroke-miterlimit:10;"
							  d="M615.2,163.1
							c0,0,4.4-11.3,12.1-16.8"/>
						<path style="fill:none;stroke:#000000;stroke-linecap:round;stroke-linejoin:round;stroke-miterlimit:10;"
							  d="M625.2,160.2
							c0,0,8.8-13.1,13.3-16.8"/>
						<path style="fill:none;stroke:#000000;stroke-linecap:round;stroke-linejoin:round;stroke-miterlimit:10;"
							  d="M637,160.2
							c0,0,10.1-22,20.9-28.2"/>
						<path style="fill:none;stroke:#000000;stroke-linecap:round;stroke-linejoin:round;stroke-miterlimit:10;"
							  d="M644.7,161.7
							c0,0,16.9-23.3,27.8-27.3"/>
						<path style="fill:none;stroke:#000000;stroke-linecap:round;stroke-linejoin:round;stroke-miterlimit:10;"
							  d="M654.2,167.5
							c0,0,9.5-13.1,14.9-18.2s13.6-2,13.6-2"/>

						<line style="fill:none;stroke:#000000;stroke-linecap:round;stroke-linejoin:round;stroke-miterlimit:10;"
							  x1="663.7" y1="173.4" x2="675" y2="161.7"/>

						<line style="fill:none;stroke:#000000;stroke-linecap:round;stroke-linejoin:round;stroke-miterlimit:10;"
							  x1="671.7" y1="179.5" x2="679.6" y2="166"/>

						<line style="fill:none;stroke:#000000;stroke-linecap:round;stroke-linejoin:round;stroke-miterlimit:10;"
							  x1="677.3" y1="186.4" x2="684.4" y2="175.6"/>

						<line style="fill:none;stroke:#000000;stroke-linecap:round;stroke-linejoin:round;stroke-miterlimit:10;"
							  x1="682.7" y1="194.5" x2="687.8" y2="181"/>

						<line style="fill:none;stroke:#000000;stroke-linecap:round;stroke-linejoin:round;stroke-miterlimit:10;"
							  x1="687.7" y1="202.8" x2="689.3" y2="194.5"/>
					</g>
					<path style="fill:none;stroke:#000000;stroke-linecap:round;stroke-linejoin:round;stroke-miterlimit:10;"
						  d="M675,149.3
						c0,0,1.8,6.9,5.8,10.9s6.9,9.7,6.9,9.7"/>

					<line style="fill:none;stroke:#000000;stroke-linecap:round;stroke-linejoin:round;stroke-miterlimit:10;"
						  x1="680.8" y1="151.8" x2="682.7" y2="156.7"/>

					<line style="fill:none;stroke:#000000;stroke-linecap:round;stroke-linejoin:round;stroke-miterlimit:10;"
						  x1="602.4" y1="218" x2="614.1" y2="218"/>

					<line style="fill:none;stroke:#000000;stroke-linecap:round;stroke-linejoin:round;stroke-miterlimit:10;"
						  x1="639.7" y1="218" x2="651.5" y2="218"/>
				</g>
				<path style="fill:none;stroke:#000000;stroke-linecap:round;stroke-linejoin:round;stroke-miterlimit:10;"
					  d="M684.1,286.1
					c0,0,7.6,12.9,5.4,27"/>
				<g>

						<line style="fill:none;stroke:#000000;stroke-linecap:round;stroke-linejoin:round;stroke-miterlimit:10;"
							  x1="644.7" y1="334.9" x2="647.4" y2="338.6"/>

					<line style="fill:none;stroke:#000000;stroke-linecap:round;stroke-linejoin:round;stroke-miterlimit:10;"
						  x1="649.5" y1="326.4" x2="651.9" y2="331.1"/>

					<line style="fill:none;stroke:#000000;stroke-linecap:round;stroke-linejoin:round;stroke-miterlimit:10;"
						  x1="657.3" y1="331.1" x2="659.6" y2="334.9"/>

					<line style="fill:none;stroke:#000000;stroke-linecap:round;stroke-linejoin:round;stroke-miterlimit:10;"
						  x1="644.7" y1="328.7" x2="643.4" y2="326.1"/>

					<line style="fill:none;stroke:#000000;stroke-linecap:round;stroke-linejoin:round;stroke-miterlimit:10;"
						  x1="638.6" y1="331.1" x2="637" y2="327.9"/>

					<line style="fill:none;stroke:#000000;stroke-linecap:round;stroke-linejoin:round;stroke-miterlimit:10;"
						  x1="655.9" y1="323.3" x2="654.2" y2="319.2"/>
				</g>
			</g>
		</g>
		<g>

				<rect x="823" y="46.6"
					  style="fill:#C06133;stroke:#000000;stroke-linecap:round;stroke-linejoin:round;stroke-miterlimit:10;"
					  width="124.4" height="168.7"/>

			<rect x="830.5" y="46.6"
				  style="fill:#EA7547;stroke:#000000;stroke-linecap:round;stroke-linejoin:round;stroke-miterlimit:10;"
				  width="124.4" height="168.7"/>

			<rect x="854.9" y="78.7"
				  style="fill:#FFFFFF;stroke:#000000;stroke-linecap:round;stroke-linejoin:round;stroke-miterlimit:10;"
				  width="71.6" height="104.6"/>
			<g>
				<g>

						<path style="fill:#EA7547;stroke:#000000;stroke-width:0.9883;stroke-linecap:round;stroke-linejoin:round;stroke-miterlimit:10;"
							  d="
						M928.8,157.8c-1.6-2-4.4-9.2-5.6-11.7c-9.4-19.6-10.4-23.8-10.4-23.8l-30.4,21.8c0,0,7.8,1.4,10.8,15
						c0.9,4.3,2.6,13.5,4.5,24.1h31.2L928.8,157.8L928.8,157.8z"/>

					<path style="fill:#EA7547;stroke:#000000;stroke-width:0.9883;stroke-linecap:round;stroke-linejoin:round;stroke-miterlimit:10;"
						  d="
						M884.6,105.2c0,0-6.3,1.9-8.8,6.6s-2.9,9.6-2.9,9.6s1.2,40.2,5.8,41.2C883.4,163.5,884.6,105.2,884.6,105.2z"/>

					<path style="fill:#FFFFFF;stroke:#000000;stroke-width:0.9883;stroke-linecap:round;stroke-linejoin:round;stroke-miterlimit:10;"
						  d="
						M909.8,111.1c0,0,8.9,2.4,11.3,8.4c2.5,6,3.6,18.8-1.8,22.9c-5.5,4.1-3.2-19.8-6-19.2c-2.9,0.7-8.6,15.9-19.9,20.4
						c-11.3,4.4-23.2,4.9-30.5,0.2c-7.3-4.8-7.6-10.2,0.9-15.9c10.7-7.1,11.8-9.9,14.9-14.2c0,0,6-8,11.6-9.5
						C895.9,102.6,905.5,98.9,909.8,111.1z"/>

					<path style="fill:#EA7547;stroke:#000000;stroke-width:0.9883;stroke-linecap:round;stroke-linejoin:round;stroke-miterlimit:10;"
						  d="
						M915,131.3c2.9-0.7,0.6,34,6.1,29.9s2.4-35.7,0-41.7c-2.5-6-11.3-8.4-11.3-8.4c-4.3-12.3-18-11.4-23.3-8.7
						c-3.1,1.5-5.6,8.4-8.7,12.5c-0.1,0.2,3-3.8,10.1-8.4c8-5.2-4.2,11.6-9.6,18.1c-5.5,6.5,7.3,7,9.5,9.9s0.8,8.5,0.4,10.1
						c0,0.2,0.2,0.4,0.5,0.6c1.6-0.5,4.9,0.2,6.4-0.4"/>
					<path style="stroke:#000000;stroke-width:0.9883;stroke-linecap:round;stroke-linejoin:round;stroke-miterlimit:10;"
						  d="
						M866.3,135.4c2.3-2.2,0.9-4.1-1.7-4.6c-1.2-0.2-2.6-0.4-3.9-0.5c-4.4,4.1-4.3,8.1-0.1,11.8C863,140.2,865,136.6,866.3,135.4z"
					/>
					<path style="fill:#F4F5F1;"
						  d="M859.3,136.4c0,0,5.1-2.2,3.5-4.4C861.5,130.1,856.8,134,859.3,136.4z"/>
					<path style="stroke:#000000;stroke-width:0.9883;stroke-linecap:round;stroke-linejoin:round;stroke-miterlimit:10;"
						  d="
						M895.2,118c0,1.6-1,3-2.3,3s-2.3-1.3-2.3-3c0-1.6,1-3,2.3-3C894.1,115,895.2,116.3,895.2,118z"/>
					<path style="fill:#FFFFFF;" d="M892.9,118c0,0.8-0.4,1.4-0.8,1.4c-0.5,0-0.8-0.6-0.8-1.4s0.4-1.4,0.8-1.4
						C892.5,116.5,892.9,117.2,892.9,118z"/>
					<path style="stroke:#000000;stroke-width:0.9883;stroke-linecap:round;stroke-linejoin:round;stroke-miterlimit:10;"
						  d="
						M917.2,137.1c0.3-5.8,1.8-15.4-1.4-18.3c-3.3-2.9-5.1-2.6-6.1-0.5c-0.7,1.4,1,6,1.1,10.7c0.8-0.8,1.4-1.4,2-1.5
						c2.5-0.6,3.2,31.6,6.3,33.1C919,158.8,917.1,139,917.2,137.1z"/>

					<path style="fill:none;stroke:#000000;stroke-width:0.9883;stroke-linecap:round;stroke-linejoin:round;stroke-miterlimit:10;"
						  d="
						M872,146.9c0,0,7.9-2.2,9.3-7.2"/>

					<path style="fill:none;stroke:#000000;stroke-width:0.9883;stroke-linecap:round;stroke-linejoin:round;stroke-miterlimit:10;"
						  d="
						M893.3,111.2c0,0,2.9,0.2,5.5,4.6"/>
				</g>
			</g>

			<rect x="926.4" y="78.7"
				  style="stroke:#000000;stroke-linecap:round;stroke-linejoin:round;stroke-miterlimit:10;" width="4.1"
				  height="104.6"/>
		</g>
		<g>

				<rect x="823" y="265.6"
					  style="fill:#C06133;stroke:#000000;stroke-linecap:round;stroke-linejoin:round;stroke-miterlimit:10;"
					  width="124.4" height="168.7"/>

			<rect x="830.5" y="265.6"
				  style="fill:#EA7547;stroke:#000000;stroke-linecap:round;stroke-linejoin:round;stroke-miterlimit:10;"
				  width="124.4" height="168.7"/>

			<rect x="926.4" y="297.6"
				  style="stroke:#000000;stroke-linecap:round;stroke-linejoin:round;stroke-miterlimit:10;" width="4.1"
				  height="104.6"/>

			<rect x="854.9" y="297.6"
				  style="fill:#FFFFFF;stroke:#000000;stroke-linecap:round;stroke-linejoin:round;stroke-miterlimit:10;"
				  width="71.6" height="104.6"/>
			<g>
				<path style="fill:#D7E6FF;stroke:#000000;stroke-linecap:round;stroke-linejoin:round;stroke-miterlimit:10;"
					  d="M860.8,358
					c0,0,7.3,35.2,31.9,26.3c18.9-6.9,25.3-39.2,25.3-39.2"/>
				<path style="fill:#F2F7FF;stroke:#000000;stroke-linecap:round;stroke-linejoin:round;stroke-miterlimit:10;"
					  d="M907.3,365.4
					c-10.6,11.3-28,13.4-38.8,4.6c-10.9-8.7-11.1-24.9-0.6-36.2c10.6-11.3,35.1-21,46-12.3C924.7,330.3,917.8,354.1,907.3,365.4z"/>

				<ellipse transform="matrix(0.1373 -0.9905 0.9905 0.1373 412.3961 1180.6589)" style="fill:#FFAA05;"
						 cx="884" cy="353.6" rx="16.1" ry="17.5"/>
			</g>
		</g>
		<g>
			<path style="opacity:0.3;fill:#6B5C49;enable-background:new    ;" d="M446,403.9c0,0-13.4-44.4-17.1-54s-19.6-14.8-30.2-36.3
				c-10.6-21.4-14.7-43.7-14.7-43.7h64.4"/>
			<path style="opacity:0.3;fill:#6B5C49;enable-background:new    ;" d="M187.6,269.9v-12.8H118v19.3h33.4
				c2,8.2,6.2,22.9,13.2,37.2c10.6,21.4,26.5,26.7,30.2,36.3c3.7,9.6,17.1,54,17.1,54l2.5-134H187.6z"/>
			<g>
				<path style="fill:#FFFFFF;stroke:#000000;stroke-linecap:round;stroke-linejoin:round;stroke-miterlimit:10;"
					  d="M226.7,272.8
					l-15.4,131.1h15.4c0,0,12.3-24.9,21.8-41.3s25.7-17.3,38.7-34.8c15.2-20.4-0.4-43.1,19-52.9S226.7,272.8,226.7,272.8z"/>
				<path style="fill:#A8B2AF;stroke:#000000;stroke-linecap:round;stroke-linejoin:round;stroke-miterlimit:10;"
					  d="M211.3,272.8
					v131.1c0,0,12.3-24.9,21.8-41.3s25.7-17.3,38.7-34.8c15.2-20.4-0.4-43.1,19-52.9S211.3,272.8,211.3,272.8z"/>
				<polygon style="stroke:#000000;stroke-linecap:round;stroke-linejoin:round;stroke-miterlimit:10;"
						 points="211.3,314.3
					288.2,276.4 211.9,276.4 				"/>
			</g>
			<g>
				<path style="fill:#FFFFFF;stroke:#000000;stroke-linecap:round;stroke-linejoin:round;stroke-miterlimit:10;"
					  d="M460,272.8
					l-15.4,131.1H460c0,0,12.3-24.9,21.8-41.3s25.7-17.3,38.7-34.8c15.2-20.4-0.4-43.1,19-52.9C558.8,265.1,460,272.8,460,272.8z"/>
				<path style="fill:#A8B2AF;stroke:#000000;stroke-linecap:round;stroke-linejoin:round;stroke-miterlimit:10;"
					  d="M444.6,272.8
					v131.1c0,0,12.3-24.9,21.8-41.3s25.7-17.3,38.7-34.8c15.2-20.4-0.4-43.1,19-52.9C543.4,265.1,444.6,272.8,444.6,272.8z"/>
				<polygon style="stroke:#000000;stroke-linecap:round;stroke-linejoin:round;stroke-miterlimit:10;"
						 points="444.6,314.3
					521.4,276.4 445.2,276.4 				"/>
			</g>

			<rect x="307.3" y="257.1"
				  style="fill:#FFFFFF;stroke:#000000;stroke-linecap:round;stroke-linejoin:round;stroke-miterlimit:10;"
				  width="256.6" height="19.3"/>

			<rect x="183.7" y="257.1"
				  style="fill:#A8B2AF;stroke:#000000;stroke-linecap:round;stroke-linejoin:round;stroke-miterlimit:10;"
				  width="123.6" height="19.3"/>
		</g>
		<g id="oscar-small">
			<g>
				<path id="shape" style="fill-rule:evenodd;clip-rule:evenodd;fill:#FAC165;" d="M423.4,73.4c1.9,0.6,1.9,0.6,1.9,0.6
					s-1,10.8-3.3,15.8c-2.4,5,0.1,9,1.6,15.2s0.6,18.5,2.6,26s1.2,8.9-1.5,15.9s-1.8,13.7,1.7,25.3s4,18.4,2.3,23.4
					c-1.1,3.3-2.5,4.9-1.6,6.6h31.3c-3.3-3.1-12.8-3.3-12.9-11.5c-0.1-8.8,4.2-29.7,4.5-41.2s3.2-17.5,5.2-28.4s3.4-25.5,1.8-31.7
					c-1.6-6.2-1.5-11.4-1.4-13.4s4.1-3.6,4.9-10c0.8-6.5,2.4-8.2,2.6-16.9s0.3-7,0.7-9.8c0.3-2.7,3.3-10.8-2.4-16
					c-5.7-5.2-12.3-4.3-13.4-7.4s-0.7-4.2-0.7-4.2s2.2,0.6,4-4.3c0.6-1.5,1.3-3.1,1.9-6L430,1.5c0.4,1.3,0.7,1.5,1,2.6
					c1.1,4.9,1.8,8.6-5.9,12.9c-7.7,4.3-10.8,3.9-10.6,22.2c0.2,18.4,1.4,21.3,3.5,26.1C420,70,421.5,72.8,423.4,73.4z"/>
				<g id="shadows">
					<path style="fill-rule:evenodd;clip-rule:evenodd;fill:#FBB568;stroke:#FBB568;stroke-miterlimit:22.9256;"
						  d="M433.2,25.2
						c0,0-5.4,8.5-5.9,11.5s0.8,8.6,0.8,15.1s1.8,5,1.8,5l-5.4,4.8c0,0,1.6-15.6-1.6-19.5c-3.2-4-1.8-10.9-1.8-13.6
						C421,25.6,433.2,25.2,433.2,25.2L433.2,25.2z"/>
					<path style="fill-rule:evenodd;clip-rule:evenodd;fill:#FBB568;stroke:#FBB568;stroke-miterlimit:22.9256;"
						  d="M441.2,29.8
						c0,0-1,5.4-4.3,5.8c-3.3,0.3-5.9,1.6,0.2,4.5C443.3,43.1,448.7,41.5,441.2,29.8L441.2,29.8z"/>
					<path style="fill-rule:evenodd;clip-rule:evenodd;fill:#FBB568;stroke:#FBB568;stroke-miterlimit:22.9256;"
						  d="M448.7,28.8
						c0,0,2,11.2-1,13.7c-3.1,2.5,6.1,4,6.4-3.1C454.3,32.4,448.7,28.8,448.7,28.8L448.7,28.8z"/>
					<path style="fill-rule:evenodd;clip-rule:evenodd;fill:#FBB568;stroke:#FBB568;stroke-miterlimit:22.9256;"
						  d="M453.3,50.4
						c0,0-2.2-1.9-10.3,3.2c-8.2,5.1-19.3,11.1-11.4,9.2s10.7-4.1,16.6-3.7C454.1,59.3,453.3,50.4,453.3,50.4L453.3,50.4z"/>
					<path style="fill-rule:evenodd;clip-rule:evenodd;fill:#FBB568;stroke:#FBB568;stroke-miterlimit:22.9256;"
						  d="M461,39.9
						l-4.1,4.1l-2,17.8C454.9,61.8,463.4,48.6,461,39.9L461,39.9z"/>
					<path style="fill-rule:evenodd;clip-rule:evenodd;fill:#FBB568;stroke:#FBB568;stroke-miterlimit:22.9256;"
						  d="M451.3,75.5
						l-5.1,2.5l-12.8-6.2l-1.4,5.9c0,0,4,1.6,7.2,7.7s5.1,8.5,5.1,8.5L440.8,194L451.3,75.5L451.3,75.5z"/>
					<path style="fill-rule:evenodd;clip-rule:evenodd;fill:#FBB568;stroke:#FBB568;stroke-miterlimit:22.9256;"
						  d="M443.5,97.8
						c0,0-2.2-1.7-5.6-8.1s-4.4-8.4-4.5,3.5s3.4,18,4.3,27.4c0.9,9.3,1.1,14.6,2.4,6.2C441.4,118.5,443.5,97.8,443.5,97.8
						L443.5,97.8z"/>
					<path style="fill-rule:evenodd;clip-rule:evenodd;fill:#FBB568;stroke:#FBB568;stroke-miterlimit:22.9256;"
						  d="M454.8,94.5
						c0,0-1.6,30.9-3.2,34.2c-1.6,3.3-1.9,3.4-1.9,3.4l0.8-34.4L454.8,94.5L454.8,94.5z"/>
					<path style="fill-rule:evenodd;clip-rule:evenodd;fill:#FBB568;stroke:#FBB568;stroke-miterlimit:22.9256;"
						  d="M433.4,146.9
						l3,47.2l2.6-45.7C439,148.3,436.8,143.6,433.4,146.9L433.4,146.9z"/>
					<path style="fill-rule:evenodd;clip-rule:evenodd;fill:#FBB568;stroke:#FBB568;stroke-miterlimit:22.9256;"
						  d="M447.4,147.7
						c0,0-0.5,15.3-1.4,27.9c-0.9,12.6-3.1,18-3.1,18S445.3,156.1,447.4,147.7L447.4,147.7z"/>
				</g>
				<g id="blink">
					<g>
						<g>
							<g>
								<g>
									<defs>
										<path id="SVGID_1_" d="M458.5,202.2c-3.3-3.1-12.8-3.3-12.9-11.5c-0.1-8.8,4.2-29.7,4.5-41.2s3.2-17.5,5.2-28.4
											s3.4-25.5,1.8-31.7c-1.6-6.2-1.5-11.4-1.4-13.4s4.1-3.6,4.9-10c0.8-6.5,2.4-8.2,2.6-16.9s0.3-7,0.7-9.8
											c0.3-2.7,3.3-10.8-2.4-16c-5.7-5.2-12.3-4.3-13.4-7.4s-0.7-4.2-0.7-4.2s2.2,0.6,4-4.3c0.6-1.5,1.3-3.5,1.9-6.4L430,1.1
											c0.4,1.3,0.7,1.9,1,3c1.1,4.9,1.8,8.6-5.9,12.9c-7.7,4.3-10.8,3.9-10.6,22.2c0.2,18.4,1.4,21.3,3.5,26.1
											c2,4.7,3.5,7.5,5.4,8.1s1.9,0.6,1.9,0.6s-1,10.8-3.3,15.8c-2.4,5,0.1,9,1.6,15.2s0.6,18.5,2.6,26s1.2,8.9-1.5,15.9
											s-1.8,13.7,1.7,25.3s4,18.4,2.3,23.4c-1.1,3.3-2.5,4.9-1.6,6.6h-10.8v9.5h48.9v-9.5H458.5z"/>
									</defs>
									<clipPath id="SVGID_2_">
										<use xlink:href="#SVGID_1_" style="overflow:visible;"/>
									</clipPath>
									<path style="clip-path:url(#SVGID_2_);fill-rule:evenodd;clip-rule:evenodd;fill:#FFF3E6;"
										  d="M467.8,88.1
										c0,0-37.8-17.2-44.5-20.4s-12.6,4-12.6,4V52.4c0,0,6.7-6.7,14-3.3c7.3,3.3,43.1,19.7,43.1,19.7V88.1z"/>
								</g>
							</g>
						</g>
					</g>
				</g>
				<g id="borders">

						<line style="fill:none;stroke:#000000;stroke-linecap:round;stroke-linejoin:round;stroke-miterlimit:10;"
							  x1="429.9" y1="56.7" x2="427.3" y2="36.6"/>
					<polyline
							style="fill:none;stroke:#000000;stroke-linecap:round;stroke-linejoin:round;stroke-miterlimit:10;"
							points="
						447.4,100.4 442.9,145.7 441.1,188.3 					"/>
					<path style="fill:none;stroke:#000000;stroke-linecap:round;stroke-linejoin:round;stroke-miterlimit:10;"
						  d="M436.2,73.1
						c0,0,12,4.6,13.5,4.8s6-1.8,6-1.8"/>
					<path style="fill:none;stroke:#000000;stroke-linecap:round;stroke-linejoin:round;stroke-miterlimit:10;"
						  d="M433.5,56.6
						c0,0,14.4-10.8,18.7-9.9"/>

					<line style="fill:none;stroke:#000000;stroke-linecap:round;stroke-linejoin:round;stroke-miterlimit:10;"
						  x1="456.4" y1="59.1" x2="439.8" y2="68.1"/>
					<path style="fill:none;stroke:#000000;stroke-linecap:round;stroke-linejoin:round;stroke-miterlimit:10;"
						  d="M430,1.1
						c0.4,1.3,0.7,1.9,1,3c1.1,4.9,1.8,8.6-5.9,12.9c-7.7,4.3-10.8,3.9-10.6,22.2c0.2,18.4,1.4,21.3,3.5,26.1c2,4.7,3.5,7.5,5.4,8.1
						s1.9,0.6,1.9,0.6s-1,10.8-3.3,15.8c-2.4,5,0.1,9,1.6,15.2s0.6,18.5,2.6,26s1.2,8.9-1.5,15.9s-1.8,13.7,1.7,25.3
						s4,18.4,2.3,23.4c-1.1,3.3-2.5,4.9-1.6,6.6h31.3c-3.3-3.1-12.8-3.3-12.9-11.5c-0.1-8.8,4.2-29.7,4.5-41.2s3.2-17.5,5.2-28.4
						s3.4-25.5,1.8-31.7c-1.6-6.2-1.5-11.4-1.4-13.4s4.1-3.6,4.9-10c0.8-6.5,2.4-8.2,2.6-16.9s0.3-7,0.7-9.8
						c0.3-2.7,3.3-10.8-2.4-16c-5.7-5.2-12.3-4.3-13.4-7.4s-0.7-4.2-0.7-4.2s2.2,0.6,4-4.3c0.6-1.5,1.3-3.5,1.9-6.4"/>
				</g>
			</g>
			<g>

					<rect x="416.3" y="202.2"
						  style="fill-rule:evenodd;clip-rule:evenodd;fill:#FAC165;stroke:#000000;stroke-linecap:round;stroke-linejoin:round;stroke-miterlimit:10;"
						  width="48.9" height="9.5"/>

				<rect x="410.7" y="209.9"
					  style="fill-rule:evenodd;clip-rule:evenodd;fill:#EA7547;stroke:#000000;stroke-linecap:round;stroke-linejoin:round;stroke-miterlimit:10;"
					  width="60.2" height="37.4"/>

				<rect x="402.1" y="245.5"
					  style="fill-rule:evenodd;clip-rule:evenodd;stroke:#000000;stroke-linecap:round;stroke-linejoin:round;stroke-miterlimit:10;"
					  width="77.3" height="10.8"/>
			</g>
		</g>
		<g>
			<g>
				<g>
					<path style="fill:#708727;stroke:#000000;stroke-linecap:round;stroke-linejoin:round;stroke-miterlimit:10;"
						  d="M393.1,173.4
						c0,0,2.3-29.1-56.8-48.2C336.3,125.2,360.7,168.4,393.1,173.4z"/>
					<path style="fill:none;stroke:#000000;stroke-linecap:round;stroke-linejoin:round;stroke-miterlimit:10;"
						  d="M393.1,173.4
						c0,0-17-24.8-56.2-48"/>
				</g>
				<g>
					<path style="fill:#708727;stroke:#000000;stroke-linecap:round;stroke-linejoin:round;stroke-miterlimit:10;"
						  d="M436.2,176.1
						c0,0,9-32.5,46.2-31.4C482.4,144.8,460.9,175.3,436.2,176.1z"/>
					<path style="fill:none;stroke:#000000;stroke-linecap:round;stroke-linejoin:round;stroke-miterlimit:10;"
						  d="M436.2,176.1
						c0,0,14.6-17.2,45.7-31.3"/>
				</g>
				<g>
					<path style="fill:#E2C961;stroke:#000000;stroke-linecap:round;stroke-linejoin:round;stroke-miterlimit:10;"
						  d="M522.5,352.4
						c0,0-33.9-2.5-43.5,60.6C479,413,523.5,386.9,522.5,352.4z"/>
					<path style="fill:none;stroke:#000000;stroke-linecap:round;stroke-linejoin:round;stroke-miterlimit:10;"
						  d="M522.5,352.4
						c0,0-24.9,18.2-43.4,59.9"/>
				</g>
				<g>
					<path style="fill:#C1C43B;stroke:#000000;stroke-linecap:round;stroke-linejoin:round;stroke-miterlimit:10;"
						  d="M504.6,217.7
						c0,0-33.2-10-62.8,52.3C441.9,270.1,494.7,253.3,504.6,217.7z"/>
					<path style="fill:none;stroke:#000000;stroke-linecap:round;stroke-linejoin:round;stroke-miterlimit:10;"
						  d="M504.6,217.7
						c0,0-30.7,13.1-62.4,51.7"/>
				</g>
				<g>
					<path style="fill:#FAC165;stroke:#000000;stroke-linecap:round;stroke-linejoin:round;stroke-miterlimit:10;"
						  d="M495.6,170.2
						c0,0,26.4-10.8,56.3,0.5c20.7,7.8,38.4,29.6,38.4,29.6s-38.7-0.1-56.2-6.9C514.4,185.7,495.6,170.2,495.6,170.2z"/>
					<path style="fill:none;stroke:#000000;stroke-linecap:round;stroke-linejoin:round;stroke-miterlimit:10;"
						  d="M590.3,200.3
						c0,0-56.4-34.7-94.7-30.1"/>
				</g>
				<g>
					<path style="fill:#FAC165;stroke:#000000;stroke-linecap:round;stroke-linejoin:round;stroke-miterlimit:10;"
						  d="M514.9,323.8
						c0,0,26.4-10.8,56.3,0.5c20.7,7.8,38.4,29.6,38.4,29.6s-38.7-0.1-56.2-6.9C533.7,339.3,514.9,323.8,514.9,323.8z"/>
					<path style="fill:none;stroke:#000000;stroke-linecap:round;stroke-linejoin:round;stroke-miterlimit:10;"
						  d="M609.6,353.9
						c0,0-56.4-34.7-94.7-30.1"/>
				</g>
				<g>
					<path style="fill:#8FAD31;stroke:#000000;stroke-linecap:round;stroke-linejoin:round;stroke-miterlimit:10;"
						  d="M370.9,112.2
						c0,0,7.6-46-36.8-69.4c0,0,5,24.1,11.3,37.7C351.6,94.1,370.9,112.2,370.9,112.2z"/>
					<path style="fill:none;stroke:#000000;stroke-linecap:round;stroke-linejoin:round;stroke-miterlimit:10;"
						  d="M370.9,112.2
						c0,0-6-36.6-35.9-67.3"/>
				</g>
				<g>
					<path style="fill:#8FAD31;stroke:#000000;stroke-linecap:round;stroke-linejoin:round;stroke-miterlimit:10;"
						  d="M561.8,110.7
						c0,0-50.3-19.3-94,17.8c0,0,29.7,1.4,47.8-1.2C533.6,124.7,561.8,110.7,561.8,110.7z"/>
					<path style="fill:none;stroke:#000000;stroke-linecap:round;stroke-linejoin:round;stroke-miterlimit:10;"
						  d="M561.8,110.7
						c0,0-45.7-3.9-92.4,17.1"/>
				</g>
				<g>
					<path style="fill:#8FAD31;stroke:#000000;stroke-linecap:round;stroke-linejoin:round;stroke-miterlimit:10;"
						  d="M574.5,449.3
						c0,0,11.9-39-28.8-56.9c0,0,0.1,19.1,7.2,31.2C560.6,436.8,574.5,449.3,574.5,449.3z"/>
					<path style="fill:none;stroke:#000000;stroke-linecap:round;stroke-linejoin:round;stroke-miterlimit:10;"
						  d="M574.5,449.3
						c0,0-2-31.1-27.9-55.7"/>
				</g>
				<path style="fill:none;stroke:#000000;stroke-linecap:round;stroke-linejoin:round;stroke-miterlimit:10;"
					  d="M291.1,152.1
					c0,0,106.7-83.3,175.8-24.3s12.4,189.8,80,265.8"/>
			</g>
			<g>
				<path style="fill:#EA7547;stroke:#000000;stroke-linecap:round;stroke-linejoin:round;stroke-miterlimit:10;"
					  d="M238.5,248.1
					h85.6c16.3-12.7,26.8-32.5,26.8-54.8c0-15.5-5.1-29.8-13.6-41.3H225.4c-8.5,11.6-13.6,25.8-13.6,41.3
					C211.8,215.6,222.3,235.4,238.5,248.1z"/>
				<polygon
						style="fill:#EA7547;stroke:#000000;stroke-linecap:round;stroke-linejoin:round;stroke-miterlimit:10;"
						points="
					330.3,257.3 232.4,257.3 224.4,243.6 338.3,243.6 				"/>
			</g>
			<g>
				<path style="fill:none;stroke:#000000;stroke-linecap:round;stroke-linejoin:round;stroke-miterlimit:10;"
					  d="M260.9,152.1
					c0,0,0.6-62.1-28.1-63s-42.3,100.6-42.3,100.6"/>
				<g>
					<path style="fill:#C1C43B;stroke:#000000;stroke-linecap:round;stroke-linejoin:round;stroke-miterlimit:10;"
						  d="M251.4,170.3
						c0,0,0-39.3-45.5-46.3C205.9,123.9,216.4,163,251.4,170.3z"/>
					<path style="fill:none;stroke:#000000;stroke-linecap:round;stroke-linejoin:round;stroke-miterlimit:10;"
						  d="M251.4,170.3
						c0,0-10.2-26.4-44.9-46.2"/>
				</g>
				<g>
					<path style="fill:#C1C43B;stroke:#000000;stroke-linecap:round;stroke-linejoin:round;stroke-miterlimit:10;"
						  d="M168.9,90.9
						c0,0,23-19.6,48.4,7.8C217.3,98.7,188.2,110.5,168.9,90.9z"/>
					<path style="fill:none;stroke:#000000;stroke-linecap:round;stroke-linejoin:round;stroke-miterlimit:10;"
						  d="M168.9,90.9
						c0,0,21-5.9,48.1,7.5"/>
				</g>
				<g>
					<path style="fill:#8FAD31;stroke:#000000;stroke-linecap:round;stroke-linejoin:round;stroke-miterlimit:10;"
						  d="M140.6,182.3
						c0,0,17.1-31.9,53.8-17.6c0,0-12,11.9-24.1,15.1C157.2,183.3,140.6,182.3,140.6,182.3z"/>
					<path style="fill:none;stroke:#000000;stroke-linecap:round;stroke-linejoin:round;stroke-miterlimit:10;"
						  d="M140.6,182.3
						c0,0,20.8-18.3,52.5-17.4"/>
				</g>
				<g>
					<path style="fill:#FAC165;stroke:#000000;stroke-linecap:round;stroke-linejoin:round;stroke-miterlimit:10;"
						  d="M190.6,189.5
						c0,0-10.3,11.4-7.7,28.8c1.8,12,12.5,24.9,12.5,24.9s5.4-19.7,3.8-29.8C197.4,201.9,190.6,189.5,190.6,189.5z"/>
					<path style="fill:none;stroke:#000000;stroke-linecap:round;stroke-linejoin:round;stroke-miterlimit:10;"
						  d="M195.4,243.2
						c0,0-13.1-35-4.8-53.7"/>
				</g>
			</g>
		</g>
	</g>
</g>
</svg>
