<?xml version="1.0" encoding="utf-8"?>
<svg version="1.1" viewBox="0 0 599.1 447.9" xmlns="http://www.w3.org/2000/svg" xmlns:xlink="http://www.w3.org/1999/xlink" xml:space="preserve">
	<g>
		<path style="fill:#EA7547;stroke:#000000;stroke-linecap:round;stroke-linejoin:round;stroke-miterlimit:10;" d="M146.7,447.4h9.7
			h18.1c-0.8-61.2-2.4-137.2-2.4-137.2l-50.2-102.2c0,0,1,43.9,7.3,100.5C134.3,353.5,141.1,406,146.7,447.4z"/>
		<path style="fill:#EA7547;stroke:#000000;stroke-linecap:round;stroke-linejoin:round;stroke-miterlimit:10;" d="M153,316.2
			c14.6,20.2,31.2,25.1,31.2,25.1s10.5,57.2,18.9,106.1h13.3h16.9c-0.8-49.8-1.7-102.5-1.7-102.5s37.3-1.1,58.2-30.7
			c20.8-29.6,54.2-65.6,72.1-62.2c17.9,3.5,32.9,86.3,54.2,101.1c21.3,14.8,36.3,36.5,41.2,58.2c3.3,14.9,4.6,27.7,5.1,36.1h17.1
			c-1.4-16.2-5.6-52.4-12.5-63.7c-8.7-14.3-25.2-47.9-28.6-71.5c-3.4-23.7,1-77.5-5.8-92.8c-6.8-15.3-22.3-22.2-30-34
			c-7.7-11.8-27.6-34.5-81.8-28.6c-54.2,5.9-115.2-4.9-141.4-47.4c-26.1-42.4-24.7-62.2-24.7-62.2L69.9,94.6c0,0,21.8,3,30,32.6
			c5.7,20.6,21,90.6,31.9,134.7"/>
		<path style="fill:#EA7547;stroke:#000000;stroke-linecap:round;stroke-linejoin:round;stroke-miterlimit:10;" d="M76.1,10.2
			c0,0-17.5,4.1-24.4,14.2c-7,10.2-8,20.8-8,20.8s3.3,87.2,16.2,89.2S76.1,10.2,76.1,10.2z"/>
		<path style="fill:#FFFFFF;stroke:#000000;stroke-linecap:round;stroke-linejoin:round;stroke-miterlimit:10;" d="M146.4,23
			c0,0,24.7,5.2,31.6,18.1c6.9,13,10.2,40.7-5.1,49.6c-15.3,8.9-8.8-43-16.8-41.5c-8,1.5-23.9,34.5-55.4,44.1
			c-31.6,9.6-64.6,10.7-85,0.4C-4.6,83.3-5.3,71.5,18.3,59.3c29.8-15.4,32.8-21.5,41.7-30.8c0,0,16.6-17.4,32.3-20.7
			C107.8,4.5,134.5-3.6,146.4,23z"/>
		<path style="fill:#EA7547;stroke:#000000;stroke-linecap:round;stroke-linejoin:round;stroke-miterlimit:10;" d="M161.1,66.8
			c8-1.5,1.8,73.7,17.1,64.8c15.3-8.9,6.8-77.5-0.1-90.4c-6.9-13-31.6-18.1-31.6-18.1c-12-26.6-50.1-24.7-65-18.9
			c-8.5,3.3-15.6,18.1-24.2,27.2c-0.4,0.4,8.5-8.3,28.2-18.3c22.3-11.4-11.6,25.2-26.9,39.2C43.3,66.3,78.9,67.4,85.1,73.7
			c6.2,6.3,2.2,18.5,1.1,21.8c-0.1,0.4,0.4,0.8,1.5,1.2c4.3-1,13.6,0.4,17.9-0.9"/>
		<path style="stroke:#000000;stroke-linecap:round;stroke-linejoin:round;stroke-miterlimit:10;" d="M25.2,75.6
			c6.5-4.8,2.5-8.9-4.7-10c-3.3-0.5-7.3-0.9-10.8-1.1C-2.7,73.4-2.2,82.1,9.4,90C15.9,86,21.4,78.3,25.2,75.6z"/>
		<path style="fill:#F4F5F1;" d="M13.2,81.5c0,0,9.8-4.4,9.8-9.6S15,75.9,13.2,81.5z"/>
		<path id="dog-eye-wrapper" style="stroke:#000000;stroke-linecap:round;stroke-linejoin:round;stroke-miterlimit:10;" d="M105.6,37.8
			c0,3.6-2.8,6.5-6.4,6.5c-3.5,0-6.4-2.9-6.4-6.5c0-3.6,2.8-6.5,6.4-6.5C102.7,31.3,105.6,34.2,105.6,37.8z"/>
		<path id="dog-eye" style="fill:#FFFFFF;" d="M99.2,37.8c0,1.7-1.1,3.1-2.4,3.1c-1.3,0-2.4-1.4-2.4-3.1c0-1.7,1.1-3.1,2.4-3.1
			C98.2,34.7,99.2,36.1,99.2,37.8z"/>
		<path style="stroke:#000000;stroke-linecap:round;stroke-linejoin:round;stroke-miterlimit:10;" d="M167.1,79.3
			c0.7-12.6,5.1-33.3-4-39.6c-9.1-6.3-14.2-5.6-17.1-1.1c-2,3.1,2.8,13.1,3.1,23.2c2.2-1.7,4-2.9,5.6-3.2c6.9-1.3,9,68.5,17.7,71.8
			C172,126.4,166.9,83.5,167.1,79.3z"/>
		<path style="fill:none;stroke:#000000;stroke-linecap:round;stroke-linejoin:round;stroke-miterlimit:10;" d="M41.1,100.5
			c0,0,16.5-11.2,27.3-8.8"/>
		<path style="fill:none;stroke:#000000;stroke-linecap:round;stroke-linejoin:round;stroke-miterlimit:10;" d="M100.3,23.1
			c0,0,8.1,3.7,15.2,13.4"/>
		<path style="stroke:#000000;stroke-linecap:round;stroke-linejoin:round;stroke-miterlimit:10;" d="M473.1,384
			c-7.7-14.9-31.3-48.2-34.7-71.9c-3.4-23.7,1-77.5-5.8-92.8c-6.8-15.3-22.3-22.2-30-34c-7.7-11.8-27.6-34.5-81.8-28.6
			c-18.8,2.1-38.4,2.1-57.1-0.5c-0.9-0.5-1.9-0.8-3-0.9c-31.8-4.4-48.5-15.4-48.5-15.4c43.6,29.8,45.3,179,45.3,179l-3.4,21.3
			c7.9-4.5,26.9-8.1,39.6-25.3c21.4-29.2,50.4-66.4,68.3-62.9c17.9,3.5,32.9,86.3,54.2,101.1c21.3,14.8,36.3,36.5,41.2,58.2
			c3.3,14.9,4.6,27.7,5.1,36.1h17.1C478,431.2,474.3,386.3,473.1,384z"/>
		<path style="stroke:#000000;stroke-width:1.0569;stroke-linecap:round;stroke-linejoin:round;stroke-miterlimit:10;" d="M360,392.9
			c1,8.9-0.6,39.2-1.7,54.5h16.5c1.7-24.5,8.1-66.7,8.1-71.4c0-6.6-25.4-36.5-19.5-55.8c5.8-19.3,29.1-26.5,29.1-26.5
			s-12.6-73.3-15-73.3c-2.4,0-9.7-1.1-14,0c-4.4,1.1-32.9,34.2-32.9,34.2s-20.8,76.6-2.4,97C346.4,372,358.5,380.2,360,392.9z"/>
	</g>
</svg>
