<?xml version="1.0" encoding="utf-8"?>
<!-- Generator: Adobe Illustrator 24.0.1, SVG Export Plug-In . SVG Version: 6.00 Build 0)  -->
<svg version="1.1" id="Layer_1" xmlns="http://www.w3.org/2000/svg" xmlns:xlink="http://www.w3.org/1999/xlink" x="0px" y="0px"
	 viewBox="0 0 161 71" style="enable-background:new 0 0 161 71;" xml:space="preserve">
<style type="text/css">
	.st0{fill:#FFFFFF;stroke:#000000;stroke-width:2;stroke-miterlimit:10;}
</style>
<path class="st0" d="M150,70H11C5.5,70,1,65.5,1,60V11C1,5.5,5.5,1,11,1h139c5.5,0,10,4.5,10,10v49C160,65.5,155.5,70,150,70z"/>
<g>
	<path d="M46.5,17.3c4.3,0,7.1,1.3,8.2,3.8c0.7,1.5,1.1,3,1.1,4.7c0,4.1-1,7.1-3.1,8.9c2.3,1.5,3.5,4.4,3.5,8.8
		c0,2.8-0.9,5.7-2.7,8.9c-0.8,1.1-2.1,1.9-3.9,2.4c-2.6,0.6-4.7,0.9-6.2,0.9h-0.9c-0.7,0-1.1-0.6-1.2-1.8c0-0.5,0.1-2.6,0.2-6
		c-0.1-4.4-0.2-8.1-0.2-10.9c0-1.8,0.2-6.7,0.5-14.8c-0.1-0.6-0.1-1.5-0.1-2.5c0.4-1.3,1.8-2.1,4-2.3H46.5z M45.6,22.2
		c-0.1,3.3-0.2,6-0.2,8v0.8c0,0.6,0,1.6,0.1,3h0.1c1.7-0.3,3.2-0.9,4.5-2.1c1.1-1.6,1.6-3.3,1.6-5.1c0-2.4-0.8-4-2.5-4.6l-1.6-0.3
		C46.2,21.9,45.6,22,45.6,22.2z M45.8,38.8L45.6,51h0.3c3,0,5-1.8,5.9-5.4c0.1-1.1,0.2-2.1,0.2-3v-0.3c0-2.6-1.3-3.8-3.9-3.8
		C47,38.6,46.2,38.7,45.8,38.8z"/>
	<path d="M73.6,17.1h1.5c2.8,0,4.2,1.5,4.2,4.4C79.8,24.4,80,28.2,80,33c-0.3,13.4-0.6,20-0.8,20c-0.5,0.6-1.3,0.9-2.2,0.9h-1.4
		c-0.8,0-1.2-0.3-1.2-1c0.1-2.1,0.4-6.5,0.7-13.4l-9-0.5c0,1.5,0,6.2,0.1,14.2c0.1,0.6,0.1,1,0.1,1.2c0,0.7-1.2,1.1-3.6,1.1
		c-0.6,0-1-0.5-1.2-1.5l-0.2-30.6c0-1.4,0.9-2.8,2.7-4C67.2,17.8,70.4,17.1,73.6,17.1z M65.8,26.4c0.2,5.2,0.3,7.9,0.3,8.1l9.4,0.4
		l0.2-6.8c0-4.2-0.8-6.3-2.5-6.3c-0.4-0.1-0.7-0.1-1.1-0.1c-1.9,0-3.7,0.5-5.6,1.6C66,23.9,65.8,25,65.8,26.4z"/>
	<path d="M93.1,17.8h3.3c1.3,0,2.2,1.2,2.7,3.5c0.3,1,0.4,3.5,0.4,7.4c0,0.8-0.8,1.2-2.5,1.3h-0.8c-0.8,0-1.2-1.1-1.2-3.3
		c-0.1-2.8-0.2-4.3-0.4-4.3H93c-2,0-3,1.5-3,4.4v3.4c0,4.2-0.1,10-0.3,17.6c0,2,1.6,3,4.8,3.3c0.8-0.4,1.1-2.1,1.1-5.3v-0.7
		c0-0.5,0.3-0.7,0.9-0.8c2.1,0.2,3.2,1,3.2,2.3c0.1,0.7,0.1,1.4,0.1,2c0,3.5-1.1,5.8-3.4,6.8c-0.8,0.3-1.6,0.4-2.5,0.4
		c-1.8,0-3.7-0.5-5.9-1.6c-1.5-1.1-2.3-2.6-2.3-4.4c-0.1-8.1-0.1-13.6-0.1-16.4c0-8,0.8-12.9,2.4-14.6
		C88.8,18.2,90.6,17.8,93.1,17.8z"/>
	<path d="M121,17.8c0.9,0,1.7,0.4,2.4,1.2v0.4c0,0.7-0.6,1.8-1.7,3c-3.8,5.6-6.7,10.1-8.6,13.3c2,4.2,4,7.9,6.1,11c2,3,3,4.7,3,5.3
		c0,0,0,0.1,0,0.1c-0.5,1.5-1.1,2.3-2.1,2.3h-0.5c-1.2,0-3.1-2.5-5.7-7.4c-2.3-4.3-3.8-7.2-4.5-8.8h-0.1c-0.1,2.8-0.1,4.9-0.2,6.2
		c0.1,2.6,0.3,5.6,0.5,9.2c0,0.8-1.1,1.2-3.2,1.2c-1.2,0-1.9-0.7-1.9-2.2c-0.1-1.2-0.2-4.6-0.3-10.2c0.1-7.5,0.2-13.1,0.4-16.7
		c-0.2-3.5-0.5-5.9-0.9-7c0.5-0.5,1.6-0.8,3.4-0.8c1.5,0.6,2.3,2.8,2.3,6.5c0.1,0,0.1,0.8,0.1,2.3c0,2.1-0.1,4.1-0.2,6v0.1h0.1
		c2.2-3.7,4.7-7.7,7.8-12C118.6,18.9,119.9,17.8,121,17.8z"/>
</g>
</svg>
