<?xml version="1.0" encoding="utf-8"?>
<!-- Generator: Adobe Illustrator 24.0.1, SVG Export Plug-In . SVG Version: 6.00 Build 0)  -->
<svg version="1.1" id="Layer_1" xmlns="http://www.w3.org/2000/svg" xmlns:xlink="http://www.w3.org/1999/xlink"
	 viewBox="0 0 1600 900" xml:space="preserve">
<g>
	<polygon style="stroke:#000000;stroke-width:2;stroke-linecap:round;stroke-linejoin:round;stroke-miterlimit:10;" points="
		682.7,0 107.2,306 152.3,450 1059.2,0 	"/>
	<g>
		<path style="fill:#D1623F;stroke:#000000;stroke-width:2;stroke-linecap:round;stroke-linejoin:round;stroke-miterlimit:10;" d="
			M854.7,182c1.3-3.9,50.7-72.9,95-93.7c17.5-8.2,240.7-37.7,294.1-22.1s90.2,89.8,90.2,89.8"/>

		<line style="fill:none;stroke:#000000;stroke-width:2;stroke-linecap:round;stroke-linejoin:round;stroke-miterlimit:10;" x1="958.8" y1="96.2" x2="902.9" y2="170.3"/>
		<path style="fill:none;stroke:#000000;stroke-width:2;stroke-linecap:round;stroke-linejoin:round;stroke-miterlimit:10;" d="
			M1108.5,88.3c0,0,69-3.9,119.7,7.8c50.7,11.7,89.8,48.8,89.8,48.8"/>
		<path style="fill:#BC4F31;stroke:#000000;stroke-width:2;stroke-linecap:round;stroke-linejoin:round;stroke-miterlimit:10;" d="
			M1077.9,149.5c0,0-100.8-13-151.6,5.2s-67.7,15.6-102.8,23.4c-35.1,7.8-141.8,57.3-171.8,79.4C621.8,279.6,518.3,389.6,482.6,441
			c-20.8,29.9-48.1,221.3-48.1,221.3l162.7,163.9"/>
		<path style="fill:#BC4F31;stroke:#000000;stroke-width:2;stroke-linecap:round;stroke-linejoin:round;stroke-miterlimit:10;" d="
			M823.5,206.8c18.2-10.4,255-59.9,304.5-69s74.2,0,134,0c59.9,0,85.9-56,170.5,20.8c84.6,76.8,112.2,169.2,89,193
			c-23.2,23.8-126.8,58.2-126.8,58.2L948.4,645.3"/>
		<path style="fill:#BC4F31;stroke:#000000;stroke-width:2;stroke-linecap:round;stroke-linejoin:round;stroke-miterlimit:10;" d="
			M1077.9,215.9c-51.4,67.7-218,157.4-285.6,218.6s-96.2,91-131.4,141.8c-94.3,136-80,234.2-80,234.2l54,15.6l363.6-102.9"/>
		<path style="fill:#FFFFFF;" d="M696.6,758c-20.2-28.3-34.6-60.4-27.8-93.4c4.3-21.9,17-41.8,29.5-60.9
			c14.9-23.1,30.4-45.3,45.7-67.9c0.7-1.1,5.1-6.2,4.9-7.4c-11.3,4.3-24.1,9-34.5,13.4c-13.4,18.9-17.6,33.8-30.1,52.9
			c-14.1,22-36.8,53.5-38.3,79.3c-2.1,33,12.6,64.5,32.6,92.6L696.6,758z"/>
		<path style="fill:#FFFFFF;" d="M738.9,755.1c-20.2-28.3-34.6-60.4-27.8-93.4c4.3-21.9,17-41.8,29.5-60.9
			c14.9-23.1,30.4-45.3,45.7-67.9c0.7-1.1,5.1-6.2,4.9-7.4c-11.3,4.3-24.1,9-34.5,13.4c-13.4,18.9-28.3,42.5-40.8,61.6
			c-14.1,22-26.1,44.9-27.6,70.6c-2.1,33,12.6,64.5,32.6,92.6L738.9,755.1z"/>
	</g>
	<path style="stroke:#000000;stroke-width:2;stroke-linecap:round;stroke-linejoin:round;stroke-miterlimit:10;" d="M514.3,400.4
		c0,0,11.1,18.2,41.1,35.8s44.9,27.9,54.4,48.4c9.5,20.6,40.6,110.1,40.6,110.1s29.7,7.6,57.4,14.6s76,7.5,76,7.5L539.4,364.6"/>
	<g>

			<polygon style="fill:#BA7B31;stroke:#000000;stroke-width:2;stroke-linecap:round;stroke-linejoin:round;stroke-miterlimit:10;" points="
			1276.9,476 742.6,653.1 390.1,206.1 390.1,183.4 1276.9,453.4 		"/>

		<polygon style="fill:#FAC165;stroke:#000000;stroke-width:2;stroke-linecap:round;stroke-linejoin:round;stroke-miterlimit:10;" points="
			1276.9,453.4 742.6,630.4 390.1,183.4 924.4,6.4 		"/>

		<polygon style="fill:#FFFFFF;stroke:#000000;stroke-width:2;stroke-linecap:round;stroke-linejoin:round;stroke-miterlimit:10;" points="
			1215.3,438.7 760.3,589.4 451.7,198.1 906.7,47.3 		"/>

		<polygon style="fill:#D19647;stroke:#000000;stroke-width:2;stroke-linecap:round;stroke-linejoin:round;stroke-miterlimit:10;" points="
			906.7,63.5 1205.2,442 1215.3,438.7 906.7,47.3 451.7,198.1 461.8,210.9 		"/>

		<line style="stroke:#000000;stroke-width:2;stroke-linecap:round;stroke-linejoin:round;stroke-miterlimit:10;" x1="742.6" y1="630.4" x2="742.6" y2="653.1"/>

		<polygon style="opacity:0.5;stroke:#000000;stroke-width:2;stroke-linecap:round;stroke-linejoin:round;stroke-miterlimit:10;" points="
			434.3,262.1 434.3,239.4 469.8,221.1 477.4,230.7 590,168.6 590,151.6 722.5,73.3 390.1,183.4 390.1,206.1 		"/>
	</g>
	<g id="floppy_1_">
		<polygon style="stroke:#000000;stroke-width:2;stroke-linecap:round;stroke-linejoin:round;stroke-miterlimit:10;" points="
			1322.4,156.7 1126.3,317.3 1368.3,454.2 1544.7,301.4 1540.1,271.6 		"/>

		<polygon style="fill:#585E5B;stroke:#000000;stroke-width:2;stroke-linecap:round;stroke-linejoin:round;stroke-miterlimit:10;" points="
			1322.4,156.7 1124.9,316.6 1126.5,326.5 1368.3,454.2 		"/>

		<polygon style="fill:#363837;stroke:#000000;stroke-width:2;stroke-linecap:round;stroke-linejoin:round;stroke-miterlimit:10;" points="
			1496.1,239.3 1494.9,240.4 1339.4,158.5 1339.2,156.4 1320.9,146.7 1124.9,316.6 1366.7,444.3 1543.1,291.5 1538.5,261.7 		"/>
		<path style="fill:none;stroke:#000000;stroke-width:2;stroke-linecap:round;stroke-linejoin:round;stroke-miterlimit:10;" d="
			M1347.9,434.1l114.3-98.9c3.4-3,2.8-7.3-1.5-9.5l-185.9-98.1c-4.3-2.2-10.6-1.6-14,1.3L1146.4,328"/>
		<path d="M1350.7,426.7c3.2-2.7,102.8-89.1,102.8-89.1c3.3-2.8,2.6-6.9-1.4-9l-176.4-93.1c-4-2.1-10-1.6-13.3,1.3
			c0,0-102.2,88.5-103.5,89.6c-1.9,1.6-2.4,3.7,1.7,5.9c4.1,2.2,177.5,93.6,180.6,95.2S1347.5,429.4,1350.7,426.7z"/>
		<path style="fill:#FFFFFF;stroke:#000000;stroke-width:2;stroke-linecap:round;stroke-linejoin:round;stroke-miterlimit:10;" d="
			M1350.5,425.3c3.2-2.7,102.8-89.1,102.8-89.1c3.3-2.8,2.6-6.9-1.4-9l-176.4-93.1c-4-2.1-10-1.6-13.3,1.3
			c0,0-102.2,88.5-103.5,89.6c-1.9,1.6-2.4,3.7,1.7,5.9s177.5,93.6,180.6,95.2S1347.3,428,1350.5,425.3z"/>
		<path style="fill:#FAC165;stroke:#000000;stroke-width:2;stroke-linecap:round;stroke-linejoin:round;stroke-miterlimit:10;" d="
			M1439.9,347.7c8.1-7,13.3-11.6,13.3-11.6c3.3-2.8,2.6-6.9-1.4-9l-176.4-93.1c-4-2.1-10-1.6-13.3,1.3c0,0-5.2,4.5-13.3,11.6
			L1439.9,347.7z"/>
		<path d="M1261.1,231c3.4-3,9.8-3.6,14-1.3l185.9,98.1c1.3,0.7,3.1,2.5,3.2,4.4c0.6-2.4-0.6-4.9-3.5-6.5l-185.9-98.1
			c-4.3-2.2-10.6-1.6-14,1.3L1146.4,328l1.7,0.9L1261.1,231z"/>
		<path style="fill:#363837;stroke:#000000;stroke-width:2;stroke-linecap:round;stroke-linejoin:round;stroke-miterlimit:10;" d="
			M1338.7,156.7l-57.8,50.2c-3,2.6-2.6,6,1.8,8.6l143.6,75.9c4.9,2.1,8.4,1,11.5-1.6l56.9-49.5"/>
		<path style="fill:#DBDDDC;stroke:#000000;stroke-width:2;stroke-linecap:round;stroke-linejoin:round;stroke-miterlimit:10;" d="
			M1370.2,172.1l-57.8,50.2c-3,2.6-2.6,6,1.8,8.6l105.1,55.6c4.9,2.1,8.4,1,11.5-1.6l57.8-50.2L1370.2,172.1z M1459.1,229.8
			l-47.9,41.7c-0.8,0.7-2.1,0.9-2.8,0.5l-24.3-12.9c-0.8-0.4-0.7-1.3,0.1-2l47.9-41.7c0.8-0.7,2.1-0.9,2.8-0.5l24.3,12.9
			C1459.9,228.2,1459.9,229.1,1459.1,229.8z"/>
		<polygon points="1361.7,149.9 1361.7,149.9 1361.7,149.9 1361.7,149.9 		"/>
		<path d="M1339.2,156.4L1281,207c-1.8,1.6-2.4,3.5-1.6,5.3c0.1-1.1,0.8-2.2,1.9-3.2l58.2-50.6L1339.2,156.4z"/>
		<g>
			<path style="fill:#3966D8;" d="M1265.4,301.2c0.6-0.2,1.1-0.2,1.7-0.1c0.6,0.1,0.9,0.4,1,0.7c0.3,0.8-0.2,2.2-1.4,4.2
				c-1.2,1.9-4.8,7.1-10.8,15.6c-0.7,0.9-1.5,2.1-2.5,3.5s-1.7,2.3-2,2.8c-3.5,4.9-5.6,7.5-6.2,7.9c-0.6,0.4-1,0.5-1.1,0.3
				c-0.1-0.4-0.1-0.9,0-1.7s0.3-1.3,0.6-1.7c0.3-0.4,0.4-0.9,0.4-1.4c0-0.4,0.4-1.2,1.2-2.3c1.2-1.6,2.1-2.6,2.9-3
				c0.4-0.2,0.6-0.3,0.6-0.4c0.1-0.1,0.1-0.3,0-0.6c-0.1-0.4-0.1-0.8,0.2-1.1c0.3-0.4,0.6-0.6,1.1-0.7c0.3,0,0.5-0.1,0.6-0.2
				c0-0.1,0-0.2,0-0.5c-0.1-0.4,0.3-1.4,1.3-2.7c0.4-0.6,0.7-0.8,0.9-0.9c0.1,0,0.5-0.5,1.2-1.4c0.9-1.3,1.9-2.7,2.8-4.2
				c0,0,0.1-0.1,0.1-0.2c0-0.1,0.1-0.1,0.1-0.1c0.2-0.3,0.5-0.4,0.8-0.4l0.1,0l0.1,0c0.3,0.1,0.5,0,0.6-0.1c0.1-0.2,0.1-0.5-0.1-0.8
				c-0.2-0.3,0-1,0.7-1.9l0.4-0.6c1-1.4,1.7-2.1,1.9-2.2c0.1,0,0.2-0.1,0.2-0.2c0.1-0.1,0.2-0.4,0.3-0.7c0.1-0.3,0.1-0.5,0.2-0.6
				c0,0,0.1-0.1,0.1-0.2c0.1-0.1,0.1-0.1,0.1-0.1c0.1-0.1,0.1-0.2,0-0.2c-0.1,0-0.5,0.1-1.3,0.4c-2.7,1.1-4.4,1.8-5,2
				c-1.1,0.4-2.5,1-4.4,1.9c-2,0.9-3.3,1.5-3.9,1.7c-0.4,0.1-0.9,0.4-1.4,0.9c-0.4,0.3-1.3,0.8-2.7,1.4c-1.3,0.5-2.2,0.7-2.7,0.6
				c-0.5-0.1-0.9-0.5-1.3-1c-0.3-0.6-0.8-1.5-1.3-2.9c-0.9-2.3-1.3-3.7-1.3-4.1c0-0.3-0.1-0.9-0.4-2c-0.2-0.9-0.2-1.5,0-1.7
				c0.2-0.2,0.1-0.6-0.1-1.1c-0.1-0.3-0.3-0.5-0.4-0.6c-0.1,0-0.2,0-0.3,0.1c-0.6,0.5-2,2.1-4.2,4.9c-2.2,2.8-4.6,6-7.2,9.6
				c-0.2,0.3-0.6,0.8-1.1,1.5c-0.5,0.7-0.8,1.2-1.1,1.5l-1.9,2.7c-3.5,4.8-5.3,7.2-5.5,7.3c-0.3,0.2-0.6,0.2-0.8,0.2
				c-0.2,0-0.2-0.2-0.1-0.4c0.2-0.2,0.1-0.6-0.1-1.1c-0.2-0.4-0.2-0.7-0.1-0.9c0,0,0,0,0,0c0,0,0,0,0,0c0.3-0.2,0.4-0.3,0.3-0.6
				c-0.1-0.8,0.2-1.7,0.8-2.4c0.1-0.1,0.2-0.3,0.4-0.4c0.2-0.2,0.5-0.5,0.8-0.9c0.4-0.5,0.7-1,1-1.5c0.3-0.5,0.6-1,0.9-1.5
				c0.2-0.3,0.4-0.5,0.5-0.5c0.1-0.1,0.5-0.4,1-1.1c0.5-0.6,0.9-1,1.1-1c0.1,0,0.3-0.1,0.4-0.3c0.2-0.3,0.3-0.6,0.5-0.9
				c0.2-0.6,0.5-1,0.7-1.3c0.1-0.1,0.2-0.3,0.4-0.5c0.5-0.4,1.4-1.6,2.9-3.5c1.3-1.7,2.7-3.4,4.1-5s2.6-2.7,3.4-3.2
				c0.7-0.5,1.4-1.1,2.1-1.9c1.3-1.7,2.2-2.7,2.7-3.1c0.4-0.4,0.8-0.6,1.1-0.5c0.4,0.1,0.4,0.5,0.1,1.2c-0.7,1.6-0.9,3.3-0.5,5.1
				c0.2,1,0.3,1.6,0.3,1.9c-0.1,0.4,0.4,2,1.5,4.6c0.6,1.6,1.4,2.5,2.3,2.7c0.5,0.1,1.1,0.1,1.7-0.2c0.5-0.2,0.9-0.5,1.1-0.8
				c0.1-0.1,0.2-0.3,0.2-0.3c0-0.1,0.1-0.2,0.2-0.3c0.2-0.3,0.6-0.5,1-0.5c0.6-0.1,1.3-0.4,2.1-1c1-0.6,2.6-1.4,4.8-2.2
				c2.2-0.8,3.7-1.4,4.5-1.9c0.7-0.3,1.7-0.7,2.7-1.1c1.1-0.4,1.7-0.5,1.9-0.5c0.2,0.1,0.4,0,0.5-0.2
				C1264.5,301.6,1264.9,301.4,1265.4,301.2z M1250.6,308.4c0.3,0.1,0.3-0.1,0.2-0.4l-0.1-0.2c-0.1,0-0.2,0.1-0.3,0.2
				C1250.3,308.2,1250.4,308.4,1250.6,308.4z"/>
			<path style="fill:#3966D8;" d="M1285.3,305.8c1,0.1,1.9,0.2,2.9,0.5c1.1,0.3,1.9,0.6,2.5,1s0.7,0.8,0.4,1.1
				c-0.1,0.1-0.6,0-1.7-0.2l-0.6-0.1l-0.5-0.1c-0.8-0.2-1.4-0.3-1.9-0.3c-0.5,0-1.5,0.1-2.9,0.4c-2.3,0.4-4.2,0.9-5.7,1.4
				c-1.2,0.4-2.5,1-3.8,1.8c-1.3,0.8-2.2,1.4-2.5,1.9c-0.3,0.4-0.4,0.9-0.5,1.5c-0.1,0.6,0,1.2,0.2,1.6c0.1,0.2,0.9,1.7,2.4,4.6
				c0.3,0.5,0.4,0.9,0.2,1.1c-0.1,0.1,0,0.4,0.1,0.9c0.2,0.4,0.3,0.9,0.3,1.5c0,0.2-0.1,0.9-0.1,2.2c0,0.9-0.2,1.4-0.4,1.7
				c-0.1,0.2-0.2,0.6-0.3,1.1c0,0.4-0.4,1.3-1,2.6c-0.7,1.3-1.2,2.3-1.7,3c-0.1,0.2-0.3,0.4-0.5,0.5c-1.5,1.2-2.9,2-4.4,2.3
				c-2.1,0.4-4,0.4-5.7,0l-0.3-0.1l-0.2-0.1c-0.5-0.1-1-0.1-1.4,0c-0.2,0.1-0.5,0.1-0.6,0c-0.2,0-0.3-0.1-0.5-0.3
				c-0.3-0.2-0.7-0.4-1.3-0.6s-1-0.4-1.3-0.6c-0.4-0.4-0.9-1.1-1.3-2.2c-0.4-1-0.5-1.7-0.3-1.9c0.2-0.3,0.4-0.4,0.5-0.4
				c0.1,0,0.3,0.3,0.7,0.8c0.4,0.5,1.5,1.1,3.2,1.6c0.8,0.2,1.3,0.4,1.5,0.4c0.9,0.2,2.2,0.3,3.8,0.1c1.8-0.1,2.9-0.3,3.3-0.4
				c0.4-0.2,0.7-0.2,0.9-0.2c0.1,0,0.4-0.3,0.8-0.9c1.1-1.6,1.7-2.6,1.7-3c0-0.3,0.2-0.8,0.5-1.3c0.4-0.5,0.6-1.1,0.6-1.7
				c0-0.6,0.2-1.2,0.6-1.8c0.2-0.4,0.2-1,0.1-2c-0.2-0.9-0.5-1.8-0.9-2.6c-0.9-1.6-1.5-3.1-1.8-4.6c-0.3-1.5-0.3-2.7,0.1-3.5
				c0.3-0.5,0.4-0.8,0.5-0.9c0.3-0.4,0.8-0.8,1.7-1.3c1.1-0.7,1.7-1.1,1.8-1.3c0.2-0.2,1.4-0.7,3.7-1.5c2.3-0.8,4.1-1.3,5.3-1.5
				C1282.8,305.8,1284.1,305.7,1285.3,305.8z"/>
			<path style="fill:#3966D8;" d="M1290.2,333.8c0.7,0,1.5,0.1,2.2,0.3c1.2,0.3,1.9,0.6,2,1c0.1,0.3,0.1,0.5-0.1,0.7
				c-0.3,0.4-1.1,0.6-2.5,0.8c-1.3,0.1-3-0.1-5-0.5c-1.5-0.4-3-0.8-4.5-1.3c-1.4-0.5-2.3-0.8-2.7-1.1c-0.4-0.2-0.7-0.5-0.8-0.9
				c-0.1-0.4-0.2-0.7-0.1-0.8c0,0,0.1,0,0.1-0.1c0.2,0,1.9,0.3,5.2,1C1287.5,333.5,1289.5,333.8,1290.2,333.8z"/>
			<path style="fill:#3966D8;" d="M1317.8,313.3c0.4-0.1,0.7-0.2,0.9-0.1c0.3,0.1,0.4,0.3,0.4,0.8c0,0.3,0.2,0.5,0.5,0.7
				c0.4,0.2,1.2,0.5,2.5,1c1.9,0.7,3.6,1.6,5.1,2.6c1.5,1,2.4,1.6,2.6,1.6c0.3,0.1,0.6,0.4,1,1c0.3,0.6,0.5,0.8,0.7,0.9
				c0,0,0.5,0.5,1.4,1.5c0.9,1.1,1.5,2.5,1.9,4.1c0.4,1.7,0.4,2.8-0.1,3.5c-0.3,0.5-0.4,0.8-0.3,0.9c0.1,0.2-0.1,0.7-0.7,1.5
				c-1.1,1.5-2.1,2.6-3,3.1c-0.3,0.2-0.7,0.4-1.3,0.8c-0.6,0.3-1,0.6-1.3,0.8c-0.3,0.2-0.7,0.4-1.1,0.6c-0.5,0.2-1,0.5-1.6,0.7
				c-0.4,0.1-1.4,0.5-3.1,1.2c-1.7,0.6-2.9,1.1-3.6,1.4c-3.9,1.5-7.3,2.8-10.2,3.8c-2.9,1-4.4,1.5-4.6,1.4c-0.4-0.1-1.1,0-2,0.2
				s-1.7,0.5-2.3,0.9c-0.8,0.5-1.4,0.7-1.8,0.6c-0.3-0.1-0.4-0.3-0.4-0.7c0-0.5-0.1-0.9-0.4-1.2c-0.1-0.3-0.2-0.5-0.1-0.6
				c0.1-0.1,0.2-0.2,0.5-0.3c0.3-0.1,0.5-0.3,0.7-0.6c0.5-0.6,0.5-1.1,0.1-1.3c-0.1-0.1-0.1-0.3,0-0.5c0.1-0.1,0.2-0.2,0.4-0.4
				c0.2-0.2,0.3-0.3,0.3-0.3c0.1-0.2,0.2-0.4,0.2-0.6s0-0.4,0.2-0.6c0.1-0.1,0.2-0.2,0.3-0.3c0.2-0.2,0.3-0.3,0.3-0.3
				c0.1-0.2,0-0.3-0.4-0.4c-0.2-0.1-0.4-0.1-0.4-0.2c0-0.1,0-0.2,0.1-0.3c0,0,0.2-0.2,0.5-0.5c0.1-0.1,0.2-0.3,0.4-0.5
				c0.3-0.4,0.5-0.8,0.6-1.1c0.2-0.8,0.9-2.3,2.3-4.5c0.9-1.4,1.4-2.3,1.3-2.5c0-0.2,0.4-1,1.5-2.5c1-1.5,1.5-2.3,1.5-2.5
				c0-0.1,0.2-0.4,0.5-0.9c0.4-0.6,1.1-1.5,2-2.6c1.1-1.3,2.5-2.9,4.2-5c0.6-0.8,1-1.3,1.1-1.3c0.2-0.3,0.3-0.6,0.3-0.7
				c0-0.1-0.2-0.3-0.4-0.4c-0.4-0.3-0.5-0.5-0.4-0.7c0.1-0.1,0.5-0.2,1.2-0.2c0.7,0,1.2-0.1,1.4-0.4
				C1317.1,313.7,1317.4,313.5,1317.8,313.3z M1322.7,318c-1.9-0.9-3-1.5-3.3-1.5c-0.1,0-0.3,0-0.5-0.1c-0.6,0-2.1,1.5-4.4,4.7
				c-0.4,0.6-1.3,1.8-2.6,3.7c-2.2,3.3-3.6,5.5-4.3,6.5c-0.6,1-1.3,2.3-2.1,3.9c-0.6,1.2-1.2,2.6-2,4.3c-1.3,2.5-1.8,3.9-1.7,4.3
				c0,0,0,0,0,0c0.4,0.1,2.6-0.6,6.8-2.1c4.5-1.6,7-2.5,7.3-2.8c0.4-0.2,0.8-0.3,1.3-0.2c0.5,0.1,0.9,0,1.1-0.3
				c0.2-0.3,1-0.7,2.5-1.2c1.6-0.6,2.6-1.1,3-1.3c0.5-0.3,1.1-0.4,1.6-0.4c0.5,0,0.9-0.2,1.2-0.7c0.3-0.4,0.9-1,1.9-1.5
				c0.7-0.4,1.2-0.8,1.5-1.2c0-0.1,0.1-0.1,0.2-0.2c0.1-0.1,0.1-0.2,0.1-0.2c0,0,0.1-0.1,0.1-0.1c0.1-0.1,0.1-0.1,0.2-0.1
				c0.3-0.1,0.5-0.2,0.7-0.5c0.6-0.8,0.5-2.1-0.1-4c-0.6-1.9-1.5-3.4-2.8-4.4c-0.8-0.7-1.3-1.1-1.4-1.3
				C1326.3,320.1,1324.8,319,1322.7,318z"/>
			<path style="fill:#3966D8;" d="M1342.1,332.6c0.3-0.2,0.6-0.2,1.1-0.1c0.5,0.1,0.9,0.3,1,0.6c0.1,0.2,0.3,0.3,0.7,0.4
				c0.3,0.1,0.8,0.1,1.3,0.2c0.8,0.1,1.6,0.2,2.5,0.4c1.7,0.4,3.3,1,4.8,1.9c1.5,0.8,2.7,1.7,3.4,2.7c0.7,0.8,1,1.3,1,1.5
				c0,0.2,0.1,0.5,0.3,1.1c0.2,0.6,0.1,1.4-0.1,2.4c-0.2,1-0.6,1.9-1.1,2.5c-0.5,0.7-1.3,1.4-2.5,2.1s-1.8,1.2-2,1.4s-1,0.7-2.4,1.4
				c-3.3,1.4-6.2,2.5-8.8,3c-2.6,0.6-4.7,0.7-6.2,0.3c-0.8-0.2-1.6-0.7-2.3-1.6c-0.7-0.9-1.3-1.9-1.7-3.2c-0.5-1.5-0.7-2.4-0.5-2.8
				c0.1-0.2,0.1-0.5,0-1c-0.1-0.3,0.1-1.1,0.6-2.3c0.5-1.2,1.1-2.3,1.7-3.1c0.6-0.9,1.5-1.9,2.7-3s1.9-1.8,2.4-2
				c0.2-0.1,0.4-0.3,0.7-0.7c0.1-0.2,0.2-0.4,0.3-0.5c0.1-0.3,0.2-0.4,0.3-0.5c0.1-0.2,0.3-0.3,0.4-0.3c0.2-0.1,0.5-0.1,0.9-0.1
				c0.6,0,1-0.1,1.1-0.3c0,0,0.1-0.1,0.1-0.2c0-0.1,0.1-0.2,0.1-0.3C1341.9,332.7,1342,332.7,1342.1,332.6z M1352,338.3
				c-0.9-0.6-3.1-1.4-6.7-2.2c-0.6-0.1-1.2-0.3-2-0.4c-0.9-0.1-1.6-0.1-2.1,0.2c-0.6,0.2-1.3,0.8-2.3,1.8c-0.8,0.8-1.6,1.8-2.4,2.9
				c-2,2.8-3.1,5-3.1,6.7c0,2.7,0.9,4.2,2.7,4.6c0.1,0,0.4,0.1,0.7,0.1c0.8,0.1,1.8,0,3-0.3c1.2-0.3,3.2-1,6.1-2c3-1,4.6-1.5,5-1.4
				l0.1,0c0.3,0.2,0.5,0.2,0.6,0s0-0.3-0.3-0.4c-0.3-0.1-0.3-0.3-0.1-0.6c0.3-0.4,0.8-0.8,1.4-0.9c0.6-0.2,1-0.5,1.4-1
				c0,0,0.1-0.1,0.1-0.2c0.1-0.1,0.1-0.2,0.2-0.2c0.6-1,1-2,1.2-3c0.1-0.3-0.2-0.8-0.9-1.4C1353.9,339.7,1353.1,339,1352,338.3z
				 M1355,345.8c0.1,0,0.1-0.1,0.1-0.1c0,0-0.1-0.1-0.2-0.1c-0.2-0.1-0.3,0-0.3,0.1C1354.6,345.9,1354.7,345.9,1355,345.8z"/>
			<path style="fill:#3966D8;" d="M1375.6,344c0.9,0,2.1,0.2,3.4,0.5c1.9,0.5,3.1,0.9,3.6,1.3c0.6,0.5,0.7,0.8,0.6,1.1
				c-0.2,0.2-0.6,0.3-1.3,0.1l-0.3-0.1l-0.4-0.1c-1.6-0.4-3.8-0.5-6.7-0.3c-2.9,0.2-5,0.5-6.4,1.1c-0.8,0.3-1.5,0.7-2.4,1.3
				c-0.8,0.5-1.4,1-1.6,1.3c-0.3,0.4-0.2,1.2,0.3,2.3c0.6,1.1,0.9,1.7,1.1,1.8c0.1,0,0.4,0.4,0.8,1.1c0.4,0.7,0.7,1.1,0.9,1.1
				c0.3,0.1,0.5,0.4,0.6,1.1c0.2,0.7,0.2,1.4,0.2,2.2c-0.1,1-0.5,2-1.2,2.9c-0.5,0.7-0.9,1.1-1.2,1.3s-0.8,0.4-1.5,0.6
				c-1.1,0.3-1.8,0.4-2.3,0.3c-0.5-0.1-0.9-0.1-1.4,0c-0.3,0.1-1.4,0-3.1-0.3c-0.8-0.1-1.3-0.2-1.4-0.3c-0.8-0.2-1.4-0.5-1.9-1
				c-0.4-0.5-0.9-1-1.5-1.5c-0.4-0.3-0.6-0.7-0.8-1.1c-0.2-0.5-0.2-0.8,0-1c0-0.1,0.1-0.1,0.2-0.1c0.2,0,0.5,0.1,1,0.4
				c0.5,0.3,1.5,0.7,3.1,1.2c0.2,0.1,0.6,0.2,1.1,0.3c1.7,0.4,3.2,0.5,4.5,0.3s2.2-0.7,2.8-1.4c0.3-0.4,0.4-0.9,0.4-1.6
				c0-0.7-0.1-1.1-0.4-1.3c-0.4-0.3-1.1-1.4-2-3.2c-0.9-1.8-1.4-3.2-1.5-4.2c-0.1-0.5,0-0.9,0.2-1.3c0.2-0.3,0.9-1,1.9-2
				c0.9-0.8,2.7-1.6,5.4-2.2C1371.3,344.1,1373.6,343.8,1375.6,344z"/>
		</g>
	</g>
	<g>

			<polygon style="fill:#C8CECC;stroke:#000000;stroke-width:2;stroke-linecap:round;stroke-linejoin:round;stroke-miterlimit:10;" points="
			0,456.2 406.5,900 612.7,900 612.7,836.8 0,167.8 		"/>

		<polygon style="fill:#8A9994;stroke:#000000;stroke-width:2;stroke-linecap:round;stroke-linejoin:round;stroke-miterlimit:10;" points="
			0,609.3 266.2,900 601.3,900 601.3,879.4 0,222.9 		"/>
		<polygon style="stroke:#000000;stroke-width:2;stroke-linecap:round;stroke-linejoin:round;stroke-miterlimit:10;" points="
			100.2,336.1 137.6,379.5 141.6,377.4 175.9,359.9 135.2,315.5 		"/>
		<polygon style="stroke:#000000;stroke-width:2;stroke-linecap:round;stroke-linejoin:round;stroke-miterlimit:10;" points="
			62.3,683 142.6,765.1 142.6,379.7 62.3,296.6 		"/>
	</g>
	<g>

			<polygon style="fill:#FFFFFF;stroke:#000000;stroke-width:2;stroke-linecap:round;stroke-linejoin:round;stroke-miterlimit:10;" points="
			916.7,900 1600,368.1 1600,275.4 486.7,823.3 486.7,900 		"/>

		<polygon style="fill:#C8CECC;stroke:#000000;stroke-width:2;stroke-linecap:round;stroke-linejoin:round;stroke-miterlimit:10;" points="
			551.7,900 550.5,888.6 486.7,823.3 486.7,900 		"/>

		<polygon style="fill:#DBDDDC;stroke:#000000;stroke-width:2;stroke-linecap:round;stroke-linejoin:round;stroke-miterlimit:10;" points="
			1566.8,900 1600,883.6 1600,370.1 549.2,888.6 549.2,900 		"/>
	</g>
	<g>

			<polygon style="fill:#FFFFFF;stroke:#000000;stroke-width:2;stroke-linecap:round;stroke-linejoin:round;stroke-miterlimit:10;" points="
			0,0 0,900 116.4,900 116.4,339.1 805.6,0 		"/>

		<polygon style="fill:#8A9994;stroke:#000000;stroke-width:2;stroke-linecap:round;stroke-linejoin:round;stroke-miterlimit:10;" points="
			0,900 67.9,900 67.9,279.5 0,218.8 		"/>
	</g>
	<g>

			<polygon style="fill:#FFFFFF;stroke:#000000;stroke-width:2;stroke-linecap:round;stroke-linejoin:round;stroke-miterlimit:10;" points="
			45.3,272.2 628.8,0 0,0 0,224.5 		"/>

		<polygon style="fill:#8A9994;stroke:#000000;stroke-width:2;stroke-linecap:round;stroke-linejoin:round;stroke-miterlimit:10;" points="
			0,281.1 45.3,329.4 45.3,241 0,192.7 		"/>

		<polygon style="fill:#FFFFFF;stroke:#000000;stroke-width:2;stroke-linecap:round;stroke-linejoin:round;stroke-miterlimit:10;" points="
			535.3,0 45.3,241.1 45.3,329.4 714.8,0 		"/>
	</g>
	<g id="sleve_2_">
		<path style="stroke:#000000;stroke-width:2;stroke-linecap:round;stroke-linejoin:round;stroke-miterlimit:10;" d="M848.8,698.4
			l-144.5,5.3c0,0,40.9,113.9,72.6,196.2h367.6c14-56.6,22.3-101.3,19.7-120.5C1153.3,700.4,848.8,698.4,848.8,698.4z"/>
		<path style="fill:#D1623F;stroke:#000000;stroke-width:2;stroke-linecap:round;stroke-linejoin:round;stroke-miterlimit:10;" d="
			M1215.1,563.8c-33.3-58.9-138.8-90.8-182.1-53.4c-29.1,25.2-109.6,87.5-233,119.5c-177.9,45.9-196.8,136.1-196.8,136.1l53.3-26.2
			c0,0,55.8,35.8,138.6,135.5c7.7,9.3,14.6,17.5,20.7,24.8h460.4c3.4-27.4,4.6-58.7,2.2-94.8
			C1270.4,684.7,1268.8,626.1,1215.1,563.8z"/>
		<path style="fill:#FFFFFF;" d="M1069.3,823.4c3.5,25.8,8,51.3,12.6,76.6h-18.7c-5-27.6-9.8-55.3-13.3-83.3
			c-2.9-22.1-5.1-44.3-5.7-67.4c-0.6-21.3,1.7-43.6,1.1-64.8c-0.6-21.9-7.8-40-22.6-53.9c-13.5-12.6-57.9-35.5-85.1-52.4
			c0,0,20.3-12,23.7-14.6c14.9,12.7,67.5,44.9,80.6,59c16,16.1,21.7,37.2,21.7,61.5c0.6,22.5-1.1,45.8-0.6,68.3
			C1063.6,776.1,1065.9,800.1,1069.3,823.4z M985.1,814.5c3.2-46.2,1.1-97.5-24.3-132.1c-14.2-19.7-34.3-30.9-55.4-40
			c-18.5-7.8-40.9-17.7-59.9-24.9c-9.5,2.7-20.7,6.6-30.7,9.9c0.5,1.1,6.1,2.6,7.2,3c22.2,9,44.3,17.4,66.5,27
			c18.5,7.8,37.5,16.1,51.7,31.1c29,29.9,31.1,81.2,28,126.2c-2.1,28.8-5.8,57.2-6.9,85.2h16.9c0-0.1,0-0.1,0-0.2
			C979.3,871.2,983,842.7,985.1,814.5z M1016.2,714.1c-2.9-23.3-6.3-46.6-16.6-66.4c-11.4-22.1-62.2-49-84.4-58.2
			c-8.7,3.8-16.9,7.4-27.8,13c23.7,7.4,82.1,31.8,95.6,56.5c10.3,18.7,12.6,42.1,15.4,64.2c2.9,24.5,6.3,49.5,9.1,74
			c4.3,34.3,9,68.5,13.5,102.8h18.3c-4.5-35.9-9.1-71.8-13.5-107.8C1022.5,766,1019,739.8,1016.2,714.1z"/>
		<path style="fill:none;stroke:#000000;stroke-width:2;stroke-linecap:round;stroke-linejoin:round;stroke-miterlimit:10;" d="
			M914.2,883.4c0,0,99.7-182.6,193.4-238.2"/>
	</g>
	<g>

			<polygon style="fill:#8A9994;stroke:#000000;stroke-width:2;stroke-linecap:round;stroke-linejoin:round;stroke-miterlimit:10;" points="
			1300.2,644.9 1544.7,525.4 1544.7,661.2 1300.2,780.7 		"/>

		<polygon style="fill:#C8CECC;stroke:#000000;stroke-width:2;stroke-linecap:round;stroke-linejoin:round;stroke-miterlimit:10;" points="
			1333.9,679.3 1578.4,559.9 1578.4,645.2 1333.9,764.6 		"/>

		<polygon style="fill:#FFFFFF;stroke:#000000;stroke-width:2;stroke-linecap:round;stroke-linejoin:round;stroke-miterlimit:10;" points="
			1333.9,679 1578.4,559.5 1531.1,510.4 1286.6,629.9 		"/>
		<polygon style="stroke:#000000;stroke-width:2;stroke-linecap:round;stroke-linejoin:round;stroke-miterlimit:10;" points="
			1333.3,678.2 1333.3,678.2 1286.6,629.9 1286.6,765.6 1300.5,780.7 1300.5,661.5 1320.1,681.3 1320.1,748.8 1333.9,763.8
			1333.9,679 		"/>
	</g>
</g>
</svg>
