<?xml version="1.0" encoding="utf-8"?>
<!-- Generator: Adobe Illustrator 24.0.1, SVG Export Plug-In . SVG Version: 6.00 Build 0)  -->
<svg version="1.1" id="Layer_1" xmlns="http://www.w3.org/2000/svg" xmlns:xlink="http://www.w3.org/1999/xlink" x="0px" y="0px"
	 viewBox="0 0 1600 900" xml:space="preserve">
<g>
	<defs>
		<rect id="SVGID_1_" width="1600" height="900"/>
	</defs>
	<clipPath id="SVGID_2_">
		<use xlink:href="#SVGID_1_"  style="overflow:visible;"/>
	</clipPath>

		<polygon style="clip-path:url(#SVGID_2_);stroke:#000000;stroke-width:2;stroke-linecap:round;stroke-linejoin:round;stroke-miterlimit:10;" points="
		152.3,450 1107.6,-24 778.9,-51.1 107.2,306 	"/>
	<g style="clip-path:url(#SVGID_2_);">
		<path style="fill:#D1623F;stroke:#000000;stroke-width:2;stroke-linecap:round;stroke-linejoin:round;stroke-miterlimit:10;" d="
			M854.7,182c1.3-3.9,50.7-72.9,95-93.7c17.5-8.2,240.7-37.7,294.1-22.1s90.2,89.8,90.2,89.8"/>

			<line style="fill:none;stroke:#000000;stroke-width:2;stroke-linecap:round;stroke-linejoin:round;stroke-miterlimit:10;" x1="958.8" y1="96.2" x2="902.9" y2="170.3"/>
		<path style="fill:none;stroke:#000000;stroke-width:2;stroke-linecap:round;stroke-linejoin:round;stroke-miterlimit:10;" d="
			M1108.5,88.3c0,0,69-3.9,119.7,7.8c50.7,11.7,89.8,48.8,89.8,48.8"/>
		<path style="fill:#BC4F31;stroke:#000000;stroke-width:2;stroke-linecap:round;stroke-linejoin:round;stroke-miterlimit:10;" d="
			M1077.9,149.5c0,0-100.8-13-151.6,5.2s-67.7,15.6-102.8,23.4c-35.1,7.8-141.8,57.3-171.8,79.4C621.8,279.6,518.3,389.6,482.6,441
			c-20.8,29.9-48.1,221.3-48.1,221.3l162.7,163.9"/>
		<path style="fill:#BC4F31;stroke:#000000;stroke-width:2;stroke-linecap:round;stroke-linejoin:round;stroke-miterlimit:10;" d="
			M823.5,206.8c18.2-10.4,255-59.9,304.5-69s74.2,0,134,0c59.9,0,85.9-56,170.5,20.8c84.6,76.8,112.2,169.2,89,193
			c-23.2,23.8-126.8,58.2-126.8,58.2L948.4,645.3"/>
		<path style="fill:#BC4F31;stroke:#000000;stroke-width:2;stroke-linecap:round;stroke-linejoin:round;stroke-miterlimit:10;" d="
			M1077.9,215.9c-51.4,67.7-218,157.4-285.6,218.6s-96.2,91-131.4,141.8c-94.3,136-80,234.2-80,234.2l54,15.6l363.6-102.9"/>
		<path style="fill:none;stroke:#000000;stroke-width:2;stroke-linecap:round;stroke-linejoin:round;stroke-miterlimit:10;" d="
			M1341.4,238c0,0-199.1,131.4-300.6,144.4"/>
		<path style="fill:#FFFFFF;" d="M696.6,758c-20.2-28.3-34.6-60.4-27.8-93.4c4.3-21.9,17-41.8,29.5-60.9
			c14.9-23.1,30.4-45.3,45.7-67.9c0.7-1.1,5.1-6.2,4.9-7.4c-11.3,4.3-24.1,9-34.5,13.4c-13.4,18.9-17.6,33.8-30.1,52.9
			c-14.1,22-36.8,53.5-38.3,79.3c-2.1,33,12.6,64.5,32.6,92.6L696.6,758z"/>
		<path style="fill:#FFFFFF;" d="M738.9,755.1c-20.2-28.3-34.6-60.4-27.8-93.4c4.3-21.9,17-41.8,29.5-60.9
			c14.9-23.1,30.4-45.3,45.7-67.9c0.7-1.1,5.1-6.2,4.9-7.4c-11.3,4.3-24.1,9-34.5,13.4c-13.4,18.9-28.3,42.5-40.8,61.6
			c-14.1,22-26.1,44.9-27.6,70.6c-2.1,33,12.6,64.5,32.6,92.6L738.9,755.1z"/>
	</g>

		<path style="clip-path:url(#SVGID_2_);stroke:#000000;stroke-width:2;stroke-linecap:round;stroke-linejoin:round;stroke-miterlimit:10;" d="
		M514.3,400.4c0,0,11.1,18.2,41.1,35.8s44.9,27.9,54.4,48.4c9.5,20.6,40.6,110.1,40.6,110.1s29.7,7.6,57.4,14.6s76,7.5,76,7.5
		L539.4,364.6"/>
	<g style="clip-path:url(#SVGID_2_);">

			<polygon style="fill:#BA7B31;stroke:#000000;stroke-width:2;stroke-linecap:round;stroke-linejoin:round;stroke-miterlimit:10;" points="
			1276.9,476 742.6,653.1 390.1,206.1 390.1,183.4 1276.9,453.4 		"/>

			<polygon style="fill:#FAC165;stroke:#000000;stroke-width:2;stroke-linecap:round;stroke-linejoin:round;stroke-miterlimit:10;" points="
			1276.9,453.4 742.6,630.4 390.1,183.4 924.4,6.4 		"/>

			<polygon style="fill:#FFFFFF;stroke:#000000;stroke-width:2;stroke-linecap:round;stroke-linejoin:round;stroke-miterlimit:10;" points="
			1215.3,438.7 760.3,589.4 451.7,198.1 906.7,47.3 		"/>

			<polygon style="fill:#D19647;stroke:#000000;stroke-width:2;stroke-linecap:round;stroke-linejoin:round;stroke-miterlimit:10;" points="
			906.7,63.5 1205.2,442 1215.3,438.7 906.7,47.3 451.7,198.1 461.8,210.9 		"/>

			<line style="stroke:#000000;stroke-width:2;stroke-linecap:round;stroke-linejoin:round;stroke-miterlimit:10;" x1="742.6" y1="630.4" x2="742.6" y2="653.1"/>

			<polygon style="opacity:0.5;stroke:#000000;stroke-width:2;stroke-linecap:round;stroke-linejoin:round;stroke-miterlimit:10;" points="
			434.3,262.1 434.3,239.4 469.8,221.1 477.4,230.7 590,168.6 590,151.6 722.5,73.3 390.1,183.4 390.1,206.1 		"/>
	</g>
	<g id="floppy_1_" style="clip-path:url(#SVGID_2_);">
		<polygon style="stroke:#000000;stroke-width:2;stroke-linecap:round;stroke-linejoin:round;stroke-miterlimit:10;" points="
			1322.4,156.7 1126.3,317.3 1368.3,454.2 1544.7,301.4 1540.1,271.6 		"/>

			<polygon style="fill:#585E5B;stroke:#000000;stroke-width:2;stroke-linecap:round;stroke-linejoin:round;stroke-miterlimit:10;" points="
			1322.4,156.7 1124.9,316.6 1126.5,326.5 1368.3,454.2 		"/>

			<polygon style="fill:#363837;stroke:#000000;stroke-width:2;stroke-linecap:round;stroke-linejoin:round;stroke-miterlimit:10;" points="
			1496.1,239.3 1494.9,240.4 1339.4,158.5 1339.2,156.4 1320.9,146.7 1124.9,316.6 1366.7,444.3 1543.1,291.5 1538.5,261.7 		"/>
		<path style="fill:none;stroke:#000000;stroke-width:2;stroke-linecap:round;stroke-linejoin:round;stroke-miterlimit:10;" d="
			M1347.9,434.1l114.3-98.9c3.4-3,2.8-7.3-1.5-9.5l-185.9-98.1c-4.3-2.2-10.6-1.6-14,1.3L1146.4,328"/>
		<g>
			<path d="M1350.7,426.7c3.2-2.7,102.8-89.1,102.8-89.1c3.3-2.8,2.6-6.9-1.4-9l-176.4-93.1c-4-2.1-10-1.6-13.3,1.3
				c0,0-102.2,88.5-103.5,89.6c-1.9,1.6-2.4,3.7,1.7,5.9c4.1,2.2,177.5,93.6,180.6,95.2S1347.5,429.4,1350.7,426.7z"/>
			<path style="fill:#FFFFFF;stroke:#000000;stroke-width:2;stroke-linecap:round;stroke-linejoin:round;stroke-miterlimit:10;" d="
				M1350.5,425.3c3.2-2.7,102.8-89.1,102.8-89.1c3.3-2.8,2.6-6.9-1.4-9l-176.4-93.1c-4-2.1-10-1.6-13.3,1.3
				c0,0-102.2,88.5-103.5,89.6c-1.9,1.6-2.4,3.7,1.7,5.9s177.5,93.6,180.6,95.2S1347.3,428,1350.5,425.3z"/>
			<path style="fill:#FAC165;stroke:#000000;stroke-width:2;stroke-linecap:round;stroke-linejoin:round;stroke-miterlimit:10;" d="
				M1439.9,347.7c8.1-7,13.3-11.6,13.3-11.6c3.3-2.8,2.6-6.9-1.4-9l-176.4-93.1c-4-2.1-10-1.6-13.3,1.3c0,0-5.2,4.5-13.3,11.6
				L1439.9,347.7z"/>
		</g>
		<path d="M1261.1,231c3.4-3,9.8-3.6,14-1.3l185.9,98.1c1.3,0.7,3.1,2.5,3.2,4.4c0.6-2.4-0.6-4.9-3.5-6.5l-185.9-98.1
			c-4.3-2.2-10.6-1.6-14,1.3L1146.4,328l1.7,0.9L1261.1,231z"/>
		<path style="fill:#363837;stroke:#000000;stroke-width:2;stroke-linecap:round;stroke-linejoin:round;stroke-miterlimit:10;" d="
			M1338.7,156.7l-57.8,50.2c-3,2.6-2.6,6,1.8,8.6l143.6,75.9c4.9,2.1,8.4,1,11.5-1.6l56.9-49.5"/>
		<g>
			<path d="M1370.5,173.7l-57.8,50.2c-3,2.6-2.6,6,1.8,8.6l105.1,55.6c0.3,0.1,0.6,0.3,1,0.4c4.4,1.6,7.8,1.5,10.7-1l57.8-50.2
				l-0.4-2.7L1370.5,173.7z M1459.3,231.4l-47.9,41.7c-0.8,0.7-2.1,0.9-2.8,0.5l-24.3-12.9c-0.8-0.4-0.7-1.3,0.1-2l47.9-41.7
				c0.8-0.7,2.1-0.9,2.8-0.5l24.3,12.9C1460.2,229.8,1460.1,230.7,1459.3,231.4z"/>
			<path style="fill:#DBDDDC;stroke:#000000;stroke-width:2;stroke-linecap:round;stroke-linejoin:round;stroke-miterlimit:10;" d="
				M1370.2,172.1l-57.8,50.2c-3,2.6-2.6,6,1.8,8.6l105.1,55.6c4.9,2.1,8.4,1,11.5-1.6l57.8-50.2L1370.2,172.1z M1459.1,229.8
				l-47.9,41.7c-0.8,0.7-2.1,0.9-2.8,0.5l-24.3-12.9c-0.8-0.4-0.7-1.3,0.1-2l47.9-41.7c0.8-0.7,2.1-0.9,2.8-0.5l24.3,12.9
				C1459.9,228.2,1459.9,229.1,1459.1,229.8z"/>
		</g>
		<polygon points="1361.7,149.9 1361.7,149.9 1361.7,149.9 1361.7,149.9 		"/>
		<path d="M1339.2,156.4L1281,207c-1.8,1.6-2.4,3.5-1.6,5.3c0.1-1.1,0.8-2.2,1.9-3.2l58.2-50.6L1339.2,156.4z"/>

			<text transform="matrix(1.0295 0.247 -0.5841 0.8116 1212.363 324.523)" style="fill:#3966D8; font-family:'CallieChalkFont-Regular'; font-size:34.3638px;">MS-Dos</text>
	</g>

		<polygon style="clip-path:url(#SVGID_2_);fill:#C8CECC;stroke:#000000;stroke-width:2;stroke-linecap:round;stroke-linejoin:round;stroke-miterlimit:10;" points="
		-36.5,416.3 612.7,1125.1 612.7,836.8 -36.5,127.9 	"/>

		<polygon style="clip-path:url(#SVGID_2_);stroke:#000000;stroke-width:2;stroke-linecap:round;stroke-linejoin:round;stroke-miterlimit:10;" points="
		100.2,336.1 137.6,379.5 141.6,377.4 175.9,359.9 135.2,315.5 	"/>

		<polygon style="clip-path:url(#SVGID_2_);fill:#8A9994;stroke:#000000;stroke-width:2;stroke-linecap:round;stroke-linejoin:round;stroke-miterlimit:10;" points="
		-47.9,557 601.3,1265.8 601.3,879.4 -47.9,170.6 	"/>

		<polygon style="clip-path:url(#SVGID_2_);stroke:#000000;stroke-width:2;stroke-linecap:round;stroke-linejoin:round;stroke-miterlimit:10;" points="
		62.3,683 142.6,765.1 142.6,379.7 62.3,296.6 	"/>

		<polygon style="clip-path:url(#SVGID_2_);fill:#FFFFFF;stroke:#000000;stroke-width:2;stroke-linecap:round;stroke-linejoin:round;stroke-miterlimit:10;" points="
		1844.1,443.7 486.7,1111.6 486.7,823.3 1844.1,155.3 	"/>

		<polygon style="clip-path:url(#SVGID_2_);fill:#C8CECC;stroke:#000000;stroke-width:2;stroke-linecap:round;stroke-linejoin:round;stroke-miterlimit:10;" points="
		592.3,1291.3 486.7,1111.6 486.7,823.3 550.5,888.6 	"/>

		<polygon style="clip-path:url(#SVGID_2_);fill:#DBDDDC;stroke:#000000;stroke-width:2;stroke-linecap:round;stroke-linejoin:round;stroke-miterlimit:10;" points="
		1916,727.7 549.2,1402.1 549.2,888.6 1916,214.2 	"/>

		<polygon style="clip-path:url(#SVGID_2_);fill:#FFFFFF;stroke:#000000;stroke-width:2;stroke-linecap:round;stroke-linejoin:round;stroke-miterlimit:10;" points="
		116.4,906.1 116.4,339.1 1155.6,-172.2 -12.3,-63.8 -12.3,921.2 	"/>

		<polygon style="clip-path:url(#SVGID_2_);fill:#8A9994;stroke:#000000;stroke-width:2;stroke-linecap:round;stroke-linejoin:round;stroke-miterlimit:10;" points="
		67.9,921.2 -34.9,921.2 -34.9,187.7 67.9,279.5 	"/>

		<polygon style="clip-path:url(#SVGID_2_);fill:#FFFFFF;stroke:#000000;stroke-width:2;stroke-linecap:round;stroke-linejoin:round;stroke-miterlimit:10;" points="
		-4.8,-5.8 631.7,-1.4 45.3,272.2 -3.6,220.6 	"/>
	<g style="clip-path:url(#SVGID_2_);">

			<polygon style="fill:#8A9994;stroke:#000000;stroke-width:2;stroke-linecap:round;stroke-linejoin:round;stroke-miterlimit:10;" points="
			-22.7,256.8 45.3,329.4 45.3,241 -22.7,168.4 		"/>

			<polygon style="fill:#FFFFFF;stroke:#000000;stroke-width:2;stroke-linecap:round;stroke-linejoin:round;stroke-miterlimit:10;" points="
			1402.7,-338.5 45.3,329.4 45.3,241.1 1402.7,-426.8 		"/>
	</g>
	<g id="sleve_2_" style="clip-path:url(#SVGID_2_);">
		<path style="stroke:#000000;stroke-width:2;stroke-linecap:round;stroke-linejoin:round;stroke-miterlimit:10;" d="M704.3,703.8
			c0,0,77.1,214.9,101.7,267.8c24.6,52.8,10.9,181.8,26.8,236.4c16,54.7,28.6,86.1,28.6,86.1v89l141.7-20.4
			c0,0,171.9-504.6,161.1-583.2c-10.9-79.1-315.3-81.1-315.3-81.1"/>
		<path style="fill:#D1623F;stroke:#000000;stroke-width:2;stroke-linecap:round;stroke-linejoin:round;stroke-miterlimit:10;" d="
			M1033,510.4c43.3-37.4,148.8-5.5,182.1,53.4c53.7,62.3,55.3,120.9,63.3,241.4c8,119.9-24,186.8-42.8,233.4
			c-18.9,46.6-14.3,204.3-14.3,204.3s-298.8,35.2-308.5,28.3c-10.3-6.8-52-37.6-52-239.9c0-83.1,17.1-56.4-65.7-156.1
			S656.5,739.7,656.5,739.7l-53.3,26.2c0,0,18.9-90.2,196.8-136.1C923.4,597.9,1003.9,535.6,1033,510.4z"/>
		<g>
			<path style="fill:#FFFFFF;" d="M1100.7,1235.3c3.4-44.4,6.9-88.8,6.3-133.2c-0.6-48.6-6.3-95.8-14.3-142.7
				c-8-45.1-17.1-90.1-23.4-136c-3.4-23.2-5.7-47.2-6.3-70.9c-0.6-22.5,1.1-45.8,0.6-68.3c0-24.3-5.7-45.5-21.7-61.5
				c-13.1-14.1-65.7-46.4-80.6-59c-3.4,2.6-23.7,14.6-23.7,14.6c27.2,16.9,71.6,39.7,85.1,52.4c14.9,13.9,22,32,22.6,53.9
				c0.6,21.3-1.7,43.6-1.1,64.8c0.6,23.1,2.9,45.3,5.7,67.4c11.4,90.9,36,178.1,38.3,272.1c1.1,51.4-2.3,103.6-6.9,155.8
				C1087.6,1242.5,1094.4,1239.2,1100.7,1235.3z"/>
			<path style="fill:#FFFFFF;" d="M995.6,1133.8c2.6-24.7,4.7-49.4,3.2-73.5c-1.6-27-7.4-53.4-12.7-79.3
				c-5.3-26.5-8.4-53.3-7.9-81.2c1.1-28.6,4.7-57.1,6.9-85.3c3.2-46.2,1.1-97.5-24.3-132.1c-14.2-19.7-34.3-30.9-55.4-40
				c-18.5-7.8-40.9-17.7-59.9-24.9c-9.5,2.7-20.7,6.6-30.7,9.9c0.5,1.1,6.1,2.6,7.2,3c22.2,9,44.3,17.4,66.5,27
				c18.5,7.8,37.5,16.1,51.7,31.1c29,29.9,31.1,81.2,28,126.2c-2.1,28.8-5.8,57.3-6.9,85.3c-1.1,28,1.6,54.3,6.9,80.8
				c4.7,25.4,11.1,50.5,13.2,76.9c2.1,24,0,49.2-2.1,73.9c-4.7,50-11.6,103.8,10,146.2c5.3-2.6,10.6-5.8,16.4-9.1
				C984,1230.5,990.9,1179.6,995.6,1133.8z"/>
			<path style="fill:#FFFFFF;" d="M1040.2,1267.1c6.3-3.3,12.6-6.6,18.9-9.8c10.3-105.3-1.1-208.1-13.7-309.5
				c-6.3-51.9-13.1-103.7-19.4-155.6c-3.4-26.2-6.9-52.4-9.7-78.1c-2.9-23.3-6.3-46.6-16.6-66.4c-11.4-22.1-62.2-49-84.4-58.2
				c-8.7,3.8-16.9,7.4-27.8,13c23.7,7.4,82.1,31.8,95.6,56.5c10.3,18.7,12.6,42.1,15.4,64.2c2.9,24.5,6.3,49.5,9.1,74
				c12.6,99,27.4,197.8,34.8,297.5c4,56.4,4.6,113.8-1.7,171.1C1040.2,1266,1040.2,1266.5,1040.2,1267.1z"/>
		</g>
		<path style="fill:#EA7547;stroke:#000000;stroke-width:2;stroke-linecap:round;stroke-linejoin:round;stroke-miterlimit:10;" d="
			M925.9,1382c0,0,149.7-13.2,199.9-37.6c81.7-39,100-72.5,100-72.5l-4.6-102c0,0-95.4,51.7-191.4,84.4
			c-44.6,15.3-117.1,16.2-117.1,16.2L925.9,1382z"/>
		<path style="fill:none;stroke:#000000;stroke-width:2;stroke-linecap:round;stroke-linejoin:round;stroke-miterlimit:10;" d="
			M897.4,929.3c0,0,116.5-228.5,210.2-284.1"/>
	</g>
	<g style="clip-path:url(#SVGID_2_);">

			<polygon style="fill:#8A9994;stroke:#000000;stroke-width:2;stroke-linecap:round;stroke-linejoin:round;stroke-miterlimit:10;" points="
			1300.2,644.9 1544.7,525.4 1544.7,661.2 1300.2,780.7 		"/>

			<polygon style="fill:#C8CECC;stroke:#000000;stroke-width:2;stroke-linecap:round;stroke-linejoin:round;stroke-miterlimit:10;" points="
			1333.9,679.3 1578.4,559.9 1578.4,645.2 1333.9,764.6 		"/>

			<polygon style="fill:#FFFFFF;stroke:#000000;stroke-width:2;stroke-linecap:round;stroke-linejoin:round;stroke-miterlimit:10;" points="
			1333.9,679 1578.4,559.5 1531.1,510.4 1286.6,629.9 		"/>
		<polygon style="stroke:#000000;stroke-width:2;stroke-linecap:round;stroke-linejoin:round;stroke-miterlimit:10;" points="
			1333.3,678.2 1333.3,678.2 1286.6,629.9 1286.6,765.6 1300.5,780.7 1300.5,661.5 1320.1,681.3 1320.1,748.8 1333.9,763.8
			1333.9,679 		"/>
	</g>
</g>
</svg>
